G04 #@! TF.GenerationSoftware,KiCad,Pcbnew,(5.1.9-0-10_14)*
G04 #@! TF.CreationDate,2021-07-01T12:37:05-04:00*
G04 #@! TF.ProjectId,ebike_LED,6562696b-655f-44c4-9544-2e6b69636164,rev?*
G04 #@! TF.SameCoordinates,Original*
G04 #@! TF.FileFunction,Legend,Bot*
G04 #@! TF.FilePolarity,Positive*
%FSLAX46Y46*%
G04 Gerber Fmt 4.6, Leading zero omitted, Abs format (unit mm)*
G04 Created by KiCad (PCBNEW (5.1.9-0-10_14)) date 2021-07-01 12:37:05*
%MOMM*%
%LPD*%
G01*
G04 APERTURE LIST*
%ADD10C,0.100000*%
%ADD11C,0.120000*%
%ADD12C,0.150000*%
G04 APERTURE END LIST*
D10*
X43108571Y-39148809D02*
X43108571Y-39482142D01*
X43632380Y-39625000D02*
X43632380Y-39148809D01*
X42632380Y-39148809D01*
X42632380Y-39625000D01*
X43108571Y-40386904D02*
X43156190Y-40529761D01*
X43203809Y-40577380D01*
X43299047Y-40625000D01*
X43441904Y-40625000D01*
X43537142Y-40577380D01*
X43584761Y-40529761D01*
X43632380Y-40434523D01*
X43632380Y-40053571D01*
X42632380Y-40053571D01*
X42632380Y-40386904D01*
X42680000Y-40482142D01*
X42727619Y-40529761D01*
X42822857Y-40577380D01*
X42918095Y-40577380D01*
X43013333Y-40529761D01*
X43060952Y-40482142D01*
X43108571Y-40386904D01*
X43108571Y-40053571D01*
X43632380Y-41053571D02*
X42632380Y-41053571D01*
X43632380Y-41529761D02*
X42632380Y-41529761D01*
X43632380Y-42101190D02*
X43060952Y-41672619D01*
X42632380Y-42101190D02*
X43203809Y-41529761D01*
X43108571Y-42529761D02*
X43108571Y-42863095D01*
X43632380Y-43005952D02*
X43632380Y-42529761D01*
X42632380Y-42529761D01*
X42632380Y-43005952D01*
X43632380Y-44672619D02*
X43632380Y-44196428D01*
X42632380Y-44196428D01*
X43108571Y-45005952D02*
X43108571Y-45339285D01*
X43632380Y-45482142D02*
X43632380Y-45005952D01*
X42632380Y-45005952D01*
X42632380Y-45482142D01*
X43632380Y-45910714D02*
X42632380Y-45910714D01*
X42632380Y-46148809D01*
X42680000Y-46291666D01*
X42775238Y-46386904D01*
X42870476Y-46434523D01*
X43060952Y-46482142D01*
X43203809Y-46482142D01*
X43394285Y-46434523D01*
X43489523Y-46386904D01*
X43584761Y-46291666D01*
X43632380Y-46148809D01*
X43632380Y-45910714D01*
X43108571Y-48005952D02*
X43156190Y-48148809D01*
X43203809Y-48196428D01*
X43299047Y-48244047D01*
X43441904Y-48244047D01*
X43537142Y-48196428D01*
X43584761Y-48148809D01*
X43632380Y-48053571D01*
X43632380Y-47672619D01*
X42632380Y-47672619D01*
X42632380Y-48005952D01*
X42680000Y-48101190D01*
X42727619Y-48148809D01*
X42822857Y-48196428D01*
X42918095Y-48196428D01*
X43013333Y-48148809D01*
X43060952Y-48101190D01*
X43108571Y-48005952D01*
X43108571Y-47672619D01*
X42632380Y-48863095D02*
X42632380Y-49053571D01*
X42680000Y-49148809D01*
X42775238Y-49244047D01*
X42965714Y-49291666D01*
X43299047Y-49291666D01*
X43489523Y-49244047D01*
X43584761Y-49148809D01*
X43632380Y-49053571D01*
X43632380Y-48863095D01*
X43584761Y-48767857D01*
X43489523Y-48672619D01*
X43299047Y-48625000D01*
X42965714Y-48625000D01*
X42775238Y-48672619D01*
X42680000Y-48767857D01*
X42632380Y-48863095D01*
X43346666Y-49672619D02*
X43346666Y-50148809D01*
X43632380Y-49577380D02*
X42632380Y-49910714D01*
X43632380Y-50244047D01*
X43632380Y-51148809D02*
X43156190Y-50815476D01*
X43632380Y-50577380D02*
X42632380Y-50577380D01*
X42632380Y-50958333D01*
X42680000Y-51053571D01*
X42727619Y-51101190D01*
X42822857Y-51148809D01*
X42965714Y-51148809D01*
X43060952Y-51101190D01*
X43108571Y-51053571D01*
X43156190Y-50958333D01*
X43156190Y-50577380D01*
X43632380Y-51577380D02*
X42632380Y-51577380D01*
X42632380Y-51815476D01*
X42680000Y-51958333D01*
X42775238Y-52053571D01*
X42870476Y-52101190D01*
X43060952Y-52148809D01*
X43203809Y-52148809D01*
X43394285Y-52101190D01*
X43489523Y-52053571D01*
X43584761Y-51958333D01*
X43632380Y-51815476D01*
X43632380Y-51577380D01*
X42632380Y-53196428D02*
X43632380Y-53529761D01*
X42632380Y-53863095D01*
X43632380Y-54720238D02*
X43632380Y-54148809D01*
X43632380Y-54434523D02*
X42632380Y-54434523D01*
X42775238Y-54339285D01*
X42870476Y-54244047D01*
X42918095Y-54148809D01*
X43537142Y-55148809D02*
X43584761Y-55196428D01*
X43632380Y-55148809D01*
X43584761Y-55101190D01*
X43537142Y-55148809D01*
X43632380Y-55148809D01*
X42632380Y-55815476D02*
X42632380Y-55910714D01*
X42680000Y-56005952D01*
X42727619Y-56053571D01*
X42822857Y-56101190D01*
X43013333Y-56148809D01*
X43251428Y-56148809D01*
X43441904Y-56101190D01*
X43537142Y-56053571D01*
X43584761Y-56005952D01*
X43632380Y-55910714D01*
X43632380Y-55815476D01*
X43584761Y-55720238D01*
X43537142Y-55672619D01*
X43441904Y-55625000D01*
X43251428Y-55577380D01*
X43013333Y-55577380D01*
X42822857Y-55625000D01*
X42727619Y-55672619D01*
X42680000Y-55720238D01*
X42632380Y-55815476D01*
D11*
X35960000Y-58803000D02*
X40405000Y-58803000D01*
X35960000Y-60708000D02*
X35960000Y-58803000D01*
X40405000Y-60708000D02*
X35960000Y-60708000D01*
X40405000Y-58803000D02*
X40405000Y-60708000D01*
X37230000Y-56898000D02*
X39135000Y-56898000D01*
X37230000Y-58803000D02*
X37230000Y-56898000D01*
X39135000Y-58803000D02*
X37230000Y-58803000D01*
X39135000Y-56898000D02*
X39135000Y-58803000D01*
X34055000Y-56898000D02*
X34055000Y-45468000D01*
X41675000Y-45468000D02*
X34055000Y-45468000D01*
X41675000Y-45468000D02*
X41675000Y-56898000D01*
X41675000Y-56898000D02*
X34055000Y-56898000D01*
X37415736Y-41429000D02*
X37869864Y-41429000D01*
X37415736Y-42899000D02*
X37869864Y-42899000D01*
D12*
X79800000Y-51480000D02*
X81070000Y-51480000D01*
X81070000Y-51480000D02*
X81070000Y-43860000D01*
X81070000Y-43860000D02*
X79800000Y-43860000D01*
X68370000Y-52750000D02*
X64560000Y-52750000D01*
X64560000Y-52750000D02*
X64560000Y-50210000D01*
X64560000Y-50210000D02*
X68370000Y-50210000D01*
X68370000Y-50210000D02*
X68370000Y-52750000D01*
X74720000Y-51480000D02*
X74720000Y-43860000D01*
X74720000Y-43860000D02*
X79800000Y-43860000D01*
X74720000Y-51480000D02*
X79800000Y-51480000D01*
X73450000Y-52750000D02*
X70910000Y-52750000D01*
X70910000Y-52750000D02*
X70910000Y-50210000D01*
X70910000Y-50210000D02*
X73450000Y-50210000D01*
X73450000Y-50210000D02*
X73450000Y-52750000D01*
X46780000Y-50210000D02*
X49320000Y-50210000D01*
X49320000Y-50210000D02*
X49320000Y-45130000D01*
X49320000Y-45130000D02*
X46780000Y-45130000D01*
X53130000Y-52750000D02*
X53130000Y-42590000D01*
X62020000Y-42590000D02*
X62020000Y-52750000D01*
X53130000Y-42590000D02*
X62020000Y-42590000D01*
X53130000Y-52750000D02*
X62020000Y-52750000D01*
X79800000Y-38780000D02*
X44240000Y-38780000D01*
X44240000Y-38780000D02*
X44240000Y-56560000D01*
X44240000Y-56560000D02*
X79800000Y-56560000D01*
X79800000Y-56560000D02*
X79800000Y-38780000D01*
D10*
G36*
X58083000Y-50591000D02*
G01*
X58337000Y-50337000D01*
X57956000Y-50083000D01*
X57702000Y-50337000D01*
X58083000Y-50591000D01*
G37*
X58083000Y-50591000D02*
X58337000Y-50337000D01*
X57956000Y-50083000D01*
X57702000Y-50337000D01*
X58083000Y-50591000D01*
G36*
X57702000Y-50972000D02*
G01*
X57956000Y-50718000D01*
X57575000Y-50464000D01*
X57321000Y-50718000D01*
X57702000Y-50972000D01*
G37*
X57702000Y-50972000D02*
X57956000Y-50718000D01*
X57575000Y-50464000D01*
X57321000Y-50718000D01*
X57702000Y-50972000D01*
G36*
X57067000Y-49829000D02*
G01*
X57321000Y-49575000D01*
X56940000Y-49321000D01*
X56686000Y-49575000D01*
X57067000Y-49829000D01*
G37*
X57067000Y-49829000D02*
X57321000Y-49575000D01*
X56940000Y-49321000D01*
X56686000Y-49575000D01*
X57067000Y-49829000D01*
G36*
X57829000Y-51734000D02*
G01*
X58083000Y-51480000D01*
X57702000Y-51226000D01*
X57448000Y-51480000D01*
X57829000Y-51734000D01*
G37*
X57829000Y-51734000D02*
X58083000Y-51480000D01*
X57702000Y-51226000D01*
X57448000Y-51480000D01*
X57829000Y-51734000D01*
G36*
X57575000Y-50210000D02*
G01*
X57829000Y-49956000D01*
X57448000Y-49702000D01*
X57194000Y-49956000D01*
X57575000Y-50210000D01*
G37*
X57575000Y-50210000D02*
X57829000Y-49956000D01*
X57448000Y-49702000D01*
X57194000Y-49956000D01*
X57575000Y-50210000D01*
G36*
X57448000Y-52115000D02*
G01*
X57702000Y-51861000D01*
X57321000Y-51607000D01*
X57067000Y-51861000D01*
X57448000Y-52115000D01*
G37*
X57448000Y-52115000D02*
X57702000Y-51861000D01*
X57321000Y-51607000D01*
X57067000Y-51861000D01*
X57448000Y-52115000D01*
G36*
X58210000Y-51353000D02*
G01*
X58464000Y-51099000D01*
X58083000Y-50845000D01*
X57829000Y-51099000D01*
X58210000Y-51353000D01*
G37*
X58210000Y-51353000D02*
X58464000Y-51099000D01*
X58083000Y-50845000D01*
X57829000Y-51099000D01*
X58210000Y-51353000D01*
G36*
X57194000Y-50591000D02*
G01*
X57448000Y-50337000D01*
X57067000Y-50083000D01*
X56813000Y-50337000D01*
X57194000Y-50591000D01*
G37*
X57194000Y-50591000D02*
X57448000Y-50337000D01*
X57067000Y-50083000D01*
X56813000Y-50337000D01*
X57194000Y-50591000D01*
D12*
X39198333Y-56032761D02*
X39055476Y-56080380D01*
X38817380Y-56080380D01*
X38722142Y-56032761D01*
X38674523Y-55985142D01*
X38626904Y-55889904D01*
X38626904Y-55794666D01*
X38674523Y-55699428D01*
X38722142Y-55651809D01*
X38817380Y-55604190D01*
X39007857Y-55556571D01*
X39103095Y-55508952D01*
X39150714Y-55461333D01*
X39198333Y-55366095D01*
X39198333Y-55270857D01*
X39150714Y-55175619D01*
X39103095Y-55128000D01*
X39007857Y-55080380D01*
X38769761Y-55080380D01*
X38626904Y-55128000D01*
X38293571Y-55080380D02*
X38055476Y-56080380D01*
X37865000Y-55366095D01*
X37674523Y-56080380D01*
X37436428Y-55080380D01*
X36531666Y-56080380D02*
X37103095Y-56080380D01*
X36817380Y-56080380D02*
X36817380Y-55080380D01*
X36912619Y-55223238D01*
X37007857Y-55318476D01*
X37103095Y-55366095D01*
X37809466Y-44266380D02*
X38142800Y-43790190D01*
X38380895Y-44266380D02*
X38380895Y-43266380D01*
X37999942Y-43266380D01*
X37904704Y-43314000D01*
X37857085Y-43361619D01*
X37809466Y-43456857D01*
X37809466Y-43599714D01*
X37857085Y-43694952D01*
X37904704Y-43742571D01*
X37999942Y-43790190D01*
X38380895Y-43790190D01*
X36952323Y-43266380D02*
X37142800Y-43266380D01*
X37238038Y-43314000D01*
X37285657Y-43361619D01*
X37380895Y-43504476D01*
X37428514Y-43694952D01*
X37428514Y-44075904D01*
X37380895Y-44171142D01*
X37333276Y-44218761D01*
X37238038Y-44266380D01*
X37047561Y-44266380D01*
X36952323Y-44218761D01*
X36904704Y-44171142D01*
X36857085Y-44075904D01*
X36857085Y-43837809D01*
X36904704Y-43742571D01*
X36952323Y-43694952D01*
X37047561Y-43647333D01*
X37238038Y-43647333D01*
X37333276Y-43694952D01*
X37380895Y-43742571D01*
X37428514Y-43837809D01*
X65881904Y-45622380D02*
X65881904Y-46431904D01*
X65834285Y-46527142D01*
X65786666Y-46574761D01*
X65691428Y-46622380D01*
X65500952Y-46622380D01*
X65405714Y-46574761D01*
X65358095Y-46527142D01*
X65310476Y-46431904D01*
X65310476Y-45622380D01*
X64310476Y-46622380D02*
X64881904Y-46622380D01*
X64596190Y-46622380D02*
X64596190Y-45622380D01*
X64691428Y-45765238D01*
X64786666Y-45860476D01*
X64881904Y-45908095D01*
X61791666Y-46462666D02*
X61791666Y-45762666D01*
X61558333Y-46262666D01*
X61325000Y-45762666D01*
X61325000Y-46462666D01*
X60991666Y-46462666D02*
X60991666Y-45762666D01*
X60591666Y-46462666D02*
X60891666Y-46062666D01*
X60591666Y-45762666D02*
X60991666Y-46162666D01*
X60325000Y-45829333D02*
X60291666Y-45796000D01*
X60225000Y-45762666D01*
X60058333Y-45762666D01*
X59991666Y-45796000D01*
X59958333Y-45829333D01*
X59925000Y-45896000D01*
X59925000Y-45962666D01*
X59958333Y-46062666D01*
X60358333Y-46462666D01*
X59925000Y-46462666D01*
X59491666Y-45762666D02*
X59425000Y-45762666D01*
X59358333Y-45796000D01*
X59325000Y-45829333D01*
X59291666Y-45896000D01*
X59258333Y-46029333D01*
X59258333Y-46196000D01*
X59291666Y-46329333D01*
X59325000Y-46396000D01*
X59358333Y-46429333D01*
X59425000Y-46462666D01*
X59491666Y-46462666D01*
X59558333Y-46429333D01*
X59591666Y-46396000D01*
X59625000Y-46329333D01*
X59658333Y-46196000D01*
X59658333Y-46029333D01*
X59625000Y-45896000D01*
X59591666Y-45829333D01*
X59558333Y-45796000D01*
X59491666Y-45762666D01*
X58958333Y-46462666D02*
X58958333Y-45762666D01*
X58791666Y-45762666D01*
X58691666Y-45796000D01*
X58625000Y-45862666D01*
X58591666Y-45929333D01*
X58558333Y-46062666D01*
X58558333Y-46162666D01*
X58591666Y-46296000D01*
X58625000Y-46362666D01*
X58691666Y-46429333D01*
X58791666Y-46462666D01*
X58958333Y-46462666D01*
X58325000Y-45762666D02*
X57858333Y-46462666D01*
X57858333Y-45762666D02*
X58325000Y-46462666D01*
X57225000Y-46462666D02*
X57625000Y-46462666D01*
X57425000Y-46462666D02*
X57425000Y-45762666D01*
X57491666Y-45862666D01*
X57558333Y-45929333D01*
X57625000Y-45962666D01*
X56958333Y-45829333D02*
X56925000Y-45796000D01*
X56858333Y-45762666D01*
X56691666Y-45762666D01*
X56625000Y-45796000D01*
X56591666Y-45829333D01*
X56558333Y-45896000D01*
X56558333Y-45962666D01*
X56591666Y-46062666D01*
X56991666Y-46462666D01*
X56558333Y-46462666D01*
X56158333Y-46062666D02*
X56225000Y-46029333D01*
X56258333Y-45996000D01*
X56291666Y-45929333D01*
X56291666Y-45896000D01*
X56258333Y-45829333D01*
X56225000Y-45796000D01*
X56158333Y-45762666D01*
X56025000Y-45762666D01*
X55958333Y-45796000D01*
X55925000Y-45829333D01*
X55891666Y-45896000D01*
X55891666Y-45929333D01*
X55925000Y-45996000D01*
X55958333Y-46029333D01*
X56025000Y-46062666D01*
X56158333Y-46062666D01*
X56225000Y-46096000D01*
X56258333Y-46129333D01*
X56291666Y-46196000D01*
X56291666Y-46329333D01*
X56258333Y-46396000D01*
X56225000Y-46429333D01*
X56158333Y-46462666D01*
X56025000Y-46462666D01*
X55958333Y-46429333D01*
X55925000Y-46396000D01*
X55891666Y-46329333D01*
X55891666Y-46196000D01*
X55925000Y-46129333D01*
X55958333Y-46096000D01*
X56025000Y-46062666D01*
X55691666Y-45762666D02*
X55458333Y-46462666D01*
X55225000Y-45762666D01*
X54658333Y-46462666D02*
X54991666Y-46462666D01*
X54991666Y-45762666D01*
X54425000Y-46462666D02*
X54425000Y-45762666D01*
X54425000Y-46096000D02*
X54025000Y-46096000D01*
X54025000Y-46462666D02*
X54025000Y-45762666D01*
X53358333Y-45762666D02*
X53691666Y-45762666D01*
X53725000Y-46096000D01*
X53691666Y-46062666D01*
X53625000Y-46029333D01*
X53458333Y-46029333D01*
X53391666Y-46062666D01*
X53358333Y-46096000D01*
X53325000Y-46162666D01*
X53325000Y-46329333D01*
X53358333Y-46396000D01*
X53391666Y-46429333D01*
X53458333Y-46462666D01*
X53625000Y-46462666D01*
X53691666Y-46429333D01*
X53725000Y-46396000D01*
X61308333Y-47732666D02*
X61308333Y-47032666D01*
X61075000Y-47532666D01*
X60841666Y-47032666D01*
X60841666Y-47732666D01*
X60508333Y-47732666D02*
X60508333Y-47032666D01*
X60108333Y-47732666D02*
X60408333Y-47332666D01*
X60108333Y-47032666D02*
X60508333Y-47432666D01*
X59475000Y-47732666D02*
X59808333Y-47732666D01*
X59808333Y-47032666D01*
X59275000Y-47099333D02*
X59241666Y-47066000D01*
X59175000Y-47032666D01*
X59008333Y-47032666D01*
X58941666Y-47066000D01*
X58908333Y-47099333D01*
X58875000Y-47166000D01*
X58875000Y-47232666D01*
X58908333Y-47332666D01*
X59308333Y-47732666D01*
X58875000Y-47732666D01*
X58275000Y-47032666D02*
X58408333Y-47032666D01*
X58475000Y-47066000D01*
X58508333Y-47099333D01*
X58575000Y-47199333D01*
X58608333Y-47332666D01*
X58608333Y-47599333D01*
X58575000Y-47666000D01*
X58541666Y-47699333D01*
X58475000Y-47732666D01*
X58341666Y-47732666D01*
X58275000Y-47699333D01*
X58241666Y-47666000D01*
X58208333Y-47599333D01*
X58208333Y-47432666D01*
X58241666Y-47366000D01*
X58275000Y-47332666D01*
X58341666Y-47299333D01*
X58475000Y-47299333D01*
X58541666Y-47332666D01*
X58575000Y-47366000D01*
X58608333Y-47432666D01*
X57975000Y-47032666D02*
X57508333Y-47032666D01*
X57975000Y-47732666D01*
X57508333Y-47732666D01*
X56941666Y-47032666D02*
X57075000Y-47032666D01*
X57141666Y-47066000D01*
X57175000Y-47099333D01*
X57241666Y-47199333D01*
X57275000Y-47332666D01*
X57275000Y-47599333D01*
X57241666Y-47666000D01*
X57208333Y-47699333D01*
X57141666Y-47732666D01*
X57008333Y-47732666D01*
X56941666Y-47699333D01*
X56908333Y-47666000D01*
X56875000Y-47599333D01*
X56875000Y-47432666D01*
X56908333Y-47366000D01*
X56941666Y-47332666D01*
X57008333Y-47299333D01*
X57141666Y-47299333D01*
X57208333Y-47332666D01*
X57241666Y-47366000D01*
X57275000Y-47432666D01*
X56275000Y-47266000D02*
X56275000Y-47732666D01*
X56441666Y-46999333D02*
X56608333Y-47499333D01*
X56175000Y-47499333D01*
X56008333Y-47032666D02*
X55775000Y-47732666D01*
X55541666Y-47032666D01*
X55075000Y-47366000D02*
X55308333Y-47366000D01*
X55308333Y-47732666D02*
X55308333Y-47032666D01*
X54975000Y-47032666D01*
X54808333Y-47032666D02*
X54408333Y-47032666D01*
X54608333Y-47732666D02*
X54608333Y-47032666D01*
X53875000Y-47266000D02*
X53875000Y-47732666D01*
X54041666Y-46999333D02*
X54208333Y-47499333D01*
X53775000Y-47499333D01*
X61791666Y-45192666D02*
X61791666Y-44492666D01*
X61558333Y-44992666D01*
X61325000Y-44492666D01*
X61325000Y-45192666D01*
X60991666Y-45192666D02*
X60991666Y-44492666D01*
X60591666Y-45192666D02*
X60891666Y-44792666D01*
X60591666Y-44492666D02*
X60991666Y-44892666D01*
X60325000Y-44559333D02*
X60291666Y-44526000D01*
X60225000Y-44492666D01*
X60058333Y-44492666D01*
X59991666Y-44526000D01*
X59958333Y-44559333D01*
X59925000Y-44626000D01*
X59925000Y-44692666D01*
X59958333Y-44792666D01*
X60358333Y-45192666D01*
X59925000Y-45192666D01*
X59491666Y-44492666D02*
X59425000Y-44492666D01*
X59358333Y-44526000D01*
X59325000Y-44559333D01*
X59291666Y-44626000D01*
X59258333Y-44759333D01*
X59258333Y-44926000D01*
X59291666Y-45059333D01*
X59325000Y-45126000D01*
X59358333Y-45159333D01*
X59425000Y-45192666D01*
X59491666Y-45192666D01*
X59558333Y-45159333D01*
X59591666Y-45126000D01*
X59625000Y-45059333D01*
X59658333Y-44926000D01*
X59658333Y-44759333D01*
X59625000Y-44626000D01*
X59591666Y-44559333D01*
X59558333Y-44526000D01*
X59491666Y-44492666D01*
X58958333Y-45192666D02*
X58958333Y-44492666D01*
X58791666Y-44492666D01*
X58691666Y-44526000D01*
X58625000Y-44592666D01*
X58591666Y-44659333D01*
X58558333Y-44792666D01*
X58558333Y-44892666D01*
X58591666Y-45026000D01*
X58625000Y-45092666D01*
X58691666Y-45159333D01*
X58791666Y-45192666D01*
X58958333Y-45192666D01*
X58325000Y-44492666D02*
X57858333Y-45192666D01*
X57858333Y-44492666D02*
X58325000Y-45192666D01*
X57625000Y-44559333D02*
X57591666Y-44526000D01*
X57525000Y-44492666D01*
X57358333Y-44492666D01*
X57291666Y-44526000D01*
X57258333Y-44559333D01*
X57225000Y-44626000D01*
X57225000Y-44692666D01*
X57258333Y-44792666D01*
X57658333Y-45192666D01*
X57225000Y-45192666D01*
X56591666Y-44492666D02*
X56925000Y-44492666D01*
X56958333Y-44826000D01*
X56925000Y-44792666D01*
X56858333Y-44759333D01*
X56691666Y-44759333D01*
X56625000Y-44792666D01*
X56591666Y-44826000D01*
X56558333Y-44892666D01*
X56558333Y-45059333D01*
X56591666Y-45126000D01*
X56625000Y-45159333D01*
X56691666Y-45192666D01*
X56858333Y-45192666D01*
X56925000Y-45159333D01*
X56958333Y-45126000D01*
X55958333Y-44492666D02*
X56091666Y-44492666D01*
X56158333Y-44526000D01*
X56191666Y-44559333D01*
X56258333Y-44659333D01*
X56291666Y-44792666D01*
X56291666Y-45059333D01*
X56258333Y-45126000D01*
X56225000Y-45159333D01*
X56158333Y-45192666D01*
X56025000Y-45192666D01*
X55958333Y-45159333D01*
X55925000Y-45126000D01*
X55891666Y-45059333D01*
X55891666Y-44892666D01*
X55925000Y-44826000D01*
X55958333Y-44792666D01*
X56025000Y-44759333D01*
X56158333Y-44759333D01*
X56225000Y-44792666D01*
X56258333Y-44826000D01*
X56291666Y-44892666D01*
X55691666Y-44492666D02*
X55458333Y-45192666D01*
X55225000Y-44492666D01*
X54658333Y-45192666D02*
X54991666Y-45192666D01*
X54991666Y-44492666D01*
X54425000Y-45192666D02*
X54425000Y-44492666D01*
X54425000Y-44826000D02*
X54025000Y-44826000D01*
X54025000Y-45192666D02*
X54025000Y-44492666D01*
X53758333Y-44492666D02*
X53291666Y-44492666D01*
X53591666Y-45192666D01*
M02*
