G04 #@! TF.GenerationSoftware,KiCad,Pcbnew,(6.0.7-1)-1*
G04 #@! TF.CreationDate,2022-11-28T10:58:20-05:00*
G04 #@! TF.ProjectId,ebike_LED,6562696b-655f-44c4-9544-2e6b69636164,rev?*
G04 #@! TF.SameCoordinates,Original*
G04 #@! TF.FileFunction,Legend,Bot*
G04 #@! TF.FilePolarity,Positive*
%FSLAX46Y46*%
G04 Gerber Fmt 4.6, Leading zero omitted, Abs format (unit mm)*
G04 Created by KiCad (PCBNEW (6.0.7-1)-1) date 2022-11-28 10:58:20*
%MOMM*%
%LPD*%
G01*
G04 APERTURE LIST*
%ADD10C,0.100000*%
%ADD11C,0.150000*%
%ADD12C,0.120000*%
G04 APERTURE END LIST*
D10*
X98728571Y-40923809D02*
X98728571Y-41257142D01*
X99252380Y-41400000D02*
X99252380Y-40923809D01*
X98252380Y-40923809D01*
X98252380Y-41400000D01*
X98728571Y-42161904D02*
X98776190Y-42304761D01*
X98823809Y-42352380D01*
X98919047Y-42400000D01*
X99061904Y-42400000D01*
X99157142Y-42352380D01*
X99204761Y-42304761D01*
X99252380Y-42209523D01*
X99252380Y-41828571D01*
X98252380Y-41828571D01*
X98252380Y-42161904D01*
X98300000Y-42257142D01*
X98347619Y-42304761D01*
X98442857Y-42352380D01*
X98538095Y-42352380D01*
X98633333Y-42304761D01*
X98680952Y-42257142D01*
X98728571Y-42161904D01*
X98728571Y-41828571D01*
X99252380Y-42828571D02*
X98252380Y-42828571D01*
X99252380Y-43304761D02*
X98252380Y-43304761D01*
X99252380Y-43876190D02*
X98680952Y-43447619D01*
X98252380Y-43876190D02*
X98823809Y-43304761D01*
X98728571Y-44304761D02*
X98728571Y-44638095D01*
X99252380Y-44780952D02*
X99252380Y-44304761D01*
X98252380Y-44304761D01*
X98252380Y-44780952D01*
X99252380Y-46447619D02*
X99252380Y-45971428D01*
X98252380Y-45971428D01*
X98728571Y-46780952D02*
X98728571Y-47114285D01*
X99252380Y-47257142D02*
X99252380Y-46780952D01*
X98252380Y-46780952D01*
X98252380Y-47257142D01*
X99252380Y-47685714D02*
X98252380Y-47685714D01*
X98252380Y-47923809D01*
X98300000Y-48066666D01*
X98395238Y-48161904D01*
X98490476Y-48209523D01*
X98680952Y-48257142D01*
X98823809Y-48257142D01*
X99014285Y-48209523D01*
X99109523Y-48161904D01*
X99204761Y-48066666D01*
X99252380Y-47923809D01*
X99252380Y-47685714D01*
X98728571Y-49780952D02*
X98776190Y-49923809D01*
X98823809Y-49971428D01*
X98919047Y-50019047D01*
X99061904Y-50019047D01*
X99157142Y-49971428D01*
X99204761Y-49923809D01*
X99252380Y-49828571D01*
X99252380Y-49447619D01*
X98252380Y-49447619D01*
X98252380Y-49780952D01*
X98300000Y-49876190D01*
X98347619Y-49923809D01*
X98442857Y-49971428D01*
X98538095Y-49971428D01*
X98633333Y-49923809D01*
X98680952Y-49876190D01*
X98728571Y-49780952D01*
X98728571Y-49447619D01*
X98252380Y-50638095D02*
X98252380Y-50828571D01*
X98300000Y-50923809D01*
X98395238Y-51019047D01*
X98585714Y-51066666D01*
X98919047Y-51066666D01*
X99109523Y-51019047D01*
X99204761Y-50923809D01*
X99252380Y-50828571D01*
X99252380Y-50638095D01*
X99204761Y-50542857D01*
X99109523Y-50447619D01*
X98919047Y-50400000D01*
X98585714Y-50400000D01*
X98395238Y-50447619D01*
X98300000Y-50542857D01*
X98252380Y-50638095D01*
X98966666Y-51447619D02*
X98966666Y-51923809D01*
X99252380Y-51352380D02*
X98252380Y-51685714D01*
X99252380Y-52019047D01*
X99252380Y-52923809D02*
X98776190Y-52590476D01*
X99252380Y-52352380D02*
X98252380Y-52352380D01*
X98252380Y-52733333D01*
X98300000Y-52828571D01*
X98347619Y-52876190D01*
X98442857Y-52923809D01*
X98585714Y-52923809D01*
X98680952Y-52876190D01*
X98728571Y-52828571D01*
X98776190Y-52733333D01*
X98776190Y-52352380D01*
X99252380Y-53352380D02*
X98252380Y-53352380D01*
X98252380Y-53590476D01*
X98300000Y-53733333D01*
X98395238Y-53828571D01*
X98490476Y-53876190D01*
X98680952Y-53923809D01*
X98823809Y-53923809D01*
X99014285Y-53876190D01*
X99109523Y-53828571D01*
X99204761Y-53733333D01*
X99252380Y-53590476D01*
X99252380Y-53352380D01*
X98252380Y-54971428D02*
X99252380Y-55304761D01*
X98252380Y-55638095D01*
X99252380Y-56495238D02*
X99252380Y-55923809D01*
X99252380Y-56209523D02*
X98252380Y-56209523D01*
X98395238Y-56114285D01*
X98490476Y-56019047D01*
X98538095Y-55923809D01*
X99157142Y-56923809D02*
X99204761Y-56971428D01*
X99252380Y-56923809D01*
X99204761Y-56876190D01*
X99157142Y-56923809D01*
X99252380Y-56923809D01*
X99252380Y-57923809D02*
X99252380Y-57352380D01*
X99252380Y-57638095D02*
X98252380Y-57638095D01*
X98395238Y-57542857D01*
X98490476Y-57447619D01*
X98538095Y-57352380D01*
D11*
X84564285Y-58516666D02*
X84088095Y-58516666D01*
X84659523Y-58802380D02*
X84326190Y-57802380D01*
X83992857Y-58802380D01*
X83135714Y-58802380D02*
X83707142Y-58802380D01*
X83421428Y-58802380D02*
X83421428Y-57802380D01*
X83516666Y-57945238D01*
X83611904Y-58040476D01*
X83707142Y-58088095D01*
D12*
X45864000Y-42875200D02*
X45864000Y-60655200D01*
X94234000Y-63305200D02*
X48514000Y-63305200D01*
X94234000Y-40225200D02*
X48514000Y-40225200D01*
X96884000Y-42875200D02*
X96884000Y-60655200D01*
X89424000Y-63625200D02*
X91424000Y-63625200D01*
X96884000Y-42875200D02*
G75*
G03*
X94234000Y-40225200I-2650000J0D01*
G01*
X94234000Y-63305200D02*
G75*
G03*
X96884000Y-60655200I0J2650000D01*
G01*
X48514000Y-40225200D02*
G75*
G03*
X45864000Y-42875200I0J-2650000D01*
G01*
X45864000Y-60655200D02*
G75*
G03*
X48514000Y-63305200I2650000J0D01*
G01*
M02*
