G04 #@! TF.GenerationSoftware,KiCad,Pcbnew,(6.0.7-1)-1*
G04 #@! TF.CreationDate,2022-11-28T10:58:20-05:00*
G04 #@! TF.ProjectId,ebike_LED,6562696b-655f-44c4-9544-2e6b69636164,rev?*
G04 #@! TF.SameCoordinates,Original*
G04 #@! TF.FileFunction,Copper,L2,Bot*
G04 #@! TF.FilePolarity,Positive*
%FSLAX46Y46*%
G04 Gerber Fmt 4.6, Leading zero omitted, Abs format (unit mm)*
G04 Created by KiCad (PCBNEW (6.0.7-1)-1) date 2022-11-28 10:58:20*
%MOMM*%
%LPD*%
G01*
G04 APERTURE LIST*
G04 #@! TA.AperFunction,ComponentPad*
%ADD10R,1.700000X1.700000*%
G04 #@! TD*
G04 #@! TA.AperFunction,ComponentPad*
%ADD11O,1.700000X1.700000*%
G04 #@! TD*
G04 #@! TA.AperFunction,ComponentPad*
%ADD12O,3.048000X1.850000*%
G04 #@! TD*
G04 #@! TA.AperFunction,ComponentPad*
%ADD13R,1.600000X1.600000*%
G04 #@! TD*
G04 #@! TA.AperFunction,ComponentPad*
%ADD14C,1.600000*%
G04 #@! TD*
G04 #@! TA.AperFunction,ViaPad*
%ADD15C,0.800000*%
G04 #@! TD*
G04 #@! TA.AperFunction,Conductor*
%ADD16C,0.800000*%
G04 #@! TD*
G04 #@! TA.AperFunction,Conductor*
%ADD17C,0.250000*%
G04 #@! TD*
G04 APERTURE END LIST*
D10*
X59791600Y-66725800D03*
D11*
X57251600Y-66725800D03*
X54711600Y-66725800D03*
X52171600Y-66725800D03*
D10*
X65619321Y-38021200D03*
D11*
X68159321Y-38021200D03*
X70699321Y-38021200D03*
X73239321Y-38021200D03*
X75779321Y-38021200D03*
D12*
X114260000Y-52070000D03*
X101760000Y-52070000D03*
X101760000Y-57070000D03*
X114260000Y-57070000D03*
X101790000Y-30350000D03*
X114290000Y-30350000D03*
X114290000Y-35350000D03*
X101790000Y-35350000D03*
D13*
X90424000Y-61925200D03*
D14*
X87884000Y-61925200D03*
X85344000Y-61925200D03*
X82804000Y-61925200D03*
X80264000Y-61925200D03*
X77724000Y-61925200D03*
X75184000Y-61925200D03*
X72644000Y-61925200D03*
X70104000Y-61925200D03*
X67564000Y-61925200D03*
X65024000Y-61925200D03*
X62484000Y-61925200D03*
X59944000Y-61925200D03*
X57404000Y-61925200D03*
X54864000Y-61925200D03*
X52324000Y-61925200D03*
X52324000Y-41605200D03*
X54864000Y-41605200D03*
X57404000Y-41605200D03*
X59944000Y-41605200D03*
X62484000Y-41605200D03*
X65024000Y-41605200D03*
X67564000Y-41605200D03*
X70104000Y-41605200D03*
X72644000Y-41605200D03*
X75184000Y-41605200D03*
X77724000Y-41605200D03*
X80264000Y-41605200D03*
D15*
X77470000Y-44196000D03*
X89154000Y-59690000D03*
D16*
X50292000Y-58674000D02*
X50292000Y-40132000D01*
X58674000Y-64008000D02*
X59791600Y-65125600D01*
X52402800Y-38021200D02*
X65619321Y-38021200D01*
X51816000Y-60198000D02*
X50292000Y-58674000D01*
X61468000Y-60198000D02*
X51816000Y-60198000D01*
X59791600Y-65125600D02*
X59791600Y-66725800D01*
X50292000Y-40132000D02*
X52402800Y-38021200D01*
X51816000Y-64008000D02*
X58674000Y-64008000D01*
X51816000Y-60198000D02*
X50546000Y-61468000D01*
X50546000Y-62738000D02*
X51816000Y-64008000D01*
X50546000Y-61468000D02*
X50546000Y-62738000D01*
X77470000Y-44196000D02*
X61468000Y-60198000D01*
D17*
X101760000Y-52070000D02*
X101760000Y-52418000D01*
X101760000Y-52418000D02*
X94488000Y-59690000D01*
X94488000Y-59690000D02*
X89154000Y-59690000D01*
G04 #@! TA.AperFunction,Conductor*
G36*
X114105304Y-25928502D02*
G01*
X114126278Y-25945405D01*
X116294595Y-28113723D01*
X116328621Y-28176035D01*
X116331500Y-28202818D01*
X116331500Y-29505940D01*
X116311498Y-29574061D01*
X116257842Y-29620554D01*
X116187568Y-29630658D01*
X116122988Y-29601164D01*
X116104740Y-29581593D01*
X116103070Y-29579368D01*
X115964642Y-29395000D01*
X115794223Y-29232143D01*
X115599492Y-29099307D01*
X115594808Y-29097133D01*
X115594805Y-29097131D01*
X115390372Y-29002236D01*
X115390367Y-29002234D01*
X115385681Y-29000059D01*
X115158532Y-28937065D01*
X115153395Y-28936516D01*
X114969437Y-28916856D01*
X114969429Y-28916856D01*
X114966102Y-28916500D01*
X113631243Y-28916500D01*
X113628670Y-28916712D01*
X113628659Y-28916712D01*
X113461221Y-28930478D01*
X113461215Y-28930479D01*
X113456070Y-28930902D01*
X113227449Y-28988327D01*
X113011277Y-29082322D01*
X112813359Y-29210360D01*
X112809536Y-29213839D01*
X112809533Y-29213841D01*
X112785495Y-29235714D01*
X112639011Y-29369005D01*
X112635812Y-29373056D01*
X112635808Y-29373060D01*
X112496117Y-29549939D01*
X112492915Y-29553994D01*
X112378995Y-29760361D01*
X112377271Y-29765230D01*
X112377269Y-29765234D01*
X112328167Y-29903895D01*
X112300309Y-29982564D01*
X112299402Y-29987657D01*
X112299401Y-29987660D01*
X112295113Y-30011736D01*
X112258971Y-30214633D01*
X112256091Y-30450339D01*
X112291747Y-30683349D01*
X112364980Y-30907407D01*
X112473825Y-31116496D01*
X112476928Y-31120629D01*
X112476930Y-31120632D01*
X112612253Y-31300865D01*
X112615358Y-31305000D01*
X112785777Y-31467857D01*
X112980508Y-31600693D01*
X112985192Y-31602867D01*
X112985195Y-31602869D01*
X113189628Y-31697764D01*
X113189633Y-31697766D01*
X113194319Y-31699941D01*
X113421468Y-31762935D01*
X113426605Y-31763484D01*
X113610563Y-31783144D01*
X113610571Y-31783144D01*
X113613898Y-31783500D01*
X114948757Y-31783500D01*
X114951330Y-31783288D01*
X114951341Y-31783288D01*
X115118779Y-31769522D01*
X115118785Y-31769521D01*
X115123930Y-31769098D01*
X115352551Y-31711673D01*
X115568723Y-31617678D01*
X115766641Y-31489640D01*
X115790581Y-31467857D01*
X115937167Y-31334473D01*
X115937168Y-31334471D01*
X115940989Y-31330995D01*
X115944188Y-31326944D01*
X115944192Y-31326940D01*
X116083883Y-31150061D01*
X116083885Y-31150057D01*
X116087085Y-31146006D01*
X116095192Y-31131320D01*
X116145624Y-31081351D01*
X116215067Y-31066579D01*
X116281472Y-31091695D01*
X116323757Y-31148726D01*
X116331500Y-31192215D01*
X116331500Y-51279060D01*
X116311498Y-51347181D01*
X116257842Y-51393674D01*
X116187568Y-51403778D01*
X116122988Y-51374284D01*
X116093737Y-51337241D01*
X116078561Y-51308088D01*
X116076175Y-51303504D01*
X116057415Y-51278517D01*
X115937747Y-51119135D01*
X115937745Y-51119132D01*
X115934642Y-51115000D01*
X115764223Y-50952143D01*
X115569492Y-50819307D01*
X115564808Y-50817133D01*
X115564805Y-50817131D01*
X115360372Y-50722236D01*
X115360367Y-50722234D01*
X115355681Y-50720059D01*
X115128532Y-50657065D01*
X115123395Y-50656516D01*
X114939437Y-50636856D01*
X114939429Y-50636856D01*
X114936102Y-50636500D01*
X113601243Y-50636500D01*
X113598670Y-50636712D01*
X113598659Y-50636712D01*
X113431221Y-50650478D01*
X113431215Y-50650479D01*
X113426070Y-50650902D01*
X113197449Y-50708327D01*
X112981277Y-50802322D01*
X112783359Y-50930360D01*
X112779536Y-50933839D01*
X112779533Y-50933841D01*
X112755495Y-50955714D01*
X112609011Y-51089005D01*
X112605812Y-51093056D01*
X112605808Y-51093060D01*
X112466117Y-51269939D01*
X112462915Y-51273994D01*
X112348995Y-51480361D01*
X112347271Y-51485230D01*
X112347269Y-51485234D01*
X112272035Y-51697689D01*
X112270309Y-51702564D01*
X112269402Y-51707657D01*
X112269401Y-51707660D01*
X112265113Y-51731736D01*
X112228971Y-51934633D01*
X112226091Y-52170339D01*
X112261747Y-52403349D01*
X112334980Y-52627407D01*
X112443825Y-52836496D01*
X112446928Y-52840629D01*
X112446930Y-52840632D01*
X112582253Y-53020865D01*
X112585358Y-53025000D01*
X112755777Y-53187857D01*
X112950508Y-53320693D01*
X112955192Y-53322867D01*
X112955195Y-53322869D01*
X113159628Y-53417764D01*
X113159633Y-53417766D01*
X113164319Y-53419941D01*
X113391468Y-53482935D01*
X113396605Y-53483484D01*
X113580563Y-53503144D01*
X113580571Y-53503144D01*
X113583898Y-53503500D01*
X114918757Y-53503500D01*
X114921330Y-53503288D01*
X114921341Y-53503288D01*
X115088779Y-53489522D01*
X115088785Y-53489521D01*
X115093930Y-53489098D01*
X115322551Y-53431673D01*
X115538723Y-53337678D01*
X115736641Y-53209640D01*
X115760581Y-53187857D01*
X115907167Y-53054473D01*
X115907168Y-53054471D01*
X115910989Y-53050995D01*
X115914188Y-53046944D01*
X115914192Y-53046940D01*
X116053883Y-52870061D01*
X116053885Y-52870057D01*
X116057085Y-52866006D01*
X116095192Y-52796975D01*
X116145624Y-52747006D01*
X116215067Y-52732234D01*
X116281472Y-52757350D01*
X116323757Y-52814381D01*
X116331500Y-52857870D01*
X116331500Y-61967182D01*
X116311498Y-62035303D01*
X116294595Y-62056277D01*
X114126278Y-64224595D01*
X114063966Y-64258620D01*
X114037183Y-64261500D01*
X62238623Y-64261500D01*
X62237853Y-64261498D01*
X62237037Y-64261493D01*
X62160279Y-64261024D01*
X62137918Y-64267415D01*
X62131847Y-64269150D01*
X62115085Y-64272728D01*
X62085813Y-64276920D01*
X62077645Y-64280634D01*
X62077644Y-64280634D01*
X62062438Y-64287548D01*
X62044914Y-64293996D01*
X62020229Y-64301051D01*
X62012635Y-64305843D01*
X62012632Y-64305844D01*
X61995220Y-64316830D01*
X61980137Y-64324969D01*
X61953218Y-64337208D01*
X61946416Y-64343069D01*
X61933765Y-64353970D01*
X61918761Y-64365073D01*
X61897042Y-64378776D01*
X61891103Y-64385501D01*
X61891099Y-64385504D01*
X61877468Y-64400938D01*
X61865276Y-64412982D01*
X61849673Y-64426427D01*
X61849671Y-64426430D01*
X61842873Y-64432287D01*
X61837993Y-64439816D01*
X61837992Y-64439817D01*
X61828906Y-64453835D01*
X61817615Y-64468709D01*
X61806569Y-64481217D01*
X61800622Y-64487951D01*
X61788146Y-64514523D01*
X61788058Y-64514711D01*
X61779737Y-64529691D01*
X61768529Y-64546983D01*
X61768527Y-64546988D01*
X61763648Y-64554515D01*
X61761078Y-64563108D01*
X61761076Y-64563113D01*
X61756289Y-64579120D01*
X61749628Y-64596564D01*
X61743589Y-64609427D01*
X61738719Y-64619800D01*
X61737338Y-64628667D01*
X61737338Y-64628668D01*
X61734170Y-64649015D01*
X61730387Y-64665732D01*
X61724485Y-64685466D01*
X61724484Y-64685472D01*
X61721914Y-64694066D01*
X61721859Y-64703037D01*
X61721859Y-64703038D01*
X61721704Y-64728497D01*
X61721671Y-64729289D01*
X61721500Y-64730386D01*
X61721500Y-64761377D01*
X61721498Y-64762147D01*
X61721278Y-64798230D01*
X61721024Y-64839721D01*
X61721408Y-64841065D01*
X61721500Y-64842410D01*
X61721500Y-67945500D01*
X61701498Y-68013621D01*
X61647842Y-68060114D01*
X61595500Y-68071500D01*
X61157494Y-68071500D01*
X61089373Y-68051498D01*
X61042880Y-67997842D01*
X61032776Y-67927568D01*
X61056668Y-67869935D01*
X61092215Y-67822505D01*
X61143345Y-67686116D01*
X61150100Y-67623934D01*
X61150100Y-65827666D01*
X61143345Y-65765484D01*
X61092215Y-65629095D01*
X61004861Y-65512539D01*
X60888305Y-65425185D01*
X60842115Y-65407869D01*
X60781870Y-65385284D01*
X60725106Y-65342642D01*
X60700406Y-65276081D01*
X60700100Y-65267302D01*
X60700100Y-65207017D01*
X60701651Y-65187305D01*
X60702820Y-65179925D01*
X60703852Y-65173410D01*
X60703023Y-65157575D01*
X60700273Y-65105119D01*
X60700100Y-65098525D01*
X60700100Y-65077990D01*
X60697953Y-65057560D01*
X60697436Y-65050985D01*
X60694203Y-64989296D01*
X60694203Y-64989295D01*
X60693857Y-64982696D01*
X60690216Y-64969108D01*
X60686612Y-64949661D01*
X60685833Y-64942244D01*
X60685832Y-64942240D01*
X60685142Y-64935672D01*
X60664002Y-64870609D01*
X60662129Y-64864285D01*
X60646139Y-64804610D01*
X60646138Y-64804606D01*
X60644429Y-64798230D01*
X60638040Y-64785692D01*
X60630475Y-64767426D01*
X60628169Y-64760328D01*
X60628168Y-64760326D01*
X60626127Y-64754044D01*
X60591931Y-64694815D01*
X60588785Y-64689021D01*
X60580034Y-64671847D01*
X60557729Y-64628070D01*
X60548873Y-64617133D01*
X60537673Y-64600837D01*
X60533943Y-64594376D01*
X60533940Y-64594372D01*
X60530640Y-64588656D01*
X60526223Y-64583750D01*
X60526219Y-64583745D01*
X60484878Y-64537831D01*
X60480594Y-64532816D01*
X60469748Y-64519423D01*
X60467672Y-64516859D01*
X60453157Y-64502344D01*
X60448616Y-64497559D01*
X60407273Y-64451643D01*
X60402853Y-64446734D01*
X60391465Y-64438460D01*
X60376432Y-64425619D01*
X59373981Y-63423168D01*
X59361140Y-63408135D01*
X59356746Y-63402087D01*
X59356745Y-63402086D01*
X59352866Y-63396747D01*
X59302041Y-63350984D01*
X59297256Y-63346443D01*
X59282741Y-63331928D01*
X59282927Y-63331742D01*
X59246502Y-63272608D01*
X59247860Y-63201624D01*
X59287379Y-63142643D01*
X59352512Y-63114390D01*
X59421305Y-63125233D01*
X59485508Y-63155171D01*
X59494757Y-63159484D01*
X59500065Y-63160906D01*
X59500067Y-63160907D01*
X59710598Y-63217319D01*
X59710600Y-63217319D01*
X59715913Y-63218743D01*
X59944000Y-63238698D01*
X60172087Y-63218743D01*
X60177400Y-63217319D01*
X60177402Y-63217319D01*
X60387933Y-63160907D01*
X60387935Y-63160906D01*
X60393243Y-63159484D01*
X60398225Y-63157161D01*
X60595762Y-63065049D01*
X60595767Y-63065046D01*
X60600749Y-63062723D01*
X60753782Y-62955568D01*
X60783789Y-62934557D01*
X60783792Y-62934555D01*
X60788300Y-62931398D01*
X60950198Y-62769500D01*
X60957915Y-62758480D01*
X61022319Y-62666501D01*
X61081523Y-62581949D01*
X61083846Y-62576967D01*
X61083849Y-62576962D01*
X61099805Y-62542743D01*
X61146722Y-62489458D01*
X61214999Y-62469997D01*
X61282959Y-62490539D01*
X61328195Y-62542743D01*
X61344151Y-62576962D01*
X61344154Y-62576967D01*
X61346477Y-62581949D01*
X61405681Y-62666501D01*
X61470086Y-62758480D01*
X61477802Y-62769500D01*
X61639700Y-62931398D01*
X61644208Y-62934555D01*
X61644211Y-62934557D01*
X61674218Y-62955568D01*
X61827251Y-63062723D01*
X61832233Y-63065046D01*
X61832238Y-63065049D01*
X62029775Y-63157161D01*
X62034757Y-63159484D01*
X62040065Y-63160906D01*
X62040067Y-63160907D01*
X62250598Y-63217319D01*
X62250600Y-63217319D01*
X62255913Y-63218743D01*
X62484000Y-63238698D01*
X62712087Y-63218743D01*
X62717400Y-63217319D01*
X62717402Y-63217319D01*
X62927933Y-63160907D01*
X62927935Y-63160906D01*
X62933243Y-63159484D01*
X62938225Y-63157161D01*
X63135762Y-63065049D01*
X63135767Y-63065046D01*
X63140749Y-63062723D01*
X63293782Y-62955568D01*
X63323789Y-62934557D01*
X63323792Y-62934555D01*
X63328300Y-62931398D01*
X63490198Y-62769500D01*
X63497915Y-62758480D01*
X63562319Y-62666501D01*
X63621523Y-62581949D01*
X63623846Y-62576967D01*
X63623849Y-62576962D01*
X63639805Y-62542743D01*
X63686722Y-62489458D01*
X63754999Y-62469997D01*
X63822959Y-62490539D01*
X63868195Y-62542743D01*
X63884151Y-62576962D01*
X63884154Y-62576967D01*
X63886477Y-62581949D01*
X63945681Y-62666501D01*
X64010086Y-62758480D01*
X64017802Y-62769500D01*
X64179700Y-62931398D01*
X64184208Y-62934555D01*
X64184211Y-62934557D01*
X64214218Y-62955568D01*
X64367251Y-63062723D01*
X64372233Y-63065046D01*
X64372238Y-63065049D01*
X64569775Y-63157161D01*
X64574757Y-63159484D01*
X64580065Y-63160906D01*
X64580067Y-63160907D01*
X64790598Y-63217319D01*
X64790600Y-63217319D01*
X64795913Y-63218743D01*
X65024000Y-63238698D01*
X65252087Y-63218743D01*
X65257400Y-63217319D01*
X65257402Y-63217319D01*
X65467933Y-63160907D01*
X65467935Y-63160906D01*
X65473243Y-63159484D01*
X65478225Y-63157161D01*
X65675762Y-63065049D01*
X65675767Y-63065046D01*
X65680749Y-63062723D01*
X65833782Y-62955568D01*
X65863789Y-62934557D01*
X65863792Y-62934555D01*
X65868300Y-62931398D01*
X66030198Y-62769500D01*
X66037915Y-62758480D01*
X66102319Y-62666501D01*
X66161523Y-62581949D01*
X66163846Y-62576967D01*
X66163849Y-62576962D01*
X66179805Y-62542743D01*
X66226722Y-62489458D01*
X66294999Y-62469997D01*
X66362959Y-62490539D01*
X66408195Y-62542743D01*
X66424151Y-62576962D01*
X66424154Y-62576967D01*
X66426477Y-62581949D01*
X66485681Y-62666501D01*
X66550086Y-62758480D01*
X66557802Y-62769500D01*
X66719700Y-62931398D01*
X66724208Y-62934555D01*
X66724211Y-62934557D01*
X66754218Y-62955568D01*
X66907251Y-63062723D01*
X66912233Y-63065046D01*
X66912238Y-63065049D01*
X67109775Y-63157161D01*
X67114757Y-63159484D01*
X67120065Y-63160906D01*
X67120067Y-63160907D01*
X67330598Y-63217319D01*
X67330600Y-63217319D01*
X67335913Y-63218743D01*
X67564000Y-63238698D01*
X67792087Y-63218743D01*
X67797400Y-63217319D01*
X67797402Y-63217319D01*
X68007933Y-63160907D01*
X68007935Y-63160906D01*
X68013243Y-63159484D01*
X68018225Y-63157161D01*
X68215762Y-63065049D01*
X68215767Y-63065046D01*
X68220749Y-63062723D01*
X68373782Y-62955568D01*
X68403789Y-62934557D01*
X68403792Y-62934555D01*
X68408300Y-62931398D01*
X68570198Y-62769500D01*
X68577915Y-62758480D01*
X68642319Y-62666501D01*
X68701523Y-62581949D01*
X68703846Y-62576967D01*
X68703849Y-62576962D01*
X68719805Y-62542743D01*
X68766722Y-62489458D01*
X68834999Y-62469997D01*
X68902959Y-62490539D01*
X68948195Y-62542743D01*
X68964151Y-62576962D01*
X68964154Y-62576967D01*
X68966477Y-62581949D01*
X69025681Y-62666501D01*
X69090086Y-62758480D01*
X69097802Y-62769500D01*
X69259700Y-62931398D01*
X69264208Y-62934555D01*
X69264211Y-62934557D01*
X69294218Y-62955568D01*
X69447251Y-63062723D01*
X69452233Y-63065046D01*
X69452238Y-63065049D01*
X69649775Y-63157161D01*
X69654757Y-63159484D01*
X69660065Y-63160906D01*
X69660067Y-63160907D01*
X69870598Y-63217319D01*
X69870600Y-63217319D01*
X69875913Y-63218743D01*
X70104000Y-63238698D01*
X70332087Y-63218743D01*
X70337400Y-63217319D01*
X70337402Y-63217319D01*
X70547933Y-63160907D01*
X70547935Y-63160906D01*
X70553243Y-63159484D01*
X70558225Y-63157161D01*
X70755762Y-63065049D01*
X70755767Y-63065046D01*
X70760749Y-63062723D01*
X70913782Y-62955568D01*
X70943789Y-62934557D01*
X70943792Y-62934555D01*
X70948300Y-62931398D01*
X71110198Y-62769500D01*
X71117915Y-62758480D01*
X71182319Y-62666501D01*
X71241523Y-62581949D01*
X71243846Y-62576967D01*
X71243849Y-62576962D01*
X71259805Y-62542743D01*
X71306722Y-62489458D01*
X71374999Y-62469997D01*
X71442959Y-62490539D01*
X71488195Y-62542743D01*
X71504151Y-62576962D01*
X71504154Y-62576967D01*
X71506477Y-62581949D01*
X71565681Y-62666501D01*
X71630086Y-62758480D01*
X71637802Y-62769500D01*
X71799700Y-62931398D01*
X71804208Y-62934555D01*
X71804211Y-62934557D01*
X71834218Y-62955568D01*
X71987251Y-63062723D01*
X71992233Y-63065046D01*
X71992238Y-63065049D01*
X72189775Y-63157161D01*
X72194757Y-63159484D01*
X72200065Y-63160906D01*
X72200067Y-63160907D01*
X72410598Y-63217319D01*
X72410600Y-63217319D01*
X72415913Y-63218743D01*
X72644000Y-63238698D01*
X72872087Y-63218743D01*
X72877400Y-63217319D01*
X72877402Y-63217319D01*
X73087933Y-63160907D01*
X73087935Y-63160906D01*
X73093243Y-63159484D01*
X73098225Y-63157161D01*
X73295762Y-63065049D01*
X73295767Y-63065046D01*
X73300749Y-63062723D01*
X73453782Y-62955568D01*
X73483789Y-62934557D01*
X73483792Y-62934555D01*
X73488300Y-62931398D01*
X73650198Y-62769500D01*
X73657915Y-62758480D01*
X73722319Y-62666501D01*
X73781523Y-62581949D01*
X73783846Y-62576967D01*
X73783849Y-62576962D01*
X73799805Y-62542743D01*
X73846722Y-62489458D01*
X73914999Y-62469997D01*
X73982959Y-62490539D01*
X74028195Y-62542743D01*
X74044151Y-62576962D01*
X74044154Y-62576967D01*
X74046477Y-62581949D01*
X74105681Y-62666501D01*
X74170086Y-62758480D01*
X74177802Y-62769500D01*
X74339700Y-62931398D01*
X74344208Y-62934555D01*
X74344211Y-62934557D01*
X74374218Y-62955568D01*
X74527251Y-63062723D01*
X74532233Y-63065046D01*
X74532238Y-63065049D01*
X74729775Y-63157161D01*
X74734757Y-63159484D01*
X74740065Y-63160906D01*
X74740067Y-63160907D01*
X74950598Y-63217319D01*
X74950600Y-63217319D01*
X74955913Y-63218743D01*
X75184000Y-63238698D01*
X75412087Y-63218743D01*
X75417400Y-63217319D01*
X75417402Y-63217319D01*
X75627933Y-63160907D01*
X75627935Y-63160906D01*
X75633243Y-63159484D01*
X75638225Y-63157161D01*
X75835762Y-63065049D01*
X75835767Y-63065046D01*
X75840749Y-63062723D01*
X75993782Y-62955568D01*
X76023789Y-62934557D01*
X76023792Y-62934555D01*
X76028300Y-62931398D01*
X76190198Y-62769500D01*
X76197915Y-62758480D01*
X76262319Y-62666501D01*
X76321523Y-62581949D01*
X76323846Y-62576967D01*
X76323849Y-62576962D01*
X76339805Y-62542743D01*
X76386722Y-62489458D01*
X76454999Y-62469997D01*
X76522959Y-62490539D01*
X76568195Y-62542743D01*
X76584151Y-62576962D01*
X76584154Y-62576967D01*
X76586477Y-62581949D01*
X76645681Y-62666501D01*
X76710086Y-62758480D01*
X76717802Y-62769500D01*
X76879700Y-62931398D01*
X76884208Y-62934555D01*
X76884211Y-62934557D01*
X76914218Y-62955568D01*
X77067251Y-63062723D01*
X77072233Y-63065046D01*
X77072238Y-63065049D01*
X77269775Y-63157161D01*
X77274757Y-63159484D01*
X77280065Y-63160906D01*
X77280067Y-63160907D01*
X77490598Y-63217319D01*
X77490600Y-63217319D01*
X77495913Y-63218743D01*
X77724000Y-63238698D01*
X77952087Y-63218743D01*
X77957400Y-63217319D01*
X77957402Y-63217319D01*
X78167933Y-63160907D01*
X78167935Y-63160906D01*
X78173243Y-63159484D01*
X78178225Y-63157161D01*
X78375762Y-63065049D01*
X78375767Y-63065046D01*
X78380749Y-63062723D01*
X78533782Y-62955568D01*
X78563789Y-62934557D01*
X78563792Y-62934555D01*
X78568300Y-62931398D01*
X78730198Y-62769500D01*
X78737915Y-62758480D01*
X78802319Y-62666501D01*
X78861523Y-62581949D01*
X78863846Y-62576967D01*
X78863849Y-62576962D01*
X78879805Y-62542743D01*
X78926722Y-62489458D01*
X78994999Y-62469997D01*
X79062959Y-62490539D01*
X79108195Y-62542743D01*
X79124151Y-62576962D01*
X79124154Y-62576967D01*
X79126477Y-62581949D01*
X79185681Y-62666501D01*
X79250086Y-62758480D01*
X79257802Y-62769500D01*
X79419700Y-62931398D01*
X79424208Y-62934555D01*
X79424211Y-62934557D01*
X79454218Y-62955568D01*
X79607251Y-63062723D01*
X79612233Y-63065046D01*
X79612238Y-63065049D01*
X79809775Y-63157161D01*
X79814757Y-63159484D01*
X79820065Y-63160906D01*
X79820067Y-63160907D01*
X80030598Y-63217319D01*
X80030600Y-63217319D01*
X80035913Y-63218743D01*
X80264000Y-63238698D01*
X80492087Y-63218743D01*
X80497400Y-63217319D01*
X80497402Y-63217319D01*
X80707933Y-63160907D01*
X80707935Y-63160906D01*
X80713243Y-63159484D01*
X80718225Y-63157161D01*
X80915762Y-63065049D01*
X80915767Y-63065046D01*
X80920749Y-63062723D01*
X81073782Y-62955568D01*
X81103789Y-62934557D01*
X81103792Y-62934555D01*
X81108300Y-62931398D01*
X81270198Y-62769500D01*
X81277915Y-62758480D01*
X81342319Y-62666501D01*
X81401523Y-62581949D01*
X81403846Y-62576967D01*
X81403849Y-62576962D01*
X81495961Y-62379425D01*
X81495961Y-62379424D01*
X81498284Y-62374443D01*
X81507429Y-62340316D01*
X81556119Y-62158602D01*
X81556119Y-62158600D01*
X81557543Y-62153287D01*
X81577498Y-61925200D01*
X84030502Y-61925200D01*
X84050457Y-62153287D01*
X84051881Y-62158600D01*
X84051881Y-62158602D01*
X84100572Y-62340316D01*
X84109716Y-62374443D01*
X84112039Y-62379424D01*
X84112039Y-62379425D01*
X84204151Y-62576962D01*
X84204154Y-62576967D01*
X84206477Y-62581949D01*
X84265681Y-62666501D01*
X84330086Y-62758480D01*
X84337802Y-62769500D01*
X84499700Y-62931398D01*
X84504208Y-62934555D01*
X84504211Y-62934557D01*
X84534218Y-62955568D01*
X84687251Y-63062723D01*
X84692233Y-63065046D01*
X84692238Y-63065049D01*
X84889775Y-63157161D01*
X84894757Y-63159484D01*
X84900065Y-63160906D01*
X84900067Y-63160907D01*
X85110598Y-63217319D01*
X85110600Y-63217319D01*
X85115913Y-63218743D01*
X85344000Y-63238698D01*
X85572087Y-63218743D01*
X85577400Y-63217319D01*
X85577402Y-63217319D01*
X85787933Y-63160907D01*
X85787935Y-63160906D01*
X85793243Y-63159484D01*
X85798225Y-63157161D01*
X85995762Y-63065049D01*
X85995767Y-63065046D01*
X86000749Y-63062723D01*
X86153782Y-62955568D01*
X86183789Y-62934557D01*
X86183792Y-62934555D01*
X86188300Y-62931398D01*
X86350198Y-62769500D01*
X86357915Y-62758480D01*
X86422319Y-62666501D01*
X86481523Y-62581949D01*
X86483846Y-62576967D01*
X86483849Y-62576962D01*
X86499805Y-62542743D01*
X86546722Y-62489458D01*
X86614999Y-62469997D01*
X86682959Y-62490539D01*
X86728195Y-62542743D01*
X86744151Y-62576962D01*
X86744154Y-62576967D01*
X86746477Y-62581949D01*
X86805681Y-62666501D01*
X86870086Y-62758480D01*
X86877802Y-62769500D01*
X87039700Y-62931398D01*
X87044208Y-62934555D01*
X87044211Y-62934557D01*
X87074218Y-62955568D01*
X87227251Y-63062723D01*
X87232233Y-63065046D01*
X87232238Y-63065049D01*
X87429775Y-63157161D01*
X87434757Y-63159484D01*
X87440065Y-63160906D01*
X87440067Y-63160907D01*
X87650598Y-63217319D01*
X87650600Y-63217319D01*
X87655913Y-63218743D01*
X87884000Y-63238698D01*
X88112087Y-63218743D01*
X88117400Y-63217319D01*
X88117402Y-63217319D01*
X88327933Y-63160907D01*
X88327935Y-63160906D01*
X88333243Y-63159484D01*
X88338225Y-63157161D01*
X88535762Y-63065049D01*
X88535767Y-63065046D01*
X88540749Y-63062723D01*
X88693782Y-62955568D01*
X88723789Y-62934557D01*
X88723792Y-62934555D01*
X88728300Y-62931398D01*
X88890198Y-62769500D01*
X88893357Y-62764989D01*
X88896892Y-62760776D01*
X88898026Y-62761727D01*
X88948071Y-62721729D01*
X89018690Y-62714424D01*
X89082049Y-62746458D01*
X89118030Y-62807662D01*
X89121082Y-62824717D01*
X89122255Y-62835516D01*
X89173385Y-62971905D01*
X89260739Y-63088461D01*
X89377295Y-63175815D01*
X89513684Y-63226945D01*
X89575866Y-63233700D01*
X91272134Y-63233700D01*
X91334316Y-63226945D01*
X91470705Y-63175815D01*
X91587261Y-63088461D01*
X91674615Y-62971905D01*
X91725745Y-62835516D01*
X91732500Y-62773334D01*
X91732500Y-61077066D01*
X91725745Y-61014884D01*
X91674615Y-60878495D01*
X91587261Y-60761939D01*
X91470705Y-60674585D01*
X91334316Y-60623455D01*
X91272134Y-60616700D01*
X89811927Y-60616700D01*
X89743806Y-60596698D01*
X89697313Y-60543042D01*
X89687209Y-60472768D01*
X89716703Y-60408188D01*
X89737866Y-60388764D01*
X89755318Y-60376084D01*
X89765253Y-60368866D01*
X89769668Y-60363963D01*
X89774580Y-60359540D01*
X89775705Y-60360789D01*
X89829014Y-60327949D01*
X89862200Y-60323500D01*
X94409233Y-60323500D01*
X94420416Y-60324027D01*
X94427909Y-60325702D01*
X94435835Y-60325453D01*
X94435836Y-60325453D01*
X94495986Y-60323562D01*
X94499945Y-60323500D01*
X94527856Y-60323500D01*
X94531791Y-60323003D01*
X94531856Y-60322995D01*
X94543693Y-60322062D01*
X94575951Y-60321048D01*
X94579970Y-60320922D01*
X94587889Y-60320673D01*
X94607343Y-60315021D01*
X94626700Y-60311013D01*
X94638930Y-60309468D01*
X94638931Y-60309468D01*
X94646797Y-60308474D01*
X94654168Y-60305555D01*
X94654170Y-60305555D01*
X94687912Y-60292196D01*
X94699142Y-60288351D01*
X94733983Y-60278229D01*
X94733984Y-60278229D01*
X94741593Y-60276018D01*
X94748412Y-60271985D01*
X94748417Y-60271983D01*
X94759028Y-60265707D01*
X94776776Y-60257012D01*
X94795617Y-60249552D01*
X94831387Y-60223564D01*
X94841307Y-60217048D01*
X94872535Y-60198580D01*
X94872538Y-60198578D01*
X94879362Y-60194542D01*
X94893683Y-60180221D01*
X94908717Y-60167380D01*
X94918694Y-60160131D01*
X94925107Y-60155472D01*
X94953298Y-60121395D01*
X94961288Y-60112616D01*
X101533500Y-53540405D01*
X101595812Y-53506379D01*
X101622595Y-53503500D01*
X102418757Y-53503500D01*
X102421330Y-53503288D01*
X102421341Y-53503288D01*
X102588779Y-53489522D01*
X102588785Y-53489521D01*
X102593930Y-53489098D01*
X102822551Y-53431673D01*
X103038723Y-53337678D01*
X103236641Y-53209640D01*
X103260581Y-53187857D01*
X103407167Y-53054473D01*
X103407168Y-53054471D01*
X103410989Y-53050995D01*
X103414188Y-53046944D01*
X103414192Y-53046940D01*
X103553883Y-52870061D01*
X103553885Y-52870057D01*
X103557085Y-52866006D01*
X103671005Y-52659639D01*
X103680794Y-52631998D01*
X103747965Y-52442311D01*
X103747966Y-52442307D01*
X103749691Y-52437436D01*
X103750599Y-52432340D01*
X103790123Y-52210456D01*
X103790124Y-52210450D01*
X103791029Y-52205367D01*
X103793909Y-51969661D01*
X103758253Y-51736651D01*
X103685020Y-51512593D01*
X103576175Y-51303504D01*
X103557415Y-51278517D01*
X103437747Y-51119135D01*
X103437745Y-51119132D01*
X103434642Y-51115000D01*
X103264223Y-50952143D01*
X103069492Y-50819307D01*
X103064808Y-50817133D01*
X103064805Y-50817131D01*
X102860372Y-50722236D01*
X102860367Y-50722234D01*
X102855681Y-50720059D01*
X102628532Y-50657065D01*
X102623395Y-50656516D01*
X102439437Y-50636856D01*
X102439429Y-50636856D01*
X102436102Y-50636500D01*
X101101243Y-50636500D01*
X101098670Y-50636712D01*
X101098659Y-50636712D01*
X100931221Y-50650478D01*
X100931215Y-50650479D01*
X100926070Y-50650902D01*
X100697449Y-50708327D01*
X100481277Y-50802322D01*
X100283359Y-50930360D01*
X100279536Y-50933839D01*
X100279533Y-50933841D01*
X100255495Y-50955714D01*
X100109011Y-51089005D01*
X100105812Y-51093056D01*
X100105808Y-51093060D01*
X99966117Y-51269939D01*
X99962915Y-51273994D01*
X99848995Y-51480361D01*
X99847271Y-51485230D01*
X99847269Y-51485234D01*
X99772035Y-51697689D01*
X99770309Y-51702564D01*
X99769402Y-51707657D01*
X99769401Y-51707660D01*
X99765113Y-51731736D01*
X99728971Y-51934633D01*
X99726091Y-52170339D01*
X99761747Y-52403349D01*
X99834980Y-52627407D01*
X99943825Y-52836496D01*
X99946928Y-52840629D01*
X99946930Y-52840632D01*
X99969026Y-52870061D01*
X100085358Y-53025000D01*
X100087816Y-53027349D01*
X100117864Y-53091105D01*
X100108606Y-53161496D01*
X100082466Y-53199630D01*
X94262500Y-59019595D01*
X94200188Y-59053621D01*
X94173405Y-59056500D01*
X89862200Y-59056500D01*
X89794079Y-59036498D01*
X89774853Y-59020157D01*
X89774580Y-59020460D01*
X89769668Y-59016037D01*
X89765253Y-59011134D01*
X89610752Y-58898882D01*
X89604724Y-58896198D01*
X89604722Y-58896197D01*
X89442319Y-58823891D01*
X89442318Y-58823891D01*
X89436288Y-58821206D01*
X89342887Y-58801353D01*
X89255944Y-58782872D01*
X89255939Y-58782872D01*
X89249487Y-58781500D01*
X89058513Y-58781500D01*
X89052061Y-58782872D01*
X89052056Y-58782872D01*
X88965113Y-58801353D01*
X88871712Y-58821206D01*
X88865682Y-58823891D01*
X88865681Y-58823891D01*
X88703278Y-58896197D01*
X88703276Y-58896198D01*
X88697248Y-58898882D01*
X88542747Y-59011134D01*
X88538326Y-59016044D01*
X88538325Y-59016045D01*
X88504492Y-59053621D01*
X88414960Y-59153056D01*
X88388571Y-59198763D01*
X88341567Y-59280177D01*
X88319473Y-59318444D01*
X88260458Y-59500072D01*
X88240496Y-59690000D01*
X88260458Y-59879928D01*
X88319473Y-60061556D01*
X88414960Y-60226944D01*
X88419378Y-60231851D01*
X88419379Y-60231852D01*
X88501452Y-60323003D01*
X88542747Y-60368866D01*
X88697248Y-60481118D01*
X88703276Y-60483802D01*
X88703278Y-60483803D01*
X88830014Y-60540229D01*
X88871712Y-60558794D01*
X88965113Y-60578647D01*
X89052056Y-60597128D01*
X89052061Y-60597128D01*
X89058513Y-60598500D01*
X89131339Y-60598500D01*
X89199460Y-60618502D01*
X89245953Y-60672158D01*
X89256057Y-60742432D01*
X89232165Y-60800065D01*
X89173385Y-60878495D01*
X89122255Y-61014884D01*
X89121083Y-61025674D01*
X89120197Y-61027806D01*
X89119575Y-61030422D01*
X89119152Y-61030321D01*
X89093845Y-61091235D01*
X89035483Y-61131663D01*
X88964529Y-61134122D01*
X88903510Y-61097829D01*
X88896511Y-61089169D01*
X88893354Y-61085407D01*
X88890198Y-61080900D01*
X88728300Y-60919002D01*
X88723792Y-60915845D01*
X88723789Y-60915843D01*
X88615415Y-60839959D01*
X88540749Y-60787677D01*
X88535767Y-60785354D01*
X88535762Y-60785351D01*
X88338225Y-60693239D01*
X88338224Y-60693239D01*
X88333243Y-60690916D01*
X88327935Y-60689494D01*
X88327933Y-60689493D01*
X88117402Y-60633081D01*
X88117400Y-60633081D01*
X88112087Y-60631657D01*
X87884000Y-60611702D01*
X87655913Y-60631657D01*
X87650600Y-60633081D01*
X87650598Y-60633081D01*
X87440067Y-60689493D01*
X87440065Y-60689494D01*
X87434757Y-60690916D01*
X87429776Y-60693239D01*
X87429775Y-60693239D01*
X87232238Y-60785351D01*
X87232233Y-60785354D01*
X87227251Y-60787677D01*
X87152585Y-60839959D01*
X87044211Y-60915843D01*
X87044208Y-60915845D01*
X87039700Y-60919002D01*
X86877802Y-61080900D01*
X86874645Y-61085408D01*
X86874643Y-61085411D01*
X86844757Y-61128093D01*
X86746477Y-61268451D01*
X86744154Y-61273433D01*
X86744151Y-61273438D01*
X86728195Y-61307657D01*
X86681278Y-61360942D01*
X86613001Y-61380403D01*
X86545041Y-61359861D01*
X86499805Y-61307657D01*
X86483849Y-61273438D01*
X86483846Y-61273433D01*
X86481523Y-61268451D01*
X86383243Y-61128093D01*
X86353357Y-61085411D01*
X86353355Y-61085408D01*
X86350198Y-61080900D01*
X86188300Y-60919002D01*
X86183792Y-60915845D01*
X86183789Y-60915843D01*
X86075415Y-60839959D01*
X86000749Y-60787677D01*
X85995767Y-60785354D01*
X85995762Y-60785351D01*
X85798225Y-60693239D01*
X85798224Y-60693239D01*
X85793243Y-60690916D01*
X85787935Y-60689494D01*
X85787933Y-60689493D01*
X85577402Y-60633081D01*
X85577400Y-60633081D01*
X85572087Y-60631657D01*
X85344000Y-60611702D01*
X85115913Y-60631657D01*
X85110600Y-60633081D01*
X85110598Y-60633081D01*
X84900067Y-60689493D01*
X84900065Y-60689494D01*
X84894757Y-60690916D01*
X84889776Y-60693239D01*
X84889775Y-60693239D01*
X84692238Y-60785351D01*
X84692233Y-60785354D01*
X84687251Y-60787677D01*
X84612585Y-60839959D01*
X84504211Y-60915843D01*
X84504208Y-60915845D01*
X84499700Y-60919002D01*
X84337802Y-61080900D01*
X84334645Y-61085408D01*
X84334643Y-61085411D01*
X84304757Y-61128093D01*
X84206477Y-61268451D01*
X84204154Y-61273433D01*
X84204151Y-61273438D01*
X84122976Y-61447520D01*
X84109716Y-61475957D01*
X84108294Y-61481265D01*
X84108293Y-61481267D01*
X84095314Y-61529705D01*
X84050457Y-61697113D01*
X84030502Y-61925200D01*
X81577498Y-61925200D01*
X81557543Y-61697113D01*
X81512686Y-61529705D01*
X81499707Y-61481267D01*
X81499706Y-61481265D01*
X81498284Y-61475957D01*
X81485024Y-61447520D01*
X81403849Y-61273438D01*
X81403846Y-61273433D01*
X81401523Y-61268451D01*
X81303243Y-61128093D01*
X81273357Y-61085411D01*
X81273355Y-61085408D01*
X81270198Y-61080900D01*
X81108300Y-60919002D01*
X81103792Y-60915845D01*
X81103789Y-60915843D01*
X80995415Y-60839959D01*
X80920749Y-60787677D01*
X80915767Y-60785354D01*
X80915762Y-60785351D01*
X80718225Y-60693239D01*
X80718224Y-60693239D01*
X80713243Y-60690916D01*
X80707935Y-60689494D01*
X80707933Y-60689493D01*
X80497402Y-60633081D01*
X80497400Y-60633081D01*
X80492087Y-60631657D01*
X80264000Y-60611702D01*
X80035913Y-60631657D01*
X80030600Y-60633081D01*
X80030598Y-60633081D01*
X79820067Y-60689493D01*
X79820065Y-60689494D01*
X79814757Y-60690916D01*
X79809776Y-60693239D01*
X79809775Y-60693239D01*
X79612238Y-60785351D01*
X79612233Y-60785354D01*
X79607251Y-60787677D01*
X79532585Y-60839959D01*
X79424211Y-60915843D01*
X79424208Y-60915845D01*
X79419700Y-60919002D01*
X79257802Y-61080900D01*
X79254645Y-61085408D01*
X79254643Y-61085411D01*
X79224757Y-61128093D01*
X79126477Y-61268451D01*
X79124154Y-61273433D01*
X79124151Y-61273438D01*
X79108195Y-61307657D01*
X79061278Y-61360942D01*
X78993001Y-61380403D01*
X78925041Y-61359861D01*
X78879805Y-61307657D01*
X78863849Y-61273438D01*
X78863846Y-61273433D01*
X78861523Y-61268451D01*
X78763243Y-61128093D01*
X78733357Y-61085411D01*
X78733355Y-61085408D01*
X78730198Y-61080900D01*
X78568300Y-60919002D01*
X78563792Y-60915845D01*
X78563789Y-60915843D01*
X78455415Y-60839959D01*
X78380749Y-60787677D01*
X78375767Y-60785354D01*
X78375762Y-60785351D01*
X78178225Y-60693239D01*
X78178224Y-60693239D01*
X78173243Y-60690916D01*
X78167935Y-60689494D01*
X78167933Y-60689493D01*
X77957402Y-60633081D01*
X77957400Y-60633081D01*
X77952087Y-60631657D01*
X77724000Y-60611702D01*
X77495913Y-60631657D01*
X77490600Y-60633081D01*
X77490598Y-60633081D01*
X77280067Y-60689493D01*
X77280065Y-60689494D01*
X77274757Y-60690916D01*
X77269776Y-60693239D01*
X77269775Y-60693239D01*
X77072238Y-60785351D01*
X77072233Y-60785354D01*
X77067251Y-60787677D01*
X76992585Y-60839959D01*
X76884211Y-60915843D01*
X76884208Y-60915845D01*
X76879700Y-60919002D01*
X76717802Y-61080900D01*
X76714645Y-61085408D01*
X76714643Y-61085411D01*
X76684757Y-61128093D01*
X76586477Y-61268451D01*
X76584154Y-61273433D01*
X76584151Y-61273438D01*
X76568195Y-61307657D01*
X76521278Y-61360942D01*
X76453001Y-61380403D01*
X76385041Y-61359861D01*
X76339805Y-61307657D01*
X76323849Y-61273438D01*
X76323846Y-61273433D01*
X76321523Y-61268451D01*
X76223243Y-61128093D01*
X76193357Y-61085411D01*
X76193355Y-61085408D01*
X76190198Y-61080900D01*
X76028300Y-60919002D01*
X76023792Y-60915845D01*
X76023789Y-60915843D01*
X75915415Y-60839959D01*
X75840749Y-60787677D01*
X75835767Y-60785354D01*
X75835762Y-60785351D01*
X75638225Y-60693239D01*
X75638224Y-60693239D01*
X75633243Y-60690916D01*
X75627935Y-60689494D01*
X75627933Y-60689493D01*
X75417402Y-60633081D01*
X75417400Y-60633081D01*
X75412087Y-60631657D01*
X75184000Y-60611702D01*
X74955913Y-60631657D01*
X74950600Y-60633081D01*
X74950598Y-60633081D01*
X74740067Y-60689493D01*
X74740065Y-60689494D01*
X74734757Y-60690916D01*
X74729776Y-60693239D01*
X74729775Y-60693239D01*
X74532238Y-60785351D01*
X74532233Y-60785354D01*
X74527251Y-60787677D01*
X74452585Y-60839959D01*
X74344211Y-60915843D01*
X74344208Y-60915845D01*
X74339700Y-60919002D01*
X74177802Y-61080900D01*
X74174645Y-61085408D01*
X74174643Y-61085411D01*
X74144757Y-61128093D01*
X74046477Y-61268451D01*
X74044154Y-61273433D01*
X74044151Y-61273438D01*
X74028195Y-61307657D01*
X73981278Y-61360942D01*
X73913001Y-61380403D01*
X73845041Y-61359861D01*
X73799805Y-61307657D01*
X73783849Y-61273438D01*
X73783846Y-61273433D01*
X73781523Y-61268451D01*
X73683243Y-61128093D01*
X73653357Y-61085411D01*
X73653355Y-61085408D01*
X73650198Y-61080900D01*
X73488300Y-60919002D01*
X73483792Y-60915845D01*
X73483789Y-60915843D01*
X73375415Y-60839959D01*
X73300749Y-60787677D01*
X73295767Y-60785354D01*
X73295762Y-60785351D01*
X73098225Y-60693239D01*
X73098224Y-60693239D01*
X73093243Y-60690916D01*
X73087935Y-60689494D01*
X73087933Y-60689493D01*
X72877402Y-60633081D01*
X72877400Y-60633081D01*
X72872087Y-60631657D01*
X72644000Y-60611702D01*
X72415913Y-60631657D01*
X72410600Y-60633081D01*
X72410598Y-60633081D01*
X72200067Y-60689493D01*
X72200065Y-60689494D01*
X72194757Y-60690916D01*
X72189776Y-60693239D01*
X72189775Y-60693239D01*
X71992238Y-60785351D01*
X71992233Y-60785354D01*
X71987251Y-60787677D01*
X71912585Y-60839959D01*
X71804211Y-60915843D01*
X71804208Y-60915845D01*
X71799700Y-60919002D01*
X71637802Y-61080900D01*
X71634645Y-61085408D01*
X71634643Y-61085411D01*
X71604757Y-61128093D01*
X71506477Y-61268451D01*
X71504154Y-61273433D01*
X71504151Y-61273438D01*
X71488195Y-61307657D01*
X71441278Y-61360942D01*
X71373001Y-61380403D01*
X71305041Y-61359861D01*
X71259805Y-61307657D01*
X71243849Y-61273438D01*
X71243846Y-61273433D01*
X71241523Y-61268451D01*
X71143243Y-61128093D01*
X71113357Y-61085411D01*
X71113355Y-61085408D01*
X71110198Y-61080900D01*
X70948300Y-60919002D01*
X70943792Y-60915845D01*
X70943789Y-60915843D01*
X70835415Y-60839959D01*
X70760749Y-60787677D01*
X70755767Y-60785354D01*
X70755762Y-60785351D01*
X70558225Y-60693239D01*
X70558224Y-60693239D01*
X70553243Y-60690916D01*
X70547935Y-60689494D01*
X70547933Y-60689493D01*
X70337402Y-60633081D01*
X70337400Y-60633081D01*
X70332087Y-60631657D01*
X70104000Y-60611702D01*
X69875913Y-60631657D01*
X69870600Y-60633081D01*
X69870598Y-60633081D01*
X69660067Y-60689493D01*
X69660065Y-60689494D01*
X69654757Y-60690916D01*
X69649776Y-60693239D01*
X69649775Y-60693239D01*
X69452238Y-60785351D01*
X69452233Y-60785354D01*
X69447251Y-60787677D01*
X69372585Y-60839959D01*
X69264211Y-60915843D01*
X69264208Y-60915845D01*
X69259700Y-60919002D01*
X69097802Y-61080900D01*
X69094645Y-61085408D01*
X69094643Y-61085411D01*
X69064757Y-61128093D01*
X68966477Y-61268451D01*
X68964154Y-61273433D01*
X68964151Y-61273438D01*
X68948195Y-61307657D01*
X68901278Y-61360942D01*
X68833001Y-61380403D01*
X68765041Y-61359861D01*
X68719805Y-61307657D01*
X68703849Y-61273438D01*
X68703846Y-61273433D01*
X68701523Y-61268451D01*
X68603243Y-61128093D01*
X68573357Y-61085411D01*
X68573355Y-61085408D01*
X68570198Y-61080900D01*
X68408300Y-60919002D01*
X68403792Y-60915845D01*
X68403789Y-60915843D01*
X68295415Y-60839959D01*
X68220749Y-60787677D01*
X68215767Y-60785354D01*
X68215762Y-60785351D01*
X68018225Y-60693239D01*
X68018224Y-60693239D01*
X68013243Y-60690916D01*
X68007935Y-60689494D01*
X68007933Y-60689493D01*
X67797402Y-60633081D01*
X67797400Y-60633081D01*
X67792087Y-60631657D01*
X67564000Y-60611702D01*
X67335913Y-60631657D01*
X67330600Y-60633081D01*
X67330598Y-60633081D01*
X67120067Y-60689493D01*
X67120065Y-60689494D01*
X67114757Y-60690916D01*
X67109776Y-60693239D01*
X67109775Y-60693239D01*
X66912238Y-60785351D01*
X66912233Y-60785354D01*
X66907251Y-60787677D01*
X66832585Y-60839959D01*
X66724211Y-60915843D01*
X66724208Y-60915845D01*
X66719700Y-60919002D01*
X66557802Y-61080900D01*
X66554645Y-61085408D01*
X66554643Y-61085411D01*
X66524757Y-61128093D01*
X66426477Y-61268451D01*
X66424154Y-61273433D01*
X66424151Y-61273438D01*
X66408195Y-61307657D01*
X66361278Y-61360942D01*
X66293001Y-61380403D01*
X66225041Y-61359861D01*
X66179805Y-61307657D01*
X66163849Y-61273438D01*
X66163846Y-61273433D01*
X66161523Y-61268451D01*
X66063243Y-61128093D01*
X66033357Y-61085411D01*
X66033355Y-61085408D01*
X66030198Y-61080900D01*
X65868300Y-60919002D01*
X65863792Y-60915845D01*
X65863789Y-60915843D01*
X65755415Y-60839959D01*
X65680749Y-60787677D01*
X65675767Y-60785354D01*
X65675762Y-60785351D01*
X65478225Y-60693239D01*
X65478224Y-60693239D01*
X65473243Y-60690916D01*
X65467935Y-60689494D01*
X65467933Y-60689493D01*
X65257402Y-60633081D01*
X65257400Y-60633081D01*
X65252087Y-60631657D01*
X65024000Y-60611702D01*
X64795913Y-60631657D01*
X64790600Y-60633081D01*
X64790598Y-60633081D01*
X64580067Y-60689493D01*
X64580065Y-60689494D01*
X64574757Y-60690916D01*
X64569776Y-60693239D01*
X64569775Y-60693239D01*
X64372238Y-60785351D01*
X64372233Y-60785354D01*
X64367251Y-60787677D01*
X64292585Y-60839959D01*
X64184211Y-60915843D01*
X64184208Y-60915845D01*
X64179700Y-60919002D01*
X64017802Y-61080900D01*
X64014645Y-61085408D01*
X64014643Y-61085411D01*
X63984757Y-61128093D01*
X63886477Y-61268451D01*
X63884154Y-61273433D01*
X63884151Y-61273438D01*
X63868195Y-61307657D01*
X63821278Y-61360942D01*
X63753001Y-61380403D01*
X63685041Y-61359861D01*
X63639805Y-61307657D01*
X63623849Y-61273438D01*
X63623846Y-61273433D01*
X63621523Y-61268451D01*
X63523243Y-61128093D01*
X63493357Y-61085411D01*
X63493355Y-61085408D01*
X63490198Y-61080900D01*
X63328300Y-60919002D01*
X63323792Y-60915845D01*
X63323789Y-60915843D01*
X63215415Y-60839959D01*
X63140749Y-60787677D01*
X63135767Y-60785354D01*
X63135762Y-60785351D01*
X62938225Y-60693239D01*
X62938224Y-60693239D01*
X62933243Y-60690916D01*
X62927935Y-60689494D01*
X62927933Y-60689493D01*
X62717402Y-60633081D01*
X62717400Y-60633081D01*
X62712087Y-60631657D01*
X62706611Y-60631178D01*
X62706606Y-60631177D01*
X62642775Y-60625593D01*
X62619946Y-60623596D01*
X62553828Y-60597733D01*
X62512189Y-60540229D01*
X62508248Y-60469342D01*
X62541833Y-60408980D01*
X78054832Y-44895981D01*
X78069865Y-44883140D01*
X78075913Y-44878746D01*
X78075914Y-44878745D01*
X78081253Y-44874866D01*
X78127016Y-44824041D01*
X78131557Y-44819256D01*
X78146072Y-44804741D01*
X78158997Y-44788780D01*
X78163269Y-44783779D01*
X78204619Y-44737855D01*
X78204623Y-44737850D01*
X78209040Y-44732944D01*
X78216073Y-44720763D01*
X78227267Y-44704474D01*
X78236129Y-44693531D01*
X78267189Y-44632572D01*
X78270336Y-44626777D01*
X78301223Y-44573279D01*
X78301223Y-44573278D01*
X78304527Y-44567556D01*
X78308875Y-44554173D01*
X78316441Y-44535907D01*
X78319832Y-44529252D01*
X78322829Y-44523370D01*
X78340529Y-44457315D01*
X78342402Y-44450991D01*
X78361500Y-44392212D01*
X78363542Y-44385928D01*
X78364232Y-44379362D01*
X78364233Y-44379357D01*
X78365012Y-44371939D01*
X78368617Y-44352488D01*
X78370547Y-44345285D01*
X78372257Y-44338904D01*
X78375836Y-44270615D01*
X78376353Y-44264040D01*
X78382814Y-44202566D01*
X78382814Y-44202565D01*
X78383504Y-44196000D01*
X78382033Y-44182001D01*
X78381516Y-44162241D01*
X78381907Y-44154784D01*
X78381907Y-44154780D01*
X78382252Y-44148191D01*
X78371550Y-44080619D01*
X78370692Y-44074102D01*
X78364232Y-44012637D01*
X78363542Y-44006072D01*
X78359195Y-43992693D01*
X78354578Y-43973464D01*
X78353410Y-43966091D01*
X78352377Y-43959568D01*
X78327861Y-43895701D01*
X78325664Y-43889497D01*
X78306566Y-43830720D01*
X78304527Y-43824444D01*
X78297493Y-43812261D01*
X78288981Y-43794414D01*
X78286307Y-43787448D01*
X78286304Y-43787443D01*
X78283938Y-43781278D01*
X78246679Y-43723904D01*
X78243233Y-43718280D01*
X78212343Y-43664777D01*
X78209040Y-43659056D01*
X78199628Y-43648603D01*
X78187592Y-43632917D01*
X78183524Y-43626653D01*
X78183522Y-43626651D01*
X78179926Y-43621113D01*
X78131557Y-43572744D01*
X78127016Y-43567959D01*
X78085673Y-43522043D01*
X78081253Y-43517134D01*
X78069865Y-43508860D01*
X78054832Y-43496019D01*
X78044887Y-43486074D01*
X78024632Y-43472920D01*
X77987525Y-43448822D01*
X77982090Y-43445087D01*
X77955236Y-43425577D01*
X77926752Y-43404882D01*
X77920722Y-43402197D01*
X77920718Y-43402195D01*
X77913894Y-43399157D01*
X77896520Y-43389724D01*
X77884722Y-43382062D01*
X77878561Y-43379697D01*
X77878557Y-43379695D01*
X77820867Y-43357550D01*
X77814794Y-43355035D01*
X77752288Y-43327206D01*
X77745834Y-43325834D01*
X77745830Y-43325833D01*
X77738527Y-43324281D01*
X77719568Y-43318666D01*
X77706432Y-43313623D01*
X77681993Y-43309752D01*
X77638883Y-43302924D01*
X77632399Y-43301722D01*
X77571946Y-43288873D01*
X77571947Y-43288873D01*
X77565487Y-43287500D01*
X77551416Y-43287500D01*
X77531707Y-43285949D01*
X77517809Y-43283748D01*
X77511222Y-43284093D01*
X77511217Y-43284093D01*
X77449519Y-43287327D01*
X77442925Y-43287500D01*
X77374513Y-43287500D01*
X77368053Y-43288873D01*
X77368046Y-43288874D01*
X77360747Y-43290426D01*
X77341142Y-43293007D01*
X77340471Y-43293042D01*
X77327096Y-43293743D01*
X77320721Y-43295451D01*
X77320716Y-43295452D01*
X77261034Y-43311444D01*
X77254626Y-43312983D01*
X77187712Y-43327206D01*
X77181677Y-43329893D01*
X77174853Y-43332931D01*
X77156221Y-43339529D01*
X77150817Y-43340977D01*
X77142630Y-43343171D01*
X77119363Y-43355026D01*
X77081693Y-43374219D01*
X77075741Y-43377058D01*
X77013248Y-43404882D01*
X77007906Y-43408763D01*
X77001862Y-43413154D01*
X76985011Y-43423480D01*
X76972469Y-43429871D01*
X76967335Y-43434028D01*
X76967331Y-43434031D01*
X76919307Y-43472920D01*
X76914085Y-43476929D01*
X76858747Y-43517134D01*
X76854327Y-43522043D01*
X76854325Y-43522045D01*
X76812984Y-43567959D01*
X76808443Y-43572744D01*
X61128592Y-59252595D01*
X61066280Y-59286621D01*
X61039497Y-59289500D01*
X52244503Y-59289500D01*
X52176382Y-59269498D01*
X52155408Y-59252595D01*
X51237405Y-58334592D01*
X51203379Y-58272280D01*
X51200500Y-58245497D01*
X51200500Y-42636388D01*
X51220502Y-42568267D01*
X51274158Y-42521774D01*
X51344432Y-42511670D01*
X51409012Y-42541164D01*
X51415595Y-42547293D01*
X51479700Y-42611398D01*
X51484208Y-42614555D01*
X51484211Y-42614557D01*
X51515389Y-42636388D01*
X51667251Y-42742723D01*
X51672233Y-42745046D01*
X51672238Y-42745049D01*
X51869775Y-42837161D01*
X51874757Y-42839484D01*
X51880065Y-42840906D01*
X51880067Y-42840907D01*
X52090598Y-42897319D01*
X52090600Y-42897319D01*
X52095913Y-42898743D01*
X52324000Y-42918698D01*
X52552087Y-42898743D01*
X52557400Y-42897319D01*
X52557402Y-42897319D01*
X52767933Y-42840907D01*
X52767935Y-42840906D01*
X52773243Y-42839484D01*
X52778225Y-42837161D01*
X52975762Y-42745049D01*
X52975767Y-42745046D01*
X52980749Y-42742723D01*
X53132611Y-42636388D01*
X53163789Y-42614557D01*
X53163792Y-42614555D01*
X53168300Y-42611398D01*
X53330198Y-42449500D01*
X53461523Y-42261949D01*
X53463846Y-42256967D01*
X53463849Y-42256962D01*
X53479805Y-42222743D01*
X53526722Y-42169458D01*
X53594999Y-42149997D01*
X53662959Y-42170539D01*
X53708195Y-42222743D01*
X53724151Y-42256962D01*
X53724154Y-42256967D01*
X53726477Y-42261949D01*
X53857802Y-42449500D01*
X54019700Y-42611398D01*
X54024208Y-42614555D01*
X54024211Y-42614557D01*
X54055389Y-42636388D01*
X54207251Y-42742723D01*
X54212233Y-42745046D01*
X54212238Y-42745049D01*
X54409775Y-42837161D01*
X54414757Y-42839484D01*
X54420065Y-42840906D01*
X54420067Y-42840907D01*
X54630598Y-42897319D01*
X54630600Y-42897319D01*
X54635913Y-42898743D01*
X54864000Y-42918698D01*
X55092087Y-42898743D01*
X55097400Y-42897319D01*
X55097402Y-42897319D01*
X55307933Y-42840907D01*
X55307935Y-42840906D01*
X55313243Y-42839484D01*
X55318225Y-42837161D01*
X55515762Y-42745049D01*
X55515767Y-42745046D01*
X55520749Y-42742723D01*
X55672611Y-42636388D01*
X55703789Y-42614557D01*
X55703792Y-42614555D01*
X55708300Y-42611398D01*
X55870198Y-42449500D01*
X56001523Y-42261949D01*
X56003846Y-42256967D01*
X56003849Y-42256962D01*
X56019805Y-42222743D01*
X56066722Y-42169458D01*
X56134999Y-42149997D01*
X56202959Y-42170539D01*
X56248195Y-42222743D01*
X56264151Y-42256962D01*
X56264154Y-42256967D01*
X56266477Y-42261949D01*
X56397802Y-42449500D01*
X56559700Y-42611398D01*
X56564208Y-42614555D01*
X56564211Y-42614557D01*
X56595389Y-42636388D01*
X56747251Y-42742723D01*
X56752233Y-42745046D01*
X56752238Y-42745049D01*
X56949775Y-42837161D01*
X56954757Y-42839484D01*
X56960065Y-42840906D01*
X56960067Y-42840907D01*
X57170598Y-42897319D01*
X57170600Y-42897319D01*
X57175913Y-42898743D01*
X57404000Y-42918698D01*
X57632087Y-42898743D01*
X57637400Y-42897319D01*
X57637402Y-42897319D01*
X57847933Y-42840907D01*
X57847935Y-42840906D01*
X57853243Y-42839484D01*
X57858225Y-42837161D01*
X58055762Y-42745049D01*
X58055767Y-42745046D01*
X58060749Y-42742723D01*
X58212611Y-42636388D01*
X58243789Y-42614557D01*
X58243792Y-42614555D01*
X58248300Y-42611398D01*
X58410198Y-42449500D01*
X58541523Y-42261949D01*
X58543846Y-42256967D01*
X58543849Y-42256962D01*
X58559805Y-42222743D01*
X58606722Y-42169458D01*
X58674999Y-42149997D01*
X58742959Y-42170539D01*
X58788195Y-42222743D01*
X58804151Y-42256962D01*
X58804154Y-42256967D01*
X58806477Y-42261949D01*
X58937802Y-42449500D01*
X59099700Y-42611398D01*
X59104208Y-42614555D01*
X59104211Y-42614557D01*
X59135389Y-42636388D01*
X59287251Y-42742723D01*
X59292233Y-42745046D01*
X59292238Y-42745049D01*
X59489775Y-42837161D01*
X59494757Y-42839484D01*
X59500065Y-42840906D01*
X59500067Y-42840907D01*
X59710598Y-42897319D01*
X59710600Y-42897319D01*
X59715913Y-42898743D01*
X59944000Y-42918698D01*
X60172087Y-42898743D01*
X60177400Y-42897319D01*
X60177402Y-42897319D01*
X60387933Y-42840907D01*
X60387935Y-42840906D01*
X60393243Y-42839484D01*
X60398225Y-42837161D01*
X60595762Y-42745049D01*
X60595767Y-42745046D01*
X60600749Y-42742723D01*
X60752611Y-42636388D01*
X60783789Y-42614557D01*
X60783792Y-42614555D01*
X60788300Y-42611398D01*
X60950198Y-42449500D01*
X61081523Y-42261949D01*
X61083846Y-42256967D01*
X61083849Y-42256962D01*
X61099805Y-42222743D01*
X61146722Y-42169458D01*
X61214999Y-42149997D01*
X61282959Y-42170539D01*
X61328195Y-42222743D01*
X61344151Y-42256962D01*
X61344154Y-42256967D01*
X61346477Y-42261949D01*
X61477802Y-42449500D01*
X61639700Y-42611398D01*
X61644208Y-42614555D01*
X61644211Y-42614557D01*
X61675389Y-42636388D01*
X61827251Y-42742723D01*
X61832233Y-42745046D01*
X61832238Y-42745049D01*
X62029775Y-42837161D01*
X62034757Y-42839484D01*
X62040065Y-42840906D01*
X62040067Y-42840907D01*
X62250598Y-42897319D01*
X62250600Y-42897319D01*
X62255913Y-42898743D01*
X62484000Y-42918698D01*
X62712087Y-42898743D01*
X62717400Y-42897319D01*
X62717402Y-42897319D01*
X62927933Y-42840907D01*
X62927935Y-42840906D01*
X62933243Y-42839484D01*
X62938225Y-42837161D01*
X63135762Y-42745049D01*
X63135767Y-42745046D01*
X63140749Y-42742723D01*
X63292611Y-42636388D01*
X63323789Y-42614557D01*
X63323792Y-42614555D01*
X63328300Y-42611398D01*
X63490198Y-42449500D01*
X63621523Y-42261949D01*
X63623846Y-42256967D01*
X63623849Y-42256962D01*
X63639805Y-42222743D01*
X63686722Y-42169458D01*
X63754999Y-42149997D01*
X63822959Y-42170539D01*
X63868195Y-42222743D01*
X63884151Y-42256962D01*
X63884154Y-42256967D01*
X63886477Y-42261949D01*
X64017802Y-42449500D01*
X64179700Y-42611398D01*
X64184208Y-42614555D01*
X64184211Y-42614557D01*
X64215389Y-42636388D01*
X64367251Y-42742723D01*
X64372233Y-42745046D01*
X64372238Y-42745049D01*
X64569775Y-42837161D01*
X64574757Y-42839484D01*
X64580065Y-42840906D01*
X64580067Y-42840907D01*
X64790598Y-42897319D01*
X64790600Y-42897319D01*
X64795913Y-42898743D01*
X65024000Y-42918698D01*
X65252087Y-42898743D01*
X65257400Y-42897319D01*
X65257402Y-42897319D01*
X65467933Y-42840907D01*
X65467935Y-42840906D01*
X65473243Y-42839484D01*
X65478225Y-42837161D01*
X65675762Y-42745049D01*
X65675767Y-42745046D01*
X65680749Y-42742723D01*
X65832611Y-42636388D01*
X65863789Y-42614557D01*
X65863792Y-42614555D01*
X65868300Y-42611398D01*
X66030198Y-42449500D01*
X66161523Y-42261949D01*
X66163846Y-42256967D01*
X66163849Y-42256962D01*
X66179805Y-42222743D01*
X66226722Y-42169458D01*
X66294999Y-42149997D01*
X66362959Y-42170539D01*
X66408195Y-42222743D01*
X66424151Y-42256962D01*
X66424154Y-42256967D01*
X66426477Y-42261949D01*
X66557802Y-42449500D01*
X66719700Y-42611398D01*
X66724208Y-42614555D01*
X66724211Y-42614557D01*
X66755389Y-42636388D01*
X66907251Y-42742723D01*
X66912233Y-42745046D01*
X66912238Y-42745049D01*
X67109775Y-42837161D01*
X67114757Y-42839484D01*
X67120065Y-42840906D01*
X67120067Y-42840907D01*
X67330598Y-42897319D01*
X67330600Y-42897319D01*
X67335913Y-42898743D01*
X67564000Y-42918698D01*
X67792087Y-42898743D01*
X67797400Y-42897319D01*
X67797402Y-42897319D01*
X68007933Y-42840907D01*
X68007935Y-42840906D01*
X68013243Y-42839484D01*
X68018225Y-42837161D01*
X68215762Y-42745049D01*
X68215767Y-42745046D01*
X68220749Y-42742723D01*
X68372611Y-42636388D01*
X68403789Y-42614557D01*
X68403792Y-42614555D01*
X68408300Y-42611398D01*
X68570198Y-42449500D01*
X68701523Y-42261949D01*
X68703846Y-42256967D01*
X68703849Y-42256962D01*
X68719805Y-42222743D01*
X68766722Y-42169458D01*
X68834999Y-42149997D01*
X68902959Y-42170539D01*
X68948195Y-42222743D01*
X68964151Y-42256962D01*
X68964154Y-42256967D01*
X68966477Y-42261949D01*
X69097802Y-42449500D01*
X69259700Y-42611398D01*
X69264208Y-42614555D01*
X69264211Y-42614557D01*
X69295389Y-42636388D01*
X69447251Y-42742723D01*
X69452233Y-42745046D01*
X69452238Y-42745049D01*
X69649775Y-42837161D01*
X69654757Y-42839484D01*
X69660065Y-42840906D01*
X69660067Y-42840907D01*
X69870598Y-42897319D01*
X69870600Y-42897319D01*
X69875913Y-42898743D01*
X70104000Y-42918698D01*
X70332087Y-42898743D01*
X70337400Y-42897319D01*
X70337402Y-42897319D01*
X70547933Y-42840907D01*
X70547935Y-42840906D01*
X70553243Y-42839484D01*
X70558225Y-42837161D01*
X70755762Y-42745049D01*
X70755767Y-42745046D01*
X70760749Y-42742723D01*
X70912611Y-42636388D01*
X70943789Y-42614557D01*
X70943792Y-42614555D01*
X70948300Y-42611398D01*
X71110198Y-42449500D01*
X71241523Y-42261949D01*
X71243846Y-42256967D01*
X71243849Y-42256962D01*
X71259805Y-42222743D01*
X71306722Y-42169458D01*
X71374999Y-42149997D01*
X71442959Y-42170539D01*
X71488195Y-42222743D01*
X71504151Y-42256962D01*
X71504154Y-42256967D01*
X71506477Y-42261949D01*
X71637802Y-42449500D01*
X71799700Y-42611398D01*
X71804208Y-42614555D01*
X71804211Y-42614557D01*
X71835389Y-42636388D01*
X71987251Y-42742723D01*
X71992233Y-42745046D01*
X71992238Y-42745049D01*
X72189775Y-42837161D01*
X72194757Y-42839484D01*
X72200065Y-42840906D01*
X72200067Y-42840907D01*
X72410598Y-42897319D01*
X72410600Y-42897319D01*
X72415913Y-42898743D01*
X72644000Y-42918698D01*
X72872087Y-42898743D01*
X72877400Y-42897319D01*
X72877402Y-42897319D01*
X73087933Y-42840907D01*
X73087935Y-42840906D01*
X73093243Y-42839484D01*
X73098225Y-42837161D01*
X73295762Y-42745049D01*
X73295767Y-42745046D01*
X73300749Y-42742723D01*
X73452611Y-42636388D01*
X73483789Y-42614557D01*
X73483792Y-42614555D01*
X73488300Y-42611398D01*
X73650198Y-42449500D01*
X73781523Y-42261949D01*
X73783846Y-42256967D01*
X73783849Y-42256962D01*
X73799805Y-42222743D01*
X73846722Y-42169458D01*
X73914999Y-42149997D01*
X73982959Y-42170539D01*
X74028195Y-42222743D01*
X74044151Y-42256962D01*
X74044154Y-42256967D01*
X74046477Y-42261949D01*
X74177802Y-42449500D01*
X74339700Y-42611398D01*
X74344208Y-42614555D01*
X74344211Y-42614557D01*
X74375389Y-42636388D01*
X74527251Y-42742723D01*
X74532233Y-42745046D01*
X74532238Y-42745049D01*
X74729775Y-42837161D01*
X74734757Y-42839484D01*
X74740065Y-42840906D01*
X74740067Y-42840907D01*
X74950598Y-42897319D01*
X74950600Y-42897319D01*
X74955913Y-42898743D01*
X75184000Y-42918698D01*
X75412087Y-42898743D01*
X75417400Y-42897319D01*
X75417402Y-42897319D01*
X75627933Y-42840907D01*
X75627935Y-42840906D01*
X75633243Y-42839484D01*
X75638225Y-42837161D01*
X75835762Y-42745049D01*
X75835767Y-42745046D01*
X75840749Y-42742723D01*
X75992611Y-42636388D01*
X76023789Y-42614557D01*
X76023792Y-42614555D01*
X76028300Y-42611398D01*
X76190198Y-42449500D01*
X76321523Y-42261949D01*
X76323846Y-42256967D01*
X76323849Y-42256962D01*
X76339805Y-42222743D01*
X76386722Y-42169458D01*
X76454999Y-42149997D01*
X76522959Y-42170539D01*
X76568195Y-42222743D01*
X76584151Y-42256962D01*
X76584154Y-42256967D01*
X76586477Y-42261949D01*
X76717802Y-42449500D01*
X76879700Y-42611398D01*
X76884208Y-42614555D01*
X76884211Y-42614557D01*
X76915389Y-42636388D01*
X77067251Y-42742723D01*
X77072233Y-42745046D01*
X77072238Y-42745049D01*
X77269775Y-42837161D01*
X77274757Y-42839484D01*
X77280065Y-42840906D01*
X77280067Y-42840907D01*
X77490598Y-42897319D01*
X77490600Y-42897319D01*
X77495913Y-42898743D01*
X77724000Y-42918698D01*
X77952087Y-42898743D01*
X77957400Y-42897319D01*
X77957402Y-42897319D01*
X78167933Y-42840907D01*
X78167935Y-42840906D01*
X78173243Y-42839484D01*
X78178225Y-42837161D01*
X78375762Y-42745049D01*
X78375767Y-42745046D01*
X78380749Y-42742723D01*
X78532611Y-42636388D01*
X78563789Y-42614557D01*
X78563792Y-42614555D01*
X78568300Y-42611398D01*
X78730198Y-42449500D01*
X78861523Y-42261949D01*
X78863846Y-42256967D01*
X78863849Y-42256962D01*
X78879805Y-42222743D01*
X78926722Y-42169458D01*
X78994999Y-42149997D01*
X79062959Y-42170539D01*
X79108195Y-42222743D01*
X79124151Y-42256962D01*
X79124154Y-42256967D01*
X79126477Y-42261949D01*
X79257802Y-42449500D01*
X79419700Y-42611398D01*
X79424208Y-42614555D01*
X79424211Y-42614557D01*
X79455389Y-42636388D01*
X79607251Y-42742723D01*
X79612233Y-42745046D01*
X79612238Y-42745049D01*
X79809775Y-42837161D01*
X79814757Y-42839484D01*
X79820065Y-42840906D01*
X79820067Y-42840907D01*
X80030598Y-42897319D01*
X80030600Y-42897319D01*
X80035913Y-42898743D01*
X80264000Y-42918698D01*
X80492087Y-42898743D01*
X80497400Y-42897319D01*
X80497402Y-42897319D01*
X80707933Y-42840907D01*
X80707935Y-42840906D01*
X80713243Y-42839484D01*
X80718225Y-42837161D01*
X80915762Y-42745049D01*
X80915767Y-42745046D01*
X80920749Y-42742723D01*
X81072611Y-42636388D01*
X81103789Y-42614557D01*
X81103792Y-42614555D01*
X81108300Y-42611398D01*
X81270198Y-42449500D01*
X81401523Y-42261949D01*
X81403846Y-42256967D01*
X81403849Y-42256962D01*
X81495961Y-42059425D01*
X81495961Y-42059424D01*
X81498284Y-42054443D01*
X81557543Y-41833287D01*
X81577498Y-41605200D01*
X81557543Y-41377113D01*
X81498284Y-41155957D01*
X81419805Y-40987657D01*
X81403849Y-40953438D01*
X81403846Y-40953433D01*
X81401523Y-40948451D01*
X81270198Y-40760900D01*
X81108300Y-40599002D01*
X81103792Y-40595845D01*
X81103789Y-40595843D01*
X80926077Y-40471408D01*
X80920749Y-40467677D01*
X80915767Y-40465354D01*
X80915762Y-40465351D01*
X80718225Y-40373239D01*
X80718224Y-40373239D01*
X80713243Y-40370916D01*
X80707935Y-40369494D01*
X80707933Y-40369493D01*
X80497402Y-40313081D01*
X80497400Y-40313081D01*
X80492087Y-40311657D01*
X80264000Y-40291702D01*
X80035913Y-40311657D01*
X80030600Y-40313081D01*
X80030598Y-40313081D01*
X79820067Y-40369493D01*
X79820065Y-40369494D01*
X79814757Y-40370916D01*
X79809776Y-40373239D01*
X79809775Y-40373239D01*
X79612238Y-40465351D01*
X79612233Y-40465354D01*
X79607251Y-40467677D01*
X79601923Y-40471408D01*
X79424211Y-40595843D01*
X79424208Y-40595845D01*
X79419700Y-40599002D01*
X79257802Y-40760900D01*
X79126477Y-40948451D01*
X79124154Y-40953433D01*
X79124151Y-40953438D01*
X79108195Y-40987657D01*
X79061278Y-41040942D01*
X78993001Y-41060403D01*
X78925041Y-41039861D01*
X78879805Y-40987657D01*
X78863849Y-40953438D01*
X78863846Y-40953433D01*
X78861523Y-40948451D01*
X78730198Y-40760900D01*
X78568300Y-40599002D01*
X78563792Y-40595845D01*
X78563789Y-40595843D01*
X78386077Y-40471408D01*
X78380749Y-40467677D01*
X78375767Y-40465354D01*
X78375762Y-40465351D01*
X78178225Y-40373239D01*
X78178224Y-40373239D01*
X78173243Y-40370916D01*
X78167935Y-40369494D01*
X78167933Y-40369493D01*
X77957402Y-40313081D01*
X77957400Y-40313081D01*
X77952087Y-40311657D01*
X77724000Y-40291702D01*
X77495913Y-40311657D01*
X77490600Y-40313081D01*
X77490598Y-40313081D01*
X77280067Y-40369493D01*
X77280065Y-40369494D01*
X77274757Y-40370916D01*
X77269776Y-40373239D01*
X77269775Y-40373239D01*
X77072238Y-40465351D01*
X77072233Y-40465354D01*
X77067251Y-40467677D01*
X77061923Y-40471408D01*
X76884211Y-40595843D01*
X76884208Y-40595845D01*
X76879700Y-40599002D01*
X76717802Y-40760900D01*
X76586477Y-40948451D01*
X76584154Y-40953433D01*
X76584151Y-40953438D01*
X76568195Y-40987657D01*
X76521278Y-41040942D01*
X76453001Y-41060403D01*
X76385041Y-41039861D01*
X76339805Y-40987657D01*
X76323849Y-40953438D01*
X76323846Y-40953433D01*
X76321523Y-40948451D01*
X76190198Y-40760900D01*
X76028300Y-40599002D01*
X76023792Y-40595845D01*
X76023789Y-40595843D01*
X75846077Y-40471408D01*
X75840749Y-40467677D01*
X75835767Y-40465354D01*
X75835762Y-40465351D01*
X75638225Y-40373239D01*
X75638224Y-40373239D01*
X75633243Y-40370916D01*
X75627935Y-40369494D01*
X75627933Y-40369493D01*
X75417402Y-40313081D01*
X75417400Y-40313081D01*
X75412087Y-40311657D01*
X75184000Y-40291702D01*
X74955913Y-40311657D01*
X74950600Y-40313081D01*
X74950598Y-40313081D01*
X74740067Y-40369493D01*
X74740065Y-40369494D01*
X74734757Y-40370916D01*
X74729776Y-40373239D01*
X74729775Y-40373239D01*
X74532238Y-40465351D01*
X74532233Y-40465354D01*
X74527251Y-40467677D01*
X74521923Y-40471408D01*
X74344211Y-40595843D01*
X74344208Y-40595845D01*
X74339700Y-40599002D01*
X74177802Y-40760900D01*
X74046477Y-40948451D01*
X74044154Y-40953433D01*
X74044151Y-40953438D01*
X74028195Y-40987657D01*
X73981278Y-41040942D01*
X73913001Y-41060403D01*
X73845041Y-41039861D01*
X73799805Y-40987657D01*
X73783849Y-40953438D01*
X73783846Y-40953433D01*
X73781523Y-40948451D01*
X73650198Y-40760900D01*
X73488300Y-40599002D01*
X73483792Y-40595845D01*
X73483789Y-40595843D01*
X73306077Y-40471408D01*
X73300749Y-40467677D01*
X73295767Y-40465354D01*
X73295762Y-40465351D01*
X73098225Y-40373239D01*
X73098224Y-40373239D01*
X73093243Y-40370916D01*
X73087935Y-40369494D01*
X73087933Y-40369493D01*
X72877402Y-40313081D01*
X72877400Y-40313081D01*
X72872087Y-40311657D01*
X72644000Y-40291702D01*
X72415913Y-40311657D01*
X72410600Y-40313081D01*
X72410598Y-40313081D01*
X72200067Y-40369493D01*
X72200065Y-40369494D01*
X72194757Y-40370916D01*
X72189776Y-40373239D01*
X72189775Y-40373239D01*
X71992238Y-40465351D01*
X71992233Y-40465354D01*
X71987251Y-40467677D01*
X71981923Y-40471408D01*
X71804211Y-40595843D01*
X71804208Y-40595845D01*
X71799700Y-40599002D01*
X71637802Y-40760900D01*
X71506477Y-40948451D01*
X71504154Y-40953433D01*
X71504151Y-40953438D01*
X71488195Y-40987657D01*
X71441278Y-41040942D01*
X71373001Y-41060403D01*
X71305041Y-41039861D01*
X71259805Y-40987657D01*
X71243849Y-40953438D01*
X71243846Y-40953433D01*
X71241523Y-40948451D01*
X71110198Y-40760900D01*
X70948300Y-40599002D01*
X70943792Y-40595845D01*
X70943789Y-40595843D01*
X70766077Y-40471408D01*
X70760749Y-40467677D01*
X70755767Y-40465354D01*
X70755762Y-40465351D01*
X70558225Y-40373239D01*
X70558224Y-40373239D01*
X70553243Y-40370916D01*
X70547935Y-40369494D01*
X70547933Y-40369493D01*
X70337402Y-40313081D01*
X70337400Y-40313081D01*
X70332087Y-40311657D01*
X70104000Y-40291702D01*
X69875913Y-40311657D01*
X69870600Y-40313081D01*
X69870598Y-40313081D01*
X69660067Y-40369493D01*
X69660065Y-40369494D01*
X69654757Y-40370916D01*
X69649776Y-40373239D01*
X69649775Y-40373239D01*
X69452238Y-40465351D01*
X69452233Y-40465354D01*
X69447251Y-40467677D01*
X69441923Y-40471408D01*
X69264211Y-40595843D01*
X69264208Y-40595845D01*
X69259700Y-40599002D01*
X69097802Y-40760900D01*
X68966477Y-40948451D01*
X68964154Y-40953433D01*
X68964151Y-40953438D01*
X68948195Y-40987657D01*
X68901278Y-41040942D01*
X68833001Y-41060403D01*
X68765041Y-41039861D01*
X68719805Y-40987657D01*
X68703849Y-40953438D01*
X68703846Y-40953433D01*
X68701523Y-40948451D01*
X68570198Y-40760900D01*
X68408300Y-40599002D01*
X68403792Y-40595845D01*
X68403789Y-40595843D01*
X68226077Y-40471408D01*
X68220749Y-40467677D01*
X68215767Y-40465354D01*
X68215762Y-40465351D01*
X68018225Y-40373239D01*
X68018224Y-40373239D01*
X68013243Y-40370916D01*
X68007935Y-40369494D01*
X68007933Y-40369493D01*
X67797402Y-40313081D01*
X67797400Y-40313081D01*
X67792087Y-40311657D01*
X67564000Y-40291702D01*
X67335913Y-40311657D01*
X67330600Y-40313081D01*
X67330598Y-40313081D01*
X67120067Y-40369493D01*
X67120065Y-40369494D01*
X67114757Y-40370916D01*
X67109776Y-40373239D01*
X67109775Y-40373239D01*
X66912238Y-40465351D01*
X66912233Y-40465354D01*
X66907251Y-40467677D01*
X66901923Y-40471408D01*
X66724211Y-40595843D01*
X66724208Y-40595845D01*
X66719700Y-40599002D01*
X66557802Y-40760900D01*
X66426477Y-40948451D01*
X66424154Y-40953433D01*
X66424151Y-40953438D01*
X66408195Y-40987657D01*
X66361278Y-41040942D01*
X66293001Y-41060403D01*
X66225041Y-41039861D01*
X66179805Y-40987657D01*
X66163849Y-40953438D01*
X66163846Y-40953433D01*
X66161523Y-40948451D01*
X66030198Y-40760900D01*
X65868300Y-40599002D01*
X65863792Y-40595845D01*
X65863789Y-40595843D01*
X65686077Y-40471408D01*
X65680749Y-40467677D01*
X65675767Y-40465354D01*
X65675762Y-40465351D01*
X65478225Y-40373239D01*
X65478224Y-40373239D01*
X65473243Y-40370916D01*
X65467935Y-40369494D01*
X65467933Y-40369493D01*
X65257402Y-40313081D01*
X65257400Y-40313081D01*
X65252087Y-40311657D01*
X65024000Y-40291702D01*
X64795913Y-40311657D01*
X64790600Y-40313081D01*
X64790598Y-40313081D01*
X64580067Y-40369493D01*
X64580065Y-40369494D01*
X64574757Y-40370916D01*
X64569776Y-40373239D01*
X64569775Y-40373239D01*
X64372238Y-40465351D01*
X64372233Y-40465354D01*
X64367251Y-40467677D01*
X64361923Y-40471408D01*
X64184211Y-40595843D01*
X64184208Y-40595845D01*
X64179700Y-40599002D01*
X64017802Y-40760900D01*
X63886477Y-40948451D01*
X63884154Y-40953433D01*
X63884151Y-40953438D01*
X63868195Y-40987657D01*
X63821278Y-41040942D01*
X63753001Y-41060403D01*
X63685041Y-41039861D01*
X63639805Y-40987657D01*
X63623849Y-40953438D01*
X63623846Y-40953433D01*
X63621523Y-40948451D01*
X63490198Y-40760900D01*
X63328300Y-40599002D01*
X63323792Y-40595845D01*
X63323789Y-40595843D01*
X63146077Y-40471408D01*
X63140749Y-40467677D01*
X63135767Y-40465354D01*
X63135762Y-40465351D01*
X62938225Y-40373239D01*
X62938224Y-40373239D01*
X62933243Y-40370916D01*
X62927935Y-40369494D01*
X62927933Y-40369493D01*
X62717402Y-40313081D01*
X62717400Y-40313081D01*
X62712087Y-40311657D01*
X62484000Y-40291702D01*
X62255913Y-40311657D01*
X62250600Y-40313081D01*
X62250598Y-40313081D01*
X62040067Y-40369493D01*
X62040065Y-40369494D01*
X62034757Y-40370916D01*
X62029776Y-40373239D01*
X62029775Y-40373239D01*
X61832238Y-40465351D01*
X61832233Y-40465354D01*
X61827251Y-40467677D01*
X61821923Y-40471408D01*
X61644211Y-40595843D01*
X61644208Y-40595845D01*
X61639700Y-40599002D01*
X61477802Y-40760900D01*
X61346477Y-40948451D01*
X61344154Y-40953433D01*
X61344151Y-40953438D01*
X61328195Y-40987657D01*
X61281278Y-41040942D01*
X61213001Y-41060403D01*
X61145041Y-41039861D01*
X61099805Y-40987657D01*
X61083849Y-40953438D01*
X61083846Y-40953433D01*
X61081523Y-40948451D01*
X60950198Y-40760900D01*
X60788300Y-40599002D01*
X60783792Y-40595845D01*
X60783789Y-40595843D01*
X60606077Y-40471408D01*
X60600749Y-40467677D01*
X60595767Y-40465354D01*
X60595762Y-40465351D01*
X60398225Y-40373239D01*
X60398224Y-40373239D01*
X60393243Y-40370916D01*
X60387935Y-40369494D01*
X60387933Y-40369493D01*
X60177402Y-40313081D01*
X60177400Y-40313081D01*
X60172087Y-40311657D01*
X59944000Y-40291702D01*
X59715913Y-40311657D01*
X59710600Y-40313081D01*
X59710598Y-40313081D01*
X59500067Y-40369493D01*
X59500065Y-40369494D01*
X59494757Y-40370916D01*
X59489776Y-40373239D01*
X59489775Y-40373239D01*
X59292238Y-40465351D01*
X59292233Y-40465354D01*
X59287251Y-40467677D01*
X59281923Y-40471408D01*
X59104211Y-40595843D01*
X59104208Y-40595845D01*
X59099700Y-40599002D01*
X58937802Y-40760900D01*
X58806477Y-40948451D01*
X58804154Y-40953433D01*
X58804151Y-40953438D01*
X58788195Y-40987657D01*
X58741278Y-41040942D01*
X58673001Y-41060403D01*
X58605041Y-41039861D01*
X58559805Y-40987657D01*
X58543849Y-40953438D01*
X58543846Y-40953433D01*
X58541523Y-40948451D01*
X58410198Y-40760900D01*
X58248300Y-40599002D01*
X58243792Y-40595845D01*
X58243789Y-40595843D01*
X58066077Y-40471408D01*
X58060749Y-40467677D01*
X58055767Y-40465354D01*
X58055762Y-40465351D01*
X57858225Y-40373239D01*
X57858224Y-40373239D01*
X57853243Y-40370916D01*
X57847935Y-40369494D01*
X57847933Y-40369493D01*
X57637402Y-40313081D01*
X57637400Y-40313081D01*
X57632087Y-40311657D01*
X57404000Y-40291702D01*
X57175913Y-40311657D01*
X57170600Y-40313081D01*
X57170598Y-40313081D01*
X56960067Y-40369493D01*
X56960065Y-40369494D01*
X56954757Y-40370916D01*
X56949776Y-40373239D01*
X56949775Y-40373239D01*
X56752238Y-40465351D01*
X56752233Y-40465354D01*
X56747251Y-40467677D01*
X56741923Y-40471408D01*
X56564211Y-40595843D01*
X56564208Y-40595845D01*
X56559700Y-40599002D01*
X56397802Y-40760900D01*
X56266477Y-40948451D01*
X56264154Y-40953433D01*
X56264151Y-40953438D01*
X56248195Y-40987657D01*
X56201278Y-41040942D01*
X56133001Y-41060403D01*
X56065041Y-41039861D01*
X56019805Y-40987657D01*
X56003849Y-40953438D01*
X56003846Y-40953433D01*
X56001523Y-40948451D01*
X55870198Y-40760900D01*
X55708300Y-40599002D01*
X55703792Y-40595845D01*
X55703789Y-40595843D01*
X55526077Y-40471408D01*
X55520749Y-40467677D01*
X55515767Y-40465354D01*
X55515762Y-40465351D01*
X55318225Y-40373239D01*
X55318224Y-40373239D01*
X55313243Y-40370916D01*
X55307935Y-40369494D01*
X55307933Y-40369493D01*
X55097402Y-40313081D01*
X55097400Y-40313081D01*
X55092087Y-40311657D01*
X54864000Y-40291702D01*
X54635913Y-40311657D01*
X54630600Y-40313081D01*
X54630598Y-40313081D01*
X54420067Y-40369493D01*
X54420065Y-40369494D01*
X54414757Y-40370916D01*
X54409776Y-40373239D01*
X54409775Y-40373239D01*
X54212238Y-40465351D01*
X54212233Y-40465354D01*
X54207251Y-40467677D01*
X54201923Y-40471408D01*
X54024211Y-40595843D01*
X54024208Y-40595845D01*
X54019700Y-40599002D01*
X53857802Y-40760900D01*
X53726477Y-40948451D01*
X53724154Y-40953433D01*
X53724151Y-40953438D01*
X53708195Y-40987657D01*
X53661278Y-41040942D01*
X53593001Y-41060403D01*
X53525041Y-41039861D01*
X53479805Y-40987657D01*
X53463849Y-40953438D01*
X53463846Y-40953433D01*
X53461523Y-40948451D01*
X53330198Y-40760900D01*
X53168300Y-40599002D01*
X53163792Y-40595845D01*
X53163789Y-40595843D01*
X52986077Y-40471408D01*
X52980749Y-40467677D01*
X52975767Y-40465354D01*
X52975762Y-40465351D01*
X52778225Y-40373239D01*
X52778224Y-40373239D01*
X52773243Y-40370916D01*
X52767935Y-40369494D01*
X52767933Y-40369493D01*
X52557402Y-40313081D01*
X52557400Y-40313081D01*
X52552087Y-40311657D01*
X52324000Y-40291702D01*
X52095913Y-40311657D01*
X52090600Y-40313081D01*
X52090598Y-40313081D01*
X51880067Y-40369493D01*
X51880065Y-40369494D01*
X51874757Y-40370916D01*
X51869776Y-40373239D01*
X51869775Y-40373239D01*
X51672238Y-40465351D01*
X51672233Y-40465354D01*
X51667251Y-40467677D01*
X51661923Y-40471408D01*
X51484211Y-40595843D01*
X51484208Y-40595845D01*
X51479700Y-40599002D01*
X51415595Y-40663107D01*
X51353283Y-40697133D01*
X51282468Y-40692068D01*
X51225632Y-40649521D01*
X51200821Y-40583001D01*
X51200500Y-40574012D01*
X51200500Y-40560503D01*
X51220502Y-40492382D01*
X51237405Y-40471408D01*
X52742208Y-38966605D01*
X52804520Y-38932579D01*
X52831303Y-38929700D01*
X64160823Y-38929700D01*
X64228944Y-38949702D01*
X64275437Y-39003358D01*
X64278805Y-39011470D01*
X64318706Y-39117905D01*
X64406060Y-39234461D01*
X64522616Y-39321815D01*
X64659005Y-39372945D01*
X64721187Y-39379700D01*
X66517455Y-39379700D01*
X66579637Y-39372945D01*
X66716026Y-39321815D01*
X66832582Y-39234461D01*
X66919936Y-39117905D01*
X66962878Y-39003358D01*
X66963919Y-39000582D01*
X67006561Y-38943818D01*
X67073123Y-38919118D01*
X67142471Y-38934326D01*
X67177138Y-38962314D01*
X67205571Y-38995138D01*
X67377447Y-39137832D01*
X67570321Y-39250538D01*
X67779013Y-39330230D01*
X67784081Y-39331261D01*
X67784084Y-39331262D01*
X67891338Y-39353083D01*
X67997918Y-39374767D01*
X68003093Y-39374957D01*
X68003095Y-39374957D01*
X68215994Y-39382764D01*
X68215998Y-39382764D01*
X68221158Y-39382953D01*
X68226278Y-39382297D01*
X68226280Y-39382297D01*
X68437609Y-39355225D01*
X68437610Y-39355225D01*
X68442737Y-39354568D01*
X68447687Y-39353083D01*
X68651750Y-39291861D01*
X68651755Y-39291859D01*
X68656705Y-39290374D01*
X68857315Y-39192096D01*
X69039181Y-39062373D01*
X69197417Y-38904689D01*
X69256915Y-38821889D01*
X69324756Y-38727477D01*
X69327774Y-38723277D01*
X69348641Y-38681057D01*
X69424457Y-38527653D01*
X69424458Y-38527651D01*
X69426751Y-38523011D01*
X69491691Y-38309269D01*
X69520850Y-38087790D01*
X69522477Y-38021200D01*
X69519739Y-37987895D01*
X71876572Y-37987895D01*
X71876869Y-37993048D01*
X71876869Y-37993051D01*
X71882332Y-38087790D01*
X71889431Y-38210915D01*
X71890568Y-38215961D01*
X71890569Y-38215967D01*
X71910440Y-38304139D01*
X71938543Y-38428839D01*
X72022587Y-38635816D01*
X72073340Y-38718638D01*
X72136612Y-38821888D01*
X72139308Y-38826288D01*
X72285571Y-38995138D01*
X72457447Y-39137832D01*
X72650321Y-39250538D01*
X72859013Y-39330230D01*
X72864081Y-39331261D01*
X72864084Y-39331262D01*
X72971338Y-39353083D01*
X73077918Y-39374767D01*
X73083093Y-39374957D01*
X73083095Y-39374957D01*
X73295994Y-39382764D01*
X73295998Y-39382764D01*
X73301158Y-39382953D01*
X73306278Y-39382297D01*
X73306280Y-39382297D01*
X73517609Y-39355225D01*
X73517610Y-39355225D01*
X73522737Y-39354568D01*
X73527687Y-39353083D01*
X73731750Y-39291861D01*
X73731755Y-39291859D01*
X73736705Y-39290374D01*
X73937315Y-39192096D01*
X74119181Y-39062373D01*
X74277417Y-38904689D01*
X74336915Y-38821889D01*
X74407774Y-38723277D01*
X74409097Y-38724228D01*
X74455966Y-38681057D01*
X74525901Y-38668825D01*
X74591347Y-38696344D01*
X74619196Y-38728194D01*
X74679308Y-38826288D01*
X74825571Y-38995138D01*
X74997447Y-39137832D01*
X75190321Y-39250538D01*
X75399013Y-39330230D01*
X75404081Y-39331261D01*
X75404084Y-39331262D01*
X75511338Y-39353083D01*
X75617918Y-39374767D01*
X75623093Y-39374957D01*
X75623095Y-39374957D01*
X75835994Y-39382764D01*
X75835998Y-39382764D01*
X75841158Y-39382953D01*
X75846278Y-39382297D01*
X75846280Y-39382297D01*
X76057609Y-39355225D01*
X76057610Y-39355225D01*
X76062737Y-39354568D01*
X76067687Y-39353083D01*
X76271750Y-39291861D01*
X76271755Y-39291859D01*
X76276705Y-39290374D01*
X76477315Y-39192096D01*
X76659181Y-39062373D01*
X76817417Y-38904689D01*
X76876915Y-38821889D01*
X76944756Y-38727477D01*
X76947774Y-38723277D01*
X76968641Y-38681057D01*
X77044457Y-38527653D01*
X77044458Y-38527651D01*
X77046751Y-38523011D01*
X77111691Y-38309269D01*
X77140850Y-38087790D01*
X77142477Y-38021200D01*
X77124173Y-37798561D01*
X77069752Y-37581902D01*
X76980675Y-37377040D01*
X76941227Y-37316062D01*
X76862143Y-37193817D01*
X76862141Y-37193814D01*
X76859335Y-37189477D01*
X76708991Y-37024251D01*
X76704940Y-37021052D01*
X76704936Y-37021048D01*
X76537735Y-36889000D01*
X76537731Y-36888998D01*
X76533680Y-36885798D01*
X76495898Y-36864941D01*
X76481457Y-36856969D01*
X76338110Y-36777838D01*
X76333241Y-36776114D01*
X76333237Y-36776112D01*
X76132408Y-36704995D01*
X76132404Y-36704994D01*
X76127533Y-36703269D01*
X76122440Y-36702362D01*
X76122437Y-36702361D01*
X75912694Y-36665000D01*
X75912688Y-36664999D01*
X75907605Y-36664094D01*
X75833773Y-36663192D01*
X75689402Y-36661428D01*
X75689400Y-36661428D01*
X75684232Y-36661365D01*
X75463412Y-36695155D01*
X75251077Y-36764557D01*
X75052928Y-36867707D01*
X75048795Y-36870810D01*
X75048792Y-36870812D01*
X74878421Y-36998730D01*
X74874286Y-37001835D01*
X74834524Y-37043443D01*
X74733848Y-37148795D01*
X74719950Y-37163338D01*
X74612522Y-37320821D01*
X74557614Y-37365821D01*
X74487089Y-37373992D01*
X74423342Y-37342738D01*
X74402645Y-37318254D01*
X74322143Y-37193817D01*
X74322141Y-37193814D01*
X74319335Y-37189477D01*
X74168991Y-37024251D01*
X74164940Y-37021052D01*
X74164936Y-37021048D01*
X73997735Y-36889000D01*
X73997731Y-36888998D01*
X73993680Y-36885798D01*
X73955898Y-36864941D01*
X73941457Y-36856969D01*
X73798110Y-36777838D01*
X73793241Y-36776114D01*
X73793237Y-36776112D01*
X73592408Y-36704995D01*
X73592404Y-36704994D01*
X73587533Y-36703269D01*
X73582440Y-36702362D01*
X73582437Y-36702361D01*
X73372694Y-36665000D01*
X73372688Y-36664999D01*
X73367605Y-36664094D01*
X73293773Y-36663192D01*
X73149402Y-36661428D01*
X73149400Y-36661428D01*
X73144232Y-36661365D01*
X72923412Y-36695155D01*
X72711077Y-36764557D01*
X72512928Y-36867707D01*
X72508795Y-36870810D01*
X72508792Y-36870812D01*
X72338421Y-36998730D01*
X72334286Y-37001835D01*
X72294524Y-37043443D01*
X72193848Y-37148795D01*
X72179950Y-37163338D01*
X72177041Y-37167603D01*
X72177035Y-37167611D01*
X72103693Y-37275127D01*
X72054064Y-37347880D01*
X71960009Y-37550505D01*
X71900310Y-37765770D01*
X71876572Y-37987895D01*
X69519739Y-37987895D01*
X69504173Y-37798561D01*
X69449752Y-37581902D01*
X69360675Y-37377040D01*
X69321227Y-37316062D01*
X69242143Y-37193817D01*
X69242141Y-37193814D01*
X69239335Y-37189477D01*
X69088991Y-37024251D01*
X69084940Y-37021052D01*
X69084936Y-37021048D01*
X68917735Y-36889000D01*
X68917731Y-36888998D01*
X68913680Y-36885798D01*
X68875898Y-36864941D01*
X68861457Y-36856969D01*
X68718110Y-36777838D01*
X68713241Y-36776114D01*
X68713237Y-36776112D01*
X68512408Y-36704995D01*
X68512404Y-36704994D01*
X68507533Y-36703269D01*
X68502440Y-36702362D01*
X68502437Y-36702361D01*
X68292694Y-36665000D01*
X68292688Y-36664999D01*
X68287605Y-36664094D01*
X68213773Y-36663192D01*
X68069402Y-36661428D01*
X68069400Y-36661428D01*
X68064232Y-36661365D01*
X67843412Y-36695155D01*
X67631077Y-36764557D01*
X67432928Y-36867707D01*
X67428795Y-36870810D01*
X67428792Y-36870812D01*
X67258421Y-36998730D01*
X67254286Y-37001835D01*
X67197858Y-37060884D01*
X67173604Y-37086264D01*
X67112080Y-37121694D01*
X67041167Y-37118237D01*
X66983381Y-37076991D01*
X66964528Y-37043443D01*
X66923088Y-36932903D01*
X66919936Y-36924495D01*
X66832582Y-36807939D01*
X66716026Y-36720585D01*
X66579637Y-36669455D01*
X66517455Y-36662700D01*
X64721187Y-36662700D01*
X64659005Y-36669455D01*
X64522616Y-36720585D01*
X64406060Y-36807939D01*
X64318706Y-36924495D01*
X64315554Y-36932903D01*
X64278805Y-37030930D01*
X64236163Y-37087694D01*
X64169602Y-37112394D01*
X64160823Y-37112700D01*
X52484217Y-37112700D01*
X52464508Y-37111149D01*
X52450610Y-37108948D01*
X52444023Y-37109293D01*
X52444018Y-37109293D01*
X52382320Y-37112527D01*
X52375726Y-37112700D01*
X52355190Y-37112700D01*
X52351918Y-37113044D01*
X52351916Y-37113044D01*
X52334758Y-37114847D01*
X52328184Y-37115364D01*
X52266492Y-37118597D01*
X52266488Y-37118598D01*
X52259897Y-37118943D01*
X52253516Y-37120653D01*
X52253514Y-37120653D01*
X52246309Y-37122583D01*
X52226875Y-37126185D01*
X52219446Y-37126966D01*
X52219437Y-37126968D01*
X52212872Y-37127658D01*
X52147803Y-37148800D01*
X52141501Y-37150667D01*
X52075430Y-37168371D01*
X52062893Y-37174759D01*
X52044626Y-37182325D01*
X52037528Y-37184631D01*
X52037526Y-37184632D01*
X52031244Y-37186673D01*
X52025522Y-37189976D01*
X52025521Y-37189977D01*
X51972018Y-37220867D01*
X51966223Y-37224014D01*
X51905270Y-37255071D01*
X51900142Y-37259224D01*
X51900140Y-37259225D01*
X51894334Y-37263927D01*
X51878037Y-37275127D01*
X51871576Y-37278857D01*
X51871572Y-37278860D01*
X51865856Y-37282160D01*
X51860950Y-37286577D01*
X51860945Y-37286581D01*
X51815031Y-37327922D01*
X51810016Y-37332206D01*
X51801518Y-37339088D01*
X51794059Y-37345128D01*
X51779544Y-37359643D01*
X51774759Y-37364184D01*
X51723934Y-37409947D01*
X51720055Y-37415286D01*
X51720054Y-37415287D01*
X51715660Y-37421335D01*
X51702819Y-37436368D01*
X49707168Y-39432019D01*
X49692135Y-39444860D01*
X49680747Y-39453134D01*
X49676327Y-39458043D01*
X49634984Y-39503959D01*
X49630443Y-39508744D01*
X49615928Y-39523259D01*
X49613852Y-39525823D01*
X49603006Y-39539216D01*
X49598722Y-39544231D01*
X49557381Y-39590145D01*
X49557377Y-39590150D01*
X49552960Y-39595056D01*
X49549660Y-39600772D01*
X49549657Y-39600776D01*
X49545927Y-39607237D01*
X49534727Y-39623533D01*
X49525871Y-39634470D01*
X49494815Y-39695421D01*
X49491669Y-39701215D01*
X49457473Y-39760444D01*
X49455432Y-39766726D01*
X49455431Y-39766728D01*
X49453125Y-39773826D01*
X49445560Y-39792092D01*
X49439171Y-39804630D01*
X49437463Y-39811003D01*
X49437463Y-39811004D01*
X49421469Y-39870695D01*
X49419600Y-39877003D01*
X49398458Y-39942072D01*
X49397768Y-39948637D01*
X49397766Y-39948646D01*
X49396985Y-39956075D01*
X49393383Y-39975509D01*
X49391453Y-39982714D01*
X49389743Y-39989097D01*
X49389398Y-39995688D01*
X49389397Y-39995692D01*
X49386164Y-40057384D01*
X49385647Y-40063958D01*
X49383844Y-40081116D01*
X49383500Y-40084390D01*
X49383500Y-40104926D01*
X49383327Y-40111520D01*
X49379748Y-40179810D01*
X49380780Y-40186325D01*
X49381949Y-40193705D01*
X49383500Y-40213417D01*
X49383500Y-58592583D01*
X49381949Y-58612292D01*
X49379748Y-58626190D01*
X49380093Y-58632777D01*
X49380093Y-58632782D01*
X49383327Y-58694480D01*
X49383500Y-58701074D01*
X49383500Y-58721610D01*
X49383844Y-58724882D01*
X49383844Y-58724884D01*
X49385647Y-58742042D01*
X49386164Y-58748616D01*
X49387960Y-58782872D01*
X49389743Y-58816903D01*
X49391453Y-58823284D01*
X49391453Y-58823286D01*
X49393383Y-58830491D01*
X49396985Y-58849925D01*
X49397766Y-58857354D01*
X49397768Y-58857363D01*
X49398458Y-58863928D01*
X49419600Y-58928997D01*
X49421467Y-58935299D01*
X49439171Y-59001370D01*
X49442168Y-59007251D01*
X49445559Y-59013907D01*
X49453125Y-59032173D01*
X49457473Y-59045556D01*
X49460776Y-59051278D01*
X49460777Y-59051279D01*
X49491667Y-59104782D01*
X49494814Y-59110577D01*
X49525871Y-59171530D01*
X49530024Y-59176658D01*
X49530025Y-59176660D01*
X49534727Y-59182466D01*
X49545927Y-59198763D01*
X49549657Y-59205224D01*
X49549660Y-59205228D01*
X49552960Y-59210944D01*
X49557377Y-59215850D01*
X49557381Y-59215855D01*
X49598722Y-59261769D01*
X49603006Y-59266784D01*
X49615928Y-59282741D01*
X49630443Y-59297256D01*
X49634984Y-59302041D01*
X49680747Y-59352866D01*
X49686086Y-59356745D01*
X49686087Y-59356746D01*
X49692135Y-59361140D01*
X49707168Y-59373981D01*
X50442092Y-60108905D01*
X50476118Y-60171217D01*
X50471053Y-60242032D01*
X50442092Y-60287095D01*
X49961168Y-60768019D01*
X49946135Y-60780860D01*
X49934747Y-60789134D01*
X49930327Y-60794043D01*
X49888984Y-60839959D01*
X49884443Y-60844744D01*
X49869928Y-60859259D01*
X49867852Y-60861823D01*
X49857006Y-60875216D01*
X49852722Y-60880231D01*
X49811381Y-60926145D01*
X49811377Y-60926150D01*
X49806960Y-60931056D01*
X49803660Y-60936772D01*
X49803657Y-60936776D01*
X49799927Y-60943237D01*
X49788727Y-60959533D01*
X49779871Y-60970470D01*
X49761011Y-61007485D01*
X49748815Y-61031421D01*
X49745669Y-61037215D01*
X49711473Y-61096444D01*
X49709432Y-61102726D01*
X49709431Y-61102728D01*
X49707125Y-61109826D01*
X49699560Y-61128092D01*
X49693171Y-61140630D01*
X49691463Y-61147003D01*
X49691463Y-61147004D01*
X49675469Y-61206695D01*
X49673600Y-61213003D01*
X49652458Y-61278072D01*
X49651768Y-61284637D01*
X49651766Y-61284646D01*
X49650985Y-61292075D01*
X49647383Y-61311509D01*
X49645453Y-61318714D01*
X49643743Y-61325097D01*
X49643398Y-61331688D01*
X49643397Y-61331692D01*
X49640164Y-61393384D01*
X49639647Y-61399958D01*
X49637844Y-61417116D01*
X49637500Y-61420390D01*
X49637500Y-61440926D01*
X49637327Y-61447520D01*
X49635837Y-61475957D01*
X49633748Y-61515810D01*
X49634780Y-61522325D01*
X49635949Y-61529705D01*
X49637500Y-61549417D01*
X49637500Y-62656583D01*
X49635949Y-62676292D01*
X49633748Y-62690190D01*
X49634093Y-62696777D01*
X49634093Y-62696782D01*
X49637327Y-62758480D01*
X49637500Y-62765074D01*
X49637500Y-62785610D01*
X49637844Y-62788882D01*
X49637844Y-62788884D01*
X49639647Y-62806042D01*
X49640164Y-62812616D01*
X49640953Y-62827660D01*
X49643743Y-62880903D01*
X49645453Y-62887284D01*
X49645453Y-62887286D01*
X49647383Y-62894491D01*
X49650985Y-62913925D01*
X49651766Y-62921354D01*
X49651768Y-62921363D01*
X49652458Y-62927928D01*
X49673600Y-62992997D01*
X49675467Y-62999299D01*
X49693171Y-63065370D01*
X49697756Y-63074368D01*
X49699559Y-63077907D01*
X49707125Y-63096173D01*
X49711473Y-63109556D01*
X49714776Y-63115278D01*
X49714777Y-63115279D01*
X49745667Y-63168782D01*
X49748814Y-63174577D01*
X49779871Y-63235530D01*
X49784024Y-63240658D01*
X49784025Y-63240660D01*
X49788727Y-63246466D01*
X49799927Y-63262763D01*
X49803657Y-63269224D01*
X49803660Y-63269228D01*
X49806960Y-63274944D01*
X49811377Y-63279850D01*
X49811381Y-63279855D01*
X49852722Y-63325769D01*
X49857006Y-63330784D01*
X49858567Y-63332711D01*
X49869928Y-63346741D01*
X49884443Y-63361256D01*
X49888984Y-63366041D01*
X49934747Y-63416866D01*
X49940086Y-63420745D01*
X49940087Y-63420746D01*
X49946135Y-63425140D01*
X49961168Y-63437981D01*
X51116019Y-64592832D01*
X51128860Y-64607865D01*
X51137134Y-64619253D01*
X51179616Y-64657504D01*
X51187959Y-64665016D01*
X51192744Y-64669557D01*
X51207259Y-64684072D01*
X51209823Y-64686148D01*
X51223216Y-64696994D01*
X51228231Y-64701278D01*
X51274145Y-64742619D01*
X51274150Y-64742623D01*
X51279056Y-64747040D01*
X51284772Y-64750340D01*
X51284776Y-64750343D01*
X51291237Y-64754073D01*
X51307533Y-64765273D01*
X51318470Y-64774129D01*
X51379421Y-64805185D01*
X51385215Y-64808331D01*
X51444444Y-64842527D01*
X51450726Y-64844568D01*
X51450728Y-64844569D01*
X51457826Y-64846875D01*
X51476092Y-64854440D01*
X51488630Y-64860829D01*
X51495006Y-64862538D01*
X51495010Y-64862539D01*
X51554685Y-64878529D01*
X51561010Y-64880402D01*
X51626072Y-64901542D01*
X51632640Y-64902232D01*
X51632644Y-64902233D01*
X51640061Y-64903012D01*
X51659508Y-64906616D01*
X51673096Y-64910257D01*
X51679695Y-64910603D01*
X51679696Y-64910603D01*
X51741385Y-64913836D01*
X51747960Y-64914353D01*
X51762222Y-64915852D01*
X51768390Y-64916500D01*
X51788925Y-64916500D01*
X51795519Y-64916673D01*
X51857217Y-64919907D01*
X51857222Y-64919907D01*
X51863809Y-64920252D01*
X51877707Y-64918051D01*
X51897416Y-64916500D01*
X58245497Y-64916500D01*
X58313618Y-64936502D01*
X58334592Y-64953405D01*
X58655852Y-65274665D01*
X58689878Y-65336977D01*
X58684813Y-65407792D01*
X58642322Y-65464586D01*
X58615168Y-65484937D01*
X58578339Y-65512539D01*
X58490985Y-65629095D01*
X58487833Y-65637503D01*
X58446519Y-65747707D01*
X58403877Y-65804471D01*
X58337316Y-65829171D01*
X58267967Y-65813963D01*
X58235343Y-65788276D01*
X58184751Y-65732675D01*
X58184742Y-65732666D01*
X58181270Y-65728851D01*
X58177219Y-65725652D01*
X58177215Y-65725648D01*
X58010014Y-65593600D01*
X58010010Y-65593598D01*
X58005959Y-65590398D01*
X57810389Y-65482438D01*
X57805520Y-65480714D01*
X57805516Y-65480712D01*
X57604687Y-65409595D01*
X57604683Y-65409594D01*
X57599812Y-65407869D01*
X57594719Y-65406962D01*
X57594716Y-65406961D01*
X57384973Y-65369600D01*
X57384967Y-65369599D01*
X57379884Y-65368694D01*
X57306052Y-65367792D01*
X57161681Y-65366028D01*
X57161679Y-65366028D01*
X57156511Y-65365965D01*
X56935691Y-65399755D01*
X56723356Y-65469157D01*
X56525207Y-65572307D01*
X56521074Y-65575410D01*
X56521071Y-65575412D01*
X56350700Y-65703330D01*
X56346565Y-65706435D01*
X56307125Y-65747707D01*
X56252880Y-65804471D01*
X56192229Y-65867938D01*
X56084801Y-66025421D01*
X56029893Y-66070421D01*
X55959368Y-66078592D01*
X55895621Y-66047338D01*
X55874924Y-66022854D01*
X55794422Y-65898417D01*
X55794420Y-65898414D01*
X55791614Y-65894077D01*
X55641270Y-65728851D01*
X55637219Y-65725652D01*
X55637215Y-65725648D01*
X55470014Y-65593600D01*
X55470010Y-65593598D01*
X55465959Y-65590398D01*
X55270389Y-65482438D01*
X55265520Y-65480714D01*
X55265516Y-65480712D01*
X55064687Y-65409595D01*
X55064683Y-65409594D01*
X55059812Y-65407869D01*
X55054719Y-65406962D01*
X55054716Y-65406961D01*
X54844973Y-65369600D01*
X54844967Y-65369599D01*
X54839884Y-65368694D01*
X54766052Y-65367792D01*
X54621681Y-65366028D01*
X54621679Y-65366028D01*
X54616511Y-65365965D01*
X54395691Y-65399755D01*
X54183356Y-65469157D01*
X53985207Y-65572307D01*
X53981074Y-65575410D01*
X53981071Y-65575412D01*
X53810700Y-65703330D01*
X53806565Y-65706435D01*
X53767125Y-65747707D01*
X53712880Y-65804471D01*
X53652229Y-65867938D01*
X53526343Y-66052480D01*
X53432288Y-66255105D01*
X53372589Y-66470370D01*
X53348851Y-66692495D01*
X53361710Y-66915515D01*
X53362847Y-66920561D01*
X53362848Y-66920567D01*
X53386904Y-67027308D01*
X53410822Y-67133439D01*
X53494866Y-67340416D01*
X53532285Y-67401478D01*
X53608891Y-67526488D01*
X53611587Y-67530888D01*
X53757850Y-67699738D01*
X53929726Y-67842432D01*
X53930942Y-67843142D01*
X53974586Y-67897744D01*
X53981895Y-67968363D01*
X53949865Y-68031724D01*
X53888663Y-68067709D01*
X53857987Y-68071500D01*
X50164500Y-68071500D01*
X50096379Y-68051498D01*
X50049886Y-67997842D01*
X50038500Y-67945500D01*
X50038500Y-64778623D01*
X50038502Y-64777853D01*
X50038800Y-64729102D01*
X50038976Y-64700279D01*
X50030850Y-64671847D01*
X50027272Y-64655085D01*
X50024352Y-64634698D01*
X50023080Y-64625813D01*
X50017670Y-64613913D01*
X50012452Y-64602438D01*
X50006004Y-64584913D01*
X50001416Y-64568862D01*
X49998949Y-64560229D01*
X49994156Y-64552632D01*
X49983170Y-64535220D01*
X49975030Y-64520135D01*
X49974706Y-64519423D01*
X49962792Y-64493218D01*
X49946030Y-64473765D01*
X49934927Y-64458761D01*
X49921224Y-64437042D01*
X49914499Y-64431103D01*
X49914496Y-64431099D01*
X49899062Y-64417468D01*
X49887018Y-64405276D01*
X49873573Y-64389673D01*
X49873570Y-64389671D01*
X49867713Y-64382873D01*
X49854009Y-64373990D01*
X49846165Y-64368906D01*
X49831291Y-64357615D01*
X49818783Y-64346569D01*
X49818782Y-64346568D01*
X49812049Y-64340622D01*
X49785287Y-64328057D01*
X49770309Y-64319737D01*
X49753017Y-64308529D01*
X49753012Y-64308527D01*
X49745485Y-64303648D01*
X49736892Y-64301078D01*
X49736887Y-64301076D01*
X49720880Y-64296289D01*
X49703436Y-64289628D01*
X49688324Y-64282533D01*
X49688322Y-64282532D01*
X49680200Y-64278719D01*
X49671333Y-64277338D01*
X49671332Y-64277338D01*
X49660478Y-64275648D01*
X49650983Y-64274170D01*
X49634268Y-64270387D01*
X49614534Y-64264485D01*
X49614528Y-64264484D01*
X49605934Y-64261914D01*
X49596963Y-64261859D01*
X49596962Y-64261859D01*
X49586903Y-64261798D01*
X49571494Y-64261704D01*
X49570711Y-64261671D01*
X49569614Y-64261500D01*
X49538623Y-64261500D01*
X49537853Y-64261498D01*
X49464215Y-64261048D01*
X49464214Y-64261048D01*
X49460279Y-64261024D01*
X49458935Y-64261408D01*
X49457590Y-64261500D01*
X48894500Y-64261500D01*
X48826379Y-64241498D01*
X48779886Y-64187842D01*
X48768500Y-64135500D01*
X48768500Y-37092817D01*
X48788502Y-37024696D01*
X48805405Y-37003722D01*
X49703722Y-36105405D01*
X49766034Y-36071379D01*
X49792817Y-36068500D01*
X99051377Y-36068500D01*
X99052148Y-36068502D01*
X99129721Y-36068976D01*
X99158152Y-36060850D01*
X99174915Y-36057272D01*
X99204187Y-36053080D01*
X99227564Y-36042451D01*
X99245087Y-36036004D01*
X99269771Y-36028949D01*
X99277365Y-36024157D01*
X99277368Y-36024156D01*
X99294780Y-36013170D01*
X99309865Y-36005030D01*
X99336782Y-35992792D01*
X99356235Y-35976030D01*
X99371239Y-35964927D01*
X99392958Y-35951224D01*
X99398897Y-35944499D01*
X99398901Y-35944496D01*
X99412532Y-35929062D01*
X99424724Y-35917018D01*
X99440327Y-35903573D01*
X99440329Y-35903570D01*
X99447127Y-35897713D01*
X99461094Y-35876165D01*
X99472385Y-35861291D01*
X99483431Y-35848783D01*
X99483432Y-35848782D01*
X99489378Y-35842049D01*
X99501943Y-35815287D01*
X99510263Y-35800309D01*
X99521471Y-35783017D01*
X99521473Y-35783012D01*
X99526352Y-35775485D01*
X99528922Y-35766892D01*
X99528924Y-35766887D01*
X99533711Y-35750880D01*
X99540372Y-35733436D01*
X99547467Y-35718324D01*
X99547468Y-35718322D01*
X99551281Y-35710200D01*
X99555830Y-35680983D01*
X99559613Y-35664268D01*
X99565515Y-35644534D01*
X99565516Y-35644528D01*
X99568086Y-35635934D01*
X99568296Y-35601494D01*
X99568329Y-35600711D01*
X99568500Y-35599614D01*
X99568500Y-35568623D01*
X99568502Y-35567853D01*
X99568952Y-35494215D01*
X99568952Y-35494214D01*
X99568976Y-35490279D01*
X99568592Y-35488935D01*
X99568500Y-35487590D01*
X99568500Y-30791388D01*
X99588502Y-30723267D01*
X99642158Y-30676774D01*
X99712432Y-30666670D01*
X99777012Y-30696164D01*
X99814265Y-30752243D01*
X99864980Y-30907407D01*
X99973825Y-31116496D01*
X99976928Y-31120629D01*
X99976930Y-31120632D01*
X100112253Y-31300865D01*
X100115358Y-31305000D01*
X100285777Y-31467857D01*
X100480508Y-31600693D01*
X100485192Y-31602867D01*
X100485195Y-31602869D01*
X100689628Y-31697764D01*
X100689633Y-31697766D01*
X100694319Y-31699941D01*
X100921468Y-31762935D01*
X100926605Y-31763484D01*
X101110563Y-31783144D01*
X101110571Y-31783144D01*
X101113898Y-31783500D01*
X102448757Y-31783500D01*
X102451330Y-31783288D01*
X102451341Y-31783288D01*
X102618779Y-31769522D01*
X102618785Y-31769521D01*
X102623930Y-31769098D01*
X102852551Y-31711673D01*
X103068723Y-31617678D01*
X103266641Y-31489640D01*
X103290581Y-31467857D01*
X103437167Y-31334473D01*
X103437168Y-31334471D01*
X103440989Y-31330995D01*
X103444188Y-31326944D01*
X103444192Y-31326940D01*
X103583883Y-31150061D01*
X103583885Y-31150057D01*
X103587085Y-31146006D01*
X103701005Y-30939639D01*
X103710794Y-30911998D01*
X103777965Y-30722311D01*
X103777966Y-30722307D01*
X103779691Y-30717436D01*
X103783480Y-30696164D01*
X103820123Y-30490456D01*
X103820124Y-30490450D01*
X103821029Y-30485367D01*
X103823909Y-30249661D01*
X103788253Y-30016651D01*
X103715020Y-29792593D01*
X103606175Y-29583504D01*
X103587415Y-29558517D01*
X103467747Y-29399135D01*
X103467745Y-29399132D01*
X103464642Y-29395000D01*
X103294223Y-29232143D01*
X103099492Y-29099307D01*
X103094808Y-29097133D01*
X103094805Y-29097131D01*
X102890372Y-29002236D01*
X102890367Y-29002234D01*
X102885681Y-29000059D01*
X102658532Y-28937065D01*
X102653395Y-28936516D01*
X102469437Y-28916856D01*
X102469429Y-28916856D01*
X102466102Y-28916500D01*
X101131243Y-28916500D01*
X101128670Y-28916712D01*
X101128659Y-28916712D01*
X100961221Y-28930478D01*
X100961215Y-28930479D01*
X100956070Y-28930902D01*
X100727449Y-28988327D01*
X100511277Y-29082322D01*
X100313359Y-29210360D01*
X100309536Y-29213839D01*
X100309533Y-29213841D01*
X100285495Y-29235714D01*
X100139011Y-29369005D01*
X100135812Y-29373056D01*
X100135808Y-29373060D01*
X99996117Y-29549939D01*
X99992915Y-29553994D01*
X99878995Y-29760361D01*
X99877271Y-29765230D01*
X99877269Y-29765234D01*
X99813273Y-29945955D01*
X99771679Y-30003491D01*
X99705581Y-30029407D01*
X99635965Y-30015473D01*
X99584934Y-29966114D01*
X99568500Y-29903895D01*
X99568500Y-28202817D01*
X99588502Y-28134696D01*
X99605405Y-28113722D01*
X101773723Y-25945405D01*
X101836035Y-25911379D01*
X101862818Y-25908500D01*
X114037183Y-25908500D01*
X114105304Y-25928502D01*
G37*
G04 #@! TD.AperFunction*
M02*
