G04 #@! TF.GenerationSoftware,KiCad,Pcbnew,(5.1.4-0)*
G04 #@! TF.CreationDate,2019-12-29T13:39:11-05:00*
G04 #@! TF.ProjectId,eye_driver,6579655f-6472-4697-9665-722e6b696361,rev?*
G04 #@! TF.SameCoordinates,Original*
G04 #@! TF.FileFunction,Paste,Top*
G04 #@! TF.FilePolarity,Positive*
%FSLAX46Y46*%
G04 Gerber Fmt 4.6, Leading zero omitted, Abs format (unit mm)*
G04 Created by KiCad (PCBNEW (5.1.4-0)) date 2019-12-29 13:39:11*
%MOMM*%
%LPD*%
G04 APERTURE LIST*
%ADD10C,0.100000*%
%ADD11R,1.600000X2.000000*%
%ADD12C,0.975000*%
%ADD13C,1.250000*%
%ADD14R,0.800000X0.900000*%
%ADD15R,0.900000X0.800000*%
%ADD16R,1.990000X0.630000*%
%ADD17R,6.000000X9.600000*%
G04 APERTURE END LIST*
D10*
G36*
X114058840Y-81422000D02*
G01*
X110258000Y-81422000D01*
X110258000Y-75420670D01*
X114058840Y-75420670D01*
X114058840Y-81422000D01*
G37*
G36*
X180541160Y-76258000D02*
G01*
X184342000Y-76258000D01*
X184342000Y-82259330D01*
X180541160Y-82259330D01*
X180541160Y-76258000D01*
G37*
G36*
X113968840Y-137606000D02*
G01*
X110168000Y-137606000D01*
X110168000Y-131604670D01*
X113968840Y-131604670D01*
X113968840Y-137606000D01*
G37*
G36*
X180979160Y-131556000D02*
G01*
X184780000Y-131556000D01*
X184780000Y-137557330D01*
X180979160Y-137557330D01*
X180979160Y-131556000D01*
G37*
D11*
X187876000Y-124422000D03*
X190076000Y-124422000D03*
X190076000Y-121322000D03*
X187876000Y-121322000D03*
X104056000Y-124422000D03*
X106256000Y-124422000D03*
X106256000Y-121322000D03*
X104056000Y-121322000D03*
X104056000Y-92546000D03*
X106256000Y-92546000D03*
X106256000Y-89446000D03*
X104056000Y-89446000D03*
X187876000Y-92546000D03*
X190076000Y-92546000D03*
X190076000Y-89446000D03*
X187876000Y-89446000D03*
D10*
G36*
X184242142Y-91821174D02*
G01*
X184265803Y-91824684D01*
X184289007Y-91830496D01*
X184311529Y-91838554D01*
X184333153Y-91848782D01*
X184353670Y-91861079D01*
X184372883Y-91875329D01*
X184390607Y-91891393D01*
X184406671Y-91909117D01*
X184420921Y-91928330D01*
X184433218Y-91948847D01*
X184443446Y-91970471D01*
X184451504Y-91992993D01*
X184457316Y-92016197D01*
X184460826Y-92039858D01*
X184462000Y-92063750D01*
X184462000Y-92976250D01*
X184460826Y-93000142D01*
X184457316Y-93023803D01*
X184451504Y-93047007D01*
X184443446Y-93069529D01*
X184433218Y-93091153D01*
X184420921Y-93111670D01*
X184406671Y-93130883D01*
X184390607Y-93148607D01*
X184372883Y-93164671D01*
X184353670Y-93178921D01*
X184333153Y-93191218D01*
X184311529Y-93201446D01*
X184289007Y-93209504D01*
X184265803Y-93215316D01*
X184242142Y-93218826D01*
X184218250Y-93220000D01*
X183730750Y-93220000D01*
X183706858Y-93218826D01*
X183683197Y-93215316D01*
X183659993Y-93209504D01*
X183637471Y-93201446D01*
X183615847Y-93191218D01*
X183595330Y-93178921D01*
X183576117Y-93164671D01*
X183558393Y-93148607D01*
X183542329Y-93130883D01*
X183528079Y-93111670D01*
X183515782Y-93091153D01*
X183505554Y-93069529D01*
X183497496Y-93047007D01*
X183491684Y-93023803D01*
X183488174Y-93000142D01*
X183487000Y-92976250D01*
X183487000Y-92063750D01*
X183488174Y-92039858D01*
X183491684Y-92016197D01*
X183497496Y-91992993D01*
X183505554Y-91970471D01*
X183515782Y-91948847D01*
X183528079Y-91928330D01*
X183542329Y-91909117D01*
X183558393Y-91891393D01*
X183576117Y-91875329D01*
X183595330Y-91861079D01*
X183615847Y-91848782D01*
X183637471Y-91838554D01*
X183659993Y-91830496D01*
X183683197Y-91824684D01*
X183706858Y-91821174D01*
X183730750Y-91820000D01*
X184218250Y-91820000D01*
X184242142Y-91821174D01*
X184242142Y-91821174D01*
G37*
D12*
X183974500Y-92520000D03*
D10*
G36*
X186117142Y-91821174D02*
G01*
X186140803Y-91824684D01*
X186164007Y-91830496D01*
X186186529Y-91838554D01*
X186208153Y-91848782D01*
X186228670Y-91861079D01*
X186247883Y-91875329D01*
X186265607Y-91891393D01*
X186281671Y-91909117D01*
X186295921Y-91928330D01*
X186308218Y-91948847D01*
X186318446Y-91970471D01*
X186326504Y-91992993D01*
X186332316Y-92016197D01*
X186335826Y-92039858D01*
X186337000Y-92063750D01*
X186337000Y-92976250D01*
X186335826Y-93000142D01*
X186332316Y-93023803D01*
X186326504Y-93047007D01*
X186318446Y-93069529D01*
X186308218Y-93091153D01*
X186295921Y-93111670D01*
X186281671Y-93130883D01*
X186265607Y-93148607D01*
X186247883Y-93164671D01*
X186228670Y-93178921D01*
X186208153Y-93191218D01*
X186186529Y-93201446D01*
X186164007Y-93209504D01*
X186140803Y-93215316D01*
X186117142Y-93218826D01*
X186093250Y-93220000D01*
X185605750Y-93220000D01*
X185581858Y-93218826D01*
X185558197Y-93215316D01*
X185534993Y-93209504D01*
X185512471Y-93201446D01*
X185490847Y-93191218D01*
X185470330Y-93178921D01*
X185451117Y-93164671D01*
X185433393Y-93148607D01*
X185417329Y-93130883D01*
X185403079Y-93111670D01*
X185390782Y-93091153D01*
X185380554Y-93069529D01*
X185372496Y-93047007D01*
X185366684Y-93023803D01*
X185363174Y-93000142D01*
X185362000Y-92976250D01*
X185362000Y-92063750D01*
X185363174Y-92039858D01*
X185366684Y-92016197D01*
X185372496Y-91992993D01*
X185380554Y-91970471D01*
X185390782Y-91948847D01*
X185403079Y-91928330D01*
X185417329Y-91909117D01*
X185433393Y-91891393D01*
X185451117Y-91875329D01*
X185470330Y-91861079D01*
X185490847Y-91848782D01*
X185512471Y-91838554D01*
X185534993Y-91830496D01*
X185558197Y-91824684D01*
X185581858Y-91821174D01*
X185605750Y-91820000D01*
X186093250Y-91820000D01*
X186117142Y-91821174D01*
X186117142Y-91821174D01*
G37*
D12*
X185849500Y-92520000D03*
D10*
G36*
X199651504Y-74432204D02*
G01*
X199675773Y-74435804D01*
X199699571Y-74441765D01*
X199722671Y-74450030D01*
X199744849Y-74460520D01*
X199765893Y-74473133D01*
X199785598Y-74487747D01*
X199803777Y-74504223D01*
X199820253Y-74522402D01*
X199834867Y-74542107D01*
X199847480Y-74563151D01*
X199857970Y-74585329D01*
X199866235Y-74608429D01*
X199872196Y-74632227D01*
X199875796Y-74656496D01*
X199877000Y-74681000D01*
X199877000Y-76831000D01*
X199875796Y-76855504D01*
X199872196Y-76879773D01*
X199866235Y-76903571D01*
X199857970Y-76926671D01*
X199847480Y-76948849D01*
X199834867Y-76969893D01*
X199820253Y-76989598D01*
X199803777Y-77007777D01*
X199785598Y-77024253D01*
X199765893Y-77038867D01*
X199744849Y-77051480D01*
X199722671Y-77061970D01*
X199699571Y-77070235D01*
X199675773Y-77076196D01*
X199651504Y-77079796D01*
X199627000Y-77081000D01*
X198877000Y-77081000D01*
X198852496Y-77079796D01*
X198828227Y-77076196D01*
X198804429Y-77070235D01*
X198781329Y-77061970D01*
X198759151Y-77051480D01*
X198738107Y-77038867D01*
X198718402Y-77024253D01*
X198700223Y-77007777D01*
X198683747Y-76989598D01*
X198669133Y-76969893D01*
X198656520Y-76948849D01*
X198646030Y-76926671D01*
X198637765Y-76903571D01*
X198631804Y-76879773D01*
X198628204Y-76855504D01*
X198627000Y-76831000D01*
X198627000Y-74681000D01*
X198628204Y-74656496D01*
X198631804Y-74632227D01*
X198637765Y-74608429D01*
X198646030Y-74585329D01*
X198656520Y-74563151D01*
X198669133Y-74542107D01*
X198683747Y-74522402D01*
X198700223Y-74504223D01*
X198718402Y-74487747D01*
X198738107Y-74473133D01*
X198759151Y-74460520D01*
X198781329Y-74450030D01*
X198804429Y-74441765D01*
X198828227Y-74435804D01*
X198852496Y-74432204D01*
X198877000Y-74431000D01*
X199627000Y-74431000D01*
X199651504Y-74432204D01*
X199651504Y-74432204D01*
G37*
D13*
X199252000Y-75756000D03*
D10*
G36*
X196851504Y-74432204D02*
G01*
X196875773Y-74435804D01*
X196899571Y-74441765D01*
X196922671Y-74450030D01*
X196944849Y-74460520D01*
X196965893Y-74473133D01*
X196985598Y-74487747D01*
X197003777Y-74504223D01*
X197020253Y-74522402D01*
X197034867Y-74542107D01*
X197047480Y-74563151D01*
X197057970Y-74585329D01*
X197066235Y-74608429D01*
X197072196Y-74632227D01*
X197075796Y-74656496D01*
X197077000Y-74681000D01*
X197077000Y-76831000D01*
X197075796Y-76855504D01*
X197072196Y-76879773D01*
X197066235Y-76903571D01*
X197057970Y-76926671D01*
X197047480Y-76948849D01*
X197034867Y-76969893D01*
X197020253Y-76989598D01*
X197003777Y-77007777D01*
X196985598Y-77024253D01*
X196965893Y-77038867D01*
X196944849Y-77051480D01*
X196922671Y-77061970D01*
X196899571Y-77070235D01*
X196875773Y-77076196D01*
X196851504Y-77079796D01*
X196827000Y-77081000D01*
X196077000Y-77081000D01*
X196052496Y-77079796D01*
X196028227Y-77076196D01*
X196004429Y-77070235D01*
X195981329Y-77061970D01*
X195959151Y-77051480D01*
X195938107Y-77038867D01*
X195918402Y-77024253D01*
X195900223Y-77007777D01*
X195883747Y-76989598D01*
X195869133Y-76969893D01*
X195856520Y-76948849D01*
X195846030Y-76926671D01*
X195837765Y-76903571D01*
X195831804Y-76879773D01*
X195828204Y-76855504D01*
X195827000Y-76831000D01*
X195827000Y-74681000D01*
X195828204Y-74656496D01*
X195831804Y-74632227D01*
X195837765Y-74608429D01*
X195846030Y-74585329D01*
X195856520Y-74563151D01*
X195869133Y-74542107D01*
X195883747Y-74522402D01*
X195900223Y-74504223D01*
X195918402Y-74487747D01*
X195938107Y-74473133D01*
X195959151Y-74460520D01*
X195981329Y-74450030D01*
X196004429Y-74441765D01*
X196028227Y-74435804D01*
X196052496Y-74432204D01*
X196077000Y-74431000D01*
X196827000Y-74431000D01*
X196851504Y-74432204D01*
X196851504Y-74432204D01*
G37*
D13*
X196452000Y-75756000D03*
D10*
G36*
X183226142Y-123697174D02*
G01*
X183249803Y-123700684D01*
X183273007Y-123706496D01*
X183295529Y-123714554D01*
X183317153Y-123724782D01*
X183337670Y-123737079D01*
X183356883Y-123751329D01*
X183374607Y-123767393D01*
X183390671Y-123785117D01*
X183404921Y-123804330D01*
X183417218Y-123824847D01*
X183427446Y-123846471D01*
X183435504Y-123868993D01*
X183441316Y-123892197D01*
X183444826Y-123915858D01*
X183446000Y-123939750D01*
X183446000Y-124852250D01*
X183444826Y-124876142D01*
X183441316Y-124899803D01*
X183435504Y-124923007D01*
X183427446Y-124945529D01*
X183417218Y-124967153D01*
X183404921Y-124987670D01*
X183390671Y-125006883D01*
X183374607Y-125024607D01*
X183356883Y-125040671D01*
X183337670Y-125054921D01*
X183317153Y-125067218D01*
X183295529Y-125077446D01*
X183273007Y-125085504D01*
X183249803Y-125091316D01*
X183226142Y-125094826D01*
X183202250Y-125096000D01*
X182714750Y-125096000D01*
X182690858Y-125094826D01*
X182667197Y-125091316D01*
X182643993Y-125085504D01*
X182621471Y-125077446D01*
X182599847Y-125067218D01*
X182579330Y-125054921D01*
X182560117Y-125040671D01*
X182542393Y-125024607D01*
X182526329Y-125006883D01*
X182512079Y-124987670D01*
X182499782Y-124967153D01*
X182489554Y-124945529D01*
X182481496Y-124923007D01*
X182475684Y-124899803D01*
X182472174Y-124876142D01*
X182471000Y-124852250D01*
X182471000Y-123939750D01*
X182472174Y-123915858D01*
X182475684Y-123892197D01*
X182481496Y-123868993D01*
X182489554Y-123846471D01*
X182499782Y-123824847D01*
X182512079Y-123804330D01*
X182526329Y-123785117D01*
X182542393Y-123767393D01*
X182560117Y-123751329D01*
X182579330Y-123737079D01*
X182599847Y-123724782D01*
X182621471Y-123714554D01*
X182643993Y-123706496D01*
X182667197Y-123700684D01*
X182690858Y-123697174D01*
X182714750Y-123696000D01*
X183202250Y-123696000D01*
X183226142Y-123697174D01*
X183226142Y-123697174D01*
G37*
D12*
X182958500Y-124396000D03*
D10*
G36*
X185101142Y-123697174D02*
G01*
X185124803Y-123700684D01*
X185148007Y-123706496D01*
X185170529Y-123714554D01*
X185192153Y-123724782D01*
X185212670Y-123737079D01*
X185231883Y-123751329D01*
X185249607Y-123767393D01*
X185265671Y-123785117D01*
X185279921Y-123804330D01*
X185292218Y-123824847D01*
X185302446Y-123846471D01*
X185310504Y-123868993D01*
X185316316Y-123892197D01*
X185319826Y-123915858D01*
X185321000Y-123939750D01*
X185321000Y-124852250D01*
X185319826Y-124876142D01*
X185316316Y-124899803D01*
X185310504Y-124923007D01*
X185302446Y-124945529D01*
X185292218Y-124967153D01*
X185279921Y-124987670D01*
X185265671Y-125006883D01*
X185249607Y-125024607D01*
X185231883Y-125040671D01*
X185212670Y-125054921D01*
X185192153Y-125067218D01*
X185170529Y-125077446D01*
X185148007Y-125085504D01*
X185124803Y-125091316D01*
X185101142Y-125094826D01*
X185077250Y-125096000D01*
X184589750Y-125096000D01*
X184565858Y-125094826D01*
X184542197Y-125091316D01*
X184518993Y-125085504D01*
X184496471Y-125077446D01*
X184474847Y-125067218D01*
X184454330Y-125054921D01*
X184435117Y-125040671D01*
X184417393Y-125024607D01*
X184401329Y-125006883D01*
X184387079Y-124987670D01*
X184374782Y-124967153D01*
X184364554Y-124945529D01*
X184356496Y-124923007D01*
X184350684Y-124899803D01*
X184347174Y-124876142D01*
X184346000Y-124852250D01*
X184346000Y-123939750D01*
X184347174Y-123915858D01*
X184350684Y-123892197D01*
X184356496Y-123868993D01*
X184364554Y-123846471D01*
X184374782Y-123824847D01*
X184387079Y-123804330D01*
X184401329Y-123785117D01*
X184417393Y-123767393D01*
X184435117Y-123751329D01*
X184454330Y-123737079D01*
X184474847Y-123724782D01*
X184496471Y-123714554D01*
X184518993Y-123706496D01*
X184542197Y-123700684D01*
X184565858Y-123697174D01*
X184589750Y-123696000D01*
X185077250Y-123696000D01*
X185101142Y-123697174D01*
X185101142Y-123697174D01*
G37*
D12*
X184833500Y-124396000D03*
D10*
G36*
X185101142Y-120395174D02*
G01*
X185124803Y-120398684D01*
X185148007Y-120404496D01*
X185170529Y-120412554D01*
X185192153Y-120422782D01*
X185212670Y-120435079D01*
X185231883Y-120449329D01*
X185249607Y-120465393D01*
X185265671Y-120483117D01*
X185279921Y-120502330D01*
X185292218Y-120522847D01*
X185302446Y-120544471D01*
X185310504Y-120566993D01*
X185316316Y-120590197D01*
X185319826Y-120613858D01*
X185321000Y-120637750D01*
X185321000Y-121550250D01*
X185319826Y-121574142D01*
X185316316Y-121597803D01*
X185310504Y-121621007D01*
X185302446Y-121643529D01*
X185292218Y-121665153D01*
X185279921Y-121685670D01*
X185265671Y-121704883D01*
X185249607Y-121722607D01*
X185231883Y-121738671D01*
X185212670Y-121752921D01*
X185192153Y-121765218D01*
X185170529Y-121775446D01*
X185148007Y-121783504D01*
X185124803Y-121789316D01*
X185101142Y-121792826D01*
X185077250Y-121794000D01*
X184589750Y-121794000D01*
X184565858Y-121792826D01*
X184542197Y-121789316D01*
X184518993Y-121783504D01*
X184496471Y-121775446D01*
X184474847Y-121765218D01*
X184454330Y-121752921D01*
X184435117Y-121738671D01*
X184417393Y-121722607D01*
X184401329Y-121704883D01*
X184387079Y-121685670D01*
X184374782Y-121665153D01*
X184364554Y-121643529D01*
X184356496Y-121621007D01*
X184350684Y-121597803D01*
X184347174Y-121574142D01*
X184346000Y-121550250D01*
X184346000Y-120637750D01*
X184347174Y-120613858D01*
X184350684Y-120590197D01*
X184356496Y-120566993D01*
X184364554Y-120544471D01*
X184374782Y-120522847D01*
X184387079Y-120502330D01*
X184401329Y-120483117D01*
X184417393Y-120465393D01*
X184435117Y-120449329D01*
X184454330Y-120435079D01*
X184474847Y-120422782D01*
X184496471Y-120412554D01*
X184518993Y-120404496D01*
X184542197Y-120398684D01*
X184565858Y-120395174D01*
X184589750Y-120394000D01*
X185077250Y-120394000D01*
X185101142Y-120395174D01*
X185101142Y-120395174D01*
G37*
D12*
X184833500Y-121094000D03*
D10*
G36*
X183226142Y-120395174D02*
G01*
X183249803Y-120398684D01*
X183273007Y-120404496D01*
X183295529Y-120412554D01*
X183317153Y-120422782D01*
X183337670Y-120435079D01*
X183356883Y-120449329D01*
X183374607Y-120465393D01*
X183390671Y-120483117D01*
X183404921Y-120502330D01*
X183417218Y-120522847D01*
X183427446Y-120544471D01*
X183435504Y-120566993D01*
X183441316Y-120590197D01*
X183444826Y-120613858D01*
X183446000Y-120637750D01*
X183446000Y-121550250D01*
X183444826Y-121574142D01*
X183441316Y-121597803D01*
X183435504Y-121621007D01*
X183427446Y-121643529D01*
X183417218Y-121665153D01*
X183404921Y-121685670D01*
X183390671Y-121704883D01*
X183374607Y-121722607D01*
X183356883Y-121738671D01*
X183337670Y-121752921D01*
X183317153Y-121765218D01*
X183295529Y-121775446D01*
X183273007Y-121783504D01*
X183249803Y-121789316D01*
X183226142Y-121792826D01*
X183202250Y-121794000D01*
X182714750Y-121794000D01*
X182690858Y-121792826D01*
X182667197Y-121789316D01*
X182643993Y-121783504D01*
X182621471Y-121775446D01*
X182599847Y-121765218D01*
X182579330Y-121752921D01*
X182560117Y-121738671D01*
X182542393Y-121722607D01*
X182526329Y-121704883D01*
X182512079Y-121685670D01*
X182499782Y-121665153D01*
X182489554Y-121643529D01*
X182481496Y-121621007D01*
X182475684Y-121597803D01*
X182472174Y-121574142D01*
X182471000Y-121550250D01*
X182471000Y-120637750D01*
X182472174Y-120613858D01*
X182475684Y-120590197D01*
X182481496Y-120566993D01*
X182489554Y-120544471D01*
X182499782Y-120522847D01*
X182512079Y-120502330D01*
X182526329Y-120483117D01*
X182542393Y-120465393D01*
X182560117Y-120449329D01*
X182579330Y-120435079D01*
X182599847Y-120422782D01*
X182621471Y-120412554D01*
X182643993Y-120404496D01*
X182667197Y-120398684D01*
X182690858Y-120395174D01*
X182714750Y-120394000D01*
X183202250Y-120394000D01*
X183226142Y-120395174D01*
X183226142Y-120395174D01*
G37*
D12*
X182958500Y-121094000D03*
D10*
G36*
X110933142Y-123951174D02*
G01*
X110956803Y-123954684D01*
X110980007Y-123960496D01*
X111002529Y-123968554D01*
X111024153Y-123978782D01*
X111044670Y-123991079D01*
X111063883Y-124005329D01*
X111081607Y-124021393D01*
X111097671Y-124039117D01*
X111111921Y-124058330D01*
X111124218Y-124078847D01*
X111134446Y-124100471D01*
X111142504Y-124122993D01*
X111148316Y-124146197D01*
X111151826Y-124169858D01*
X111153000Y-124193750D01*
X111153000Y-125106250D01*
X111151826Y-125130142D01*
X111148316Y-125153803D01*
X111142504Y-125177007D01*
X111134446Y-125199529D01*
X111124218Y-125221153D01*
X111111921Y-125241670D01*
X111097671Y-125260883D01*
X111081607Y-125278607D01*
X111063883Y-125294671D01*
X111044670Y-125308921D01*
X111024153Y-125321218D01*
X111002529Y-125331446D01*
X110980007Y-125339504D01*
X110956803Y-125345316D01*
X110933142Y-125348826D01*
X110909250Y-125350000D01*
X110421750Y-125350000D01*
X110397858Y-125348826D01*
X110374197Y-125345316D01*
X110350993Y-125339504D01*
X110328471Y-125331446D01*
X110306847Y-125321218D01*
X110286330Y-125308921D01*
X110267117Y-125294671D01*
X110249393Y-125278607D01*
X110233329Y-125260883D01*
X110219079Y-125241670D01*
X110206782Y-125221153D01*
X110196554Y-125199529D01*
X110188496Y-125177007D01*
X110182684Y-125153803D01*
X110179174Y-125130142D01*
X110178000Y-125106250D01*
X110178000Y-124193750D01*
X110179174Y-124169858D01*
X110182684Y-124146197D01*
X110188496Y-124122993D01*
X110196554Y-124100471D01*
X110206782Y-124078847D01*
X110219079Y-124058330D01*
X110233329Y-124039117D01*
X110249393Y-124021393D01*
X110267117Y-124005329D01*
X110286330Y-123991079D01*
X110306847Y-123978782D01*
X110328471Y-123968554D01*
X110350993Y-123960496D01*
X110374197Y-123954684D01*
X110397858Y-123951174D01*
X110421750Y-123950000D01*
X110909250Y-123950000D01*
X110933142Y-123951174D01*
X110933142Y-123951174D01*
G37*
D12*
X110665500Y-124650000D03*
D10*
G36*
X109058142Y-123951174D02*
G01*
X109081803Y-123954684D01*
X109105007Y-123960496D01*
X109127529Y-123968554D01*
X109149153Y-123978782D01*
X109169670Y-123991079D01*
X109188883Y-124005329D01*
X109206607Y-124021393D01*
X109222671Y-124039117D01*
X109236921Y-124058330D01*
X109249218Y-124078847D01*
X109259446Y-124100471D01*
X109267504Y-124122993D01*
X109273316Y-124146197D01*
X109276826Y-124169858D01*
X109278000Y-124193750D01*
X109278000Y-125106250D01*
X109276826Y-125130142D01*
X109273316Y-125153803D01*
X109267504Y-125177007D01*
X109259446Y-125199529D01*
X109249218Y-125221153D01*
X109236921Y-125241670D01*
X109222671Y-125260883D01*
X109206607Y-125278607D01*
X109188883Y-125294671D01*
X109169670Y-125308921D01*
X109149153Y-125321218D01*
X109127529Y-125331446D01*
X109105007Y-125339504D01*
X109081803Y-125345316D01*
X109058142Y-125348826D01*
X109034250Y-125350000D01*
X108546750Y-125350000D01*
X108522858Y-125348826D01*
X108499197Y-125345316D01*
X108475993Y-125339504D01*
X108453471Y-125331446D01*
X108431847Y-125321218D01*
X108411330Y-125308921D01*
X108392117Y-125294671D01*
X108374393Y-125278607D01*
X108358329Y-125260883D01*
X108344079Y-125241670D01*
X108331782Y-125221153D01*
X108321554Y-125199529D01*
X108313496Y-125177007D01*
X108307684Y-125153803D01*
X108304174Y-125130142D01*
X108303000Y-125106250D01*
X108303000Y-124193750D01*
X108304174Y-124169858D01*
X108307684Y-124146197D01*
X108313496Y-124122993D01*
X108321554Y-124100471D01*
X108331782Y-124078847D01*
X108344079Y-124058330D01*
X108358329Y-124039117D01*
X108374393Y-124021393D01*
X108392117Y-124005329D01*
X108411330Y-123991079D01*
X108431847Y-123978782D01*
X108453471Y-123968554D01*
X108475993Y-123960496D01*
X108499197Y-123954684D01*
X108522858Y-123951174D01*
X108546750Y-123950000D01*
X109034250Y-123950000D01*
X109058142Y-123951174D01*
X109058142Y-123951174D01*
G37*
D12*
X108790500Y-124650000D03*
D10*
G36*
X101789142Y-120141174D02*
G01*
X101812803Y-120144684D01*
X101836007Y-120150496D01*
X101858529Y-120158554D01*
X101880153Y-120168782D01*
X101900670Y-120181079D01*
X101919883Y-120195329D01*
X101937607Y-120211393D01*
X101953671Y-120229117D01*
X101967921Y-120248330D01*
X101980218Y-120268847D01*
X101990446Y-120290471D01*
X101998504Y-120312993D01*
X102004316Y-120336197D01*
X102007826Y-120359858D01*
X102009000Y-120383750D01*
X102009000Y-121296250D01*
X102007826Y-121320142D01*
X102004316Y-121343803D01*
X101998504Y-121367007D01*
X101990446Y-121389529D01*
X101980218Y-121411153D01*
X101967921Y-121431670D01*
X101953671Y-121450883D01*
X101937607Y-121468607D01*
X101919883Y-121484671D01*
X101900670Y-121498921D01*
X101880153Y-121511218D01*
X101858529Y-121521446D01*
X101836007Y-121529504D01*
X101812803Y-121535316D01*
X101789142Y-121538826D01*
X101765250Y-121540000D01*
X101277750Y-121540000D01*
X101253858Y-121538826D01*
X101230197Y-121535316D01*
X101206993Y-121529504D01*
X101184471Y-121521446D01*
X101162847Y-121511218D01*
X101142330Y-121498921D01*
X101123117Y-121484671D01*
X101105393Y-121468607D01*
X101089329Y-121450883D01*
X101075079Y-121431670D01*
X101062782Y-121411153D01*
X101052554Y-121389529D01*
X101044496Y-121367007D01*
X101038684Y-121343803D01*
X101035174Y-121320142D01*
X101034000Y-121296250D01*
X101034000Y-120383750D01*
X101035174Y-120359858D01*
X101038684Y-120336197D01*
X101044496Y-120312993D01*
X101052554Y-120290471D01*
X101062782Y-120268847D01*
X101075079Y-120248330D01*
X101089329Y-120229117D01*
X101105393Y-120211393D01*
X101123117Y-120195329D01*
X101142330Y-120181079D01*
X101162847Y-120168782D01*
X101184471Y-120158554D01*
X101206993Y-120150496D01*
X101230197Y-120144684D01*
X101253858Y-120141174D01*
X101277750Y-120140000D01*
X101765250Y-120140000D01*
X101789142Y-120141174D01*
X101789142Y-120141174D01*
G37*
D12*
X101521500Y-120840000D03*
D10*
G36*
X99914142Y-120141174D02*
G01*
X99937803Y-120144684D01*
X99961007Y-120150496D01*
X99983529Y-120158554D01*
X100005153Y-120168782D01*
X100025670Y-120181079D01*
X100044883Y-120195329D01*
X100062607Y-120211393D01*
X100078671Y-120229117D01*
X100092921Y-120248330D01*
X100105218Y-120268847D01*
X100115446Y-120290471D01*
X100123504Y-120312993D01*
X100129316Y-120336197D01*
X100132826Y-120359858D01*
X100134000Y-120383750D01*
X100134000Y-121296250D01*
X100132826Y-121320142D01*
X100129316Y-121343803D01*
X100123504Y-121367007D01*
X100115446Y-121389529D01*
X100105218Y-121411153D01*
X100092921Y-121431670D01*
X100078671Y-121450883D01*
X100062607Y-121468607D01*
X100044883Y-121484671D01*
X100025670Y-121498921D01*
X100005153Y-121511218D01*
X99983529Y-121521446D01*
X99961007Y-121529504D01*
X99937803Y-121535316D01*
X99914142Y-121538826D01*
X99890250Y-121540000D01*
X99402750Y-121540000D01*
X99378858Y-121538826D01*
X99355197Y-121535316D01*
X99331993Y-121529504D01*
X99309471Y-121521446D01*
X99287847Y-121511218D01*
X99267330Y-121498921D01*
X99248117Y-121484671D01*
X99230393Y-121468607D01*
X99214329Y-121450883D01*
X99200079Y-121431670D01*
X99187782Y-121411153D01*
X99177554Y-121389529D01*
X99169496Y-121367007D01*
X99163684Y-121343803D01*
X99160174Y-121320142D01*
X99159000Y-121296250D01*
X99159000Y-120383750D01*
X99160174Y-120359858D01*
X99163684Y-120336197D01*
X99169496Y-120312993D01*
X99177554Y-120290471D01*
X99187782Y-120268847D01*
X99200079Y-120248330D01*
X99214329Y-120229117D01*
X99230393Y-120211393D01*
X99248117Y-120195329D01*
X99267330Y-120181079D01*
X99287847Y-120168782D01*
X99309471Y-120158554D01*
X99331993Y-120150496D01*
X99355197Y-120144684D01*
X99378858Y-120141174D01*
X99402750Y-120140000D01*
X99890250Y-120140000D01*
X99914142Y-120141174D01*
X99914142Y-120141174D01*
G37*
D12*
X99646500Y-120840000D03*
D10*
G36*
X186038642Y-88773174D02*
G01*
X186062303Y-88776684D01*
X186085507Y-88782496D01*
X186108029Y-88790554D01*
X186129653Y-88800782D01*
X186150170Y-88813079D01*
X186169383Y-88827329D01*
X186187107Y-88843393D01*
X186203171Y-88861117D01*
X186217421Y-88880330D01*
X186229718Y-88900847D01*
X186239946Y-88922471D01*
X186248004Y-88944993D01*
X186253816Y-88968197D01*
X186257326Y-88991858D01*
X186258500Y-89015750D01*
X186258500Y-89928250D01*
X186257326Y-89952142D01*
X186253816Y-89975803D01*
X186248004Y-89999007D01*
X186239946Y-90021529D01*
X186229718Y-90043153D01*
X186217421Y-90063670D01*
X186203171Y-90082883D01*
X186187107Y-90100607D01*
X186169383Y-90116671D01*
X186150170Y-90130921D01*
X186129653Y-90143218D01*
X186108029Y-90153446D01*
X186085507Y-90161504D01*
X186062303Y-90167316D01*
X186038642Y-90170826D01*
X186014750Y-90172000D01*
X185527250Y-90172000D01*
X185503358Y-90170826D01*
X185479697Y-90167316D01*
X185456493Y-90161504D01*
X185433971Y-90153446D01*
X185412347Y-90143218D01*
X185391830Y-90130921D01*
X185372617Y-90116671D01*
X185354893Y-90100607D01*
X185338829Y-90082883D01*
X185324579Y-90063670D01*
X185312282Y-90043153D01*
X185302054Y-90021529D01*
X185293996Y-89999007D01*
X185288184Y-89975803D01*
X185284674Y-89952142D01*
X185283500Y-89928250D01*
X185283500Y-89015750D01*
X185284674Y-88991858D01*
X185288184Y-88968197D01*
X185293996Y-88944993D01*
X185302054Y-88922471D01*
X185312282Y-88900847D01*
X185324579Y-88880330D01*
X185338829Y-88861117D01*
X185354893Y-88843393D01*
X185372617Y-88827329D01*
X185391830Y-88813079D01*
X185412347Y-88800782D01*
X185433971Y-88790554D01*
X185456493Y-88782496D01*
X185479697Y-88776684D01*
X185503358Y-88773174D01*
X185527250Y-88772000D01*
X186014750Y-88772000D01*
X186038642Y-88773174D01*
X186038642Y-88773174D01*
G37*
D12*
X185771000Y-89472000D03*
D10*
G36*
X184163642Y-88773174D02*
G01*
X184187303Y-88776684D01*
X184210507Y-88782496D01*
X184233029Y-88790554D01*
X184254653Y-88800782D01*
X184275170Y-88813079D01*
X184294383Y-88827329D01*
X184312107Y-88843393D01*
X184328171Y-88861117D01*
X184342421Y-88880330D01*
X184354718Y-88900847D01*
X184364946Y-88922471D01*
X184373004Y-88944993D01*
X184378816Y-88968197D01*
X184382326Y-88991858D01*
X184383500Y-89015750D01*
X184383500Y-89928250D01*
X184382326Y-89952142D01*
X184378816Y-89975803D01*
X184373004Y-89999007D01*
X184364946Y-90021529D01*
X184354718Y-90043153D01*
X184342421Y-90063670D01*
X184328171Y-90082883D01*
X184312107Y-90100607D01*
X184294383Y-90116671D01*
X184275170Y-90130921D01*
X184254653Y-90143218D01*
X184233029Y-90153446D01*
X184210507Y-90161504D01*
X184187303Y-90167316D01*
X184163642Y-90170826D01*
X184139750Y-90172000D01*
X183652250Y-90172000D01*
X183628358Y-90170826D01*
X183604697Y-90167316D01*
X183581493Y-90161504D01*
X183558971Y-90153446D01*
X183537347Y-90143218D01*
X183516830Y-90130921D01*
X183497617Y-90116671D01*
X183479893Y-90100607D01*
X183463829Y-90082883D01*
X183449579Y-90063670D01*
X183437282Y-90043153D01*
X183427054Y-90021529D01*
X183418996Y-89999007D01*
X183413184Y-89975803D01*
X183409674Y-89952142D01*
X183408500Y-89928250D01*
X183408500Y-89015750D01*
X183409674Y-88991858D01*
X183413184Y-88968197D01*
X183418996Y-88944993D01*
X183427054Y-88922471D01*
X183437282Y-88900847D01*
X183449579Y-88880330D01*
X183463829Y-88861117D01*
X183479893Y-88843393D01*
X183497617Y-88827329D01*
X183516830Y-88813079D01*
X183537347Y-88800782D01*
X183558971Y-88790554D01*
X183581493Y-88782496D01*
X183604697Y-88776684D01*
X183628358Y-88773174D01*
X183652250Y-88772000D01*
X184139750Y-88772000D01*
X184163642Y-88773174D01*
X184163642Y-88773174D01*
G37*
D12*
X183896000Y-89472000D03*
D10*
G36*
X110933142Y-91821174D02*
G01*
X110956803Y-91824684D01*
X110980007Y-91830496D01*
X111002529Y-91838554D01*
X111024153Y-91848782D01*
X111044670Y-91861079D01*
X111063883Y-91875329D01*
X111081607Y-91891393D01*
X111097671Y-91909117D01*
X111111921Y-91928330D01*
X111124218Y-91948847D01*
X111134446Y-91970471D01*
X111142504Y-91992993D01*
X111148316Y-92016197D01*
X111151826Y-92039858D01*
X111153000Y-92063750D01*
X111153000Y-92976250D01*
X111151826Y-93000142D01*
X111148316Y-93023803D01*
X111142504Y-93047007D01*
X111134446Y-93069529D01*
X111124218Y-93091153D01*
X111111921Y-93111670D01*
X111097671Y-93130883D01*
X111081607Y-93148607D01*
X111063883Y-93164671D01*
X111044670Y-93178921D01*
X111024153Y-93191218D01*
X111002529Y-93201446D01*
X110980007Y-93209504D01*
X110956803Y-93215316D01*
X110933142Y-93218826D01*
X110909250Y-93220000D01*
X110421750Y-93220000D01*
X110397858Y-93218826D01*
X110374197Y-93215316D01*
X110350993Y-93209504D01*
X110328471Y-93201446D01*
X110306847Y-93191218D01*
X110286330Y-93178921D01*
X110267117Y-93164671D01*
X110249393Y-93148607D01*
X110233329Y-93130883D01*
X110219079Y-93111670D01*
X110206782Y-93091153D01*
X110196554Y-93069529D01*
X110188496Y-93047007D01*
X110182684Y-93023803D01*
X110179174Y-93000142D01*
X110178000Y-92976250D01*
X110178000Y-92063750D01*
X110179174Y-92039858D01*
X110182684Y-92016197D01*
X110188496Y-91992993D01*
X110196554Y-91970471D01*
X110206782Y-91948847D01*
X110219079Y-91928330D01*
X110233329Y-91909117D01*
X110249393Y-91891393D01*
X110267117Y-91875329D01*
X110286330Y-91861079D01*
X110306847Y-91848782D01*
X110328471Y-91838554D01*
X110350993Y-91830496D01*
X110374197Y-91824684D01*
X110397858Y-91821174D01*
X110421750Y-91820000D01*
X110909250Y-91820000D01*
X110933142Y-91821174D01*
X110933142Y-91821174D01*
G37*
D12*
X110665500Y-92520000D03*
D10*
G36*
X109058142Y-91821174D02*
G01*
X109081803Y-91824684D01*
X109105007Y-91830496D01*
X109127529Y-91838554D01*
X109149153Y-91848782D01*
X109169670Y-91861079D01*
X109188883Y-91875329D01*
X109206607Y-91891393D01*
X109222671Y-91909117D01*
X109236921Y-91928330D01*
X109249218Y-91948847D01*
X109259446Y-91970471D01*
X109267504Y-91992993D01*
X109273316Y-92016197D01*
X109276826Y-92039858D01*
X109278000Y-92063750D01*
X109278000Y-92976250D01*
X109276826Y-93000142D01*
X109273316Y-93023803D01*
X109267504Y-93047007D01*
X109259446Y-93069529D01*
X109249218Y-93091153D01*
X109236921Y-93111670D01*
X109222671Y-93130883D01*
X109206607Y-93148607D01*
X109188883Y-93164671D01*
X109169670Y-93178921D01*
X109149153Y-93191218D01*
X109127529Y-93201446D01*
X109105007Y-93209504D01*
X109081803Y-93215316D01*
X109058142Y-93218826D01*
X109034250Y-93220000D01*
X108546750Y-93220000D01*
X108522858Y-93218826D01*
X108499197Y-93215316D01*
X108475993Y-93209504D01*
X108453471Y-93201446D01*
X108431847Y-93191218D01*
X108411330Y-93178921D01*
X108392117Y-93164671D01*
X108374393Y-93148607D01*
X108358329Y-93130883D01*
X108344079Y-93111670D01*
X108331782Y-93091153D01*
X108321554Y-93069529D01*
X108313496Y-93047007D01*
X108307684Y-93023803D01*
X108304174Y-93000142D01*
X108303000Y-92976250D01*
X108303000Y-92063750D01*
X108304174Y-92039858D01*
X108307684Y-92016197D01*
X108313496Y-91992993D01*
X108321554Y-91970471D01*
X108331782Y-91948847D01*
X108344079Y-91928330D01*
X108358329Y-91909117D01*
X108374393Y-91891393D01*
X108392117Y-91875329D01*
X108411330Y-91861079D01*
X108431847Y-91848782D01*
X108453471Y-91838554D01*
X108475993Y-91830496D01*
X108499197Y-91824684D01*
X108522858Y-91821174D01*
X108546750Y-91820000D01*
X109034250Y-91820000D01*
X109058142Y-91821174D01*
X109058142Y-91821174D01*
G37*
D12*
X108790500Y-92520000D03*
D10*
G36*
X101789142Y-88773174D02*
G01*
X101812803Y-88776684D01*
X101836007Y-88782496D01*
X101858529Y-88790554D01*
X101880153Y-88800782D01*
X101900670Y-88813079D01*
X101919883Y-88827329D01*
X101937607Y-88843393D01*
X101953671Y-88861117D01*
X101967921Y-88880330D01*
X101980218Y-88900847D01*
X101990446Y-88922471D01*
X101998504Y-88944993D01*
X102004316Y-88968197D01*
X102007826Y-88991858D01*
X102009000Y-89015750D01*
X102009000Y-89928250D01*
X102007826Y-89952142D01*
X102004316Y-89975803D01*
X101998504Y-89999007D01*
X101990446Y-90021529D01*
X101980218Y-90043153D01*
X101967921Y-90063670D01*
X101953671Y-90082883D01*
X101937607Y-90100607D01*
X101919883Y-90116671D01*
X101900670Y-90130921D01*
X101880153Y-90143218D01*
X101858529Y-90153446D01*
X101836007Y-90161504D01*
X101812803Y-90167316D01*
X101789142Y-90170826D01*
X101765250Y-90172000D01*
X101277750Y-90172000D01*
X101253858Y-90170826D01*
X101230197Y-90167316D01*
X101206993Y-90161504D01*
X101184471Y-90153446D01*
X101162847Y-90143218D01*
X101142330Y-90130921D01*
X101123117Y-90116671D01*
X101105393Y-90100607D01*
X101089329Y-90082883D01*
X101075079Y-90063670D01*
X101062782Y-90043153D01*
X101052554Y-90021529D01*
X101044496Y-89999007D01*
X101038684Y-89975803D01*
X101035174Y-89952142D01*
X101034000Y-89928250D01*
X101034000Y-89015750D01*
X101035174Y-88991858D01*
X101038684Y-88968197D01*
X101044496Y-88944993D01*
X101052554Y-88922471D01*
X101062782Y-88900847D01*
X101075079Y-88880330D01*
X101089329Y-88861117D01*
X101105393Y-88843393D01*
X101123117Y-88827329D01*
X101142330Y-88813079D01*
X101162847Y-88800782D01*
X101184471Y-88790554D01*
X101206993Y-88782496D01*
X101230197Y-88776684D01*
X101253858Y-88773174D01*
X101277750Y-88772000D01*
X101765250Y-88772000D01*
X101789142Y-88773174D01*
X101789142Y-88773174D01*
G37*
D12*
X101521500Y-89472000D03*
D10*
G36*
X99914142Y-88773174D02*
G01*
X99937803Y-88776684D01*
X99961007Y-88782496D01*
X99983529Y-88790554D01*
X100005153Y-88800782D01*
X100025670Y-88813079D01*
X100044883Y-88827329D01*
X100062607Y-88843393D01*
X100078671Y-88861117D01*
X100092921Y-88880330D01*
X100105218Y-88900847D01*
X100115446Y-88922471D01*
X100123504Y-88944993D01*
X100129316Y-88968197D01*
X100132826Y-88991858D01*
X100134000Y-89015750D01*
X100134000Y-89928250D01*
X100132826Y-89952142D01*
X100129316Y-89975803D01*
X100123504Y-89999007D01*
X100115446Y-90021529D01*
X100105218Y-90043153D01*
X100092921Y-90063670D01*
X100078671Y-90082883D01*
X100062607Y-90100607D01*
X100044883Y-90116671D01*
X100025670Y-90130921D01*
X100005153Y-90143218D01*
X99983529Y-90153446D01*
X99961007Y-90161504D01*
X99937803Y-90167316D01*
X99914142Y-90170826D01*
X99890250Y-90172000D01*
X99402750Y-90172000D01*
X99378858Y-90170826D01*
X99355197Y-90167316D01*
X99331993Y-90161504D01*
X99309471Y-90153446D01*
X99287847Y-90143218D01*
X99267330Y-90130921D01*
X99248117Y-90116671D01*
X99230393Y-90100607D01*
X99214329Y-90082883D01*
X99200079Y-90063670D01*
X99187782Y-90043153D01*
X99177554Y-90021529D01*
X99169496Y-89999007D01*
X99163684Y-89975803D01*
X99160174Y-89952142D01*
X99159000Y-89928250D01*
X99159000Y-89015750D01*
X99160174Y-88991858D01*
X99163684Y-88968197D01*
X99169496Y-88944993D01*
X99177554Y-88922471D01*
X99187782Y-88900847D01*
X99200079Y-88880330D01*
X99214329Y-88861117D01*
X99230393Y-88843393D01*
X99248117Y-88827329D01*
X99267330Y-88813079D01*
X99287847Y-88800782D01*
X99309471Y-88790554D01*
X99331993Y-88782496D01*
X99355197Y-88776684D01*
X99378858Y-88773174D01*
X99402750Y-88772000D01*
X99890250Y-88772000D01*
X99914142Y-88773174D01*
X99914142Y-88773174D01*
G37*
D12*
X99646500Y-89472000D03*
D10*
G36*
X131544142Y-111099674D02*
G01*
X131567803Y-111103184D01*
X131591007Y-111108996D01*
X131613529Y-111117054D01*
X131635153Y-111127282D01*
X131655670Y-111139579D01*
X131674883Y-111153829D01*
X131692607Y-111169893D01*
X131708671Y-111187617D01*
X131722921Y-111206830D01*
X131735218Y-111227347D01*
X131745446Y-111248971D01*
X131753504Y-111271493D01*
X131759316Y-111294697D01*
X131762826Y-111318358D01*
X131764000Y-111342250D01*
X131764000Y-111829750D01*
X131762826Y-111853642D01*
X131759316Y-111877303D01*
X131753504Y-111900507D01*
X131745446Y-111923029D01*
X131735218Y-111944653D01*
X131722921Y-111965170D01*
X131708671Y-111984383D01*
X131692607Y-112002107D01*
X131674883Y-112018171D01*
X131655670Y-112032421D01*
X131635153Y-112044718D01*
X131613529Y-112054946D01*
X131591007Y-112063004D01*
X131567803Y-112068816D01*
X131544142Y-112072326D01*
X131520250Y-112073500D01*
X130607750Y-112073500D01*
X130583858Y-112072326D01*
X130560197Y-112068816D01*
X130536993Y-112063004D01*
X130514471Y-112054946D01*
X130492847Y-112044718D01*
X130472330Y-112032421D01*
X130453117Y-112018171D01*
X130435393Y-112002107D01*
X130419329Y-111984383D01*
X130405079Y-111965170D01*
X130392782Y-111944653D01*
X130382554Y-111923029D01*
X130374496Y-111900507D01*
X130368684Y-111877303D01*
X130365174Y-111853642D01*
X130364000Y-111829750D01*
X130364000Y-111342250D01*
X130365174Y-111318358D01*
X130368684Y-111294697D01*
X130374496Y-111271493D01*
X130382554Y-111248971D01*
X130392782Y-111227347D01*
X130405079Y-111206830D01*
X130419329Y-111187617D01*
X130435393Y-111169893D01*
X130453117Y-111153829D01*
X130472330Y-111139579D01*
X130492847Y-111127282D01*
X130514471Y-111117054D01*
X130536993Y-111108996D01*
X130560197Y-111103184D01*
X130583858Y-111099674D01*
X130607750Y-111098500D01*
X131520250Y-111098500D01*
X131544142Y-111099674D01*
X131544142Y-111099674D01*
G37*
D12*
X131064000Y-111586000D03*
D10*
G36*
X131544142Y-109224674D02*
G01*
X131567803Y-109228184D01*
X131591007Y-109233996D01*
X131613529Y-109242054D01*
X131635153Y-109252282D01*
X131655670Y-109264579D01*
X131674883Y-109278829D01*
X131692607Y-109294893D01*
X131708671Y-109312617D01*
X131722921Y-109331830D01*
X131735218Y-109352347D01*
X131745446Y-109373971D01*
X131753504Y-109396493D01*
X131759316Y-109419697D01*
X131762826Y-109443358D01*
X131764000Y-109467250D01*
X131764000Y-109954750D01*
X131762826Y-109978642D01*
X131759316Y-110002303D01*
X131753504Y-110025507D01*
X131745446Y-110048029D01*
X131735218Y-110069653D01*
X131722921Y-110090170D01*
X131708671Y-110109383D01*
X131692607Y-110127107D01*
X131674883Y-110143171D01*
X131655670Y-110157421D01*
X131635153Y-110169718D01*
X131613529Y-110179946D01*
X131591007Y-110188004D01*
X131567803Y-110193816D01*
X131544142Y-110197326D01*
X131520250Y-110198500D01*
X130607750Y-110198500D01*
X130583858Y-110197326D01*
X130560197Y-110193816D01*
X130536993Y-110188004D01*
X130514471Y-110179946D01*
X130492847Y-110169718D01*
X130472330Y-110157421D01*
X130453117Y-110143171D01*
X130435393Y-110127107D01*
X130419329Y-110109383D01*
X130405079Y-110090170D01*
X130392782Y-110069653D01*
X130382554Y-110048029D01*
X130374496Y-110025507D01*
X130368684Y-110002303D01*
X130365174Y-109978642D01*
X130364000Y-109954750D01*
X130364000Y-109467250D01*
X130365174Y-109443358D01*
X130368684Y-109419697D01*
X130374496Y-109396493D01*
X130382554Y-109373971D01*
X130392782Y-109352347D01*
X130405079Y-109331830D01*
X130419329Y-109312617D01*
X130435393Y-109294893D01*
X130453117Y-109278829D01*
X130472330Y-109264579D01*
X130492847Y-109252282D01*
X130514471Y-109242054D01*
X130536993Y-109233996D01*
X130560197Y-109228184D01*
X130583858Y-109224674D01*
X130607750Y-109223500D01*
X131520250Y-109223500D01*
X131544142Y-109224674D01*
X131544142Y-109224674D01*
G37*
D12*
X131064000Y-109711000D03*
D10*
G36*
X177559642Y-117855174D02*
G01*
X177583303Y-117858684D01*
X177606507Y-117864496D01*
X177629029Y-117872554D01*
X177650653Y-117882782D01*
X177671170Y-117895079D01*
X177690383Y-117909329D01*
X177708107Y-117925393D01*
X177724171Y-117943117D01*
X177738421Y-117962330D01*
X177750718Y-117982847D01*
X177760946Y-118004471D01*
X177769004Y-118026993D01*
X177774816Y-118050197D01*
X177778326Y-118073858D01*
X177779500Y-118097750D01*
X177779500Y-119010250D01*
X177778326Y-119034142D01*
X177774816Y-119057803D01*
X177769004Y-119081007D01*
X177760946Y-119103529D01*
X177750718Y-119125153D01*
X177738421Y-119145670D01*
X177724171Y-119164883D01*
X177708107Y-119182607D01*
X177690383Y-119198671D01*
X177671170Y-119212921D01*
X177650653Y-119225218D01*
X177629029Y-119235446D01*
X177606507Y-119243504D01*
X177583303Y-119249316D01*
X177559642Y-119252826D01*
X177535750Y-119254000D01*
X177048250Y-119254000D01*
X177024358Y-119252826D01*
X177000697Y-119249316D01*
X176977493Y-119243504D01*
X176954971Y-119235446D01*
X176933347Y-119225218D01*
X176912830Y-119212921D01*
X176893617Y-119198671D01*
X176875893Y-119182607D01*
X176859829Y-119164883D01*
X176845579Y-119145670D01*
X176833282Y-119125153D01*
X176823054Y-119103529D01*
X176814996Y-119081007D01*
X176809184Y-119057803D01*
X176805674Y-119034142D01*
X176804500Y-119010250D01*
X176804500Y-118097750D01*
X176805674Y-118073858D01*
X176809184Y-118050197D01*
X176814996Y-118026993D01*
X176823054Y-118004471D01*
X176833282Y-117982847D01*
X176845579Y-117962330D01*
X176859829Y-117943117D01*
X176875893Y-117925393D01*
X176893617Y-117909329D01*
X176912830Y-117895079D01*
X176933347Y-117882782D01*
X176954971Y-117872554D01*
X176977493Y-117864496D01*
X177000697Y-117858684D01*
X177024358Y-117855174D01*
X177048250Y-117854000D01*
X177535750Y-117854000D01*
X177559642Y-117855174D01*
X177559642Y-117855174D01*
G37*
D12*
X177292000Y-118554000D03*
D10*
G36*
X175684642Y-117855174D02*
G01*
X175708303Y-117858684D01*
X175731507Y-117864496D01*
X175754029Y-117872554D01*
X175775653Y-117882782D01*
X175796170Y-117895079D01*
X175815383Y-117909329D01*
X175833107Y-117925393D01*
X175849171Y-117943117D01*
X175863421Y-117962330D01*
X175875718Y-117982847D01*
X175885946Y-118004471D01*
X175894004Y-118026993D01*
X175899816Y-118050197D01*
X175903326Y-118073858D01*
X175904500Y-118097750D01*
X175904500Y-119010250D01*
X175903326Y-119034142D01*
X175899816Y-119057803D01*
X175894004Y-119081007D01*
X175885946Y-119103529D01*
X175875718Y-119125153D01*
X175863421Y-119145670D01*
X175849171Y-119164883D01*
X175833107Y-119182607D01*
X175815383Y-119198671D01*
X175796170Y-119212921D01*
X175775653Y-119225218D01*
X175754029Y-119235446D01*
X175731507Y-119243504D01*
X175708303Y-119249316D01*
X175684642Y-119252826D01*
X175660750Y-119254000D01*
X175173250Y-119254000D01*
X175149358Y-119252826D01*
X175125697Y-119249316D01*
X175102493Y-119243504D01*
X175079971Y-119235446D01*
X175058347Y-119225218D01*
X175037830Y-119212921D01*
X175018617Y-119198671D01*
X175000893Y-119182607D01*
X174984829Y-119164883D01*
X174970579Y-119145670D01*
X174958282Y-119125153D01*
X174948054Y-119103529D01*
X174939996Y-119081007D01*
X174934184Y-119057803D01*
X174930674Y-119034142D01*
X174929500Y-119010250D01*
X174929500Y-118097750D01*
X174930674Y-118073858D01*
X174934184Y-118050197D01*
X174939996Y-118026993D01*
X174948054Y-118004471D01*
X174958282Y-117982847D01*
X174970579Y-117962330D01*
X174984829Y-117943117D01*
X175000893Y-117925393D01*
X175018617Y-117909329D01*
X175037830Y-117895079D01*
X175058347Y-117882782D01*
X175079971Y-117872554D01*
X175102493Y-117864496D01*
X175125697Y-117858684D01*
X175149358Y-117855174D01*
X175173250Y-117854000D01*
X175660750Y-117854000D01*
X175684642Y-117855174D01*
X175684642Y-117855174D01*
G37*
D12*
X175417000Y-118554000D03*
D10*
G36*
X170406142Y-92556174D02*
G01*
X170429803Y-92559684D01*
X170453007Y-92565496D01*
X170475529Y-92573554D01*
X170497153Y-92583782D01*
X170517670Y-92596079D01*
X170536883Y-92610329D01*
X170554607Y-92626393D01*
X170570671Y-92644117D01*
X170584921Y-92663330D01*
X170597218Y-92683847D01*
X170607446Y-92705471D01*
X170615504Y-92727993D01*
X170621316Y-92751197D01*
X170624826Y-92774858D01*
X170626000Y-92798750D01*
X170626000Y-93286250D01*
X170624826Y-93310142D01*
X170621316Y-93333803D01*
X170615504Y-93357007D01*
X170607446Y-93379529D01*
X170597218Y-93401153D01*
X170584921Y-93421670D01*
X170570671Y-93440883D01*
X170554607Y-93458607D01*
X170536883Y-93474671D01*
X170517670Y-93488921D01*
X170497153Y-93501218D01*
X170475529Y-93511446D01*
X170453007Y-93519504D01*
X170429803Y-93525316D01*
X170406142Y-93528826D01*
X170382250Y-93530000D01*
X169469750Y-93530000D01*
X169445858Y-93528826D01*
X169422197Y-93525316D01*
X169398993Y-93519504D01*
X169376471Y-93511446D01*
X169354847Y-93501218D01*
X169334330Y-93488921D01*
X169315117Y-93474671D01*
X169297393Y-93458607D01*
X169281329Y-93440883D01*
X169267079Y-93421670D01*
X169254782Y-93401153D01*
X169244554Y-93379529D01*
X169236496Y-93357007D01*
X169230684Y-93333803D01*
X169227174Y-93310142D01*
X169226000Y-93286250D01*
X169226000Y-92798750D01*
X169227174Y-92774858D01*
X169230684Y-92751197D01*
X169236496Y-92727993D01*
X169244554Y-92705471D01*
X169254782Y-92683847D01*
X169267079Y-92663330D01*
X169281329Y-92644117D01*
X169297393Y-92626393D01*
X169315117Y-92610329D01*
X169334330Y-92596079D01*
X169354847Y-92583782D01*
X169376471Y-92573554D01*
X169398993Y-92565496D01*
X169422197Y-92559684D01*
X169445858Y-92556174D01*
X169469750Y-92555000D01*
X170382250Y-92555000D01*
X170406142Y-92556174D01*
X170406142Y-92556174D01*
G37*
D12*
X169926000Y-93042500D03*
D10*
G36*
X170406142Y-94431174D02*
G01*
X170429803Y-94434684D01*
X170453007Y-94440496D01*
X170475529Y-94448554D01*
X170497153Y-94458782D01*
X170517670Y-94471079D01*
X170536883Y-94485329D01*
X170554607Y-94501393D01*
X170570671Y-94519117D01*
X170584921Y-94538330D01*
X170597218Y-94558847D01*
X170607446Y-94580471D01*
X170615504Y-94602993D01*
X170621316Y-94626197D01*
X170624826Y-94649858D01*
X170626000Y-94673750D01*
X170626000Y-95161250D01*
X170624826Y-95185142D01*
X170621316Y-95208803D01*
X170615504Y-95232007D01*
X170607446Y-95254529D01*
X170597218Y-95276153D01*
X170584921Y-95296670D01*
X170570671Y-95315883D01*
X170554607Y-95333607D01*
X170536883Y-95349671D01*
X170517670Y-95363921D01*
X170497153Y-95376218D01*
X170475529Y-95386446D01*
X170453007Y-95394504D01*
X170429803Y-95400316D01*
X170406142Y-95403826D01*
X170382250Y-95405000D01*
X169469750Y-95405000D01*
X169445858Y-95403826D01*
X169422197Y-95400316D01*
X169398993Y-95394504D01*
X169376471Y-95386446D01*
X169354847Y-95376218D01*
X169334330Y-95363921D01*
X169315117Y-95349671D01*
X169297393Y-95333607D01*
X169281329Y-95315883D01*
X169267079Y-95296670D01*
X169254782Y-95276153D01*
X169244554Y-95254529D01*
X169236496Y-95232007D01*
X169230684Y-95208803D01*
X169227174Y-95185142D01*
X169226000Y-95161250D01*
X169226000Y-94673750D01*
X169227174Y-94649858D01*
X169230684Y-94626197D01*
X169236496Y-94602993D01*
X169244554Y-94580471D01*
X169254782Y-94558847D01*
X169267079Y-94538330D01*
X169281329Y-94519117D01*
X169297393Y-94501393D01*
X169315117Y-94485329D01*
X169334330Y-94471079D01*
X169354847Y-94458782D01*
X169376471Y-94448554D01*
X169398993Y-94440496D01*
X169422197Y-94434684D01*
X169445858Y-94431174D01*
X169469750Y-94430000D01*
X170382250Y-94430000D01*
X170406142Y-94431174D01*
X170406142Y-94431174D01*
G37*
D12*
X169926000Y-94917500D03*
D10*
G36*
X131544142Y-100955174D02*
G01*
X131567803Y-100958684D01*
X131591007Y-100964496D01*
X131613529Y-100972554D01*
X131635153Y-100982782D01*
X131655670Y-100995079D01*
X131674883Y-101009329D01*
X131692607Y-101025393D01*
X131708671Y-101043117D01*
X131722921Y-101062330D01*
X131735218Y-101082847D01*
X131745446Y-101104471D01*
X131753504Y-101126993D01*
X131759316Y-101150197D01*
X131762826Y-101173858D01*
X131764000Y-101197750D01*
X131764000Y-101685250D01*
X131762826Y-101709142D01*
X131759316Y-101732803D01*
X131753504Y-101756007D01*
X131745446Y-101778529D01*
X131735218Y-101800153D01*
X131722921Y-101820670D01*
X131708671Y-101839883D01*
X131692607Y-101857607D01*
X131674883Y-101873671D01*
X131655670Y-101887921D01*
X131635153Y-101900218D01*
X131613529Y-101910446D01*
X131591007Y-101918504D01*
X131567803Y-101924316D01*
X131544142Y-101927826D01*
X131520250Y-101929000D01*
X130607750Y-101929000D01*
X130583858Y-101927826D01*
X130560197Y-101924316D01*
X130536993Y-101918504D01*
X130514471Y-101910446D01*
X130492847Y-101900218D01*
X130472330Y-101887921D01*
X130453117Y-101873671D01*
X130435393Y-101857607D01*
X130419329Y-101839883D01*
X130405079Y-101820670D01*
X130392782Y-101800153D01*
X130382554Y-101778529D01*
X130374496Y-101756007D01*
X130368684Y-101732803D01*
X130365174Y-101709142D01*
X130364000Y-101685250D01*
X130364000Y-101197750D01*
X130365174Y-101173858D01*
X130368684Y-101150197D01*
X130374496Y-101126993D01*
X130382554Y-101104471D01*
X130392782Y-101082847D01*
X130405079Y-101062330D01*
X130419329Y-101043117D01*
X130435393Y-101025393D01*
X130453117Y-101009329D01*
X130472330Y-100995079D01*
X130492847Y-100982782D01*
X130514471Y-100972554D01*
X130536993Y-100964496D01*
X130560197Y-100958684D01*
X130583858Y-100955174D01*
X130607750Y-100954000D01*
X131520250Y-100954000D01*
X131544142Y-100955174D01*
X131544142Y-100955174D01*
G37*
D12*
X131064000Y-101441500D03*
D10*
G36*
X131544142Y-99080174D02*
G01*
X131567803Y-99083684D01*
X131591007Y-99089496D01*
X131613529Y-99097554D01*
X131635153Y-99107782D01*
X131655670Y-99120079D01*
X131674883Y-99134329D01*
X131692607Y-99150393D01*
X131708671Y-99168117D01*
X131722921Y-99187330D01*
X131735218Y-99207847D01*
X131745446Y-99229471D01*
X131753504Y-99251993D01*
X131759316Y-99275197D01*
X131762826Y-99298858D01*
X131764000Y-99322750D01*
X131764000Y-99810250D01*
X131762826Y-99834142D01*
X131759316Y-99857803D01*
X131753504Y-99881007D01*
X131745446Y-99903529D01*
X131735218Y-99925153D01*
X131722921Y-99945670D01*
X131708671Y-99964883D01*
X131692607Y-99982607D01*
X131674883Y-99998671D01*
X131655670Y-100012921D01*
X131635153Y-100025218D01*
X131613529Y-100035446D01*
X131591007Y-100043504D01*
X131567803Y-100049316D01*
X131544142Y-100052826D01*
X131520250Y-100054000D01*
X130607750Y-100054000D01*
X130583858Y-100052826D01*
X130560197Y-100049316D01*
X130536993Y-100043504D01*
X130514471Y-100035446D01*
X130492847Y-100025218D01*
X130472330Y-100012921D01*
X130453117Y-99998671D01*
X130435393Y-99982607D01*
X130419329Y-99964883D01*
X130405079Y-99945670D01*
X130392782Y-99925153D01*
X130382554Y-99903529D01*
X130374496Y-99881007D01*
X130368684Y-99857803D01*
X130365174Y-99834142D01*
X130364000Y-99810250D01*
X130364000Y-99322750D01*
X130365174Y-99298858D01*
X130368684Y-99275197D01*
X130374496Y-99251993D01*
X130382554Y-99229471D01*
X130392782Y-99207847D01*
X130405079Y-99187330D01*
X130419329Y-99168117D01*
X130435393Y-99150393D01*
X130453117Y-99134329D01*
X130472330Y-99120079D01*
X130492847Y-99107782D01*
X130514471Y-99097554D01*
X130536993Y-99089496D01*
X130560197Y-99083684D01*
X130583858Y-99080174D01*
X130607750Y-99079000D01*
X131520250Y-99079000D01*
X131544142Y-99080174D01*
X131544142Y-99080174D01*
G37*
D12*
X131064000Y-99566500D03*
D14*
X195006000Y-127412000D03*
X194056000Y-125412000D03*
X195956000Y-125412000D03*
D15*
X99008000Y-141668000D03*
X101008000Y-140718000D03*
X101008000Y-142618000D03*
D14*
X194564000Y-72946000D03*
X193614000Y-70946000D03*
X195514000Y-70946000D03*
D10*
G36*
X192116142Y-132079174D02*
G01*
X192139803Y-132082684D01*
X192163007Y-132088496D01*
X192185529Y-132096554D01*
X192207153Y-132106782D01*
X192227670Y-132119079D01*
X192246883Y-132133329D01*
X192264607Y-132149393D01*
X192280671Y-132167117D01*
X192294921Y-132186330D01*
X192307218Y-132206847D01*
X192317446Y-132228471D01*
X192325504Y-132250993D01*
X192331316Y-132274197D01*
X192334826Y-132297858D01*
X192336000Y-132321750D01*
X192336000Y-133234250D01*
X192334826Y-133258142D01*
X192331316Y-133281803D01*
X192325504Y-133305007D01*
X192317446Y-133327529D01*
X192307218Y-133349153D01*
X192294921Y-133369670D01*
X192280671Y-133388883D01*
X192264607Y-133406607D01*
X192246883Y-133422671D01*
X192227670Y-133436921D01*
X192207153Y-133449218D01*
X192185529Y-133459446D01*
X192163007Y-133467504D01*
X192139803Y-133473316D01*
X192116142Y-133476826D01*
X192092250Y-133478000D01*
X191604750Y-133478000D01*
X191580858Y-133476826D01*
X191557197Y-133473316D01*
X191533993Y-133467504D01*
X191511471Y-133459446D01*
X191489847Y-133449218D01*
X191469330Y-133436921D01*
X191450117Y-133422671D01*
X191432393Y-133406607D01*
X191416329Y-133388883D01*
X191402079Y-133369670D01*
X191389782Y-133349153D01*
X191379554Y-133327529D01*
X191371496Y-133305007D01*
X191365684Y-133281803D01*
X191362174Y-133258142D01*
X191361000Y-133234250D01*
X191361000Y-132321750D01*
X191362174Y-132297858D01*
X191365684Y-132274197D01*
X191371496Y-132250993D01*
X191379554Y-132228471D01*
X191389782Y-132206847D01*
X191402079Y-132186330D01*
X191416329Y-132167117D01*
X191432393Y-132149393D01*
X191450117Y-132133329D01*
X191469330Y-132119079D01*
X191489847Y-132106782D01*
X191511471Y-132096554D01*
X191533993Y-132088496D01*
X191557197Y-132082684D01*
X191580858Y-132079174D01*
X191604750Y-132078000D01*
X192092250Y-132078000D01*
X192116142Y-132079174D01*
X192116142Y-132079174D01*
G37*
D12*
X191848500Y-132778000D03*
D10*
G36*
X193991142Y-132079174D02*
G01*
X194014803Y-132082684D01*
X194038007Y-132088496D01*
X194060529Y-132096554D01*
X194082153Y-132106782D01*
X194102670Y-132119079D01*
X194121883Y-132133329D01*
X194139607Y-132149393D01*
X194155671Y-132167117D01*
X194169921Y-132186330D01*
X194182218Y-132206847D01*
X194192446Y-132228471D01*
X194200504Y-132250993D01*
X194206316Y-132274197D01*
X194209826Y-132297858D01*
X194211000Y-132321750D01*
X194211000Y-133234250D01*
X194209826Y-133258142D01*
X194206316Y-133281803D01*
X194200504Y-133305007D01*
X194192446Y-133327529D01*
X194182218Y-133349153D01*
X194169921Y-133369670D01*
X194155671Y-133388883D01*
X194139607Y-133406607D01*
X194121883Y-133422671D01*
X194102670Y-133436921D01*
X194082153Y-133449218D01*
X194060529Y-133459446D01*
X194038007Y-133467504D01*
X194014803Y-133473316D01*
X193991142Y-133476826D01*
X193967250Y-133478000D01*
X193479750Y-133478000D01*
X193455858Y-133476826D01*
X193432197Y-133473316D01*
X193408993Y-133467504D01*
X193386471Y-133459446D01*
X193364847Y-133449218D01*
X193344330Y-133436921D01*
X193325117Y-133422671D01*
X193307393Y-133406607D01*
X193291329Y-133388883D01*
X193277079Y-133369670D01*
X193264782Y-133349153D01*
X193254554Y-133327529D01*
X193246496Y-133305007D01*
X193240684Y-133281803D01*
X193237174Y-133258142D01*
X193236000Y-133234250D01*
X193236000Y-132321750D01*
X193237174Y-132297858D01*
X193240684Y-132274197D01*
X193246496Y-132250993D01*
X193254554Y-132228471D01*
X193264782Y-132206847D01*
X193277079Y-132186330D01*
X193291329Y-132167117D01*
X193307393Y-132149393D01*
X193325117Y-132133329D01*
X193344330Y-132119079D01*
X193364847Y-132106782D01*
X193386471Y-132096554D01*
X193408993Y-132088496D01*
X193432197Y-132082684D01*
X193455858Y-132079174D01*
X193479750Y-132078000D01*
X193967250Y-132078000D01*
X193991142Y-132079174D01*
X193991142Y-132079174D01*
G37*
D12*
X193723500Y-132778000D03*
D10*
G36*
X200173504Y-128660204D02*
G01*
X200197773Y-128663804D01*
X200221571Y-128669765D01*
X200244671Y-128678030D01*
X200266849Y-128688520D01*
X200287893Y-128701133D01*
X200307598Y-128715747D01*
X200325777Y-128732223D01*
X200342253Y-128750402D01*
X200356867Y-128770107D01*
X200369480Y-128791151D01*
X200379970Y-128813329D01*
X200388235Y-128836429D01*
X200394196Y-128860227D01*
X200397796Y-128884496D01*
X200399000Y-128909000D01*
X200399000Y-131059000D01*
X200397796Y-131083504D01*
X200394196Y-131107773D01*
X200388235Y-131131571D01*
X200379970Y-131154671D01*
X200369480Y-131176849D01*
X200356867Y-131197893D01*
X200342253Y-131217598D01*
X200325777Y-131235777D01*
X200307598Y-131252253D01*
X200287893Y-131266867D01*
X200266849Y-131279480D01*
X200244671Y-131289970D01*
X200221571Y-131298235D01*
X200197773Y-131304196D01*
X200173504Y-131307796D01*
X200149000Y-131309000D01*
X199399000Y-131309000D01*
X199374496Y-131307796D01*
X199350227Y-131304196D01*
X199326429Y-131298235D01*
X199303329Y-131289970D01*
X199281151Y-131279480D01*
X199260107Y-131266867D01*
X199240402Y-131252253D01*
X199222223Y-131235777D01*
X199205747Y-131217598D01*
X199191133Y-131197893D01*
X199178520Y-131176849D01*
X199168030Y-131154671D01*
X199159765Y-131131571D01*
X199153804Y-131107773D01*
X199150204Y-131083504D01*
X199149000Y-131059000D01*
X199149000Y-128909000D01*
X199150204Y-128884496D01*
X199153804Y-128860227D01*
X199159765Y-128836429D01*
X199168030Y-128813329D01*
X199178520Y-128791151D01*
X199191133Y-128770107D01*
X199205747Y-128750402D01*
X199222223Y-128732223D01*
X199240402Y-128715747D01*
X199260107Y-128701133D01*
X199281151Y-128688520D01*
X199303329Y-128678030D01*
X199326429Y-128669765D01*
X199350227Y-128663804D01*
X199374496Y-128660204D01*
X199399000Y-128659000D01*
X200149000Y-128659000D01*
X200173504Y-128660204D01*
X200173504Y-128660204D01*
G37*
D13*
X199774000Y-129984000D03*
D10*
G36*
X197373504Y-128660204D02*
G01*
X197397773Y-128663804D01*
X197421571Y-128669765D01*
X197444671Y-128678030D01*
X197466849Y-128688520D01*
X197487893Y-128701133D01*
X197507598Y-128715747D01*
X197525777Y-128732223D01*
X197542253Y-128750402D01*
X197556867Y-128770107D01*
X197569480Y-128791151D01*
X197579970Y-128813329D01*
X197588235Y-128836429D01*
X197594196Y-128860227D01*
X197597796Y-128884496D01*
X197599000Y-128909000D01*
X197599000Y-131059000D01*
X197597796Y-131083504D01*
X197594196Y-131107773D01*
X197588235Y-131131571D01*
X197579970Y-131154671D01*
X197569480Y-131176849D01*
X197556867Y-131197893D01*
X197542253Y-131217598D01*
X197525777Y-131235777D01*
X197507598Y-131252253D01*
X197487893Y-131266867D01*
X197466849Y-131279480D01*
X197444671Y-131289970D01*
X197421571Y-131298235D01*
X197397773Y-131304196D01*
X197373504Y-131307796D01*
X197349000Y-131309000D01*
X196599000Y-131309000D01*
X196574496Y-131307796D01*
X196550227Y-131304196D01*
X196526429Y-131298235D01*
X196503329Y-131289970D01*
X196481151Y-131279480D01*
X196460107Y-131266867D01*
X196440402Y-131252253D01*
X196422223Y-131235777D01*
X196405747Y-131217598D01*
X196391133Y-131197893D01*
X196378520Y-131176849D01*
X196368030Y-131154671D01*
X196359765Y-131131571D01*
X196353804Y-131107773D01*
X196350204Y-131083504D01*
X196349000Y-131059000D01*
X196349000Y-128909000D01*
X196350204Y-128884496D01*
X196353804Y-128860227D01*
X196359765Y-128836429D01*
X196368030Y-128813329D01*
X196378520Y-128791151D01*
X196391133Y-128770107D01*
X196405747Y-128750402D01*
X196422223Y-128732223D01*
X196440402Y-128715747D01*
X196460107Y-128701133D01*
X196481151Y-128688520D01*
X196503329Y-128678030D01*
X196526429Y-128669765D01*
X196550227Y-128663804D01*
X196574496Y-128660204D01*
X196599000Y-128659000D01*
X197349000Y-128659000D01*
X197373504Y-128660204D01*
X197373504Y-128660204D01*
G37*
D13*
X196974000Y-129984000D03*
D10*
G36*
X192504142Y-140341174D02*
G01*
X192527803Y-140344684D01*
X192551007Y-140350496D01*
X192573529Y-140358554D01*
X192595153Y-140368782D01*
X192615670Y-140381079D01*
X192634883Y-140395329D01*
X192652607Y-140411393D01*
X192668671Y-140429117D01*
X192682921Y-140448330D01*
X192695218Y-140468847D01*
X192705446Y-140490471D01*
X192713504Y-140512993D01*
X192719316Y-140536197D01*
X192722826Y-140559858D01*
X192724000Y-140583750D01*
X192724000Y-141071250D01*
X192722826Y-141095142D01*
X192719316Y-141118803D01*
X192713504Y-141142007D01*
X192705446Y-141164529D01*
X192695218Y-141186153D01*
X192682921Y-141206670D01*
X192668671Y-141225883D01*
X192652607Y-141243607D01*
X192634883Y-141259671D01*
X192615670Y-141273921D01*
X192595153Y-141286218D01*
X192573529Y-141296446D01*
X192551007Y-141304504D01*
X192527803Y-141310316D01*
X192504142Y-141313826D01*
X192480250Y-141315000D01*
X191567750Y-141315000D01*
X191543858Y-141313826D01*
X191520197Y-141310316D01*
X191496993Y-141304504D01*
X191474471Y-141296446D01*
X191452847Y-141286218D01*
X191432330Y-141273921D01*
X191413117Y-141259671D01*
X191395393Y-141243607D01*
X191379329Y-141225883D01*
X191365079Y-141206670D01*
X191352782Y-141186153D01*
X191342554Y-141164529D01*
X191334496Y-141142007D01*
X191328684Y-141118803D01*
X191325174Y-141095142D01*
X191324000Y-141071250D01*
X191324000Y-140583750D01*
X191325174Y-140559858D01*
X191328684Y-140536197D01*
X191334496Y-140512993D01*
X191342554Y-140490471D01*
X191352782Y-140468847D01*
X191365079Y-140448330D01*
X191379329Y-140429117D01*
X191395393Y-140411393D01*
X191413117Y-140395329D01*
X191432330Y-140381079D01*
X191452847Y-140368782D01*
X191474471Y-140358554D01*
X191496993Y-140350496D01*
X191520197Y-140344684D01*
X191543858Y-140341174D01*
X191567750Y-140340000D01*
X192480250Y-140340000D01*
X192504142Y-140341174D01*
X192504142Y-140341174D01*
G37*
D12*
X192024000Y-140827500D03*
D10*
G36*
X192504142Y-138466174D02*
G01*
X192527803Y-138469684D01*
X192551007Y-138475496D01*
X192573529Y-138483554D01*
X192595153Y-138493782D01*
X192615670Y-138506079D01*
X192634883Y-138520329D01*
X192652607Y-138536393D01*
X192668671Y-138554117D01*
X192682921Y-138573330D01*
X192695218Y-138593847D01*
X192705446Y-138615471D01*
X192713504Y-138637993D01*
X192719316Y-138661197D01*
X192722826Y-138684858D01*
X192724000Y-138708750D01*
X192724000Y-139196250D01*
X192722826Y-139220142D01*
X192719316Y-139243803D01*
X192713504Y-139267007D01*
X192705446Y-139289529D01*
X192695218Y-139311153D01*
X192682921Y-139331670D01*
X192668671Y-139350883D01*
X192652607Y-139368607D01*
X192634883Y-139384671D01*
X192615670Y-139398921D01*
X192595153Y-139411218D01*
X192573529Y-139421446D01*
X192551007Y-139429504D01*
X192527803Y-139435316D01*
X192504142Y-139438826D01*
X192480250Y-139440000D01*
X191567750Y-139440000D01*
X191543858Y-139438826D01*
X191520197Y-139435316D01*
X191496993Y-139429504D01*
X191474471Y-139421446D01*
X191452847Y-139411218D01*
X191432330Y-139398921D01*
X191413117Y-139384671D01*
X191395393Y-139368607D01*
X191379329Y-139350883D01*
X191365079Y-139331670D01*
X191352782Y-139311153D01*
X191342554Y-139289529D01*
X191334496Y-139267007D01*
X191328684Y-139243803D01*
X191325174Y-139220142D01*
X191324000Y-139196250D01*
X191324000Y-138708750D01*
X191325174Y-138684858D01*
X191328684Y-138661197D01*
X191334496Y-138637993D01*
X191342554Y-138615471D01*
X191352782Y-138593847D01*
X191365079Y-138573330D01*
X191379329Y-138554117D01*
X191395393Y-138536393D01*
X191413117Y-138520329D01*
X191432330Y-138506079D01*
X191452847Y-138493782D01*
X191474471Y-138483554D01*
X191496993Y-138475496D01*
X191520197Y-138469684D01*
X191543858Y-138466174D01*
X191567750Y-138465000D01*
X192480250Y-138465000D01*
X192504142Y-138466174D01*
X192504142Y-138466174D01*
G37*
D12*
X192024000Y-138952500D03*
D10*
G36*
X193991142Y-134111174D02*
G01*
X194014803Y-134114684D01*
X194038007Y-134120496D01*
X194060529Y-134128554D01*
X194082153Y-134138782D01*
X194102670Y-134151079D01*
X194121883Y-134165329D01*
X194139607Y-134181393D01*
X194155671Y-134199117D01*
X194169921Y-134218330D01*
X194182218Y-134238847D01*
X194192446Y-134260471D01*
X194200504Y-134282993D01*
X194206316Y-134306197D01*
X194209826Y-134329858D01*
X194211000Y-134353750D01*
X194211000Y-135266250D01*
X194209826Y-135290142D01*
X194206316Y-135313803D01*
X194200504Y-135337007D01*
X194192446Y-135359529D01*
X194182218Y-135381153D01*
X194169921Y-135401670D01*
X194155671Y-135420883D01*
X194139607Y-135438607D01*
X194121883Y-135454671D01*
X194102670Y-135468921D01*
X194082153Y-135481218D01*
X194060529Y-135491446D01*
X194038007Y-135499504D01*
X194014803Y-135505316D01*
X193991142Y-135508826D01*
X193967250Y-135510000D01*
X193479750Y-135510000D01*
X193455858Y-135508826D01*
X193432197Y-135505316D01*
X193408993Y-135499504D01*
X193386471Y-135491446D01*
X193364847Y-135481218D01*
X193344330Y-135468921D01*
X193325117Y-135454671D01*
X193307393Y-135438607D01*
X193291329Y-135420883D01*
X193277079Y-135401670D01*
X193264782Y-135381153D01*
X193254554Y-135359529D01*
X193246496Y-135337007D01*
X193240684Y-135313803D01*
X193237174Y-135290142D01*
X193236000Y-135266250D01*
X193236000Y-134353750D01*
X193237174Y-134329858D01*
X193240684Y-134306197D01*
X193246496Y-134282993D01*
X193254554Y-134260471D01*
X193264782Y-134238847D01*
X193277079Y-134218330D01*
X193291329Y-134199117D01*
X193307393Y-134181393D01*
X193325117Y-134165329D01*
X193344330Y-134151079D01*
X193364847Y-134138782D01*
X193386471Y-134128554D01*
X193408993Y-134120496D01*
X193432197Y-134114684D01*
X193455858Y-134111174D01*
X193479750Y-134110000D01*
X193967250Y-134110000D01*
X193991142Y-134111174D01*
X193991142Y-134111174D01*
G37*
D12*
X193723500Y-134810000D03*
D10*
G36*
X192116142Y-134111174D02*
G01*
X192139803Y-134114684D01*
X192163007Y-134120496D01*
X192185529Y-134128554D01*
X192207153Y-134138782D01*
X192227670Y-134151079D01*
X192246883Y-134165329D01*
X192264607Y-134181393D01*
X192280671Y-134199117D01*
X192294921Y-134218330D01*
X192307218Y-134238847D01*
X192317446Y-134260471D01*
X192325504Y-134282993D01*
X192331316Y-134306197D01*
X192334826Y-134329858D01*
X192336000Y-134353750D01*
X192336000Y-135266250D01*
X192334826Y-135290142D01*
X192331316Y-135313803D01*
X192325504Y-135337007D01*
X192317446Y-135359529D01*
X192307218Y-135381153D01*
X192294921Y-135401670D01*
X192280671Y-135420883D01*
X192264607Y-135438607D01*
X192246883Y-135454671D01*
X192227670Y-135468921D01*
X192207153Y-135481218D01*
X192185529Y-135491446D01*
X192163007Y-135499504D01*
X192139803Y-135505316D01*
X192116142Y-135508826D01*
X192092250Y-135510000D01*
X191604750Y-135510000D01*
X191580858Y-135508826D01*
X191557197Y-135505316D01*
X191533993Y-135499504D01*
X191511471Y-135491446D01*
X191489847Y-135481218D01*
X191469330Y-135468921D01*
X191450117Y-135454671D01*
X191432393Y-135438607D01*
X191416329Y-135420883D01*
X191402079Y-135401670D01*
X191389782Y-135381153D01*
X191379554Y-135359529D01*
X191371496Y-135337007D01*
X191365684Y-135313803D01*
X191362174Y-135290142D01*
X191361000Y-135266250D01*
X191361000Y-134353750D01*
X191362174Y-134329858D01*
X191365684Y-134306197D01*
X191371496Y-134282993D01*
X191379554Y-134260471D01*
X191389782Y-134238847D01*
X191402079Y-134218330D01*
X191416329Y-134199117D01*
X191432393Y-134181393D01*
X191450117Y-134165329D01*
X191469330Y-134151079D01*
X191489847Y-134138782D01*
X191511471Y-134128554D01*
X191533993Y-134120496D01*
X191557197Y-134114684D01*
X191580858Y-134111174D01*
X191604750Y-134110000D01*
X192092250Y-134110000D01*
X192116142Y-134111174D01*
X192116142Y-134111174D01*
G37*
D12*
X191848500Y-134810000D03*
D10*
G36*
X192116142Y-128523174D02*
G01*
X192139803Y-128526684D01*
X192163007Y-128532496D01*
X192185529Y-128540554D01*
X192207153Y-128550782D01*
X192227670Y-128563079D01*
X192246883Y-128577329D01*
X192264607Y-128593393D01*
X192280671Y-128611117D01*
X192294921Y-128630330D01*
X192307218Y-128650847D01*
X192317446Y-128672471D01*
X192325504Y-128694993D01*
X192331316Y-128718197D01*
X192334826Y-128741858D01*
X192336000Y-128765750D01*
X192336000Y-129678250D01*
X192334826Y-129702142D01*
X192331316Y-129725803D01*
X192325504Y-129749007D01*
X192317446Y-129771529D01*
X192307218Y-129793153D01*
X192294921Y-129813670D01*
X192280671Y-129832883D01*
X192264607Y-129850607D01*
X192246883Y-129866671D01*
X192227670Y-129880921D01*
X192207153Y-129893218D01*
X192185529Y-129903446D01*
X192163007Y-129911504D01*
X192139803Y-129917316D01*
X192116142Y-129920826D01*
X192092250Y-129922000D01*
X191604750Y-129922000D01*
X191580858Y-129920826D01*
X191557197Y-129917316D01*
X191533993Y-129911504D01*
X191511471Y-129903446D01*
X191489847Y-129893218D01*
X191469330Y-129880921D01*
X191450117Y-129866671D01*
X191432393Y-129850607D01*
X191416329Y-129832883D01*
X191402079Y-129813670D01*
X191389782Y-129793153D01*
X191379554Y-129771529D01*
X191371496Y-129749007D01*
X191365684Y-129725803D01*
X191362174Y-129702142D01*
X191361000Y-129678250D01*
X191361000Y-128765750D01*
X191362174Y-128741858D01*
X191365684Y-128718197D01*
X191371496Y-128694993D01*
X191379554Y-128672471D01*
X191389782Y-128650847D01*
X191402079Y-128630330D01*
X191416329Y-128611117D01*
X191432393Y-128593393D01*
X191450117Y-128577329D01*
X191469330Y-128563079D01*
X191489847Y-128550782D01*
X191511471Y-128540554D01*
X191533993Y-128532496D01*
X191557197Y-128526684D01*
X191580858Y-128523174D01*
X191604750Y-128522000D01*
X192092250Y-128522000D01*
X192116142Y-128523174D01*
X192116142Y-128523174D01*
G37*
D12*
X191848500Y-129222000D03*
D10*
G36*
X193991142Y-128523174D02*
G01*
X194014803Y-128526684D01*
X194038007Y-128532496D01*
X194060529Y-128540554D01*
X194082153Y-128550782D01*
X194102670Y-128563079D01*
X194121883Y-128577329D01*
X194139607Y-128593393D01*
X194155671Y-128611117D01*
X194169921Y-128630330D01*
X194182218Y-128650847D01*
X194192446Y-128672471D01*
X194200504Y-128694993D01*
X194206316Y-128718197D01*
X194209826Y-128741858D01*
X194211000Y-128765750D01*
X194211000Y-129678250D01*
X194209826Y-129702142D01*
X194206316Y-129725803D01*
X194200504Y-129749007D01*
X194192446Y-129771529D01*
X194182218Y-129793153D01*
X194169921Y-129813670D01*
X194155671Y-129832883D01*
X194139607Y-129850607D01*
X194121883Y-129866671D01*
X194102670Y-129880921D01*
X194082153Y-129893218D01*
X194060529Y-129903446D01*
X194038007Y-129911504D01*
X194014803Y-129917316D01*
X193991142Y-129920826D01*
X193967250Y-129922000D01*
X193479750Y-129922000D01*
X193455858Y-129920826D01*
X193432197Y-129917316D01*
X193408993Y-129911504D01*
X193386471Y-129903446D01*
X193364847Y-129893218D01*
X193344330Y-129880921D01*
X193325117Y-129866671D01*
X193307393Y-129850607D01*
X193291329Y-129832883D01*
X193277079Y-129813670D01*
X193264782Y-129793153D01*
X193254554Y-129771529D01*
X193246496Y-129749007D01*
X193240684Y-129725803D01*
X193237174Y-129702142D01*
X193236000Y-129678250D01*
X193236000Y-128765750D01*
X193237174Y-128741858D01*
X193240684Y-128718197D01*
X193246496Y-128694993D01*
X193254554Y-128672471D01*
X193264782Y-128650847D01*
X193277079Y-128630330D01*
X193291329Y-128611117D01*
X193307393Y-128593393D01*
X193325117Y-128577329D01*
X193344330Y-128563079D01*
X193364847Y-128550782D01*
X193386471Y-128540554D01*
X193408993Y-128532496D01*
X193432197Y-128526684D01*
X193455858Y-128523174D01*
X193479750Y-128522000D01*
X193967250Y-128522000D01*
X193991142Y-128523174D01*
X193991142Y-128523174D01*
G37*
D12*
X193723500Y-129222000D03*
D10*
G36*
X103059142Y-136037174D02*
G01*
X103082803Y-136040684D01*
X103106007Y-136046496D01*
X103128529Y-136054554D01*
X103150153Y-136064782D01*
X103170670Y-136077079D01*
X103189883Y-136091329D01*
X103207607Y-136107393D01*
X103223671Y-136125117D01*
X103237921Y-136144330D01*
X103250218Y-136164847D01*
X103260446Y-136186471D01*
X103268504Y-136208993D01*
X103274316Y-136232197D01*
X103277826Y-136255858D01*
X103279000Y-136279750D01*
X103279000Y-137192250D01*
X103277826Y-137216142D01*
X103274316Y-137239803D01*
X103268504Y-137263007D01*
X103260446Y-137285529D01*
X103250218Y-137307153D01*
X103237921Y-137327670D01*
X103223671Y-137346883D01*
X103207607Y-137364607D01*
X103189883Y-137380671D01*
X103170670Y-137394921D01*
X103150153Y-137407218D01*
X103128529Y-137417446D01*
X103106007Y-137425504D01*
X103082803Y-137431316D01*
X103059142Y-137434826D01*
X103035250Y-137436000D01*
X102547750Y-137436000D01*
X102523858Y-137434826D01*
X102500197Y-137431316D01*
X102476993Y-137425504D01*
X102454471Y-137417446D01*
X102432847Y-137407218D01*
X102412330Y-137394921D01*
X102393117Y-137380671D01*
X102375393Y-137364607D01*
X102359329Y-137346883D01*
X102345079Y-137327670D01*
X102332782Y-137307153D01*
X102322554Y-137285529D01*
X102314496Y-137263007D01*
X102308684Y-137239803D01*
X102305174Y-137216142D01*
X102304000Y-137192250D01*
X102304000Y-136279750D01*
X102305174Y-136255858D01*
X102308684Y-136232197D01*
X102314496Y-136208993D01*
X102322554Y-136186471D01*
X102332782Y-136164847D01*
X102345079Y-136144330D01*
X102359329Y-136125117D01*
X102375393Y-136107393D01*
X102393117Y-136091329D01*
X102412330Y-136077079D01*
X102432847Y-136064782D01*
X102454471Y-136054554D01*
X102476993Y-136046496D01*
X102500197Y-136040684D01*
X102523858Y-136037174D01*
X102547750Y-136036000D01*
X103035250Y-136036000D01*
X103059142Y-136037174D01*
X103059142Y-136037174D01*
G37*
D12*
X102791500Y-136736000D03*
D10*
G36*
X101184142Y-136037174D02*
G01*
X101207803Y-136040684D01*
X101231007Y-136046496D01*
X101253529Y-136054554D01*
X101275153Y-136064782D01*
X101295670Y-136077079D01*
X101314883Y-136091329D01*
X101332607Y-136107393D01*
X101348671Y-136125117D01*
X101362921Y-136144330D01*
X101375218Y-136164847D01*
X101385446Y-136186471D01*
X101393504Y-136208993D01*
X101399316Y-136232197D01*
X101402826Y-136255858D01*
X101404000Y-136279750D01*
X101404000Y-137192250D01*
X101402826Y-137216142D01*
X101399316Y-137239803D01*
X101393504Y-137263007D01*
X101385446Y-137285529D01*
X101375218Y-137307153D01*
X101362921Y-137327670D01*
X101348671Y-137346883D01*
X101332607Y-137364607D01*
X101314883Y-137380671D01*
X101295670Y-137394921D01*
X101275153Y-137407218D01*
X101253529Y-137417446D01*
X101231007Y-137425504D01*
X101207803Y-137431316D01*
X101184142Y-137434826D01*
X101160250Y-137436000D01*
X100672750Y-137436000D01*
X100648858Y-137434826D01*
X100625197Y-137431316D01*
X100601993Y-137425504D01*
X100579471Y-137417446D01*
X100557847Y-137407218D01*
X100537330Y-137394921D01*
X100518117Y-137380671D01*
X100500393Y-137364607D01*
X100484329Y-137346883D01*
X100470079Y-137327670D01*
X100457782Y-137307153D01*
X100447554Y-137285529D01*
X100439496Y-137263007D01*
X100433684Y-137239803D01*
X100430174Y-137216142D01*
X100429000Y-137192250D01*
X100429000Y-136279750D01*
X100430174Y-136255858D01*
X100433684Y-136232197D01*
X100439496Y-136208993D01*
X100447554Y-136186471D01*
X100457782Y-136164847D01*
X100470079Y-136144330D01*
X100484329Y-136125117D01*
X100500393Y-136107393D01*
X100518117Y-136091329D01*
X100537330Y-136077079D01*
X100557847Y-136064782D01*
X100579471Y-136054554D01*
X100601993Y-136046496D01*
X100625197Y-136040684D01*
X100648858Y-136037174D01*
X100672750Y-136036000D01*
X101160250Y-136036000D01*
X101184142Y-136037174D01*
X101184142Y-136037174D01*
G37*
D12*
X100916500Y-136736000D03*
D10*
G36*
X95519504Y-136280204D02*
G01*
X95543773Y-136283804D01*
X95567571Y-136289765D01*
X95590671Y-136298030D01*
X95612849Y-136308520D01*
X95633893Y-136321133D01*
X95653598Y-136335747D01*
X95671777Y-136352223D01*
X95688253Y-136370402D01*
X95702867Y-136390107D01*
X95715480Y-136411151D01*
X95725970Y-136433329D01*
X95734235Y-136456429D01*
X95740196Y-136480227D01*
X95743796Y-136504496D01*
X95745000Y-136529000D01*
X95745000Y-138679000D01*
X95743796Y-138703504D01*
X95740196Y-138727773D01*
X95734235Y-138751571D01*
X95725970Y-138774671D01*
X95715480Y-138796849D01*
X95702867Y-138817893D01*
X95688253Y-138837598D01*
X95671777Y-138855777D01*
X95653598Y-138872253D01*
X95633893Y-138886867D01*
X95612849Y-138899480D01*
X95590671Y-138909970D01*
X95567571Y-138918235D01*
X95543773Y-138924196D01*
X95519504Y-138927796D01*
X95495000Y-138929000D01*
X94745000Y-138929000D01*
X94720496Y-138927796D01*
X94696227Y-138924196D01*
X94672429Y-138918235D01*
X94649329Y-138909970D01*
X94627151Y-138899480D01*
X94606107Y-138886867D01*
X94586402Y-138872253D01*
X94568223Y-138855777D01*
X94551747Y-138837598D01*
X94537133Y-138817893D01*
X94524520Y-138796849D01*
X94514030Y-138774671D01*
X94505765Y-138751571D01*
X94499804Y-138727773D01*
X94496204Y-138703504D01*
X94495000Y-138679000D01*
X94495000Y-136529000D01*
X94496204Y-136504496D01*
X94499804Y-136480227D01*
X94505765Y-136456429D01*
X94514030Y-136433329D01*
X94524520Y-136411151D01*
X94537133Y-136390107D01*
X94551747Y-136370402D01*
X94568223Y-136352223D01*
X94586402Y-136335747D01*
X94606107Y-136321133D01*
X94627151Y-136308520D01*
X94649329Y-136298030D01*
X94672429Y-136289765D01*
X94696227Y-136283804D01*
X94720496Y-136280204D01*
X94745000Y-136279000D01*
X95495000Y-136279000D01*
X95519504Y-136280204D01*
X95519504Y-136280204D01*
G37*
D13*
X95120000Y-137604000D03*
D10*
G36*
X98319504Y-136280204D02*
G01*
X98343773Y-136283804D01*
X98367571Y-136289765D01*
X98390671Y-136298030D01*
X98412849Y-136308520D01*
X98433893Y-136321133D01*
X98453598Y-136335747D01*
X98471777Y-136352223D01*
X98488253Y-136370402D01*
X98502867Y-136390107D01*
X98515480Y-136411151D01*
X98525970Y-136433329D01*
X98534235Y-136456429D01*
X98540196Y-136480227D01*
X98543796Y-136504496D01*
X98545000Y-136529000D01*
X98545000Y-138679000D01*
X98543796Y-138703504D01*
X98540196Y-138727773D01*
X98534235Y-138751571D01*
X98525970Y-138774671D01*
X98515480Y-138796849D01*
X98502867Y-138817893D01*
X98488253Y-138837598D01*
X98471777Y-138855777D01*
X98453598Y-138872253D01*
X98433893Y-138886867D01*
X98412849Y-138899480D01*
X98390671Y-138909970D01*
X98367571Y-138918235D01*
X98343773Y-138924196D01*
X98319504Y-138927796D01*
X98295000Y-138929000D01*
X97545000Y-138929000D01*
X97520496Y-138927796D01*
X97496227Y-138924196D01*
X97472429Y-138918235D01*
X97449329Y-138909970D01*
X97427151Y-138899480D01*
X97406107Y-138886867D01*
X97386402Y-138872253D01*
X97368223Y-138855777D01*
X97351747Y-138837598D01*
X97337133Y-138817893D01*
X97324520Y-138796849D01*
X97314030Y-138774671D01*
X97305765Y-138751571D01*
X97299804Y-138727773D01*
X97296204Y-138703504D01*
X97295000Y-138679000D01*
X97295000Y-136529000D01*
X97296204Y-136504496D01*
X97299804Y-136480227D01*
X97305765Y-136456429D01*
X97314030Y-136433329D01*
X97324520Y-136411151D01*
X97337133Y-136390107D01*
X97351747Y-136370402D01*
X97368223Y-136352223D01*
X97386402Y-136335747D01*
X97406107Y-136321133D01*
X97427151Y-136308520D01*
X97449329Y-136298030D01*
X97472429Y-136289765D01*
X97496227Y-136283804D01*
X97520496Y-136280204D01*
X97545000Y-136279000D01*
X98295000Y-136279000D01*
X98319504Y-136280204D01*
X98319504Y-136280204D01*
G37*
D13*
X97920000Y-137604000D03*
D10*
G36*
X103604142Y-127719674D02*
G01*
X103627803Y-127723184D01*
X103651007Y-127728996D01*
X103673529Y-127737054D01*
X103695153Y-127747282D01*
X103715670Y-127759579D01*
X103734883Y-127773829D01*
X103752607Y-127789893D01*
X103768671Y-127807617D01*
X103782921Y-127826830D01*
X103795218Y-127847347D01*
X103805446Y-127868971D01*
X103813504Y-127891493D01*
X103819316Y-127914697D01*
X103822826Y-127938358D01*
X103824000Y-127962250D01*
X103824000Y-128449750D01*
X103822826Y-128473642D01*
X103819316Y-128497303D01*
X103813504Y-128520507D01*
X103805446Y-128543029D01*
X103795218Y-128564653D01*
X103782921Y-128585170D01*
X103768671Y-128604383D01*
X103752607Y-128622107D01*
X103734883Y-128638171D01*
X103715670Y-128652421D01*
X103695153Y-128664718D01*
X103673529Y-128674946D01*
X103651007Y-128683004D01*
X103627803Y-128688816D01*
X103604142Y-128692326D01*
X103580250Y-128693500D01*
X102667750Y-128693500D01*
X102643858Y-128692326D01*
X102620197Y-128688816D01*
X102596993Y-128683004D01*
X102574471Y-128674946D01*
X102552847Y-128664718D01*
X102532330Y-128652421D01*
X102513117Y-128638171D01*
X102495393Y-128622107D01*
X102479329Y-128604383D01*
X102465079Y-128585170D01*
X102452782Y-128564653D01*
X102442554Y-128543029D01*
X102434496Y-128520507D01*
X102428684Y-128497303D01*
X102425174Y-128473642D01*
X102424000Y-128449750D01*
X102424000Y-127962250D01*
X102425174Y-127938358D01*
X102428684Y-127914697D01*
X102434496Y-127891493D01*
X102442554Y-127868971D01*
X102452782Y-127847347D01*
X102465079Y-127826830D01*
X102479329Y-127807617D01*
X102495393Y-127789893D01*
X102513117Y-127773829D01*
X102532330Y-127759579D01*
X102552847Y-127747282D01*
X102574471Y-127737054D01*
X102596993Y-127728996D01*
X102620197Y-127723184D01*
X102643858Y-127719674D01*
X102667750Y-127718500D01*
X103580250Y-127718500D01*
X103604142Y-127719674D01*
X103604142Y-127719674D01*
G37*
D12*
X103124000Y-128206000D03*
D10*
G36*
X103604142Y-129594674D02*
G01*
X103627803Y-129598184D01*
X103651007Y-129603996D01*
X103673529Y-129612054D01*
X103695153Y-129622282D01*
X103715670Y-129634579D01*
X103734883Y-129648829D01*
X103752607Y-129664893D01*
X103768671Y-129682617D01*
X103782921Y-129701830D01*
X103795218Y-129722347D01*
X103805446Y-129743971D01*
X103813504Y-129766493D01*
X103819316Y-129789697D01*
X103822826Y-129813358D01*
X103824000Y-129837250D01*
X103824000Y-130324750D01*
X103822826Y-130348642D01*
X103819316Y-130372303D01*
X103813504Y-130395507D01*
X103805446Y-130418029D01*
X103795218Y-130439653D01*
X103782921Y-130460170D01*
X103768671Y-130479383D01*
X103752607Y-130497107D01*
X103734883Y-130513171D01*
X103715670Y-130527421D01*
X103695153Y-130539718D01*
X103673529Y-130549946D01*
X103651007Y-130558004D01*
X103627803Y-130563816D01*
X103604142Y-130567326D01*
X103580250Y-130568500D01*
X102667750Y-130568500D01*
X102643858Y-130567326D01*
X102620197Y-130563816D01*
X102596993Y-130558004D01*
X102574471Y-130549946D01*
X102552847Y-130539718D01*
X102532330Y-130527421D01*
X102513117Y-130513171D01*
X102495393Y-130497107D01*
X102479329Y-130479383D01*
X102465079Y-130460170D01*
X102452782Y-130439653D01*
X102442554Y-130418029D01*
X102434496Y-130395507D01*
X102428684Y-130372303D01*
X102425174Y-130348642D01*
X102424000Y-130324750D01*
X102424000Y-129837250D01*
X102425174Y-129813358D01*
X102428684Y-129789697D01*
X102434496Y-129766493D01*
X102442554Y-129743971D01*
X102452782Y-129722347D01*
X102465079Y-129701830D01*
X102479329Y-129682617D01*
X102495393Y-129664893D01*
X102513117Y-129648829D01*
X102532330Y-129634579D01*
X102552847Y-129622282D01*
X102574471Y-129612054D01*
X102596993Y-129603996D01*
X102620197Y-129598184D01*
X102643858Y-129594674D01*
X102667750Y-129593500D01*
X103580250Y-129593500D01*
X103604142Y-129594674D01*
X103604142Y-129594674D01*
G37*
D12*
X103124000Y-130081000D03*
D10*
G36*
X101310642Y-133827174D02*
G01*
X101334303Y-133830684D01*
X101357507Y-133836496D01*
X101380029Y-133844554D01*
X101401653Y-133854782D01*
X101422170Y-133867079D01*
X101441383Y-133881329D01*
X101459107Y-133897393D01*
X101475171Y-133915117D01*
X101489421Y-133934330D01*
X101501718Y-133954847D01*
X101511946Y-133976471D01*
X101520004Y-133998993D01*
X101525816Y-134022197D01*
X101529326Y-134045858D01*
X101530500Y-134069750D01*
X101530500Y-134982250D01*
X101529326Y-135006142D01*
X101525816Y-135029803D01*
X101520004Y-135053007D01*
X101511946Y-135075529D01*
X101501718Y-135097153D01*
X101489421Y-135117670D01*
X101475171Y-135136883D01*
X101459107Y-135154607D01*
X101441383Y-135170671D01*
X101422170Y-135184921D01*
X101401653Y-135197218D01*
X101380029Y-135207446D01*
X101357507Y-135215504D01*
X101334303Y-135221316D01*
X101310642Y-135224826D01*
X101286750Y-135226000D01*
X100799250Y-135226000D01*
X100775358Y-135224826D01*
X100751697Y-135221316D01*
X100728493Y-135215504D01*
X100705971Y-135207446D01*
X100684347Y-135197218D01*
X100663830Y-135184921D01*
X100644617Y-135170671D01*
X100626893Y-135154607D01*
X100610829Y-135136883D01*
X100596579Y-135117670D01*
X100584282Y-135097153D01*
X100574054Y-135075529D01*
X100565996Y-135053007D01*
X100560184Y-135029803D01*
X100556674Y-135006142D01*
X100555500Y-134982250D01*
X100555500Y-134069750D01*
X100556674Y-134045858D01*
X100560184Y-134022197D01*
X100565996Y-133998993D01*
X100574054Y-133976471D01*
X100584282Y-133954847D01*
X100596579Y-133934330D01*
X100610829Y-133915117D01*
X100626893Y-133897393D01*
X100644617Y-133881329D01*
X100663830Y-133867079D01*
X100684347Y-133854782D01*
X100705971Y-133844554D01*
X100728493Y-133836496D01*
X100751697Y-133830684D01*
X100775358Y-133827174D01*
X100799250Y-133826000D01*
X101286750Y-133826000D01*
X101310642Y-133827174D01*
X101310642Y-133827174D01*
G37*
D12*
X101043000Y-134526000D03*
D10*
G36*
X103185642Y-133827174D02*
G01*
X103209303Y-133830684D01*
X103232507Y-133836496D01*
X103255029Y-133844554D01*
X103276653Y-133854782D01*
X103297170Y-133867079D01*
X103316383Y-133881329D01*
X103334107Y-133897393D01*
X103350171Y-133915117D01*
X103364421Y-133934330D01*
X103376718Y-133954847D01*
X103386946Y-133976471D01*
X103395004Y-133998993D01*
X103400816Y-134022197D01*
X103404326Y-134045858D01*
X103405500Y-134069750D01*
X103405500Y-134982250D01*
X103404326Y-135006142D01*
X103400816Y-135029803D01*
X103395004Y-135053007D01*
X103386946Y-135075529D01*
X103376718Y-135097153D01*
X103364421Y-135117670D01*
X103350171Y-135136883D01*
X103334107Y-135154607D01*
X103316383Y-135170671D01*
X103297170Y-135184921D01*
X103276653Y-135197218D01*
X103255029Y-135207446D01*
X103232507Y-135215504D01*
X103209303Y-135221316D01*
X103185642Y-135224826D01*
X103161750Y-135226000D01*
X102674250Y-135226000D01*
X102650358Y-135224826D01*
X102626697Y-135221316D01*
X102603493Y-135215504D01*
X102580971Y-135207446D01*
X102559347Y-135197218D01*
X102538830Y-135184921D01*
X102519617Y-135170671D01*
X102501893Y-135154607D01*
X102485829Y-135136883D01*
X102471579Y-135117670D01*
X102459282Y-135097153D01*
X102449054Y-135075529D01*
X102440996Y-135053007D01*
X102435184Y-135029803D01*
X102431674Y-135006142D01*
X102430500Y-134982250D01*
X102430500Y-134069750D01*
X102431674Y-134045858D01*
X102435184Y-134022197D01*
X102440996Y-133998993D01*
X102449054Y-133976471D01*
X102459282Y-133954847D01*
X102471579Y-133934330D01*
X102485829Y-133915117D01*
X102501893Y-133897393D01*
X102519617Y-133881329D01*
X102538830Y-133867079D01*
X102559347Y-133854782D01*
X102580971Y-133844554D01*
X102603493Y-133836496D01*
X102626697Y-133830684D01*
X102650358Y-133827174D01*
X102674250Y-133826000D01*
X103161750Y-133826000D01*
X103185642Y-133827174D01*
X103185642Y-133827174D01*
G37*
D12*
X102918000Y-134526000D03*
D10*
G36*
X103567142Y-138175174D02*
G01*
X103590803Y-138178684D01*
X103614007Y-138184496D01*
X103636529Y-138192554D01*
X103658153Y-138202782D01*
X103678670Y-138215079D01*
X103697883Y-138229329D01*
X103715607Y-138245393D01*
X103731671Y-138263117D01*
X103745921Y-138282330D01*
X103758218Y-138302847D01*
X103768446Y-138324471D01*
X103776504Y-138346993D01*
X103782316Y-138370197D01*
X103785826Y-138393858D01*
X103787000Y-138417750D01*
X103787000Y-139330250D01*
X103785826Y-139354142D01*
X103782316Y-139377803D01*
X103776504Y-139401007D01*
X103768446Y-139423529D01*
X103758218Y-139445153D01*
X103745921Y-139465670D01*
X103731671Y-139484883D01*
X103715607Y-139502607D01*
X103697883Y-139518671D01*
X103678670Y-139532921D01*
X103658153Y-139545218D01*
X103636529Y-139555446D01*
X103614007Y-139563504D01*
X103590803Y-139569316D01*
X103567142Y-139572826D01*
X103543250Y-139574000D01*
X103055750Y-139574000D01*
X103031858Y-139572826D01*
X103008197Y-139569316D01*
X102984993Y-139563504D01*
X102962471Y-139555446D01*
X102940847Y-139545218D01*
X102920330Y-139532921D01*
X102901117Y-139518671D01*
X102883393Y-139502607D01*
X102867329Y-139484883D01*
X102853079Y-139465670D01*
X102840782Y-139445153D01*
X102830554Y-139423529D01*
X102822496Y-139401007D01*
X102816684Y-139377803D01*
X102813174Y-139354142D01*
X102812000Y-139330250D01*
X102812000Y-138417750D01*
X102813174Y-138393858D01*
X102816684Y-138370197D01*
X102822496Y-138346993D01*
X102830554Y-138324471D01*
X102840782Y-138302847D01*
X102853079Y-138282330D01*
X102867329Y-138263117D01*
X102883393Y-138245393D01*
X102901117Y-138229329D01*
X102920330Y-138215079D01*
X102940847Y-138202782D01*
X102962471Y-138192554D01*
X102984993Y-138184496D01*
X103008197Y-138178684D01*
X103031858Y-138175174D01*
X103055750Y-138174000D01*
X103543250Y-138174000D01*
X103567142Y-138175174D01*
X103567142Y-138175174D01*
G37*
D12*
X103299500Y-138874000D03*
D10*
G36*
X101692142Y-138175174D02*
G01*
X101715803Y-138178684D01*
X101739007Y-138184496D01*
X101761529Y-138192554D01*
X101783153Y-138202782D01*
X101803670Y-138215079D01*
X101822883Y-138229329D01*
X101840607Y-138245393D01*
X101856671Y-138263117D01*
X101870921Y-138282330D01*
X101883218Y-138302847D01*
X101893446Y-138324471D01*
X101901504Y-138346993D01*
X101907316Y-138370197D01*
X101910826Y-138393858D01*
X101912000Y-138417750D01*
X101912000Y-139330250D01*
X101910826Y-139354142D01*
X101907316Y-139377803D01*
X101901504Y-139401007D01*
X101893446Y-139423529D01*
X101883218Y-139445153D01*
X101870921Y-139465670D01*
X101856671Y-139484883D01*
X101840607Y-139502607D01*
X101822883Y-139518671D01*
X101803670Y-139532921D01*
X101783153Y-139545218D01*
X101761529Y-139555446D01*
X101739007Y-139563504D01*
X101715803Y-139569316D01*
X101692142Y-139572826D01*
X101668250Y-139574000D01*
X101180750Y-139574000D01*
X101156858Y-139572826D01*
X101133197Y-139569316D01*
X101109993Y-139563504D01*
X101087471Y-139555446D01*
X101065847Y-139545218D01*
X101045330Y-139532921D01*
X101026117Y-139518671D01*
X101008393Y-139502607D01*
X100992329Y-139484883D01*
X100978079Y-139465670D01*
X100965782Y-139445153D01*
X100955554Y-139423529D01*
X100947496Y-139401007D01*
X100941684Y-139377803D01*
X100938174Y-139354142D01*
X100937000Y-139330250D01*
X100937000Y-138417750D01*
X100938174Y-138393858D01*
X100941684Y-138370197D01*
X100947496Y-138346993D01*
X100955554Y-138324471D01*
X100965782Y-138302847D01*
X100978079Y-138282330D01*
X100992329Y-138263117D01*
X101008393Y-138245393D01*
X101026117Y-138229329D01*
X101045330Y-138215079D01*
X101065847Y-138202782D01*
X101087471Y-138192554D01*
X101109993Y-138184496D01*
X101133197Y-138178684D01*
X101156858Y-138175174D01*
X101180750Y-138174000D01*
X101668250Y-138174000D01*
X101692142Y-138175174D01*
X101692142Y-138175174D01*
G37*
D12*
X101424500Y-138874000D03*
D10*
G36*
X191772142Y-76229174D02*
G01*
X191795803Y-76232684D01*
X191819007Y-76238496D01*
X191841529Y-76246554D01*
X191863153Y-76256782D01*
X191883670Y-76269079D01*
X191902883Y-76283329D01*
X191920607Y-76299393D01*
X191936671Y-76317117D01*
X191950921Y-76336330D01*
X191963218Y-76356847D01*
X191973446Y-76378471D01*
X191981504Y-76400993D01*
X191987316Y-76424197D01*
X191990826Y-76447858D01*
X191992000Y-76471750D01*
X191992000Y-77384250D01*
X191990826Y-77408142D01*
X191987316Y-77431803D01*
X191981504Y-77455007D01*
X191973446Y-77477529D01*
X191963218Y-77499153D01*
X191950921Y-77519670D01*
X191936671Y-77538883D01*
X191920607Y-77556607D01*
X191902883Y-77572671D01*
X191883670Y-77586921D01*
X191863153Y-77599218D01*
X191841529Y-77609446D01*
X191819007Y-77617504D01*
X191795803Y-77623316D01*
X191772142Y-77626826D01*
X191748250Y-77628000D01*
X191260750Y-77628000D01*
X191236858Y-77626826D01*
X191213197Y-77623316D01*
X191189993Y-77617504D01*
X191167471Y-77609446D01*
X191145847Y-77599218D01*
X191125330Y-77586921D01*
X191106117Y-77572671D01*
X191088393Y-77556607D01*
X191072329Y-77538883D01*
X191058079Y-77519670D01*
X191045782Y-77499153D01*
X191035554Y-77477529D01*
X191027496Y-77455007D01*
X191021684Y-77431803D01*
X191018174Y-77408142D01*
X191017000Y-77384250D01*
X191017000Y-76471750D01*
X191018174Y-76447858D01*
X191021684Y-76424197D01*
X191027496Y-76400993D01*
X191035554Y-76378471D01*
X191045782Y-76356847D01*
X191058079Y-76336330D01*
X191072329Y-76317117D01*
X191088393Y-76299393D01*
X191106117Y-76283329D01*
X191125330Y-76269079D01*
X191145847Y-76256782D01*
X191167471Y-76246554D01*
X191189993Y-76238496D01*
X191213197Y-76232684D01*
X191236858Y-76229174D01*
X191260750Y-76228000D01*
X191748250Y-76228000D01*
X191772142Y-76229174D01*
X191772142Y-76229174D01*
G37*
D12*
X191504500Y-76928000D03*
D10*
G36*
X193647142Y-76229174D02*
G01*
X193670803Y-76232684D01*
X193694007Y-76238496D01*
X193716529Y-76246554D01*
X193738153Y-76256782D01*
X193758670Y-76269079D01*
X193777883Y-76283329D01*
X193795607Y-76299393D01*
X193811671Y-76317117D01*
X193825921Y-76336330D01*
X193838218Y-76356847D01*
X193848446Y-76378471D01*
X193856504Y-76400993D01*
X193862316Y-76424197D01*
X193865826Y-76447858D01*
X193867000Y-76471750D01*
X193867000Y-77384250D01*
X193865826Y-77408142D01*
X193862316Y-77431803D01*
X193856504Y-77455007D01*
X193848446Y-77477529D01*
X193838218Y-77499153D01*
X193825921Y-77519670D01*
X193811671Y-77538883D01*
X193795607Y-77556607D01*
X193777883Y-77572671D01*
X193758670Y-77586921D01*
X193738153Y-77599218D01*
X193716529Y-77609446D01*
X193694007Y-77617504D01*
X193670803Y-77623316D01*
X193647142Y-77626826D01*
X193623250Y-77628000D01*
X193135750Y-77628000D01*
X193111858Y-77626826D01*
X193088197Y-77623316D01*
X193064993Y-77617504D01*
X193042471Y-77609446D01*
X193020847Y-77599218D01*
X193000330Y-77586921D01*
X192981117Y-77572671D01*
X192963393Y-77556607D01*
X192947329Y-77538883D01*
X192933079Y-77519670D01*
X192920782Y-77499153D01*
X192910554Y-77477529D01*
X192902496Y-77455007D01*
X192896684Y-77431803D01*
X192893174Y-77408142D01*
X192892000Y-77384250D01*
X192892000Y-76471750D01*
X192893174Y-76447858D01*
X192896684Y-76424197D01*
X192902496Y-76400993D01*
X192910554Y-76378471D01*
X192920782Y-76356847D01*
X192933079Y-76336330D01*
X192947329Y-76317117D01*
X192963393Y-76299393D01*
X192981117Y-76283329D01*
X193000330Y-76269079D01*
X193020847Y-76256782D01*
X193042471Y-76246554D01*
X193064993Y-76238496D01*
X193088197Y-76232684D01*
X193111858Y-76229174D01*
X193135750Y-76228000D01*
X193623250Y-76228000D01*
X193647142Y-76229174D01*
X193647142Y-76229174D01*
G37*
D12*
X193379500Y-76928000D03*
D10*
G36*
X191996142Y-84843174D02*
G01*
X192019803Y-84846684D01*
X192043007Y-84852496D01*
X192065529Y-84860554D01*
X192087153Y-84870782D01*
X192107670Y-84883079D01*
X192126883Y-84897329D01*
X192144607Y-84913393D01*
X192160671Y-84931117D01*
X192174921Y-84950330D01*
X192187218Y-84970847D01*
X192197446Y-84992471D01*
X192205504Y-85014993D01*
X192211316Y-85038197D01*
X192214826Y-85061858D01*
X192216000Y-85085750D01*
X192216000Y-85573250D01*
X192214826Y-85597142D01*
X192211316Y-85620803D01*
X192205504Y-85644007D01*
X192197446Y-85666529D01*
X192187218Y-85688153D01*
X192174921Y-85708670D01*
X192160671Y-85727883D01*
X192144607Y-85745607D01*
X192126883Y-85761671D01*
X192107670Y-85775921D01*
X192087153Y-85788218D01*
X192065529Y-85798446D01*
X192043007Y-85806504D01*
X192019803Y-85812316D01*
X191996142Y-85815826D01*
X191972250Y-85817000D01*
X191059750Y-85817000D01*
X191035858Y-85815826D01*
X191012197Y-85812316D01*
X190988993Y-85806504D01*
X190966471Y-85798446D01*
X190944847Y-85788218D01*
X190924330Y-85775921D01*
X190905117Y-85761671D01*
X190887393Y-85745607D01*
X190871329Y-85727883D01*
X190857079Y-85708670D01*
X190844782Y-85688153D01*
X190834554Y-85666529D01*
X190826496Y-85644007D01*
X190820684Y-85620803D01*
X190817174Y-85597142D01*
X190816000Y-85573250D01*
X190816000Y-85085750D01*
X190817174Y-85061858D01*
X190820684Y-85038197D01*
X190826496Y-85014993D01*
X190834554Y-84992471D01*
X190844782Y-84970847D01*
X190857079Y-84950330D01*
X190871329Y-84931117D01*
X190887393Y-84913393D01*
X190905117Y-84897329D01*
X190924330Y-84883079D01*
X190944847Y-84870782D01*
X190966471Y-84860554D01*
X190988993Y-84852496D01*
X191012197Y-84846684D01*
X191035858Y-84843174D01*
X191059750Y-84842000D01*
X191972250Y-84842000D01*
X191996142Y-84843174D01*
X191996142Y-84843174D01*
G37*
D12*
X191516000Y-85329500D03*
D10*
G36*
X191996142Y-82968174D02*
G01*
X192019803Y-82971684D01*
X192043007Y-82977496D01*
X192065529Y-82985554D01*
X192087153Y-82995782D01*
X192107670Y-83008079D01*
X192126883Y-83022329D01*
X192144607Y-83038393D01*
X192160671Y-83056117D01*
X192174921Y-83075330D01*
X192187218Y-83095847D01*
X192197446Y-83117471D01*
X192205504Y-83139993D01*
X192211316Y-83163197D01*
X192214826Y-83186858D01*
X192216000Y-83210750D01*
X192216000Y-83698250D01*
X192214826Y-83722142D01*
X192211316Y-83745803D01*
X192205504Y-83769007D01*
X192197446Y-83791529D01*
X192187218Y-83813153D01*
X192174921Y-83833670D01*
X192160671Y-83852883D01*
X192144607Y-83870607D01*
X192126883Y-83886671D01*
X192107670Y-83900921D01*
X192087153Y-83913218D01*
X192065529Y-83923446D01*
X192043007Y-83931504D01*
X192019803Y-83937316D01*
X191996142Y-83940826D01*
X191972250Y-83942000D01*
X191059750Y-83942000D01*
X191035858Y-83940826D01*
X191012197Y-83937316D01*
X190988993Y-83931504D01*
X190966471Y-83923446D01*
X190944847Y-83913218D01*
X190924330Y-83900921D01*
X190905117Y-83886671D01*
X190887393Y-83870607D01*
X190871329Y-83852883D01*
X190857079Y-83833670D01*
X190844782Y-83813153D01*
X190834554Y-83791529D01*
X190826496Y-83769007D01*
X190820684Y-83745803D01*
X190817174Y-83722142D01*
X190816000Y-83698250D01*
X190816000Y-83210750D01*
X190817174Y-83186858D01*
X190820684Y-83163197D01*
X190826496Y-83139993D01*
X190834554Y-83117471D01*
X190844782Y-83095847D01*
X190857079Y-83075330D01*
X190871329Y-83056117D01*
X190887393Y-83038393D01*
X190905117Y-83022329D01*
X190924330Y-83008079D01*
X190944847Y-82995782D01*
X190966471Y-82985554D01*
X190988993Y-82977496D01*
X191012197Y-82971684D01*
X191035858Y-82968174D01*
X191059750Y-82967000D01*
X191972250Y-82967000D01*
X191996142Y-82968174D01*
X191996142Y-82968174D01*
G37*
D12*
X191516000Y-83454500D03*
D10*
G36*
X193664642Y-78489174D02*
G01*
X193688303Y-78492684D01*
X193711507Y-78498496D01*
X193734029Y-78506554D01*
X193755653Y-78516782D01*
X193776170Y-78529079D01*
X193795383Y-78543329D01*
X193813107Y-78559393D01*
X193829171Y-78577117D01*
X193843421Y-78596330D01*
X193855718Y-78616847D01*
X193865946Y-78638471D01*
X193874004Y-78660993D01*
X193879816Y-78684197D01*
X193883326Y-78707858D01*
X193884500Y-78731750D01*
X193884500Y-79644250D01*
X193883326Y-79668142D01*
X193879816Y-79691803D01*
X193874004Y-79715007D01*
X193865946Y-79737529D01*
X193855718Y-79759153D01*
X193843421Y-79779670D01*
X193829171Y-79798883D01*
X193813107Y-79816607D01*
X193795383Y-79832671D01*
X193776170Y-79846921D01*
X193755653Y-79859218D01*
X193734029Y-79869446D01*
X193711507Y-79877504D01*
X193688303Y-79883316D01*
X193664642Y-79886826D01*
X193640750Y-79888000D01*
X193153250Y-79888000D01*
X193129358Y-79886826D01*
X193105697Y-79883316D01*
X193082493Y-79877504D01*
X193059971Y-79869446D01*
X193038347Y-79859218D01*
X193017830Y-79846921D01*
X192998617Y-79832671D01*
X192980893Y-79816607D01*
X192964829Y-79798883D01*
X192950579Y-79779670D01*
X192938282Y-79759153D01*
X192928054Y-79737529D01*
X192919996Y-79715007D01*
X192914184Y-79691803D01*
X192910674Y-79668142D01*
X192909500Y-79644250D01*
X192909500Y-78731750D01*
X192910674Y-78707858D01*
X192914184Y-78684197D01*
X192919996Y-78660993D01*
X192928054Y-78638471D01*
X192938282Y-78616847D01*
X192950579Y-78596330D01*
X192964829Y-78577117D01*
X192980893Y-78559393D01*
X192998617Y-78543329D01*
X193017830Y-78529079D01*
X193038347Y-78516782D01*
X193059971Y-78506554D01*
X193082493Y-78498496D01*
X193105697Y-78492684D01*
X193129358Y-78489174D01*
X193153250Y-78488000D01*
X193640750Y-78488000D01*
X193664642Y-78489174D01*
X193664642Y-78489174D01*
G37*
D12*
X193397000Y-79188000D03*
D10*
G36*
X191789642Y-78489174D02*
G01*
X191813303Y-78492684D01*
X191836507Y-78498496D01*
X191859029Y-78506554D01*
X191880653Y-78516782D01*
X191901170Y-78529079D01*
X191920383Y-78543329D01*
X191938107Y-78559393D01*
X191954171Y-78577117D01*
X191968421Y-78596330D01*
X191980718Y-78616847D01*
X191990946Y-78638471D01*
X191999004Y-78660993D01*
X192004816Y-78684197D01*
X192008326Y-78707858D01*
X192009500Y-78731750D01*
X192009500Y-79644250D01*
X192008326Y-79668142D01*
X192004816Y-79691803D01*
X191999004Y-79715007D01*
X191990946Y-79737529D01*
X191980718Y-79759153D01*
X191968421Y-79779670D01*
X191954171Y-79798883D01*
X191938107Y-79816607D01*
X191920383Y-79832671D01*
X191901170Y-79846921D01*
X191880653Y-79859218D01*
X191859029Y-79869446D01*
X191836507Y-79877504D01*
X191813303Y-79883316D01*
X191789642Y-79886826D01*
X191765750Y-79888000D01*
X191278250Y-79888000D01*
X191254358Y-79886826D01*
X191230697Y-79883316D01*
X191207493Y-79877504D01*
X191184971Y-79869446D01*
X191163347Y-79859218D01*
X191142830Y-79846921D01*
X191123617Y-79832671D01*
X191105893Y-79816607D01*
X191089829Y-79798883D01*
X191075579Y-79779670D01*
X191063282Y-79759153D01*
X191053054Y-79737529D01*
X191044996Y-79715007D01*
X191039184Y-79691803D01*
X191035674Y-79668142D01*
X191034500Y-79644250D01*
X191034500Y-78731750D01*
X191035674Y-78707858D01*
X191039184Y-78684197D01*
X191044996Y-78660993D01*
X191053054Y-78638471D01*
X191063282Y-78616847D01*
X191075579Y-78596330D01*
X191089829Y-78577117D01*
X191105893Y-78559393D01*
X191123617Y-78543329D01*
X191142830Y-78529079D01*
X191163347Y-78516782D01*
X191184971Y-78506554D01*
X191207493Y-78498496D01*
X191230697Y-78492684D01*
X191254358Y-78489174D01*
X191278250Y-78488000D01*
X191765750Y-78488000D01*
X191789642Y-78489174D01*
X191789642Y-78489174D01*
G37*
D12*
X191522000Y-79188000D03*
D10*
G36*
X191682142Y-74041174D02*
G01*
X191705803Y-74044684D01*
X191729007Y-74050496D01*
X191751529Y-74058554D01*
X191773153Y-74068782D01*
X191793670Y-74081079D01*
X191812883Y-74095329D01*
X191830607Y-74111393D01*
X191846671Y-74129117D01*
X191860921Y-74148330D01*
X191873218Y-74168847D01*
X191883446Y-74190471D01*
X191891504Y-74212993D01*
X191897316Y-74236197D01*
X191900826Y-74259858D01*
X191902000Y-74283750D01*
X191902000Y-75196250D01*
X191900826Y-75220142D01*
X191897316Y-75243803D01*
X191891504Y-75267007D01*
X191883446Y-75289529D01*
X191873218Y-75311153D01*
X191860921Y-75331670D01*
X191846671Y-75350883D01*
X191830607Y-75368607D01*
X191812883Y-75384671D01*
X191793670Y-75398921D01*
X191773153Y-75411218D01*
X191751529Y-75421446D01*
X191729007Y-75429504D01*
X191705803Y-75435316D01*
X191682142Y-75438826D01*
X191658250Y-75440000D01*
X191170750Y-75440000D01*
X191146858Y-75438826D01*
X191123197Y-75435316D01*
X191099993Y-75429504D01*
X191077471Y-75421446D01*
X191055847Y-75411218D01*
X191035330Y-75398921D01*
X191016117Y-75384671D01*
X190998393Y-75368607D01*
X190982329Y-75350883D01*
X190968079Y-75331670D01*
X190955782Y-75311153D01*
X190945554Y-75289529D01*
X190937496Y-75267007D01*
X190931684Y-75243803D01*
X190928174Y-75220142D01*
X190927000Y-75196250D01*
X190927000Y-74283750D01*
X190928174Y-74259858D01*
X190931684Y-74236197D01*
X190937496Y-74212993D01*
X190945554Y-74190471D01*
X190955782Y-74168847D01*
X190968079Y-74148330D01*
X190982329Y-74129117D01*
X190998393Y-74111393D01*
X191016117Y-74095329D01*
X191035330Y-74081079D01*
X191055847Y-74068782D01*
X191077471Y-74058554D01*
X191099993Y-74050496D01*
X191123197Y-74044684D01*
X191146858Y-74041174D01*
X191170750Y-74040000D01*
X191658250Y-74040000D01*
X191682142Y-74041174D01*
X191682142Y-74041174D01*
G37*
D12*
X191414500Y-74740000D03*
D10*
G36*
X193557142Y-74041174D02*
G01*
X193580803Y-74044684D01*
X193604007Y-74050496D01*
X193626529Y-74058554D01*
X193648153Y-74068782D01*
X193668670Y-74081079D01*
X193687883Y-74095329D01*
X193705607Y-74111393D01*
X193721671Y-74129117D01*
X193735921Y-74148330D01*
X193748218Y-74168847D01*
X193758446Y-74190471D01*
X193766504Y-74212993D01*
X193772316Y-74236197D01*
X193775826Y-74259858D01*
X193777000Y-74283750D01*
X193777000Y-75196250D01*
X193775826Y-75220142D01*
X193772316Y-75243803D01*
X193766504Y-75267007D01*
X193758446Y-75289529D01*
X193748218Y-75311153D01*
X193735921Y-75331670D01*
X193721671Y-75350883D01*
X193705607Y-75368607D01*
X193687883Y-75384671D01*
X193668670Y-75398921D01*
X193648153Y-75411218D01*
X193626529Y-75421446D01*
X193604007Y-75429504D01*
X193580803Y-75435316D01*
X193557142Y-75438826D01*
X193533250Y-75440000D01*
X193045750Y-75440000D01*
X193021858Y-75438826D01*
X192998197Y-75435316D01*
X192974993Y-75429504D01*
X192952471Y-75421446D01*
X192930847Y-75411218D01*
X192910330Y-75398921D01*
X192891117Y-75384671D01*
X192873393Y-75368607D01*
X192857329Y-75350883D01*
X192843079Y-75331670D01*
X192830782Y-75311153D01*
X192820554Y-75289529D01*
X192812496Y-75267007D01*
X192806684Y-75243803D01*
X192803174Y-75220142D01*
X192802000Y-75196250D01*
X192802000Y-74283750D01*
X192803174Y-74259858D01*
X192806684Y-74236197D01*
X192812496Y-74212993D01*
X192820554Y-74190471D01*
X192830782Y-74168847D01*
X192843079Y-74148330D01*
X192857329Y-74129117D01*
X192873393Y-74111393D01*
X192891117Y-74095329D01*
X192910330Y-74081079D01*
X192930847Y-74068782D01*
X192952471Y-74058554D01*
X192974993Y-74050496D01*
X192998197Y-74044684D01*
X193021858Y-74041174D01*
X193045750Y-74040000D01*
X193533250Y-74040000D01*
X193557142Y-74041174D01*
X193557142Y-74041174D01*
G37*
D12*
X193289500Y-74740000D03*
D10*
G36*
X101867642Y-83185174D02*
G01*
X101891303Y-83188684D01*
X101914507Y-83194496D01*
X101937029Y-83202554D01*
X101958653Y-83212782D01*
X101979170Y-83225079D01*
X101998383Y-83239329D01*
X102016107Y-83255393D01*
X102032171Y-83273117D01*
X102046421Y-83292330D01*
X102058718Y-83312847D01*
X102068946Y-83334471D01*
X102077004Y-83356993D01*
X102082816Y-83380197D01*
X102086326Y-83403858D01*
X102087500Y-83427750D01*
X102087500Y-84340250D01*
X102086326Y-84364142D01*
X102082816Y-84387803D01*
X102077004Y-84411007D01*
X102068946Y-84433529D01*
X102058718Y-84455153D01*
X102046421Y-84475670D01*
X102032171Y-84494883D01*
X102016107Y-84512607D01*
X101998383Y-84528671D01*
X101979170Y-84542921D01*
X101958653Y-84555218D01*
X101937029Y-84565446D01*
X101914507Y-84573504D01*
X101891303Y-84579316D01*
X101867642Y-84582826D01*
X101843750Y-84584000D01*
X101356250Y-84584000D01*
X101332358Y-84582826D01*
X101308697Y-84579316D01*
X101285493Y-84573504D01*
X101262971Y-84565446D01*
X101241347Y-84555218D01*
X101220830Y-84542921D01*
X101201617Y-84528671D01*
X101183893Y-84512607D01*
X101167829Y-84494883D01*
X101153579Y-84475670D01*
X101141282Y-84455153D01*
X101131054Y-84433529D01*
X101122996Y-84411007D01*
X101117184Y-84387803D01*
X101113674Y-84364142D01*
X101112500Y-84340250D01*
X101112500Y-83427750D01*
X101113674Y-83403858D01*
X101117184Y-83380197D01*
X101122996Y-83356993D01*
X101131054Y-83334471D01*
X101141282Y-83312847D01*
X101153579Y-83292330D01*
X101167829Y-83273117D01*
X101183893Y-83255393D01*
X101201617Y-83239329D01*
X101220830Y-83225079D01*
X101241347Y-83212782D01*
X101262971Y-83202554D01*
X101285493Y-83194496D01*
X101308697Y-83188684D01*
X101332358Y-83185174D01*
X101356250Y-83184000D01*
X101843750Y-83184000D01*
X101867642Y-83185174D01*
X101867642Y-83185174D01*
G37*
D12*
X101600000Y-83884000D03*
D10*
G36*
X103742642Y-83185174D02*
G01*
X103766303Y-83188684D01*
X103789507Y-83194496D01*
X103812029Y-83202554D01*
X103833653Y-83212782D01*
X103854170Y-83225079D01*
X103873383Y-83239329D01*
X103891107Y-83255393D01*
X103907171Y-83273117D01*
X103921421Y-83292330D01*
X103933718Y-83312847D01*
X103943946Y-83334471D01*
X103952004Y-83356993D01*
X103957816Y-83380197D01*
X103961326Y-83403858D01*
X103962500Y-83427750D01*
X103962500Y-84340250D01*
X103961326Y-84364142D01*
X103957816Y-84387803D01*
X103952004Y-84411007D01*
X103943946Y-84433529D01*
X103933718Y-84455153D01*
X103921421Y-84475670D01*
X103907171Y-84494883D01*
X103891107Y-84512607D01*
X103873383Y-84528671D01*
X103854170Y-84542921D01*
X103833653Y-84555218D01*
X103812029Y-84565446D01*
X103789507Y-84573504D01*
X103766303Y-84579316D01*
X103742642Y-84582826D01*
X103718750Y-84584000D01*
X103231250Y-84584000D01*
X103207358Y-84582826D01*
X103183697Y-84579316D01*
X103160493Y-84573504D01*
X103137971Y-84565446D01*
X103116347Y-84555218D01*
X103095830Y-84542921D01*
X103076617Y-84528671D01*
X103058893Y-84512607D01*
X103042829Y-84494883D01*
X103028579Y-84475670D01*
X103016282Y-84455153D01*
X103006054Y-84433529D01*
X102997996Y-84411007D01*
X102992184Y-84387803D01*
X102988674Y-84364142D01*
X102987500Y-84340250D01*
X102987500Y-83427750D01*
X102988674Y-83403858D01*
X102992184Y-83380197D01*
X102997996Y-83356993D01*
X103006054Y-83334471D01*
X103016282Y-83312847D01*
X103028579Y-83292330D01*
X103042829Y-83273117D01*
X103058893Y-83255393D01*
X103076617Y-83239329D01*
X103095830Y-83225079D01*
X103116347Y-83212782D01*
X103137971Y-83202554D01*
X103160493Y-83194496D01*
X103183697Y-83188684D01*
X103207358Y-83185174D01*
X103231250Y-83184000D01*
X103718750Y-83184000D01*
X103742642Y-83185174D01*
X103742642Y-83185174D01*
G37*
D12*
X103475000Y-83884000D03*
D10*
G36*
X103410642Y-80083174D02*
G01*
X103434303Y-80086684D01*
X103457507Y-80092496D01*
X103480029Y-80100554D01*
X103501653Y-80110782D01*
X103522170Y-80123079D01*
X103541383Y-80137329D01*
X103559107Y-80153393D01*
X103575171Y-80171117D01*
X103589421Y-80190330D01*
X103601718Y-80210847D01*
X103611946Y-80232471D01*
X103620004Y-80254993D01*
X103625816Y-80278197D01*
X103629326Y-80301858D01*
X103630500Y-80325750D01*
X103630500Y-81238250D01*
X103629326Y-81262142D01*
X103625816Y-81285803D01*
X103620004Y-81309007D01*
X103611946Y-81331529D01*
X103601718Y-81353153D01*
X103589421Y-81373670D01*
X103575171Y-81392883D01*
X103559107Y-81410607D01*
X103541383Y-81426671D01*
X103522170Y-81440921D01*
X103501653Y-81453218D01*
X103480029Y-81463446D01*
X103457507Y-81471504D01*
X103434303Y-81477316D01*
X103410642Y-81480826D01*
X103386750Y-81482000D01*
X102899250Y-81482000D01*
X102875358Y-81480826D01*
X102851697Y-81477316D01*
X102828493Y-81471504D01*
X102805971Y-81463446D01*
X102784347Y-81453218D01*
X102763830Y-81440921D01*
X102744617Y-81426671D01*
X102726893Y-81410607D01*
X102710829Y-81392883D01*
X102696579Y-81373670D01*
X102684282Y-81353153D01*
X102674054Y-81331529D01*
X102665996Y-81309007D01*
X102660184Y-81285803D01*
X102656674Y-81262142D01*
X102655500Y-81238250D01*
X102655500Y-80325750D01*
X102656674Y-80301858D01*
X102660184Y-80278197D01*
X102665996Y-80254993D01*
X102674054Y-80232471D01*
X102684282Y-80210847D01*
X102696579Y-80190330D01*
X102710829Y-80171117D01*
X102726893Y-80153393D01*
X102744617Y-80137329D01*
X102763830Y-80123079D01*
X102784347Y-80110782D01*
X102805971Y-80100554D01*
X102828493Y-80092496D01*
X102851697Y-80086684D01*
X102875358Y-80083174D01*
X102899250Y-80082000D01*
X103386750Y-80082000D01*
X103410642Y-80083174D01*
X103410642Y-80083174D01*
G37*
D12*
X103143000Y-80782000D03*
D10*
G36*
X101535642Y-80083174D02*
G01*
X101559303Y-80086684D01*
X101582507Y-80092496D01*
X101605029Y-80100554D01*
X101626653Y-80110782D01*
X101647170Y-80123079D01*
X101666383Y-80137329D01*
X101684107Y-80153393D01*
X101700171Y-80171117D01*
X101714421Y-80190330D01*
X101726718Y-80210847D01*
X101736946Y-80232471D01*
X101745004Y-80254993D01*
X101750816Y-80278197D01*
X101754326Y-80301858D01*
X101755500Y-80325750D01*
X101755500Y-81238250D01*
X101754326Y-81262142D01*
X101750816Y-81285803D01*
X101745004Y-81309007D01*
X101736946Y-81331529D01*
X101726718Y-81353153D01*
X101714421Y-81373670D01*
X101700171Y-81392883D01*
X101684107Y-81410607D01*
X101666383Y-81426671D01*
X101647170Y-81440921D01*
X101626653Y-81453218D01*
X101605029Y-81463446D01*
X101582507Y-81471504D01*
X101559303Y-81477316D01*
X101535642Y-81480826D01*
X101511750Y-81482000D01*
X101024250Y-81482000D01*
X101000358Y-81480826D01*
X100976697Y-81477316D01*
X100953493Y-81471504D01*
X100930971Y-81463446D01*
X100909347Y-81453218D01*
X100888830Y-81440921D01*
X100869617Y-81426671D01*
X100851893Y-81410607D01*
X100835829Y-81392883D01*
X100821579Y-81373670D01*
X100809282Y-81353153D01*
X100799054Y-81331529D01*
X100790996Y-81309007D01*
X100785184Y-81285803D01*
X100781674Y-81262142D01*
X100780500Y-81238250D01*
X100780500Y-80325750D01*
X100781674Y-80301858D01*
X100785184Y-80278197D01*
X100790996Y-80254993D01*
X100799054Y-80232471D01*
X100809282Y-80210847D01*
X100821579Y-80190330D01*
X100835829Y-80171117D01*
X100851893Y-80153393D01*
X100869617Y-80137329D01*
X100888830Y-80123079D01*
X100909347Y-80110782D01*
X100930971Y-80100554D01*
X100953493Y-80092496D01*
X100976697Y-80086684D01*
X101000358Y-80083174D01*
X101024250Y-80082000D01*
X101511750Y-80082000D01*
X101535642Y-80083174D01*
X101535642Y-80083174D01*
G37*
D12*
X101268000Y-80782000D03*
D10*
G36*
X103373142Y-77753174D02*
G01*
X103396803Y-77756684D01*
X103420007Y-77762496D01*
X103442529Y-77770554D01*
X103464153Y-77780782D01*
X103484670Y-77793079D01*
X103503883Y-77807329D01*
X103521607Y-77823393D01*
X103537671Y-77841117D01*
X103551921Y-77860330D01*
X103564218Y-77880847D01*
X103574446Y-77902471D01*
X103582504Y-77924993D01*
X103588316Y-77948197D01*
X103591826Y-77971858D01*
X103593000Y-77995750D01*
X103593000Y-78908250D01*
X103591826Y-78932142D01*
X103588316Y-78955803D01*
X103582504Y-78979007D01*
X103574446Y-79001529D01*
X103564218Y-79023153D01*
X103551921Y-79043670D01*
X103537671Y-79062883D01*
X103521607Y-79080607D01*
X103503883Y-79096671D01*
X103484670Y-79110921D01*
X103464153Y-79123218D01*
X103442529Y-79133446D01*
X103420007Y-79141504D01*
X103396803Y-79147316D01*
X103373142Y-79150826D01*
X103349250Y-79152000D01*
X102861750Y-79152000D01*
X102837858Y-79150826D01*
X102814197Y-79147316D01*
X102790993Y-79141504D01*
X102768471Y-79133446D01*
X102746847Y-79123218D01*
X102726330Y-79110921D01*
X102707117Y-79096671D01*
X102689393Y-79080607D01*
X102673329Y-79062883D01*
X102659079Y-79043670D01*
X102646782Y-79023153D01*
X102636554Y-79001529D01*
X102628496Y-78979007D01*
X102622684Y-78955803D01*
X102619174Y-78932142D01*
X102618000Y-78908250D01*
X102618000Y-77995750D01*
X102619174Y-77971858D01*
X102622684Y-77948197D01*
X102628496Y-77924993D01*
X102636554Y-77902471D01*
X102646782Y-77880847D01*
X102659079Y-77860330D01*
X102673329Y-77841117D01*
X102689393Y-77823393D01*
X102707117Y-77807329D01*
X102726330Y-77793079D01*
X102746847Y-77780782D01*
X102768471Y-77770554D01*
X102790993Y-77762496D01*
X102814197Y-77756684D01*
X102837858Y-77753174D01*
X102861750Y-77752000D01*
X103349250Y-77752000D01*
X103373142Y-77753174D01*
X103373142Y-77753174D01*
G37*
D12*
X103105500Y-78452000D03*
D10*
G36*
X101498142Y-77753174D02*
G01*
X101521803Y-77756684D01*
X101545007Y-77762496D01*
X101567529Y-77770554D01*
X101589153Y-77780782D01*
X101609670Y-77793079D01*
X101628883Y-77807329D01*
X101646607Y-77823393D01*
X101662671Y-77841117D01*
X101676921Y-77860330D01*
X101689218Y-77880847D01*
X101699446Y-77902471D01*
X101707504Y-77924993D01*
X101713316Y-77948197D01*
X101716826Y-77971858D01*
X101718000Y-77995750D01*
X101718000Y-78908250D01*
X101716826Y-78932142D01*
X101713316Y-78955803D01*
X101707504Y-78979007D01*
X101699446Y-79001529D01*
X101689218Y-79023153D01*
X101676921Y-79043670D01*
X101662671Y-79062883D01*
X101646607Y-79080607D01*
X101628883Y-79096671D01*
X101609670Y-79110921D01*
X101589153Y-79123218D01*
X101567529Y-79133446D01*
X101545007Y-79141504D01*
X101521803Y-79147316D01*
X101498142Y-79150826D01*
X101474250Y-79152000D01*
X100986750Y-79152000D01*
X100962858Y-79150826D01*
X100939197Y-79147316D01*
X100915993Y-79141504D01*
X100893471Y-79133446D01*
X100871847Y-79123218D01*
X100851330Y-79110921D01*
X100832117Y-79096671D01*
X100814393Y-79080607D01*
X100798329Y-79062883D01*
X100784079Y-79043670D01*
X100771782Y-79023153D01*
X100761554Y-79001529D01*
X100753496Y-78979007D01*
X100747684Y-78955803D01*
X100744174Y-78932142D01*
X100743000Y-78908250D01*
X100743000Y-77995750D01*
X100744174Y-77971858D01*
X100747684Y-77948197D01*
X100753496Y-77924993D01*
X100761554Y-77902471D01*
X100771782Y-77880847D01*
X100784079Y-77860330D01*
X100798329Y-77841117D01*
X100814393Y-77823393D01*
X100832117Y-77807329D01*
X100851330Y-77793079D01*
X100871847Y-77780782D01*
X100893471Y-77770554D01*
X100915993Y-77762496D01*
X100939197Y-77756684D01*
X100962858Y-77753174D01*
X100986750Y-77752000D01*
X101474250Y-77752000D01*
X101498142Y-77753174D01*
X101498142Y-77753174D01*
G37*
D12*
X101230500Y-78452000D03*
D10*
G36*
X103858142Y-71713674D02*
G01*
X103881803Y-71717184D01*
X103905007Y-71722996D01*
X103927529Y-71731054D01*
X103949153Y-71741282D01*
X103969670Y-71753579D01*
X103988883Y-71767829D01*
X104006607Y-71783893D01*
X104022671Y-71801617D01*
X104036921Y-71820830D01*
X104049218Y-71841347D01*
X104059446Y-71862971D01*
X104067504Y-71885493D01*
X104073316Y-71908697D01*
X104076826Y-71932358D01*
X104078000Y-71956250D01*
X104078000Y-72443750D01*
X104076826Y-72467642D01*
X104073316Y-72491303D01*
X104067504Y-72514507D01*
X104059446Y-72537029D01*
X104049218Y-72558653D01*
X104036921Y-72579170D01*
X104022671Y-72598383D01*
X104006607Y-72616107D01*
X103988883Y-72632171D01*
X103969670Y-72646421D01*
X103949153Y-72658718D01*
X103927529Y-72668946D01*
X103905007Y-72677004D01*
X103881803Y-72682816D01*
X103858142Y-72686326D01*
X103834250Y-72687500D01*
X102921750Y-72687500D01*
X102897858Y-72686326D01*
X102874197Y-72682816D01*
X102850993Y-72677004D01*
X102828471Y-72668946D01*
X102806847Y-72658718D01*
X102786330Y-72646421D01*
X102767117Y-72632171D01*
X102749393Y-72616107D01*
X102733329Y-72598383D01*
X102719079Y-72579170D01*
X102706782Y-72558653D01*
X102696554Y-72537029D01*
X102688496Y-72514507D01*
X102682684Y-72491303D01*
X102679174Y-72467642D01*
X102678000Y-72443750D01*
X102678000Y-71956250D01*
X102679174Y-71932358D01*
X102682684Y-71908697D01*
X102688496Y-71885493D01*
X102696554Y-71862971D01*
X102706782Y-71841347D01*
X102719079Y-71820830D01*
X102733329Y-71801617D01*
X102749393Y-71783893D01*
X102767117Y-71767829D01*
X102786330Y-71753579D01*
X102806847Y-71741282D01*
X102828471Y-71731054D01*
X102850993Y-71722996D01*
X102874197Y-71717184D01*
X102897858Y-71713674D01*
X102921750Y-71712500D01*
X103834250Y-71712500D01*
X103858142Y-71713674D01*
X103858142Y-71713674D01*
G37*
D12*
X103378000Y-72200000D03*
D10*
G36*
X103858142Y-73588674D02*
G01*
X103881803Y-73592184D01*
X103905007Y-73597996D01*
X103927529Y-73606054D01*
X103949153Y-73616282D01*
X103969670Y-73628579D01*
X103988883Y-73642829D01*
X104006607Y-73658893D01*
X104022671Y-73676617D01*
X104036921Y-73695830D01*
X104049218Y-73716347D01*
X104059446Y-73737971D01*
X104067504Y-73760493D01*
X104073316Y-73783697D01*
X104076826Y-73807358D01*
X104078000Y-73831250D01*
X104078000Y-74318750D01*
X104076826Y-74342642D01*
X104073316Y-74366303D01*
X104067504Y-74389507D01*
X104059446Y-74412029D01*
X104049218Y-74433653D01*
X104036921Y-74454170D01*
X104022671Y-74473383D01*
X104006607Y-74491107D01*
X103988883Y-74507171D01*
X103969670Y-74521421D01*
X103949153Y-74533718D01*
X103927529Y-74543946D01*
X103905007Y-74552004D01*
X103881803Y-74557816D01*
X103858142Y-74561326D01*
X103834250Y-74562500D01*
X102921750Y-74562500D01*
X102897858Y-74561326D01*
X102874197Y-74557816D01*
X102850993Y-74552004D01*
X102828471Y-74543946D01*
X102806847Y-74533718D01*
X102786330Y-74521421D01*
X102767117Y-74507171D01*
X102749393Y-74491107D01*
X102733329Y-74473383D01*
X102719079Y-74454170D01*
X102706782Y-74433653D01*
X102696554Y-74412029D01*
X102688496Y-74389507D01*
X102682684Y-74366303D01*
X102679174Y-74342642D01*
X102678000Y-74318750D01*
X102678000Y-73831250D01*
X102679174Y-73807358D01*
X102682684Y-73783697D01*
X102688496Y-73760493D01*
X102696554Y-73737971D01*
X102706782Y-73716347D01*
X102719079Y-73695830D01*
X102733329Y-73676617D01*
X102749393Y-73658893D01*
X102767117Y-73642829D01*
X102786330Y-73628579D01*
X102806847Y-73616282D01*
X102828471Y-73606054D01*
X102850993Y-73597996D01*
X102874197Y-73592184D01*
X102897858Y-73588674D01*
X102921750Y-73587500D01*
X103834250Y-73587500D01*
X103858142Y-73588674D01*
X103858142Y-73588674D01*
G37*
D12*
X103378000Y-74075000D03*
D10*
G36*
X98573504Y-81798204D02*
G01*
X98597773Y-81801804D01*
X98621571Y-81807765D01*
X98644671Y-81816030D01*
X98666849Y-81826520D01*
X98687893Y-81839133D01*
X98707598Y-81853747D01*
X98725777Y-81870223D01*
X98742253Y-81888402D01*
X98756867Y-81908107D01*
X98769480Y-81929151D01*
X98779970Y-81951329D01*
X98788235Y-81974429D01*
X98794196Y-81998227D01*
X98797796Y-82022496D01*
X98799000Y-82047000D01*
X98799000Y-84197000D01*
X98797796Y-84221504D01*
X98794196Y-84245773D01*
X98788235Y-84269571D01*
X98779970Y-84292671D01*
X98769480Y-84314849D01*
X98756867Y-84335893D01*
X98742253Y-84355598D01*
X98725777Y-84373777D01*
X98707598Y-84390253D01*
X98687893Y-84404867D01*
X98666849Y-84417480D01*
X98644671Y-84427970D01*
X98621571Y-84436235D01*
X98597773Y-84442196D01*
X98573504Y-84445796D01*
X98549000Y-84447000D01*
X97799000Y-84447000D01*
X97774496Y-84445796D01*
X97750227Y-84442196D01*
X97726429Y-84436235D01*
X97703329Y-84427970D01*
X97681151Y-84417480D01*
X97660107Y-84404867D01*
X97640402Y-84390253D01*
X97622223Y-84373777D01*
X97605747Y-84355598D01*
X97591133Y-84335893D01*
X97578520Y-84314849D01*
X97568030Y-84292671D01*
X97559765Y-84269571D01*
X97553804Y-84245773D01*
X97550204Y-84221504D01*
X97549000Y-84197000D01*
X97549000Y-82047000D01*
X97550204Y-82022496D01*
X97553804Y-81998227D01*
X97559765Y-81974429D01*
X97568030Y-81951329D01*
X97578520Y-81929151D01*
X97591133Y-81908107D01*
X97605747Y-81888402D01*
X97622223Y-81870223D01*
X97640402Y-81853747D01*
X97660107Y-81839133D01*
X97681151Y-81826520D01*
X97703329Y-81816030D01*
X97726429Y-81807765D01*
X97750227Y-81801804D01*
X97774496Y-81798204D01*
X97799000Y-81797000D01*
X98549000Y-81797000D01*
X98573504Y-81798204D01*
X98573504Y-81798204D01*
G37*
D13*
X98174000Y-83122000D03*
D10*
G36*
X95773504Y-81798204D02*
G01*
X95797773Y-81801804D01*
X95821571Y-81807765D01*
X95844671Y-81816030D01*
X95866849Y-81826520D01*
X95887893Y-81839133D01*
X95907598Y-81853747D01*
X95925777Y-81870223D01*
X95942253Y-81888402D01*
X95956867Y-81908107D01*
X95969480Y-81929151D01*
X95979970Y-81951329D01*
X95988235Y-81974429D01*
X95994196Y-81998227D01*
X95997796Y-82022496D01*
X95999000Y-82047000D01*
X95999000Y-84197000D01*
X95997796Y-84221504D01*
X95994196Y-84245773D01*
X95988235Y-84269571D01*
X95979970Y-84292671D01*
X95969480Y-84314849D01*
X95956867Y-84335893D01*
X95942253Y-84355598D01*
X95925777Y-84373777D01*
X95907598Y-84390253D01*
X95887893Y-84404867D01*
X95866849Y-84417480D01*
X95844671Y-84427970D01*
X95821571Y-84436235D01*
X95797773Y-84442196D01*
X95773504Y-84445796D01*
X95749000Y-84447000D01*
X94999000Y-84447000D01*
X94974496Y-84445796D01*
X94950227Y-84442196D01*
X94926429Y-84436235D01*
X94903329Y-84427970D01*
X94881151Y-84417480D01*
X94860107Y-84404867D01*
X94840402Y-84390253D01*
X94822223Y-84373777D01*
X94805747Y-84355598D01*
X94791133Y-84335893D01*
X94778520Y-84314849D01*
X94768030Y-84292671D01*
X94759765Y-84269571D01*
X94753804Y-84245773D01*
X94750204Y-84221504D01*
X94749000Y-84197000D01*
X94749000Y-82047000D01*
X94750204Y-82022496D01*
X94753804Y-81998227D01*
X94759765Y-81974429D01*
X94768030Y-81951329D01*
X94778520Y-81929151D01*
X94791133Y-81908107D01*
X94805747Y-81888402D01*
X94822223Y-81870223D01*
X94840402Y-81853747D01*
X94860107Y-81839133D01*
X94881151Y-81826520D01*
X94903329Y-81816030D01*
X94926429Y-81807765D01*
X94950227Y-81801804D01*
X94974496Y-81798204D01*
X94999000Y-81797000D01*
X95749000Y-81797000D01*
X95773504Y-81798204D01*
X95773504Y-81798204D01*
G37*
D13*
X95374000Y-83122000D03*
D14*
X99188000Y-87682000D03*
X101088000Y-87682000D03*
X100138000Y-85682000D03*
D16*
X118768000Y-84137000D03*
X118768000Y-82867000D03*
X118768000Y-81597000D03*
X118768000Y-80327000D03*
X118768000Y-79057000D03*
X118768000Y-77787000D03*
X118768000Y-76517000D03*
X118768000Y-75247000D03*
X118768000Y-73977000D03*
X118768000Y-72707000D03*
X105548000Y-72707000D03*
X105548000Y-73977000D03*
X105548000Y-75247000D03*
X105548000Y-76517000D03*
X105548000Y-77787000D03*
X105548000Y-79057000D03*
X105548000Y-80327000D03*
X105548000Y-81597000D03*
X105548000Y-82867000D03*
X105548000Y-84137000D03*
D17*
X112158000Y-78422000D03*
X182442000Y-79258000D03*
D16*
X189052000Y-73543000D03*
X189052000Y-74813000D03*
X189052000Y-76083000D03*
X189052000Y-77353000D03*
X189052000Y-78623000D03*
X189052000Y-79893000D03*
X189052000Y-81163000D03*
X189052000Y-82433000D03*
X189052000Y-83703000D03*
X189052000Y-84973000D03*
X175832000Y-84973000D03*
X175832000Y-83703000D03*
X175832000Y-82433000D03*
X175832000Y-81163000D03*
X175832000Y-79893000D03*
X175832000Y-78623000D03*
X175832000Y-77353000D03*
X175832000Y-76083000D03*
X175832000Y-74813000D03*
X175832000Y-73543000D03*
X118678000Y-140321000D03*
X118678000Y-139051000D03*
X118678000Y-137781000D03*
X118678000Y-136511000D03*
X118678000Y-135241000D03*
X118678000Y-133971000D03*
X118678000Y-132701000D03*
X118678000Y-131431000D03*
X118678000Y-130161000D03*
X118678000Y-128891000D03*
X105458000Y-128891000D03*
X105458000Y-130161000D03*
X105458000Y-131431000D03*
X105458000Y-132701000D03*
X105458000Y-133971000D03*
X105458000Y-135241000D03*
X105458000Y-136511000D03*
X105458000Y-137781000D03*
X105458000Y-139051000D03*
X105458000Y-140321000D03*
D17*
X112068000Y-134606000D03*
X182880000Y-134556000D03*
D16*
X189490000Y-128841000D03*
X189490000Y-130111000D03*
X189490000Y-131381000D03*
X189490000Y-132651000D03*
X189490000Y-133921000D03*
X189490000Y-135191000D03*
X189490000Y-136461000D03*
X189490000Y-137731000D03*
X189490000Y-139001000D03*
X189490000Y-140271000D03*
X176270000Y-140271000D03*
X176270000Y-139001000D03*
X176270000Y-137731000D03*
X176270000Y-136461000D03*
X176270000Y-135191000D03*
X176270000Y-133921000D03*
X176270000Y-132651000D03*
X176270000Y-131381000D03*
X176270000Y-130111000D03*
X176270000Y-128841000D03*
M02*
