G04 #@! TF.GenerationSoftware,KiCad,Pcbnew,(5.1.4-0)*
G04 #@! TF.CreationDate,2019-12-29T13:39:11-05:00*
G04 #@! TF.ProjectId,eye_driver,6579655f-6472-4697-9665-722e6b696361,rev?*
G04 #@! TF.SameCoordinates,Original*
G04 #@! TF.FileFunction,Profile,NP*
%FSLAX46Y46*%
G04 Gerber Fmt 4.6, Leading zero omitted, Abs format (unit mm)*
G04 Created by KiCad (PCBNEW (5.1.4-0)) date 2019-12-29 13:39:11*
%MOMM*%
%LPD*%
G04 APERTURE LIST*
%ADD10C,0.099999*%
G04 APERTURE END LIST*
D10*
X201927460Y-60973962D02*
X201930000Y-60973708D01*
X92204540Y-60973962D02*
X201927460Y-60973962D01*
X92202000Y-60973708D02*
X92204540Y-60973962D01*
X92199460Y-60973962D02*
X92202000Y-60973708D01*
X92192094Y-60974724D02*
X92199460Y-60973962D01*
X92182696Y-60977518D02*
X92192094Y-60974724D01*
X92174059Y-60982344D02*
X92182696Y-60977518D01*
X92166440Y-60988440D02*
X92174059Y-60982344D01*
X92160344Y-60996060D02*
X92166440Y-60988440D01*
X92155517Y-61004696D02*
X92160344Y-60996060D01*
X92152723Y-61014094D02*
X92155517Y-61004696D01*
X92151707Y-61024000D02*
X92152723Y-61014094D01*
X92151962Y-61026540D02*
X92151707Y-61024000D01*
X92151962Y-152587459D02*
X92151962Y-61026540D01*
X92151707Y-152589999D02*
X92151962Y-152587459D01*
X92152723Y-152599905D02*
X92151707Y-152589999D01*
X92155517Y-152609303D02*
X92152723Y-152599905D01*
X92160344Y-152617939D02*
X92155517Y-152609303D01*
X92166440Y-152625559D02*
X92160344Y-152617939D01*
X92174059Y-152631655D02*
X92166440Y-152625559D01*
X92182696Y-152636481D02*
X92174059Y-152631655D01*
X92192094Y-152639275D02*
X92182696Y-152636481D01*
X92202000Y-152640291D02*
X92192094Y-152639275D01*
X92204540Y-152640037D02*
X92202000Y-152640291D01*
X201927460Y-152640037D02*
X92204540Y-152640037D01*
X201930000Y-152640291D02*
X201927460Y-152640037D01*
X201939906Y-152639275D02*
X201930000Y-152640291D01*
X201949304Y-152636481D02*
X201939906Y-152639275D01*
X201957940Y-152631655D02*
X201949304Y-152636481D01*
X201965560Y-152625559D02*
X201957940Y-152631655D01*
X201971656Y-152617939D02*
X201965560Y-152625559D01*
X201976482Y-152609303D02*
X201971656Y-152617939D01*
X201979276Y-152599905D02*
X201976482Y-152609303D01*
X201980038Y-152592539D02*
X201979276Y-152599905D01*
X201980292Y-152589999D02*
X201980038Y-152592539D01*
X201980038Y-152587459D02*
X201980292Y-152589999D01*
X201980038Y-61026540D02*
X201980038Y-152587459D01*
X201980292Y-61024000D02*
X201980038Y-61026540D01*
X201979276Y-61014094D02*
X201980292Y-61024000D01*
X201976482Y-61004696D02*
X201979276Y-61014094D01*
X201971656Y-60996060D02*
X201976482Y-61004696D01*
X201965560Y-60988440D02*
X201971656Y-60996060D01*
X201957940Y-60982344D02*
X201965560Y-60988440D01*
X201949304Y-60977518D02*
X201957940Y-60982344D01*
X201939906Y-60974724D02*
X201949304Y-60977518D01*
X201932540Y-60973962D02*
X201939906Y-60974724D01*
X201930000Y-60973708D02*
X201932540Y-60973962D01*
M02*
