G04 #@! TF.GenerationSoftware,KiCad,Pcbnew,(5.1.4-0)*
G04 #@! TF.CreationDate,2019-12-29T13:39:11-05:00*
G04 #@! TF.ProjectId,eye_driver,6579655f-6472-4697-9665-722e6b696361,rev?*
G04 #@! TF.SameCoordinates,Original*
G04 #@! TF.FileFunction,Legend,Top*
G04 #@! TF.FilePolarity,Positive*
%FSLAX46Y46*%
G04 Gerber Fmt 4.6, Leading zero omitted, Abs format (unit mm)*
G04 Created by KiCad (PCBNEW (5.1.4-0)) date 2019-12-29 13:39:11*
%MOMM*%
%LPD*%
G04 APERTURE LIST*
%ADD10C,0.150000*%
%ADD11C,0.120000*%
%ADD12C,0.400000*%
%ADD13C,0.127000*%
%ADD14C,0.200000*%
%ADD15C,0.100000*%
%ADD16C,0.050000*%
G04 APERTURE END LIST*
D10*
X98933047Y-73287428D02*
X99694952Y-73287428D01*
X99314000Y-73668380D02*
X99314000Y-72906476D01*
D11*
X168148000Y-117856000D02*
X171958000Y-117856000D01*
X167132000Y-116840000D02*
X168148000Y-117856000D01*
X171958000Y-117856000D02*
X172974000Y-116840000D01*
X168148000Y-98870000D02*
X171958000Y-98870000D01*
X167132000Y-97854000D02*
X168148000Y-98870000D01*
X171958000Y-98870000D02*
X172974000Y-97854000D01*
X124968000Y-113364000D02*
X128778000Y-113364000D01*
X123952000Y-112348000D02*
X124968000Y-113364000D01*
X128778000Y-113364000D02*
X129794000Y-112348000D01*
X124714000Y-102790000D02*
X128524000Y-102790000D01*
X123698000Y-101774000D02*
X124714000Y-102790000D01*
X128524000Y-102790000D02*
X129540000Y-101774000D01*
X121920000Y-81852000D02*
X120396000Y-80328000D01*
X121920000Y-77534000D02*
X121920000Y-81852000D01*
X121920000Y-81852000D02*
X123444000Y-80328000D01*
X121666000Y-139128000D02*
X120142000Y-137604000D01*
X121666000Y-134810000D02*
X121666000Y-139128000D01*
X121666000Y-139128000D02*
X123190000Y-137604000D01*
X173228000Y-131762000D02*
X174752000Y-133286000D01*
X173228000Y-136080000D02*
X173228000Y-131762000D01*
X173228000Y-131762000D02*
X171704000Y-133286000D01*
X172974000Y-76772000D02*
X174498000Y-78296000D01*
X172974000Y-76772000D02*
X171450000Y-78296000D01*
X172974000Y-81090000D02*
X172974000Y-76772000D01*
X187452000Y-125920000D02*
X190246000Y-125920000D01*
X187452000Y-94044000D02*
X190246000Y-94044000D01*
X103886000Y-125920000D02*
X106680000Y-125920000D01*
X103632000Y-94044000D02*
X106426000Y-94044000D01*
X161798000Y-72136000D02*
X161798000Y-69596000D01*
X157226000Y-72136000D02*
X161798000Y-72136000D01*
X157226000Y-69596000D02*
X157226000Y-72136000D01*
X97730000Y-71632000D02*
X99060000Y-71632000D01*
X97730000Y-72962000D02*
X97730000Y-71632000D01*
X97730000Y-74232000D02*
X100390000Y-74232000D01*
X100390000Y-74232000D02*
X100390000Y-79372000D01*
X97730000Y-74232000D02*
X97730000Y-79372000D01*
X97730000Y-79372000D02*
X100390000Y-79372000D01*
X185170578Y-91810000D02*
X184653422Y-91810000D01*
X185170578Y-93230000D02*
X184653422Y-93230000D01*
X101456000Y-109562000D02*
X101456000Y-110412000D01*
X101456000Y-107012000D02*
X101456000Y-107862000D01*
X101456000Y-113212000D02*
X101456000Y-112112000D01*
X87286000Y-113212000D02*
X101456000Y-113212000D01*
X87286000Y-112562000D02*
X87286000Y-113212000D01*
X80986000Y-112562000D02*
X87286000Y-112562000D01*
X80986000Y-104862000D02*
X80986000Y-112562000D01*
X87286000Y-104862000D02*
X80986000Y-104862000D01*
X87286000Y-104212000D02*
X87286000Y-104862000D01*
X100556000Y-104212000D02*
X87286000Y-104212000D01*
X101456000Y-105312000D02*
X101456000Y-104212000D01*
X188946000Y-107680000D02*
X188946000Y-105680000D01*
X202356000Y-111790000D02*
X199296000Y-111790000D01*
X202356000Y-101570000D02*
X202356000Y-111790000D01*
X199296000Y-101570000D02*
X202356000Y-101570000D01*
X189136000Y-101570000D02*
X195196000Y-101570000D01*
X189136000Y-104380000D02*
X189136000Y-101570000D01*
X189136000Y-111790000D02*
X189136000Y-108980000D01*
X195196000Y-111790000D02*
X189136000Y-111790000D01*
X169358000Y-141608000D02*
X170688000Y-141608000D01*
X169358000Y-142938000D02*
X169358000Y-141608000D01*
X169358000Y-144208000D02*
X172018000Y-144208000D01*
X172018000Y-144208000D02*
X172018000Y-149348000D01*
X169358000Y-144208000D02*
X169358000Y-149348000D01*
X169358000Y-149348000D02*
X172018000Y-149348000D01*
X123892000Y-143386000D02*
X125222000Y-143386000D01*
X123892000Y-144716000D02*
X123892000Y-143386000D01*
X123892000Y-145986000D02*
X126552000Y-145986000D01*
X126552000Y-145986000D02*
X126552000Y-151126000D01*
X123892000Y-145986000D02*
X123892000Y-151126000D01*
X123892000Y-151126000D02*
X126552000Y-151126000D01*
X170748000Y-73530000D02*
X169418000Y-73530000D01*
X170748000Y-72200000D02*
X170748000Y-73530000D01*
X170748000Y-70930000D02*
X168088000Y-70930000D01*
X168088000Y-70930000D02*
X168088000Y-65790000D01*
X170748000Y-70930000D02*
X170748000Y-65790000D01*
X170748000Y-65790000D02*
X168088000Y-65790000D01*
X124774000Y-70736000D02*
X123444000Y-70736000D01*
X124774000Y-69406000D02*
X124774000Y-70736000D01*
X124774000Y-68136000D02*
X122114000Y-68136000D01*
X122114000Y-68136000D02*
X122114000Y-62996000D01*
X124774000Y-68136000D02*
X124774000Y-62996000D01*
X124774000Y-62996000D02*
X122114000Y-62996000D01*
X197249936Y-77116000D02*
X198454064Y-77116000D01*
X197249936Y-74396000D02*
X198454064Y-74396000D01*
X184154578Y-123686000D02*
X183637422Y-123686000D01*
X184154578Y-125106000D02*
X183637422Y-125106000D01*
X183637422Y-121804000D02*
X184154578Y-121804000D01*
X183637422Y-120384000D02*
X184154578Y-120384000D01*
X109469422Y-125360000D02*
X109986578Y-125360000D01*
X109469422Y-123940000D02*
X109986578Y-123940000D01*
X100325422Y-121550000D02*
X100842578Y-121550000D01*
X100325422Y-120130000D02*
X100842578Y-120130000D01*
X184574922Y-90182000D02*
X185092078Y-90182000D01*
X184574922Y-88762000D02*
X185092078Y-88762000D01*
X109469422Y-93230000D02*
X109986578Y-93230000D01*
X109469422Y-91810000D02*
X109986578Y-91810000D01*
X100325422Y-90182000D02*
X100842578Y-90182000D01*
X100325422Y-88762000D02*
X100842578Y-88762000D01*
X130354000Y-110389922D02*
X130354000Y-110907078D01*
X131774000Y-110389922D02*
X131774000Y-110907078D01*
X176095922Y-119264000D02*
X176613078Y-119264000D01*
X176095922Y-117844000D02*
X176613078Y-117844000D01*
X170636000Y-94238578D02*
X170636000Y-93721422D01*
X169216000Y-94238578D02*
X169216000Y-93721422D01*
X130354000Y-100245422D02*
X130354000Y-100762578D01*
X131774000Y-100245422D02*
X131774000Y-100762578D01*
X193426000Y-127172000D02*
X193426000Y-125712000D01*
X196586000Y-127172000D02*
X196586000Y-125012000D01*
X196586000Y-127172000D02*
X195656000Y-127172000D01*
X193426000Y-127172000D02*
X194356000Y-127172000D01*
X99248000Y-140088000D02*
X100708000Y-140088000D01*
X99248000Y-143248000D02*
X101408000Y-143248000D01*
X99248000Y-143248000D02*
X99248000Y-142318000D01*
X99248000Y-140088000D02*
X99248000Y-141018000D01*
X192984000Y-72706000D02*
X192984000Y-71246000D01*
X196144000Y-72706000D02*
X196144000Y-70546000D01*
X196144000Y-72706000D02*
X195214000Y-72706000D01*
X192984000Y-72706000D02*
X193914000Y-72706000D01*
X193044578Y-132068000D02*
X192527422Y-132068000D01*
X193044578Y-133488000D02*
X192527422Y-133488000D01*
X197771936Y-131344000D02*
X198976064Y-131344000D01*
X197771936Y-128624000D02*
X198976064Y-128624000D01*
X191314000Y-139631422D02*
X191314000Y-140148578D01*
X192734000Y-139631422D02*
X192734000Y-140148578D01*
X192527422Y-135520000D02*
X193044578Y-135520000D01*
X192527422Y-134100000D02*
X193044578Y-134100000D01*
X193044578Y-128512000D02*
X192527422Y-128512000D01*
X193044578Y-129932000D02*
X192527422Y-129932000D01*
X101595422Y-137446000D02*
X102112578Y-137446000D01*
X101595422Y-136026000D02*
X102112578Y-136026000D01*
X97122064Y-136244000D02*
X95917936Y-136244000D01*
X97122064Y-138964000D02*
X95917936Y-138964000D01*
X103834000Y-129402078D02*
X103834000Y-128884922D01*
X102414000Y-129402078D02*
X102414000Y-128884922D01*
X102239078Y-133816000D02*
X101721922Y-133816000D01*
X102239078Y-135236000D02*
X101721922Y-135236000D01*
X102103422Y-139584000D02*
X102620578Y-139584000D01*
X102103422Y-138164000D02*
X102620578Y-138164000D01*
X192700578Y-76218000D02*
X192183422Y-76218000D01*
X192700578Y-77638000D02*
X192183422Y-77638000D01*
X190806000Y-84133422D02*
X190806000Y-84650578D01*
X192226000Y-84133422D02*
X192226000Y-84650578D01*
X192200922Y-79898000D02*
X192718078Y-79898000D01*
X192200922Y-78478000D02*
X192718078Y-78478000D01*
X192610578Y-74030000D02*
X192093422Y-74030000D01*
X192610578Y-75450000D02*
X192093422Y-75450000D01*
X124827000Y-111251000D02*
X124747000Y-111251000D01*
X128887000Y-111251000D02*
X129067000Y-111251000D01*
X124747000Y-111251000D02*
X124747000Y-112121000D01*
X129067000Y-111251000D02*
X129067000Y-112231000D01*
X125597000Y-112971000D02*
X128217000Y-112971000D01*
X168007000Y-115941666D02*
X167927000Y-115941666D01*
X172067000Y-115941666D02*
X172247000Y-115941666D01*
X167927000Y-115941666D02*
X167927000Y-116811666D01*
X172247000Y-115941666D02*
X172247000Y-116921666D01*
X168777000Y-117661666D02*
X171397000Y-117661666D01*
X168007000Y-96520333D02*
X167927000Y-96520333D01*
X172067000Y-96520333D02*
X172247000Y-96520333D01*
X167927000Y-96520333D02*
X167927000Y-97390333D01*
X172247000Y-96520333D02*
X172247000Y-97500333D01*
X168777000Y-98240333D02*
X171397000Y-98240333D01*
X124827000Y-100703000D02*
X124747000Y-100703000D01*
X128887000Y-100703000D02*
X129067000Y-100703000D01*
X124747000Y-100703000D02*
X124747000Y-101573000D01*
X129067000Y-100703000D02*
X129067000Y-101683000D01*
X125597000Y-102423000D02*
X128217000Y-102423000D01*
X143704000Y-60734000D02*
X129204000Y-60734000D01*
X129204000Y-60734000D02*
X129204000Y-61234000D01*
X129204000Y-61234000D02*
X130204000Y-61234000D01*
X130204000Y-61234000D02*
X130204000Y-69234000D01*
X130204000Y-72734000D02*
X130204000Y-74734000D01*
X130204000Y-74734000D02*
X142704000Y-74734000D01*
X142704000Y-74734000D02*
X142704000Y-72734000D01*
X142704000Y-69234000D02*
X142704000Y-61234000D01*
X142704000Y-61234000D02*
X143704000Y-61234000D01*
X143704000Y-61234000D02*
X143704000Y-60734000D01*
X140454000Y-74984000D02*
X139454000Y-74984000D01*
D12*
X147934000Y-71084000D02*
G75*
G03X147934000Y-71084000I-200000J0D01*
G01*
D13*
X166734000Y-69434000D02*
X148734000Y-69434000D01*
X166734000Y-131734000D02*
X166734000Y-69434000D01*
X148734000Y-131734000D02*
X166734000Y-131734000D01*
X148734000Y-69434000D02*
X148734000Y-131734000D01*
D11*
X102278922Y-83174000D02*
X102796078Y-83174000D01*
X102278922Y-84594000D02*
X102796078Y-84594000D01*
X101946922Y-81492000D02*
X102464078Y-81492000D01*
X101946922Y-80072000D02*
X102464078Y-80072000D01*
X102426578Y-79162000D02*
X101909422Y-79162000D01*
X102426578Y-77742000D02*
X101909422Y-77742000D01*
X104088000Y-73396078D02*
X104088000Y-72878922D01*
X102668000Y-73396078D02*
X102668000Y-72878922D01*
X97376064Y-84482000D02*
X96171936Y-84482000D01*
X97376064Y-81762000D02*
X96171936Y-81762000D01*
X101718000Y-85922000D02*
X100788000Y-85922000D01*
X98558000Y-85922000D02*
X99488000Y-85922000D01*
X98558000Y-85922000D02*
X98558000Y-88082000D01*
X101718000Y-85922000D02*
X101718000Y-87382000D01*
D14*
X120558000Y-84122000D02*
G75*
G03X120558000Y-84122000I-100000J0D01*
G01*
X120558000Y-84122000D02*
G75*
G03X120558000Y-84122000I-100000J0D01*
G01*
D13*
X117708000Y-84722000D02*
X117708000Y-86422000D01*
X117708000Y-86422000D02*
X106608000Y-86422000D01*
X106608000Y-86422000D02*
X106608000Y-84722000D01*
X117708000Y-72122000D02*
X117708000Y-70422000D01*
X117708000Y-70422000D02*
X106608000Y-70422000D01*
X106608000Y-70422000D02*
X106608000Y-72122000D01*
X187992000Y-87258000D02*
X187992000Y-85558000D01*
X176892000Y-87258000D02*
X187992000Y-87258000D01*
X176892000Y-85558000D02*
X176892000Y-87258000D01*
X187992000Y-71258000D02*
X187992000Y-72958000D01*
X176892000Y-71258000D02*
X187992000Y-71258000D01*
X176892000Y-72958000D02*
X176892000Y-71258000D01*
D14*
X174242000Y-73558000D02*
G75*
G03X174242000Y-73558000I-100000J0D01*
G01*
X174242000Y-73558000D02*
G75*
G03X174242000Y-73558000I-100000J0D01*
G01*
X120468000Y-140306000D02*
G75*
G03X120468000Y-140306000I-100000J0D01*
G01*
X120468000Y-140306000D02*
G75*
G03X120468000Y-140306000I-100000J0D01*
G01*
D13*
X117618000Y-140906000D02*
X117618000Y-142606000D01*
X117618000Y-142606000D02*
X106518000Y-142606000D01*
X106518000Y-142606000D02*
X106518000Y-140906000D01*
X117618000Y-128306000D02*
X117618000Y-126606000D01*
X117618000Y-126606000D02*
X106518000Y-126606000D01*
X106518000Y-126606000D02*
X106518000Y-128306000D01*
X188430000Y-142556000D02*
X188430000Y-140856000D01*
X177330000Y-142556000D02*
X188430000Y-142556000D01*
X177330000Y-140856000D02*
X177330000Y-142556000D01*
X188430000Y-126556000D02*
X188430000Y-128256000D01*
X177330000Y-126556000D02*
X188430000Y-126556000D01*
X177330000Y-128256000D02*
X177330000Y-126556000D01*
D14*
X174680000Y-128856000D02*
G75*
G03X174680000Y-128856000I-100000J0D01*
G01*
X174680000Y-128856000D02*
G75*
G03X174680000Y-128856000I-100000J0D01*
G01*
D15*
X146572000Y-141220000D02*
X146572000Y-119122000D01*
X146572000Y-119122000D02*
X129808001Y-119122000D01*
X129808001Y-119122000D02*
X129808001Y-141220000D01*
X129808001Y-141220000D02*
X146572000Y-141220000D01*
X136740707Y-136236709D02*
X136740707Y-127731990D01*
X138190000Y-126559407D02*
X135156266Y-129083425D01*
X138190000Y-126559407D02*
X141223734Y-129083425D01*
X139639293Y-136236709D02*
X139639293Y-127731990D01*
X142665801Y-137204012D02*
X144492026Y-137204012D01*
X143578913Y-138117124D02*
X143578913Y-136290899D01*
X143578913Y-124163144D02*
X143578913Y-122336919D01*
X142665801Y-123250032D02*
X144492026Y-123250032D01*
X132893415Y-137490942D02*
X132893415Y-135664717D01*
X132893415Y-124675073D02*
X132893415Y-122848848D01*
D10*
X97170761Y-78454380D02*
X95170761Y-78454380D01*
X95170761Y-77692476D01*
X95266000Y-77502000D01*
X95361238Y-77406761D01*
X95551714Y-77311523D01*
X95837428Y-77311523D01*
X96027904Y-77406761D01*
X96123142Y-77502000D01*
X96218380Y-77692476D01*
X96218380Y-78454380D01*
X97170761Y-76454380D02*
X95170761Y-76454380D01*
X97170761Y-74359142D02*
X96218380Y-75025809D01*
X97170761Y-75502000D02*
X95170761Y-75502000D01*
X95170761Y-74740095D01*
X95266000Y-74549619D01*
X95361238Y-74454380D01*
X95551714Y-74359142D01*
X95837428Y-74359142D01*
X96027904Y-74454380D01*
X96123142Y-74549619D01*
X96218380Y-74740095D01*
X96218380Y-75502000D01*
X97170761Y-72454380D02*
X97170761Y-73597238D01*
X97170761Y-73025809D02*
X95170761Y-73025809D01*
X95456476Y-73216285D01*
X95646952Y-73406761D01*
X95742190Y-73597238D01*
X192214571Y-120800380D02*
X192405047Y-120800380D01*
X192500285Y-120848000D01*
X192595523Y-120943238D01*
X192643142Y-121133714D01*
X192643142Y-121467047D01*
X192595523Y-121657523D01*
X192500285Y-121752761D01*
X192405047Y-121800380D01*
X192214571Y-121800380D01*
X192119333Y-121752761D01*
X192024095Y-121657523D01*
X191976476Y-121467047D01*
X191976476Y-121133714D01*
X192024095Y-120943238D01*
X192119333Y-120848000D01*
X192214571Y-120800380D01*
X193500285Y-121133714D02*
X193500285Y-121800380D01*
X193262190Y-120752761D02*
X193024095Y-121467047D01*
X193643142Y-121467047D01*
X108394571Y-121054380D02*
X108585047Y-121054380D01*
X108680285Y-121102000D01*
X108775523Y-121197238D01*
X108823142Y-121387714D01*
X108823142Y-121721047D01*
X108775523Y-121911523D01*
X108680285Y-122006761D01*
X108585047Y-122054380D01*
X108394571Y-122054380D01*
X108299333Y-122006761D01*
X108204095Y-121911523D01*
X108156476Y-121721047D01*
X108156476Y-121387714D01*
X108204095Y-121197238D01*
X108299333Y-121102000D01*
X108394571Y-121054380D01*
X109156476Y-121054380D02*
X109775523Y-121054380D01*
X109442190Y-121435333D01*
X109585047Y-121435333D01*
X109680285Y-121482952D01*
X109727904Y-121530571D01*
X109775523Y-121625809D01*
X109775523Y-121863904D01*
X109727904Y-121959142D01*
X109680285Y-122006761D01*
X109585047Y-122054380D01*
X109299333Y-122054380D01*
X109204095Y-122006761D01*
X109156476Y-121959142D01*
X101282571Y-92734380D02*
X101473047Y-92734380D01*
X101568285Y-92782000D01*
X101663523Y-92877238D01*
X101711142Y-93067714D01*
X101711142Y-93401047D01*
X101663523Y-93591523D01*
X101568285Y-93686761D01*
X101473047Y-93734380D01*
X101282571Y-93734380D01*
X101187333Y-93686761D01*
X101092095Y-93591523D01*
X101044476Y-93401047D01*
X101044476Y-93067714D01*
X101092095Y-92877238D01*
X101187333Y-92782000D01*
X101282571Y-92734380D01*
X102663523Y-93734380D02*
X102092095Y-93734380D01*
X102377809Y-93734380D02*
X102377809Y-92734380D01*
X102282571Y-92877238D01*
X102187333Y-92972476D01*
X102092095Y-93020095D01*
X191706571Y-90448380D02*
X191897047Y-90448380D01*
X191992285Y-90496000D01*
X192087523Y-90591238D01*
X192135142Y-90781714D01*
X192135142Y-91115047D01*
X192087523Y-91305523D01*
X191992285Y-91400761D01*
X191897047Y-91448380D01*
X191706571Y-91448380D01*
X191611333Y-91400761D01*
X191516095Y-91305523D01*
X191468476Y-91115047D01*
X191468476Y-90781714D01*
X191516095Y-90591238D01*
X191611333Y-90496000D01*
X191706571Y-90448380D01*
X192516095Y-90543619D02*
X192563714Y-90496000D01*
X192658952Y-90448380D01*
X192897047Y-90448380D01*
X192992285Y-90496000D01*
X193039904Y-90543619D01*
X193087523Y-90638857D01*
X193087523Y-90734095D01*
X193039904Y-90876952D01*
X192468476Y-91448380D01*
X193087523Y-91448380D01*
X181443333Y-93226380D02*
X181110000Y-92750190D01*
X180871904Y-93226380D02*
X180871904Y-92226380D01*
X181252857Y-92226380D01*
X181348095Y-92274000D01*
X181395714Y-92321619D01*
X181443333Y-92416857D01*
X181443333Y-92559714D01*
X181395714Y-92654952D01*
X181348095Y-92702571D01*
X181252857Y-92750190D01*
X180871904Y-92750190D01*
X182014761Y-92654952D02*
X181919523Y-92607333D01*
X181871904Y-92559714D01*
X181824285Y-92464476D01*
X181824285Y-92416857D01*
X181871904Y-92321619D01*
X181919523Y-92274000D01*
X182014761Y-92226380D01*
X182205238Y-92226380D01*
X182300476Y-92274000D01*
X182348095Y-92321619D01*
X182395714Y-92416857D01*
X182395714Y-92464476D01*
X182348095Y-92559714D01*
X182300476Y-92607333D01*
X182205238Y-92654952D01*
X182014761Y-92654952D01*
X181919523Y-92702571D01*
X181871904Y-92750190D01*
X181824285Y-92845428D01*
X181824285Y-93035904D01*
X181871904Y-93131142D01*
X181919523Y-93178761D01*
X182014761Y-93226380D01*
X182205238Y-93226380D01*
X182300476Y-93178761D01*
X182348095Y-93131142D01*
X182395714Y-93035904D01*
X182395714Y-92845428D01*
X182348095Y-92750190D01*
X182300476Y-92702571D01*
X182205238Y-92654952D01*
X94130761Y-110045333D02*
X94178380Y-109902476D01*
X94178380Y-109664380D01*
X94130761Y-109569142D01*
X94083142Y-109521523D01*
X93987904Y-109473904D01*
X93892666Y-109473904D01*
X93797428Y-109521523D01*
X93749809Y-109569142D01*
X93702190Y-109664380D01*
X93654571Y-109854857D01*
X93606952Y-109950095D01*
X93559333Y-109997714D01*
X93464095Y-110045333D01*
X93368857Y-110045333D01*
X93273619Y-109997714D01*
X93226000Y-109950095D01*
X93178380Y-109854857D01*
X93178380Y-109616761D01*
X93226000Y-109473904D01*
X93178380Y-109140571D02*
X94178380Y-108902476D01*
X93464095Y-108712000D01*
X94178380Y-108521523D01*
X93178380Y-108283428D01*
X94178380Y-107378666D02*
X94178380Y-107950095D01*
X94178380Y-107664380D02*
X93178380Y-107664380D01*
X93321238Y-107759619D01*
X93416476Y-107854857D01*
X93464095Y-107950095D01*
X193222571Y-107211714D02*
X193270190Y-107068857D01*
X193317809Y-107021238D01*
X193413047Y-106973619D01*
X193555904Y-106973619D01*
X193651142Y-107021238D01*
X193698761Y-107068857D01*
X193746380Y-107164095D01*
X193746380Y-107545047D01*
X192746380Y-107545047D01*
X192746380Y-107211714D01*
X192794000Y-107116476D01*
X192841619Y-107068857D01*
X192936857Y-107021238D01*
X193032095Y-107021238D01*
X193127333Y-107068857D01*
X193174952Y-107116476D01*
X193222571Y-107211714D01*
X193222571Y-107545047D01*
X192746380Y-106259333D02*
X193460666Y-106259333D01*
X193603523Y-106306952D01*
X193698761Y-106402190D01*
X193746380Y-106545047D01*
X193746380Y-106640285D01*
X193746380Y-105259333D02*
X193746380Y-105830761D01*
X193746380Y-105545047D02*
X192746380Y-105545047D01*
X192889238Y-105640285D01*
X192984476Y-105735523D01*
X193032095Y-105830761D01*
X169926095Y-140596380D02*
X169926095Y-139596380D01*
X169926095Y-140072571D02*
X170497523Y-140072571D01*
X170497523Y-140596380D02*
X170497523Y-139596380D01*
X171402285Y-139929714D02*
X171402285Y-140596380D01*
X171164190Y-139548761D02*
X170926095Y-140263047D01*
X171545142Y-140263047D01*
X124206095Y-142120380D02*
X124206095Y-141120380D01*
X124206095Y-141596571D02*
X124777523Y-141596571D01*
X124777523Y-142120380D02*
X124777523Y-141120380D01*
X125158476Y-141120380D02*
X125777523Y-141120380D01*
X125444190Y-141501333D01*
X125587047Y-141501333D01*
X125682285Y-141548952D01*
X125729904Y-141596571D01*
X125777523Y-141691809D01*
X125777523Y-141929904D01*
X125729904Y-142025142D01*
X125682285Y-142072761D01*
X125587047Y-142120380D01*
X125301333Y-142120380D01*
X125206095Y-142072761D01*
X125158476Y-142025142D01*
X168910095Y-75700380D02*
X168910095Y-74700380D01*
X168910095Y-75176571D02*
X169481523Y-75176571D01*
X169481523Y-75700380D02*
X169481523Y-74700380D01*
X169910095Y-74795619D02*
X169957714Y-74748000D01*
X170052952Y-74700380D01*
X170291047Y-74700380D01*
X170386285Y-74748000D01*
X170433904Y-74795619D01*
X170481523Y-74890857D01*
X170481523Y-74986095D01*
X170433904Y-75128952D01*
X169862476Y-75700380D01*
X170481523Y-75700380D01*
X122936095Y-72652380D02*
X122936095Y-71652380D01*
X122936095Y-72128571D02*
X123507523Y-72128571D01*
X123507523Y-72652380D02*
X123507523Y-71652380D01*
X124507523Y-72652380D02*
X123936095Y-72652380D01*
X124221809Y-72652380D02*
X124221809Y-71652380D01*
X124126571Y-71795238D01*
X124031333Y-71890476D01*
X123936095Y-71938095D01*
X197731142Y-73573142D02*
X197683523Y-73620761D01*
X197540666Y-73668380D01*
X197445428Y-73668380D01*
X197302571Y-73620761D01*
X197207333Y-73525523D01*
X197159714Y-73430285D01*
X197112095Y-73239809D01*
X197112095Y-73096952D01*
X197159714Y-72906476D01*
X197207333Y-72811238D01*
X197302571Y-72716000D01*
X197445428Y-72668380D01*
X197540666Y-72668380D01*
X197683523Y-72716000D01*
X197731142Y-72763619D01*
X198683523Y-73668380D02*
X198112095Y-73668380D01*
X198397809Y-73668380D02*
X198397809Y-72668380D01*
X198302571Y-72811238D01*
X198207333Y-72906476D01*
X198112095Y-72954095D01*
X199302571Y-72668380D02*
X199397809Y-72668380D01*
X199493047Y-72716000D01*
X199540666Y-72763619D01*
X199588285Y-72858857D01*
X199635904Y-73049333D01*
X199635904Y-73287428D01*
X199588285Y-73477904D01*
X199540666Y-73573142D01*
X199493047Y-73620761D01*
X199397809Y-73668380D01*
X199302571Y-73668380D01*
X199207333Y-73620761D01*
X199159714Y-73573142D01*
X199112095Y-73477904D01*
X199064476Y-73287428D01*
X199064476Y-73049333D01*
X199112095Y-72858857D01*
X199159714Y-72763619D01*
X199207333Y-72716000D01*
X199302571Y-72668380D01*
X179951142Y-124848380D02*
X179617809Y-124372190D01*
X179379714Y-124848380D02*
X179379714Y-123848380D01*
X179760666Y-123848380D01*
X179855904Y-123896000D01*
X179903523Y-123943619D01*
X179951142Y-124038857D01*
X179951142Y-124181714D01*
X179903523Y-124276952D01*
X179855904Y-124324571D01*
X179760666Y-124372190D01*
X179379714Y-124372190D01*
X180903523Y-124848380D02*
X180332095Y-124848380D01*
X180617809Y-124848380D02*
X180617809Y-123848380D01*
X180522571Y-123991238D01*
X180427333Y-124086476D01*
X180332095Y-124134095D01*
X181284476Y-123943619D02*
X181332095Y-123896000D01*
X181427333Y-123848380D01*
X181665428Y-123848380D01*
X181760666Y-123896000D01*
X181808285Y-123943619D01*
X181855904Y-124038857D01*
X181855904Y-124134095D01*
X181808285Y-124276952D01*
X181236857Y-124848380D01*
X181855904Y-124848380D01*
X179951142Y-121546380D02*
X179617809Y-121070190D01*
X179379714Y-121546380D02*
X179379714Y-120546380D01*
X179760666Y-120546380D01*
X179855904Y-120594000D01*
X179903523Y-120641619D01*
X179951142Y-120736857D01*
X179951142Y-120879714D01*
X179903523Y-120974952D01*
X179855904Y-121022571D01*
X179760666Y-121070190D01*
X179379714Y-121070190D01*
X180903523Y-121546380D02*
X180332095Y-121546380D01*
X180617809Y-121546380D02*
X180617809Y-120546380D01*
X180522571Y-120689238D01*
X180427333Y-120784476D01*
X180332095Y-120832095D01*
X181855904Y-121546380D02*
X181284476Y-121546380D01*
X181570190Y-121546380D02*
X181570190Y-120546380D01*
X181474952Y-120689238D01*
X181379714Y-120784476D01*
X181284476Y-120832095D01*
X112387142Y-125102380D02*
X112053809Y-124626190D01*
X111815714Y-125102380D02*
X111815714Y-124102380D01*
X112196666Y-124102380D01*
X112291904Y-124150000D01*
X112339523Y-124197619D01*
X112387142Y-124292857D01*
X112387142Y-124435714D01*
X112339523Y-124530952D01*
X112291904Y-124578571D01*
X112196666Y-124626190D01*
X111815714Y-124626190D01*
X113339523Y-125102380D02*
X112768095Y-125102380D01*
X113053809Y-125102380D02*
X113053809Y-124102380D01*
X112958571Y-124245238D01*
X112863333Y-124340476D01*
X112768095Y-124388095D01*
X113958571Y-124102380D02*
X114053809Y-124102380D01*
X114149047Y-124150000D01*
X114196666Y-124197619D01*
X114244285Y-124292857D01*
X114291904Y-124483333D01*
X114291904Y-124721428D01*
X114244285Y-124911904D01*
X114196666Y-125007142D01*
X114149047Y-125054761D01*
X114053809Y-125102380D01*
X113958571Y-125102380D01*
X113863333Y-125054761D01*
X113815714Y-125007142D01*
X113768095Y-124911904D01*
X113720476Y-124721428D01*
X113720476Y-124483333D01*
X113768095Y-124292857D01*
X113815714Y-124197619D01*
X113863333Y-124150000D01*
X113958571Y-124102380D01*
X100417333Y-123324380D02*
X100084000Y-122848190D01*
X99845904Y-123324380D02*
X99845904Y-122324380D01*
X100226857Y-122324380D01*
X100322095Y-122372000D01*
X100369714Y-122419619D01*
X100417333Y-122514857D01*
X100417333Y-122657714D01*
X100369714Y-122752952D01*
X100322095Y-122800571D01*
X100226857Y-122848190D01*
X99845904Y-122848190D01*
X100893523Y-123324380D02*
X101084000Y-123324380D01*
X101179238Y-123276761D01*
X101226857Y-123229142D01*
X101322095Y-123086285D01*
X101369714Y-122895809D01*
X101369714Y-122514857D01*
X101322095Y-122419619D01*
X101274476Y-122372000D01*
X101179238Y-122324380D01*
X100988761Y-122324380D01*
X100893523Y-122372000D01*
X100845904Y-122419619D01*
X100798285Y-122514857D01*
X100798285Y-122752952D01*
X100845904Y-122848190D01*
X100893523Y-122895809D01*
X100988761Y-122943428D01*
X101179238Y-122943428D01*
X101274476Y-122895809D01*
X101322095Y-122848190D01*
X101369714Y-122752952D01*
X181189333Y-90178380D02*
X180856000Y-89702190D01*
X180617904Y-90178380D02*
X180617904Y-89178380D01*
X180998857Y-89178380D01*
X181094095Y-89226000D01*
X181141714Y-89273619D01*
X181189333Y-89368857D01*
X181189333Y-89511714D01*
X181141714Y-89606952D01*
X181094095Y-89654571D01*
X180998857Y-89702190D01*
X180617904Y-89702190D01*
X181522666Y-89178380D02*
X182189333Y-89178380D01*
X181760761Y-90178380D01*
X112609333Y-92972380D02*
X112276000Y-92496190D01*
X112037904Y-92972380D02*
X112037904Y-91972380D01*
X112418857Y-91972380D01*
X112514095Y-92020000D01*
X112561714Y-92067619D01*
X112609333Y-92162857D01*
X112609333Y-92305714D01*
X112561714Y-92400952D01*
X112514095Y-92448571D01*
X112418857Y-92496190D01*
X112037904Y-92496190D01*
X113466476Y-91972380D02*
X113276000Y-91972380D01*
X113180761Y-92020000D01*
X113133142Y-92067619D01*
X113037904Y-92210476D01*
X112990285Y-92400952D01*
X112990285Y-92781904D01*
X113037904Y-92877142D01*
X113085523Y-92924761D01*
X113180761Y-92972380D01*
X113371238Y-92972380D01*
X113466476Y-92924761D01*
X113514095Y-92877142D01*
X113561714Y-92781904D01*
X113561714Y-92543809D01*
X113514095Y-92448571D01*
X113466476Y-92400952D01*
X113371238Y-92353333D01*
X113180761Y-92353333D01*
X113085523Y-92400952D01*
X113037904Y-92448571D01*
X112990285Y-92543809D01*
X97623333Y-89924380D02*
X97290000Y-89448190D01*
X97051904Y-89924380D02*
X97051904Y-88924380D01*
X97432857Y-88924380D01*
X97528095Y-88972000D01*
X97575714Y-89019619D01*
X97623333Y-89114857D01*
X97623333Y-89257714D01*
X97575714Y-89352952D01*
X97528095Y-89400571D01*
X97432857Y-89448190D01*
X97051904Y-89448190D01*
X98528095Y-88924380D02*
X98051904Y-88924380D01*
X98004285Y-89400571D01*
X98051904Y-89352952D01*
X98147142Y-89305333D01*
X98385238Y-89305333D01*
X98480476Y-89352952D01*
X98528095Y-89400571D01*
X98575714Y-89495809D01*
X98575714Y-89733904D01*
X98528095Y-89829142D01*
X98480476Y-89876761D01*
X98385238Y-89924380D01*
X98147142Y-89924380D01*
X98051904Y-89876761D01*
X98004285Y-89829142D01*
X133548380Y-110736666D02*
X133072190Y-111070000D01*
X133548380Y-111308095D02*
X132548380Y-111308095D01*
X132548380Y-110927142D01*
X132596000Y-110831904D01*
X132643619Y-110784285D01*
X132738857Y-110736666D01*
X132881714Y-110736666D01*
X132976952Y-110784285D01*
X133024571Y-110831904D01*
X133072190Y-110927142D01*
X133072190Y-111308095D01*
X132881714Y-109879523D02*
X133548380Y-109879523D01*
X132500761Y-110117619D02*
X133215047Y-110355714D01*
X133215047Y-109736666D01*
X178903333Y-119006380D02*
X178570000Y-118530190D01*
X178331904Y-119006380D02*
X178331904Y-118006380D01*
X178712857Y-118006380D01*
X178808095Y-118054000D01*
X178855714Y-118101619D01*
X178903333Y-118196857D01*
X178903333Y-118339714D01*
X178855714Y-118434952D01*
X178808095Y-118482571D01*
X178712857Y-118530190D01*
X178331904Y-118530190D01*
X179236666Y-118006380D02*
X179855714Y-118006380D01*
X179522380Y-118387333D01*
X179665238Y-118387333D01*
X179760476Y-118434952D01*
X179808095Y-118482571D01*
X179855714Y-118577809D01*
X179855714Y-118815904D01*
X179808095Y-118911142D01*
X179760476Y-118958761D01*
X179665238Y-119006380D01*
X179379523Y-119006380D01*
X179284285Y-118958761D01*
X179236666Y-118911142D01*
X170632380Y-91098666D02*
X170156190Y-91432000D01*
X170632380Y-91670095D02*
X169632380Y-91670095D01*
X169632380Y-91289142D01*
X169680000Y-91193904D01*
X169727619Y-91146285D01*
X169822857Y-91098666D01*
X169965714Y-91098666D01*
X170060952Y-91146285D01*
X170108571Y-91193904D01*
X170156190Y-91289142D01*
X170156190Y-91670095D01*
X169727619Y-90717714D02*
X169680000Y-90670095D01*
X169632380Y-90574857D01*
X169632380Y-90336761D01*
X169680000Y-90241523D01*
X169727619Y-90193904D01*
X169822857Y-90146285D01*
X169918095Y-90146285D01*
X170060952Y-90193904D01*
X170632380Y-90765333D01*
X170632380Y-90146285D01*
X133802380Y-100670666D02*
X133326190Y-101004000D01*
X133802380Y-101242095D02*
X132802380Y-101242095D01*
X132802380Y-100861142D01*
X132850000Y-100765904D01*
X132897619Y-100718285D01*
X132992857Y-100670666D01*
X133135714Y-100670666D01*
X133230952Y-100718285D01*
X133278571Y-100765904D01*
X133326190Y-100861142D01*
X133326190Y-101242095D01*
X133802380Y-99718285D02*
X133802380Y-100289714D01*
X133802380Y-100004000D02*
X132802380Y-100004000D01*
X132945238Y-100099238D01*
X133040476Y-100194476D01*
X133088095Y-100289714D01*
X194333904Y-124340380D02*
X194333904Y-123340380D01*
X194572000Y-123340380D01*
X194714857Y-123388000D01*
X194810095Y-123483238D01*
X194857714Y-123578476D01*
X194905333Y-123768952D01*
X194905333Y-123911809D01*
X194857714Y-124102285D01*
X194810095Y-124197523D01*
X194714857Y-124292761D01*
X194572000Y-124340380D01*
X194333904Y-124340380D01*
X195762476Y-123673714D02*
X195762476Y-124340380D01*
X195524380Y-123292761D02*
X195286285Y-124007047D01*
X195905333Y-124007047D01*
X96289904Y-142374380D02*
X96289904Y-141374380D01*
X96528000Y-141374380D01*
X96670857Y-141422000D01*
X96766095Y-141517238D01*
X96813714Y-141612476D01*
X96861333Y-141802952D01*
X96861333Y-141945809D01*
X96813714Y-142136285D01*
X96766095Y-142231523D01*
X96670857Y-142326761D01*
X96528000Y-142374380D01*
X96289904Y-142374380D01*
X97194666Y-141374380D02*
X97813714Y-141374380D01*
X97480380Y-141755333D01*
X97623238Y-141755333D01*
X97718476Y-141802952D01*
X97766095Y-141850571D01*
X97813714Y-141945809D01*
X97813714Y-142183904D01*
X97766095Y-142279142D01*
X97718476Y-142326761D01*
X97623238Y-142374380D01*
X97337523Y-142374380D01*
X97242285Y-142326761D01*
X97194666Y-142279142D01*
X193571904Y-69858380D02*
X193571904Y-68858380D01*
X193810000Y-68858380D01*
X193952857Y-68906000D01*
X194048095Y-69001238D01*
X194095714Y-69096476D01*
X194143333Y-69286952D01*
X194143333Y-69429809D01*
X194095714Y-69620285D01*
X194048095Y-69715523D01*
X193952857Y-69810761D01*
X193810000Y-69858380D01*
X193571904Y-69858380D01*
X194524285Y-68953619D02*
X194571904Y-68906000D01*
X194667142Y-68858380D01*
X194905238Y-68858380D01*
X195000476Y-68906000D01*
X195048095Y-68953619D01*
X195095714Y-69048857D01*
X195095714Y-69144095D01*
X195048095Y-69286952D01*
X194476666Y-69858380D01*
X195095714Y-69858380D01*
X195445142Y-133135142D02*
X195397523Y-133182761D01*
X195254666Y-133230380D01*
X195159428Y-133230380D01*
X195016571Y-133182761D01*
X194921333Y-133087523D01*
X194873714Y-132992285D01*
X194826095Y-132801809D01*
X194826095Y-132658952D01*
X194873714Y-132468476D01*
X194921333Y-132373238D01*
X195016571Y-132278000D01*
X195159428Y-132230380D01*
X195254666Y-132230380D01*
X195397523Y-132278000D01*
X195445142Y-132325619D01*
X196397523Y-133230380D02*
X195826095Y-133230380D01*
X196111809Y-133230380D02*
X196111809Y-132230380D01*
X196016571Y-132373238D01*
X195921333Y-132468476D01*
X195826095Y-132516095D01*
X196730857Y-132230380D02*
X197397523Y-132230380D01*
X196968952Y-133230380D01*
X199001142Y-132881142D02*
X198953523Y-132928761D01*
X198810666Y-132976380D01*
X198715428Y-132976380D01*
X198572571Y-132928761D01*
X198477333Y-132833523D01*
X198429714Y-132738285D01*
X198382095Y-132547809D01*
X198382095Y-132404952D01*
X198429714Y-132214476D01*
X198477333Y-132119238D01*
X198572571Y-132024000D01*
X198715428Y-131976380D01*
X198810666Y-131976380D01*
X198953523Y-132024000D01*
X199001142Y-132071619D01*
X199382095Y-132071619D02*
X199429714Y-132024000D01*
X199524952Y-131976380D01*
X199763047Y-131976380D01*
X199858285Y-132024000D01*
X199905904Y-132071619D01*
X199953523Y-132166857D01*
X199953523Y-132262095D01*
X199905904Y-132404952D01*
X199334476Y-132976380D01*
X199953523Y-132976380D01*
X200572571Y-131976380D02*
X200667809Y-131976380D01*
X200763047Y-132024000D01*
X200810666Y-132071619D01*
X200858285Y-132166857D01*
X200905904Y-132357333D01*
X200905904Y-132595428D01*
X200858285Y-132785904D01*
X200810666Y-132881142D01*
X200763047Y-132928761D01*
X200667809Y-132976380D01*
X200572571Y-132976380D01*
X200477333Y-132928761D01*
X200429714Y-132881142D01*
X200382095Y-132785904D01*
X200334476Y-132595428D01*
X200334476Y-132357333D01*
X200382095Y-132166857D01*
X200429714Y-132071619D01*
X200477333Y-132024000D01*
X200572571Y-131976380D01*
X194159142Y-140532857D02*
X194206761Y-140580476D01*
X194254380Y-140723333D01*
X194254380Y-140818571D01*
X194206761Y-140961428D01*
X194111523Y-141056666D01*
X194016285Y-141104285D01*
X193825809Y-141151904D01*
X193682952Y-141151904D01*
X193492476Y-141104285D01*
X193397238Y-141056666D01*
X193302000Y-140961428D01*
X193254380Y-140818571D01*
X193254380Y-140723333D01*
X193302000Y-140580476D01*
X193349619Y-140532857D01*
X194254380Y-139580476D02*
X194254380Y-140151904D01*
X194254380Y-139866190D02*
X193254380Y-139866190D01*
X193397238Y-139961428D01*
X193492476Y-140056666D01*
X193540095Y-140151904D01*
X194254380Y-139104285D02*
X194254380Y-138913809D01*
X194206761Y-138818571D01*
X194159142Y-138770952D01*
X194016285Y-138675714D01*
X193825809Y-138628095D01*
X193444857Y-138628095D01*
X193349619Y-138675714D01*
X193302000Y-138723333D01*
X193254380Y-138818571D01*
X193254380Y-139009047D01*
X193302000Y-139104285D01*
X193349619Y-139151904D01*
X193444857Y-139199523D01*
X193682952Y-139199523D01*
X193778190Y-139151904D01*
X193825809Y-139104285D01*
X193873428Y-139009047D01*
X193873428Y-138818571D01*
X193825809Y-138723333D01*
X193778190Y-138675714D01*
X193682952Y-138628095D01*
X195445142Y-135167142D02*
X195397523Y-135214761D01*
X195254666Y-135262380D01*
X195159428Y-135262380D01*
X195016571Y-135214761D01*
X194921333Y-135119523D01*
X194873714Y-135024285D01*
X194826095Y-134833809D01*
X194826095Y-134690952D01*
X194873714Y-134500476D01*
X194921333Y-134405238D01*
X195016571Y-134310000D01*
X195159428Y-134262380D01*
X195254666Y-134262380D01*
X195397523Y-134310000D01*
X195445142Y-134357619D01*
X196397523Y-135262380D02*
X195826095Y-135262380D01*
X196111809Y-135262380D02*
X196111809Y-134262380D01*
X196016571Y-134405238D01*
X195921333Y-134500476D01*
X195826095Y-134548095D01*
X196968952Y-134690952D02*
X196873714Y-134643333D01*
X196826095Y-134595714D01*
X196778476Y-134500476D01*
X196778476Y-134452857D01*
X196826095Y-134357619D01*
X196873714Y-134310000D01*
X196968952Y-134262380D01*
X197159428Y-134262380D01*
X197254666Y-134310000D01*
X197302285Y-134357619D01*
X197349904Y-134452857D01*
X197349904Y-134500476D01*
X197302285Y-134595714D01*
X197254666Y-134643333D01*
X197159428Y-134690952D01*
X196968952Y-134690952D01*
X196873714Y-134738571D01*
X196826095Y-134786190D01*
X196778476Y-134881428D01*
X196778476Y-135071904D01*
X196826095Y-135167142D01*
X196873714Y-135214761D01*
X196968952Y-135262380D01*
X197159428Y-135262380D01*
X197254666Y-135214761D01*
X197302285Y-135167142D01*
X197349904Y-135071904D01*
X197349904Y-134881428D01*
X197302285Y-134786190D01*
X197254666Y-134738571D01*
X197159428Y-134690952D01*
X192143142Y-131357142D02*
X192095523Y-131404761D01*
X191952666Y-131452380D01*
X191857428Y-131452380D01*
X191714571Y-131404761D01*
X191619333Y-131309523D01*
X191571714Y-131214285D01*
X191524095Y-131023809D01*
X191524095Y-130880952D01*
X191571714Y-130690476D01*
X191619333Y-130595238D01*
X191714571Y-130500000D01*
X191857428Y-130452380D01*
X191952666Y-130452380D01*
X192095523Y-130500000D01*
X192143142Y-130547619D01*
X193095523Y-131452380D02*
X192524095Y-131452380D01*
X192809809Y-131452380D02*
X192809809Y-130452380D01*
X192714571Y-130595238D01*
X192619333Y-130690476D01*
X192524095Y-130738095D01*
X193952666Y-130452380D02*
X193762190Y-130452380D01*
X193666952Y-130500000D01*
X193619333Y-130547619D01*
X193524095Y-130690476D01*
X193476476Y-130880952D01*
X193476476Y-131261904D01*
X193524095Y-131357142D01*
X193571714Y-131404761D01*
X193666952Y-131452380D01*
X193857428Y-131452380D01*
X193952666Y-131404761D01*
X194000285Y-131357142D01*
X194047904Y-131261904D01*
X194047904Y-131023809D01*
X194000285Y-130928571D01*
X193952666Y-130880952D01*
X193857428Y-130833333D01*
X193666952Y-130833333D01*
X193571714Y-130880952D01*
X193524095Y-130928571D01*
X193476476Y-131023809D01*
X99925142Y-137484857D02*
X99972761Y-137532476D01*
X100020380Y-137675333D01*
X100020380Y-137770571D01*
X99972761Y-137913428D01*
X99877523Y-138008666D01*
X99782285Y-138056285D01*
X99591809Y-138103904D01*
X99448952Y-138103904D01*
X99258476Y-138056285D01*
X99163238Y-138008666D01*
X99068000Y-137913428D01*
X99020380Y-137770571D01*
X99020380Y-137675333D01*
X99068000Y-137532476D01*
X99115619Y-137484857D01*
X100020380Y-136532476D02*
X100020380Y-137103904D01*
X100020380Y-136818190D02*
X99020380Y-136818190D01*
X99163238Y-136913428D01*
X99258476Y-137008666D01*
X99306095Y-137103904D01*
X99115619Y-136151523D02*
X99068000Y-136103904D01*
X99020380Y-136008666D01*
X99020380Y-135770571D01*
X99068000Y-135675333D01*
X99115619Y-135627714D01*
X99210857Y-135580095D01*
X99306095Y-135580095D01*
X99448952Y-135627714D01*
X100020380Y-136199142D01*
X100020380Y-135580095D01*
X93591142Y-135591142D02*
X93543523Y-135638761D01*
X93400666Y-135686380D01*
X93305428Y-135686380D01*
X93162571Y-135638761D01*
X93067333Y-135543523D01*
X93019714Y-135448285D01*
X92972095Y-135257809D01*
X92972095Y-135114952D01*
X93019714Y-134924476D01*
X93067333Y-134829238D01*
X93162571Y-134734000D01*
X93305428Y-134686380D01*
X93400666Y-134686380D01*
X93543523Y-134734000D01*
X93591142Y-134781619D01*
X94543523Y-135686380D02*
X93972095Y-135686380D01*
X94257809Y-135686380D02*
X94257809Y-134686380D01*
X94162571Y-134829238D01*
X94067333Y-134924476D01*
X93972095Y-134972095D01*
X95448285Y-134686380D02*
X94972095Y-134686380D01*
X94924476Y-135162571D01*
X94972095Y-135114952D01*
X95067333Y-135067333D01*
X95305428Y-135067333D01*
X95400666Y-135114952D01*
X95448285Y-135162571D01*
X95495904Y-135257809D01*
X95495904Y-135495904D01*
X95448285Y-135591142D01*
X95400666Y-135638761D01*
X95305428Y-135686380D01*
X95067333Y-135686380D01*
X94972095Y-135638761D01*
X94924476Y-135591142D01*
X101703142Y-129786357D02*
X101750761Y-129833976D01*
X101798380Y-129976833D01*
X101798380Y-130072071D01*
X101750761Y-130214928D01*
X101655523Y-130310166D01*
X101560285Y-130357785D01*
X101369809Y-130405404D01*
X101226952Y-130405404D01*
X101036476Y-130357785D01*
X100941238Y-130310166D01*
X100846000Y-130214928D01*
X100798380Y-130072071D01*
X100798380Y-129976833D01*
X100846000Y-129833976D01*
X100893619Y-129786357D01*
X101798380Y-128833976D02*
X101798380Y-129405404D01*
X101798380Y-129119690D02*
X100798380Y-129119690D01*
X100941238Y-129214928D01*
X101036476Y-129310166D01*
X101084095Y-129405404D01*
X101131714Y-127976833D02*
X101798380Y-127976833D01*
X100750761Y-128214928D02*
X101465047Y-128453023D01*
X101465047Y-127833976D01*
X101211142Y-133135142D02*
X101163523Y-133182761D01*
X101020666Y-133230380D01*
X100925428Y-133230380D01*
X100782571Y-133182761D01*
X100687333Y-133087523D01*
X100639714Y-132992285D01*
X100592095Y-132801809D01*
X100592095Y-132658952D01*
X100639714Y-132468476D01*
X100687333Y-132373238D01*
X100782571Y-132278000D01*
X100925428Y-132230380D01*
X101020666Y-132230380D01*
X101163523Y-132278000D01*
X101211142Y-132325619D01*
X102163523Y-133230380D02*
X101592095Y-133230380D01*
X101877809Y-133230380D02*
X101877809Y-132230380D01*
X101782571Y-132373238D01*
X101687333Y-132468476D01*
X101592095Y-132516095D01*
X102496857Y-132230380D02*
X103115904Y-132230380D01*
X102782571Y-132611333D01*
X102925428Y-132611333D01*
X103020666Y-132658952D01*
X103068285Y-132706571D01*
X103115904Y-132801809D01*
X103115904Y-133039904D01*
X103068285Y-133135142D01*
X103020666Y-133182761D01*
X102925428Y-133230380D01*
X102639714Y-133230380D01*
X102544476Y-133182761D01*
X102496857Y-133135142D01*
X102481142Y-141009142D02*
X102433523Y-141056761D01*
X102290666Y-141104380D01*
X102195428Y-141104380D01*
X102052571Y-141056761D01*
X101957333Y-140961523D01*
X101909714Y-140866285D01*
X101862095Y-140675809D01*
X101862095Y-140532952D01*
X101909714Y-140342476D01*
X101957333Y-140247238D01*
X102052571Y-140152000D01*
X102195428Y-140104380D01*
X102290666Y-140104380D01*
X102433523Y-140152000D01*
X102481142Y-140199619D01*
X103433523Y-141104380D02*
X102862095Y-141104380D01*
X103147809Y-141104380D02*
X103147809Y-140104380D01*
X103052571Y-140247238D01*
X102957333Y-140342476D01*
X102862095Y-140390095D01*
X104385904Y-141104380D02*
X103814476Y-141104380D01*
X104100190Y-141104380D02*
X104100190Y-140104380D01*
X104004952Y-140247238D01*
X103909714Y-140342476D01*
X103814476Y-140390095D01*
X195429142Y-77192666D02*
X195476761Y-77240285D01*
X195524380Y-77383142D01*
X195524380Y-77478380D01*
X195476761Y-77621238D01*
X195381523Y-77716476D01*
X195286285Y-77764095D01*
X195095809Y-77811714D01*
X194952952Y-77811714D01*
X194762476Y-77764095D01*
X194667238Y-77716476D01*
X194572000Y-77621238D01*
X194524380Y-77478380D01*
X194524380Y-77383142D01*
X194572000Y-77240285D01*
X194619619Y-77192666D01*
X194524380Y-76859333D02*
X194524380Y-76192666D01*
X195524380Y-76621238D01*
X193523142Y-84558666D02*
X193570761Y-84606285D01*
X193618380Y-84749142D01*
X193618380Y-84844380D01*
X193570761Y-84987238D01*
X193475523Y-85082476D01*
X193380285Y-85130095D01*
X193189809Y-85177714D01*
X193046952Y-85177714D01*
X192856476Y-85130095D01*
X192761238Y-85082476D01*
X192666000Y-84987238D01*
X192618380Y-84844380D01*
X192618380Y-84749142D01*
X192666000Y-84606285D01*
X192713619Y-84558666D01*
X193618380Y-84082476D02*
X193618380Y-83892000D01*
X193570761Y-83796761D01*
X193523142Y-83749142D01*
X193380285Y-83653904D01*
X193189809Y-83606285D01*
X192808857Y-83606285D01*
X192713619Y-83653904D01*
X192666000Y-83701523D01*
X192618380Y-83796761D01*
X192618380Y-83987238D01*
X192666000Y-84082476D01*
X192713619Y-84130095D01*
X192808857Y-84177714D01*
X193046952Y-84177714D01*
X193142190Y-84130095D01*
X193189809Y-84082476D01*
X193237428Y-83987238D01*
X193237428Y-83796761D01*
X193189809Y-83701523D01*
X193142190Y-83653904D01*
X193046952Y-83606285D01*
X195159333Y-79923142D02*
X195111714Y-79970761D01*
X194968857Y-80018380D01*
X194873619Y-80018380D01*
X194730761Y-79970761D01*
X194635523Y-79875523D01*
X194587904Y-79780285D01*
X194540285Y-79589809D01*
X194540285Y-79446952D01*
X194587904Y-79256476D01*
X194635523Y-79161238D01*
X194730761Y-79066000D01*
X194873619Y-79018380D01*
X194968857Y-79018380D01*
X195111714Y-79066000D01*
X195159333Y-79113619D01*
X195730761Y-79446952D02*
X195635523Y-79399333D01*
X195587904Y-79351714D01*
X195540285Y-79256476D01*
X195540285Y-79208857D01*
X195587904Y-79113619D01*
X195635523Y-79066000D01*
X195730761Y-79018380D01*
X195921238Y-79018380D01*
X196016476Y-79066000D01*
X196064095Y-79113619D01*
X196111714Y-79208857D01*
X196111714Y-79256476D01*
X196064095Y-79351714D01*
X196016476Y-79399333D01*
X195921238Y-79446952D01*
X195730761Y-79446952D01*
X195635523Y-79494571D01*
X195587904Y-79542190D01*
X195540285Y-79637428D01*
X195540285Y-79827904D01*
X195587904Y-79923142D01*
X195635523Y-79970761D01*
X195730761Y-80018380D01*
X195921238Y-80018380D01*
X196016476Y-79970761D01*
X196064095Y-79923142D01*
X196111714Y-79827904D01*
X196111714Y-79637428D01*
X196064095Y-79542190D01*
X196016476Y-79494571D01*
X195921238Y-79446952D01*
X195175142Y-75160666D02*
X195222761Y-75208285D01*
X195270380Y-75351142D01*
X195270380Y-75446380D01*
X195222761Y-75589238D01*
X195127523Y-75684476D01*
X195032285Y-75732095D01*
X194841809Y-75779714D01*
X194698952Y-75779714D01*
X194508476Y-75732095D01*
X194413238Y-75684476D01*
X194318000Y-75589238D01*
X194270380Y-75446380D01*
X194270380Y-75351142D01*
X194318000Y-75208285D01*
X194365619Y-75160666D01*
X194270380Y-74303523D02*
X194270380Y-74494000D01*
X194318000Y-74589238D01*
X194365619Y-74636857D01*
X194508476Y-74732095D01*
X194698952Y-74779714D01*
X195079904Y-74779714D01*
X195175142Y-74732095D01*
X195222761Y-74684476D01*
X195270380Y-74589238D01*
X195270380Y-74398761D01*
X195222761Y-74303523D01*
X195175142Y-74255904D01*
X195079904Y-74208285D01*
X194841809Y-74208285D01*
X194746571Y-74255904D01*
X194698952Y-74303523D01*
X194651333Y-74398761D01*
X194651333Y-74589238D01*
X194698952Y-74684476D01*
X194746571Y-74732095D01*
X194841809Y-74779714D01*
X124999904Y-114832380D02*
X124999904Y-113832380D01*
X124999904Y-114308571D02*
X125571333Y-114308571D01*
X125571333Y-114832380D02*
X125571333Y-113832380D01*
X125999904Y-114784761D02*
X126142761Y-114832380D01*
X126380857Y-114832380D01*
X126476095Y-114784761D01*
X126523714Y-114737142D01*
X126571333Y-114641904D01*
X126571333Y-114546666D01*
X126523714Y-114451428D01*
X126476095Y-114403809D01*
X126380857Y-114356190D01*
X126190380Y-114308571D01*
X126095142Y-114260952D01*
X126047523Y-114213333D01*
X125999904Y-114118095D01*
X125999904Y-114022857D01*
X126047523Y-113927619D01*
X126095142Y-113880000D01*
X126190380Y-113832380D01*
X126428476Y-113832380D01*
X126571333Y-113880000D01*
X127428476Y-114165714D02*
X127428476Y-114832380D01*
X127190380Y-113784761D02*
X126952285Y-114499047D01*
X127571333Y-114499047D01*
X168687904Y-119768380D02*
X168687904Y-118768380D01*
X168687904Y-119244571D02*
X169259333Y-119244571D01*
X169259333Y-119768380D02*
X169259333Y-118768380D01*
X169687904Y-119720761D02*
X169830761Y-119768380D01*
X170068857Y-119768380D01*
X170164095Y-119720761D01*
X170211714Y-119673142D01*
X170259333Y-119577904D01*
X170259333Y-119482666D01*
X170211714Y-119387428D01*
X170164095Y-119339809D01*
X170068857Y-119292190D01*
X169878380Y-119244571D01*
X169783142Y-119196952D01*
X169735523Y-119149333D01*
X169687904Y-119054095D01*
X169687904Y-118958857D01*
X169735523Y-118863619D01*
X169783142Y-118816000D01*
X169878380Y-118768380D01*
X170116476Y-118768380D01*
X170259333Y-118816000D01*
X170592666Y-118768380D02*
X171211714Y-118768380D01*
X170878380Y-119149333D01*
X171021238Y-119149333D01*
X171116476Y-119196952D01*
X171164095Y-119244571D01*
X171211714Y-119339809D01*
X171211714Y-119577904D01*
X171164095Y-119673142D01*
X171116476Y-119720761D01*
X171021238Y-119768380D01*
X170735523Y-119768380D01*
X170640285Y-119720761D01*
X170592666Y-119673142D01*
X168687904Y-95512380D02*
X168687904Y-94512380D01*
X168687904Y-94988571D02*
X169259333Y-94988571D01*
X169259333Y-95512380D02*
X169259333Y-94512380D01*
X169687904Y-95464761D02*
X169830761Y-95512380D01*
X170068857Y-95512380D01*
X170164095Y-95464761D01*
X170211714Y-95417142D01*
X170259333Y-95321904D01*
X170259333Y-95226666D01*
X170211714Y-95131428D01*
X170164095Y-95083809D01*
X170068857Y-95036190D01*
X169878380Y-94988571D01*
X169783142Y-94940952D01*
X169735523Y-94893333D01*
X169687904Y-94798095D01*
X169687904Y-94702857D01*
X169735523Y-94607619D01*
X169783142Y-94560000D01*
X169878380Y-94512380D01*
X170116476Y-94512380D01*
X170259333Y-94560000D01*
X170640285Y-94607619D02*
X170687904Y-94560000D01*
X170783142Y-94512380D01*
X171021238Y-94512380D01*
X171116476Y-94560000D01*
X171164095Y-94607619D01*
X171211714Y-94702857D01*
X171211714Y-94798095D01*
X171164095Y-94940952D01*
X170592666Y-95512380D01*
X171211714Y-95512380D01*
X124999904Y-99432380D02*
X124999904Y-98432380D01*
X124999904Y-98908571D02*
X125571333Y-98908571D01*
X125571333Y-99432380D02*
X125571333Y-98432380D01*
X125999904Y-99384761D02*
X126142761Y-99432380D01*
X126380857Y-99432380D01*
X126476095Y-99384761D01*
X126523714Y-99337142D01*
X126571333Y-99241904D01*
X126571333Y-99146666D01*
X126523714Y-99051428D01*
X126476095Y-99003809D01*
X126380857Y-98956190D01*
X126190380Y-98908571D01*
X126095142Y-98860952D01*
X126047523Y-98813333D01*
X125999904Y-98718095D01*
X125999904Y-98622857D01*
X126047523Y-98527619D01*
X126095142Y-98480000D01*
X126190380Y-98432380D01*
X126428476Y-98432380D01*
X126571333Y-98480000D01*
X127523714Y-99432380D02*
X126952285Y-99432380D01*
X127238000Y-99432380D02*
X127238000Y-98432380D01*
X127142761Y-98575238D01*
X127047523Y-98670476D01*
X126952285Y-98718095D01*
X136120666Y-66572380D02*
X136120666Y-67286666D01*
X136073047Y-67429523D01*
X135977809Y-67524761D01*
X135834952Y-67572380D01*
X135739714Y-67572380D01*
X137120666Y-67572380D02*
X136549238Y-67572380D01*
X136834952Y-67572380D02*
X136834952Y-66572380D01*
X136739714Y-66715238D01*
X136644476Y-66810476D01*
X136549238Y-66858095D01*
D16*
X153415782Y-70826156D02*
X153415782Y-71636012D01*
X153463421Y-71731289D01*
X153511060Y-71778927D01*
X153606337Y-71826566D01*
X153796891Y-71826566D01*
X153892168Y-71778927D01*
X153939807Y-71731289D01*
X153987445Y-71636012D01*
X153987445Y-70826156D01*
X154892578Y-70826156D02*
X154702024Y-70826156D01*
X154606747Y-70873795D01*
X154559108Y-70921433D01*
X154463831Y-71064349D01*
X154416192Y-71254903D01*
X154416192Y-71636012D01*
X154463831Y-71731289D01*
X154511470Y-71778927D01*
X154606747Y-71826566D01*
X154797301Y-71826566D01*
X154892578Y-71778927D01*
X154940217Y-71731289D01*
X154987855Y-71636012D01*
X154987855Y-71397819D01*
X154940217Y-71302542D01*
X154892578Y-71254903D01*
X154797301Y-71207265D01*
X154606747Y-71207265D01*
X154511470Y-71254903D01*
X154463831Y-71302542D01*
X154416192Y-71397819D01*
X153998838Y-128055407D02*
X154380335Y-128055407D01*
X154141900Y-127721597D02*
X154141900Y-128579966D01*
X154189587Y-128675340D01*
X154284961Y-128723027D01*
X154380335Y-128723027D01*
X155095642Y-128675340D02*
X155000268Y-128723027D01*
X154809520Y-128723027D01*
X154714145Y-128675340D01*
X154666458Y-128579966D01*
X154666458Y-128198469D01*
X154714145Y-128103095D01*
X154809520Y-128055407D01*
X155000268Y-128055407D01*
X155095642Y-128103095D01*
X155143330Y-128198469D01*
X155143330Y-128293843D01*
X154666458Y-128389217D01*
X155954011Y-128675340D02*
X155858637Y-128723027D01*
X155667888Y-128723027D01*
X155572514Y-128675340D01*
X155524827Y-128579966D01*
X155524827Y-128198469D01*
X155572514Y-128103095D01*
X155667888Y-128055407D01*
X155858637Y-128055407D01*
X155954011Y-128103095D01*
X156001698Y-128198469D01*
X156001698Y-128293843D01*
X155524827Y-128389217D01*
X156430882Y-128055407D02*
X156430882Y-128723027D01*
X156430882Y-128150782D02*
X156478570Y-128103095D01*
X156573944Y-128055407D01*
X156717005Y-128055407D01*
X156812380Y-128103095D01*
X156860067Y-128198469D01*
X156860067Y-128723027D01*
X157289251Y-128675340D02*
X157384625Y-128723027D01*
X157575374Y-128723027D01*
X157670748Y-128675340D01*
X157718435Y-128579966D01*
X157718435Y-128532279D01*
X157670748Y-128436905D01*
X157575374Y-128389217D01*
X157432312Y-128389217D01*
X157336938Y-128341530D01*
X157289251Y-128246156D01*
X157289251Y-128198469D01*
X157336938Y-128103095D01*
X157432312Y-128055407D01*
X157575374Y-128055407D01*
X157670748Y-128103095D01*
X158052245Y-128055407D02*
X158290681Y-128723027D01*
X158529117Y-128055407D02*
X158290681Y-128723027D01*
X158195307Y-128961463D01*
X158147620Y-129009150D01*
X158052245Y-129056837D01*
X158815240Y-127721597D02*
X159435172Y-127721597D01*
X159101362Y-128103095D01*
X159244424Y-128103095D01*
X159339798Y-128150782D01*
X159387485Y-128198469D01*
X159435172Y-128293843D01*
X159435172Y-128532279D01*
X159387485Y-128627653D01*
X159339798Y-128675340D01*
X159244424Y-128723027D01*
X158958301Y-128723027D01*
X158862927Y-128675340D01*
X158815240Y-128627653D01*
X159864357Y-128627653D02*
X159912044Y-128675340D01*
X159864357Y-128723027D01*
X159816670Y-128675340D01*
X159864357Y-128627653D01*
X159864357Y-128723027D01*
X160770412Y-127721597D02*
X160579664Y-127721597D01*
X160484290Y-127769285D01*
X160436602Y-127816972D01*
X160341228Y-127960033D01*
X160293541Y-128150782D01*
X160293541Y-128532279D01*
X160341228Y-128627653D01*
X160388915Y-128675340D01*
X160484290Y-128723027D01*
X160675038Y-128723027D01*
X160770412Y-128675340D01*
X160818100Y-128627653D01*
X160865787Y-128532279D01*
X160865787Y-128293843D01*
X160818100Y-128198469D01*
X160770412Y-128150782D01*
X160675038Y-128103095D01*
X160484290Y-128103095D01*
X160388915Y-128150782D01*
X160341228Y-128198469D01*
X160293541Y-128293843D01*
D10*
X100163333Y-82971142D02*
X100115714Y-83018761D01*
X99972857Y-83066380D01*
X99877619Y-83066380D01*
X99734761Y-83018761D01*
X99639523Y-82923523D01*
X99591904Y-82828285D01*
X99544285Y-82637809D01*
X99544285Y-82494952D01*
X99591904Y-82304476D01*
X99639523Y-82209238D01*
X99734761Y-82114000D01*
X99877619Y-82066380D01*
X99972857Y-82066380D01*
X100115714Y-82114000D01*
X100163333Y-82161619D01*
X101115714Y-83066380D02*
X100544285Y-83066380D01*
X100830000Y-83066380D02*
X100830000Y-82066380D01*
X100734761Y-82209238D01*
X100639523Y-82304476D01*
X100544285Y-82352095D01*
X99248833Y-81059142D02*
X99201214Y-81106761D01*
X99058357Y-81154380D01*
X98963119Y-81154380D01*
X98820261Y-81106761D01*
X98725023Y-81011523D01*
X98677404Y-80916285D01*
X98629785Y-80725809D01*
X98629785Y-80582952D01*
X98677404Y-80392476D01*
X98725023Y-80297238D01*
X98820261Y-80202000D01*
X98963119Y-80154380D01*
X99058357Y-80154380D01*
X99201214Y-80202000D01*
X99248833Y-80249619D01*
X99629785Y-80249619D02*
X99677404Y-80202000D01*
X99772642Y-80154380D01*
X100010738Y-80154380D01*
X100105976Y-80202000D01*
X100153595Y-80249619D01*
X100201214Y-80344857D01*
X100201214Y-80440095D01*
X100153595Y-80582952D01*
X99582166Y-81154380D01*
X100201214Y-81154380D01*
X101687333Y-77383142D02*
X101639714Y-77430761D01*
X101496857Y-77478380D01*
X101401619Y-77478380D01*
X101258761Y-77430761D01*
X101163523Y-77335523D01*
X101115904Y-77240285D01*
X101068285Y-77049809D01*
X101068285Y-76906952D01*
X101115904Y-76716476D01*
X101163523Y-76621238D01*
X101258761Y-76526000D01*
X101401619Y-76478380D01*
X101496857Y-76478380D01*
X101639714Y-76526000D01*
X101687333Y-76573619D01*
X102020666Y-76478380D02*
X102639714Y-76478380D01*
X102306380Y-76859333D01*
X102449238Y-76859333D01*
X102544476Y-76906952D01*
X102592095Y-76954571D01*
X102639714Y-77049809D01*
X102639714Y-77287904D01*
X102592095Y-77383142D01*
X102544476Y-77430761D01*
X102449238Y-77478380D01*
X102163523Y-77478380D01*
X102068285Y-77430761D01*
X102020666Y-77383142D01*
X102085142Y-73304166D02*
X102132761Y-73351785D01*
X102180380Y-73494642D01*
X102180380Y-73589880D01*
X102132761Y-73732738D01*
X102037523Y-73827976D01*
X101942285Y-73875595D01*
X101751809Y-73923214D01*
X101608952Y-73923214D01*
X101418476Y-73875595D01*
X101323238Y-73827976D01*
X101228000Y-73732738D01*
X101180380Y-73589880D01*
X101180380Y-73494642D01*
X101228000Y-73351785D01*
X101275619Y-73304166D01*
X101513714Y-72447023D02*
X102180380Y-72447023D01*
X101132761Y-72685119D02*
X101847047Y-72923214D01*
X101847047Y-72304166D01*
X94575333Y-81193142D02*
X94527714Y-81240761D01*
X94384857Y-81288380D01*
X94289619Y-81288380D01*
X94146761Y-81240761D01*
X94051523Y-81145523D01*
X94003904Y-81050285D01*
X93956285Y-80859809D01*
X93956285Y-80716952D01*
X94003904Y-80526476D01*
X94051523Y-80431238D01*
X94146761Y-80336000D01*
X94289619Y-80288380D01*
X94384857Y-80288380D01*
X94527714Y-80336000D01*
X94575333Y-80383619D01*
X95480095Y-80288380D02*
X95003904Y-80288380D01*
X94956285Y-80764571D01*
X95003904Y-80716952D01*
X95099142Y-80669333D01*
X95337238Y-80669333D01*
X95432476Y-80716952D01*
X95480095Y-80764571D01*
X95527714Y-80859809D01*
X95527714Y-81097904D01*
X95480095Y-81193142D01*
X95432476Y-81240761D01*
X95337238Y-81288380D01*
X95099142Y-81288380D01*
X95003904Y-81240761D01*
X94956285Y-81193142D01*
X103322380Y-87416095D02*
X102322380Y-87416095D01*
X102322380Y-87178000D01*
X102370000Y-87035142D01*
X102465238Y-86939904D01*
X102560476Y-86892285D01*
X102750952Y-86844666D01*
X102893809Y-86844666D01*
X103084285Y-86892285D01*
X103179523Y-86939904D01*
X103274761Y-87035142D01*
X103322380Y-87178000D01*
X103322380Y-87416095D01*
X103322380Y-85892285D02*
X103322380Y-86463714D01*
X103322380Y-86178000D02*
X102322380Y-86178000D01*
X102465238Y-86273238D01*
X102560476Y-86368476D01*
X102608095Y-86463714D01*
D16*
X115749472Y-87289514D02*
X115749472Y-87808288D01*
X115779988Y-87869320D01*
X115810504Y-87899836D01*
X115871536Y-87930352D01*
X115993601Y-87930352D01*
X116054633Y-87899836D01*
X116085149Y-87869320D01*
X116115665Y-87808288D01*
X116115665Y-87289514D01*
X116756503Y-87930352D02*
X116390310Y-87930352D01*
X116573407Y-87930352D02*
X116573407Y-87289514D01*
X116512374Y-87381063D01*
X116451342Y-87442095D01*
X116390310Y-87472611D01*
X114268811Y-69902730D02*
X113963505Y-69902730D01*
X113963505Y-69261587D01*
X114757301Y-69261587D02*
X114635178Y-69261587D01*
X114574117Y-69292118D01*
X114543586Y-69322649D01*
X114482525Y-69414240D01*
X114451994Y-69536363D01*
X114451994Y-69780608D01*
X114482525Y-69841669D01*
X114513056Y-69872200D01*
X114574117Y-69902730D01*
X114696239Y-69902730D01*
X114757301Y-69872200D01*
X114787831Y-69841669D01*
X114818362Y-69780608D01*
X114818362Y-69627955D01*
X114787831Y-69566894D01*
X114757301Y-69536363D01*
X114696239Y-69505832D01*
X114574117Y-69505832D01*
X114513056Y-69536363D01*
X114482525Y-69566894D01*
X114451994Y-69627955D01*
X115062607Y-69322649D02*
X115093137Y-69292118D01*
X115154199Y-69261587D01*
X115306852Y-69261587D01*
X115367913Y-69292118D01*
X115398444Y-69322649D01*
X115428974Y-69383710D01*
X115428974Y-69444771D01*
X115398444Y-69536363D01*
X115032076Y-69902730D01*
X115428974Y-69902730D01*
X115642689Y-69261587D02*
X116039587Y-69261587D01*
X115825872Y-69505832D01*
X115917464Y-69505832D01*
X115978525Y-69536363D01*
X116009056Y-69566894D01*
X116039587Y-69627955D01*
X116039587Y-69780608D01*
X116009056Y-69841669D01*
X115978525Y-69872200D01*
X115917464Y-69902730D01*
X115734280Y-69902730D01*
X115673219Y-69872200D01*
X115642689Y-69841669D01*
X116589138Y-69475302D02*
X116589138Y-69902730D01*
X116436485Y-69231057D02*
X116283832Y-69689016D01*
X116680730Y-69689016D01*
X116924975Y-69902730D02*
X116924975Y-69261587D01*
X117169220Y-69261587D01*
X117230281Y-69292118D01*
X117260811Y-69322649D01*
X117291342Y-69383710D01*
X117291342Y-69475302D01*
X117260811Y-69536363D01*
X117230281Y-69566894D01*
X117169220Y-69597424D01*
X116924975Y-69597424D01*
X117566118Y-69902730D02*
X117566118Y-69261587D01*
X117718771Y-69261587D01*
X117810363Y-69292118D01*
X117871424Y-69353179D01*
X117901954Y-69414240D01*
X117932485Y-69536363D01*
X117932485Y-69627955D01*
X117901954Y-69750077D01*
X117871424Y-69811139D01*
X117810363Y-69872200D01*
X117718771Y-69902730D01*
X117566118Y-69902730D01*
X177874012Y-69688614D02*
X177874012Y-70207388D01*
X177904528Y-70268420D01*
X177935044Y-70298936D01*
X177996076Y-70329452D01*
X178118141Y-70329452D01*
X178179173Y-70298936D01*
X178209689Y-70268420D01*
X178240205Y-70207388D01*
X178240205Y-69688614D01*
X178514850Y-69749647D02*
X178545366Y-69719131D01*
X178606398Y-69688614D01*
X178758979Y-69688614D01*
X178820011Y-69719131D01*
X178850527Y-69749647D01*
X178881043Y-69810679D01*
X178881043Y-69871711D01*
X178850527Y-69963259D01*
X178484334Y-70329452D01*
X178881043Y-70329452D01*
X177003351Y-88357350D02*
X176698045Y-88357350D01*
X176698045Y-87716207D01*
X177491841Y-87716207D02*
X177369718Y-87716207D01*
X177308657Y-87746738D01*
X177278126Y-87777269D01*
X177217065Y-87868860D01*
X177186534Y-87990983D01*
X177186534Y-88235228D01*
X177217065Y-88296289D01*
X177247596Y-88326820D01*
X177308657Y-88357350D01*
X177430779Y-88357350D01*
X177491841Y-88326820D01*
X177522371Y-88296289D01*
X177552902Y-88235228D01*
X177552902Y-88082575D01*
X177522371Y-88021514D01*
X177491841Y-87990983D01*
X177430779Y-87960452D01*
X177308657Y-87960452D01*
X177247596Y-87990983D01*
X177217065Y-88021514D01*
X177186534Y-88082575D01*
X177797147Y-87777269D02*
X177827677Y-87746738D01*
X177888739Y-87716207D01*
X178041392Y-87716207D01*
X178102453Y-87746738D01*
X178132984Y-87777269D01*
X178163514Y-87838330D01*
X178163514Y-87899391D01*
X178132984Y-87990983D01*
X177766616Y-88357350D01*
X178163514Y-88357350D01*
X178377229Y-87716207D02*
X178774127Y-87716207D01*
X178560412Y-87960452D01*
X178652004Y-87960452D01*
X178713065Y-87990983D01*
X178743596Y-88021514D01*
X178774127Y-88082575D01*
X178774127Y-88235228D01*
X178743596Y-88296289D01*
X178713065Y-88326820D01*
X178652004Y-88357350D01*
X178468820Y-88357350D01*
X178407759Y-88326820D01*
X178377229Y-88296289D01*
X179323678Y-87929922D02*
X179323678Y-88357350D01*
X179171025Y-87685677D02*
X179018372Y-88143636D01*
X179415270Y-88143636D01*
X179659515Y-88357350D02*
X179659515Y-87716207D01*
X179903760Y-87716207D01*
X179964821Y-87746738D01*
X179995351Y-87777269D01*
X180025882Y-87838330D01*
X180025882Y-87929922D01*
X179995351Y-87990983D01*
X179964821Y-88021514D01*
X179903760Y-88052044D01*
X179659515Y-88052044D01*
X180300658Y-88357350D02*
X180300658Y-87716207D01*
X180453311Y-87716207D01*
X180544903Y-87746738D01*
X180605964Y-87807799D01*
X180636494Y-87868860D01*
X180667025Y-87990983D01*
X180667025Y-88082575D01*
X180636494Y-88204697D01*
X180605964Y-88265759D01*
X180544903Y-88326820D01*
X180453311Y-88357350D01*
X180300658Y-88357350D01*
X115659472Y-143473514D02*
X115659472Y-143992288D01*
X115689988Y-144053320D01*
X115720504Y-144083836D01*
X115781536Y-144114352D01*
X115903601Y-144114352D01*
X115964633Y-144083836D01*
X115995149Y-144053320D01*
X116025665Y-143992288D01*
X116025665Y-143473514D01*
X116269794Y-143473514D02*
X116666503Y-143473514D01*
X116452890Y-143717643D01*
X116544439Y-143717643D01*
X116605471Y-143748159D01*
X116635987Y-143778675D01*
X116666503Y-143839708D01*
X116666503Y-143992288D01*
X116635987Y-144053320D01*
X116605471Y-144083836D01*
X116544439Y-144114352D01*
X116361342Y-144114352D01*
X116300310Y-144083836D01*
X116269794Y-144053320D01*
X116192081Y-125702040D02*
X115886775Y-125702040D01*
X115886775Y-125060897D01*
X116680571Y-125060897D02*
X116558448Y-125060897D01*
X116497387Y-125091428D01*
X116466856Y-125121959D01*
X116405795Y-125213550D01*
X116375264Y-125335673D01*
X116375264Y-125579918D01*
X116405795Y-125640979D01*
X116436326Y-125671510D01*
X116497387Y-125702040D01*
X116619509Y-125702040D01*
X116680571Y-125671510D01*
X116711101Y-125640979D01*
X116741632Y-125579918D01*
X116741632Y-125427265D01*
X116711101Y-125366204D01*
X116680571Y-125335673D01*
X116619509Y-125305142D01*
X116497387Y-125305142D01*
X116436326Y-125335673D01*
X116405795Y-125366204D01*
X116375264Y-125427265D01*
X116985877Y-125121959D02*
X117016407Y-125091428D01*
X117077469Y-125060897D01*
X117230122Y-125060897D01*
X117291183Y-125091428D01*
X117321714Y-125121959D01*
X117352244Y-125183020D01*
X117352244Y-125244081D01*
X117321714Y-125335673D01*
X116955346Y-125702040D01*
X117352244Y-125702040D01*
X117565959Y-125060897D02*
X117962857Y-125060897D01*
X117749142Y-125305142D01*
X117840734Y-125305142D01*
X117901795Y-125335673D01*
X117932326Y-125366204D01*
X117962857Y-125427265D01*
X117962857Y-125579918D01*
X117932326Y-125640979D01*
X117901795Y-125671510D01*
X117840734Y-125702040D01*
X117657550Y-125702040D01*
X117596489Y-125671510D01*
X117565959Y-125640979D01*
X118512408Y-125274612D02*
X118512408Y-125702040D01*
X118359755Y-125030367D02*
X118207102Y-125488326D01*
X118604000Y-125488326D01*
X118848245Y-125702040D02*
X118848245Y-125060897D01*
X119092490Y-125060897D01*
X119153551Y-125091428D01*
X119184081Y-125121959D01*
X119214612Y-125183020D01*
X119214612Y-125274612D01*
X119184081Y-125335673D01*
X119153551Y-125366204D01*
X119092490Y-125396734D01*
X118848245Y-125396734D01*
X119489388Y-125702040D02*
X119489388Y-125060897D01*
X119642041Y-125060897D01*
X119733633Y-125091428D01*
X119794694Y-125152489D01*
X119825224Y-125213550D01*
X119855755Y-125335673D01*
X119855755Y-125427265D01*
X119825224Y-125549387D01*
X119794694Y-125610449D01*
X119733633Y-125671510D01*
X119642041Y-125702040D01*
X119489388Y-125702040D01*
X176549742Y-125061064D02*
X176549742Y-125579838D01*
X176580258Y-125640870D01*
X176610774Y-125671386D01*
X176671806Y-125701902D01*
X176793871Y-125701902D01*
X176854903Y-125671386D01*
X176885419Y-125640870D01*
X176915935Y-125579838D01*
X176915935Y-125061064D01*
X177495741Y-125274677D02*
X177495741Y-125701902D01*
X177343160Y-125030548D02*
X177190580Y-125488290D01*
X177587289Y-125488290D01*
X177441351Y-143655350D02*
X177136045Y-143655350D01*
X177136045Y-143014207D01*
X177929841Y-143014207D02*
X177807718Y-143014207D01*
X177746657Y-143044738D01*
X177716126Y-143075269D01*
X177655065Y-143166860D01*
X177624534Y-143288983D01*
X177624534Y-143533228D01*
X177655065Y-143594289D01*
X177685596Y-143624820D01*
X177746657Y-143655350D01*
X177868779Y-143655350D01*
X177929841Y-143624820D01*
X177960371Y-143594289D01*
X177990902Y-143533228D01*
X177990902Y-143380575D01*
X177960371Y-143319514D01*
X177929841Y-143288983D01*
X177868779Y-143258452D01*
X177746657Y-143258452D01*
X177685596Y-143288983D01*
X177655065Y-143319514D01*
X177624534Y-143380575D01*
X178235147Y-143075269D02*
X178265677Y-143044738D01*
X178326739Y-143014207D01*
X178479392Y-143014207D01*
X178540453Y-143044738D01*
X178570984Y-143075269D01*
X178601514Y-143136330D01*
X178601514Y-143197391D01*
X178570984Y-143288983D01*
X178204616Y-143655350D01*
X178601514Y-143655350D01*
X178815229Y-143014207D02*
X179212127Y-143014207D01*
X178998412Y-143258452D01*
X179090004Y-143258452D01*
X179151065Y-143288983D01*
X179181596Y-143319514D01*
X179212127Y-143380575D01*
X179212127Y-143533228D01*
X179181596Y-143594289D01*
X179151065Y-143624820D01*
X179090004Y-143655350D01*
X178906820Y-143655350D01*
X178845759Y-143624820D01*
X178815229Y-143594289D01*
X179761678Y-143227922D02*
X179761678Y-143655350D01*
X179609025Y-142983677D02*
X179456372Y-143441636D01*
X179853270Y-143441636D01*
X180097515Y-143655350D02*
X180097515Y-143014207D01*
X180341760Y-143014207D01*
X180402821Y-143044738D01*
X180433351Y-143075269D01*
X180463882Y-143136330D01*
X180463882Y-143227922D01*
X180433351Y-143288983D01*
X180402821Y-143319514D01*
X180341760Y-143350044D01*
X180097515Y-143350044D01*
X180738658Y-143655350D02*
X180738658Y-143014207D01*
X180891311Y-143014207D01*
X180982903Y-143044738D01*
X181043964Y-143105799D01*
X181074494Y-143166860D01*
X181105025Y-143288983D01*
X181105025Y-143380575D01*
X181074494Y-143502697D01*
X181043964Y-143563759D01*
X180982903Y-143624820D01*
X180891311Y-143655350D01*
X180738658Y-143655350D01*
D10*
X132040380Y-131825904D02*
X132849904Y-131825904D01*
X132945142Y-131778285D01*
X132992761Y-131730666D01*
X133040380Y-131635428D01*
X133040380Y-131444952D01*
X132992761Y-131349714D01*
X132945142Y-131302095D01*
X132849904Y-131254476D01*
X132040380Y-131254476D01*
X132040380Y-130302095D02*
X132040380Y-130778285D01*
X132516571Y-130825904D01*
X132468952Y-130778285D01*
X132421333Y-130683047D01*
X132421333Y-130444952D01*
X132468952Y-130349714D01*
X132516571Y-130302095D01*
X132611809Y-130254476D01*
X132849904Y-130254476D01*
X132945142Y-130302095D01*
X132992761Y-130349714D01*
X133040380Y-130444952D01*
X133040380Y-130683047D01*
X132992761Y-130778285D01*
X132945142Y-130825904D01*
M02*
