M48
INCH,TZ
T1C0.0157
T2C0.0315
T3C0.0335
T4C0.0354
T5C0.0362
T6C0.0394
T7C0.0402
T8C0.0906
%
G90
G05
T1
X38000Y-34525
X38600Y-35725
X38644Y-52019
X38700Y-48175
X39779Y-52357
X39830Y-30280
X40000Y-51175
X40100Y-29125
X40613Y-55806
X42192Y-51735
X42243Y-29658
X42270Y-52744
X42400Y-30625
X43523Y-52475
X43523Y-52790
X43523Y-53105
X43523Y-53420
X43523Y-53735
X43574Y-30398
X43574Y-30713
X43574Y-31028
X43574Y-31343
X43574Y-31658
X43838Y-52475
X43838Y-52790
X43838Y-53105
X43838Y-53420
X43838Y-53735
X43889Y-30398
X43889Y-30713
X43889Y-31028
X43889Y-31343
X43889Y-31658
X44000Y-34325
X44153Y-52475
X44153Y-52790
X44153Y-53105
X44153Y-53420
X44153Y-53735
X44204Y-30398
X44204Y-30713
X44204Y-31028
X44204Y-31343
X44204Y-31658
X44468Y-52475
X44468Y-52790
X44468Y-53105
X44468Y-53420
X44468Y-53735
X44519Y-30398
X44519Y-30713
X44519Y-31028
X44519Y-31343
X44519Y-31658
X44783Y-52475
X44783Y-52790
X44783Y-53105
X44783Y-53420
X44783Y-53735
X44834Y-30398
X44834Y-30713
X44834Y-31028
X44834Y-31343
X44834Y-31658
X45930Y-52744
X45930Y-53244
X45940Y-54215
X45960Y-54703
X45991Y-32139
X46027Y-51683
X46078Y-29607
X47448Y-51187
X47499Y-29111
X47700Y-31125
X48200Y-32425
X48200Y-47800
X48600Y-30625
X50000Y-32900
X50300Y-26600
X59900Y-52900
X63900Y-45700
X67100Y-24825
X68000Y-53175
X68430Y-32944
X68529Y-30025
X68600Y-47175
X68600Y-52675
X68672Y-54788
X68696Y-55272
X69898Y-32464
X69965Y-29444
X69985Y-29932
X70094Y-54292
X70180Y-51761
X70200Y-51200
X71143Y-30413
X71143Y-30728
X71143Y-31043
X71143Y-31357
X71143Y-31672
X71338Y-52241
X71338Y-52556
X71338Y-52871
X71338Y-53186
X71338Y-53501
X71400Y-49000
X71457Y-30413
X71457Y-30728
X71457Y-31043
X71457Y-31357
X71457Y-31672
X71653Y-52241
X71653Y-52556
X71653Y-52871
X71653Y-53186
X71653Y-53501
X71772Y-30413
X71772Y-30728
X71772Y-31043
X71772Y-31357
X71772Y-31672
X71900Y-47075
X71968Y-52241
X71968Y-52556
X71968Y-52871
X71968Y-53186
X71968Y-53501
X72087Y-30413
X72087Y-30728
X72087Y-31043
X72087Y-31357
X72087Y-31672
X72283Y-52241
X72283Y-52556
X72283Y-52871
X72283Y-53186
X72283Y-53501
X72402Y-30413
X72402Y-30728
X72402Y-31043
X72402Y-31357
X72402Y-31672
X72598Y-52241
X72598Y-52556
X72598Y-52871
X72598Y-53186
X72598Y-53501
X73200Y-35825
X73629Y-31454
X73733Y-32413
X73928Y-54241
X73964Y-53175
X76162Y-31798
X76200Y-54775
X76342Y-53619
X76400Y-32925
X77304Y-32129
X77495Y-49680
T2
X49463Y-44067
X49963Y-44067
X39900Y-41800
X39900Y-42800
X39900Y-43800
X50463Y-44067
X66463Y-45914
X66963Y-45914
X67463Y-45914
X66963Y-38268
X67463Y-38268
X49463Y-39915
X49963Y-39915
X50463Y-39915
X66463Y-38268
T3
X51797Y-47577
X51797Y-54900
X52791Y-47577
X52801Y-54910
X55990Y-47577
X56000Y-54900
X56994Y-47577
X57004Y-54900
T4
X37900Y-41800
X37900Y-43800
T5
X52344Y-29025
X53328Y-29025
X54116Y-29025
X55100Y-29025
T6
X49700Y-49700
X67200Y-51375
X66700Y-26425
X66700Y-27425
X66700Y-28425
X67200Y-56275
X67200Y-57275
X67200Y-58275
X48600Y-25325
X48600Y-26325
X39000Y-28725
X39000Y-29725
X39000Y-30725
X49300Y-56975
X49300Y-57975
X49300Y-58975
X48600Y-27325
T7
X59100Y-28100
X59100Y-29100
X59100Y-30100
X59100Y-31100
X59100Y-32100
X59100Y-33100
X59100Y-34100
X59100Y-35100
X59100Y-36100
X59100Y-37100
X59100Y-38100
X59100Y-39100
X59100Y-40100
X59100Y-41100
X59100Y-42100
X59100Y-43100
X59100Y-44100
X59100Y-45100
X59100Y-46100
X59100Y-47100
X59100Y-48100
X59100Y-49100
X59100Y-50100
X59100Y-51100
X65100Y-28100
X65100Y-29100
X65100Y-30100
X65100Y-31100
X65100Y-32100
X65100Y-33100
X65100Y-34100
X65100Y-35100
X65100Y-36100
X65100Y-37100
X65100Y-38100
X65100Y-39100
X65100Y-40100
X65100Y-41100
X65100Y-42100
X65100Y-43100
X65100Y-44100
X65100Y-45100
X65100Y-46100
X65100Y-47100
X65100Y-48100
X65100Y-49100
X65100Y-50100
X65100Y-51100
T8
X51135Y-27958
X56309Y-27958
T6
G00X74900Y-42394
M15
G01X74900Y-41606
M16
G05
G00X77361Y-40228
M15
G01X77951Y-40228
M16
G05
G00X77361Y-43772
M15
G01X77951Y-43772
M16
G05
G00X77262Y-42256
M15
G01X77262Y-41744
M16
G05
T0
M30
