  0
SECTION
  2
HEADER
  9
$ANGBASE
  50
0.0
  9
$ANGDIR
  70
1
  9
$MEASUREMENT
  70
0
  0
ENDSEC
  0
SECTION
  2
TABLES
  0
TABLE
  2
LTYPE
  70
4
  0
LTYPE
  5
40F
  2
CONTINUOUS
  70
0
  3
Solid line
  72
65
  73
0
  40
0.0
  0
LTYPE
  5
410
  2
DASHDOT
 70
0
  3
Dash Dot ____ _ ____ _
 72
65
 73
4
 40
2.0
 49
1.25
 49
-0.25
 49
0.25
 49
-0.25
  0
LTYPE
  5
411
  2
DASHED
 70
0
  3
Dashed __ __ __ __ __
 72
65
 73
2
 40
0.75
 49
0.5
 49
-0.25
  0
LTYPE
  5
43B
  2
DOTTED
 70
0
  3
Dotted .  .  .  .
 72
65
 73
2
 40
0.2
 49
0.0
 49
-0.2
  0
ENDTAB
  0
TABLE
  2
STYLE
  70
4
  0
STYLE
  2
KICAD
  70
0
  40
0
  41
1
  42
1
  50
0
  71
0
  3
isocp.shx
  0
STYLE
  2
KICADB
  70
0
  40
0
  41
1
  42
1
  50
0
  71
0
  3
isocp.shx
  0
STYLE
  2
KICADI
  70
0
  40
0
  41
1
  42
1
  50
15
  71
0
  3
isocp.shx
  0
STYLE
  2
KICADBI
  70
0
  40
0
  41
1
  42
1
  50
15
  71
0
  3
isocp.shx
  0
ENDTAB
  0
TABLE
  2
LAYER
  70
1
  0
LAYER
  2
BLACK
  70
0
  62
7
  6
CONTINUOUS
  0
ENDTAB
  0
ENDSEC
  0
SECTION
  2
ENTITIES
0
LINE
8
BLACK
6
CONTINUOUS
10
1.1437
20
-1.81929
11
1.14384
21
-1.81935
0
LINE
8
BLACK
6
CONTINUOUS
10
1.14384
20
-1.81935
11
1.1439
21
-1.81949
0
LINE
8
BLACK
6
CONTINUOUS
10
1.1439
20
-1.81949
11
1.1439
21
-1.87657
0
LINE
8
BLACK
6
CONTINUOUS
10
1.1439
20
-1.87657
11
1.14384
21
-1.87671
0
LINE
8
BLACK
6
CONTINUOUS
10
1.14384
20
-1.87671
11
1.1437
21
-1.87677
0
LINE
8
BLACK
6
CONTINUOUS
10
1.1437
20
-1.87677
11
1.01772
21
-1.87677
0
LINE
8
BLACK
6
CONTINUOUS
10
1.01772
20
-1.87677
11
1.01758
21
-1.87671
0
LINE
8
BLACK
6
CONTINUOUS
10
1.01758
20
-1.87671
11
1.01752
21
-1.87657
0
LINE
8
BLACK
6
CONTINUOUS
10
1.01752
20
-1.87657
11
1.01752
21
-1.81949
0
LINE
8
BLACK
6
CONTINUOUS
10
1.01752
20
-1.81949
11
1.01758
21
-1.81935
0
LINE
8
BLACK
6
CONTINUOUS
10
1.01758
20
-1.81935
11
1.01772
21
-1.81929
0
LINE
8
BLACK
6
CONTINUOUS
10
1.01772
20
-1.81929
11
1.1437
21
-1.81929
0
LINE
8
BLACK
6
CONTINUOUS
10
1.01791
20
-1.81969
11
1.01791
21
-1.87638
0
LINE
8
BLACK
6
CONTINUOUS
10
1.01791
20
-1.87638
11
1.1435
21
-1.87638
0
LINE
8
BLACK
6
CONTINUOUS
10
1.1435
20
-1.87638
11
1.1435
21
-1.81969
0
LINE
8
BLACK
6
CONTINUOUS
10
1.1435
20
-1.81969
11
1.01791
21
-1.81969
0
LINE
8
BLACK
6
CONTINUOUS
10
1.41929
20
-1.81929
11
1.41943
21
-1.81935
0
LINE
8
BLACK
6
CONTINUOUS
10
1.41943
20
-1.81935
11
1.41949
21
-1.81949
0
LINE
8
BLACK
6
CONTINUOUS
10
1.41949
20
-1.81949
11
1.41949
21
-1.87657
0
LINE
8
BLACK
6
CONTINUOUS
10
1.41949
20
-1.87657
11
1.41943
21
-1.87671
0
LINE
8
BLACK
6
CONTINUOUS
10
1.41943
20
-1.87671
11
1.41929
21
-1.87677
0
LINE
8
BLACK
6
CONTINUOUS
10
1.41929
20
-1.87677
11
1.29331
21
-1.87677
0
LINE
8
BLACK
6
CONTINUOUS
10
1.29331
20
-1.87677
11
1.29317
21
-1.87671
0
LINE
8
BLACK
6
CONTINUOUS
10
1.29317
20
-1.87671
11
1.29311
21
-1.87657
0
LINE
8
BLACK
6
CONTINUOUS
10
1.29311
20
-1.87657
11
1.29311
21
-1.81949
0
LINE
8
BLACK
6
CONTINUOUS
10
1.29311
20
-1.81949
11
1.29317
21
-1.81935
0
LINE
8
BLACK
6
CONTINUOUS
10
1.29317
20
-1.81935
11
1.29331
21
-1.81929
0
LINE
8
BLACK
6
CONTINUOUS
10
1.29331
20
-1.81929
11
1.41929
21
-1.81929
0
LINE
8
BLACK
6
CONTINUOUS
10
1.2935
20
-1.81969
11
1.2935
21
-1.87638
0
LINE
8
BLACK
6
CONTINUOUS
10
1.2935
20
-1.87638
11
1.41909
21
-1.87638
0
LINE
8
BLACK
6
CONTINUOUS
10
1.41909
20
-1.87638
11
1.41909
21
-1.81969
0
LINE
8
BLACK
6
CONTINUOUS
10
1.41909
20
-1.81969
11
1.2935
21
-1.81969
0
LINE
8
BLACK
6
CONTINUOUS
10
1.2815
20
-1.38425
11
1.28164
21
-1.38431
0
LINE
8
BLACK
6
CONTINUOUS
10
1.28164
20
-1.38431
11
1.28169
21
-1.38445
0
LINE
8
BLACK
6
CONTINUOUS
10
1.28169
20
-1.38445
11
1.28169
21
-1.44154
0
LINE
8
BLACK
6
CONTINUOUS
10
1.28169
20
-1.44154
11
1.28164
21
-1.44167
0
LINE
8
BLACK
6
CONTINUOUS
10
1.28164
20
-1.44167
11
1.2815
21
-1.44173
0
LINE
8
BLACK
6
CONTINUOUS
10
1.2815
20
-1.44173
11
1.15551
21
-1.44173
0
LINE
8
BLACK
6
CONTINUOUS
10
1.15551
20
-1.44173
11
1.15537
21
-1.44167
0
LINE
8
BLACK
6
CONTINUOUS
10
1.15537
20
-1.44167
11
1.15531
21
-1.44154
0
LINE
8
BLACK
6
CONTINUOUS
10
1.15531
20
-1.44154
11
1.15531
21
-1.38445
0
LINE
8
BLACK
6
CONTINUOUS
10
1.15531
20
-1.38445
11
1.15537
21
-1.38431
0
LINE
8
BLACK
6
CONTINUOUS
10
1.15537
20
-1.38431
11
1.15551
21
-1.38425
0
LINE
8
BLACK
6
CONTINUOUS
10
1.15551
20
-1.38425
11
1.2815
21
-1.38425
0
LINE
8
BLACK
6
CONTINUOUS
10
1.15571
20
-1.38465
11
1.15571
21
-1.44134
0
LINE
8
BLACK
6
CONTINUOUS
10
1.15571
20
-1.44134
11
1.2813
21
-1.44134
0
LINE
8
BLACK
6
CONTINUOUS
10
1.2813
20
-1.44134
11
1.2813
21
-1.38465
0
LINE
8
BLACK
6
CONTINUOUS
10
1.2813
20
-1.38465
11
1.15571
21
-1.38465
0
LINE
8
BLACK
6
CONTINUOUS
10
2.6
20
-1.34902
11
2.6007
21
-1.3493
0
LINE
8
BLACK
6
CONTINUOUS
10
2.6007
20
-1.3493
11
2.60098
21
-1.35
0
LINE
8
BLACK
6
CONTINUOUS
10
2.60098
20
-1.35
11
2.60098
21
-3.75
0
LINE
8
BLACK
6
CONTINUOUS
10
2.60098
20
-3.75
11
2.6007
21
-3.7507
0
LINE
8
BLACK
6
CONTINUOUS
10
2.6007
20
-3.7507
11
2.6
21
-3.75098
0
LINE
8
BLACK
6
CONTINUOUS
10
2.6
20
-3.75098
11
1.65098
21
-3.75098
0
LINE
8
BLACK
6
CONTINUOUS
10
1.65098
20
-3.75098
11
1.65098
21
-4.15
0
LINE
8
BLACK
6
CONTINUOUS
10
1.65098
20
-4.15
11
1.6507
21
-4.1507
0
LINE
8
BLACK
6
CONTINUOUS
10
1.6507
20
-4.1507
11
1.65
21
-4.15098
0
LINE
8
BLACK
6
CONTINUOUS
10
1.65
20
-4.15098
11
1.15
21
-4.15098
0
LINE
8
BLACK
6
CONTINUOUS
10
1.15
20
-4.15098
11
1.1493
21
-4.1507
0
LINE
8
BLACK
6
CONTINUOUS
10
1.1493
20
-4.1507
11
1.14902
21
-4.15
0
LINE
8
BLACK
6
CONTINUOUS
10
1.14902
20
-4.15
11
1.14902
21
-3.75098
0
LINE
8
BLACK
6
CONTINUOUS
10
1.14902
20
-3.75098
11
0.8
21
-3.75098
0
LINE
8
BLACK
6
CONTINUOUS
10
0.8
20
-3.75098
11
0.799304
21
-3.7507
0
LINE
8
BLACK
6
CONTINUOUS
10
0.799304
20
-3.7507
11
0.799016
21
-3.75
0
LINE
8
BLACK
6
CONTINUOUS
10
0.799016
20
-3.75
11
0.799016
21
-1.35
0
LINE
8
BLACK
6
CONTINUOUS
10
0.799016
20
-1.35
11
0.799304
21
-1.3493
0
LINE
8
BLACK
6
CONTINUOUS
10
0.799304
20
-1.3493
11
0.8
21
-1.34902
0
LINE
8
BLACK
6
CONTINUOUS
10
0.8
20
-1.34902
11
2.6
21
-1.34902
0
LINE
8
BLACK
6
CONTINUOUS
10
0.800984
20
-1.35098
11
0.800984
21
-3.74902
0
LINE
8
BLACK
6
CONTINUOUS
10
0.800984
20
-3.74902
11
1.15
21
-3.74902
0
LINE
8
BLACK
6
CONTINUOUS
10
1.15
20
-3.74902
11
1.1507
21
-3.7493
0
LINE
8
BLACK
6
CONTINUOUS
10
1.1507
20
-3.7493
11
1.15098
21
-3.75
0
LINE
8
BLACK
6
CONTINUOUS
10
1.15098
20
-3.75
11
1.15098
21
-4.14902
0
LINE
8
BLACK
6
CONTINUOUS
10
1.15098
20
-4.14902
11
1.64902
21
-4.14902
0
LINE
8
BLACK
6
CONTINUOUS
10
1.64902
20
-4.14902
11
1.64902
21
-3.75
0
LINE
8
BLACK
6
CONTINUOUS
10
1.64902
20
-3.75
11
1.6493
21
-3.7493
0
LINE
8
BLACK
6
CONTINUOUS
10
1.6493
20
-3.7493
11
1.65
21
-3.74902
0
LINE
8
BLACK
6
CONTINUOUS
10
1.65
20
-3.74902
11
2.59902
21
-3.74902
0
LINE
8
BLACK
6
CONTINUOUS
10
2.59902
20
-3.74902
11
2.59902
21
-1.35098
0
LINE
8
BLACK
6
CONTINUOUS
10
2.59902
20
-1.35098
11
0.800984
21
-1.35098
0
LINE
8
BLACK
6
CONTINUOUS
10
4.56016
20
-1.46704
11
4.60017
21
-1.47015
0
LINE
8
BLACK
6
CONTINUOUS
10
4.60017
20
-1.47015
11
4.64003
21
-1.47481
0
LINE
8
BLACK
6
CONTINUOUS
10
4.64003
20
-1.47481
11
4.67968
21
-1.48101
0
LINE
8
BLACK
6
CONTINUOUS
10
4.67968
20
-1.48101
11
4.71905
21
-1.48874
0
LINE
8
BLACK
6
CONTINUOUS
10
4.71905
20
-1.48874
11
4.7581
21
-1.49799
0
LINE
8
BLACK
6
CONTINUOUS
10
4.7581
20
-1.49799
11
4.79676
21
-1.50876
0
LINE
8
BLACK
6
CONTINUOUS
10
4.79676
20
-1.50876
11
4.83497
21
-1.52101
0
LINE
8
BLACK
6
CONTINUOUS
10
4.83497
20
-1.52101
11
4.87268
21
-1.53473
0
LINE
8
BLACK
6
CONTINUOUS
10
4.87268
20
-1.53473
11
4.90983
21
-1.54991
0
LINE
8
BLACK
6
CONTINUOUS
10
4.90983
20
-1.54991
11
4.94636
21
-1.56652
0
LINE
8
BLACK
6
CONTINUOUS
10
4.94636
20
-1.56652
11
4.98222
21
-1.58453
0
LINE
8
BLACK
6
CONTINUOUS
10
4.98222
20
-1.58453
11
5.01736
21
-1.60391
0
LINE
8
BLACK
6
CONTINUOUS
10
5.01736
20
-1.60391
11
5.05171
21
-1.62465
0
LINE
8
BLACK
6
CONTINUOUS
10
5.05171
20
-1.62465
11
5.08524
21
-1.6467
0
LINE
8
BLACK
6
CONTINUOUS
10
5.08524
20
-1.6467
11
5.11789
21
-1.67003
0
LINE
8
BLACK
6
CONTINUOUS
10
5.11789
20
-1.67003
11
5.14961
21
-1.69462
0
LINE
8
BLACK
6
CONTINUOUS
10
5.14961
20
-1.69462
11
5.18035
21
-1.72041
0
LINE
8
BLACK
6
CONTINUOUS
10
5.18035
20
-1.72041
11
5.21006
21
-1.74738
0
LINE
8
BLACK
6
CONTINUOUS
10
5.21006
20
-1.74738
11
5.23871
21
-1.77548
0
LINE
8
BLACK
6
CONTINUOUS
10
5.23871
20
-1.77548
11
5.26625
21
-1.80466
0
LINE
8
BLACK
6
CONTINUOUS
10
5.26625
20
-1.80466
11
5.29264
21
-1.8349
0
LINE
8
BLACK
6
CONTINUOUS
10
5.29264
20
-1.8349
11
5.31783
21
-1.86613
0
LINE
8
BLACK
6
CONTINUOUS
10
5.31783
20
-1.86613
11
5.34179
21
-1.89832
0
LINE
8
BLACK
6
CONTINUOUS
10
5.34179
20
-1.89832
11
5.36449
21
-1.93142
0
LINE
8
BLACK
6
CONTINUOUS
10
5.36449
20
-1.93142
11
5.38589
21
-1.96536
0
LINE
8
BLACK
6
CONTINUOUS
10
5.38589
20
-1.96536
11
5.40595
21
-2.00012
0
LINE
8
BLACK
6
CONTINUOUS
10
5.40595
20
-2.00012
11
5.42465
21
-2.03562
0
LINE
8
BLACK
6
CONTINUOUS
10
5.42465
20
-2.03562
11
5.44196
21
-2.07182
0
LINE
8
BLACK
6
CONTINUOUS
10
5.44196
20
-2.07182
11
5.45786
21
-2.10867
0
LINE
8
BLACK
6
CONTINUOUS
10
5.45786
20
-2.10867
11
5.47231
21
-2.14611
0
LINE
8
BLACK
6
CONTINUOUS
10
5.47231
20
-2.14611
11
5.4853
21
-2.18408
0
LINE
8
BLACK
6
CONTINUOUS
10
5.4853
20
-2.18408
11
5.49681
21
-2.22252
0
LINE
8
BLACK
6
CONTINUOUS
10
5.49681
20
-2.22252
11
5.50682
21
-2.26138
0
LINE
8
BLACK
6
CONTINUOUS
10
5.50682
20
-2.26138
11
5.51532
21
-2.3006
0
LINE
8
BLACK
6
CONTINUOUS
10
5.51532
20
-2.3006
11
5.52229
21
-2.34012
0
LINE
8
BLACK
6
CONTINUOUS
10
5.52229
20
-2.34012
11
5.52772
21
-2.37988
0
LINE
8
BLACK
6
CONTINUOUS
10
5.52772
20
-2.37988
11
5.5316
21
-2.41982
0
LINE
8
BLACK
6
CONTINUOUS
10
5.5316
20
-2.41982
11
5.53394
21
-2.45988
0
LINE
8
BLACK
6
CONTINUOUS
10
5.53394
20
-2.45988
11
5.53471
21
-2.5
0
LINE
8
BLACK
6
CONTINUOUS
10
5.53471
20
-2.5
11
5.53394
21
-2.54012
0
LINE
8
BLACK
6
CONTINUOUS
10
5.53394
20
-2.54012
11
5.5316
21
-2.58018
0
LINE
8
BLACK
6
CONTINUOUS
10
5.5316
20
-2.58018
11
5.52772
21
-2.62012
0
LINE
8
BLACK
6
CONTINUOUS
10
5.52772
20
-2.62012
11
5.52229
21
-2.65988
0
LINE
8
BLACK
6
CONTINUOUS
10
5.52229
20
-2.65988
11
5.51532
21
-2.6994
0
LINE
8
BLACK
6
CONTINUOUS
10
5.51532
20
-2.6994
11
5.50682
21
-2.73862
0
LINE
8
BLACK
6
CONTINUOUS
10
5.50682
20
-2.73862
11
5.49681
21
-2.77748
0
LINE
8
BLACK
6
CONTINUOUS
10
5.49681
20
-2.77748
11
5.4853
21
-2.81592
0
LINE
8
BLACK
6
CONTINUOUS
10
5.4853
20
-2.81592
11
5.47231
21
-2.85389
0
LINE
8
BLACK
6
CONTINUOUS
10
5.47231
20
-2.85389
11
5.45786
21
-2.89133
0
LINE
8
BLACK
6
CONTINUOUS
10
5.45786
20
-2.89133
11
5.44196
21
-2.92818
0
LINE
8
BLACK
6
CONTINUOUS
10
5.44196
20
-2.92818
11
5.42465
21
-2.96438
0
LINE
8
BLACK
6
CONTINUOUS
10
5.42465
20
-2.96438
11
5.40595
21
-2.99988
0
LINE
8
BLACK
6
CONTINUOUS
10
5.40595
20
-2.99988
11
5.38589
21
-3.03464
0
LINE
8
BLACK
6
CONTINUOUS
10
5.38589
20
-3.03464
11
5.36449
21
-3.06858
0
LINE
8
BLACK
6
CONTINUOUS
10
5.36449
20
-3.06858
11
5.34179
21
-3.10168
0
LINE
8
BLACK
6
CONTINUOUS
10
5.34179
20
-3.10168
11
5.31783
21
-3.13387
0
LINE
8
BLACK
6
CONTINUOUS
10
5.31783
20
-3.13387
11
5.29264
21
-3.1651
0
LINE
8
BLACK
6
CONTINUOUS
10
5.29264
20
-3.1651
11
5.26625
21
-3.19534
0
LINE
8
BLACK
6
CONTINUOUS
10
5.26625
20
-3.19534
11
5.23871
21
-3.22452
0
LINE
8
BLACK
6
CONTINUOUS
10
5.23871
20
-3.22452
11
5.21006
21
-3.25262
0
LINE
8
BLACK
6
CONTINUOUS
10
5.21006
20
-3.25262
11
5.18035
21
-3.27959
0
LINE
8
BLACK
6
CONTINUOUS
10
5.18035
20
-3.27959
11
5.14961
21
-3.30538
0
LINE
8
BLACK
6
CONTINUOUS
10
5.14961
20
-3.30538
11
5.11789
21
-3.32997
0
LINE
8
BLACK
6
CONTINUOUS
10
5.11789
20
-3.32997
11
5.08524
21
-3.3533
0
LINE
8
BLACK
6
CONTINUOUS
10
5.08524
20
-3.3533
11
5.05171
21
-3.37535
0
LINE
8
BLACK
6
CONTINUOUS
10
5.05171
20
-3.37535
11
5.01736
21
-3.39609
0
LINE
8
BLACK
6
CONTINUOUS
10
5.01736
20
-3.39609
11
4.98222
21
-3.41547
0
LINE
8
BLACK
6
CONTINUOUS
10
4.98222
20
-3.41547
11
4.94636
21
-3.43348
0
LINE
8
BLACK
6
CONTINUOUS
10
4.94636
20
-3.43348
11
4.90983
21
-3.45009
0
LINE
8
BLACK
6
CONTINUOUS
10
4.90983
20
-3.45009
11
4.87268
21
-3.46527
0
LINE
8
BLACK
6
CONTINUOUS
10
4.87268
20
-3.46527
11
4.83497
21
-3.47899
0
LINE
8
BLACK
6
CONTINUOUS
10
4.83497
20
-3.47899
11
4.79676
21
-3.49124
0
LINE
8
BLACK
6
CONTINUOUS
10
4.79676
20
-3.49124
11
4.7581
21
-3.50201
0
LINE
8
BLACK
6
CONTINUOUS
10
4.7581
20
-3.50201
11
4.71905
21
-3.51126
0
LINE
8
BLACK
6
CONTINUOUS
10
4.71905
20
-3.51126
11
4.67968
21
-3.51899
0
LINE
8
BLACK
6
CONTINUOUS
10
4.67968
20
-3.51899
11
4.64003
21
-3.52519
0
LINE
8
BLACK
6
CONTINUOUS
10
4.64003
20
-3.52519
11
4.60017
21
-3.52985
0
LINE
8
BLACK
6
CONTINUOUS
10
4.60017
20
-3.52985
11
4.56016
21
-3.53296
0
LINE
8
BLACK
6
CONTINUOUS
10
4.56016
20
-3.53296
11
4.52006
21
-3.53452
0
LINE
8
BLACK
6
CONTINUOUS
10
4.52006
20
-3.53452
11
4.47994
21
-3.53452
0
LINE
8
BLACK
6
CONTINUOUS
10
4.47994
20
-3.53452
11
4.43984
21
-3.53296
0
LINE
8
BLACK
6
CONTINUOUS
10
4.43984
20
-3.53296
11
4.39983
21
-3.52985
0
LINE
8
BLACK
6
CONTINUOUS
10
4.39983
20
-3.52985
11
4.35997
21
-3.52519
0
LINE
8
BLACK
6
CONTINUOUS
10
4.35997
20
-3.52519
11
4.32032
21
-3.51899
0
LINE
8
BLACK
6
CONTINUOUS
10
4.32032
20
-3.51899
11
4.28095
21
-3.51126
0
LINE
8
BLACK
6
CONTINUOUS
10
4.28095
20
-3.51126
11
4.2419
21
-3.50201
0
LINE
8
BLACK
6
CONTINUOUS
10
4.2419
20
-3.50201
11
4.20324
21
-3.49124
0
LINE
8
BLACK
6
CONTINUOUS
10
4.20324
20
-3.49124
11
4.16503
21
-3.47899
0
LINE
8
BLACK
6
CONTINUOUS
10
4.16503
20
-3.47899
11
4.12732
21
-3.46527
0
LINE
8
BLACK
6
CONTINUOUS
10
4.12732
20
-3.46527
11
4.09017
21
-3.45009
0
LINE
8
BLACK
6
CONTINUOUS
10
4.09017
20
-3.45009
11
4.05364
21
-3.43348
0
LINE
8
BLACK
6
CONTINUOUS
10
4.05364
20
-3.43348
11
4.01778
21
-3.41547
0
LINE
8
BLACK
6
CONTINUOUS
10
4.01778
20
-3.41547
11
3.98264
21
-3.39609
0
LINE
8
BLACK
6
CONTINUOUS
10
3.98264
20
-3.39609
11
3.94829
21
-3.37535
0
LINE
8
BLACK
6
CONTINUOUS
10
3.94829
20
-3.37535
11
3.91476
21
-3.3533
0
LINE
8
BLACK
6
CONTINUOUS
10
3.91476
20
-3.3533
11
3.88211
21
-3.32997
0
LINE
8
BLACK
6
CONTINUOUS
10
3.88211
20
-3.32997
11
3.85039
21
-3.30538
0
LINE
8
BLACK
6
CONTINUOUS
10
3.85039
20
-3.30538
11
3.81965
21
-3.27959
0
LINE
8
BLACK
6
CONTINUOUS
10
3.81965
20
-3.27959
11
3.78994
21
-3.25262
0
LINE
8
BLACK
6
CONTINUOUS
10
3.78994
20
-3.25262
11
3.76129
21
-3.22452
0
LINE
8
BLACK
6
CONTINUOUS
10
3.76129
20
-3.22452
11
3.73375
21
-3.19534
0
LINE
8
BLACK
6
CONTINUOUS
10
3.73375
20
-3.19534
11
3.70736
21
-3.1651
0
LINE
8
BLACK
6
CONTINUOUS
10
3.70736
20
-3.1651
11
3.68217
21
-3.13387
0
LINE
8
BLACK
6
CONTINUOUS
10
3.68217
20
-3.13387
11
3.65821
21
-3.10168
0
LINE
8
BLACK
6
CONTINUOUS
10
3.65821
20
-3.10168
11
3.63551
21
-3.06858
0
LINE
8
BLACK
6
CONTINUOUS
10
3.63551
20
-3.06858
11
3.61411
21
-3.03464
0
LINE
8
BLACK
6
CONTINUOUS
10
3.61411
20
-3.03464
11
3.59405
21
-2.99988
0
LINE
8
BLACK
6
CONTINUOUS
10
3.59405
20
-2.99988
11
3.57535
21
-2.96438
0
LINE
8
BLACK
6
CONTINUOUS
10
3.57535
20
-2.96438
11
3.55804
21
-2.92818
0
LINE
8
BLACK
6
CONTINUOUS
10
3.55804
20
-2.92818
11
3.54214
21
-2.89133
0
LINE
8
BLACK
6
CONTINUOUS
10
3.54214
20
-2.89133
11
3.52769
21
-2.85389
0
LINE
8
BLACK
6
CONTINUOUS
10
3.52769
20
-2.85389
11
3.5147
21
-2.81592
0
LINE
8
BLACK
6
CONTINUOUS
10
3.5147
20
-2.81592
11
3.50319
21
-2.77748
0
LINE
8
BLACK
6
CONTINUOUS
10
3.50319
20
-2.77748
11
3.49318
21
-2.73862
0
LINE
8
BLACK
6
CONTINUOUS
10
3.49318
20
-2.73862
11
3.48468
21
-2.6994
0
LINE
8
BLACK
6
CONTINUOUS
10
3.48468
20
-2.6994
11
3.47771
21
-2.65988
0
LINE
8
BLACK
6
CONTINUOUS
10
3.47771
20
-2.65988
11
3.47228
21
-2.62012
0
LINE
8
BLACK
6
CONTINUOUS
10
3.47228
20
-2.62012
11
3.4684
21
-2.58018
0
LINE
8
BLACK
6
CONTINUOUS
10
3.4684
20
-2.58018
11
3.46606
21
-2.54012
0
LINE
8
BLACK
6
CONTINUOUS
10
3.46606
20
-2.54012
11
3.46529
21
-2.5
0
LINE
8
BLACK
6
CONTINUOUS
10
3.46529
20
-2.5
11
3.46606
21
-2.45988
0
LINE
8
BLACK
6
CONTINUOUS
10
3.46606
20
-2.45988
11
3.4684
21
-2.41982
0
LINE
8
BLACK
6
CONTINUOUS
10
3.4684
20
-2.41982
11
3.47228
21
-2.37988
0
LINE
8
BLACK
6
CONTINUOUS
10
3.47228
20
-2.37988
11
3.47771
21
-2.34012
0
LINE
8
BLACK
6
CONTINUOUS
10
3.47771
20
-2.34012
11
3.48468
21
-2.3006
0
LINE
8
BLACK
6
CONTINUOUS
10
3.48468
20
-2.3006
11
3.49318
21
-2.26138
0
LINE
8
BLACK
6
CONTINUOUS
10
3.49318
20
-2.26138
11
3.50319
21
-2.22252
0
LINE
8
BLACK
6
CONTINUOUS
10
3.50319
20
-2.22252
11
3.5147
21
-2.18408
0
LINE
8
BLACK
6
CONTINUOUS
10
3.5147
20
-2.18408
11
3.52769
21
-2.14611
0
LINE
8
BLACK
6
CONTINUOUS
10
3.52769
20
-2.14611
11
3.54214
21
-2.10867
0
LINE
8
BLACK
6
CONTINUOUS
10
3.54214
20
-2.10867
11
3.55804
21
-2.07182
0
LINE
8
BLACK
6
CONTINUOUS
10
3.55804
20
-2.07182
11
3.57535
21
-2.03562
0
LINE
8
BLACK
6
CONTINUOUS
10
3.57535
20
-2.03562
11
3.59405
21
-2.00012
0
LINE
8
BLACK
6
CONTINUOUS
10
3.59405
20
-2.00012
11
3.61411
21
-1.96536
0
LINE
8
BLACK
6
CONTINUOUS
10
3.61411
20
-1.96536
11
3.63551
21
-1.93142
0
LINE
8
BLACK
6
CONTINUOUS
10
3.63551
20
-1.93142
11
3.65821
21
-1.89832
0
LINE
8
BLACK
6
CONTINUOUS
10
3.65821
20
-1.89832
11
3.68217
21
-1.86613
0
LINE
8
BLACK
6
CONTINUOUS
10
3.68217
20
-1.86613
11
3.70736
21
-1.8349
0
LINE
8
BLACK
6
CONTINUOUS
10
3.70736
20
-1.8349
11
3.73375
21
-1.80466
0
LINE
8
BLACK
6
CONTINUOUS
10
3.73375
20
-1.80466
11
3.76129
21
-1.77548
0
LINE
8
BLACK
6
CONTINUOUS
10
3.76129
20
-1.77548
11
3.78994
21
-1.74738
0
LINE
8
BLACK
6
CONTINUOUS
10
3.78994
20
-1.74738
11
3.81965
21
-1.72041
0
LINE
8
BLACK
6
CONTINUOUS
10
3.81965
20
-1.72041
11
3.85039
21
-1.69462
0
LINE
8
BLACK
6
CONTINUOUS
10
3.85039
20
-1.69462
11
3.88211
21
-1.67003
0
LINE
8
BLACK
6
CONTINUOUS
10
3.88211
20
-1.67003
11
3.91476
21
-1.6467
0
LINE
8
BLACK
6
CONTINUOUS
10
3.91476
20
-1.6467
11
3.94829
21
-1.62465
0
LINE
8
BLACK
6
CONTINUOUS
10
3.94829
20
-1.62465
11
3.98264
21
-1.60391
0
LINE
8
BLACK
6
CONTINUOUS
10
3.98264
20
-1.60391
11
4.01778
21
-1.58453
0
LINE
8
BLACK
6
CONTINUOUS
10
4.01778
20
-1.58453
11
4.05364
21
-1.56652
0
LINE
8
BLACK
6
CONTINUOUS
10
4.05364
20
-1.56652
11
4.09017
21
-1.54991
0
LINE
8
BLACK
6
CONTINUOUS
10
4.09017
20
-1.54991
11
4.12732
21
-1.53473
0
LINE
8
BLACK
6
CONTINUOUS
10
4.12732
20
-1.53473
11
4.16503
21
-1.52101
0
LINE
8
BLACK
6
CONTINUOUS
10
4.16503
20
-1.52101
11
4.20324
21
-1.50876
0
LINE
8
BLACK
6
CONTINUOUS
10
4.20324
20
-1.50876
11
4.2419
21
-1.49799
0
LINE
8
BLACK
6
CONTINUOUS
10
4.2419
20
-1.49799
11
4.28095
21
-1.48874
0
LINE
8
BLACK
6
CONTINUOUS
10
4.28095
20
-1.48874
11
4.32032
21
-1.48101
0
LINE
8
BLACK
6
CONTINUOUS
10
4.32032
20
-1.48101
11
4.35997
21
-1.47481
0
LINE
8
BLACK
6
CONTINUOUS
10
4.35997
20
-1.47481
11
4.39983
21
-1.47015
0
LINE
8
BLACK
6
CONTINUOUS
10
4.39983
20
-1.47015
11
4.43984
21
-1.46704
0
LINE
8
BLACK
6
CONTINUOUS
10
4.43984
20
-1.46704
11
4.47994
21
-1.46548
0
LINE
8
BLACK
6
CONTINUOUS
10
4.47994
20
-1.46548
11
4.52006
21
-1.46548
0
LINE
8
BLACK
6
CONTINUOUS
10
4.52006
20
-1.46548
11
4.56016
21
-1.46704
0
LINE
8
BLACK
6
CONTINUOUS
10
3.47375
20
-2.54032
11
3.47613
21
-2.58058
0
LINE
8
BLACK
6
CONTINUOUS
10
3.47613
20
-2.58058
11
3.48008
21
-2.62072
0
LINE
8
BLACK
6
CONTINUOUS
10
3.48008
20
-2.62072
11
3.48561
21
-2.66066
0
LINE
8
BLACK
6
CONTINUOUS
10
3.48561
20
-2.66066
11
3.4927
21
-2.70037
0
LINE
8
BLACK
6
CONTINUOUS
10
3.4927
20
-2.70037
11
3.50134
21
-2.73976
0
LINE
8
BLACK
6
CONTINUOUS
10
3.50134
20
-2.73976
11
3.51152
21
-2.77878
0
LINE
8
BLACK
6
CONTINUOUS
10
3.51152
20
-2.77878
11
3.52323
21
-2.81737
0
LINE
8
BLACK
6
CONTINUOUS
10
3.52323
20
-2.81737
11
3.53644
21
-2.85548
0
LINE
8
BLACK
6
CONTINUOUS
10
3.53644
20
-2.85548
11
3.55114
21
-2.89303
0
LINE
8
BLACK
6
CONTINUOUS
10
3.55114
20
-2.89303
11
3.5673
21
-2.92998
0
LINE
8
BLACK
6
CONTINUOUS
10
3.5673
20
-2.92998
11
3.5849
21
-2.96627
0
LINE
8
BLACK
6
CONTINUOUS
10
3.5849
20
-2.96627
11
3.60391
21
-3.00183
0
LINE
8
BLACK
6
CONTINUOUS
10
3.60391
20
-3.00183
11
3.62431
21
-3.03663
0
LINE
8
BLACK
6
CONTINUOUS
10
3.62431
20
-3.03663
11
3.64605
21
-3.07059
0
LINE
8
BLACK
6
CONTINUOUS
10
3.64605
20
-3.07059
11
3.66911
21
-3.10368
0
LINE
8
BLACK
6
CONTINUOUS
10
3.66911
20
-3.10368
11
3.69345
21
-3.13583
0
LINE
8
BLACK
6
CONTINUOUS
10
3.69345
20
-3.13583
11
3.71903
21
-3.16701
0
LINE
8
BLACK
6
CONTINUOUS
10
3.71903
20
-3.16701
11
3.74582
21
-3.19715
0
LINE
8
BLACK
6
CONTINUOUS
10
3.74582
20
-3.19715
11
3.77377
21
-3.22623
0
LINE
8
BLACK
6
CONTINUOUS
10
3.77377
20
-3.22623
11
3.80285
21
-3.25418
0
LINE
8
BLACK
6
CONTINUOUS
10
3.80285
20
-3.25418
11
3.83299
21
-3.28097
0
LINE
8
BLACK
6
CONTINUOUS
10
3.83299
20
-3.28097
11
3.86417
21
-3.30655
0
LINE
8
BLACK
6
CONTINUOUS
10
3.86417
20
-3.30655
11
3.89632
21
-3.33089
0
LINE
8
BLACK
6
CONTINUOUS
10
3.89632
20
-3.33089
11
3.92941
21
-3.35395
0
LINE
8
BLACK
6
CONTINUOUS
10
3.92941
20
-3.35395
11
3.96337
21
-3.37569
0
LINE
8
BLACK
6
CONTINUOUS
10
3.96337
20
-3.37569
11
3.99817
21
-3.39609
0
LINE
8
BLACK
6
CONTINUOUS
10
3.99817
20
-3.39609
11
4.03373
21
-3.4151
0
LINE
8
BLACK
6
CONTINUOUS
10
4.03373
20
-3.4151
11
4.07002
21
-3.4327
0
LINE
8
BLACK
6
CONTINUOUS
10
4.07002
20
-3.4327
11
4.10697
21
-3.44886
0
LINE
8
BLACK
6
CONTINUOUS
10
4.10697
20
-3.44886
11
4.14452
21
-3.46356
0
LINE
8
BLACK
6
CONTINUOUS
10
4.14452
20
-3.46356
11
4.18263
21
-3.47677
0
LINE
8
BLACK
6
CONTINUOUS
10
4.18263
20
-3.47677
11
4.22122
21
-3.48848
0
LINE
8
BLACK
6
CONTINUOUS
10
4.22122
20
-3.48848
11
4.26024
21
-3.49866
0
LINE
8
BLACK
6
CONTINUOUS
10
4.26024
20
-3.49866
11
4.29963
21
-3.5073
0
LINE
8
BLACK
6
CONTINUOUS
10
4.29963
20
-3.5073
11
4.33934
21
-3.51439
0
LINE
8
BLACK
6
CONTINUOUS
10
4.33934
20
-3.51439
11
4.37928
21
-3.51992
0
LINE
8
BLACK
6
CONTINUOUS
10
4.37928
20
-3.51992
11
4.41942
21
-3.52387
0
LINE
8
BLACK
6
CONTINUOUS
10
4.41942
20
-3.52387
11
4.45968
21
-3.52625
0
LINE
8
BLACK
6
CONTINUOUS
10
4.45968
20
-3.52625
11
4.5
21
-3.52704
0
LINE
8
BLACK
6
CONTINUOUS
10
4.5
20
-3.52704
11
4.54032
21
-3.52625
0
LINE
8
BLACK
6
CONTINUOUS
10
4.54032
20
-3.52625
11
4.58058
21
-3.52387
0
LINE
8
BLACK
6
CONTINUOUS
10
4.58058
20
-3.52387
11
4.62072
21
-3.51992
0
LINE
8
BLACK
6
CONTINUOUS
10
4.62072
20
-3.51992
11
4.66066
21
-3.51439
0
LINE
8
BLACK
6
CONTINUOUS
10
4.66066
20
-3.51439
11
4.70037
21
-3.5073
0
LINE
8
BLACK
6
CONTINUOUS
10
4.70037
20
-3.5073
11
4.73976
21
-3.49866
0
LINE
8
BLACK
6
CONTINUOUS
10
4.73976
20
-3.49866
11
4.77878
21
-3.48848
0
LINE
8
BLACK
6
CONTINUOUS
10
4.77878
20
-3.48848
11
4.81737
21
-3.47677
0
LINE
8
BLACK
6
CONTINUOUS
10
4.81737
20
-3.47677
11
4.85548
21
-3.46356
0
LINE
8
BLACK
6
CONTINUOUS
10
4.85548
20
-3.46356
11
4.89303
21
-3.44886
0
LINE
8
BLACK
6
CONTINUOUS
10
4.89303
20
-3.44886
11
4.92998
21
-3.4327
0
LINE
8
BLACK
6
CONTINUOUS
10
4.92998
20
-3.4327
11
4.96627
21
-3.4151
0
LINE
8
BLACK
6
CONTINUOUS
10
4.96627
20
-3.4151
11
5.00183
21
-3.39609
0
LINE
8
BLACK
6
CONTINUOUS
10
5.00183
20
-3.39609
11
5.03663
21
-3.37569
0
LINE
8
BLACK
6
CONTINUOUS
10
5.03663
20
-3.37569
11
5.07059
21
-3.35395
0
LINE
8
BLACK
6
CONTINUOUS
10
5.07059
20
-3.35395
11
5.10368
21
-3.33089
0
LINE
8
BLACK
6
CONTINUOUS
10
5.10368
20
-3.33089
11
5.13583
21
-3.30655
0
LINE
8
BLACK
6
CONTINUOUS
10
5.13583
20
-3.30655
11
5.16701
21
-3.28097
0
LINE
8
BLACK
6
CONTINUOUS
10
5.16701
20
-3.28097
11
5.19715
21
-3.25418
0
LINE
8
BLACK
6
CONTINUOUS
10
5.19715
20
-3.25418
11
5.22623
21
-3.22623
0
LINE
8
BLACK
6
CONTINUOUS
10
5.22623
20
-3.22623
11
5.25418
21
-3.19715
0
LINE
8
BLACK
6
CONTINUOUS
10
5.25418
20
-3.19715
11
5.28097
21
-3.16701
0
LINE
8
BLACK
6
CONTINUOUS
10
5.28097
20
-3.16701
11
5.30655
21
-3.13583
0
LINE
8
BLACK
6
CONTINUOUS
10
5.30655
20
-3.13583
11
5.33089
21
-3.10368
0
LINE
8
BLACK
6
CONTINUOUS
10
5.33089
20
-3.10368
11
5.35395
21
-3.07059
0
LINE
8
BLACK
6
CONTINUOUS
10
5.35395
20
-3.07059
11
5.37569
21
-3.03663
0
LINE
8
BLACK
6
CONTINUOUS
10
5.37569
20
-3.03663
11
5.39609
21
-3.00183
0
LINE
8
BLACK
6
CONTINUOUS
10
5.39609
20
-3.00183
11
5.4151
21
-2.96627
0
LINE
8
BLACK
6
CONTINUOUS
10
5.4151
20
-2.96627
11
5.4327
21
-2.92998
0
LINE
8
BLACK
6
CONTINUOUS
10
5.4327
20
-2.92998
11
5.44886
21
-2.89303
0
LINE
8
BLACK
6
CONTINUOUS
10
5.44886
20
-2.89303
11
5.46356
21
-2.85548
0
LINE
8
BLACK
6
CONTINUOUS
10
5.46356
20
-2.85548
11
5.47677
21
-2.81737
0
LINE
8
BLACK
6
CONTINUOUS
10
5.47677
20
-2.81737
11
5.48848
21
-2.77878
0
LINE
8
BLACK
6
CONTINUOUS
10
5.48848
20
-2.77878
11
5.49866
21
-2.73976
0
LINE
8
BLACK
6
CONTINUOUS
10
5.49866
20
-2.73976
11
5.5073
21
-2.70037
0
LINE
8
BLACK
6
CONTINUOUS
10
5.5073
20
-2.70037
11
5.51439
21
-2.66066
0
LINE
8
BLACK
6
CONTINUOUS
10
5.51439
20
-2.66066
11
5.51992
21
-2.62072
0
LINE
8
BLACK
6
CONTINUOUS
10
5.51992
20
-2.62072
11
5.52387
21
-2.58058
0
LINE
8
BLACK
6
CONTINUOUS
10
5.52387
20
-2.58058
11
5.52625
21
-2.54032
0
LINE
8
BLACK
6
CONTINUOUS
10
5.52625
20
-2.54032
11
5.52704
21
-2.5
0
LINE
8
BLACK
6
CONTINUOUS
10
5.52704
20
-2.5
11
5.52625
21
-2.45968
0
LINE
8
BLACK
6
CONTINUOUS
10
5.52625
20
-2.45968
11
5.52387
21
-2.41942
0
LINE
8
BLACK
6
CONTINUOUS
10
5.52387
20
-2.41942
11
5.51992
21
-2.37928
0
LINE
8
BLACK
6
CONTINUOUS
10
5.51992
20
-2.37928
11
5.51439
21
-2.33934
0
LINE
8
BLACK
6
CONTINUOUS
10
5.51439
20
-2.33934
11
5.5073
21
-2.29963
0
LINE
8
BLACK
6
CONTINUOUS
10
5.5073
20
-2.29963
11
5.49866
21
-2.26024
0
LINE
8
BLACK
6
CONTINUOUS
10
5.49866
20
-2.26024
11
5.48848
21
-2.22122
0
LINE
8
BLACK
6
CONTINUOUS
10
5.48848
20
-2.22122
11
5.47677
21
-2.18263
0
LINE
8
BLACK
6
CONTINUOUS
10
5.47677
20
-2.18263
11
5.46356
21
-2.14452
0
LINE
8
BLACK
6
CONTINUOUS
10
5.46356
20
-2.14452
11
5.44886
21
-2.10697
0
LINE
8
BLACK
6
CONTINUOUS
10
5.44886
20
-2.10697
11
5.4327
21
-2.07002
0
LINE
8
BLACK
6
CONTINUOUS
10
5.4327
20
-2.07002
11
5.4151
21
-2.03373
0
LINE
8
BLACK
6
CONTINUOUS
10
5.4151
20
-2.03373
11
5.39609
21
-1.99817
0
LINE
8
BLACK
6
CONTINUOUS
10
5.39609
20
-1.99817
11
5.37569
21
-1.96337
0
LINE
8
BLACK
6
CONTINUOUS
10
5.37569
20
-1.96337
11
5.35395
21
-1.92941
0
LINE
8
BLACK
6
CONTINUOUS
10
5.35395
20
-1.92941
11
5.33089
21
-1.89632
0
LINE
8
BLACK
6
CONTINUOUS
10
5.33089
20
-1.89632
11
5.30655
21
-1.86417
0
LINE
8
BLACK
6
CONTINUOUS
10
5.30655
20
-1.86417
11
5.28097
21
-1.83299
0
LINE
8
BLACK
6
CONTINUOUS
10
5.28097
20
-1.83299
11
5.25418
21
-1.80285
0
LINE
8
BLACK
6
CONTINUOUS
10
5.25418
20
-1.80285
11
5.22623
21
-1.77377
0
LINE
8
BLACK
6
CONTINUOUS
10
5.22623
20
-1.77377
11
5.19715
21
-1.74582
0
LINE
8
BLACK
6
CONTINUOUS
10
5.19715
20
-1.74582
11
5.16701
21
-1.71903
0
LINE
8
BLACK
6
CONTINUOUS
10
5.16701
20
-1.71903
11
5.13583
21
-1.69345
0
LINE
8
BLACK
6
CONTINUOUS
10
5.13583
20
-1.69345
11
5.10368
21
-1.66911
0
LINE
8
BLACK
6
CONTINUOUS
10
5.10368
20
-1.66911
11
5.07059
21
-1.64605
0
LINE
8
BLACK
6
CONTINUOUS
10
5.07059
20
-1.64605
11
5.03663
21
-1.62431
0
LINE
8
BLACK
6
CONTINUOUS
10
5.03663
20
-1.62431
11
5.00183
21
-1.60391
0
LINE
8
BLACK
6
CONTINUOUS
10
5.00183
20
-1.60391
11
4.96627
21
-1.5849
0
LINE
8
BLACK
6
CONTINUOUS
10
4.96627
20
-1.5849
11
4.92998
21
-1.5673
0
LINE
8
BLACK
6
CONTINUOUS
10
4.92998
20
-1.5673
11
4.89303
21
-1.55114
0
LINE
8
BLACK
6
CONTINUOUS
10
4.89303
20
-1.55114
11
4.85548
21
-1.53644
0
LINE
8
BLACK
6
CONTINUOUS
10
4.85548
20
-1.53644
11
4.81737
21
-1.52323
0
LINE
8
BLACK
6
CONTINUOUS
10
4.81737
20
-1.52323
11
4.77878
21
-1.51152
0
LINE
8
BLACK
6
CONTINUOUS
10
4.77878
20
-1.51152
11
4.73976
21
-1.50134
0
LINE
8
BLACK
6
CONTINUOUS
10
4.73976
20
-1.50134
11
4.70037
21
-1.4927
0
LINE
8
BLACK
6
CONTINUOUS
10
4.70037
20
-1.4927
11
4.66066
21
-1.48561
0
LINE
8
BLACK
6
CONTINUOUS
10
4.66066
20
-1.48561
11
4.62072
21
-1.48008
0
LINE
8
BLACK
6
CONTINUOUS
10
4.62072
20
-1.48008
11
4.58058
21
-1.47613
0
LINE
8
BLACK
6
CONTINUOUS
10
4.58058
20
-1.47613
11
4.54032
21
-1.47375
0
LINE
8
BLACK
6
CONTINUOUS
10
4.54032
20
-1.47375
11
4.5
21
-1.47296
0
LINE
8
BLACK
6
CONTINUOUS
10
4.5
20
-1.47296
11
4.45968
21
-1.47375
0
LINE
8
BLACK
6
CONTINUOUS
10
4.45968
20
-1.47375
11
4.41942
21
-1.47613
0
LINE
8
BLACK
6
CONTINUOUS
10
4.41942
20
-1.47613
11
4.37928
21
-1.48008
0
LINE
8
BLACK
6
CONTINUOUS
10
4.37928
20
-1.48008
11
4.33934
21
-1.48561
0
LINE
8
BLACK
6
CONTINUOUS
10
4.33934
20
-1.48561
11
4.29963
21
-1.4927
0
LINE
8
BLACK
6
CONTINUOUS
10
4.29963
20
-1.4927
11
4.26024
21
-1.50134
0
LINE
8
BLACK
6
CONTINUOUS
10
4.26024
20
-1.50134
11
4.22122
21
-1.51152
0
LINE
8
BLACK
6
CONTINUOUS
10
4.22122
20
-1.51152
11
4.18263
21
-1.52323
0
LINE
8
BLACK
6
CONTINUOUS
10
4.18263
20
-1.52323
11
4.14452
21
-1.53644
0
LINE
8
BLACK
6
CONTINUOUS
10
4.14452
20
-1.53644
11
4.10697
21
-1.55114
0
LINE
8
BLACK
6
CONTINUOUS
10
4.10697
20
-1.55114
11
4.07002
21
-1.5673
0
LINE
8
BLACK
6
CONTINUOUS
10
4.07002
20
-1.5673
11
4.03373
21
-1.5849
0
LINE
8
BLACK
6
CONTINUOUS
10
4.03373
20
-1.5849
11
3.99817
21
-1.60391
0
LINE
8
BLACK
6
CONTINUOUS
10
3.99817
20
-1.60391
11
3.96337
21
-1.62431
0
LINE
8
BLACK
6
CONTINUOUS
10
3.96337
20
-1.62431
11
3.92941
21
-1.64605
0
LINE
8
BLACK
6
CONTINUOUS
10
3.92941
20
-1.64605
11
3.89632
21
-1.66911
0
LINE
8
BLACK
6
CONTINUOUS
10
3.89632
20
-1.66911
11
3.86417
21
-1.69345
0
LINE
8
BLACK
6
CONTINUOUS
10
3.86417
20
-1.69345
11
3.83299
21
-1.71903
0
LINE
8
BLACK
6
CONTINUOUS
10
3.83299
20
-1.71903
11
3.80285
21
-1.74582
0
LINE
8
BLACK
6
CONTINUOUS
10
3.80285
20
-1.74582
11
3.77377
21
-1.77377
0
LINE
8
BLACK
6
CONTINUOUS
10
3.77377
20
-1.77377
11
3.74582
21
-1.80285
0
LINE
8
BLACK
6
CONTINUOUS
10
3.74582
20
-1.80285
11
3.71903
21
-1.83299
0
LINE
8
BLACK
6
CONTINUOUS
10
3.71903
20
-1.83299
11
3.69345
21
-1.86417
0
LINE
8
BLACK
6
CONTINUOUS
10
3.69345
20
-1.86417
11
3.66911
21
-1.89632
0
LINE
8
BLACK
6
CONTINUOUS
10
3.66911
20
-1.89632
11
3.64605
21
-1.92941
0
LINE
8
BLACK
6
CONTINUOUS
10
3.64605
20
-1.92941
11
3.62431
21
-1.96337
0
LINE
8
BLACK
6
CONTINUOUS
10
3.62431
20
-1.96337
11
3.60391
21
-1.99817
0
LINE
8
BLACK
6
CONTINUOUS
10
3.60391
20
-1.99817
11
3.5849
21
-2.03373
0
LINE
8
BLACK
6
CONTINUOUS
10
3.5849
20
-2.03373
11
3.5673
21
-2.07002
0
LINE
8
BLACK
6
CONTINUOUS
10
3.5673
20
-2.07002
11
3.55114
21
-2.10697
0
LINE
8
BLACK
6
CONTINUOUS
10
3.55114
20
-2.10697
11
3.53644
21
-2.14452
0
LINE
8
BLACK
6
CONTINUOUS
10
3.53644
20
-2.14452
11
3.52323
21
-2.18263
0
LINE
8
BLACK
6
CONTINUOUS
10
3.52323
20
-2.18263
11
3.51152
21
-2.22122
0
LINE
8
BLACK
6
CONTINUOUS
10
3.51152
20
-2.22122
11
3.50134
21
-2.26024
0
LINE
8
BLACK
6
CONTINUOUS
10
3.50134
20
-2.26024
11
3.4927
21
-2.29963
0
LINE
8
BLACK
6
CONTINUOUS
10
3.4927
20
-2.29963
11
3.48561
21
-2.33934
0
LINE
8
BLACK
6
CONTINUOUS
10
3.48561
20
-2.33934
11
3.48008
21
-2.37928
0
LINE
8
BLACK
6
CONTINUOUS
10
3.48008
20
-2.37928
11
3.47613
21
-2.41942
0
LINE
8
BLACK
6
CONTINUOUS
10
3.47613
20
-2.41942
11
3.47375
21
-2.45968
0
LINE
8
BLACK
6
CONTINUOUS
10
3.47375
20
-2.45968
11
3.47296
21
-2.5
0
LINE
8
BLACK
6
CONTINUOUS
10
3.47296
20
-2.5
11
3.47375
21
-2.54032
  0
ENDSEC
  0
EOF
