  0
SECTION
  2
HEADER
  9
$ANGBASE
  50
0.0
  9
$ANGDIR
  70
1
  9
$MEASUREMENT
  70
0
  0
ENDSEC
  0
SECTION
  2
TABLES
  0
TABLE
  2
LTYPE
  70
4
  0
LTYPE
  5
40F
  2
CONTINUOUS
  70
0
  3
Solid line
  72
65
  73
0
  40
0.0
  0
LTYPE
  5
410
  2
DASHDOT
 70
0
  3
Dash Dot ____ _ ____ _
 72
65
 73
4
 40
2.0
 49
1.25
 49
-0.25
 49
0.25
 49
-0.25
  0
LTYPE
  5
411
  2
DASHED
 70
0
  3
Dashed __ __ __ __ __
 72
65
 73
2
 40
0.75
 49
0.5
 49
-0.25
  0
LTYPE
  5
43B
  2
DOTTED
 70
0
  3
Dotted .  .  .  .
 72
65
 73
2
 40
0.2
 49
0.0
 49
-0.2
  0
ENDTAB
  0
TABLE
  2
STYLE
  70
4
  0
STYLE
  2
KICAD
  70
0
  40
0
  41
1
  42
1
  50
0
  71
0
  3
isocp.shx
  0
STYLE
  2
KICADB
  70
0
  40
0
  41
1
  42
1
  50
0
  71
0
  3
isocp.shx
  0
STYLE
  2
KICADI
  70
0
  40
0
  41
1
  42
1
  50
15
  71
0
  3
isocp.shx
  0
STYLE
  2
KICADBI
  70
0
  40
0
  41
1
  42
1
  50
15
  71
0
  3
isocp.shx
  0
ENDTAB
  0
TABLE
  2
LAYER
  70
1
  0
LAYER
  2
BLACK
  70
0
  62
7
  6
CONTINUOUS
  0
ENDTAB
  0
ENDSEC
  0
SECTION
  2
ENTITIES
0
LINE
8
BLACK
6
CONTINUOUS
10
2.09389
20
-2.59711
11
2.09402
21
-2.59709
0
LINE
8
BLACK
6
CONTINUOUS
10
2.09402
20
-2.59709
11
2.09413
21
-2.59716
0
LINE
8
BLACK
6
CONTINUOUS
10
2.09413
20
-2.59716
11
2.09451
21
-2.59723
0
LINE
8
BLACK
6
CONTINUOUS
10
2.09451
20
-2.59723
11
2.0951
21
-2.59772
0
LINE
8
BLACK
6
CONTINUOUS
10
2.0951
20
-2.59772
11
2.09577
21
-2.5981
0
LINE
8
BLACK
6
CONTINUOUS
10
2.09577
20
-2.5981
11
2.09586
21
-2.59835
0
LINE
8
BLACK
6
CONTINUOUS
10
2.09586
20
-2.59835
11
2.09606
21
-2.59852
0
LINE
8
BLACK
6
CONTINUOUS
10
2.09606
20
-2.59852
11
2.09619
21
-2.59928
0
LINE
8
BLACK
6
CONTINUOUS
10
2.09619
20
-2.59928
11
2.09646
21
-2.6
0
LINE
8
BLACK
6
CONTINUOUS
10
2.09646
20
-2.6
11
2.09646
21
-2.7
0
LINE
8
BLACK
6
CONTINUOUS
10
2.09646
20
-2.7
11
2.09628
21
-2.70101
0
LINE
8
BLACK
6
CONTINUOUS
10
2.09628
20
-2.70101
11
2.09498
21
-2.70256
0
LINE
8
BLACK
6
CONTINUOUS
10
2.09498
20
-2.70256
11
2.09299
21
-2.70291
0
LINE
8
BLACK
6
CONTINUOUS
10
2.09299
20
-2.70291
11
2.09124
21
-2.7019
0
LINE
8
BLACK
6
CONTINUOUS
10
2.09124
20
-2.7019
11
2.09055
21
-2.7
0
LINE
8
BLACK
6
CONTINUOUS
10
2.09055
20
-2.7
11
2.09055
21
-2.60295
0
LINE
8
BLACK
6
CONTINUOUS
10
2.09055
20
-2.60295
11
1.89646
21
-2.60295
0
LINE
8
BLACK
6
CONTINUOUS
10
1.89646
20
-2.60295
11
1.89646
21
-2.7
0
LINE
8
BLACK
6
CONTINUOUS
10
1.89646
20
-2.7
11
1.89628
21
-2.70101
0
LINE
8
BLACK
6
CONTINUOUS
10
1.89628
20
-2.70101
11
1.89498
21
-2.70256
0
LINE
8
BLACK
6
CONTINUOUS
10
1.89498
20
-2.70256
11
1.89299
21
-2.70291
0
LINE
8
BLACK
6
CONTINUOUS
10
1.89299
20
-2.70291
11
1.89124
21
-2.7019
0
LINE
8
BLACK
6
CONTINUOUS
10
1.89124
20
-2.7019
11
1.89055
21
-2.7
0
LINE
8
BLACK
6
CONTINUOUS
10
1.89055
20
-2.7
11
1.89055
21
-2.6
0
LINE
8
BLACK
6
CONTINUOUS
10
1.89055
20
-2.6
11
1.89062
21
-2.59962
0
LINE
8
BLACK
6
CONTINUOUS
10
1.89062
20
-2.59962
11
1.8906
21
-2.59949
0
LINE
8
BLACK
6
CONTINUOUS
10
1.8906
20
-2.59949
11
1.89066
21
-2.59937
0
LINE
8
BLACK
6
CONTINUOUS
10
1.89066
20
-2.59937
11
1.89073
21
-2.59899
0
LINE
8
BLACK
6
CONTINUOUS
10
1.89073
20
-2.59899
11
1.89122
21
-2.5984
0
LINE
8
BLACK
6
CONTINUOUS
10
1.89122
20
-2.5984
11
1.89161
21
-2.59774
0
LINE
8
BLACK
6
CONTINUOUS
10
1.89161
20
-2.59774
11
1.89186
21
-2.59765
0
LINE
8
BLACK
6
CONTINUOUS
10
1.89186
20
-2.59765
11
1.89203
21
-2.59744
0
LINE
8
BLACK
6
CONTINUOUS
10
1.89203
20
-2.59744
11
1.89278
21
-2.59731
0
LINE
8
BLACK
6
CONTINUOUS
10
1.89278
20
-2.59731
11
1.8935
21
-2.59705
0
LINE
8
BLACK
6
CONTINUOUS
10
1.8935
20
-2.59705
11
2.0935
21
-2.59705
0
LINE
8
BLACK
6
CONTINUOUS
10
2.0935
20
-2.59705
11
2.09389
21
-2.59711
0
LINE
8
BLACK
6
CONTINUOUS
10
1.87096
20
-2.42336
11
1.87165
21
-2.42526
0
LINE
8
BLACK
6
CONTINUOUS
10
1.87165
20
-2.42526
11
1.87165
21
-2.43916
0
LINE
8
BLACK
6
CONTINUOUS
10
1.87165
20
-2.43916
11
1.89509
21
-2.42911
0
LINE
8
BLACK
6
CONTINUOUS
10
1.89509
20
-2.42911
11
1.89609
21
-2.42888
0
LINE
8
BLACK
6
CONTINUOUS
10
1.89609
20
-2.42888
11
1.89802
21
-2.42946
0
LINE
8
BLACK
6
CONTINUOUS
10
1.89802
20
-2.42946
11
1.89913
21
-2.43115
0
LINE
8
BLACK
6
CONTINUOUS
10
1.89913
20
-2.43115
11
1.89889
21
-2.43316
0
LINE
8
BLACK
6
CONTINUOUS
10
1.89889
20
-2.43316
11
1.89742
21
-2.43454
0
LINE
8
BLACK
6
CONTINUOUS
10
1.89742
20
-2.43454
11
1.86986
21
-2.44635
0
LINE
8
BLACK
6
CONTINUOUS
10
1.86986
20
-2.44635
11
1.86886
21
-2.44658
0
LINE
8
BLACK
6
CONTINUOUS
10
1.86886
20
-2.44658
11
1.86852
21
-2.44648
0
LINE
8
BLACK
6
CONTINUOUS
10
1.86852
20
-2.44648
11
1.86818
21
-2.44654
0
LINE
8
BLACK
6
CONTINUOUS
10
1.86818
20
-2.44654
11
1.86758
21
-2.4462
0
LINE
8
BLACK
6
CONTINUOUS
10
1.86758
20
-2.4462
11
1.86693
21
-2.446
0
LINE
8
BLACK
6
CONTINUOUS
10
1.86693
20
-2.446
11
1.86673
21
-2.44571
0
LINE
8
BLACK
6
CONTINUOUS
10
1.86673
20
-2.44571
11
1.86643
21
-2.44553
0
LINE
8
BLACK
6
CONTINUOUS
10
1.86643
20
-2.44553
11
1.8662
21
-2.44489
0
LINE
8
BLACK
6
CONTINUOUS
10
1.8662
20
-2.44489
11
1.86582
21
-2.44431
0
LINE
8
BLACK
6
CONTINUOUS
10
1.86582
20
-2.44431
11
1.86586
21
-2.44396
0
LINE
8
BLACK
6
CONTINUOUS
10
1.86586
20
-2.44396
11
1.86574
21
-2.44364
0
LINE
8
BLACK
6
CONTINUOUS
10
1.86574
20
-2.44364
11
1.86574
21
-2.42526
0
LINE
8
BLACK
6
CONTINUOUS
10
1.86574
20
-2.42526
11
1.86592
21
-2.42425
0
LINE
8
BLACK
6
CONTINUOUS
10
1.86592
20
-2.42425
11
1.86722
21
-2.42271
0
LINE
8
BLACK
6
CONTINUOUS
10
1.86722
20
-2.42271
11
1.86921
21
-2.42235
0
LINE
8
BLACK
6
CONTINUOUS
10
1.86921
20
-2.42235
11
1.87096
21
-2.42336
0
LINE
8
BLACK
6
CONTINUOUS
10
1.94572
20
-2.42449
11
1.94703
21
-2.4258
0
LINE
8
BLACK
6
CONTINUOUS
10
1.94703
20
-2.4258
11
1.94754
21
-2.42652
0
LINE
8
BLACK
6
CONTINUOUS
10
1.94754
20
-2.42652
11
1.94758
21
-2.42657
0
LINE
8
BLACK
6
CONTINUOUS
10
1.94758
20
-2.42657
11
1.94889
21
-2.42919
0
LINE
8
BLACK
6
CONTINUOUS
10
1.94889
20
-2.42919
11
1.94919
21
-2.43017
0
LINE
8
BLACK
6
CONTINUOUS
10
1.94919
20
-2.43017
11
1.94915
21
-2.43035
0
LINE
8
BLACK
6
CONTINUOUS
10
1.94915
20
-2.43035
11
1.94921
21
-2.43051
0
LINE
8
BLACK
6
CONTINUOUS
10
1.94921
20
-2.43051
11
1.94921
21
-2.43707
0
LINE
8
BLACK
6
CONTINUOUS
10
1.94921
20
-2.43707
11
1.94903
21
-2.43808
0
LINE
8
BLACK
6
CONTINUOUS
10
1.94903
20
-2.43808
11
1.94891
21
-2.43822
0
LINE
8
BLACK
6
CONTINUOUS
10
1.94891
20
-2.43822
11
1.94889
21
-2.43839
0
LINE
8
BLACK
6
CONTINUOUS
10
1.94889
20
-2.43839
11
1.94758
21
-2.44102
0
LINE
8
BLACK
6
CONTINUOUS
10
1.94758
20
-2.44102
11
1.94706
21
-2.44173
0
LINE
8
BLACK
6
CONTINUOUS
10
1.94706
20
-2.44173
11
1.94703
21
-2.44179
0
LINE
8
BLACK
6
CONTINUOUS
10
1.94703
20
-2.44179
11
1.94572
21
-2.4431
0
LINE
8
BLACK
6
CONTINUOUS
10
1.94572
20
-2.4431
11
1.94499
21
-2.4436
0
LINE
8
BLACK
6
CONTINUOUS
10
1.94499
20
-2.4436
11
1.94495
21
-2.44365
0
LINE
8
BLACK
6
CONTINUOUS
10
1.94495
20
-2.44365
11
1.94232
21
-2.44496
0
LINE
8
BLACK
6
CONTINUOUS
10
1.94232
20
-2.44496
11
1.94134
21
-2.44526
0
LINE
8
BLACK
6
CONTINUOUS
10
1.94134
20
-2.44526
11
1.94117
21
-2.44522
0
LINE
8
BLACK
6
CONTINUOUS
10
1.94117
20
-2.44522
11
1.941
21
-2.44528
0
LINE
8
BLACK
6
CONTINUOUS
10
1.941
20
-2.44528
11
1.93444
21
-2.44528
0
LINE
8
BLACK
6
CONTINUOUS
10
1.93444
20
-2.44528
11
1.93343
21
-2.4451
0
LINE
8
BLACK
6
CONTINUOUS
10
1.93343
20
-2.4451
11
1.9333
21
-2.44498
0
LINE
8
BLACK
6
CONTINUOUS
10
1.9333
20
-2.44498
11
1.93312
21
-2.44496
0
LINE
8
BLACK
6
CONTINUOUS
10
1.93312
20
-2.44496
11
1.9305
21
-2.44365
0
LINE
8
BLACK
6
CONTINUOUS
10
1.9305
20
-2.44365
11
1.92979
21
-2.44313
0
LINE
8
BLACK
6
CONTINUOUS
10
1.92979
20
-2.44313
11
1.92973
21
-2.4431
0
LINE
8
BLACK
6
CONTINUOUS
10
1.92973
20
-2.4431
11
1.92842
21
-2.44179
0
LINE
8
BLACK
6
CONTINUOUS
10
1.92842
20
-2.44179
11
1.92791
21
-2.44106
0
LINE
8
BLACK
6
CONTINUOUS
10
1.92791
20
-2.44106
11
1.92786
21
-2.44102
0
LINE
8
BLACK
6
CONTINUOUS
10
1.92786
20
-2.44102
11
1.92655
21
-2.43839
0
LINE
8
BLACK
6
CONTINUOUS
10
1.92655
20
-2.43839
11
1.92626
21
-2.43741
0
LINE
8
BLACK
6
CONTINUOUS
10
1.92626
20
-2.43741
11
1.9263
21
-2.43724
0
LINE
8
BLACK
6
CONTINUOUS
10
1.9263
20
-2.43724
11
1.92624
21
-2.43707
0
LINE
8
BLACK
6
CONTINUOUS
10
1.92624
20
-2.43707
11
1.92624
21
-2.43051
0
LINE
8
BLACK
6
CONTINUOUS
10
1.92624
20
-2.43051
11
1.92631
21
-2.43009
0
LINE
8
BLACK
6
CONTINUOUS
10
1.92631
20
-2.43009
11
1.92165
21
-2.43056
0
LINE
8
BLACK
6
CONTINUOUS
10
1.92165
20
-2.43056
11
1.92165
21
-2.44101
0
LINE
8
BLACK
6
CONTINUOUS
10
1.92165
20
-2.44101
11
1.92147
21
-2.44202
0
LINE
8
BLACK
6
CONTINUOUS
10
1.92147
20
-2.44202
11
1.92017
21
-2.44357
0
LINE
8
BLACK
6
CONTINUOUS
10
1.92017
20
-2.44357
11
1.91818
21
-2.44392
0
LINE
8
BLACK
6
CONTINUOUS
10
1.91818
20
-2.44392
11
1.91643
21
-2.44291
0
LINE
8
BLACK
6
CONTINUOUS
10
1.91643
20
-2.44291
11
1.91574
21
-2.44101
0
LINE
8
BLACK
6
CONTINUOUS
10
1.91574
20
-2.44101
11
1.91574
21
-2.42789
0
LINE
8
BLACK
6
CONTINUOUS
10
1.91574
20
-2.42789
11
1.91577
21
-2.42773
0
LINE
8
BLACK
6
CONTINUOUS
10
1.91577
20
-2.42773
11
1.91575
21
-2.42767
0
LINE
8
BLACK
6
CONTINUOUS
10
1.91575
20
-2.42767
11
1.9158
21
-2.42755
0
LINE
8
BLACK
6
CONTINUOUS
10
1.9158
20
-2.42755
11
1.91592
21
-2.42688
0
LINE
8
BLACK
6
CONTINUOUS
10
1.91592
20
-2.42688
11
1.91632
21
-2.4264
0
LINE
8
BLACK
6
CONTINUOUS
10
1.91632
20
-2.4264
11
1.91658
21
-2.42583
0
LINE
8
BLACK
6
CONTINUOUS
10
1.91658
20
-2.42583
11
1.91695
21
-2.42565
0
LINE
8
BLACK
6
CONTINUOUS
10
1.91695
20
-2.42565
11
1.91722
21
-2.42533
0
LINE
8
BLACK
6
CONTINUOUS
10
1.91722
20
-2.42533
11
1.91784
21
-2.42522
0
LINE
8
BLACK
6
CONTINUOUS
10
1.91784
20
-2.42522
11
1.9184
21
-2.42495
0
LINE
8
BLACK
6
CONTINUOUS
10
1.9184
20
-2.42495
11
1.93152
21
-2.42364
0
LINE
8
BLACK
6
CONTINUOUS
10
1.93152
20
-2.42364
11
1.93255
21
-2.42371
0
LINE
8
BLACK
6
CONTINUOUS
10
1.93255
20
-2.42371
11
1.93256
21
-2.42372
0
LINE
8
BLACK
6
CONTINUOUS
10
1.93256
20
-2.42372
11
1.93258
21
-2.42372
0
LINE
8
BLACK
6
CONTINUOUS
10
1.93258
20
-2.42372
11
1.9334
21
-2.42429
0
LINE
8
BLACK
6
CONTINUOUS
10
1.9334
20
-2.42429
11
1.93422
21
-2.42485
0
LINE
8
BLACK
6
CONTINUOUS
10
1.93422
20
-2.42485
11
1.93422
21
-2.42487
0
LINE
8
BLACK
6
CONTINUOUS
10
1.93422
20
-2.42487
11
1.93424
21
-2.42488
0
LINE
8
BLACK
6
CONTINUOUS
10
1.93424
20
-2.42488
11
1.93449
21
-2.42584
0
LINE
8
BLACK
6
CONTINUOUS
10
1.93449
20
-2.42584
11
1.93476
21
-2.4268
0
LINE
8
BLACK
6
CONTINUOUS
10
1.93476
20
-2.4268
11
1.93475
21
-2.42681
0
LINE
8
BLACK
6
CONTINUOUS
10
1.93475
20
-2.42681
11
1.93476
21
-2.42683
0
LINE
8
BLACK
6
CONTINUOUS
10
1.93476
20
-2.42683
11
1.93434
21
-2.42773
0
LINE
8
BLACK
6
CONTINUOUS
10
1.93434
20
-2.42773
11
1.93393
21
-2.42864
0
LINE
8
BLACK
6
CONTINUOUS
10
1.93393
20
-2.42864
11
1.93391
21
-2.42865
0
LINE
8
BLACK
6
CONTINUOUS
10
1.93391
20
-2.42865
11
1.93391
21
-2.42866
0
LINE
8
BLACK
6
CONTINUOUS
10
1.93391
20
-2.42866
11
1.93293
21
-2.42964
0
LINE
8
BLACK
6
CONTINUOUS
10
1.93293
20
-2.42964
11
1.93215
21
-2.43121
0
LINE
8
BLACK
6
CONTINUOUS
10
1.93215
20
-2.43121
11
1.93215
21
-2.43638
0
LINE
8
BLACK
6
CONTINUOUS
10
1.93215
20
-2.43638
11
1.93293
21
-2.43795
0
LINE
8
BLACK
6
CONTINUOUS
10
1.93293
20
-2.43795
11
1.93357
21
-2.43858
0
LINE
8
BLACK
6
CONTINUOUS
10
1.93357
20
-2.43858
11
1.93514
21
-2.43937
0
LINE
8
BLACK
6
CONTINUOUS
10
1.93514
20
-2.43937
11
1.94031
21
-2.43937
0
LINE
8
BLACK
6
CONTINUOUS
10
1.94031
20
-2.43937
11
1.94188
21
-2.43858
0
LINE
8
BLACK
6
CONTINUOUS
10
1.94188
20
-2.43858
11
1.94251
21
-2.43795
0
LINE
8
BLACK
6
CONTINUOUS
10
1.94251
20
-2.43795
11
1.9433
21
-2.43638
0
LINE
8
BLACK
6
CONTINUOUS
10
1.9433
20
-2.43638
11
1.9433
21
-2.43121
0
LINE
8
BLACK
6
CONTINUOUS
10
1.9433
20
-2.43121
11
1.94251
21
-2.42964
0
LINE
8
BLACK
6
CONTINUOUS
10
1.94251
20
-2.42964
11
1.94154
21
-2.42866
0
LINE
8
BLACK
6
CONTINUOUS
10
1.94154
20
-2.42866
11
1.94095
21
-2.42782
0
LINE
8
BLACK
6
CONTINUOUS
10
1.94095
20
-2.42782
11
1.94078
21
-2.42581
0
LINE
8
BLACK
6
CONTINUOUS
10
1.94078
20
-2.42581
11
1.94193
21
-2.42416
0
LINE
8
BLACK
6
CONTINUOUS
10
1.94193
20
-2.42416
11
1.94389
21
-2.42363
0
LINE
8
BLACK
6
CONTINUOUS
10
1.94389
20
-2.42363
11
1.94572
21
-2.42449
0
LINE
8
BLACK
6
CONTINUOUS
10
1.89726
20
-2.39624
11
1.89881
21
-2.39754
0
LINE
8
BLACK
6
CONTINUOUS
10
1.89881
20
-2.39754
11
1.89916
21
-2.39953
0
LINE
8
BLACK
6
CONTINUOUS
10
1.89916
20
-2.39953
11
1.89815
21
-2.40128
0
LINE
8
BLACK
6
CONTINUOUS
10
1.89815
20
-2.40128
11
1.89625
21
-2.40197
0
LINE
8
BLACK
6
CONTINUOUS
10
1.89625
20
-2.40197
11
1.88477
21
-2.40197
0
LINE
8
BLACK
6
CONTINUOUS
10
1.88477
20
-2.40197
11
1.88477
21
-2.41181
0
LINE
8
BLACK
6
CONTINUOUS
10
1.88477
20
-2.41181
11
1.89625
21
-2.41181
0
LINE
8
BLACK
6
CONTINUOUS
10
1.89625
20
-2.41181
11
1.89726
21
-2.41199
0
LINE
8
BLACK
6
CONTINUOUS
10
1.89726
20
-2.41199
11
1.89881
21
-2.41329
0
LINE
8
BLACK
6
CONTINUOUS
10
1.89881
20
-2.41329
11
1.89916
21
-2.41528
0
LINE
8
BLACK
6
CONTINUOUS
10
1.89916
20
-2.41528
11
1.89815
21
-2.41703
0
LINE
8
BLACK
6
CONTINUOUS
10
1.89815
20
-2.41703
11
1.89625
21
-2.41772
0
LINE
8
BLACK
6
CONTINUOUS
10
1.89625
20
-2.41772
11
1.86869
21
-2.41772
0
LINE
8
BLACK
6
CONTINUOUS
10
1.86869
20
-2.41772
11
1.86768
21
-2.41754
0
LINE
8
BLACK
6
CONTINUOUS
10
1.86768
20
-2.41754
11
1.86614
21
-2.41624
0
LINE
8
BLACK
6
CONTINUOUS
10
1.86614
20
-2.41624
11
1.86579
21
-2.41425
0
LINE
8
BLACK
6
CONTINUOUS
10
1.86579
20
-2.41425
11
1.8668
21
-2.4125
0
LINE
8
BLACK
6
CONTINUOUS
10
1.8668
20
-2.4125
11
1.86869
21
-2.41181
0
LINE
8
BLACK
6
CONTINUOUS
10
1.86869
20
-2.41181
11
1.87886
21
-2.41181
0
LINE
8
BLACK
6
CONTINUOUS
10
1.87886
20
-2.41181
11
1.87886
21
-2.40197
0
LINE
8
BLACK
6
CONTINUOUS
10
1.87886
20
-2.40197
11
1.86869
21
-2.40197
0
LINE
8
BLACK
6
CONTINUOUS
10
1.86869
20
-2.40197
11
1.86768
21
-2.40179
0
LINE
8
BLACK
6
CONTINUOUS
10
1.86768
20
-2.40179
11
1.86614
21
-2.40049
0
LINE
8
BLACK
6
CONTINUOUS
10
1.86614
20
-2.40049
11
1.86579
21
-2.3985
0
LINE
8
BLACK
6
CONTINUOUS
10
1.86579
20
-2.3985
11
1.8668
21
-2.39675
0
LINE
8
BLACK
6
CONTINUOUS
10
1.8668
20
-2.39675
11
1.86869
21
-2.39606
0
LINE
8
BLACK
6
CONTINUOUS
10
1.86869
20
-2.39606
11
1.89625
21
-2.39606
0
LINE
8
BLACK
6
CONTINUOUS
10
1.89625
20
-2.39606
11
1.89726
21
-2.39624
0
LINE
8
BLACK
6
CONTINUOUS
10
1.94726
20
-2.39624
11
1.94881
21
-2.39754
0
LINE
8
BLACK
6
CONTINUOUS
10
1.94881
20
-2.39754
11
1.94916
21
-2.39953
0
LINE
8
BLACK
6
CONTINUOUS
10
1.94916
20
-2.39953
11
1.94815
21
-2.40128
0
LINE
8
BLACK
6
CONTINUOUS
10
1.94815
20
-2.40128
11
1.94625
21
-2.40197
0
LINE
8
BLACK
6
CONTINUOUS
10
1.94625
20
-2.40197
11
1.93477
21
-2.40197
0
LINE
8
BLACK
6
CONTINUOUS
10
1.93477
20
-2.40197
11
1.93477
21
-2.41181
0
LINE
8
BLACK
6
CONTINUOUS
10
1.93477
20
-2.41181
11
1.94625
21
-2.41181
0
LINE
8
BLACK
6
CONTINUOUS
10
1.94625
20
-2.41181
11
1.94726
21
-2.41199
0
LINE
8
BLACK
6
CONTINUOUS
10
1.94726
20
-2.41199
11
1.94881
21
-2.41329
0
LINE
8
BLACK
6
CONTINUOUS
10
1.94881
20
-2.41329
11
1.94916
21
-2.41528
0
LINE
8
BLACK
6
CONTINUOUS
10
1.94916
20
-2.41528
11
1.94815
21
-2.41703
0
LINE
8
BLACK
6
CONTINUOUS
10
1.94815
20
-2.41703
11
1.94625
21
-2.41772
0
LINE
8
BLACK
6
CONTINUOUS
10
1.94625
20
-2.41772
11
1.91869
21
-2.41772
0
LINE
8
BLACK
6
CONTINUOUS
10
1.91869
20
-2.41772
11
1.91768
21
-2.41754
0
LINE
8
BLACK
6
CONTINUOUS
10
1.91768
20
-2.41754
11
1.91614
21
-2.41624
0
LINE
8
BLACK
6
CONTINUOUS
10
1.91614
20
-2.41624
11
1.91579
21
-2.41425
0
LINE
8
BLACK
6
CONTINUOUS
10
1.91579
20
-2.41425
11
1.9168
21
-2.4125
0
LINE
8
BLACK
6
CONTINUOUS
10
1.9168
20
-2.4125
11
1.91869
21
-2.41181
0
LINE
8
BLACK
6
CONTINUOUS
10
1.91869
20
-2.41181
11
1.92886
21
-2.41181
0
LINE
8
BLACK
6
CONTINUOUS
10
1.92886
20
-2.41181
11
1.92886
21
-2.40197
0
LINE
8
BLACK
6
CONTINUOUS
10
1.92886
20
-2.40197
11
1.91869
21
-2.40197
0
LINE
8
BLACK
6
CONTINUOUS
10
1.91869
20
-2.40197
11
1.91768
21
-2.40179
0
LINE
8
BLACK
6
CONTINUOUS
10
1.91768
20
-2.40179
11
1.91614
21
-2.40049
0
LINE
8
BLACK
6
CONTINUOUS
10
1.91614
20
-2.40049
11
1.91579
21
-2.3985
0
LINE
8
BLACK
6
CONTINUOUS
10
1.91579
20
-2.3985
11
1.9168
21
-2.39675
0
LINE
8
BLACK
6
CONTINUOUS
10
1.9168
20
-2.39675
11
1.91869
21
-2.39606
0
LINE
8
BLACK
6
CONTINUOUS
10
1.91869
20
-2.39606
11
1.94625
21
-2.39606
0
LINE
8
BLACK
6
CONTINUOUS
10
1.94625
20
-2.39606
11
1.94726
21
-2.39624
0
LINE
8
BLACK
6
CONTINUOUS
10
1.98736
20
-2.40468
11
1.98758
21
-2.40464
0
LINE
8
BLACK
6
CONTINUOUS
10
1.98758
20
-2.40464
11
1.98828
21
-2.40504
0
LINE
8
BLACK
6
CONTINUOUS
10
1.98828
20
-2.40504
11
1.98903
21
-2.40534
0
LINE
8
BLACK
6
CONTINUOUS
10
1.98903
20
-2.40534
11
1.98913
21
-2.40554
0
LINE
8
BLACK
6
CONTINUOUS
10
1.98913
20
-2.40554
11
1.98933
21
-2.40565
0
LINE
8
BLACK
6
CONTINUOUS
10
1.98933
20
-2.40565
11
1.9896
21
-2.4064
0
LINE
8
BLACK
6
CONTINUOUS
10
1.9896
20
-2.4064
11
1.98999
21
-2.40711
0
LINE
8
BLACK
6
CONTINUOUS
10
1.98999
20
-2.40711
11
1.98994
21
-2.40733
0
LINE
8
BLACK
6
CONTINUOUS
10
1.98994
20
-2.40733
11
1.99002
21
-2.40755
0
LINE
8
BLACK
6
CONTINUOUS
10
1.99002
20
-2.40755
11
1.99002
21
-2.41772
0
LINE
8
BLACK
6
CONTINUOUS
10
1.99002
20
-2.41772
11
1.99625
21
-2.41772
0
LINE
8
BLACK
6
CONTINUOUS
10
1.99625
20
-2.41772
11
1.99726
21
-2.41789
0
LINE
8
BLACK
6
CONTINUOUS
10
1.99726
20
-2.41789
11
1.99881
21
-2.41919
0
LINE
8
BLACK
6
CONTINUOUS
10
1.99881
20
-2.41919
11
1.99916
21
-2.42118
0
LINE
8
BLACK
6
CONTINUOUS
10
1.99916
20
-2.42118
11
1.99815
21
-2.42293
0
LINE
8
BLACK
6
CONTINUOUS
10
1.99815
20
-2.42293
11
1.99625
21
-2.42362
0
LINE
8
BLACK
6
CONTINUOUS
10
1.99625
20
-2.42362
11
1.99002
21
-2.42362
0
LINE
8
BLACK
6
CONTINUOUS
10
1.99002
20
-2.42362
11
1.99002
21
-2.42461
0
LINE
8
BLACK
6
CONTINUOUS
10
1.99002
20
-2.42461
11
1.98984
21
-2.42562
0
LINE
8
BLACK
6
CONTINUOUS
10
1.98984
20
-2.42562
11
1.98854
21
-2.42716
0
LINE
8
BLACK
6
CONTINUOUS
10
1.98854
20
-2.42716
11
1.98655
21
-2.42751
0
LINE
8
BLACK
6
CONTINUOUS
10
1.98655
20
-2.42751
11
1.9848
21
-2.4265
0
LINE
8
BLACK
6
CONTINUOUS
10
1.9848
20
-2.4265
11
1.98411
21
-2.42461
0
LINE
8
BLACK
6
CONTINUOUS
10
1.98411
20
-2.42461
11
1.98411
21
-2.42362
0
LINE
8
BLACK
6
CONTINUOUS
10
1.98411
20
-2.42362
11
1.97788
21
-2.42362
0
LINE
8
BLACK
6
CONTINUOUS
10
1.97788
20
-2.42362
11
1.97687
21
-2.42344
0
LINE
8
BLACK
6
CONTINUOUS
10
1.97687
20
-2.42344
11
1.97532
21
-2.42215
0
LINE
8
BLACK
6
CONTINUOUS
10
1.97532
20
-2.42215
11
1.97497
21
-2.42016
0
LINE
8
BLACK
6
CONTINUOUS
10
1.97497
20
-2.42016
11
1.97598
21
-2.41841
0
LINE
8
BLACK
6
CONTINUOUS
10
1.97598
20
-2.41841
11
1.97788
21
-2.41772
0
LINE
8
BLACK
6
CONTINUOUS
10
1.97788
20
-2.41772
11
1.98411
21
-2.41772
0
LINE
8
BLACK
6
CONTINUOUS
10
1.98411
20
-2.41772
11
1.98411
21
-2.41164
0
LINE
8
BLACK
6
CONTINUOUS
10
1.98411
20
-2.41164
11
1.96832
21
-2.41691
0
LINE
8
BLACK
6
CONTINUOUS
10
1.96832
20
-2.41691
11
1.9673
21
-2.41706
0
LINE
8
BLACK
6
CONTINUOUS
10
1.9673
20
-2.41706
11
1.96542
21
-2.41632
0
LINE
8
BLACK
6
CONTINUOUS
10
1.96542
20
-2.41632
11
1.96446
21
-2.41454
0
LINE
8
BLACK
6
CONTINUOUS
10
1.96446
20
-2.41454
11
1.96487
21
-2.41256
0
LINE
8
BLACK
6
CONTINUOUS
10
1.96487
20
-2.41256
11
1.96645
21
-2.41131
0
LINE
8
BLACK
6
CONTINUOUS
10
1.96645
20
-2.41131
11
1.98613
21
-2.40474
0
LINE
8
BLACK
6
CONTINUOUS
10
1.98613
20
-2.40474
11
1.98715
21
-2.40459
0
LINE
8
BLACK
6
CONTINUOUS
10
1.98715
20
-2.40459
11
1.98736
21
-2.40468
0
LINE
8
BLACK
6
CONTINUOUS
10
1.89664
20
-2.37382
11
1.89677
21
-2.3738
0
LINE
8
BLACK
6
CONTINUOUS
10
1.89677
20
-2.3738
11
1.89688
21
-2.37386
0
LINE
8
BLACK
6
CONTINUOUS
10
1.89688
20
-2.37386
11
1.89726
21
-2.37393
0
LINE
8
BLACK
6
CONTINUOUS
10
1.89726
20
-2.37393
11
1.89785
21
-2.37442
0
LINE
8
BLACK
6
CONTINUOUS
10
1.89785
20
-2.37442
11
1.89852
21
-2.37481
0
LINE
8
BLACK
6
CONTINUOUS
10
1.89852
20
-2.37481
11
1.89861
21
-2.37506
0
LINE
8
BLACK
6
CONTINUOUS
10
1.89861
20
-2.37506
11
1.89881
21
-2.37523
0
LINE
8
BLACK
6
CONTINUOUS
10
1.89881
20
-2.37523
11
1.89894
21
-2.37599
0
LINE
8
BLACK
6
CONTINUOUS
10
1.89894
20
-2.37599
11
1.89921
21
-2.37671
0
LINE
8
BLACK
6
CONTINUOUS
10
1.89921
20
-2.37671
11
1.89921
21
-2.38983
0
LINE
8
BLACK
6
CONTINUOUS
10
1.89921
20
-2.38983
11
1.89903
21
-2.39084
0
LINE
8
BLACK
6
CONTINUOUS
10
1.89903
20
-2.39084
11
1.89773
21
-2.39239
0
LINE
8
BLACK
6
CONTINUOUS
10
1.89773
20
-2.39239
11
1.89574
21
-2.39274
0
LINE
8
BLACK
6
CONTINUOUS
10
1.89574
20
-2.39274
11
1.89399
21
-2.39173
0
LINE
8
BLACK
6
CONTINUOUS
10
1.89399
20
-2.39173
11
1.8933
21
-2.38983
0
LINE
8
BLACK
6
CONTINUOUS
10
1.8933
20
-2.38983
11
1.8933
21
-2.37966
0
LINE
8
BLACK
6
CONTINUOUS
10
1.8933
20
-2.37966
11
1.86869
21
-2.37966
0
LINE
8
BLACK
6
CONTINUOUS
10
1.86869
20
-2.37966
11
1.86768
21
-2.37948
0
LINE
8
BLACK
6
CONTINUOUS
10
1.86768
20
-2.37948
11
1.86614
21
-2.37818
0
LINE
8
BLACK
6
CONTINUOUS
10
1.86614
20
-2.37818
11
1.86579
21
-2.37619
0
LINE
8
BLACK
6
CONTINUOUS
10
1.86579
20
-2.37619
11
1.8668
21
-2.37444
0
LINE
8
BLACK
6
CONTINUOUS
10
1.8668
20
-2.37444
11
1.86869
21
-2.37375
0
LINE
8
BLACK
6
CONTINUOUS
10
1.86869
20
-2.37375
11
1.89625
21
-2.37375
0
LINE
8
BLACK
6
CONTINUOUS
10
1.89625
20
-2.37375
11
1.89664
21
-2.37382
0
LINE
8
BLACK
6
CONTINUOUS
10
1.94664
20
-2.37382
11
1.94677
21
-2.3738
0
LINE
8
BLACK
6
CONTINUOUS
10
1.94677
20
-2.3738
11
1.94688
21
-2.37386
0
LINE
8
BLACK
6
CONTINUOUS
10
1.94688
20
-2.37386
11
1.94726
21
-2.37393
0
LINE
8
BLACK
6
CONTINUOUS
10
1.94726
20
-2.37393
11
1.94785
21
-2.37442
0
LINE
8
BLACK
6
CONTINUOUS
10
1.94785
20
-2.37442
11
1.94852
21
-2.37481
0
LINE
8
BLACK
6
CONTINUOUS
10
1.94852
20
-2.37481
11
1.94861
21
-2.37506
0
LINE
8
BLACK
6
CONTINUOUS
10
1.94861
20
-2.37506
11
1.94881
21
-2.37523
0
LINE
8
BLACK
6
CONTINUOUS
10
1.94881
20
-2.37523
11
1.94894
21
-2.37599
0
LINE
8
BLACK
6
CONTINUOUS
10
1.94894
20
-2.37599
11
1.94921
21
-2.37671
0
LINE
8
BLACK
6
CONTINUOUS
10
1.94921
20
-2.37671
11
1.94921
21
-2.38983
0
LINE
8
BLACK
6
CONTINUOUS
10
1.94921
20
-2.38983
11
1.94903
21
-2.39084
0
LINE
8
BLACK
6
CONTINUOUS
10
1.94903
20
-2.39084
11
1.94773
21
-2.39239
0
LINE
8
BLACK
6
CONTINUOUS
10
1.94773
20
-2.39239
11
1.94574
21
-2.39274
0
LINE
8
BLACK
6
CONTINUOUS
10
1.94574
20
-2.39274
11
1.94399
21
-2.39173
0
LINE
8
BLACK
6
CONTINUOUS
10
1.94399
20
-2.39173
11
1.9433
21
-2.38983
0
LINE
8
BLACK
6
CONTINUOUS
10
1.9433
20
-2.38983
11
1.9433
21
-2.37966
0
LINE
8
BLACK
6
CONTINUOUS
10
1.9433
20
-2.37966
11
1.91869
21
-2.37966
0
LINE
8
BLACK
6
CONTINUOUS
10
1.91869
20
-2.37966
11
1.91768
21
-2.37948
0
LINE
8
BLACK
6
CONTINUOUS
10
1.91768
20
-2.37948
11
1.91614
21
-2.37818
0
LINE
8
BLACK
6
CONTINUOUS
10
1.91614
20
-2.37818
11
1.91579
21
-2.37619
0
LINE
8
BLACK
6
CONTINUOUS
10
1.91579
20
-2.37619
11
1.9168
21
-2.37444
0
LINE
8
BLACK
6
CONTINUOUS
10
1.9168
20
-2.37444
11
1.91869
21
-2.37375
0
LINE
8
BLACK
6
CONTINUOUS
10
1.91869
20
-2.37375
11
1.94625
21
-2.37375
0
LINE
8
BLACK
6
CONTINUOUS
10
1.94625
20
-2.37375
11
1.94664
21
-2.37382
0
LINE
8
BLACK
6
CONTINUOUS
10
1.97096
20
-2.38203
11
1.97165
21
-2.38392
0
LINE
8
BLACK
6
CONTINUOUS
10
1.97165
20
-2.38392
11
1.97165
21
-2.38885
0
LINE
8
BLACK
6
CONTINUOUS
10
1.97165
20
-2.38885
11
1.99625
21
-2.38885
0
LINE
8
BLACK
6
CONTINUOUS
10
1.99625
20
-2.38885
11
1.99726
21
-2.38902
0
LINE
8
BLACK
6
CONTINUOUS
10
1.99726
20
-2.38902
11
1.99881
21
-2.39032
0
LINE
8
BLACK
6
CONTINUOUS
10
1.99881
20
-2.39032
11
1.99916
21
-2.39231
0
LINE
8
BLACK
6
CONTINUOUS
10
1.99916
20
-2.39231
11
1.99815
21
-2.39406
0
LINE
8
BLACK
6
CONTINUOUS
10
1.99815
20
-2.39406
11
1.99625
21
-2.39475
0
LINE
8
BLACK
6
CONTINUOUS
10
1.99625
20
-2.39475
11
1.97165
21
-2.39475
0
LINE
8
BLACK
6
CONTINUOUS
10
1.97165
20
-2.39475
11
1.97165
21
-2.39967
0
LINE
8
BLACK
6
CONTINUOUS
10
1.97165
20
-2.39967
11
1.97147
21
-2.40068
0
LINE
8
BLACK
6
CONTINUOUS
10
1.97147
20
-2.40068
11
1.97017
21
-2.40223
0
LINE
8
BLACK
6
CONTINUOUS
10
1.97017
20
-2.40223
11
1.96818
21
-2.40258
0
LINE
8
BLACK
6
CONTINUOUS
10
1.96818
20
-2.40258
11
1.96643
21
-2.40157
0
LINE
8
BLACK
6
CONTINUOUS
10
1.96643
20
-2.40157
11
1.96574
21
-2.39967
0
LINE
8
BLACK
6
CONTINUOUS
10
1.96574
20
-2.39967
11
1.96574
21
-2.38392
0
LINE
8
BLACK
6
CONTINUOUS
10
1.96574
20
-2.38392
11
1.96592
21
-2.38291
0
LINE
8
BLACK
6
CONTINUOUS
10
1.96592
20
-2.38291
11
1.96722
21
-2.38137
0
LINE
8
BLACK
6
CONTINUOUS
10
1.96722
20
-2.38137
11
1.96921
21
-2.38102
0
LINE
8
BLACK
6
CONTINUOUS
10
1.96921
20
-2.38102
11
1.97096
21
-2.38203
0
LINE
8
BLACK
6
CONTINUOUS
10
1.94719
20
-2.35553
11
1.94809
21
-2.35602
0
LINE
8
BLACK
6
CONTINUOUS
10
1.94809
20
-2.35602
11
1.94813
21
-2.35609
0
LINE
8
BLACK
6
CONTINUOUS
10
1.94813
20
-2.35609
11
1.94821
21
-2.35612
0
LINE
8
BLACK
6
CONTINUOUS
10
1.94821
20
-2.35612
11
1.94866
21
-2.35695
0
LINE
8
BLACK
6
CONTINUOUS
10
1.94866
20
-2.35695
11
1.94915
21
-2.35774
0
LINE
8
BLACK
6
CONTINUOUS
10
1.94915
20
-2.35774
11
1.94913
21
-2.35783
0
LINE
8
BLACK
6
CONTINUOUS
10
1.94913
20
-2.35783
11
1.94917
21
-2.3579
0
LINE
8
BLACK
6
CONTINUOUS
10
1.94917
20
-2.3579
11
1.94899
21
-2.35882
0
LINE
8
BLACK
6
CONTINUOUS
10
1.94899
20
-2.35882
11
1.94885
21
-2.35974
0
LINE
8
BLACK
6
CONTINUOUS
10
1.94885
20
-2.35974
11
1.94879
21
-2.3598
0
LINE
8
BLACK
6
CONTINUOUS
10
1.94879
20
-2.3598
11
1.94877
21
-2.35988
0
LINE
8
BLACK
6
CONTINUOUS
10
1.94877
20
-2.35988
11
1.94804
21
-2.36046
0
LINE
8
BLACK
6
CONTINUOUS
10
1.94804
20
-2.36046
11
1.94734
21
-2.36108
0
LINE
8
BLACK
6
CONTINUOUS
10
1.94734
20
-2.36108
11
1.94725
21
-2.36108
0
LINE
8
BLACK
6
CONTINUOUS
10
1.94725
20
-2.36108
11
1.94719
21
-2.36113
0
LINE
8
BLACK
6
CONTINUOUS
10
1.94719
20
-2.36113
11
1.91963
21
-2.37032
0
LINE
8
BLACK
6
CONTINUOUS
10
1.91963
20
-2.37032
11
1.91861
21
-2.37047
0
LINE
8
BLACK
6
CONTINUOUS
10
1.91861
20
-2.37047
11
1.91674
21
-2.36973
0
LINE
8
BLACK
6
CONTINUOUS
10
1.91674
20
-2.36973
11
1.91577
21
-2.36795
0
LINE
8
BLACK
6
CONTINUOUS
10
1.91577
20
-2.36795
11
1.91618
21
-2.36597
0
LINE
8
BLACK
6
CONTINUOUS
10
1.91618
20
-2.36597
11
1.91776
21
-2.36472
0
LINE
8
BLACK
6
CONTINUOUS
10
1.91776
20
-2.36472
11
1.93692
21
-2.35833
0
LINE
8
BLACK
6
CONTINUOUS
10
1.93692
20
-2.35833
11
1.91776
21
-2.35195
0
LINE
8
BLACK
6
CONTINUOUS
10
1.91776
20
-2.35195
11
1.91686
21
-2.35146
0
LINE
8
BLACK
6
CONTINUOUS
10
1.91686
20
-2.35146
11
1.9158
21
-2.34974
0
LINE
8
BLACK
6
CONTINUOUS
10
1.9158
20
-2.34974
11
1.9161
21
-2.34774
0
LINE
8
BLACK
6
CONTINUOUS
10
1.9161
20
-2.34774
11
1.91761
21
-2.3464
0
LINE
8
BLACK
6
CONTINUOUS
10
1.91761
20
-2.3464
11
1.91963
21
-2.34635
0
LINE
8
BLACK
6
CONTINUOUS
10
1.91963
20
-2.34635
11
1.94719
21
-2.35553
0
LINE
8
BLACK
6
CONTINUOUS
10
1.99726
20
-2.36146
11
1.99881
21
-2.36276
0
LINE
8
BLACK
6
CONTINUOUS
10
1.99881
20
-2.36276
11
1.99916
21
-2.36475
0
LINE
8
BLACK
6
CONTINUOUS
10
1.99916
20
-2.36475
11
1.99815
21
-2.3665
0
LINE
8
BLACK
6
CONTINUOUS
10
1.99815
20
-2.3665
11
1.99625
21
-2.36719
0
LINE
8
BLACK
6
CONTINUOUS
10
1.99625
20
-2.36719
11
1.98477
21
-2.36719
0
LINE
8
BLACK
6
CONTINUOUS
10
1.98477
20
-2.36719
11
1.98477
21
-2.37343
0
LINE
8
BLACK
6
CONTINUOUS
10
1.98477
20
-2.37343
11
1.98459
21
-2.37444
0
LINE
8
BLACK
6
CONTINUOUS
10
1.98459
20
-2.37444
11
1.98329
21
-2.37598
0
LINE
8
BLACK
6
CONTINUOUS
10
1.98329
20
-2.37598
11
1.9813
21
-2.37633
0
LINE
8
BLACK
6
CONTINUOUS
10
1.9813
20
-2.37633
11
1.97956
21
-2.37532
0
LINE
8
BLACK
6
CONTINUOUS
10
1.97956
20
-2.37532
11
1.97886
21
-2.37343
0
LINE
8
BLACK
6
CONTINUOUS
10
1.97886
20
-2.37343
11
1.97886
21
-2.36719
0
LINE
8
BLACK
6
CONTINUOUS
10
1.97886
20
-2.36719
11
1.97165
21
-2.36719
0
LINE
8
BLACK
6
CONTINUOUS
10
1.97165
20
-2.36719
11
1.97165
21
-2.37736
0
LINE
8
BLACK
6
CONTINUOUS
10
1.97165
20
-2.37736
11
1.97147
21
-2.37837
0
LINE
8
BLACK
6
CONTINUOUS
10
1.97147
20
-2.37837
11
1.97017
21
-2.37992
0
LINE
8
BLACK
6
CONTINUOUS
10
1.97017
20
-2.37992
11
1.96818
21
-2.38027
0
LINE
8
BLACK
6
CONTINUOUS
10
1.96818
20
-2.38027
11
1.96643
21
-2.37926
0
LINE
8
BLACK
6
CONTINUOUS
10
1.96643
20
-2.37926
11
1.96574
21
-2.37736
0
LINE
8
BLACK
6
CONTINUOUS
10
1.96574
20
-2.37736
11
1.96574
21
-2.36424
0
LINE
8
BLACK
6
CONTINUOUS
10
1.96574
20
-2.36424
11
1.96581
21
-2.36386
0
LINE
8
BLACK
6
CONTINUOUS
10
1.96581
20
-2.36386
11
1.96579
21
-2.36373
0
LINE
8
BLACK
6
CONTINUOUS
10
1.96579
20
-2.36373
11
1.96585
21
-2.36361
0
LINE
8
BLACK
6
CONTINUOUS
10
1.96585
20
-2.36361
11
1.96592
21
-2.36323
0
LINE
8
BLACK
6
CONTINUOUS
10
1.96592
20
-2.36323
11
1.96641
21
-2.36264
0
LINE
8
BLACK
6
CONTINUOUS
10
1.96641
20
-2.36264
11
1.9668
21
-2.36198
0
LINE
8
BLACK
6
CONTINUOUS
10
1.9668
20
-2.36198
11
1.96705
21
-2.36189
0
LINE
8
BLACK
6
CONTINUOUS
10
1.96705
20
-2.36189
11
1.96722
21
-2.36168
0
LINE
8
BLACK
6
CONTINUOUS
10
1.96722
20
-2.36168
11
1.96797
21
-2.36155
0
LINE
8
BLACK
6
CONTINUOUS
10
1.96797
20
-2.36155
11
1.96869
21
-2.36129
0
LINE
8
BLACK
6
CONTINUOUS
10
1.96869
20
-2.36129
11
1.99625
21
-2.36129
0
LINE
8
BLACK
6
CONTINUOUS
10
1.99625
20
-2.36129
11
1.99726
21
-2.36146
0
LINE
8
BLACK
6
CONTINUOUS
10
1.89719
20
-2.35553
11
1.89809
21
-2.35602
0
LINE
8
BLACK
6
CONTINUOUS
10
1.89809
20
-2.35602
11
1.89813
21
-2.35609
0
LINE
8
BLACK
6
CONTINUOUS
10
1.89813
20
-2.35609
11
1.89821
21
-2.35612
0
LINE
8
BLACK
6
CONTINUOUS
10
1.89821
20
-2.35612
11
1.89866
21
-2.35695
0
LINE
8
BLACK
6
CONTINUOUS
10
1.89866
20
-2.35695
11
1.89915
21
-2.35774
0
LINE
8
BLACK
6
CONTINUOUS
10
1.89915
20
-2.35774
11
1.89913
21
-2.35783
0
LINE
8
BLACK
6
CONTINUOUS
10
1.89913
20
-2.35783
11
1.89917
21
-2.3579
0
LINE
8
BLACK
6
CONTINUOUS
10
1.89917
20
-2.3579
11
1.89899
21
-2.35882
0
LINE
8
BLACK
6
CONTINUOUS
10
1.89899
20
-2.35882
11
1.89885
21
-2.35974
0
LINE
8
BLACK
6
CONTINUOUS
10
1.89885
20
-2.35974
11
1.89879
21
-2.3598
0
LINE
8
BLACK
6
CONTINUOUS
10
1.89879
20
-2.3598
11
1.89877
21
-2.35988
0
LINE
8
BLACK
6
CONTINUOUS
10
1.89877
20
-2.35988
11
1.89804
21
-2.36046
0
LINE
8
BLACK
6
CONTINUOUS
10
1.89804
20
-2.36046
11
1.89734
21
-2.36108
0
LINE
8
BLACK
6
CONTINUOUS
10
1.89734
20
-2.36108
11
1.89725
21
-2.36108
0
LINE
8
BLACK
6
CONTINUOUS
10
1.89725
20
-2.36108
11
1.89719
21
-2.36113
0
LINE
8
BLACK
6
CONTINUOUS
10
1.89719
20
-2.36113
11
1.86963
21
-2.37032
0
LINE
8
BLACK
6
CONTINUOUS
10
1.86963
20
-2.37032
11
1.86861
21
-2.37047
0
LINE
8
BLACK
6
CONTINUOUS
10
1.86861
20
-2.37047
11
1.86674
21
-2.36973
0
LINE
8
BLACK
6
CONTINUOUS
10
1.86674
20
-2.36973
11
1.86577
21
-2.36795
0
LINE
8
BLACK
6
CONTINUOUS
10
1.86577
20
-2.36795
11
1.86618
21
-2.36597
0
LINE
8
BLACK
6
CONTINUOUS
10
1.86618
20
-2.36597
11
1.86776
21
-2.36472
0
LINE
8
BLACK
6
CONTINUOUS
10
1.86776
20
-2.36472
11
1.88692
21
-2.35833
0
LINE
8
BLACK
6
CONTINUOUS
10
1.88692
20
-2.35833
11
1.86776
21
-2.35195
0
LINE
8
BLACK
6
CONTINUOUS
10
1.86776
20
-2.35195
11
1.86686
21
-2.35146
0
LINE
8
BLACK
6
CONTINUOUS
10
1.86686
20
-2.35146
11
1.8658
21
-2.34974
0
LINE
8
BLACK
6
CONTINUOUS
10
1.8658
20
-2.34974
11
1.8661
21
-2.34774
0
LINE
8
BLACK
6
CONTINUOUS
10
1.8661
20
-2.34774
11
1.86761
21
-2.3464
0
LINE
8
BLACK
6
CONTINUOUS
10
1.86761
20
-2.3464
11
1.86963
21
-2.34635
0
LINE
8
BLACK
6
CONTINUOUS
10
1.86963
20
-2.34635
11
1.89719
21
-2.35553
0
LINE
8
BLACK
6
CONTINUOUS
10
1.89201
20
-2.32275
11
1.89215
21
-2.32286
0
LINE
8
BLACK
6
CONTINUOUS
10
1.89215
20
-2.32286
11
1.89232
21
-2.32288
0
LINE
8
BLACK
6
CONTINUOUS
10
1.89232
20
-2.32288
11
1.89495
21
-2.3242
0
LINE
8
BLACK
6
CONTINUOUS
10
1.89495
20
-2.3242
11
1.89566
21
-2.32472
0
LINE
8
BLACK
6
CONTINUOUS
10
1.89566
20
-2.32472
11
1.89572
21
-2.32475
0
LINE
8
BLACK
6
CONTINUOUS
10
1.89572
20
-2.32475
11
1.89703
21
-2.32606
0
LINE
8
BLACK
6
CONTINUOUS
10
1.89703
20
-2.32606
11
1.89754
21
-2.32678
0
LINE
8
BLACK
6
CONTINUOUS
10
1.89754
20
-2.32678
11
1.89758
21
-2.32683
0
LINE
8
BLACK
6
CONTINUOUS
10
1.89758
20
-2.32683
11
1.89889
21
-2.32945
0
LINE
8
BLACK
6
CONTINUOUS
10
1.89889
20
-2.32945
11
1.89919
21
-2.33044
0
LINE
8
BLACK
6
CONTINUOUS
10
1.89919
20
-2.33044
11
1.89915
21
-2.33061
0
LINE
8
BLACK
6
CONTINUOUS
10
1.89915
20
-2.33061
11
1.89921
21
-2.33077
0
LINE
8
BLACK
6
CONTINUOUS
10
1.89921
20
-2.33077
11
1.89921
21
-2.33602
0
LINE
8
BLACK
6
CONTINUOUS
10
1.89921
20
-2.33602
11
1.89903
21
-2.33703
0
LINE
8
BLACK
6
CONTINUOUS
10
1.89903
20
-2.33703
11
1.89891
21
-2.33717
0
LINE
8
BLACK
6
CONTINUOUS
10
1.89891
20
-2.33717
11
1.89889
21
-2.33734
0
LINE
8
BLACK
6
CONTINUOUS
10
1.89889
20
-2.33734
11
1.89758
21
-2.33997
0
LINE
8
BLACK
6
CONTINUOUS
10
1.89758
20
-2.33997
11
1.89706
21
-2.34068
0
LINE
8
BLACK
6
CONTINUOUS
10
1.89706
20
-2.34068
11
1.89703
21
-2.34074
0
LINE
8
BLACK
6
CONTINUOUS
10
1.89703
20
-2.34074
11
1.89572
21
-2.34205
0
LINE
8
BLACK
6
CONTINUOUS
10
1.89572
20
-2.34205
11
1.89499
21
-2.34255
0
LINE
8
BLACK
6
CONTINUOUS
10
1.89499
20
-2.34255
11
1.89495
21
-2.3426
0
LINE
8
BLACK
6
CONTINUOUS
10
1.89495
20
-2.3426
11
1.89232
21
-2.34391
0
LINE
8
BLACK
6
CONTINUOUS
10
1.89232
20
-2.34391
11
1.89134
21
-2.34421
0
LINE
8
BLACK
6
CONTINUOUS
10
1.89134
20
-2.34421
11
1.89117
21
-2.34417
0
LINE
8
BLACK
6
CONTINUOUS
10
1.89117
20
-2.34417
11
1.891
21
-2.34423
0
LINE
8
BLACK
6
CONTINUOUS
10
1.891
20
-2.34423
11
1.88444
21
-2.34423
0
LINE
8
BLACK
6
CONTINUOUS
10
1.88444
20
-2.34423
11
1.88343
21
-2.34405
0
LINE
8
BLACK
6
CONTINUOUS
10
1.88343
20
-2.34405
11
1.8833
21
-2.34393
0
LINE
8
BLACK
6
CONTINUOUS
10
1.8833
20
-2.34393
11
1.88312
21
-2.34391
0
LINE
8
BLACK
6
CONTINUOUS
10
1.88312
20
-2.34391
11
1.8805
21
-2.3426
0
LINE
8
BLACK
6
CONTINUOUS
10
1.8805
20
-2.3426
11
1.87979
21
-2.34208
0
LINE
8
BLACK
6
CONTINUOUS
10
1.87979
20
-2.34208
11
1.87973
21
-2.34205
0
LINE
8
BLACK
6
CONTINUOUS
10
1.87973
20
-2.34205
11
1.87842
21
-2.34074
0
LINE
8
BLACK
6
CONTINUOUS
10
1.87842
20
-2.34074
11
1.87791
21
-2.34001
0
LINE
8
BLACK
6
CONTINUOUS
10
1.87791
20
-2.34001
11
1.87786
21
-2.33997
0
LINE
8
BLACK
6
CONTINUOUS
10
1.87786
20
-2.33997
11
1.87655
21
-2.33734
0
LINE
8
BLACK
6
CONTINUOUS
10
1.87655
20
-2.33734
11
1.87626
21
-2.33636
0
LINE
8
BLACK
6
CONTINUOUS
10
1.87626
20
-2.33636
11
1.8763
21
-2.33619
0
LINE
8
BLACK
6
CONTINUOUS
10
1.8763
20
-2.33619
11
1.87624
21
-2.33602
0
LINE
8
BLACK
6
CONTINUOUS
10
1.87624
20
-2.33602
11
1.87624
21
-2.33077
0
LINE
8
BLACK
6
CONTINUOUS
10
1.87624
20
-2.33077
11
1.87642
21
-2.32976
0
LINE
8
BLACK
6
CONTINUOUS
10
1.87642
20
-2.32976
11
1.87653
21
-2.32963
0
LINE
8
BLACK
6
CONTINUOUS
10
1.87653
20
-2.32963
11
1.87654
21
-2.32956
0
LINE
8
BLACK
6
CONTINUOUS
10
1.87654
20
-2.32956
11
1.87647
21
-2.32958
0
LINE
8
BLACK
6
CONTINUOUS
10
1.87647
20
-2.32958
11
1.8732
21
-2.33176
0
LINE
8
BLACK
6
CONTINUOUS
10
1.8732
20
-2.33176
11
1.87243
21
-2.33252
0
LINE
8
BLACK
6
CONTINUOUS
10
1.87243
20
-2.33252
11
1.87165
21
-2.3341
0
LINE
8
BLACK
6
CONTINUOUS
10
1.87165
20
-2.3341
11
1.87165
21
-2.33865
0
LINE
8
BLACK
6
CONTINUOUS
10
1.87165
20
-2.33865
11
1.87147
21
-2.33966
0
LINE
8
BLACK
6
CONTINUOUS
10
1.87147
20
-2.33966
11
1.87017
21
-2.34121
0
LINE
8
BLACK
6
CONTINUOUS
10
1.87017
20
-2.34121
11
1.86818
21
-2.34156
0
LINE
8
BLACK
6
CONTINUOUS
10
1.86818
20
-2.34156
11
1.86643
21
-2.34055
0
LINE
8
BLACK
6
CONTINUOUS
10
1.86643
20
-2.34055
11
1.86574
21
-2.33865
0
LINE
8
BLACK
6
CONTINUOUS
10
1.86574
20
-2.33865
11
1.86574
21
-2.3334
0
LINE
8
BLACK
6
CONTINUOUS
10
1.86574
20
-2.3334
11
1.86592
21
-2.33239
0
LINE
8
BLACK
6
CONTINUOUS
10
1.86592
20
-2.33239
11
1.86603
21
-2.33225
0
LINE
8
BLACK
6
CONTINUOUS
10
1.86603
20
-2.33225
11
1.86605
21
-2.33208
0
LINE
8
BLACK
6
CONTINUOUS
10
1.86605
20
-2.33208
11
1.86737
21
-2.32945
0
LINE
8
BLACK
6
CONTINUOUS
10
1.86737
20
-2.32945
11
1.86789
21
-2.32874
0
LINE
8
BLACK
6
CONTINUOUS
10
1.86789
20
-2.32874
11
1.86792
21
-2.32869
0
LINE
8
BLACK
6
CONTINUOUS
10
1.86792
20
-2.32869
11
1.86923
21
-2.32737
0
LINE
8
BLACK
6
CONTINUOUS
10
1.86923
20
-2.32737
11
1.8696
21
-2.32712
0
LINE
8
BLACK
6
CONTINUOUS
10
1.8696
20
-2.32712
11
1.86968
21
-2.32701
0
LINE
8
BLACK
6
CONTINUOUS
10
1.86968
20
-2.32701
11
1.87362
21
-2.32438
0
LINE
8
BLACK
6
CONTINUOUS
10
1.87362
20
-2.32438
11
1.87453
21
-2.32398
0
LINE
8
BLACK
6
CONTINUOUS
10
1.87453
20
-2.32398
11
1.87454
21
-2.32397
0
LINE
8
BLACK
6
CONTINUOUS
10
1.87454
20
-2.32397
11
1.87979
21
-2.32266
0
LINE
8
BLACK
6
CONTINUOUS
10
1.87979
20
-2.32266
11
1.88038
21
-2.32262
0
LINE
8
BLACK
6
CONTINUOUS
10
1.88038
20
-2.32262
11
1.88051
21
-2.32257
0
LINE
8
BLACK
6
CONTINUOUS
10
1.88051
20
-2.32257
11
1.891
21
-2.32257
0
LINE
8
BLACK
6
CONTINUOUS
10
1.891
20
-2.32257
11
1.89201
21
-2.32275
0
LINE
8
BLACK
6
CONTINUOUS
10
1.88357
20
-2.32926
11
1.88293
21
-2.3299
0
LINE
8
BLACK
6
CONTINUOUS
10
1.88293
20
-2.3299
11
1.88215
21
-2.33147
0
LINE
8
BLACK
6
CONTINUOUS
10
1.88215
20
-2.33147
11
1.88215
21
-2.33533
0
LINE
8
BLACK
6
CONTINUOUS
10
1.88215
20
-2.33533
11
1.88293
21
-2.3369
0
LINE
8
BLACK
6
CONTINUOUS
10
1.88293
20
-2.3369
11
1.88357
21
-2.33753
0
LINE
8
BLACK
6
CONTINUOUS
10
1.88357
20
-2.33753
11
1.88514
21
-2.33832
0
LINE
8
BLACK
6
CONTINUOUS
10
1.88514
20
-2.33832
11
1.89031
21
-2.33832
0
LINE
8
BLACK
6
CONTINUOUS
10
1.89031
20
-2.33832
11
1.89188
21
-2.33753
0
LINE
8
BLACK
6
CONTINUOUS
10
1.89188
20
-2.33753
11
1.89251
21
-2.3369
0
LINE
8
BLACK
6
CONTINUOUS
10
1.89251
20
-2.3369
11
1.8933
21
-2.33533
0
LINE
8
BLACK
6
CONTINUOUS
10
1.8933
20
-2.33533
11
1.8933
21
-2.33147
0
LINE
8
BLACK
6
CONTINUOUS
10
1.8933
20
-2.33147
11
1.89251
21
-2.3299
0
LINE
8
BLACK
6
CONTINUOUS
10
1.89251
20
-2.3299
11
1.89188
21
-2.32926
0
LINE
8
BLACK
6
CONTINUOUS
10
1.89188
20
-2.32926
11
1.89031
21
-2.32848
0
LINE
8
BLACK
6
CONTINUOUS
10
1.89031
20
-2.32848
11
1.88514
21
-2.32848
0
LINE
8
BLACK
6
CONTINUOUS
10
1.88514
20
-2.32848
11
1.88357
21
-2.32926
0
LINE
8
BLACK
6
CONTINUOUS
10
1.92627
20
-2.32275
11
1.9264
21
-2.32286
0
LINE
8
BLACK
6
CONTINUOUS
10
1.9264
20
-2.32286
11
1.92658
21
-2.32288
0
LINE
8
BLACK
6
CONTINUOUS
10
1.92658
20
-2.32288
11
1.9292
21
-2.3242
0
LINE
8
BLACK
6
CONTINUOUS
10
1.9292
20
-2.3242
11
1.92991
21
-2.32472
0
LINE
8
BLACK
6
CONTINUOUS
10
1.92991
20
-2.32472
11
1.92997
21
-2.32475
0
LINE
8
BLACK
6
CONTINUOUS
10
1.92997
20
-2.32475
11
1.93051
21
-2.32529
0
LINE
8
BLACK
6
CONTINUOUS
10
1.93051
20
-2.32529
11
1.93104
21
-2.32475
0
LINE
8
BLACK
6
CONTINUOUS
10
1.93104
20
-2.32475
11
1.93177
21
-2.32424
0
LINE
8
BLACK
6
CONTINUOUS
10
1.93177
20
-2.32424
11
1.93181
21
-2.3242
0
LINE
8
BLACK
6
CONTINUOUS
10
1.93181
20
-2.3242
11
1.93443
21
-2.32288
0
LINE
8
BLACK
6
CONTINUOUS
10
1.93443
20
-2.32288
11
1.93542
21
-2.32259
0
LINE
8
BLACK
6
CONTINUOUS
10
1.93542
20
-2.32259
11
1.93559
21
-2.32263
0
LINE
8
BLACK
6
CONTINUOUS
10
1.93559
20
-2.32263
11
1.93575
21
-2.32257
0
LINE
8
BLACK
6
CONTINUOUS
10
1.93575
20
-2.32257
11
1.941
21
-2.32257
0
LINE
8
BLACK
6
CONTINUOUS
10
1.941
20
-2.32257
11
1.94201
21
-2.32275
0
LINE
8
BLACK
6
CONTINUOUS
10
1.94201
20
-2.32275
11
1.94215
21
-2.32286
0
LINE
8
BLACK
6
CONTINUOUS
10
1.94215
20
-2.32286
11
1.94232
21
-2.32288
0
LINE
8
BLACK
6
CONTINUOUS
10
1.94232
20
-2.32288
11
1.94495
21
-2.3242
0
LINE
8
BLACK
6
CONTINUOUS
10
1.94495
20
-2.3242
11
1.94566
21
-2.32472
0
LINE
8
BLACK
6
CONTINUOUS
10
1.94566
20
-2.32472
11
1.94572
21
-2.32475
0
LINE
8
BLACK
6
CONTINUOUS
10
1.94572
20
-2.32475
11
1.94703
21
-2.32606
0
LINE
8
BLACK
6
CONTINUOUS
10
1.94703
20
-2.32606
11
1.94754
21
-2.32678
0
LINE
8
BLACK
6
CONTINUOUS
10
1.94754
20
-2.32678
11
1.94758
21
-2.32683
0
LINE
8
BLACK
6
CONTINUOUS
10
1.94758
20
-2.32683
11
1.94889
21
-2.32945
0
LINE
8
BLACK
6
CONTINUOUS
10
1.94889
20
-2.32945
11
1.94919
21
-2.33044
0
LINE
8
BLACK
6
CONTINUOUS
10
1.94919
20
-2.33044
11
1.94915
21
-2.33061
0
LINE
8
BLACK
6
CONTINUOUS
10
1.94915
20
-2.33061
11
1.94921
21
-2.33077
0
LINE
8
BLACK
6
CONTINUOUS
10
1.94921
20
-2.33077
11
1.94921
21
-2.33602
0
LINE
8
BLACK
6
CONTINUOUS
10
1.94921
20
-2.33602
11
1.94903
21
-2.33703
0
LINE
8
BLACK
6
CONTINUOUS
10
1.94903
20
-2.33703
11
1.94891
21
-2.33717
0
LINE
8
BLACK
6
CONTINUOUS
10
1.94891
20
-2.33717
11
1.94889
21
-2.33734
0
LINE
8
BLACK
6
CONTINUOUS
10
1.94889
20
-2.33734
11
1.94758
21
-2.33997
0
LINE
8
BLACK
6
CONTINUOUS
10
1.94758
20
-2.33997
11
1.94706
21
-2.34068
0
LINE
8
BLACK
6
CONTINUOUS
10
1.94706
20
-2.34068
11
1.94703
21
-2.34074
0
LINE
8
BLACK
6
CONTINUOUS
10
1.94703
20
-2.34074
11
1.94572
21
-2.34205
0
LINE
8
BLACK
6
CONTINUOUS
10
1.94572
20
-2.34205
11
1.94499
21
-2.34255
0
LINE
8
BLACK
6
CONTINUOUS
10
1.94499
20
-2.34255
11
1.94495
21
-2.3426
0
LINE
8
BLACK
6
CONTINUOUS
10
1.94495
20
-2.3426
11
1.94232
21
-2.34391
0
LINE
8
BLACK
6
CONTINUOUS
10
1.94232
20
-2.34391
11
1.94134
21
-2.34421
0
LINE
8
BLACK
6
CONTINUOUS
10
1.94134
20
-2.34421
11
1.94117
21
-2.34417
0
LINE
8
BLACK
6
CONTINUOUS
10
1.94117
20
-2.34417
11
1.941
21
-2.34423
0
LINE
8
BLACK
6
CONTINUOUS
10
1.941
20
-2.34423
11
1.93575
21
-2.34423
0
LINE
8
BLACK
6
CONTINUOUS
10
1.93575
20
-2.34423
11
1.93474
21
-2.34405
0
LINE
8
BLACK
6
CONTINUOUS
10
1.93474
20
-2.34405
11
1.93461
21
-2.34393
0
LINE
8
BLACK
6
CONTINUOUS
10
1.93461
20
-2.34393
11
1.93443
21
-2.34391
0
LINE
8
BLACK
6
CONTINUOUS
10
1.93443
20
-2.34391
11
1.93181
21
-2.3426
0
LINE
8
BLACK
6
CONTINUOUS
10
1.93181
20
-2.3426
11
1.9311
21
-2.34208
0
LINE
8
BLACK
6
CONTINUOUS
10
1.9311
20
-2.34208
11
1.93104
21
-2.34205
0
LINE
8
BLACK
6
CONTINUOUS
10
1.93104
20
-2.34205
11
1.93051
21
-2.34151
0
LINE
8
BLACK
6
CONTINUOUS
10
1.93051
20
-2.34151
11
1.92997
21
-2.34205
0
LINE
8
BLACK
6
CONTINUOUS
10
1.92997
20
-2.34205
11
1.92925
21
-2.34255
0
LINE
8
BLACK
6
CONTINUOUS
10
1.92925
20
-2.34255
11
1.9292
21
-2.3426
0
LINE
8
BLACK
6
CONTINUOUS
10
1.9292
20
-2.3426
11
1.92658
21
-2.34391
0
LINE
8
BLACK
6
CONTINUOUS
10
1.92658
20
-2.34391
11
1.92559
21
-2.34421
0
LINE
8
BLACK
6
CONTINUOUS
10
1.92559
20
-2.34421
11
1.92542
21
-2.34417
0
LINE
8
BLACK
6
CONTINUOUS
10
1.92542
20
-2.34417
11
1.92526
21
-2.34423
0
LINE
8
BLACK
6
CONTINUOUS
10
1.92526
20
-2.34423
11
1.92394
21
-2.34423
0
LINE
8
BLACK
6
CONTINUOUS
10
1.92394
20
-2.34423
11
1.92293
21
-2.34405
0
LINE
8
BLACK
6
CONTINUOUS
10
1.92293
20
-2.34405
11
1.9228
21
-2.34393
0
LINE
8
BLACK
6
CONTINUOUS
10
1.9228
20
-2.34393
11
1.92262
21
-2.34391
0
LINE
8
BLACK
6
CONTINUOUS
10
1.92262
20
-2.34391
11
1.92
21
-2.3426
0
LINE
8
BLACK
6
CONTINUOUS
10
1.92
20
-2.3426
11
1.91929
21
-2.34208
0
LINE
8
BLACK
6
CONTINUOUS
10
1.91929
20
-2.34208
11
1.91923
21
-2.34205
0
LINE
8
BLACK
6
CONTINUOUS
10
1.91923
20
-2.34205
11
1.91792
21
-2.34074
0
LINE
8
BLACK
6
CONTINUOUS
10
1.91792
20
-2.34074
11
1.91741
21
-2.34001
0
LINE
8
BLACK
6
CONTINUOUS
10
1.91741
20
-2.34001
11
1.91737
21
-2.33997
0
LINE
8
BLACK
6
CONTINUOUS
10
1.91737
20
-2.33997
11
1.91605
21
-2.33734
0
LINE
8
BLACK
6
CONTINUOUS
10
1.91605
20
-2.33734
11
1.91576
21
-2.33636
0
LINE
8
BLACK
6
CONTINUOUS
10
1.91576
20
-2.33636
11
1.9158
21
-2.33619
0
LINE
8
BLACK
6
CONTINUOUS
10
1.9158
20
-2.33619
11
1.91574
21
-2.33602
0
LINE
8
BLACK
6
CONTINUOUS
10
1.91574
20
-2.33602
11
1.91574
21
-2.33077
0
LINE
8
BLACK
6
CONTINUOUS
10
1.91574
20
-2.33077
11
1.91592
21
-2.32976
0
LINE
8
BLACK
6
CONTINUOUS
10
1.91592
20
-2.32976
11
1.91603
21
-2.32963
0
LINE
8
BLACK
6
CONTINUOUS
10
1.91603
20
-2.32963
11
1.91605
21
-2.32945
0
LINE
8
BLACK
6
CONTINUOUS
10
1.91605
20
-2.32945
11
1.91737
21
-2.32683
0
LINE
8
BLACK
6
CONTINUOUS
10
1.91737
20
-2.32683
11
1.91789
21
-2.32612
0
LINE
8
BLACK
6
CONTINUOUS
10
1.91789
20
-2.32612
11
1.91792
21
-2.32606
0
LINE
8
BLACK
6
CONTINUOUS
10
1.91792
20
-2.32606
11
1.91923
21
-2.32475
0
LINE
8
BLACK
6
CONTINUOUS
10
1.91923
20
-2.32475
11
1.91995
21
-2.32424
0
LINE
8
BLACK
6
CONTINUOUS
10
1.91995
20
-2.32424
11
1.92
21
-2.3242
0
LINE
8
BLACK
6
CONTINUOUS
10
1.92
20
-2.3242
11
1.92262
21
-2.32288
0
LINE
8
BLACK
6
CONTINUOUS
10
1.92262
20
-2.32288
11
1.92361
21
-2.32259
0
LINE
8
BLACK
6
CONTINUOUS
10
1.92361
20
-2.32259
11
1.92378
21
-2.32263
0
LINE
8
BLACK
6
CONTINUOUS
10
1.92378
20
-2.32263
11
1.92394
21
-2.32257
0
LINE
8
BLACK
6
CONTINUOUS
10
1.92394
20
-2.32257
11
1.92526
21
-2.32257
0
LINE
8
BLACK
6
CONTINUOUS
10
1.92526
20
-2.32257
11
1.92627
21
-2.32275
0
LINE
8
BLACK
6
CONTINUOUS
10
1.93488
20
-2.32926
11
1.93424
21
-2.3299
0
LINE
8
BLACK
6
CONTINUOUS
10
1.93424
20
-2.3299
11
1.93346
21
-2.33147
0
LINE
8
BLACK
6
CONTINUOUS
10
1.93346
20
-2.33147
11
1.93346
21
-2.33533
0
LINE
8
BLACK
6
CONTINUOUS
10
1.93346
20
-2.33533
11
1.93424
21
-2.3369
0
LINE
8
BLACK
6
CONTINUOUS
10
1.93424
20
-2.3369
11
1.93488
21
-2.33753
0
LINE
8
BLACK
6
CONTINUOUS
10
1.93488
20
-2.33753
11
1.93645
21
-2.33832
0
LINE
8
BLACK
6
CONTINUOUS
10
1.93645
20
-2.33832
11
1.94031
21
-2.33832
0
LINE
8
BLACK
6
CONTINUOUS
10
1.94031
20
-2.33832
11
1.94188
21
-2.33753
0
LINE
8
BLACK
6
CONTINUOUS
10
1.94188
20
-2.33753
11
1.94251
21
-2.3369
0
LINE
8
BLACK
6
CONTINUOUS
10
1.94251
20
-2.3369
11
1.9433
21
-2.33533
0
LINE
8
BLACK
6
CONTINUOUS
10
1.9433
20
-2.33533
11
1.9433
21
-2.33147
0
LINE
8
BLACK
6
CONTINUOUS
10
1.9433
20
-2.33147
11
1.94251
21
-2.3299
0
LINE
8
BLACK
6
CONTINUOUS
10
1.94251
20
-2.3299
11
1.94188
21
-2.32926
0
LINE
8
BLACK
6
CONTINUOUS
10
1.94188
20
-2.32926
11
1.94031
21
-2.32848
0
LINE
8
BLACK
6
CONTINUOUS
10
1.94031
20
-2.32848
11
1.93645
21
-2.32848
0
LINE
8
BLACK
6
CONTINUOUS
10
1.93645
20
-2.32848
11
1.93488
21
-2.32926
0
LINE
8
BLACK
6
CONTINUOUS
10
1.92307
20
-2.32926
11
1.92243
21
-2.3299
0
LINE
8
BLACK
6
CONTINUOUS
10
1.92243
20
-2.3299
11
1.92165
21
-2.33147
0
LINE
8
BLACK
6
CONTINUOUS
10
1.92165
20
-2.33147
11
1.92165
21
-2.33533
0
LINE
8
BLACK
6
CONTINUOUS
10
1.92165
20
-2.33533
11
1.92243
21
-2.3369
0
LINE
8
BLACK
6
CONTINUOUS
10
1.92243
20
-2.3369
11
1.92307
21
-2.33753
0
LINE
8
BLACK
6
CONTINUOUS
10
1.92307
20
-2.33753
11
1.9246
21
-2.3383
0
LINE
8
BLACK
6
CONTINUOUS
10
1.9246
20
-2.3383
11
1.92613
21
-2.33753
0
LINE
8
BLACK
6
CONTINUOUS
10
1.92613
20
-2.33753
11
1.92677
21
-2.3369
0
LINE
8
BLACK
6
CONTINUOUS
10
1.92677
20
-2.3369
11
1.92755
21
-2.33533
0
LINE
8
BLACK
6
CONTINUOUS
10
1.92755
20
-2.33533
11
1.92755
21
-2.33147
0
LINE
8
BLACK
6
CONTINUOUS
10
1.92755
20
-2.33147
11
1.92677
21
-2.3299
0
LINE
8
BLACK
6
CONTINUOUS
10
1.92677
20
-2.3299
11
1.92613
21
-2.32926
0
LINE
8
BLACK
6
CONTINUOUS
10
1.92613
20
-2.32926
11
1.9246
21
-2.3285
0
LINE
8
BLACK
6
CONTINUOUS
10
1.9246
20
-2.3285
11
1.92307
21
-2.32926
0
LINE
8
BLACK
6
CONTINUOUS
10
1.99719
20
-2.34306
11
1.99809
21
-2.34355
0
LINE
8
BLACK
6
CONTINUOUS
10
1.99809
20
-2.34355
11
1.99813
21
-2.34363
0
LINE
8
BLACK
6
CONTINUOUS
10
1.99813
20
-2.34363
11
1.99821
21
-2.34366
0
LINE
8
BLACK
6
CONTINUOUS
10
1.99821
20
-2.34366
11
1.99866
21
-2.34448
0
LINE
8
BLACK
6
CONTINUOUS
10
1.99866
20
-2.34448
11
1.99915
21
-2.34527
0
LINE
8
BLACK
6
CONTINUOUS
10
1.99915
20
-2.34527
11
1.99913
21
-2.34536
0
LINE
8
BLACK
6
CONTINUOUS
10
1.99913
20
-2.34536
11
1.99917
21
-2.34543
0
LINE
8
BLACK
6
CONTINUOUS
10
1.99917
20
-2.34543
11
1.99899
21
-2.34635
0
LINE
8
BLACK
6
CONTINUOUS
10
1.99899
20
-2.34635
11
1.99885
21
-2.34727
0
LINE
8
BLACK
6
CONTINUOUS
10
1.99885
20
-2.34727
11
1.99879
21
-2.34733
0
LINE
8
BLACK
6
CONTINUOUS
10
1.99879
20
-2.34733
11
1.99877
21
-2.34741
0
LINE
8
BLACK
6
CONTINUOUS
10
1.99877
20
-2.34741
11
1.99804
21
-2.34799
0
LINE
8
BLACK
6
CONTINUOUS
10
1.99804
20
-2.34799
11
1.99734
21
-2.34861
0
LINE
8
BLACK
6
CONTINUOUS
10
1.99734
20
-2.34861
11
1.99725
21
-2.34861
0
LINE
8
BLACK
6
CONTINUOUS
10
1.99725
20
-2.34861
11
1.99719
21
-2.34867
0
LINE
8
BLACK
6
CONTINUOUS
10
1.99719
20
-2.34867
11
1.96963
21
-2.35785
0
LINE
8
BLACK
6
CONTINUOUS
10
1.96963
20
-2.35785
11
1.96861
21
-2.358
0
LINE
8
BLACK
6
CONTINUOUS
10
1.96861
20
-2.358
11
1.96674
21
-2.35726
0
LINE
8
BLACK
6
CONTINUOUS
10
1.96674
20
-2.35726
11
1.96577
21
-2.35549
0
LINE
8
BLACK
6
CONTINUOUS
10
1.96577
20
-2.35549
11
1.96618
21
-2.35351
0
LINE
8
BLACK
6
CONTINUOUS
10
1.96618
20
-2.35351
11
1.96776
21
-2.35225
0
LINE
8
BLACK
6
CONTINUOUS
10
1.96776
20
-2.35225
11
1.98692
21
-2.34587
0
LINE
8
BLACK
6
CONTINUOUS
10
1.98692
20
-2.34587
11
1.96776
21
-2.33948
0
LINE
8
BLACK
6
CONTINUOUS
10
1.96776
20
-2.33948
11
1.96686
21
-2.33899
0
LINE
8
BLACK
6
CONTINUOUS
10
1.96686
20
-2.33899
11
1.9658
21
-2.33727
0
LINE
8
BLACK
6
CONTINUOUS
10
1.9658
20
-2.33727
11
1.9661
21
-2.33527
0
LINE
8
BLACK
6
CONTINUOUS
10
1.9661
20
-2.33527
11
1.96761
21
-2.33393
0
LINE
8
BLACK
6
CONTINUOUS
10
1.96761
20
-2.33393
11
1.96963
21
-2.33388
0
LINE
8
BLACK
6
CONTINUOUS
10
1.96963
20
-2.33388
11
1.99719
21
-2.34306
0
LINE
8
BLACK
6
CONTINUOUS
10
1.94688
20
-2.29513
11
1.94702
21
-2.29511
0
LINE
8
BLACK
6
CONTINUOUS
10
1.94702
20
-2.29511
11
1.94775
21
-2.29562
0
LINE
8
BLACK
6
CONTINUOUS
10
1.94775
20
-2.29562
11
1.94852
21
-2.29607
0
LINE
8
BLACK
6
CONTINUOUS
10
1.94852
20
-2.29607
11
1.94856
21
-2.29619
0
LINE
8
BLACK
6
CONTINUOUS
10
1.94856
20
-2.29619
11
1.94867
21
-2.29627
0
LINE
8
BLACK
6
CONTINUOUS
10
1.94867
20
-2.29627
11
1.9489
21
-2.29713
0
LINE
8
BLACK
6
CONTINUOUS
10
1.9489
20
-2.29713
11
1.94921
21
-2.29797
0
LINE
8
BLACK
6
CONTINUOUS
10
1.94921
20
-2.29797
11
1.94921
21
-2.31503
0
LINE
8
BLACK
6
CONTINUOUS
10
1.94921
20
-2.31503
11
1.94903
21
-2.31604
0
LINE
8
BLACK
6
CONTINUOUS
10
1.94903
20
-2.31604
11
1.94773
21
-2.31758
0
LINE
8
BLACK
6
CONTINUOUS
10
1.94773
20
-2.31758
11
1.94574
21
-2.31793
0
LINE
8
BLACK
6
CONTINUOUS
10
1.94574
20
-2.31793
11
1.94399
21
-2.31692
0
LINE
8
BLACK
6
CONTINUOUS
10
1.94399
20
-2.31692
11
1.9433
21
-2.31503
0
LINE
8
BLACK
6
CONTINUOUS
10
1.9433
20
-2.31503
11
1.9433
21
-2.30509
0
LINE
8
BLACK
6
CONTINUOUS
10
1.9433
20
-2.30509
11
1.93259
21
-2.3158
0
LINE
8
BLACK
6
CONTINUOUS
10
1.93259
20
-2.3158
11
1.93175
21
-2.31639
0
LINE
8
BLACK
6
CONTINUOUS
10
1.93175
20
-2.31639
11
1.93158
21
-2.31641
0
LINE
8
BLACK
6
CONTINUOUS
10
1.93158
20
-2.31641
11
1.93144
21
-2.31652
0
LINE
8
BLACK
6
CONTINUOUS
10
1.93144
20
-2.31652
11
1.9275
21
-2.31783
0
LINE
8
BLACK
6
CONTINUOUS
10
1.9275
20
-2.31783
11
1.92663
21
-2.31796
0
LINE
8
BLACK
6
CONTINUOUS
10
1.92663
20
-2.31796
11
1.92657
21
-2.31798
0
LINE
8
BLACK
6
CONTINUOUS
10
1.92657
20
-2.31798
11
1.92394
21
-2.31798
0
LINE
8
BLACK
6
CONTINUOUS
10
1.92394
20
-2.31798
11
1.92293
21
-2.3178
0
LINE
8
BLACK
6
CONTINUOUS
10
1.92293
20
-2.3178
11
1.9228
21
-2.31769
0
LINE
8
BLACK
6
CONTINUOUS
10
1.9228
20
-2.31769
11
1.92262
21
-2.31767
0
LINE
8
BLACK
6
CONTINUOUS
10
1.92262
20
-2.31767
11
1.92
21
-2.31635
0
LINE
8
BLACK
6
CONTINUOUS
10
1.92
20
-2.31635
11
1.91929
21
-2.31583
0
LINE
8
BLACK
6
CONTINUOUS
10
1.91929
20
-2.31583
11
1.91923
21
-2.3158
0
LINE
8
BLACK
6
CONTINUOUS
10
1.91923
20
-2.3158
11
1.91792
21
-2.31449
0
LINE
8
BLACK
6
CONTINUOUS
10
1.91792
20
-2.31449
11
1.91741
21
-2.31377
0
LINE
8
BLACK
6
CONTINUOUS
10
1.91741
20
-2.31377
11
1.91737
21
-2.31372
0
LINE
8
BLACK
6
CONTINUOUS
10
1.91737
20
-2.31372
11
1.91605
21
-2.3111
0
LINE
8
BLACK
6
CONTINUOUS
10
1.91605
20
-2.3111
11
1.91576
21
-2.31011
0
LINE
8
BLACK
6
CONTINUOUS
10
1.91576
20
-2.31011
11
1.9158
21
-2.30994
0
LINE
8
BLACK
6
CONTINUOUS
10
1.9158
20
-2.30994
11
1.91574
21
-2.30978
0
LINE
8
BLACK
6
CONTINUOUS
10
1.91574
20
-2.30978
11
1.91574
21
-2.30322
0
LINE
8
BLACK
6
CONTINUOUS
10
1.91574
20
-2.30322
11
1.91592
21
-2.30221
0
LINE
8
BLACK
6
CONTINUOUS
10
1.91592
20
-2.30221
11
1.91603
21
-2.30207
0
LINE
8
BLACK
6
CONTINUOUS
10
1.91603
20
-2.30207
11
1.91605
21
-2.30189
0
LINE
8
BLACK
6
CONTINUOUS
10
1.91605
20
-2.30189
11
1.91737
21
-2.29927
0
LINE
8
BLACK
6
CONTINUOUS
10
1.91737
20
-2.29927
11
1.91789
21
-2.29856
0
LINE
8
BLACK
6
CONTINUOUS
10
1.91789
20
-2.29856
11
1.91792
21
-2.2985
0
LINE
8
BLACK
6
CONTINUOUS
10
1.91792
20
-2.2985
11
1.91923
21
-2.29719
0
LINE
8
BLACK
6
CONTINUOUS
10
1.91923
20
-2.29719
11
1.92007
21
-2.2966
0
LINE
8
BLACK
6
CONTINUOUS
10
1.92007
20
-2.2966
11
1.92208
21
-2.29643
0
LINE
8
BLACK
6
CONTINUOUS
10
1.92208
20
-2.29643
11
1.92374
21
-2.29758
0
LINE
8
BLACK
6
CONTINUOUS
10
1.92374
20
-2.29758
11
1.92426
21
-2.29954
0
LINE
8
BLACK
6
CONTINUOUS
10
1.92426
20
-2.29954
11
1.92341
21
-2.30137
0
LINE
8
BLACK
6
CONTINUOUS
10
1.92341
20
-2.30137
11
1.92243
21
-2.30234
0
LINE
8
BLACK
6
CONTINUOUS
10
1.92243
20
-2.30234
11
1.92165
21
-2.30391
0
LINE
8
BLACK
6
CONTINUOUS
10
1.92165
20
-2.30391
11
1.92165
21
-2.30908
0
LINE
8
BLACK
6
CONTINUOUS
10
1.92165
20
-2.30908
11
1.92243
21
-2.31065
0
LINE
8
BLACK
6
CONTINUOUS
10
1.92243
20
-2.31065
11
1.92307
21
-2.31129
0
LINE
8
BLACK
6
CONTINUOUS
10
1.92307
20
-2.31129
11
1.92464
21
-2.31207
0
LINE
8
BLACK
6
CONTINUOUS
10
1.92464
20
-2.31207
11
1.92609
21
-2.31207
0
LINE
8
BLACK
6
CONTINUOUS
10
1.92609
20
-2.31207
11
1.92891
21
-2.31113
0
LINE
8
BLACK
6
CONTINUOUS
10
1.92891
20
-2.31113
11
1.94417
21
-2.29588
0
LINE
8
BLACK
6
CONTINUOUS
10
1.94417
20
-2.29588
11
1.94469
21
-2.29551
0
LINE
8
BLACK
6
CONTINUOUS
10
1.94469
20
-2.29551
11
1.94478
21
-2.29541
0
LINE
8
BLACK
6
CONTINUOUS
10
1.94478
20
-2.29541
11
1.94486
21
-2.29539
0
LINE
8
BLACK
6
CONTINUOUS
10
1.94486
20
-2.29539
11
1.94501
21
-2.29529
0
LINE
8
BLACK
6
CONTINUOUS
10
1.94501
20
-2.29529
11
1.94589
21
-2.29521
0
LINE
8
BLACK
6
CONTINUOUS
10
1.94589
20
-2.29521
11
1.94677
21
-2.29506
0
LINE
8
BLACK
6
CONTINUOUS
10
1.94677
20
-2.29506
11
1.94688
21
-2.29513
0
LINE
8
BLACK
6
CONTINUOUS
10
1.98736
20
-2.31019
11
1.98758
21
-2.31015
0
LINE
8
BLACK
6
CONTINUOUS
10
1.98758
20
-2.31015
11
1.98828
21
-2.31055
0
LINE
8
BLACK
6
CONTINUOUS
10
1.98828
20
-2.31055
11
1.98903
21
-2.31085
0
LINE
8
BLACK
6
CONTINUOUS
10
1.98903
20
-2.31085
11
1.98913
21
-2.31105
0
LINE
8
BLACK
6
CONTINUOUS
10
1.98913
20
-2.31105
11
1.98933
21
-2.31116
0
LINE
8
BLACK
6
CONTINUOUS
10
1.98933
20
-2.31116
11
1.9896
21
-2.31192
0
LINE
8
BLACK
6
CONTINUOUS
10
1.9896
20
-2.31192
11
1.98999
21
-2.31262
0
LINE
8
BLACK
6
CONTINUOUS
10
1.98999
20
-2.31262
11
1.98994
21
-2.31285
0
LINE
8
BLACK
6
CONTINUOUS
10
1.98994
20
-2.31285
11
1.99002
21
-2.31306
0
LINE
8
BLACK
6
CONTINUOUS
10
1.99002
20
-2.31306
11
1.99002
21
-2.32323
0
LINE
8
BLACK
6
CONTINUOUS
10
1.99002
20
-2.32323
11
1.99625
21
-2.32323
0
LINE
8
BLACK
6
CONTINUOUS
10
1.99625
20
-2.32323
11
1.99726
21
-2.32341
0
LINE
8
BLACK
6
CONTINUOUS
10
1.99726
20
-2.32341
11
1.99881
21
-2.3247
0
LINE
8
BLACK
6
CONTINUOUS
10
1.99881
20
-2.3247
11
1.99916
21
-2.32669
0
LINE
8
BLACK
6
CONTINUOUS
10
1.99916
20
-2.32669
11
1.99815
21
-2.32844
0
LINE
8
BLACK
6
CONTINUOUS
10
1.99815
20
-2.32844
11
1.99625
21
-2.32913
0
LINE
8
BLACK
6
CONTINUOUS
10
1.99625
20
-2.32913
11
1.99002
21
-2.32913
0
LINE
8
BLACK
6
CONTINUOUS
10
1.99002
20
-2.32913
11
1.99002
21
-2.33012
0
LINE
8
BLACK
6
CONTINUOUS
10
1.99002
20
-2.33012
11
1.98984
21
-2.33113
0
LINE
8
BLACK
6
CONTINUOUS
10
1.98984
20
-2.33113
11
1.98854
21
-2.33268
0
LINE
8
BLACK
6
CONTINUOUS
10
1.98854
20
-2.33268
11
1.98655
21
-2.33303
0
LINE
8
BLACK
6
CONTINUOUS
10
1.98655
20
-2.33303
11
1.9848
21
-2.33202
0
LINE
8
BLACK
6
CONTINUOUS
10
1.9848
20
-2.33202
11
1.98411
21
-2.33012
0
LINE
8
BLACK
6
CONTINUOUS
10
1.98411
20
-2.33012
11
1.98411
21
-2.32913
0
LINE
8
BLACK
6
CONTINUOUS
10
1.98411
20
-2.32913
11
1.97788
21
-2.32913
0
LINE
8
BLACK
6
CONTINUOUS
10
1.97788
20
-2.32913
11
1.97687
21
-2.32896
0
LINE
8
BLACK
6
CONTINUOUS
10
1.97687
20
-2.32896
11
1.97532
21
-2.32766
0
LINE
8
BLACK
6
CONTINUOUS
10
1.97532
20
-2.32766
11
1.97497
21
-2.32567
0
LINE
8
BLACK
6
CONTINUOUS
10
1.97497
20
-2.32567
11
1.97598
21
-2.32392
0
LINE
8
BLACK
6
CONTINUOUS
10
1.97598
20
-2.32392
11
1.97788
21
-2.32323
0
LINE
8
BLACK
6
CONTINUOUS
10
1.97788
20
-2.32323
11
1.98411
21
-2.32323
0
LINE
8
BLACK
6
CONTINUOUS
10
1.98411
20
-2.32323
11
1.98411
21
-2.31715
0
LINE
8
BLACK
6
CONTINUOUS
10
1.98411
20
-2.31715
11
1.96832
21
-2.32242
0
LINE
8
BLACK
6
CONTINUOUS
10
1.96832
20
-2.32242
11
1.9673
21
-2.32257
0
LINE
8
BLACK
6
CONTINUOUS
10
1.9673
20
-2.32257
11
1.96542
21
-2.32183
0
LINE
8
BLACK
6
CONTINUOUS
10
1.96542
20
-2.32183
11
1.96446
21
-2.32005
0
LINE
8
BLACK
6
CONTINUOUS
10
1.96446
20
-2.32005
11
1.96487
21
-2.31807
0
LINE
8
BLACK
6
CONTINUOUS
10
1.96487
20
-2.31807
11
1.96645
21
-2.31682
0
LINE
8
BLACK
6
CONTINUOUS
10
1.96645
20
-2.31682
11
1.98613
21
-2.31026
0
LINE
8
BLACK
6
CONTINUOUS
10
1.98613
20
-2.31026
11
1.98715
21
-2.31011
0
LINE
8
BLACK
6
CONTINUOUS
10
1.98715
20
-2.31011
11
1.98736
21
-2.31019
0
LINE
8
BLACK
6
CONTINUOUS
10
1.89572
20
-2.29719
11
1.89703
21
-2.2985
0
LINE
8
BLACK
6
CONTINUOUS
10
1.89703
20
-2.2985
11
1.89754
21
-2.29923
0
LINE
8
BLACK
6
CONTINUOUS
10
1.89754
20
-2.29923
11
1.89758
21
-2.29927
0
LINE
8
BLACK
6
CONTINUOUS
10
1.89758
20
-2.29927
11
1.89889
21
-2.30189
0
LINE
8
BLACK
6
CONTINUOUS
10
1.89889
20
-2.30189
11
1.89919
21
-2.30288
0
LINE
8
BLACK
6
CONTINUOUS
10
1.89919
20
-2.30288
11
1.89915
21
-2.30305
0
LINE
8
BLACK
6
CONTINUOUS
10
1.89915
20
-2.30305
11
1.89921
21
-2.30322
0
LINE
8
BLACK
6
CONTINUOUS
10
1.89921
20
-2.30322
11
1.89921
21
-2.30978
0
LINE
8
BLACK
6
CONTINUOUS
10
1.89921
20
-2.30978
11
1.89903
21
-2.31079
0
LINE
8
BLACK
6
CONTINUOUS
10
1.89903
20
-2.31079
11
1.89891
21
-2.31092
0
LINE
8
BLACK
6
CONTINUOUS
10
1.89891
20
-2.31092
11
1.89889
21
-2.3111
0
LINE
8
BLACK
6
CONTINUOUS
10
1.89889
20
-2.3111
11
1.89758
21
-2.31372
0
LINE
8
BLACK
6
CONTINUOUS
10
1.89758
20
-2.31372
11
1.89706
21
-2.31443
0
LINE
8
BLACK
6
CONTINUOUS
10
1.89706
20
-2.31443
11
1.89703
21
-2.31449
0
LINE
8
BLACK
6
CONTINUOUS
10
1.89703
20
-2.31449
11
1.89572
21
-2.3158
0
LINE
8
BLACK
6
CONTINUOUS
10
1.89572
20
-2.3158
11
1.89499
21
-2.31631
0
LINE
8
BLACK
6
CONTINUOUS
10
1.89499
20
-2.31631
11
1.89495
21
-2.31635
0
LINE
8
BLACK
6
CONTINUOUS
10
1.89495
20
-2.31635
11
1.89232
21
-2.31767
0
LINE
8
BLACK
6
CONTINUOUS
10
1.89232
20
-2.31767
11
1.89134
21
-2.31796
0
LINE
8
BLACK
6
CONTINUOUS
10
1.89134
20
-2.31796
11
1.89117
21
-2.31792
0
LINE
8
BLACK
6
CONTINUOUS
10
1.89117
20
-2.31792
11
1.891
21
-2.31798
0
LINE
8
BLACK
6
CONTINUOUS
10
1.891
20
-2.31798
11
1.88444
21
-2.31798
0
LINE
8
BLACK
6
CONTINUOUS
10
1.88444
20
-2.31798
11
1.88343
21
-2.3178
0
LINE
8
BLACK
6
CONTINUOUS
10
1.88343
20
-2.3178
11
1.8833
21
-2.31769
0
LINE
8
BLACK
6
CONTINUOUS
10
1.8833
20
-2.31769
11
1.88312
21
-2.31767
0
LINE
8
BLACK
6
CONTINUOUS
10
1.88312
20
-2.31767
11
1.8805
21
-2.31635
0
LINE
8
BLACK
6
CONTINUOUS
10
1.8805
20
-2.31635
11
1.87979
21
-2.31583
0
LINE
8
BLACK
6
CONTINUOUS
10
1.87979
20
-2.31583
11
1.87973
21
-2.3158
0
LINE
8
BLACK
6
CONTINUOUS
10
1.87973
20
-2.3158
11
1.87842
21
-2.31449
0
LINE
8
BLACK
6
CONTINUOUS
10
1.87842
20
-2.31449
11
1.87791
21
-2.31377
0
LINE
8
BLACK
6
CONTINUOUS
10
1.87791
20
-2.31377
11
1.87786
21
-2.31372
0
LINE
8
BLACK
6
CONTINUOUS
10
1.87786
20
-2.31372
11
1.87655
21
-2.3111
0
LINE
8
BLACK
6
CONTINUOUS
10
1.87655
20
-2.3111
11
1.87626
21
-2.31011
0
LINE
8
BLACK
6
CONTINUOUS
10
1.87626
20
-2.31011
11
1.8763
21
-2.30994
0
LINE
8
BLACK
6
CONTINUOUS
10
1.8763
20
-2.30994
11
1.87624
21
-2.30978
0
LINE
8
BLACK
6
CONTINUOUS
10
1.87624
20
-2.30978
11
1.87624
21
-2.30322
0
LINE
8
BLACK
6
CONTINUOUS
10
1.87624
20
-2.30322
11
1.87631
21
-2.3028
0
LINE
8
BLACK
6
CONTINUOUS
10
1.87631
20
-2.3028
11
1.87165
21
-2.30326
0
LINE
8
BLACK
6
CONTINUOUS
10
1.87165
20
-2.30326
11
1.87165
21
-2.31371
0
LINE
8
BLACK
6
CONTINUOUS
10
1.87165
20
-2.31371
11
1.87147
21
-2.31472
0
LINE
8
BLACK
6
CONTINUOUS
10
1.87147
20
-2.31472
11
1.87017
21
-2.31627
0
LINE
8
BLACK
6
CONTINUOUS
10
1.87017
20
-2.31627
11
1.86818
21
-2.31662
0
LINE
8
BLACK
6
CONTINUOUS
10
1.86818
20
-2.31662
11
1.86643
21
-2.31561
0
LINE
8
BLACK
6
CONTINUOUS
10
1.86643
20
-2.31561
11
1.86574
21
-2.31371
0
LINE
8
BLACK
6
CONTINUOUS
10
1.86574
20
-2.31371
11
1.86574
21
-2.30059
0
LINE
8
BLACK
6
CONTINUOUS
10
1.86574
20
-2.30059
11
1.86577
21
-2.30044
0
LINE
8
BLACK
6
CONTINUOUS
10
1.86577
20
-2.30044
11
1.86575
21
-2.30037
0
LINE
8
BLACK
6
CONTINUOUS
10
1.86575
20
-2.30037
11
1.8658
21
-2.30026
0
LINE
8
BLACK
6
CONTINUOUS
10
1.8658
20
-2.30026
11
1.86592
21
-2.29958
0
LINE
8
BLACK
6
CONTINUOUS
10
1.86592
20
-2.29958
11
1.86632
21
-2.2991
0
LINE
8
BLACK
6
CONTINUOUS
10
1.86632
20
-2.2991
11
1.86658
21
-2.29853
0
LINE
8
BLACK
6
CONTINUOUS
10
1.86658
20
-2.29853
11
1.86695
21
-2.29835
0
LINE
8
BLACK
6
CONTINUOUS
10
1.86695
20
-2.29835
11
1.86722
21
-2.29803
0
LINE
8
BLACK
6
CONTINUOUS
10
1.86722
20
-2.29803
11
1.86784
21
-2.29792
0
LINE
8
BLACK
6
CONTINUOUS
10
1.86784
20
-2.29792
11
1.8684
21
-2.29765
0
LINE
8
BLACK
6
CONTINUOUS
10
1.8684
20
-2.29765
11
1.88152
21
-2.29634
0
LINE
8
BLACK
6
CONTINUOUS
10
1.88152
20
-2.29634
11
1.88255
21
-2.29642
0
LINE
8
BLACK
6
CONTINUOUS
10
1.88255
20
-2.29642
11
1.88256
21
-2.29643
0
LINE
8
BLACK
6
CONTINUOUS
10
1.88256
20
-2.29643
11
1.88258
21
-2.29643
0
LINE
8
BLACK
6
CONTINUOUS
10
1.88258
20
-2.29643
11
1.8834
21
-2.297
0
LINE
8
BLACK
6
CONTINUOUS
10
1.8834
20
-2.297
11
1.88422
21
-2.29755
0
LINE
8
BLACK
6
CONTINUOUS
10
1.88422
20
-2.29755
11
1.88422
21
-2.29757
0
LINE
8
BLACK
6
CONTINUOUS
10
1.88422
20
-2.29757
11
1.88424
21
-2.29758
0
LINE
8
BLACK
6
CONTINUOUS
10
1.88424
20
-2.29758
11
1.88449
21
-2.29854
0
LINE
8
BLACK
6
CONTINUOUS
10
1.88449
20
-2.29854
11
1.88476
21
-2.2995
0
LINE
8
BLACK
6
CONTINUOUS
10
1.88476
20
-2.2995
11
1.88475
21
-2.29952
0
LINE
8
BLACK
6
CONTINUOUS
10
1.88475
20
-2.29952
11
1.88476
21
-2.29954
0
LINE
8
BLACK
6
CONTINUOUS
10
1.88476
20
-2.29954
11
1.88434
21
-2.30043
0
LINE
8
BLACK
6
CONTINUOUS
10
1.88434
20
-2.30043
11
1.88393
21
-2.30134
0
LINE
8
BLACK
6
CONTINUOUS
10
1.88393
20
-2.30134
11
1.88391
21
-2.30135
0
LINE
8
BLACK
6
CONTINUOUS
10
1.88391
20
-2.30135
11
1.88391
21
-2.30137
0
LINE
8
BLACK
6
CONTINUOUS
10
1.88391
20
-2.30137
11
1.88293
21
-2.30234
0
LINE
8
BLACK
6
CONTINUOUS
10
1.88293
20
-2.30234
11
1.88215
21
-2.30391
0
LINE
8
BLACK
6
CONTINUOUS
10
1.88215
20
-2.30391
11
1.88215
21
-2.30908
0
LINE
8
BLACK
6
CONTINUOUS
10
1.88215
20
-2.30908
11
1.88293
21
-2.31065
0
LINE
8
BLACK
6
CONTINUOUS
10
1.88293
20
-2.31065
11
1.88357
21
-2.31129
0
LINE
8
BLACK
6
CONTINUOUS
10
1.88357
20
-2.31129
11
1.88514
21
-2.31207
0
LINE
8
BLACK
6
CONTINUOUS
10
1.88514
20
-2.31207
11
1.89031
21
-2.31207
0
LINE
8
BLACK
6
CONTINUOUS
10
1.89031
20
-2.31207
11
1.89188
21
-2.31129
0
LINE
8
BLACK
6
CONTINUOUS
10
1.89188
20
-2.31129
11
1.89251
21
-2.31065
0
LINE
8
BLACK
6
CONTINUOUS
10
1.89251
20
-2.31065
11
1.8933
21
-2.30908
0
LINE
8
BLACK
6
CONTINUOUS
10
1.8933
20
-2.30908
11
1.8933
21
-2.30391
0
LINE
8
BLACK
6
CONTINUOUS
10
1.8933
20
-2.30391
11
1.89251
21
-2.30234
0
LINE
8
BLACK
6
CONTINUOUS
10
1.89251
20
-2.30234
11
1.89154
21
-2.30137
0
LINE
8
BLACK
6
CONTINUOUS
10
1.89154
20
-2.30137
11
1.89095
21
-2.30053
0
LINE
8
BLACK
6
CONTINUOUS
10
1.89095
20
-2.30053
11
1.89078
21
-2.29851
0
LINE
8
BLACK
6
CONTINUOUS
10
1.89078
20
-2.29851
11
1.89193
21
-2.29686
0
LINE
8
BLACK
6
CONTINUOUS
10
1.89193
20
-2.29686
11
1.89389
21
-2.29634
0
LINE
8
BLACK
6
CONTINUOUS
10
1.89389
20
-2.29634
11
1.89572
21
-2.29719
0
LINE
8
BLACK
6
CONTINUOUS
10
1.89688
20
-2.26888
11
1.89702
21
-2.26887
0
LINE
8
BLACK
6
CONTINUOUS
10
1.89702
20
-2.26887
11
1.89775
21
-2.26938
0
LINE
8
BLACK
6
CONTINUOUS
10
1.89775
20
-2.26938
11
1.89852
21
-2.26982
0
LINE
8
BLACK
6
CONTINUOUS
10
1.89852
20
-2.26982
11
1.89856
21
-2.26995
0
LINE
8
BLACK
6
CONTINUOUS
10
1.89856
20
-2.26995
11
1.89867
21
-2.27003
0
LINE
8
BLACK
6
CONTINUOUS
10
1.89867
20
-2.27003
11
1.8989
21
-2.27088
0
LINE
8
BLACK
6
CONTINUOUS
10
1.8989
20
-2.27088
11
1.89921
21
-2.27172
0
LINE
8
BLACK
6
CONTINUOUS
10
1.89921
20
-2.27172
11
1.89921
21
-2.28878
0
LINE
8
BLACK
6
CONTINUOUS
10
1.89921
20
-2.28878
11
1.89903
21
-2.28979
0
LINE
8
BLACK
6
CONTINUOUS
10
1.89903
20
-2.28979
11
1.89773
21
-2.29134
0
LINE
8
BLACK
6
CONTINUOUS
10
1.89773
20
-2.29134
11
1.89574
21
-2.29169
0
LINE
8
BLACK
6
CONTINUOUS
10
1.89574
20
-2.29169
11
1.89399
21
-2.29068
0
LINE
8
BLACK
6
CONTINUOUS
10
1.89399
20
-2.29068
11
1.8933
21
-2.28878
0
LINE
8
BLACK
6
CONTINUOUS
10
1.8933
20
-2.28878
11
1.8933
21
-2.27885
0
LINE
8
BLACK
6
CONTINUOUS
10
1.8933
20
-2.27885
11
1.88259
21
-2.28956
0
LINE
8
BLACK
6
CONTINUOUS
10
1.88259
20
-2.28956
11
1.88175
21
-2.29014
0
LINE
8
BLACK
6
CONTINUOUS
10
1.88175
20
-2.29014
11
1.88158
21
-2.29016
0
LINE
8
BLACK
6
CONTINUOUS
10
1.88158
20
-2.29016
11
1.88144
21
-2.29027
0
LINE
8
BLACK
6
CONTINUOUS
10
1.88144
20
-2.29027
11
1.8775
21
-2.29158
0
LINE
8
BLACK
6
CONTINUOUS
10
1.8775
20
-2.29158
11
1.87663
21
-2.29171
0
LINE
8
BLACK
6
CONTINUOUS
10
1.87663
20
-2.29171
11
1.87657
21
-2.29173
0
LINE
8
BLACK
6
CONTINUOUS
10
1.87657
20
-2.29173
11
1.87394
21
-2.29173
0
LINE
8
BLACK
6
CONTINUOUS
10
1.87394
20
-2.29173
11
1.87293
21
-2.29155
0
LINE
8
BLACK
6
CONTINUOUS
10
1.87293
20
-2.29155
11
1.8728
21
-2.29144
0
LINE
8
BLACK
6
CONTINUOUS
10
1.8728
20
-2.29144
11
1.87262
21
-2.29142
0
LINE
8
BLACK
6
CONTINUOUS
10
1.87262
20
-2.29142
11
1.87
21
-2.29011
0
LINE
8
BLACK
6
CONTINUOUS
10
1.87
20
-2.29011
11
1.86929
21
-2.28958
0
LINE
8
BLACK
6
CONTINUOUS
10
1.86929
20
-2.28958
11
1.86923
21
-2.28956
0
LINE
8
BLACK
6
CONTINUOUS
10
1.86923
20
-2.28956
11
1.86792
21
-2.28824
0
LINE
8
BLACK
6
CONTINUOUS
10
1.86792
20
-2.28824
11
1.86741
21
-2.28752
0
LINE
8
BLACK
6
CONTINUOUS
10
1.86741
20
-2.28752
11
1.86737
21
-2.28748
0
LINE
8
BLACK
6
CONTINUOUS
10
1.86737
20
-2.28748
11
1.86605
21
-2.28485
0
LINE
8
BLACK
6
CONTINUOUS
10
1.86605
20
-2.28485
11
1.86576
21
-2.28387
0
LINE
8
BLACK
6
CONTINUOUS
10
1.86576
20
-2.28387
11
1.8658
21
-2.2837
0
LINE
8
BLACK
6
CONTINUOUS
10
1.8658
20
-2.2837
11
1.86574
21
-2.28353
0
LINE
8
BLACK
6
CONTINUOUS
10
1.86574
20
-2.28353
11
1.86574
21
-2.27697
0
LINE
8
BLACK
6
CONTINUOUS
10
1.86574
20
-2.27697
11
1.86592
21
-2.27596
0
LINE
8
BLACK
6
CONTINUOUS
10
1.86592
20
-2.27596
11
1.86603
21
-2.27582
0
LINE
8
BLACK
6
CONTINUOUS
10
1.86603
20
-2.27582
11
1.86605
21
-2.27565
0
LINE
8
BLACK
6
CONTINUOUS
10
1.86605
20
-2.27565
11
1.86737
21
-2.27302
0
LINE
8
BLACK
6
CONTINUOUS
10
1.86737
20
-2.27302
11
1.86789
21
-2.27231
0
LINE
8
BLACK
6
CONTINUOUS
10
1.86789
20
-2.27231
11
1.86792
21
-2.27226
0
LINE
8
BLACK
6
CONTINUOUS
10
1.86792
20
-2.27226
11
1.86923
21
-2.27094
0
LINE
8
BLACK
6
CONTINUOUS
10
1.86923
20
-2.27094
11
1.87007
21
-2.27036
0
LINE
8
BLACK
6
CONTINUOUS
10
1.87007
20
-2.27036
11
1.87208
21
-2.27018
0
LINE
8
BLACK
6
CONTINUOUS
10
1.87208
20
-2.27018
11
1.87374
21
-2.27134
0
LINE
8
BLACK
6
CONTINUOUS
10
1.87374
20
-2.27134
11
1.87426
21
-2.27329
0
LINE
8
BLACK
6
CONTINUOUS
10
1.87426
20
-2.27329
11
1.87341
21
-2.27512
0
LINE
8
BLACK
6
CONTINUOUS
10
1.87341
20
-2.27512
11
1.87243
21
-2.27609
0
LINE
8
BLACK
6
CONTINUOUS
10
1.87243
20
-2.27609
11
1.87165
21
-2.27767
0
LINE
8
BLACK
6
CONTINUOUS
10
1.87165
20
-2.27767
11
1.87165
21
-2.28283
0
LINE
8
BLACK
6
CONTINUOUS
10
1.87165
20
-2.28283
11
1.87243
21
-2.28441
0
LINE
8
BLACK
6
CONTINUOUS
10
1.87243
20
-2.28441
11
1.87307
21
-2.28504
0
LINE
8
BLACK
6
CONTINUOUS
10
1.87307
20
-2.28504
11
1.87464
21
-2.28583
0
LINE
8
BLACK
6
CONTINUOUS
10
1.87464
20
-2.28583
11
1.87609
21
-2.28583
0
LINE
8
BLACK
6
CONTINUOUS
10
1.87609
20
-2.28583
11
1.87891
21
-2.28489
0
LINE
8
BLACK
6
CONTINUOUS
10
1.87891
20
-2.28489
11
1.89417
21
-2.26963
0
LINE
8
BLACK
6
CONTINUOUS
10
1.89417
20
-2.26963
11
1.89469
21
-2.26926
0
LINE
8
BLACK
6
CONTINUOUS
10
1.89469
20
-2.26926
11
1.89478
21
-2.26916
0
LINE
8
BLACK
6
CONTINUOUS
10
1.89478
20
-2.26916
11
1.89486
21
-2.26915
0
LINE
8
BLACK
6
CONTINUOUS
10
1.89486
20
-2.26915
11
1.89501
21
-2.26904
0
LINE
8
BLACK
6
CONTINUOUS
10
1.89501
20
-2.26904
11
1.89589
21
-2.26897
0
LINE
8
BLACK
6
CONTINUOUS
10
1.89589
20
-2.26897
11
1.89677
21
-2.26881
0
LINE
8
BLACK
6
CONTINUOUS
10
1.89677
20
-2.26881
11
1.89688
21
-2.26888
0
LINE
8
BLACK
6
CONTINUOUS
10
1.92833
20
-2.27066
11
1.92944
21
-2.27235
0
LINE
8
BLACK
6
CONTINUOUS
10
1.92944
20
-2.27235
11
1.92921
21
-2.27435
0
LINE
8
BLACK
6
CONTINUOUS
10
1.92921
20
-2.27435
11
1.9279
21
-2.27698
0
LINE
8
BLACK
6
CONTINUOUS
10
1.9279
20
-2.27698
11
1.92737
21
-2.27769
0
LINE
8
BLACK
6
CONTINUOUS
10
1.92737
20
-2.27769
11
1.92734
21
-2.27774
0
LINE
8
BLACK
6
CONTINUOUS
10
1.92734
20
-2.27774
11
1.92714
21
-2.27795
0
LINE
8
BLACK
6
CONTINUOUS
10
1.92714
20
-2.27795
11
1.9433
21
-2.27795
0
LINE
8
BLACK
6
CONTINUOUS
10
1.9433
20
-2.27795
11
1.9433
21
-2.27303
0
LINE
8
BLACK
6
CONTINUOUS
10
1.9433
20
-2.27303
11
1.94348
21
-2.27202
0
LINE
8
BLACK
6
CONTINUOUS
10
1.94348
20
-2.27202
11
1.94478
21
-2.27047
0
LINE
8
BLACK
6
CONTINUOUS
10
1.94478
20
-2.27047
11
1.94677
21
-2.27012
0
LINE
8
BLACK
6
CONTINUOUS
10
1.94677
20
-2.27012
11
1.94852
21
-2.27113
0
LINE
8
BLACK
6
CONTINUOUS
10
1.94852
20
-2.27113
11
1.94921
21
-2.27303
0
LINE
8
BLACK
6
CONTINUOUS
10
1.94921
20
-2.27303
11
1.94921
21
-2.28878
0
LINE
8
BLACK
6
CONTINUOUS
10
1.94921
20
-2.28878
11
1.94903
21
-2.28979
0
LINE
8
BLACK
6
CONTINUOUS
10
1.94903
20
-2.28979
11
1.94773
21
-2.29134
0
LINE
8
BLACK
6
CONTINUOUS
10
1.94773
20
-2.29134
11
1.94574
21
-2.29169
0
LINE
8
BLACK
6
CONTINUOUS
10
1.94574
20
-2.29169
11
1.94399
21
-2.29068
0
LINE
8
BLACK
6
CONTINUOUS
10
1.94399
20
-2.29068
11
1.9433
21
-2.28878
0
LINE
8
BLACK
6
CONTINUOUS
10
1.9433
20
-2.28878
11
1.9433
21
-2.28386
0
LINE
8
BLACK
6
CONTINUOUS
10
1.9433
20
-2.28386
11
1.91869
21
-2.28386
0
LINE
8
BLACK
6
CONTINUOUS
10
1.91869
20
-2.28386
11
1.91768
21
-2.28368
0
LINE
8
BLACK
6
CONTINUOUS
10
1.91768
20
-2.28368
11
1.91755
21
-2.28357
0
LINE
8
BLACK
6
CONTINUOUS
10
1.91755
20
-2.28357
11
1.91739
21
-2.28355
0
LINE
8
BLACK
6
CONTINUOUS
10
1.91739
20
-2.28355
11
1.91679
21
-2.28293
0
LINE
8
BLACK
6
CONTINUOUS
10
1.91679
20
-2.28293
11
1.91614
21
-2.28238
0
LINE
8
BLACK
6
CONTINUOUS
10
1.91614
20
-2.28238
11
1.91611
21
-2.28221
0
LINE
8
BLACK
6
CONTINUOUS
10
1.91611
20
-2.28221
11
1.91599
21
-2.28209
0
LINE
8
BLACK
6
CONTINUOUS
10
1.91599
20
-2.28209
11
1.91594
21
-2.28124
0
LINE
8
BLACK
6
CONTINUOUS
10
1.91594
20
-2.28124
11
1.91579
21
-2.28039
0
LINE
8
BLACK
6
CONTINUOUS
10
1.91579
20
-2.28039
11
1.91587
21
-2.28025
0
LINE
8
BLACK
6
CONTINUOUS
10
1.91587
20
-2.28025
11
1.91586
21
-2.28008
0
LINE
8
BLACK
6
CONTINUOUS
10
1.91586
20
-2.28008
11
1.91637
21
-2.27939
0
LINE
8
BLACK
6
CONTINUOUS
10
1.91637
20
-2.27939
11
1.9168
21
-2.27864
0
LINE
8
BLACK
6
CONTINUOUS
10
1.9168
20
-2.27864
11
1.91696
21
-2.27859
0
LINE
8
BLACK
6
CONTINUOUS
10
1.91696
20
-2.27859
11
1.91706
21
-2.27845
0
LINE
8
BLACK
6
CONTINUOUS
10
1.91706
20
-2.27845
11
1.92075
21
-2.27599
0
LINE
8
BLACK
6
CONTINUOUS
10
1.92075
20
-2.27599
11
1.92283
21
-2.27391
0
LINE
8
BLACK
6
CONTINUOUS
10
1.92283
20
-2.27391
11
1.92393
21
-2.27171
0
LINE
8
BLACK
6
CONTINUOUS
10
1.92393
20
-2.27171
11
1.92454
21
-2.27089
0
LINE
8
BLACK
6
CONTINUOUS
10
1.92454
20
-2.27089
11
1.92639
21
-2.27008
0
LINE
8
BLACK
6
CONTINUOUS
10
1.92639
20
-2.27008
11
1.92833
21
-2.27066
0
LINE
8
BLACK
6
CONTINUOUS
10
2.06903
20
-2.28325
11
2.0696
21
-2.28336
0
LINE
8
BLACK
6
CONTINUOUS
10
2.0696
20
-2.28336
11
2.06971
21
-2.28353
0
LINE
8
BLACK
6
CONTINUOUS
10
2.06971
20
-2.28353
11
2.0699
21
-2.28361
0
LINE
8
BLACK
6
CONTINUOUS
10
2.0699
20
-2.28361
11
2.0799
21
-2.29361
0
LINE
8
BLACK
6
CONTINUOUS
10
2.0799
20
-2.29361
11
2.08012
21
-2.29414
0
LINE
8
BLACK
6
CONTINUOUS
10
2.08012
20
-2.29414
11
2.08043
21
-2.29461
0
LINE
8
BLACK
6
CONTINUOUS
10
2.08043
20
-2.29461
11
2.08039
21
-2.29481
0
LINE
8
BLACK
6
CONTINUOUS
10
2.08039
20
-2.29481
11
2.08047
21
-2.295
0
LINE
8
BLACK
6
CONTINUOUS
10
2.08047
20
-2.295
11
2.08025
21
-2.29553
0
LINE
8
BLACK
6
CONTINUOUS
10
2.08025
20
-2.29553
11
2.08014
21
-2.29609
0
LINE
8
BLACK
6
CONTINUOUS
10
2.08014
20
-2.29609
11
2.07014
21
-2.31109
0
LINE
8
BLACK
6
CONTINUOUS
10
2.07014
20
-2.31109
11
2.06997
21
-2.3112
0
LINE
8
BLACK
6
CONTINUOUS
10
2.06997
20
-2.3112
11
2.0699
21
-2.31139
0
LINE
8
BLACK
6
CONTINUOUS
10
2.0699
20
-2.31139
11
2.06937
21
-2.31161
0
LINE
8
BLACK
6
CONTINUOUS
10
2.06937
20
-2.31161
11
2.06889
21
-2.31193
0
LINE
8
BLACK
6
CONTINUOUS
10
2.06889
20
-2.31193
11
2.06869
21
-2.31189
0
LINE
8
BLACK
6
CONTINUOUS
10
2.06869
20
-2.31189
11
2.0685
21
-2.31197
0
LINE
8
BLACK
6
CONTINUOUS
10
2.0685
20
-2.31197
11
2.06797
21
-2.31175
0
LINE
8
BLACK
6
CONTINUOUS
10
2.06797
20
-2.31175
11
2.06741
21
-2.31164
0
LINE
8
BLACK
6
CONTINUOUS
10
2.06741
20
-2.31164
11
2.0673
21
-2.31147
0
LINE
8
BLACK
6
CONTINUOUS
10
2.0673
20
-2.31147
11
2.06711
21
-2.31139
0
LINE
8
BLACK
6
CONTINUOUS
10
2.06711
20
-2.31139
11
2.05711
21
-2.30139
0
LINE
8
BLACK
6
CONTINUOUS
10
2.05711
20
-2.30139
11
2.05689
21
-2.30086
0
LINE
8
BLACK
6
CONTINUOUS
10
2.05689
20
-2.30086
11
2.05657
21
-2.30039
0
LINE
8
BLACK
6
CONTINUOUS
10
2.05657
20
-2.30039
11
2.05661
21
-2.30019
0
LINE
8
BLACK
6
CONTINUOUS
10
2.05661
20
-2.30019
11
2.05654
21
-2.3
0
LINE
8
BLACK
6
CONTINUOUS
10
2.05654
20
-2.3
11
2.05675
21
-2.29947
0
LINE
8
BLACK
6
CONTINUOUS
10
2.05675
20
-2.29947
11
2.05687
21
-2.29891
0
LINE
8
BLACK
6
CONTINUOUS
10
2.05687
20
-2.29891
11
2.06687
21
-2.28391
0
LINE
8
BLACK
6
CONTINUOUS
10
2.06687
20
-2.28391
11
2.06703
21
-2.2838
0
LINE
8
BLACK
6
CONTINUOUS
10
2.06703
20
-2.2838
11
2.06711
21
-2.28361
0
LINE
8
BLACK
6
CONTINUOUS
10
2.06711
20
-2.28361
11
2.06764
21
-2.28339
0
LINE
8
BLACK
6
CONTINUOUS
10
2.06764
20
-2.28339
11
2.06812
21
-2.28307
0
LINE
8
BLACK
6
CONTINUOUS
10
2.06812
20
-2.28307
11
2.06832
21
-2.28311
0
LINE
8
BLACK
6
CONTINUOUS
10
2.06832
20
-2.28311
11
2.0685
21
-2.28303
0
LINE
8
BLACK
6
CONTINUOUS
10
2.0685
20
-2.28303
11
2.06903
21
-2.28325
0
LINE
8
BLACK
6
CONTINUOUS
10
1.92033
20
-2.24302
11
1.93247
21
-2.25111
0
LINE
8
BLACK
6
CONTINUOUS
10
1.93247
20
-2.25111
11
1.94462
21
-2.24302
0
LINE
8
BLACK
6
CONTINUOUS
10
1.94462
20
-2.24302
11
1.94555
21
-2.2426
0
LINE
8
BLACK
6
CONTINUOUS
10
1.94555
20
-2.2426
11
1.94756
21
-2.24283
0
LINE
8
BLACK
6
CONTINUOUS
10
1.94756
20
-2.24283
11
1.94896
21
-2.24429
0
LINE
8
BLACK
6
CONTINUOUS
10
1.94896
20
-2.24429
11
1.94909
21
-2.2463
0
LINE
8
BLACK
6
CONTINUOUS
10
1.94909
20
-2.2463
11
1.94789
21
-2.24793
0
LINE
8
BLACK
6
CONTINUOUS
10
1.94789
20
-2.24793
11
1.9378
21
-2.25466
0
LINE
8
BLACK
6
CONTINUOUS
10
1.9378
20
-2.25466
11
1.94789
21
-2.26139
0
LINE
8
BLACK
6
CONTINUOUS
10
1.94789
20
-2.26139
11
1.94863
21
-2.2621
0
LINE
8
BLACK
6
CONTINUOUS
10
1.94863
20
-2.2621
11
1.9492
21
-2.26404
0
LINE
8
BLACK
6
CONTINUOUS
10
1.9492
20
-2.26404
11
1.94839
21
-2.26588
0
LINE
8
BLACK
6
CONTINUOUS
10
1.94839
20
-2.26588
11
1.94658
21
-2.26678
0
LINE
8
BLACK
6
CONTINUOUS
10
1.94658
20
-2.26678
11
1.94462
21
-2.2663
0
LINE
8
BLACK
6
CONTINUOUS
10
1.94462
20
-2.2663
11
1.93247
21
-2.25821
0
LINE
8
BLACK
6
CONTINUOUS
10
1.93247
20
-2.25821
11
1.92033
21
-2.2663
0
LINE
8
BLACK
6
CONTINUOUS
10
1.92033
20
-2.2663
11
1.91939
21
-2.26671
0
LINE
8
BLACK
6
CONTINUOUS
10
1.91939
20
-2.26671
11
1.91739
21
-2.26649
0
LINE
8
BLACK
6
CONTINUOUS
10
1.91739
20
-2.26649
11
1.91599
21
-2.26503
0
LINE
8
BLACK
6
CONTINUOUS
10
1.91599
20
-2.26503
11
1.91586
21
-2.26302
0
LINE
8
BLACK
6
CONTINUOUS
10
1.91586
20
-2.26302
11
1.91706
21
-2.26139
0
LINE
8
BLACK
6
CONTINUOUS
10
1.91706
20
-2.26139
11
1.92715
21
-2.25466
0
LINE
8
BLACK
6
CONTINUOUS
10
1.92715
20
-2.25466
11
1.91706
21
-2.24793
0
LINE
8
BLACK
6
CONTINUOUS
10
1.91706
20
-2.24793
11
1.91631
21
-2.24722
0
LINE
8
BLACK
6
CONTINUOUS
10
1.91631
20
-2.24722
11
1.91575
21
-2.24528
0
LINE
8
BLACK
6
CONTINUOUS
10
1.91575
20
-2.24528
11
1.91656
21
-2.24343
0
LINE
8
BLACK
6
CONTINUOUS
10
1.91656
20
-2.24343
11
1.91837
21
-2.24254
0
LINE
8
BLACK
6
CONTINUOUS
10
1.91837
20
-2.24254
11
1.92033
21
-2.24302
0
LINE
8
BLACK
6
CONTINUOUS
10
1.99714
20
-2.25656
11
1.99756
21
-2.25661
0
LINE
8
BLACK
6
CONTINUOUS
10
1.99756
20
-2.25661
11
1.99798
21
-2.25705
0
LINE
8
BLACK
6
CONTINUOUS
10
1.99798
20
-2.25705
11
1.99852
21
-2.25735
0
LINE
8
BLACK
6
CONTINUOUS
10
1.99852
20
-2.25735
11
1.99866
21
-2.25776
0
LINE
8
BLACK
6
CONTINUOUS
10
1.99866
20
-2.25776
11
1.99896
21
-2.25807
0
LINE
8
BLACK
6
CONTINUOUS
10
1.99896
20
-2.25807
11
1.999
21
-2.25868
0
LINE
8
BLACK
6
CONTINUOUS
10
1.999
20
-2.25868
11
1.99921
21
-2.25925
0
LINE
8
BLACK
6
CONTINUOUS
10
1.99921
20
-2.25925
11
1.99921
21
-2.27762
0
LINE
8
BLACK
6
CONTINUOUS
10
1.99921
20
-2.27762
11
1.99903
21
-2.27863
0
LINE
8
BLACK
6
CONTINUOUS
10
1.99903
20
-2.27863
11
1.99773
21
-2.28018
0
LINE
8
BLACK
6
CONTINUOUS
10
1.99773
20
-2.28018
11
1.99574
21
-2.28053
0
LINE
8
BLACK
6
CONTINUOUS
10
1.99574
20
-2.28053
11
1.99399
21
-2.27952
0
LINE
8
BLACK
6
CONTINUOUS
10
1.99399
20
-2.27952
11
1.9933
21
-2.27762
0
LINE
8
BLACK
6
CONTINUOUS
10
1.9933
20
-2.27762
11
1.9933
21
-2.26477
0
LINE
8
BLACK
6
CONTINUOUS
10
1.9933
20
-2.26477
11
1.97033
21
-2.28008
0
LINE
8
BLACK
6
CONTINUOUS
10
1.97033
20
-2.28008
11
1.97021
21
-2.28014
0
LINE
8
BLACK
6
CONTINUOUS
10
1.97021
20
-2.28014
11
1.97017
21
-2.28018
0
LINE
8
BLACK
6
CONTINUOUS
10
1.97017
20
-2.28018
11
1.97006
21
-2.2802
0
LINE
8
BLACK
6
CONTINUOUS
10
1.97006
20
-2.2802
11
1.96939
21
-2.28049
0
LINE
8
BLACK
6
CONTINUOUS
10
1.96939
20
-2.28049
11
1.96878
21
-2.28043
0
LINE
8
BLACK
6
CONTINUOUS
10
1.96878
20
-2.28043
11
1.96818
21
-2.28053
0
LINE
8
BLACK
6
CONTINUOUS
10
1.96818
20
-2.28053
11
1.96781
21
-2.28032
0
LINE
8
BLACK
6
CONTINUOUS
10
1.96781
20
-2.28032
11
1.96739
21
-2.28027
0
LINE
8
BLACK
6
CONTINUOUS
10
1.96739
20
-2.28027
11
1.96696
21
-2.27983
0
LINE
8
BLACK
6
CONTINUOUS
10
1.96696
20
-2.27983
11
1.96643
21
-2.27952
0
LINE
8
BLACK
6
CONTINUOUS
10
1.96643
20
-2.27952
11
1.96629
21
-2.27912
0
LINE
8
BLACK
6
CONTINUOUS
10
1.96629
20
-2.27912
11
1.96599
21
-2.27881
0
LINE
8
BLACK
6
CONTINUOUS
10
1.96599
20
-2.27881
11
1.96595
21
-2.2782
0
LINE
8
BLACK
6
CONTINUOUS
10
1.96595
20
-2.2782
11
1.96574
21
-2.27762
0
LINE
8
BLACK
6
CONTINUOUS
10
1.96574
20
-2.27762
11
1.96574
21
-2.25925
0
LINE
8
BLACK
6
CONTINUOUS
10
1.96574
20
-2.25925
11
1.96592
21
-2.25824
0
LINE
8
BLACK
6
CONTINUOUS
10
1.96592
20
-2.25824
11
1.96722
21
-2.25669
0
LINE
8
BLACK
6
CONTINUOUS
10
1.96722
20
-2.25669
11
1.96921
21
-2.25634
0
LINE
8
BLACK
6
CONTINUOUS
10
1.96921
20
-2.25634
11
1.97096
21
-2.25735
0
LINE
8
BLACK
6
CONTINUOUS
10
1.97096
20
-2.25735
11
1.97165
21
-2.25925
0
LINE
8
BLACK
6
CONTINUOUS
10
1.97165
20
-2.25925
11
1.97165
21
-2.27211
0
LINE
8
BLACK
6
CONTINUOUS
10
1.97165
20
-2.27211
11
1.99462
21
-2.2568
0
LINE
8
BLACK
6
CONTINUOUS
10
1.99462
20
-2.2568
11
1.99474
21
-2.25674
0
LINE
8
BLACK
6
CONTINUOUS
10
1.99474
20
-2.25674
11
1.99478
21
-2.25669
0
LINE
8
BLACK
6
CONTINUOUS
10
1.99478
20
-2.25669
11
1.99489
21
-2.25667
0
LINE
8
BLACK
6
CONTINUOUS
10
1.99489
20
-2.25667
11
1.99555
21
-2.25638
0
LINE
8
BLACK
6
CONTINUOUS
10
1.99555
20
-2.25638
11
1.99616
21
-2.25645
0
LINE
8
BLACK
6
CONTINUOUS
10
1.99616
20
-2.25645
11
1.99677
21
-2.25634
0
LINE
8
BLACK
6
CONTINUOUS
10
1.99677
20
-2.25634
11
1.99714
21
-2.25656
0
LINE
8
BLACK
6
CONTINUOUS
10
2.08403
20
-2.26325
11
2.0846
21
-2.26336
0
LINE
8
BLACK
6
CONTINUOUS
10
2.0846
20
-2.26336
11
2.08471
21
-2.26353
0
LINE
8
BLACK
6
CONTINUOUS
10
2.08471
20
-2.26353
11
2.0849
21
-2.26361
0
LINE
8
BLACK
6
CONTINUOUS
10
2.0849
20
-2.26361
11
2.0949
21
-2.27361
0
LINE
8
BLACK
6
CONTINUOUS
10
2.0949
20
-2.27361
11
2.09512
21
-2.27414
0
LINE
8
BLACK
6
CONTINUOUS
10
2.09512
20
-2.27414
11
2.09543
21
-2.27461
0
LINE
8
BLACK
6
CONTINUOUS
10
2.09543
20
-2.27461
11
2.09539
21
-2.27481
0
LINE
8
BLACK
6
CONTINUOUS
10
2.09539
20
-2.27481
11
2.09547
21
-2.275
0
LINE
8
BLACK
6
CONTINUOUS
10
2.09547
20
-2.275
11
2.09525
21
-2.27553
0
LINE
8
BLACK
6
CONTINUOUS
10
2.09525
20
-2.27553
11
2.09514
21
-2.27609
0
LINE
8
BLACK
6
CONTINUOUS
10
2.09514
20
-2.27609
11
2.08514
21
-2.29109
0
LINE
8
BLACK
6
CONTINUOUS
10
2.08514
20
-2.29109
11
2.08497
21
-2.2912
0
LINE
8
BLACK
6
CONTINUOUS
10
2.08497
20
-2.2912
11
2.0849
21
-2.29139
0
LINE
8
BLACK
6
CONTINUOUS
10
2.0849
20
-2.29139
11
2.08437
21
-2.29161
0
LINE
8
BLACK
6
CONTINUOUS
10
2.08437
20
-2.29161
11
2.08389
21
-2.29193
0
LINE
8
BLACK
6
CONTINUOUS
10
2.08389
20
-2.29193
11
2.08369
21
-2.29189
0
LINE
8
BLACK
6
CONTINUOUS
10
2.08369
20
-2.29189
11
2.0835
21
-2.29197
0
LINE
8
BLACK
6
CONTINUOUS
10
2.0835
20
-2.29197
11
2.08297
21
-2.29175
0
LINE
8
BLACK
6
CONTINUOUS
10
2.08297
20
-2.29175
11
2.08241
21
-2.29164
0
LINE
8
BLACK
6
CONTINUOUS
10
2.08241
20
-2.29164
11
2.0823
21
-2.29147
0
LINE
8
BLACK
6
CONTINUOUS
10
2.0823
20
-2.29147
11
2.08211
21
-2.29139
0
LINE
8
BLACK
6
CONTINUOUS
10
2.08211
20
-2.29139
11
2.07211
21
-2.28139
0
LINE
8
BLACK
6
CONTINUOUS
10
2.07211
20
-2.28139
11
2.07189
21
-2.28086
0
LINE
8
BLACK
6
CONTINUOUS
10
2.07189
20
-2.28086
11
2.07157
21
-2.28039
0
LINE
8
BLACK
6
CONTINUOUS
10
2.07157
20
-2.28039
11
2.07161
21
-2.28019
0
LINE
8
BLACK
6
CONTINUOUS
10
2.07161
20
-2.28019
11
2.07154
21
-2.28
0
LINE
8
BLACK
6
CONTINUOUS
10
2.07154
20
-2.28
11
2.07175
21
-2.27947
0
LINE
8
BLACK
6
CONTINUOUS
10
2.07175
20
-2.27947
11
2.07187
21
-2.27891
0
LINE
8
BLACK
6
CONTINUOUS
10
2.07187
20
-2.27891
11
2.08187
21
-2.26391
0
LINE
8
BLACK
6
CONTINUOUS
10
2.08187
20
-2.26391
11
2.08203
21
-2.2638
0
LINE
8
BLACK
6
CONTINUOUS
10
2.08203
20
-2.2638
11
2.08211
21
-2.26361
0
LINE
8
BLACK
6
CONTINUOUS
10
2.08211
20
-2.26361
11
2.08264
21
-2.26339
0
LINE
8
BLACK
6
CONTINUOUS
10
2.08264
20
-2.26339
11
2.08312
21
-2.26307
0
LINE
8
BLACK
6
CONTINUOUS
10
2.08312
20
-2.26307
11
2.08332
21
-2.26311
0
LINE
8
BLACK
6
CONTINUOUS
10
2.08332
20
-2.26311
11
2.0835
21
-2.26303
0
LINE
8
BLACK
6
CONTINUOUS
10
2.0835
20
-2.26303
11
2.08403
21
-2.26325
0
LINE
8
BLACK
6
CONTINUOUS
10
2.09903
20
-2.27825
11
2.0996
21
-2.27836
0
LINE
8
BLACK
6
CONTINUOUS
10
2.0996
20
-2.27836
11
2.09971
21
-2.27853
0
LINE
8
BLACK
6
CONTINUOUS
10
2.09971
20
-2.27853
11
2.0999
21
-2.27861
0
LINE
8
BLACK
6
CONTINUOUS
10
2.0999
20
-2.27861
11
2.1099
21
-2.28861
0
LINE
8
BLACK
6
CONTINUOUS
10
2.1099
20
-2.28861
11
2.11012
21
-2.28914
0
LINE
8
BLACK
6
CONTINUOUS
10
2.11012
20
-2.28914
11
2.11043
21
-2.28961
0
LINE
8
BLACK
6
CONTINUOUS
10
2.11043
20
-2.28961
11
2.11039
21
-2.28981
0
LINE
8
BLACK
6
CONTINUOUS
10
2.11039
20
-2.28981
11
2.11047
21
-2.29
0
LINE
8
BLACK
6
CONTINUOUS
10
2.11047
20
-2.29
11
2.11025
21
-2.29053
0
LINE
8
BLACK
6
CONTINUOUS
10
2.11025
20
-2.29053
11
2.11014
21
-2.29109
0
LINE
8
BLACK
6
CONTINUOUS
10
2.11014
20
-2.29109
11
2.10014
21
-2.30609
0
LINE
8
BLACK
6
CONTINUOUS
10
2.10014
20
-2.30609
11
2.09997
21
-2.3062
0
LINE
8
BLACK
6
CONTINUOUS
10
2.09997
20
-2.3062
11
2.0999
21
-2.30639
0
LINE
8
BLACK
6
CONTINUOUS
10
2.0999
20
-2.30639
11
2.09937
21
-2.30661
0
LINE
8
BLACK
6
CONTINUOUS
10
2.09937
20
-2.30661
11
2.09889
21
-2.30693
0
LINE
8
BLACK
6
CONTINUOUS
10
2.09889
20
-2.30693
11
2.09869
21
-2.30689
0
LINE
8
BLACK
6
CONTINUOUS
10
2.09869
20
-2.30689
11
2.0985
21
-2.30697
0
LINE
8
BLACK
6
CONTINUOUS
10
2.0985
20
-2.30697
11
2.09797
21
-2.30675
0
LINE
8
BLACK
6
CONTINUOUS
10
2.09797
20
-2.30675
11
2.09741
21
-2.30664
0
LINE
8
BLACK
6
CONTINUOUS
10
2.09741
20
-2.30664
11
2.0973
21
-2.30647
0
LINE
8
BLACK
6
CONTINUOUS
10
2.0973
20
-2.30647
11
2.09711
21
-2.30639
0
LINE
8
BLACK
6
CONTINUOUS
10
2.09711
20
-2.30639
11
2.08711
21
-2.29639
0
LINE
8
BLACK
6
CONTINUOUS
10
2.08711
20
-2.29639
11
2.08689
21
-2.29586
0
LINE
8
BLACK
6
CONTINUOUS
10
2.08689
20
-2.29586
11
2.08657
21
-2.29539
0
LINE
8
BLACK
6
CONTINUOUS
10
2.08657
20
-2.29539
11
2.08661
21
-2.29519
0
LINE
8
BLACK
6
CONTINUOUS
10
2.08661
20
-2.29519
11
2.08654
21
-2.295
0
LINE
8
BLACK
6
CONTINUOUS
10
2.08654
20
-2.295
11
2.08675
21
-2.29447
0
LINE
8
BLACK
6
CONTINUOUS
10
2.08675
20
-2.29447
11
2.08687
21
-2.29391
0
LINE
8
BLACK
6
CONTINUOUS
10
2.08687
20
-2.29391
11
2.09687
21
-2.27891
0
LINE
8
BLACK
6
CONTINUOUS
10
2.09687
20
-2.27891
11
2.09703
21
-2.2788
0
LINE
8
BLACK
6
CONTINUOUS
10
2.09703
20
-2.2788
11
2.09711
21
-2.27861
0
LINE
8
BLACK
6
CONTINUOUS
10
2.09711
20
-2.27861
11
2.09764
21
-2.27839
0
LINE
8
BLACK
6
CONTINUOUS
10
2.09764
20
-2.27839
11
2.09812
21
-2.27807
0
LINE
8
BLACK
6
CONTINUOUS
10
2.09812
20
-2.27807
11
2.09832
21
-2.27811
0
LINE
8
BLACK
6
CONTINUOUS
10
2.09832
20
-2.27811
11
2.0985
21
-2.27803
0
LINE
8
BLACK
6
CONTINUOUS
10
2.0985
20
-2.27803
11
2.09903
21
-2.27825
0
LINE
8
BLACK
6
CONTINUOUS
10
1.99201
20
-2.28404
11
1.99215
21
-2.28415
0
LINE
8
BLACK
6
CONTINUOUS
10
1.99215
20
-2.28415
11
1.99232
21
-2.28417
0
LINE
8
BLACK
6
CONTINUOUS
10
1.99232
20
-2.28417
11
1.99495
21
-2.28548
0
LINE
8
BLACK
6
CONTINUOUS
10
1.99495
20
-2.28548
11
1.99566
21
-2.28601
0
LINE
8
BLACK
6
CONTINUOUS
10
1.99566
20
-2.28601
11
1.99572
21
-2.28604
0
LINE
8
BLACK
6
CONTINUOUS
10
1.99572
20
-2.28604
11
1.99703
21
-2.28735
0
LINE
8
BLACK
6
CONTINUOUS
10
1.99703
20
-2.28735
11
1.99754
21
-2.28807
0
LINE
8
BLACK
6
CONTINUOUS
10
1.99754
20
-2.28807
11
1.99758
21
-2.28812
0
LINE
8
BLACK
6
CONTINUOUS
10
1.99758
20
-2.28812
11
1.99889
21
-2.29074
0
LINE
8
BLACK
6
CONTINUOUS
10
1.99889
20
-2.29074
11
1.99919
21
-2.29172
0
LINE
8
BLACK
6
CONTINUOUS
10
1.99919
20
-2.29172
11
1.99915
21
-2.29189
0
LINE
8
BLACK
6
CONTINUOUS
10
1.99915
20
-2.29189
11
1.99921
21
-2.29206
0
LINE
8
BLACK
6
CONTINUOUS
10
1.99921
20
-2.29206
11
1.99921
21
-2.29731
0
LINE
8
BLACK
6
CONTINUOUS
10
1.99921
20
-2.29731
11
1.99903
21
-2.29832
0
LINE
8
BLACK
6
CONTINUOUS
10
1.99903
20
-2.29832
11
1.99891
21
-2.29845
0
LINE
8
BLACK
6
CONTINUOUS
10
1.99891
20
-2.29845
11
1.99889
21
-2.29863
0
LINE
8
BLACK
6
CONTINUOUS
10
1.99889
20
-2.29863
11
1.99758
21
-2.30125
0
LINE
8
BLACK
6
CONTINUOUS
10
1.99758
20
-2.30125
11
1.99706
21
-2.30196
0
LINE
8
BLACK
6
CONTINUOUS
10
1.99706
20
-2.30196
11
1.99703
21
-2.30202
0
LINE
8
BLACK
6
CONTINUOUS
10
1.99703
20
-2.30202
11
1.99572
21
-2.30333
0
LINE
8
BLACK
6
CONTINUOUS
10
1.99572
20
-2.30333
11
1.99499
21
-2.30384
0
LINE
8
BLACK
6
CONTINUOUS
10
1.99499
20
-2.30384
11
1.99495
21
-2.30389
0
LINE
8
BLACK
6
CONTINUOUS
10
1.99495
20
-2.30389
11
1.99232
21
-2.3052
0
LINE
8
BLACK
6
CONTINUOUS
10
1.99232
20
-2.3052
11
1.99134
21
-2.30549
0
LINE
8
BLACK
6
CONTINUOUS
10
1.99134
20
-2.30549
11
1.99117
21
-2.30545
0
LINE
8
BLACK
6
CONTINUOUS
10
1.99117
20
-2.30545
11
1.991
21
-2.30551
0
LINE
8
BLACK
6
CONTINUOUS
10
1.991
20
-2.30551
11
1.98444
21
-2.30551
0
LINE
8
BLACK
6
CONTINUOUS
10
1.98444
20
-2.30551
11
1.98343
21
-2.30533
0
LINE
8
BLACK
6
CONTINUOUS
10
1.98343
20
-2.30533
11
1.9833
21
-2.30522
0
LINE
8
BLACK
6
CONTINUOUS
10
1.9833
20
-2.30522
11
1.98312
21
-2.3052
0
LINE
8
BLACK
6
CONTINUOUS
10
1.98312
20
-2.3052
11
1.9805
21
-2.30389
0
LINE
8
BLACK
6
CONTINUOUS
10
1.9805
20
-2.30389
11
1.97979
21
-2.30336
0
LINE
8
BLACK
6
CONTINUOUS
10
1.97979
20
-2.30336
11
1.97973
21
-2.30333
0
LINE
8
BLACK
6
CONTINUOUS
10
1.97973
20
-2.30333
11
1.97842
21
-2.30202
0
LINE
8
BLACK
6
CONTINUOUS
10
1.97842
20
-2.30202
11
1.97791
21
-2.3013
0
LINE
8
BLACK
6
CONTINUOUS
10
1.97791
20
-2.3013
11
1.97786
21
-2.30125
0
LINE
8
BLACK
6
CONTINUOUS
10
1.97786
20
-2.30125
11
1.97655
21
-2.29863
0
LINE
8
BLACK
6
CONTINUOUS
10
1.97655
20
-2.29863
11
1.97626
21
-2.29765
0
LINE
8
BLACK
6
CONTINUOUS
10
1.97626
20
-2.29765
11
1.9763
21
-2.29748
0
LINE
8
BLACK
6
CONTINUOUS
10
1.9763
20
-2.29748
11
1.97624
21
-2.29731
0
LINE
8
BLACK
6
CONTINUOUS
10
1.97624
20
-2.29731
11
1.97624
21
-2.29206
0
LINE
8
BLACK
6
CONTINUOUS
10
1.97624
20
-2.29206
11
1.97642
21
-2.29105
0
LINE
8
BLACK
6
CONTINUOUS
10
1.97642
20
-2.29105
11
1.97653
21
-2.29092
0
LINE
8
BLACK
6
CONTINUOUS
10
1.97653
20
-2.29092
11
1.97654
21
-2.29085
0
LINE
8
BLACK
6
CONTINUOUS
10
1.97654
20
-2.29085
11
1.97647
21
-2.29086
0
LINE
8
BLACK
6
CONTINUOUS
10
1.97647
20
-2.29086
11
1.9732
21
-2.29304
0
LINE
8
BLACK
6
CONTINUOUS
10
1.9732
20
-2.29304
11
1.97243
21
-2.29381
0
LINE
8
BLACK
6
CONTINUOUS
10
1.97243
20
-2.29381
11
1.97165
21
-2.29538
0
LINE
8
BLACK
6
CONTINUOUS
10
1.97165
20
-2.29538
11
1.97165
21
-2.29993
0
LINE
8
BLACK
6
CONTINUOUS
10
1.97165
20
-2.29993
11
1.97147
21
-2.30094
0
LINE
8
BLACK
6
CONTINUOUS
10
1.97147
20
-2.30094
11
1.97017
21
-2.30249
0
LINE
8
BLACK
6
CONTINUOUS
10
1.97017
20
-2.30249
11
1.96818
21
-2.30284
0
LINE
8
BLACK
6
CONTINUOUS
10
1.96818
20
-2.30284
11
1.96643
21
-2.30183
0
LINE
8
BLACK
6
CONTINUOUS
10
1.96643
20
-2.30183
11
1.96574
21
-2.29993
0
LINE
8
BLACK
6
CONTINUOUS
10
1.96574
20
-2.29993
11
1.96574
21
-2.29469
0
LINE
8
BLACK
6
CONTINUOUS
10
1.96574
20
-2.29469
11
1.96592
21
-2.29368
0
LINE
8
BLACK
6
CONTINUOUS
10
1.96592
20
-2.29368
11
1.96603
21
-2.29354
0
LINE
8
BLACK
6
CONTINUOUS
10
1.96603
20
-2.29354
11
1.96605
21
-2.29336
0
LINE
8
BLACK
6
CONTINUOUS
10
1.96605
20
-2.29336
11
1.96737
21
-2.29074
0
LINE
8
BLACK
6
CONTINUOUS
10
1.96737
20
-2.29074
11
1.96789
21
-2.29003
0
LINE
8
BLACK
6
CONTINUOUS
10
1.96789
20
-2.29003
11
1.96792
21
-2.28997
0
LINE
8
BLACK
6
CONTINUOUS
10
1.96792
20
-2.28997
11
1.96923
21
-2.28866
0
LINE
8
BLACK
6
CONTINUOUS
10
1.96923
20
-2.28866
11
1.9696
21
-2.2884
0
LINE
8
BLACK
6
CONTINUOUS
10
1.9696
20
-2.2884
11
1.96968
21
-2.28829
0
LINE
8
BLACK
6
CONTINUOUS
10
1.96968
20
-2.28829
11
1.97362
21
-2.28567
0
LINE
8
BLACK
6
CONTINUOUS
10
1.97362
20
-2.28567
11
1.97453
21
-2.28527
0
LINE
8
BLACK
6
CONTINUOUS
10
1.97453
20
-2.28527
11
1.97454
21
-2.28526
0
LINE
8
BLACK
6
CONTINUOUS
10
1.97454
20
-2.28526
11
1.97979
21
-2.28395
0
LINE
8
BLACK
6
CONTINUOUS
10
1.97979
20
-2.28395
11
1.98038
21
-2.2839
0
LINE
8
BLACK
6
CONTINUOUS
10
1.98038
20
-2.2839
11
1.98051
21
-2.28386
0
LINE
8
BLACK
6
CONTINUOUS
10
1.98051
20
-2.28386
11
1.991
21
-2.28386
0
LINE
8
BLACK
6
CONTINUOUS
10
1.991
20
-2.28386
11
1.99201
21
-2.28404
0
LINE
8
BLACK
6
CONTINUOUS
10
1.98357
20
-2.29055
11
1.98293
21
-2.29118
0
LINE
8
BLACK
6
CONTINUOUS
10
1.98293
20
-2.29118
11
1.98215
21
-2.29276
0
LINE
8
BLACK
6
CONTINUOUS
10
1.98215
20
-2.29276
11
1.98215
21
-2.29661
0
LINE
8
BLACK
6
CONTINUOUS
10
1.98215
20
-2.29661
11
1.98293
21
-2.29819
0
LINE
8
BLACK
6
CONTINUOUS
10
1.98293
20
-2.29819
11
1.98357
21
-2.29882
0
LINE
8
BLACK
6
CONTINUOUS
10
1.98357
20
-2.29882
11
1.98514
21
-2.29961
0
LINE
8
BLACK
6
CONTINUOUS
10
1.98514
20
-2.29961
11
1.99031
21
-2.29961
0
LINE
8
BLACK
6
CONTINUOUS
10
1.99031
20
-2.29961
11
1.99188
21
-2.29882
0
LINE
8
BLACK
6
CONTINUOUS
10
1.99188
20
-2.29882
11
1.99251
21
-2.29819
0
LINE
8
BLACK
6
CONTINUOUS
10
1.99251
20
-2.29819
11
1.9933
21
-2.29661
0
LINE
8
BLACK
6
CONTINUOUS
10
1.9933
20
-2.29661
11
1.9933
21
-2.29276
0
LINE
8
BLACK
6
CONTINUOUS
10
1.9933
20
-2.29276
11
1.99251
21
-2.29118
0
LINE
8
BLACK
6
CONTINUOUS
10
1.99251
20
-2.29118
11
1.99188
21
-2.29055
0
LINE
8
BLACK
6
CONTINUOUS
10
1.99188
20
-2.29055
11
1.99031
21
-2.28976
0
LINE
8
BLACK
6
CONTINUOUS
10
1.99031
20
-2.28976
11
1.98514
21
-2.28976
0
LINE
8
BLACK
6
CONTINUOUS
10
1.98514
20
-2.28976
11
1.98357
21
-2.29055
0
LINE
8
BLACK
6
CONTINUOUS
10
1.89664
20
-2.21765
11
1.89677
21
-2.21763
0
LINE
8
BLACK
6
CONTINUOUS
10
1.89677
20
-2.21763
11
1.89688
21
-2.2177
0
LINE
8
BLACK
6
CONTINUOUS
10
1.89688
20
-2.2177
11
1.89726
21
-2.21776
0
LINE
8
BLACK
6
CONTINUOUS
10
1.89726
20
-2.21776
11
1.89785
21
-2.21826
0
LINE
8
BLACK
6
CONTINUOUS
10
1.89785
20
-2.21826
11
1.89852
21
-2.21864
0
LINE
8
BLACK
6
CONTINUOUS
10
1.89852
20
-2.21864
11
1.89861
21
-2.21889
0
LINE
8
BLACK
6
CONTINUOUS
10
1.89861
20
-2.21889
11
1.89881
21
-2.21906
0
LINE
8
BLACK
6
CONTINUOUS
10
1.89881
20
-2.21906
11
1.89894
21
-2.21982
0
LINE
8
BLACK
6
CONTINUOUS
10
1.89894
20
-2.21982
11
1.89921
21
-2.22054
0
LINE
8
BLACK
6
CONTINUOUS
10
1.89921
20
-2.22054
11
1.89921
21
-2.2271
0
LINE
8
BLACK
6
CONTINUOUS
10
1.89921
20
-2.2271
11
1.89905
21
-2.22797
0
LINE
8
BLACK
6
CONTINUOUS
10
1.89905
20
-2.22797
11
1.89905
21
-2.22803
0
LINE
8
BLACK
6
CONTINUOUS
10
1.89905
20
-2.22803
11
1.89774
21
-2.23197
0
LINE
8
BLACK
6
CONTINUOUS
10
1.89774
20
-2.23197
11
1.89725
21
-2.23287
0
LINE
8
BLACK
6
CONTINUOUS
10
1.89725
20
-2.23287
11
1.8971
21
-2.23296
0
LINE
8
BLACK
6
CONTINUOUS
10
1.8971
20
-2.23296
11
1.89703
21
-2.23312
0
LINE
8
BLACK
6
CONTINUOUS
10
1.89703
20
-2.23312
11
1.8944
21
-2.23575
0
LINE
8
BLACK
6
CONTINUOUS
10
1.8944
20
-2.23575
11
1.89368
21
-2.23626
0
LINE
8
BLACK
6
CONTINUOUS
10
1.89368
20
-2.23626
11
1.89364
21
-2.2363
0
LINE
8
BLACK
6
CONTINUOUS
10
1.89364
20
-2.2363
11
1.89101
21
-2.23761
0
LINE
8
BLACK
6
CONTINUOUS
10
1.89101
20
-2.23761
11
1.89052
21
-2.23776
0
LINE
8
BLACK
6
CONTINUOUS
10
1.89052
20
-2.23776
11
1.89041
21
-2.23784
0
LINE
8
BLACK
6
CONTINUOUS
10
1.89041
20
-2.23784
11
1.88516
21
-2.23915
0
LINE
8
BLACK
6
CONTINUOUS
10
1.88516
20
-2.23915
11
1.88457
21
-2.23919
0
LINE
8
BLACK
6
CONTINUOUS
10
1.88457
20
-2.23919
11
1.88444
21
-2.23924
0
LINE
8
BLACK
6
CONTINUOUS
10
1.88444
20
-2.23924
11
1.88051
21
-2.23924
0
LINE
8
BLACK
6
CONTINUOUS
10
1.88051
20
-2.23924
11
1.87992
21
-2.23914
0
LINE
8
BLACK
6
CONTINUOUS
10
1.87992
20
-2.23914
11
1.87979
21
-2.23915
0
LINE
8
BLACK
6
CONTINUOUS
10
1.87979
20
-2.23915
11
1.87454
21
-2.23784
0
LINE
8
BLACK
6
CONTINUOUS
10
1.87454
20
-2.23784
11
1.87407
21
-2.23763
0
LINE
8
BLACK
6
CONTINUOUS
10
1.87407
20
-2.23763
11
1.87394
21
-2.23761
0
LINE
8
BLACK
6
CONTINUOUS
10
1.87394
20
-2.23761
11
1.87131
21
-2.2363
0
LINE
8
BLACK
6
CONTINUOUS
10
1.87131
20
-2.2363
11
1.8706
21
-2.23578
0
LINE
8
BLACK
6
CONTINUOUS
10
1.8706
20
-2.23578
11
1.87054
21
-2.23575
0
LINE
8
BLACK
6
CONTINUOUS
10
1.87054
20
-2.23575
11
1.86792
21
-2.23312
0
LINE
8
BLACK
6
CONTINUOUS
10
1.86792
20
-2.23312
11
1.86733
21
-2.23228
0
LINE
8
BLACK
6
CONTINUOUS
10
1.86733
20
-2.23228
11
1.86732
21
-2.23211
0
LINE
8
BLACK
6
CONTINUOUS
10
1.86732
20
-2.23211
11
1.86721
21
-2.23197
0
LINE
8
BLACK
6
CONTINUOUS
10
1.86721
20
-2.23197
11
1.86589
21
-2.22803
0
LINE
8
BLACK
6
CONTINUOUS
10
1.86589
20
-2.22803
11
1.86576
21
-2.22716
0
LINE
8
BLACK
6
CONTINUOUS
10
1.86576
20
-2.22716
11
1.86574
21
-2.2271
0
LINE
8
BLACK
6
CONTINUOUS
10
1.86574
20
-2.2271
11
1.86574
21
-2.22054
0
LINE
8
BLACK
6
CONTINUOUS
10
1.86574
20
-2.22054
11
1.86581
21
-2.22015
0
LINE
8
BLACK
6
CONTINUOUS
10
1.86581
20
-2.22015
11
1.86579
21
-2.22003
0
LINE
8
BLACK
6
CONTINUOUS
10
1.86579
20
-2.22003
11
1.86585
21
-2.21991
0
LINE
8
BLACK
6
CONTINUOUS
10
1.86585
20
-2.21991
11
1.86592
21
-2.21953
0
LINE
8
BLACK
6
CONTINUOUS
10
1.86592
20
-2.21953
11
1.86641
21
-2.21894
0
LINE
8
BLACK
6
CONTINUOUS
10
1.86641
20
-2.21894
11
1.8668
21
-2.21828
0
LINE
8
BLACK
6
CONTINUOUS
10
1.8668
20
-2.21828
11
1.86705
21
-2.21818
0
LINE
8
BLACK
6
CONTINUOUS
10
1.86705
20
-2.21818
11
1.86722
21
-2.21798
0
LINE
8
BLACK
6
CONTINUOUS
10
1.86722
20
-2.21798
11
1.86797
21
-2.21785
0
LINE
8
BLACK
6
CONTINUOUS
10
1.86797
20
-2.21785
11
1.86869
21
-2.21759
0
LINE
8
BLACK
6
CONTINUOUS
10
1.86869
20
-2.21759
11
1.89625
21
-2.21759
0
LINE
8
BLACK
6
CONTINUOUS
10
1.89625
20
-2.21759
11
1.89664
21
-2.21765
0
LINE
8
BLACK
6
CONTINUOUS
10
1.87165
20
-2.22662
11
1.87259
21
-2.22944
0
LINE
8
BLACK
6
CONTINUOUS
10
1.87259
20
-2.22944
11
1.87438
21
-2.23123
0
LINE
8
BLACK
6
CONTINUOUS
10
1.87438
20
-2.23123
11
1.87629
21
-2.23219
0
LINE
8
BLACK
6
CONTINUOUS
10
1.87629
20
-2.23219
11
1.88087
21
-2.23333
0
LINE
8
BLACK
6
CONTINUOUS
10
1.88087
20
-2.23333
11
1.88408
21
-2.23333
0
LINE
8
BLACK
6
CONTINUOUS
10
1.88408
20
-2.23333
11
1.88866
21
-2.23219
0
LINE
8
BLACK
6
CONTINUOUS
10
1.88866
20
-2.23219
11
1.89057
21
-2.23123
0
LINE
8
BLACK
6
CONTINUOUS
10
1.89057
20
-2.23123
11
1.89236
21
-2.22944
0
LINE
8
BLACK
6
CONTINUOUS
10
1.89236
20
-2.22944
11
1.8933
21
-2.22662
0
LINE
8
BLACK
6
CONTINUOUS
10
1.8933
20
-2.22662
11
1.8933
21
-2.22349
0
LINE
8
BLACK
6
CONTINUOUS
10
1.8933
20
-2.22349
11
1.87165
21
-2.22349
0
LINE
8
BLACK
6
CONTINUOUS
10
1.87165
20
-2.22349
11
1.87165
21
-2.22662
0
LINE
8
BLACK
6
CONTINUOUS
10
1.94664
20
-2.21765
11
1.94677
21
-2.21763
0
LINE
8
BLACK
6
CONTINUOUS
10
1.94677
20
-2.21763
11
1.94688
21
-2.2177
0
LINE
8
BLACK
6
CONTINUOUS
10
1.94688
20
-2.2177
11
1.94726
21
-2.21776
0
LINE
8
BLACK
6
CONTINUOUS
10
1.94726
20
-2.21776
11
1.94785
21
-2.21826
0
LINE
8
BLACK
6
CONTINUOUS
10
1.94785
20
-2.21826
11
1.94852
21
-2.21864
0
LINE
8
BLACK
6
CONTINUOUS
10
1.94852
20
-2.21864
11
1.94861
21
-2.21889
0
LINE
8
BLACK
6
CONTINUOUS
10
1.94861
20
-2.21889
11
1.94881
21
-2.21906
0
LINE
8
BLACK
6
CONTINUOUS
10
1.94881
20
-2.21906
11
1.94894
21
-2.21982
0
LINE
8
BLACK
6
CONTINUOUS
10
1.94894
20
-2.21982
11
1.94921
21
-2.22054
0
LINE
8
BLACK
6
CONTINUOUS
10
1.94921
20
-2.22054
11
1.94921
21
-2.2271
0
LINE
8
BLACK
6
CONTINUOUS
10
1.94921
20
-2.2271
11
1.94905
21
-2.22797
0
LINE
8
BLACK
6
CONTINUOUS
10
1.94905
20
-2.22797
11
1.94905
21
-2.22803
0
LINE
8
BLACK
6
CONTINUOUS
10
1.94905
20
-2.22803
11
1.94774
21
-2.23197
0
LINE
8
BLACK
6
CONTINUOUS
10
1.94774
20
-2.23197
11
1.94725
21
-2.23287
0
LINE
8
BLACK
6
CONTINUOUS
10
1.94725
20
-2.23287
11
1.9471
21
-2.23296
0
LINE
8
BLACK
6
CONTINUOUS
10
1.9471
20
-2.23296
11
1.94703
21
-2.23312
0
LINE
8
BLACK
6
CONTINUOUS
10
1.94703
20
-2.23312
11
1.9444
21
-2.23575
0
LINE
8
BLACK
6
CONTINUOUS
10
1.9444
20
-2.23575
11
1.94368
21
-2.23626
0
LINE
8
BLACK
6
CONTINUOUS
10
1.94368
20
-2.23626
11
1.94364
21
-2.2363
0
LINE
8
BLACK
6
CONTINUOUS
10
1.94364
20
-2.2363
11
1.94101
21
-2.23761
0
LINE
8
BLACK
6
CONTINUOUS
10
1.94101
20
-2.23761
11
1.94052
21
-2.23776
0
LINE
8
BLACK
6
CONTINUOUS
10
1.94052
20
-2.23776
11
1.94041
21
-2.23784
0
LINE
8
BLACK
6
CONTINUOUS
10
1.94041
20
-2.23784
11
1.93516
21
-2.23915
0
LINE
8
BLACK
6
CONTINUOUS
10
1.93516
20
-2.23915
11
1.93457
21
-2.23919
0
LINE
8
BLACK
6
CONTINUOUS
10
1.93457
20
-2.23919
11
1.93444
21
-2.23924
0
LINE
8
BLACK
6
CONTINUOUS
10
1.93444
20
-2.23924
11
1.93051
21
-2.23924
0
LINE
8
BLACK
6
CONTINUOUS
10
1.93051
20
-2.23924
11
1.92992
21
-2.23914
0
LINE
8
BLACK
6
CONTINUOUS
10
1.92992
20
-2.23914
11
1.92979
21
-2.23915
0
LINE
8
BLACK
6
CONTINUOUS
10
1.92979
20
-2.23915
11
1.92454
21
-2.23784
0
LINE
8
BLACK
6
CONTINUOUS
10
1.92454
20
-2.23784
11
1.92407
21
-2.23763
0
LINE
8
BLACK
6
CONTINUOUS
10
1.92407
20
-2.23763
11
1.92394
21
-2.23761
0
LINE
8
BLACK
6
CONTINUOUS
10
1.92394
20
-2.23761
11
1.92131
21
-2.2363
0
LINE
8
BLACK
6
CONTINUOUS
10
1.92131
20
-2.2363
11
1.9206
21
-2.23578
0
LINE
8
BLACK
6
CONTINUOUS
10
1.9206
20
-2.23578
11
1.92054
21
-2.23575
0
LINE
8
BLACK
6
CONTINUOUS
10
1.92054
20
-2.23575
11
1.91792
21
-2.23312
0
LINE
8
BLACK
6
CONTINUOUS
10
1.91792
20
-2.23312
11
1.91733
21
-2.23228
0
LINE
8
BLACK
6
CONTINUOUS
10
1.91733
20
-2.23228
11
1.91732
21
-2.23211
0
LINE
8
BLACK
6
CONTINUOUS
10
1.91732
20
-2.23211
11
1.91721
21
-2.23197
0
LINE
8
BLACK
6
CONTINUOUS
10
1.91721
20
-2.23197
11
1.91589
21
-2.22803
0
LINE
8
BLACK
6
CONTINUOUS
10
1.91589
20
-2.22803
11
1.91576
21
-2.22716
0
LINE
8
BLACK
6
CONTINUOUS
10
1.91576
20
-2.22716
11
1.91574
21
-2.2271
0
LINE
8
BLACK
6
CONTINUOUS
10
1.91574
20
-2.2271
11
1.91574
21
-2.22054
0
LINE
8
BLACK
6
CONTINUOUS
10
1.91574
20
-2.22054
11
1.91581
21
-2.22015
0
LINE
8
BLACK
6
CONTINUOUS
10
1.91581
20
-2.22015
11
1.91579
21
-2.22003
0
LINE
8
BLACK
6
CONTINUOUS
10
1.91579
20
-2.22003
11
1.91585
21
-2.21991
0
LINE
8
BLACK
6
CONTINUOUS
10
1.91585
20
-2.21991
11
1.91592
21
-2.21953
0
LINE
8
BLACK
6
CONTINUOUS
10
1.91592
20
-2.21953
11
1.91641
21
-2.21894
0
LINE
8
BLACK
6
CONTINUOUS
10
1.91641
20
-2.21894
11
1.9168
21
-2.21828
0
LINE
8
BLACK
6
CONTINUOUS
10
1.9168
20
-2.21828
11
1.91705
21
-2.21818
0
LINE
8
BLACK
6
CONTINUOUS
10
1.91705
20
-2.21818
11
1.91722
21
-2.21798
0
LINE
8
BLACK
6
CONTINUOUS
10
1.91722
20
-2.21798
11
1.91797
21
-2.21785
0
LINE
8
BLACK
6
CONTINUOUS
10
1.91797
20
-2.21785
11
1.91869
21
-2.21759
0
LINE
8
BLACK
6
CONTINUOUS
10
1.91869
20
-2.21759
11
1.94625
21
-2.21759
0
LINE
8
BLACK
6
CONTINUOUS
10
1.94625
20
-2.21759
11
1.94664
21
-2.21765
0
LINE
8
BLACK
6
CONTINUOUS
10
1.92165
20
-2.22662
11
1.92259
21
-2.22944
0
LINE
8
BLACK
6
CONTINUOUS
10
1.92259
20
-2.22944
11
1.92438
21
-2.23123
0
LINE
8
BLACK
6
CONTINUOUS
10
1.92438
20
-2.23123
11
1.92629
21
-2.23219
0
LINE
8
BLACK
6
CONTINUOUS
10
1.92629
20
-2.23219
11
1.93087
21
-2.23333
0
LINE
8
BLACK
6
CONTINUOUS
10
1.93087
20
-2.23333
11
1.93408
21
-2.23333
0
LINE
8
BLACK
6
CONTINUOUS
10
1.93408
20
-2.23333
11
1.93866
21
-2.23219
0
LINE
8
BLACK
6
CONTINUOUS
10
1.93866
20
-2.23219
11
1.94057
21
-2.23123
0
LINE
8
BLACK
6
CONTINUOUS
10
1.94057
20
-2.23123
11
1.94236
21
-2.22944
0
LINE
8
BLACK
6
CONTINUOUS
10
1.94236
20
-2.22944
11
1.9433
21
-2.22662
0
LINE
8
BLACK
6
CONTINUOUS
10
1.9433
20
-2.22662
11
1.9433
21
-2.22349
0
LINE
8
BLACK
6
CONTINUOUS
10
1.9433
20
-2.22349
11
1.92165
21
-2.22349
0
LINE
8
BLACK
6
CONTINUOUS
10
1.92165
20
-2.22349
11
1.92165
21
-2.22662
0
LINE
8
BLACK
6
CONTINUOUS
10
1.99201
20
-2.23154
11
1.99215
21
-2.23166
0
LINE
8
BLACK
6
CONTINUOUS
10
1.99215
20
-2.23166
11
1.99232
21
-2.23168
0
LINE
8
BLACK
6
CONTINUOUS
10
1.99232
20
-2.23168
11
1.99495
21
-2.23299
0
LINE
8
BLACK
6
CONTINUOUS
10
1.99495
20
-2.23299
11
1.99566
21
-2.23351
0
LINE
8
BLACK
6
CONTINUOUS
10
1.99566
20
-2.23351
11
1.99572
21
-2.23354
0
LINE
8
BLACK
6
CONTINUOUS
10
1.99572
20
-2.23354
11
1.99703
21
-2.23485
0
LINE
8
BLACK
6
CONTINUOUS
10
1.99703
20
-2.23485
11
1.99754
21
-2.23558
0
LINE
8
BLACK
6
CONTINUOUS
10
1.99754
20
-2.23558
11
1.99758
21
-2.23562
0
LINE
8
BLACK
6
CONTINUOUS
10
1.99758
20
-2.23562
11
1.99889
21
-2.23825
0
LINE
8
BLACK
6
CONTINUOUS
10
1.99889
20
-2.23825
11
1.99919
21
-2.23923
0
LINE
8
BLACK
6
CONTINUOUS
10
1.99919
20
-2.23923
11
1.99915
21
-2.2394
0
LINE
8
BLACK
6
CONTINUOUS
10
1.99915
20
-2.2394
11
1.99921
21
-2.23957
0
LINE
8
BLACK
6
CONTINUOUS
10
1.99921
20
-2.23957
11
1.99921
21
-2.24482
0
LINE
8
BLACK
6
CONTINUOUS
10
1.99921
20
-2.24482
11
1.99903
21
-2.24583
0
LINE
8
BLACK
6
CONTINUOUS
10
1.99903
20
-2.24583
11
1.99891
21
-2.24596
0
LINE
8
BLACK
6
CONTINUOUS
10
1.99891
20
-2.24596
11
1.99889
21
-2.24614
0
LINE
8
BLACK
6
CONTINUOUS
10
1.99889
20
-2.24614
11
1.99758
21
-2.24876
0
LINE
8
BLACK
6
CONTINUOUS
10
1.99758
20
-2.24876
11
1.99706
21
-2.24947
0
LINE
8
BLACK
6
CONTINUOUS
10
1.99706
20
-2.24947
11
1.99703
21
-2.24953
0
LINE
8
BLACK
6
CONTINUOUS
10
1.99703
20
-2.24953
11
1.99572
21
-2.25084
0
LINE
8
BLACK
6
CONTINUOUS
10
1.99572
20
-2.25084
11
1.99499
21
-2.25135
0
LINE
8
BLACK
6
CONTINUOUS
10
1.99499
20
-2.25135
11
1.99495
21
-2.25139
0
LINE
8
BLACK
6
CONTINUOUS
10
1.99495
20
-2.25139
11
1.99232
21
-2.25271
0
LINE
8
BLACK
6
CONTINUOUS
10
1.99232
20
-2.25271
11
1.99134
21
-2.253
0
LINE
8
BLACK
6
CONTINUOUS
10
1.99134
20
-2.253
11
1.99117
21
-2.25296
0
LINE
8
BLACK
6
CONTINUOUS
10
1.99117
20
-2.25296
11
1.991
21
-2.25302
0
LINE
8
BLACK
6
CONTINUOUS
10
1.991
20
-2.25302
11
1.98444
21
-2.25302
0
LINE
8
BLACK
6
CONTINUOUS
10
1.98444
20
-2.25302
11
1.98343
21
-2.25284
0
LINE
8
BLACK
6
CONTINUOUS
10
1.98343
20
-2.25284
11
1.9833
21
-2.25273
0
LINE
8
BLACK
6
CONTINUOUS
10
1.9833
20
-2.25273
11
1.98312
21
-2.25271
0
LINE
8
BLACK
6
CONTINUOUS
10
1.98312
20
-2.25271
11
1.9805
21
-2.25139
0
LINE
8
BLACK
6
CONTINUOUS
10
1.9805
20
-2.25139
11
1.97979
21
-2.25087
0
LINE
8
BLACK
6
CONTINUOUS
10
1.97979
20
-2.25087
11
1.97973
21
-2.25084
0
LINE
8
BLACK
6
CONTINUOUS
10
1.97973
20
-2.25084
11
1.97842
21
-2.24953
0
LINE
8
BLACK
6
CONTINUOUS
10
1.97842
20
-2.24953
11
1.97791
21
-2.24881
0
LINE
8
BLACK
6
CONTINUOUS
10
1.97791
20
-2.24881
11
1.97786
21
-2.24876
0
LINE
8
BLACK
6
CONTINUOUS
10
1.97786
20
-2.24876
11
1.97655
21
-2.24614
0
LINE
8
BLACK
6
CONTINUOUS
10
1.97655
20
-2.24614
11
1.97626
21
-2.24515
0
LINE
8
BLACK
6
CONTINUOUS
10
1.97626
20
-2.24515
11
1.9763
21
-2.24498
0
LINE
8
BLACK
6
CONTINUOUS
10
1.9763
20
-2.24498
11
1.97624
21
-2.24482
0
LINE
8
BLACK
6
CONTINUOUS
10
1.97624
20
-2.24482
11
1.97624
21
-2.23957
0
LINE
8
BLACK
6
CONTINUOUS
10
1.97624
20
-2.23957
11
1.97642
21
-2.23856
0
LINE
8
BLACK
6
CONTINUOUS
10
1.97642
20
-2.23856
11
1.97653
21
-2.23842
0
LINE
8
BLACK
6
CONTINUOUS
10
1.97653
20
-2.23842
11
1.97654
21
-2.23835
0
LINE
8
BLACK
6
CONTINUOUS
10
1.97654
20
-2.23835
11
1.97647
21
-2.23837
0
LINE
8
BLACK
6
CONTINUOUS
10
1.97647
20
-2.23837
11
1.9732
21
-2.24055
0
LINE
8
BLACK
6
CONTINUOUS
10
1.9732
20
-2.24055
11
1.97243
21
-2.24132
0
LINE
8
BLACK
6
CONTINUOUS
10
1.97243
20
-2.24132
11
1.97165
21
-2.24289
0
LINE
8
BLACK
6
CONTINUOUS
10
1.97165
20
-2.24289
11
1.97165
21
-2.24744
0
LINE
8
BLACK
6
CONTINUOUS
10
1.97165
20
-2.24744
11
1.97147
21
-2.24845
0
LINE
8
BLACK
6
CONTINUOUS
10
1.97147
20
-2.24845
11
1.97017
21
-2.25
0
LINE
8
BLACK
6
CONTINUOUS
10
1.97017
20
-2.25
11
1.96818
21
-2.25035
0
LINE
8
BLACK
6
CONTINUOUS
10
1.96818
20
-2.25035
11
1.96643
21
-2.24934
0
LINE
8
BLACK
6
CONTINUOUS
10
1.96643
20
-2.24934
11
1.96574
21
-2.24744
0
LINE
8
BLACK
6
CONTINUOUS
10
1.96574
20
-2.24744
11
1.96574
21
-2.24219
0
LINE
8
BLACK
6
CONTINUOUS
10
1.96574
20
-2.24219
11
1.96592
21
-2.24118
0
LINE
8
BLACK
6
CONTINUOUS
10
1.96592
20
-2.24118
11
1.96603
21
-2.24105
0
LINE
8
BLACK
6
CONTINUOUS
10
1.96603
20
-2.24105
11
1.96605
21
-2.24087
0
LINE
8
BLACK
6
CONTINUOUS
10
1.96605
20
-2.24087
11
1.96737
21
-2.23825
0
LINE
8
BLACK
6
CONTINUOUS
10
1.96737
20
-2.23825
11
1.96789
21
-2.23754
0
LINE
8
BLACK
6
CONTINUOUS
10
1.96789
20
-2.23754
11
1.96792
21
-2.23748
0
LINE
8
BLACK
6
CONTINUOUS
10
1.96792
20
-2.23748
11
1.96923
21
-2.23617
0
LINE
8
BLACK
6
CONTINUOUS
10
1.96923
20
-2.23617
11
1.9696
21
-2.23591
0
LINE
8
BLACK
6
CONTINUOUS
10
1.9696
20
-2.23591
11
1.96968
21
-2.2358
0
LINE
8
BLACK
6
CONTINUOUS
10
1.96968
20
-2.2358
11
1.97362
21
-2.23317
0
LINE
8
BLACK
6
CONTINUOUS
10
1.97362
20
-2.23317
11
1.97453
21
-2.23277
0
LINE
8
BLACK
6
CONTINUOUS
10
1.97453
20
-2.23277
11
1.97454
21
-2.23277
0
LINE
8
BLACK
6
CONTINUOUS
10
1.97454
20
-2.23277
11
1.97979
21
-2.23145
0
LINE
8
BLACK
6
CONTINUOUS
10
1.97979
20
-2.23145
11
1.98038
21
-2.23141
0
LINE
8
BLACK
6
CONTINUOUS
10
1.98038
20
-2.23141
11
1.98051
21
-2.23136
0
LINE
8
BLACK
6
CONTINUOUS
10
1.98051
20
-2.23136
11
1.991
21
-2.23136
0
LINE
8
BLACK
6
CONTINUOUS
10
1.991
20
-2.23136
11
1.99201
21
-2.23154
0
LINE
8
BLACK
6
CONTINUOUS
10
1.98357
20
-2.23806
11
1.98293
21
-2.23869
0
LINE
8
BLACK
6
CONTINUOUS
10
1.98293
20
-2.23869
11
1.98215
21
-2.24026
0
LINE
8
BLACK
6
CONTINUOUS
10
1.98215
20
-2.24026
11
1.98215
21
-2.24412
0
LINE
8
BLACK
6
CONTINUOUS
10
1.98215
20
-2.24412
11
1.98293
21
-2.24569
0
LINE
8
BLACK
6
CONTINUOUS
10
1.98293
20
-2.24569
11
1.98357
21
-2.24633
0
LINE
8
BLACK
6
CONTINUOUS
10
1.98357
20
-2.24633
11
1.98514
21
-2.24711
0
LINE
8
BLACK
6
CONTINUOUS
10
1.98514
20
-2.24711
11
1.99031
21
-2.24711
0
LINE
8
BLACK
6
CONTINUOUS
10
1.99031
20
-2.24711
11
1.99188
21
-2.24633
0
LINE
8
BLACK
6
CONTINUOUS
10
1.99188
20
-2.24633
11
1.99251
21
-2.24569
0
LINE
8
BLACK
6
CONTINUOUS
10
1.99251
20
-2.24569
11
1.9933
21
-2.24412
0
LINE
8
BLACK
6
CONTINUOUS
10
1.9933
20
-2.24412
11
1.9933
21
-2.24026
0
LINE
8
BLACK
6
CONTINUOUS
10
1.9933
20
-2.24026
11
1.99251
21
-2.23869
0
LINE
8
BLACK
6
CONTINUOUS
10
1.99251
20
-2.23869
11
1.99188
21
-2.23806
0
LINE
8
BLACK
6
CONTINUOUS
10
1.99188
20
-2.23806
11
1.99031
21
-2.23727
0
LINE
8
BLACK
6
CONTINUOUS
10
1.99031
20
-2.23727
11
1.98514
21
-2.23727
0
LINE
8
BLACK
6
CONTINUOUS
10
1.98514
20
-2.23727
11
1.98357
21
-2.23806
0
LINE
8
BLACK
6
CONTINUOUS
10
2.12903
20
-2.23825
11
2.1296
21
-2.23836
0
LINE
8
BLACK
6
CONTINUOUS
10
2.1296
20
-2.23836
11
2.12971
21
-2.23853
0
LINE
8
BLACK
6
CONTINUOUS
10
2.12971
20
-2.23853
11
2.1299
21
-2.23861
0
LINE
8
BLACK
6
CONTINUOUS
10
2.1299
20
-2.23861
11
2.1399
21
-2.24861
0
LINE
8
BLACK
6
CONTINUOUS
10
2.1399
20
-2.24861
11
2.14012
21
-2.24914
0
LINE
8
BLACK
6
CONTINUOUS
10
2.14012
20
-2.24914
11
2.14043
21
-2.24961
0
LINE
8
BLACK
6
CONTINUOUS
10
2.14043
20
-2.24961
11
2.14039
21
-2.24981
0
LINE
8
BLACK
6
CONTINUOUS
10
2.14039
20
-2.24981
11
2.14047
21
-2.25
0
LINE
8
BLACK
6
CONTINUOUS
10
2.14047
20
-2.25
11
2.14025
21
-2.25053
0
LINE
8
BLACK
6
CONTINUOUS
10
2.14025
20
-2.25053
11
2.14014
21
-2.25109
0
LINE
8
BLACK
6
CONTINUOUS
10
2.14014
20
-2.25109
11
2.13014
21
-2.26609
0
LINE
8
BLACK
6
CONTINUOUS
10
2.13014
20
-2.26609
11
2.12997
21
-2.2662
0
LINE
8
BLACK
6
CONTINUOUS
10
2.12997
20
-2.2662
11
2.1299
21
-2.26639
0
LINE
8
BLACK
6
CONTINUOUS
10
2.1299
20
-2.26639
11
2.12937
21
-2.26661
0
LINE
8
BLACK
6
CONTINUOUS
10
2.12937
20
-2.26661
11
2.12889
21
-2.26693
0
LINE
8
BLACK
6
CONTINUOUS
10
2.12889
20
-2.26693
11
2.12869
21
-2.26689
0
LINE
8
BLACK
6
CONTINUOUS
10
2.12869
20
-2.26689
11
2.1285
21
-2.26697
0
LINE
8
BLACK
6
CONTINUOUS
10
2.1285
20
-2.26697
11
2.12797
21
-2.26675
0
LINE
8
BLACK
6
CONTINUOUS
10
2.12797
20
-2.26675
11
2.12741
21
-2.26664
0
LINE
8
BLACK
6
CONTINUOUS
10
2.12741
20
-2.26664
11
2.1273
21
-2.26647
0
LINE
8
BLACK
6
CONTINUOUS
10
2.1273
20
-2.26647
11
2.12711
21
-2.26639
0
LINE
8
BLACK
6
CONTINUOUS
10
2.12711
20
-2.26639
11
2.11711
21
-2.25639
0
LINE
8
BLACK
6
CONTINUOUS
10
2.11711
20
-2.25639
11
2.11689
21
-2.25586
0
LINE
8
BLACK
6
CONTINUOUS
10
2.11689
20
-2.25586
11
2.11657
21
-2.25539
0
LINE
8
BLACK
6
CONTINUOUS
10
2.11657
20
-2.25539
11
2.11661
21
-2.25519
0
LINE
8
BLACK
6
CONTINUOUS
10
2.11661
20
-2.25519
11
2.11654
21
-2.255
0
LINE
8
BLACK
6
CONTINUOUS
10
2.11654
20
-2.255
11
2.11675
21
-2.25447
0
LINE
8
BLACK
6
CONTINUOUS
10
2.11675
20
-2.25447
11
2.11687
21
-2.25391
0
LINE
8
BLACK
6
CONTINUOUS
10
2.11687
20
-2.25391
11
2.12687
21
-2.23891
0
LINE
8
BLACK
6
CONTINUOUS
10
2.12687
20
-2.23891
11
2.12703
21
-2.2388
0
LINE
8
BLACK
6
CONTINUOUS
10
2.12703
20
-2.2388
11
2.12711
21
-2.23861
0
LINE
8
BLACK
6
CONTINUOUS
10
2.12711
20
-2.23861
11
2.12764
21
-2.23839
0
LINE
8
BLACK
6
CONTINUOUS
10
2.12764
20
-2.23839
11
2.12812
21
-2.23807
0
LINE
8
BLACK
6
CONTINUOUS
10
2.12812
20
-2.23807
11
2.12832
21
-2.23811
0
LINE
8
BLACK
6
CONTINUOUS
10
2.12832
20
-2.23811
11
2.1285
21
-2.23803
0
LINE
8
BLACK
6
CONTINUOUS
10
2.1285
20
-2.23803
11
2.12903
21
-2.23825
0
LINE
8
BLACK
6
CONTINUOUS
10
2.14403
20
-2.25325
11
2.1446
21
-2.25336
0
LINE
8
BLACK
6
CONTINUOUS
10
2.1446
20
-2.25336
11
2.14471
21
-2.25353
0
LINE
8
BLACK
6
CONTINUOUS
10
2.14471
20
-2.25353
11
2.1449
21
-2.25361
0
LINE
8
BLACK
6
CONTINUOUS
10
2.1449
20
-2.25361
11
2.1549
21
-2.26361
0
LINE
8
BLACK
6
CONTINUOUS
10
2.1549
20
-2.26361
11
2.15512
21
-2.26414
0
LINE
8
BLACK
6
CONTINUOUS
10
2.15512
20
-2.26414
11
2.15543
21
-2.26461
0
LINE
8
BLACK
6
CONTINUOUS
10
2.15543
20
-2.26461
11
2.15539
21
-2.26481
0
LINE
8
BLACK
6
CONTINUOUS
10
2.15539
20
-2.26481
11
2.15547
21
-2.265
0
LINE
8
BLACK
6
CONTINUOUS
10
2.15547
20
-2.265
11
2.15525
21
-2.26553
0
LINE
8
BLACK
6
CONTINUOUS
10
2.15525
20
-2.26553
11
2.15514
21
-2.26609
0
LINE
8
BLACK
6
CONTINUOUS
10
2.15514
20
-2.26609
11
2.14514
21
-2.28109
0
LINE
8
BLACK
6
CONTINUOUS
10
2.14514
20
-2.28109
11
2.14497
21
-2.2812
0
LINE
8
BLACK
6
CONTINUOUS
10
2.14497
20
-2.2812
11
2.1449
21
-2.28139
0
LINE
8
BLACK
6
CONTINUOUS
10
2.1449
20
-2.28139
11
2.14437
21
-2.28161
0
LINE
8
BLACK
6
CONTINUOUS
10
2.14437
20
-2.28161
11
2.14389
21
-2.28193
0
LINE
8
BLACK
6
CONTINUOUS
10
2.14389
20
-2.28193
11
2.14369
21
-2.28189
0
LINE
8
BLACK
6
CONTINUOUS
10
2.14369
20
-2.28189
11
2.1435
21
-2.28197
0
LINE
8
BLACK
6
CONTINUOUS
10
2.1435
20
-2.28197
11
2.14297
21
-2.28175
0
LINE
8
BLACK
6
CONTINUOUS
10
2.14297
20
-2.28175
11
2.14241
21
-2.28164
0
LINE
8
BLACK
6
CONTINUOUS
10
2.14241
20
-2.28164
11
2.1423
21
-2.28147
0
LINE
8
BLACK
6
CONTINUOUS
10
2.1423
20
-2.28147
11
2.14211
21
-2.28139
0
LINE
8
BLACK
6
CONTINUOUS
10
2.14211
20
-2.28139
11
2.13211
21
-2.27139
0
LINE
8
BLACK
6
CONTINUOUS
10
2.13211
20
-2.27139
11
2.13189
21
-2.27086
0
LINE
8
BLACK
6
CONTINUOUS
10
2.13189
20
-2.27086
11
2.13157
21
-2.27039
0
LINE
8
BLACK
6
CONTINUOUS
10
2.13157
20
-2.27039
11
2.13161
21
-2.27019
0
LINE
8
BLACK
6
CONTINUOUS
10
2.13161
20
-2.27019
11
2.13154
21
-2.27
0
LINE
8
BLACK
6
CONTINUOUS
10
2.13154
20
-2.27
11
2.13175
21
-2.26947
0
LINE
8
BLACK
6
CONTINUOUS
10
2.13175
20
-2.26947
11
2.13187
21
-2.26891
0
LINE
8
BLACK
6
CONTINUOUS
10
2.13187
20
-2.26891
11
2.14187
21
-2.25391
0
LINE
8
BLACK
6
CONTINUOUS
10
2.14187
20
-2.25391
11
2.14203
21
-2.2538
0
LINE
8
BLACK
6
CONTINUOUS
10
2.14203
20
-2.2538
11
2.14211
21
-2.25361
0
LINE
8
BLACK
6
CONTINUOUS
10
2.14211
20
-2.25361
11
2.14264
21
-2.25339
0
LINE
8
BLACK
6
CONTINUOUS
10
2.14264
20
-2.25339
11
2.14312
21
-2.25307
0
LINE
8
BLACK
6
CONTINUOUS
10
2.14312
20
-2.25307
11
2.14332
21
-2.25311
0
LINE
8
BLACK
6
CONTINUOUS
10
2.14332
20
-2.25311
11
2.1435
21
-2.25303
0
LINE
8
BLACK
6
CONTINUOUS
10
2.1435
20
-2.25303
11
2.14403
21
-2.25325
0
LINE
8
BLACK
6
CONTINUOUS
10
2.15903
20
-2.26825
11
2.1596
21
-2.26836
0
LINE
8
BLACK
6
CONTINUOUS
10
2.1596
20
-2.26836
11
2.15971
21
-2.26853
0
LINE
8
BLACK
6
CONTINUOUS
10
2.15971
20
-2.26853
11
2.1599
21
-2.26861
0
LINE
8
BLACK
6
CONTINUOUS
10
2.1599
20
-2.26861
11
2.1699
21
-2.27861
0
LINE
8
BLACK
6
CONTINUOUS
10
2.1699
20
-2.27861
11
2.17012
21
-2.27914
0
LINE
8
BLACK
6
CONTINUOUS
10
2.17012
20
-2.27914
11
2.17043
21
-2.27961
0
LINE
8
BLACK
6
CONTINUOUS
10
2.17043
20
-2.27961
11
2.17039
21
-2.27981
0
LINE
8
BLACK
6
CONTINUOUS
10
2.17039
20
-2.27981
11
2.17047
21
-2.28
0
LINE
8
BLACK
6
CONTINUOUS
10
2.17047
20
-2.28
11
2.17025
21
-2.28053
0
LINE
8
BLACK
6
CONTINUOUS
10
2.17025
20
-2.28053
11
2.17014
21
-2.28109
0
LINE
8
BLACK
6
CONTINUOUS
10
2.17014
20
-2.28109
11
2.16014
21
-2.29609
0
LINE
8
BLACK
6
CONTINUOUS
10
2.16014
20
-2.29609
11
2.15997
21
-2.2962
0
LINE
8
BLACK
6
CONTINUOUS
10
2.15997
20
-2.2962
11
2.1599
21
-2.29639
0
LINE
8
BLACK
6
CONTINUOUS
10
2.1599
20
-2.29639
11
2.15937
21
-2.29661
0
LINE
8
BLACK
6
CONTINUOUS
10
2.15937
20
-2.29661
11
2.15889
21
-2.29693
0
LINE
8
BLACK
6
CONTINUOUS
10
2.15889
20
-2.29693
11
2.15869
21
-2.29689
0
LINE
8
BLACK
6
CONTINUOUS
10
2.15869
20
-2.29689
11
2.1585
21
-2.29697
0
LINE
8
BLACK
6
CONTINUOUS
10
2.1585
20
-2.29697
11
2.15797
21
-2.29675
0
LINE
8
BLACK
6
CONTINUOUS
10
2.15797
20
-2.29675
11
2.15741
21
-2.29664
0
LINE
8
BLACK
6
CONTINUOUS
10
2.15741
20
-2.29664
11
2.1573
21
-2.29647
0
LINE
8
BLACK
6
CONTINUOUS
10
2.1573
20
-2.29647
11
2.15711
21
-2.29639
0
LINE
8
BLACK
6
CONTINUOUS
10
2.15711
20
-2.29639
11
2.14711
21
-2.28639
0
LINE
8
BLACK
6
CONTINUOUS
10
2.14711
20
-2.28639
11
2.14689
21
-2.28586
0
LINE
8
BLACK
6
CONTINUOUS
10
2.14689
20
-2.28586
11
2.14657
21
-2.28539
0
LINE
8
BLACK
6
CONTINUOUS
10
2.14657
20
-2.28539
11
2.14661
21
-2.28519
0
LINE
8
BLACK
6
CONTINUOUS
10
2.14661
20
-2.28519
11
2.14654
21
-2.285
0
LINE
8
BLACK
6
CONTINUOUS
10
2.14654
20
-2.285
11
2.14675
21
-2.28447
0
LINE
8
BLACK
6
CONTINUOUS
10
2.14675
20
-2.28447
11
2.14687
21
-2.28391
0
LINE
8
BLACK
6
CONTINUOUS
10
2.14687
20
-2.28391
11
2.15687
21
-2.26891
0
LINE
8
BLACK
6
CONTINUOUS
10
2.15687
20
-2.26891
11
2.15703
21
-2.2688
0
LINE
8
BLACK
6
CONTINUOUS
10
2.15703
20
-2.2688
11
2.15711
21
-2.26861
0
LINE
8
BLACK
6
CONTINUOUS
10
2.15711
20
-2.26861
11
2.15764
21
-2.26839
0
LINE
8
BLACK
6
CONTINUOUS
10
2.15764
20
-2.26839
11
2.15812
21
-2.26807
0
LINE
8
BLACK
6
CONTINUOUS
10
2.15812
20
-2.26807
11
2.15832
21
-2.26811
0
LINE
8
BLACK
6
CONTINUOUS
10
2.15832
20
-2.26811
11
2.1585
21
-2.26803
0
LINE
8
BLACK
6
CONTINUOUS
10
2.1585
20
-2.26803
11
2.15903
21
-2.26825
0
LINE
8
BLACK
6
CONTINUOUS
10
2.09903
20
-2.24325
11
2.0996
21
-2.24336
0
LINE
8
BLACK
6
CONTINUOUS
10
2.0996
20
-2.24336
11
2.09971
21
-2.24353
0
LINE
8
BLACK
6
CONTINUOUS
10
2.09971
20
-2.24353
11
2.0999
21
-2.24361
0
LINE
8
BLACK
6
CONTINUOUS
10
2.0999
20
-2.24361
11
2.1099
21
-2.25361
0
LINE
8
BLACK
6
CONTINUOUS
10
2.1099
20
-2.25361
11
2.11012
21
-2.25414
0
LINE
8
BLACK
6
CONTINUOUS
10
2.11012
20
-2.25414
11
2.11043
21
-2.25461
0
LINE
8
BLACK
6
CONTINUOUS
10
2.11043
20
-2.25461
11
2.11039
21
-2.25481
0
LINE
8
BLACK
6
CONTINUOUS
10
2.11039
20
-2.25481
11
2.11047
21
-2.255
0
LINE
8
BLACK
6
CONTINUOUS
10
2.11047
20
-2.255
11
2.11025
21
-2.25553
0
LINE
8
BLACK
6
CONTINUOUS
10
2.11025
20
-2.25553
11
2.11014
21
-2.25609
0
LINE
8
BLACK
6
CONTINUOUS
10
2.11014
20
-2.25609
11
2.10014
21
-2.27109
0
LINE
8
BLACK
6
CONTINUOUS
10
2.10014
20
-2.27109
11
2.09997
21
-2.2712
0
LINE
8
BLACK
6
CONTINUOUS
10
2.09997
20
-2.2712
11
2.0999
21
-2.27139
0
LINE
8
BLACK
6
CONTINUOUS
10
2.0999
20
-2.27139
11
2.09937
21
-2.27161
0
LINE
8
BLACK
6
CONTINUOUS
10
2.09937
20
-2.27161
11
2.09889
21
-2.27193
0
LINE
8
BLACK
6
CONTINUOUS
10
2.09889
20
-2.27193
11
2.09869
21
-2.27189
0
LINE
8
BLACK
6
CONTINUOUS
10
2.09869
20
-2.27189
11
2.0985
21
-2.27197
0
LINE
8
BLACK
6
CONTINUOUS
10
2.0985
20
-2.27197
11
2.09797
21
-2.27175
0
LINE
8
BLACK
6
CONTINUOUS
10
2.09797
20
-2.27175
11
2.09741
21
-2.27164
0
LINE
8
BLACK
6
CONTINUOUS
10
2.09741
20
-2.27164
11
2.0973
21
-2.27147
0
LINE
8
BLACK
6
CONTINUOUS
10
2.0973
20
-2.27147
11
2.09711
21
-2.27139
0
LINE
8
BLACK
6
CONTINUOUS
10
2.09711
20
-2.27139
11
2.08711
21
-2.26139
0
LINE
8
BLACK
6
CONTINUOUS
10
2.08711
20
-2.26139
11
2.08689
21
-2.26086
0
LINE
8
BLACK
6
CONTINUOUS
10
2.08689
20
-2.26086
11
2.08657
21
-2.26039
0
LINE
8
BLACK
6
CONTINUOUS
10
2.08657
20
-2.26039
11
2.08661
21
-2.26019
0
LINE
8
BLACK
6
CONTINUOUS
10
2.08661
20
-2.26019
11
2.08654
21
-2.26
0
LINE
8
BLACK
6
CONTINUOUS
10
2.08654
20
-2.26
11
2.08675
21
-2.25947
0
LINE
8
BLACK
6
CONTINUOUS
10
2.08675
20
-2.25947
11
2.08687
21
-2.25891
0
LINE
8
BLACK
6
CONTINUOUS
10
2.08687
20
-2.25891
11
2.09687
21
-2.24391
0
LINE
8
BLACK
6
CONTINUOUS
10
2.09687
20
-2.24391
11
2.09703
21
-2.2438
0
LINE
8
BLACK
6
CONTINUOUS
10
2.09703
20
-2.2438
11
2.09711
21
-2.24361
0
LINE
8
BLACK
6
CONTINUOUS
10
2.09711
20
-2.24361
11
2.09764
21
-2.24339
0
LINE
8
BLACK
6
CONTINUOUS
10
2.09764
20
-2.24339
11
2.09812
21
-2.24307
0
LINE
8
BLACK
6
CONTINUOUS
10
2.09812
20
-2.24307
11
2.09832
21
-2.24311
0
LINE
8
BLACK
6
CONTINUOUS
10
2.09832
20
-2.24311
11
2.0985
21
-2.24303
0
LINE
8
BLACK
6
CONTINUOUS
10
2.0985
20
-2.24303
11
2.09903
21
-2.24325
0
LINE
8
BLACK
6
CONTINUOUS
10
2.11403
20
-2.25825
11
2.1146
21
-2.25836
0
LINE
8
BLACK
6
CONTINUOUS
10
2.1146
20
-2.25836
11
2.11471
21
-2.25853
0
LINE
8
BLACK
6
CONTINUOUS
10
2.11471
20
-2.25853
11
2.1149
21
-2.25861
0
LINE
8
BLACK
6
CONTINUOUS
10
2.1149
20
-2.25861
11
2.1249
21
-2.26861
0
LINE
8
BLACK
6
CONTINUOUS
10
2.1249
20
-2.26861
11
2.12512
21
-2.26914
0
LINE
8
BLACK
6
CONTINUOUS
10
2.12512
20
-2.26914
11
2.12543
21
-2.26961
0
LINE
8
BLACK
6
CONTINUOUS
10
2.12543
20
-2.26961
11
2.12539
21
-2.26981
0
LINE
8
BLACK
6
CONTINUOUS
10
2.12539
20
-2.26981
11
2.12547
21
-2.27
0
LINE
8
BLACK
6
CONTINUOUS
10
2.12547
20
-2.27
11
2.12525
21
-2.27053
0
LINE
8
BLACK
6
CONTINUOUS
10
2.12525
20
-2.27053
11
2.12514
21
-2.27109
0
LINE
8
BLACK
6
CONTINUOUS
10
2.12514
20
-2.27109
11
2.11514
21
-2.28609
0
LINE
8
BLACK
6
CONTINUOUS
10
2.11514
20
-2.28609
11
2.11497
21
-2.2862
0
LINE
8
BLACK
6
CONTINUOUS
10
2.11497
20
-2.2862
11
2.1149
21
-2.28639
0
LINE
8
BLACK
6
CONTINUOUS
10
2.1149
20
-2.28639
11
2.11437
21
-2.28661
0
LINE
8
BLACK
6
CONTINUOUS
10
2.11437
20
-2.28661
11
2.11389
21
-2.28693
0
LINE
8
BLACK
6
CONTINUOUS
10
2.11389
20
-2.28693
11
2.11369
21
-2.28689
0
LINE
8
BLACK
6
CONTINUOUS
10
2.11369
20
-2.28689
11
2.1135
21
-2.28697
0
LINE
8
BLACK
6
CONTINUOUS
10
2.1135
20
-2.28697
11
2.11297
21
-2.28675
0
LINE
8
BLACK
6
CONTINUOUS
10
2.11297
20
-2.28675
11
2.11241
21
-2.28664
0
LINE
8
BLACK
6
CONTINUOUS
10
2.11241
20
-2.28664
11
2.1123
21
-2.28647
0
LINE
8
BLACK
6
CONTINUOUS
10
2.1123
20
-2.28647
11
2.11211
21
-2.28639
0
LINE
8
BLACK
6
CONTINUOUS
10
2.11211
20
-2.28639
11
2.10211
21
-2.27639
0
LINE
8
BLACK
6
CONTINUOUS
10
2.10211
20
-2.27639
11
2.10189
21
-2.27586
0
LINE
8
BLACK
6
CONTINUOUS
10
2.10189
20
-2.27586
11
2.10157
21
-2.27539
0
LINE
8
BLACK
6
CONTINUOUS
10
2.10157
20
-2.27539
11
2.10161
21
-2.27519
0
LINE
8
BLACK
6
CONTINUOUS
10
2.10161
20
-2.27519
11
2.10154
21
-2.275
0
LINE
8
BLACK
6
CONTINUOUS
10
2.10154
20
-2.275
11
2.10175
21
-2.27447
0
LINE
8
BLACK
6
CONTINUOUS
10
2.10175
20
-2.27447
11
2.10187
21
-2.27391
0
LINE
8
BLACK
6
CONTINUOUS
10
2.10187
20
-2.27391
11
2.11187
21
-2.25891
0
LINE
8
BLACK
6
CONTINUOUS
10
2.11187
20
-2.25891
11
2.11203
21
-2.2588
0
LINE
8
BLACK
6
CONTINUOUS
10
2.11203
20
-2.2588
11
2.11211
21
-2.25861
0
LINE
8
BLACK
6
CONTINUOUS
10
2.11211
20
-2.25861
11
2.11264
21
-2.25839
0
LINE
8
BLACK
6
CONTINUOUS
10
2.11264
20
-2.25839
11
2.11312
21
-2.25807
0
LINE
8
BLACK
6
CONTINUOUS
10
2.11312
20
-2.25807
11
2.11332
21
-2.25811
0
LINE
8
BLACK
6
CONTINUOUS
10
2.11332
20
-2.25811
11
2.1135
21
-2.25803
0
LINE
8
BLACK
6
CONTINUOUS
10
2.1135
20
-2.25803
11
2.11403
21
-2.25825
0
LINE
8
BLACK
6
CONTINUOUS
10
1.87033
20
-2.24302
11
1.88247
21
-2.25111
0
LINE
8
BLACK
6
CONTINUOUS
10
1.88247
20
-2.25111
11
1.89462
21
-2.24302
0
LINE
8
BLACK
6
CONTINUOUS
10
1.89462
20
-2.24302
11
1.89555
21
-2.2426
0
LINE
8
BLACK
6
CONTINUOUS
10
1.89555
20
-2.2426
11
1.89756
21
-2.24283
0
LINE
8
BLACK
6
CONTINUOUS
10
1.89756
20
-2.24283
11
1.89896
21
-2.24429
0
LINE
8
BLACK
6
CONTINUOUS
10
1.89896
20
-2.24429
11
1.89909
21
-2.2463
0
LINE
8
BLACK
6
CONTINUOUS
10
1.89909
20
-2.2463
11
1.89789
21
-2.24793
0
LINE
8
BLACK
6
CONTINUOUS
10
1.89789
20
-2.24793
11
1.8878
21
-2.25466
0
LINE
8
BLACK
6
CONTINUOUS
10
1.8878
20
-2.25466
11
1.89789
21
-2.26139
0
LINE
8
BLACK
6
CONTINUOUS
10
1.89789
20
-2.26139
11
1.89863
21
-2.2621
0
LINE
8
BLACK
6
CONTINUOUS
10
1.89863
20
-2.2621
11
1.8992
21
-2.26404
0
LINE
8
BLACK
6
CONTINUOUS
10
1.8992
20
-2.26404
11
1.89839
21
-2.26588
0
LINE
8
BLACK
6
CONTINUOUS
10
1.89839
20
-2.26588
11
1.89658
21
-2.26678
0
LINE
8
BLACK
6
CONTINUOUS
10
1.89658
20
-2.26678
11
1.89462
21
-2.2663
0
LINE
8
BLACK
6
CONTINUOUS
10
1.89462
20
-2.2663
11
1.88247
21
-2.25821
0
LINE
8
BLACK
6
CONTINUOUS
10
1.88247
20
-2.25821
11
1.87033
21
-2.2663
0
LINE
8
BLACK
6
CONTINUOUS
10
1.87033
20
-2.2663
11
1.86939
21
-2.26671
0
LINE
8
BLACK
6
CONTINUOUS
10
1.86939
20
-2.26671
11
1.86739
21
-2.26649
0
LINE
8
BLACK
6
CONTINUOUS
10
1.86739
20
-2.26649
11
1.86599
21
-2.26503
0
LINE
8
BLACK
6
CONTINUOUS
10
1.86599
20
-2.26503
11
1.86586
21
-2.26302
0
LINE
8
BLACK
6
CONTINUOUS
10
1.86586
20
-2.26302
11
1.86706
21
-2.26139
0
LINE
8
BLACK
6
CONTINUOUS
10
1.86706
20
-2.26139
11
1.87715
21
-2.25466
0
LINE
8
BLACK
6
CONTINUOUS
10
1.87715
20
-2.25466
11
1.86706
21
-2.24793
0
LINE
8
BLACK
6
CONTINUOUS
10
1.86706
20
-2.24793
11
1.86631
21
-2.24722
0
LINE
8
BLACK
6
CONTINUOUS
10
1.86631
20
-2.24722
11
1.86575
21
-2.24528
0
LINE
8
BLACK
6
CONTINUOUS
10
1.86575
20
-2.24528
11
1.86656
21
-2.24343
0
LINE
8
BLACK
6
CONTINUOUS
10
1.86656
20
-2.24343
11
1.86837
21
-2.24254
0
LINE
8
BLACK
6
CONTINUOUS
10
1.86837
20
-2.24254
11
1.87033
21
-2.24302
0
LINE
8
BLACK
6
CONTINUOUS
10
1.88633
20
-2.19013
11
1.88647
21
-2.19011
0
LINE
8
BLACK
6
CONTINUOUS
10
1.88647
20
-2.19011
11
1.89172
21
-2.19143
0
LINE
8
BLACK
6
CONTINUOUS
10
1.89172
20
-2.19143
11
1.89219
21
-2.19163
0
LINE
8
BLACK
6
CONTINUOUS
10
1.89219
20
-2.19163
11
1.89232
21
-2.19165
0
LINE
8
BLACK
6
CONTINUOUS
10
1.89232
20
-2.19165
11
1.89495
21
-2.19296
0
LINE
8
BLACK
6
CONTINUOUS
10
1.89495
20
-2.19296
11
1.89566
21
-2.19349
0
LINE
8
BLACK
6
CONTINUOUS
10
1.89566
20
-2.19349
11
1.89572
21
-2.19352
0
LINE
8
BLACK
6
CONTINUOUS
10
1.89572
20
-2.19352
11
1.89703
21
-2.19483
0
LINE
8
BLACK
6
CONTINUOUS
10
1.89703
20
-2.19483
11
1.89754
21
-2.19555
0
LINE
8
BLACK
6
CONTINUOUS
10
1.89754
20
-2.19555
11
1.89758
21
-2.1956
0
LINE
8
BLACK
6
CONTINUOUS
10
1.89758
20
-2.1956
11
1.89889
21
-2.19822
0
LINE
8
BLACK
6
CONTINUOUS
10
1.89889
20
-2.19822
11
1.89919
21
-2.1992
0
LINE
8
BLACK
6
CONTINUOUS
10
1.89919
20
-2.1992
11
1.89915
21
-2.19937
0
LINE
8
BLACK
6
CONTINUOUS
10
1.89915
20
-2.19937
11
1.89921
21
-2.19954
0
LINE
8
BLACK
6
CONTINUOUS
10
1.89921
20
-2.19954
11
1.89921
21
-2.20217
0
LINE
8
BLACK
6
CONTINUOUS
10
1.89921
20
-2.20217
11
1.89903
21
-2.20318
0
LINE
8
BLACK
6
CONTINUOUS
10
1.89903
20
-2.20318
11
1.89891
21
-2.20331
0
LINE
8
BLACK
6
CONTINUOUS
10
1.89891
20
-2.20331
11
1.89889
21
-2.20349
0
LINE
8
BLACK
6
CONTINUOUS
10
1.89889
20
-2.20349
11
1.89758
21
-2.20611
0
LINE
8
BLACK
6
CONTINUOUS
10
1.89758
20
-2.20611
11
1.89706
21
-2.20682
0
LINE
8
BLACK
6
CONTINUOUS
10
1.89706
20
-2.20682
11
1.89703
21
-2.20688
0
LINE
8
BLACK
6
CONTINUOUS
10
1.89703
20
-2.20688
11
1.89572
21
-2.20819
0
LINE
8
BLACK
6
CONTINUOUS
10
1.89572
20
-2.20819
11
1.89499
21
-2.2087
0
LINE
8
BLACK
6
CONTINUOUS
10
1.89499
20
-2.2087
11
1.89495
21
-2.20874
0
LINE
8
BLACK
6
CONTINUOUS
10
1.89495
20
-2.20874
11
1.89232
21
-2.21006
0
LINE
8
BLACK
6
CONTINUOUS
10
1.89232
20
-2.21006
11
1.89184
21
-2.2102
0
LINE
8
BLACK
6
CONTINUOUS
10
1.89184
20
-2.2102
11
1.89172
21
-2.21028
0
LINE
8
BLACK
6
CONTINUOUS
10
1.89172
20
-2.21028
11
1.88647
21
-2.21159
0
LINE
8
BLACK
6
CONTINUOUS
10
1.88647
20
-2.21159
11
1.88588
21
-2.21163
0
LINE
8
BLACK
6
CONTINUOUS
10
1.88588
20
-2.21163
11
1.88575
21
-2.21168
0
LINE
8
BLACK
6
CONTINUOUS
10
1.88575
20
-2.21168
11
1.87919
21
-2.21168
0
LINE
8
BLACK
6
CONTINUOUS
10
1.87919
20
-2.21168
11
1.87861
21
-2.21158
0
LINE
8
BLACK
6
CONTINUOUS
10
1.87861
20
-2.21158
11
1.87848
21
-2.21159
0
LINE
8
BLACK
6
CONTINUOUS
10
1.87848
20
-2.21159
11
1.87323
21
-2.21028
0
LINE
8
BLACK
6
CONTINUOUS
10
1.87323
20
-2.21028
11
1.87276
21
-2.21007
0
LINE
8
BLACK
6
CONTINUOUS
10
1.87276
20
-2.21007
11
1.87262
21
-2.21006
0
LINE
8
BLACK
6
CONTINUOUS
10
1.87262
20
-2.21006
11
1.87
21
-2.20874
0
LINE
8
BLACK
6
CONTINUOUS
10
1.87
20
-2.20874
11
1.86929
21
-2.20822
0
LINE
8
BLACK
6
CONTINUOUS
10
1.86929
20
-2.20822
11
1.86923
21
-2.20819
0
LINE
8
BLACK
6
CONTINUOUS
10
1.86923
20
-2.20819
11
1.86792
21
-2.20688
0
LINE
8
BLACK
6
CONTINUOUS
10
1.86792
20
-2.20688
11
1.86741
21
-2.20615
0
LINE
8
BLACK
6
CONTINUOUS
10
1.86741
20
-2.20615
11
1.86737
21
-2.20611
0
LINE
8
BLACK
6
CONTINUOUS
10
1.86737
20
-2.20611
11
1.86605
21
-2.20349
0
LINE
8
BLACK
6
CONTINUOUS
10
1.86605
20
-2.20349
11
1.86576
21
-2.2025
0
LINE
8
BLACK
6
CONTINUOUS
10
1.86576
20
-2.2025
11
1.8658
21
-2.20233
0
LINE
8
BLACK
6
CONTINUOUS
10
1.8658
20
-2.20233
11
1.86574
21
-2.20217
0
LINE
8
BLACK
6
CONTINUOUS
10
1.86574
20
-2.20217
11
1.86574
21
-2.19954
0
LINE
8
BLACK
6
CONTINUOUS
10
1.86574
20
-2.19954
11
1.86592
21
-2.19853
0
LINE
8
BLACK
6
CONTINUOUS
10
1.86592
20
-2.19853
11
1.86603
21
-2.1984
0
LINE
8
BLACK
6
CONTINUOUS
10
1.86603
20
-2.1984
11
1.86605
21
-2.19822
0
LINE
8
BLACK
6
CONTINUOUS
10
1.86605
20
-2.19822
11
1.86737
21
-2.1956
0
LINE
8
BLACK
6
CONTINUOUS
10
1.86737
20
-2.1956
11
1.86789
21
-2.19489
0
LINE
8
BLACK
6
CONTINUOUS
10
1.86789
20
-2.19489
11
1.86792
21
-2.19483
0
LINE
8
BLACK
6
CONTINUOUS
10
1.86792
20
-2.19483
11
1.86923
21
-2.19352
0
LINE
8
BLACK
6
CONTINUOUS
10
1.86923
20
-2.19352
11
1.86995
21
-2.19301
0
LINE
8
BLACK
6
CONTINUOUS
10
1.86995
20
-2.19301
11
1.87
21
-2.19296
0
LINE
8
BLACK
6
CONTINUOUS
10
1.87
20
-2.19296
11
1.87262
21
-2.19165
0
LINE
8
BLACK
6
CONTINUOUS
10
1.87262
20
-2.19165
11
1.87311
21
-2.1915
0
LINE
8
BLACK
6
CONTINUOUS
10
1.87311
20
-2.1915
11
1.87323
21
-2.19143
0
LINE
8
BLACK
6
CONTINUOUS
10
1.87323
20
-2.19143
11
1.87848
21
-2.19011
0
LINE
8
BLACK
6
CONTINUOUS
10
1.87848
20
-2.19011
11
1.87906
21
-2.19007
0
LINE
8
BLACK
6
CONTINUOUS
10
1.87906
20
-2.19007
11
1.87919
21
-2.19003
0
LINE
8
BLACK
6
CONTINUOUS
10
1.87919
20
-2.19003
11
1.88575
21
-2.19003
0
LINE
8
BLACK
6
CONTINUOUS
10
1.88575
20
-2.19003
11
1.88633
21
-2.19013
0
LINE
8
BLACK
6
CONTINUOUS
10
1.87497
20
-2.19708
11
1.87307
21
-2.19803
0
LINE
8
BLACK
6
CONTINUOUS
10
1.87307
20
-2.19803
11
1.87243
21
-2.19867
0
LINE
8
BLACK
6
CONTINUOUS
10
1.87243
20
-2.19867
11
1.87165
21
-2.20024
0
LINE
8
BLACK
6
CONTINUOUS
10
1.87165
20
-2.20024
11
1.87165
21
-2.20147
0
LINE
8
BLACK
6
CONTINUOUS
10
1.87165
20
-2.20147
11
1.87243
21
-2.20304
0
LINE
8
BLACK
6
CONTINUOUS
10
1.87243
20
-2.20304
11
1.87307
21
-2.20368
0
LINE
8
BLACK
6
CONTINUOUS
10
1.87307
20
-2.20368
11
1.87497
21
-2.20463
0
LINE
8
BLACK
6
CONTINUOUS
10
1.87497
20
-2.20463
11
1.87956
21
-2.20577
0
LINE
8
BLACK
6
CONTINUOUS
10
1.87956
20
-2.20577
11
1.88539
21
-2.20577
0
LINE
8
BLACK
6
CONTINUOUS
10
1.88539
20
-2.20577
11
1.88997
21
-2.20463
0
LINE
8
BLACK
6
CONTINUOUS
10
1.88997
20
-2.20463
11
1.89188
21
-2.20368
0
LINE
8
BLACK
6
CONTINUOUS
10
1.89188
20
-2.20368
11
1.89251
21
-2.20304
0
LINE
8
BLACK
6
CONTINUOUS
10
1.89251
20
-2.20304
11
1.8933
21
-2.20147
0
LINE
8
BLACK
6
CONTINUOUS
10
1.8933
20
-2.20147
11
1.8933
21
-2.20024
0
LINE
8
BLACK
6
CONTINUOUS
10
1.8933
20
-2.20024
11
1.89251
21
-2.19867
0
LINE
8
BLACK
6
CONTINUOUS
10
1.89251
20
-2.19867
11
1.89188
21
-2.19803
0
LINE
8
BLACK
6
CONTINUOUS
10
1.89188
20
-2.19803
11
1.88997
21
-2.19708
0
LINE
8
BLACK
6
CONTINUOUS
10
1.88997
20
-2.19708
11
1.88539
21
-2.19593
0
LINE
8
BLACK
6
CONTINUOUS
10
1.88539
20
-2.19593
11
1.87956
21
-2.19593
0
LINE
8
BLACK
6
CONTINUOUS
10
1.87956
20
-2.19593
11
1.87497
21
-2.19708
0
LINE
8
BLACK
6
CONTINUOUS
10
1.93633
20
-2.19013
11
1.93647
21
-2.19011
0
LINE
8
BLACK
6
CONTINUOUS
10
1.93647
20
-2.19011
11
1.94172
21
-2.19143
0
LINE
8
BLACK
6
CONTINUOUS
10
1.94172
20
-2.19143
11
1.94219
21
-2.19163
0
LINE
8
BLACK
6
CONTINUOUS
10
1.94219
20
-2.19163
11
1.94232
21
-2.19165
0
LINE
8
BLACK
6
CONTINUOUS
10
1.94232
20
-2.19165
11
1.94495
21
-2.19296
0
LINE
8
BLACK
6
CONTINUOUS
10
1.94495
20
-2.19296
11
1.94566
21
-2.19349
0
LINE
8
BLACK
6
CONTINUOUS
10
1.94566
20
-2.19349
11
1.94572
21
-2.19352
0
LINE
8
BLACK
6
CONTINUOUS
10
1.94572
20
-2.19352
11
1.94703
21
-2.19483
0
LINE
8
BLACK
6
CONTINUOUS
10
1.94703
20
-2.19483
11
1.94754
21
-2.19555
0
LINE
8
BLACK
6
CONTINUOUS
10
1.94754
20
-2.19555
11
1.94758
21
-2.1956
0
LINE
8
BLACK
6
CONTINUOUS
10
1.94758
20
-2.1956
11
1.94889
21
-2.19822
0
LINE
8
BLACK
6
CONTINUOUS
10
1.94889
20
-2.19822
11
1.94919
21
-2.1992
0
LINE
8
BLACK
6
CONTINUOUS
10
1.94919
20
-2.1992
11
1.94915
21
-2.19937
0
LINE
8
BLACK
6
CONTINUOUS
10
1.94915
20
-2.19937
11
1.94921
21
-2.19954
0
LINE
8
BLACK
6
CONTINUOUS
10
1.94921
20
-2.19954
11
1.94921
21
-2.20217
0
LINE
8
BLACK
6
CONTINUOUS
10
1.94921
20
-2.20217
11
1.94903
21
-2.20318
0
LINE
8
BLACK
6
CONTINUOUS
10
1.94903
20
-2.20318
11
1.94891
21
-2.20331
0
LINE
8
BLACK
6
CONTINUOUS
10
1.94891
20
-2.20331
11
1.94889
21
-2.20349
0
LINE
8
BLACK
6
CONTINUOUS
10
1.94889
20
-2.20349
11
1.94758
21
-2.20611
0
LINE
8
BLACK
6
CONTINUOUS
10
1.94758
20
-2.20611
11
1.94706
21
-2.20682
0
LINE
8
BLACK
6
CONTINUOUS
10
1.94706
20
-2.20682
11
1.94703
21
-2.20688
0
LINE
8
BLACK
6
CONTINUOUS
10
1.94703
20
-2.20688
11
1.94572
21
-2.20819
0
LINE
8
BLACK
6
CONTINUOUS
10
1.94572
20
-2.20819
11
1.94499
21
-2.2087
0
LINE
8
BLACK
6
CONTINUOUS
10
1.94499
20
-2.2087
11
1.94495
21
-2.20874
0
LINE
8
BLACK
6
CONTINUOUS
10
1.94495
20
-2.20874
11
1.94232
21
-2.21006
0
LINE
8
BLACK
6
CONTINUOUS
10
1.94232
20
-2.21006
11
1.94184
21
-2.2102
0
LINE
8
BLACK
6
CONTINUOUS
10
1.94184
20
-2.2102
11
1.94172
21
-2.21028
0
LINE
8
BLACK
6
CONTINUOUS
10
1.94172
20
-2.21028
11
1.93647
21
-2.21159
0
LINE
8
BLACK
6
CONTINUOUS
10
1.93647
20
-2.21159
11
1.93588
21
-2.21163
0
LINE
8
BLACK
6
CONTINUOUS
10
1.93588
20
-2.21163
11
1.93575
21
-2.21168
0
LINE
8
BLACK
6
CONTINUOUS
10
1.93575
20
-2.21168
11
1.92919
21
-2.21168
0
LINE
8
BLACK
6
CONTINUOUS
10
1.92919
20
-2.21168
11
1.92861
21
-2.21158
0
LINE
8
BLACK
6
CONTINUOUS
10
1.92861
20
-2.21158
11
1.92848
21
-2.21159
0
LINE
8
BLACK
6
CONTINUOUS
10
1.92848
20
-2.21159
11
1.92323
21
-2.21028
0
LINE
8
BLACK
6
CONTINUOUS
10
1.92323
20
-2.21028
11
1.92276
21
-2.21007
0
LINE
8
BLACK
6
CONTINUOUS
10
1.92276
20
-2.21007
11
1.92262
21
-2.21006
0
LINE
8
BLACK
6
CONTINUOUS
10
1.92262
20
-2.21006
11
1.92
21
-2.20874
0
LINE
8
BLACK
6
CONTINUOUS
10
1.92
20
-2.20874
11
1.91929
21
-2.20822
0
LINE
8
BLACK
6
CONTINUOUS
10
1.91929
20
-2.20822
11
1.91923
21
-2.20819
0
LINE
8
BLACK
6
CONTINUOUS
10
1.91923
20
-2.20819
11
1.91792
21
-2.20688
0
LINE
8
BLACK
6
CONTINUOUS
10
1.91792
20
-2.20688
11
1.91741
21
-2.20615
0
LINE
8
BLACK
6
CONTINUOUS
10
1.91741
20
-2.20615
11
1.91737
21
-2.20611
0
LINE
8
BLACK
6
CONTINUOUS
10
1.91737
20
-2.20611
11
1.91605
21
-2.20349
0
LINE
8
BLACK
6
CONTINUOUS
10
1.91605
20
-2.20349
11
1.91576
21
-2.2025
0
LINE
8
BLACK
6
CONTINUOUS
10
1.91576
20
-2.2025
11
1.9158
21
-2.20233
0
LINE
8
BLACK
6
CONTINUOUS
10
1.9158
20
-2.20233
11
1.91574
21
-2.20217
0
LINE
8
BLACK
6
CONTINUOUS
10
1.91574
20
-2.20217
11
1.91574
21
-2.19954
0
LINE
8
BLACK
6
CONTINUOUS
10
1.91574
20
-2.19954
11
1.91592
21
-2.19853
0
LINE
8
BLACK
6
CONTINUOUS
10
1.91592
20
-2.19853
11
1.91603
21
-2.1984
0
LINE
8
BLACK
6
CONTINUOUS
10
1.91603
20
-2.1984
11
1.91605
21
-2.19822
0
LINE
8
BLACK
6
CONTINUOUS
10
1.91605
20
-2.19822
11
1.91737
21
-2.1956
0
LINE
8
BLACK
6
CONTINUOUS
10
1.91737
20
-2.1956
11
1.91789
21
-2.19489
0
LINE
8
BLACK
6
CONTINUOUS
10
1.91789
20
-2.19489
11
1.91792
21
-2.19483
0
LINE
8
BLACK
6
CONTINUOUS
10
1.91792
20
-2.19483
11
1.91923
21
-2.19352
0
LINE
8
BLACK
6
CONTINUOUS
10
1.91923
20
-2.19352
11
1.91995
21
-2.19301
0
LINE
8
BLACK
6
CONTINUOUS
10
1.91995
20
-2.19301
11
1.92
21
-2.19296
0
LINE
8
BLACK
6
CONTINUOUS
10
1.92
20
-2.19296
11
1.92262
21
-2.19165
0
LINE
8
BLACK
6
CONTINUOUS
10
1.92262
20
-2.19165
11
1.92311
21
-2.1915
0
LINE
8
BLACK
6
CONTINUOUS
10
1.92311
20
-2.1915
11
1.92323
21
-2.19143
0
LINE
8
BLACK
6
CONTINUOUS
10
1.92323
20
-2.19143
11
1.92848
21
-2.19011
0
LINE
8
BLACK
6
CONTINUOUS
10
1.92848
20
-2.19011
11
1.92906
21
-2.19007
0
LINE
8
BLACK
6
CONTINUOUS
10
1.92906
20
-2.19007
11
1.92919
21
-2.19003
0
LINE
8
BLACK
6
CONTINUOUS
10
1.92919
20
-2.19003
11
1.93575
21
-2.19003
0
LINE
8
BLACK
6
CONTINUOUS
10
1.93575
20
-2.19003
11
1.93633
21
-2.19013
0
LINE
8
BLACK
6
CONTINUOUS
10
1.92497
20
-2.19708
11
1.92307
21
-2.19803
0
LINE
8
BLACK
6
CONTINUOUS
10
1.92307
20
-2.19803
11
1.92243
21
-2.19867
0
LINE
8
BLACK
6
CONTINUOUS
10
1.92243
20
-2.19867
11
1.92165
21
-2.20024
0
LINE
8
BLACK
6
CONTINUOUS
10
1.92165
20
-2.20024
11
1.92165
21
-2.20147
0
LINE
8
BLACK
6
CONTINUOUS
10
1.92165
20
-2.20147
11
1.92243
21
-2.20304
0
LINE
8
BLACK
6
CONTINUOUS
10
1.92243
20
-2.20304
11
1.92307
21
-2.20368
0
LINE
8
BLACK
6
CONTINUOUS
10
1.92307
20
-2.20368
11
1.92497
21
-2.20463
0
LINE
8
BLACK
6
CONTINUOUS
10
1.92497
20
-2.20463
11
1.92956
21
-2.20577
0
LINE
8
BLACK
6
CONTINUOUS
10
1.92956
20
-2.20577
11
1.93539
21
-2.20577
0
LINE
8
BLACK
6
CONTINUOUS
10
1.93539
20
-2.20577
11
1.93997
21
-2.20463
0
LINE
8
BLACK
6
CONTINUOUS
10
1.93997
20
-2.20463
11
1.94188
21
-2.20368
0
LINE
8
BLACK
6
CONTINUOUS
10
1.94188
20
-2.20368
11
1.94251
21
-2.20304
0
LINE
8
BLACK
6
CONTINUOUS
10
1.94251
20
-2.20304
11
1.9433
21
-2.20147
0
LINE
8
BLACK
6
CONTINUOUS
10
1.9433
20
-2.20147
11
1.9433
21
-2.20024
0
LINE
8
BLACK
6
CONTINUOUS
10
1.9433
20
-2.20024
11
1.94251
21
-2.19867
0
LINE
8
BLACK
6
CONTINUOUS
10
1.94251
20
-2.19867
11
1.94188
21
-2.19803
0
LINE
8
BLACK
6
CONTINUOUS
10
1.94188
20
-2.19803
11
1.93997
21
-2.19708
0
LINE
8
BLACK
6
CONTINUOUS
10
1.93997
20
-2.19708
11
1.93539
21
-2.19593
0
LINE
8
BLACK
6
CONTINUOUS
10
1.93539
20
-2.19593
11
1.92956
21
-2.19593
0
LINE
8
BLACK
6
CONTINUOUS
10
1.92956
20
-2.19593
11
1.92497
21
-2.19708
0
LINE
8
BLACK
6
CONTINUOUS
10
1.99688
20
-2.20392
11
1.99702
21
-2.20391
0
LINE
8
BLACK
6
CONTINUOUS
10
1.99702
20
-2.20391
11
1.99775
21
-2.20442
0
LINE
8
BLACK
6
CONTINUOUS
10
1.99775
20
-2.20442
11
1.99852
21
-2.20486
0
LINE
8
BLACK
6
CONTINUOUS
10
1.99852
20
-2.20486
11
1.99856
21
-2.20499
0
LINE
8
BLACK
6
CONTINUOUS
10
1.99856
20
-2.20499
11
1.99867
21
-2.20506
0
LINE
8
BLACK
6
CONTINUOUS
10
1.99867
20
-2.20506
11
1.9989
21
-2.20592
0
LINE
8
BLACK
6
CONTINUOUS
10
1.9989
20
-2.20592
11
1.99921
21
-2.20676
0
LINE
8
BLACK
6
CONTINUOUS
10
1.99921
20
-2.20676
11
1.99921
21
-2.22382
0
LINE
8
BLACK
6
CONTINUOUS
10
1.99921
20
-2.22382
11
1.99903
21
-2.22483
0
LINE
8
BLACK
6
CONTINUOUS
10
1.99903
20
-2.22483
11
1.99773
21
-2.22638
0
LINE
8
BLACK
6
CONTINUOUS
10
1.99773
20
-2.22638
11
1.99574
21
-2.22673
0
LINE
8
BLACK
6
CONTINUOUS
10
1.99574
20
-2.22673
11
1.99399
21
-2.22572
0
LINE
8
BLACK
6
CONTINUOUS
10
1.99399
20
-2.22572
11
1.9933
21
-2.22382
0
LINE
8
BLACK
6
CONTINUOUS
10
1.9933
20
-2.22382
11
1.9933
21
-2.21389
0
LINE
8
BLACK
6
CONTINUOUS
10
1.9933
20
-2.21389
11
1.98259
21
-2.22459
0
LINE
8
BLACK
6
CONTINUOUS
10
1.98259
20
-2.22459
11
1.98175
21
-2.22518
0
LINE
8
BLACK
6
CONTINUOUS
10
1.98175
20
-2.22518
11
1.98158
21
-2.2252
0
LINE
8
BLACK
6
CONTINUOUS
10
1.98158
20
-2.2252
11
1.98144
21
-2.22531
0
LINE
8
BLACK
6
CONTINUOUS
10
1.98144
20
-2.22531
11
1.9775
21
-2.22662
0
LINE
8
BLACK
6
CONTINUOUS
10
1.9775
20
-2.22662
11
1.97663
21
-2.22675
0
LINE
8
BLACK
6
CONTINUOUS
10
1.97663
20
-2.22675
11
1.97657
21
-2.22677
0
LINE
8
BLACK
6
CONTINUOUS
10
1.97657
20
-2.22677
11
1.97394
21
-2.22677
0
LINE
8
BLACK
6
CONTINUOUS
10
1.97394
20
-2.22677
11
1.97293
21
-2.22659
0
LINE
8
BLACK
6
CONTINUOUS
10
1.97293
20
-2.22659
11
1.9728
21
-2.22648
0
LINE
8
BLACK
6
CONTINUOUS
10
1.9728
20
-2.22648
11
1.97262
21
-2.22646
0
LINE
8
BLACK
6
CONTINUOUS
10
1.97262
20
-2.22646
11
1.97
21
-2.22515
0
LINE
8
BLACK
6
CONTINUOUS
10
1.97
20
-2.22515
11
1.96929
21
-2.22462
0
LINE
8
BLACK
6
CONTINUOUS
10
1.96929
20
-2.22462
11
1.96923
21
-2.22459
0
LINE
8
BLACK
6
CONTINUOUS
10
1.96923
20
-2.22459
11
1.96792
21
-2.22328
0
LINE
8
BLACK
6
CONTINUOUS
10
1.96792
20
-2.22328
11
1.96741
21
-2.22256
0
LINE
8
BLACK
6
CONTINUOUS
10
1.96741
20
-2.22256
11
1.96737
21
-2.22251
0
LINE
8
BLACK
6
CONTINUOUS
10
1.96737
20
-2.22251
11
1.96605
21
-2.21989
0
LINE
8
BLACK
6
CONTINUOUS
10
1.96605
20
-2.21989
11
1.96576
21
-2.21891
0
LINE
8
BLACK
6
CONTINUOUS
10
1.96576
20
-2.21891
11
1.9658
21
-2.21874
0
LINE
8
BLACK
6
CONTINUOUS
10
1.9658
20
-2.21874
11
1.96574
21
-2.21857
0
LINE
8
BLACK
6
CONTINUOUS
10
1.96574
20
-2.21857
11
1.96574
21
-2.21201
0
LINE
8
BLACK
6
CONTINUOUS
10
1.96574
20
-2.21201
11
1.96592
21
-2.211
0
LINE
8
BLACK
6
CONTINUOUS
10
1.96592
20
-2.211
11
1.96603
21
-2.21086
0
LINE
8
BLACK
6
CONTINUOUS
10
1.96603
20
-2.21086
11
1.96605
21
-2.21069
0
LINE
8
BLACK
6
CONTINUOUS
10
1.96605
20
-2.21069
11
1.96737
21
-2.20806
0
LINE
8
BLACK
6
CONTINUOUS
10
1.96737
20
-2.20806
11
1.96789
21
-2.20735
0
LINE
8
BLACK
6
CONTINUOUS
10
1.96789
20
-2.20735
11
1.96792
21
-2.2073
0
LINE
8
BLACK
6
CONTINUOUS
10
1.96792
20
-2.2073
11
1.96923
21
-2.20598
0
LINE
8
BLACK
6
CONTINUOUS
10
1.96923
20
-2.20598
11
1.97007
21
-2.20539
0
LINE
8
BLACK
6
CONTINUOUS
10
1.97007
20
-2.20539
11
1.97208
21
-2.20522
0
LINE
8
BLACK
6
CONTINUOUS
10
1.97208
20
-2.20522
11
1.97374
21
-2.20638
0
LINE
8
BLACK
6
CONTINUOUS
10
1.97374
20
-2.20638
11
1.97426
21
-2.20833
0
LINE
8
BLACK
6
CONTINUOUS
10
1.97426
20
-2.20833
11
1.97341
21
-2.21016
0
LINE
8
BLACK
6
CONTINUOUS
10
1.97341
20
-2.21016
11
1.97243
21
-2.21113
0
LINE
8
BLACK
6
CONTINUOUS
10
1.97243
20
-2.21113
11
1.97165
21
-2.2127
0
LINE
8
BLACK
6
CONTINUOUS
10
1.97165
20
-2.2127
11
1.97165
21
-2.21787
0
LINE
8
BLACK
6
CONTINUOUS
10
1.97165
20
-2.21787
11
1.97243
21
-2.21945
0
LINE
8
BLACK
6
CONTINUOUS
10
1.97243
20
-2.21945
11
1.97307
21
-2.22008
0
LINE
8
BLACK
6
CONTINUOUS
10
1.97307
20
-2.22008
11
1.97464
21
-2.22087
0
LINE
8
BLACK
6
CONTINUOUS
10
1.97464
20
-2.22087
11
1.97609
21
-2.22087
0
LINE
8
BLACK
6
CONTINUOUS
10
1.97609
20
-2.22087
11
1.97891
21
-2.21993
0
LINE
8
BLACK
6
CONTINUOUS
10
1.97891
20
-2.21993
11
1.99417
21
-2.20467
0
LINE
8
BLACK
6
CONTINUOUS
10
1.99417
20
-2.20467
11
1.99469
21
-2.2043
0
LINE
8
BLACK
6
CONTINUOUS
10
1.99469
20
-2.2043
11
1.99478
21
-2.2042
0
LINE
8
BLACK
6
CONTINUOUS
10
1.99478
20
-2.2042
11
1.99486
21
-2.20419
0
LINE
8
BLACK
6
CONTINUOUS
10
1.99486
20
-2.20419
11
1.99501
21
-2.20408
0
LINE
8
BLACK
6
CONTINUOUS
10
1.99501
20
-2.20408
11
1.99589
21
-2.204
0
LINE
8
BLACK
6
CONTINUOUS
10
1.99589
20
-2.204
11
1.99677
21
-2.20385
0
LINE
8
BLACK
6
CONTINUOUS
10
1.99677
20
-2.20385
11
1.99688
21
-2.20392
0
LINE
8
BLACK
6
CONTINUOUS
10
1.94688
20
-2.16258
11
1.94702
21
-2.16257
0
LINE
8
BLACK
6
CONTINUOUS
10
1.94702
20
-2.16257
11
1.94775
21
-2.16308
0
LINE
8
BLACK
6
CONTINUOUS
10
1.94775
20
-2.16308
11
1.94852
21
-2.16352
0
LINE
8
BLACK
6
CONTINUOUS
10
1.94852
20
-2.16352
11
1.94856
21
-2.16365
0
LINE
8
BLACK
6
CONTINUOUS
10
1.94856
20
-2.16365
11
1.94867
21
-2.16373
0
LINE
8
BLACK
6
CONTINUOUS
10
1.94867
20
-2.16373
11
1.9489
21
-2.16458
0
LINE
8
BLACK
6
CONTINUOUS
10
1.9489
20
-2.16458
11
1.94921
21
-2.16542
0
LINE
8
BLACK
6
CONTINUOUS
10
1.94921
20
-2.16542
11
1.94921
21
-2.18248
0
LINE
8
BLACK
6
CONTINUOUS
10
1.94921
20
-2.18248
11
1.94903
21
-2.18349
0
LINE
8
BLACK
6
CONTINUOUS
10
1.94903
20
-2.18349
11
1.94773
21
-2.18504
0
LINE
8
BLACK
6
CONTINUOUS
10
1.94773
20
-2.18504
11
1.94574
21
-2.18539
0
LINE
8
BLACK
6
CONTINUOUS
10
1.94574
20
-2.18539
11
1.94399
21
-2.18438
0
LINE
8
BLACK
6
CONTINUOUS
10
1.94399
20
-2.18438
11
1.9433
21
-2.18248
0
LINE
8
BLACK
6
CONTINUOUS
10
1.9433
20
-2.18248
11
1.9433
21
-2.17255
0
LINE
8
BLACK
6
CONTINUOUS
10
1.9433
20
-2.17255
11
1.93259
21
-2.18326
0
LINE
8
BLACK
6
CONTINUOUS
10
1.93259
20
-2.18326
11
1.93175
21
-2.18384
0
LINE
8
BLACK
6
CONTINUOUS
10
1.93175
20
-2.18384
11
1.93158
21
-2.18386
0
LINE
8
BLACK
6
CONTINUOUS
10
1.93158
20
-2.18386
11
1.93144
21
-2.18397
0
LINE
8
BLACK
6
CONTINUOUS
10
1.93144
20
-2.18397
11
1.9275
21
-2.18528
0
LINE
8
BLACK
6
CONTINUOUS
10
1.9275
20
-2.18528
11
1.92663
21
-2.18541
0
LINE
8
BLACK
6
CONTINUOUS
10
1.92663
20
-2.18541
11
1.92657
21
-2.18543
0
LINE
8
BLACK
6
CONTINUOUS
10
1.92657
20
-2.18543
11
1.92394
21
-2.18543
0
LINE
8
BLACK
6
CONTINUOUS
10
1.92394
20
-2.18543
11
1.92293
21
-2.18525
0
LINE
8
BLACK
6
CONTINUOUS
10
1.92293
20
-2.18525
11
1.9228
21
-2.18514
0
LINE
8
BLACK
6
CONTINUOUS
10
1.9228
20
-2.18514
11
1.92262
21
-2.18512
0
LINE
8
BLACK
6
CONTINUOUS
10
1.92262
20
-2.18512
11
1.92
21
-2.18381
0
LINE
8
BLACK
6
CONTINUOUS
10
1.92
20
-2.18381
11
1.91929
21
-2.18328
0
LINE
8
BLACK
6
CONTINUOUS
10
1.91929
20
-2.18328
11
1.91923
21
-2.18326
0
LINE
8
BLACK
6
CONTINUOUS
10
1.91923
20
-2.18326
11
1.91792
21
-2.18194
0
LINE
8
BLACK
6
CONTINUOUS
10
1.91792
20
-2.18194
11
1.91741
21
-2.18122
0
LINE
8
BLACK
6
CONTINUOUS
10
1.91741
20
-2.18122
11
1.91737
21
-2.18118
0
LINE
8
BLACK
6
CONTINUOUS
10
1.91737
20
-2.18118
11
1.91605
21
-2.17855
0
LINE
8
BLACK
6
CONTINUOUS
10
1.91605
20
-2.17855
11
1.91576
21
-2.17757
0
LINE
8
BLACK
6
CONTINUOUS
10
1.91576
20
-2.17757
11
1.9158
21
-2.1774
0
LINE
8
BLACK
6
CONTINUOUS
10
1.9158
20
-2.1774
11
1.91574
21
-2.17723
0
LINE
8
BLACK
6
CONTINUOUS
10
1.91574
20
-2.17723
11
1.91574
21
-2.17067
0
LINE
8
BLACK
6
CONTINUOUS
10
1.91574
20
-2.17067
11
1.91592
21
-2.16966
0
LINE
8
BLACK
6
CONTINUOUS
10
1.91592
20
-2.16966
11
1.91603
21
-2.16952
0
LINE
8
BLACK
6
CONTINUOUS
10
1.91603
20
-2.16952
11
1.91605
21
-2.16935
0
LINE
8
BLACK
6
CONTINUOUS
10
1.91605
20
-2.16935
11
1.91737
21
-2.16672
0
LINE
8
BLACK
6
CONTINUOUS
10
1.91737
20
-2.16672
11
1.91789
21
-2.16601
0
LINE
8
BLACK
6
CONTINUOUS
10
1.91789
20
-2.16601
11
1.91792
21
-2.16596
0
LINE
8
BLACK
6
CONTINUOUS
10
1.91792
20
-2.16596
11
1.91923
21
-2.16464
0
LINE
8
BLACK
6
CONTINUOUS
10
1.91923
20
-2.16464
11
1.92007
21
-2.16406
0
LINE
8
BLACK
6
CONTINUOUS
10
1.92007
20
-2.16406
11
1.92208
21
-2.16388
0
LINE
8
BLACK
6
CONTINUOUS
10
1.92208
20
-2.16388
11
1.92374
21
-2.16504
0
LINE
8
BLACK
6
CONTINUOUS
10
1.92374
20
-2.16504
11
1.92426
21
-2.16699
0
LINE
8
BLACK
6
CONTINUOUS
10
1.92426
20
-2.16699
11
1.92341
21
-2.16882
0
LINE
8
BLACK
6
CONTINUOUS
10
1.92341
20
-2.16882
11
1.92243
21
-2.16979
0
LINE
8
BLACK
6
CONTINUOUS
10
1.92243
20
-2.16979
11
1.92165
21
-2.17137
0
LINE
8
BLACK
6
CONTINUOUS
10
1.92165
20
-2.17137
11
1.92165
21
-2.17653
0
LINE
8
BLACK
6
CONTINUOUS
10
1.92165
20
-2.17653
11
1.92243
21
-2.17811
0
LINE
8
BLACK
6
CONTINUOUS
10
1.92243
20
-2.17811
11
1.92307
21
-2.17874
0
LINE
8
BLACK
6
CONTINUOUS
10
1.92307
20
-2.17874
11
1.92464
21
-2.17953
0
LINE
8
BLACK
6
CONTINUOUS
10
1.92464
20
-2.17953
11
1.92609
21
-2.17953
0
LINE
8
BLACK
6
CONTINUOUS
10
1.92609
20
-2.17953
11
1.92891
21
-2.17859
0
LINE
8
BLACK
6
CONTINUOUS
10
1.92891
20
-2.17859
11
1.94417
21
-2.16333
0
LINE
8
BLACK
6
CONTINUOUS
10
1.94417
20
-2.16333
11
1.94469
21
-2.16296
0
LINE
8
BLACK
6
CONTINUOUS
10
1.94469
20
-2.16296
11
1.94478
21
-2.16286
0
LINE
8
BLACK
6
CONTINUOUS
10
1.94478
20
-2.16286
11
1.94486
21
-2.16285
0
LINE
8
BLACK
6
CONTINUOUS
10
1.94486
20
-2.16285
11
1.94501
21
-2.16274
0
LINE
8
BLACK
6
CONTINUOUS
10
1.94501
20
-2.16274
11
1.94589
21
-2.16267
0
LINE
8
BLACK
6
CONTINUOUS
10
1.94589
20
-2.16267
11
1.94677
21
-2.16251
0
LINE
8
BLACK
6
CONTINUOUS
10
1.94677
20
-2.16251
11
1.94688
21
-2.16258
0
LINE
8
BLACK
6
CONTINUOUS
10
1.99664
20
-2.18419
11
1.99677
21
-2.18417
0
LINE
8
BLACK
6
CONTINUOUS
10
1.99677
20
-2.18417
11
1.99688
21
-2.18423
0
LINE
8
BLACK
6
CONTINUOUS
10
1.99688
20
-2.18423
11
1.99726
21
-2.1843
0
LINE
8
BLACK
6
CONTINUOUS
10
1.99726
20
-2.1843
11
1.99785
21
-2.18479
0
LINE
8
BLACK
6
CONTINUOUS
10
1.99785
20
-2.18479
11
1.99852
21
-2.18518
0
LINE
8
BLACK
6
CONTINUOUS
10
1.99852
20
-2.18518
11
1.99861
21
-2.18543
0
LINE
8
BLACK
6
CONTINUOUS
10
1.99861
20
-2.18543
11
1.99881
21
-2.1856
0
LINE
8
BLACK
6
CONTINUOUS
10
1.99881
20
-2.1856
11
1.99894
21
-2.18635
0
LINE
8
BLACK
6
CONTINUOUS
10
1.99894
20
-2.18635
11
1.99921
21
-2.18707
0
LINE
8
BLACK
6
CONTINUOUS
10
1.99921
20
-2.18707
11
1.99921
21
-2.2002
0
LINE
8
BLACK
6
CONTINUOUS
10
1.99921
20
-2.2002
11
1.99903
21
-2.20121
0
LINE
8
BLACK
6
CONTINUOUS
10
1.99903
20
-2.20121
11
1.99773
21
-2.20275
0
LINE
8
BLACK
6
CONTINUOUS
10
1.99773
20
-2.20275
11
1.99574
21
-2.2031
0
LINE
8
BLACK
6
CONTINUOUS
10
1.99574
20
-2.2031
11
1.99399
21
-2.20209
0
LINE
8
BLACK
6
CONTINUOUS
10
1.99399
20
-2.20209
11
1.9933
21
-2.2002
0
LINE
8
BLACK
6
CONTINUOUS
10
1.9933
20
-2.2002
11
1.9933
21
-2.19003
0
LINE
8
BLACK
6
CONTINUOUS
10
1.9933
20
-2.19003
11
1.96869
21
-2.19003
0
LINE
8
BLACK
6
CONTINUOUS
10
1.96869
20
-2.19003
11
1.96768
21
-2.18985
0
LINE
8
BLACK
6
CONTINUOUS
10
1.96768
20
-2.18985
11
1.96614
21
-2.18855
0
LINE
8
BLACK
6
CONTINUOUS
10
1.96614
20
-2.18855
11
1.96579
21
-2.18656
0
LINE
8
BLACK
6
CONTINUOUS
10
1.96579
20
-2.18656
11
1.9668
21
-2.18481
0
LINE
8
BLACK
6
CONTINUOUS
10
1.9668
20
-2.18481
11
1.96869
21
-2.18412
0
LINE
8
BLACK
6
CONTINUOUS
10
1.96869
20
-2.18412
11
1.99625
21
-2.18412
0
LINE
8
BLACK
6
CONTINUOUS
10
1.99625
20
-2.18412
11
1.99664
21
-2.18419
0
LINE
8
BLACK
6
CONTINUOUS
10
1.89688
20
-2.16258
11
1.89702
21
-2.16257
0
LINE
8
BLACK
6
CONTINUOUS
10
1.89702
20
-2.16257
11
1.89775
21
-2.16308
0
LINE
8
BLACK
6
CONTINUOUS
10
1.89775
20
-2.16308
11
1.89852
21
-2.16352
0
LINE
8
BLACK
6
CONTINUOUS
10
1.89852
20
-2.16352
11
1.89856
21
-2.16365
0
LINE
8
BLACK
6
CONTINUOUS
10
1.89856
20
-2.16365
11
1.89867
21
-2.16373
0
LINE
8
BLACK
6
CONTINUOUS
10
1.89867
20
-2.16373
11
1.8989
21
-2.16458
0
LINE
8
BLACK
6
CONTINUOUS
10
1.8989
20
-2.16458
11
1.89921
21
-2.16542
0
LINE
8
BLACK
6
CONTINUOUS
10
1.89921
20
-2.16542
11
1.89921
21
-2.18248
0
LINE
8
BLACK
6
CONTINUOUS
10
1.89921
20
-2.18248
11
1.89903
21
-2.18349
0
LINE
8
BLACK
6
CONTINUOUS
10
1.89903
20
-2.18349
11
1.89773
21
-2.18504
0
LINE
8
BLACK
6
CONTINUOUS
10
1.89773
20
-2.18504
11
1.89574
21
-2.18539
0
LINE
8
BLACK
6
CONTINUOUS
10
1.89574
20
-2.18539
11
1.89399
21
-2.18438
0
LINE
8
BLACK
6
CONTINUOUS
10
1.89399
20
-2.18438
11
1.8933
21
-2.18248
0
LINE
8
BLACK
6
CONTINUOUS
10
1.8933
20
-2.18248
11
1.8933
21
-2.17255
0
LINE
8
BLACK
6
CONTINUOUS
10
1.8933
20
-2.17255
11
1.88259
21
-2.18326
0
LINE
8
BLACK
6
CONTINUOUS
10
1.88259
20
-2.18326
11
1.88175
21
-2.18384
0
LINE
8
BLACK
6
CONTINUOUS
10
1.88175
20
-2.18384
11
1.88158
21
-2.18386
0
LINE
8
BLACK
6
CONTINUOUS
10
1.88158
20
-2.18386
11
1.88144
21
-2.18397
0
LINE
8
BLACK
6
CONTINUOUS
10
1.88144
20
-2.18397
11
1.8775
21
-2.18528
0
LINE
8
BLACK
6
CONTINUOUS
10
1.8775
20
-2.18528
11
1.87663
21
-2.18541
0
LINE
8
BLACK
6
CONTINUOUS
10
1.87663
20
-2.18541
11
1.87657
21
-2.18543
0
LINE
8
BLACK
6
CONTINUOUS
10
1.87657
20
-2.18543
11
1.87394
21
-2.18543
0
LINE
8
BLACK
6
CONTINUOUS
10
1.87394
20
-2.18543
11
1.87293
21
-2.18525
0
LINE
8
BLACK
6
CONTINUOUS
10
1.87293
20
-2.18525
11
1.8728
21
-2.18514
0
LINE
8
BLACK
6
CONTINUOUS
10
1.8728
20
-2.18514
11
1.87262
21
-2.18512
0
LINE
8
BLACK
6
CONTINUOUS
10
1.87262
20
-2.18512
11
1.87
21
-2.18381
0
LINE
8
BLACK
6
CONTINUOUS
10
1.87
20
-2.18381
11
1.86929
21
-2.18328
0
LINE
8
BLACK
6
CONTINUOUS
10
1.86929
20
-2.18328
11
1.86923
21
-2.18326
0
LINE
8
BLACK
6
CONTINUOUS
10
1.86923
20
-2.18326
11
1.86792
21
-2.18194
0
LINE
8
BLACK
6
CONTINUOUS
10
1.86792
20
-2.18194
11
1.86741
21
-2.18122
0
LINE
8
BLACK
6
CONTINUOUS
10
1.86741
20
-2.18122
11
1.86737
21
-2.18118
0
LINE
8
BLACK
6
CONTINUOUS
10
1.86737
20
-2.18118
11
1.86605
21
-2.17855
0
LINE
8
BLACK
6
CONTINUOUS
10
1.86605
20
-2.17855
11
1.86576
21
-2.17757
0
LINE
8
BLACK
6
CONTINUOUS
10
1.86576
20
-2.17757
11
1.8658
21
-2.1774
0
LINE
8
BLACK
6
CONTINUOUS
10
1.8658
20
-2.1774
11
1.86574
21
-2.17723
0
LINE
8
BLACK
6
CONTINUOUS
10
1.86574
20
-2.17723
11
1.86574
21
-2.17067
0
LINE
8
BLACK
6
CONTINUOUS
10
1.86574
20
-2.17067
11
1.86592
21
-2.16966
0
LINE
8
BLACK
6
CONTINUOUS
10
1.86592
20
-2.16966
11
1.86603
21
-2.16952
0
LINE
8
BLACK
6
CONTINUOUS
10
1.86603
20
-2.16952
11
1.86605
21
-2.16935
0
LINE
8
BLACK
6
CONTINUOUS
10
1.86605
20
-2.16935
11
1.86737
21
-2.16672
0
LINE
8
BLACK
6
CONTINUOUS
10
1.86737
20
-2.16672
11
1.86789
21
-2.16601
0
LINE
8
BLACK
6
CONTINUOUS
10
1.86789
20
-2.16601
11
1.86792
21
-2.16596
0
LINE
8
BLACK
6
CONTINUOUS
10
1.86792
20
-2.16596
11
1.86923
21
-2.16464
0
LINE
8
BLACK
6
CONTINUOUS
10
1.86923
20
-2.16464
11
1.87007
21
-2.16406
0
LINE
8
BLACK
6
CONTINUOUS
10
1.87007
20
-2.16406
11
1.87208
21
-2.16388
0
LINE
8
BLACK
6
CONTINUOUS
10
1.87208
20
-2.16388
11
1.87374
21
-2.16504
0
LINE
8
BLACK
6
CONTINUOUS
10
1.87374
20
-2.16504
11
1.87426
21
-2.16699
0
LINE
8
BLACK
6
CONTINUOUS
10
1.87426
20
-2.16699
11
1.87341
21
-2.16882
0
LINE
8
BLACK
6
CONTINUOUS
10
1.87341
20
-2.16882
11
1.87243
21
-2.16979
0
LINE
8
BLACK
6
CONTINUOUS
10
1.87243
20
-2.16979
11
1.87165
21
-2.17137
0
LINE
8
BLACK
6
CONTINUOUS
10
1.87165
20
-2.17137
11
1.87165
21
-2.17653
0
LINE
8
BLACK
6
CONTINUOUS
10
1.87165
20
-2.17653
11
1.87243
21
-2.17811
0
LINE
8
BLACK
6
CONTINUOUS
10
1.87243
20
-2.17811
11
1.87307
21
-2.17874
0
LINE
8
BLACK
6
CONTINUOUS
10
1.87307
20
-2.17874
11
1.87464
21
-2.17953
0
LINE
8
BLACK
6
CONTINUOUS
10
1.87464
20
-2.17953
11
1.87609
21
-2.17953
0
LINE
8
BLACK
6
CONTINUOUS
10
1.87609
20
-2.17953
11
1.87891
21
-2.17859
0
LINE
8
BLACK
6
CONTINUOUS
10
1.87891
20
-2.17859
11
1.89417
21
-2.16333
0
LINE
8
BLACK
6
CONTINUOUS
10
1.89417
20
-2.16333
11
1.89469
21
-2.16296
0
LINE
8
BLACK
6
CONTINUOUS
10
1.89469
20
-2.16296
11
1.89478
21
-2.16286
0
LINE
8
BLACK
6
CONTINUOUS
10
1.89478
20
-2.16286
11
1.89486
21
-2.16285
0
LINE
8
BLACK
6
CONTINUOUS
10
1.89486
20
-2.16285
11
1.89501
21
-2.16274
0
LINE
8
BLACK
6
CONTINUOUS
10
1.89501
20
-2.16274
11
1.89589
21
-2.16267
0
LINE
8
BLACK
6
CONTINUOUS
10
1.89589
20
-2.16267
11
1.89677
21
-2.16251
0
LINE
8
BLACK
6
CONTINUOUS
10
1.89677
20
-2.16251
11
1.89688
21
-2.16258
0
LINE
8
BLACK
6
CONTINUOUS
10
1.89726
20
-2.13771
11
1.89881
21
-2.13901
0
LINE
8
BLACK
6
CONTINUOUS
10
1.89881
20
-2.13901
11
1.89916
21
-2.141
0
LINE
8
BLACK
6
CONTINUOUS
10
1.89916
20
-2.141
11
1.89815
21
-2.14275
0
LINE
8
BLACK
6
CONTINUOUS
10
1.89815
20
-2.14275
11
1.89625
21
-2.14344
0
LINE
8
BLACK
6
CONTINUOUS
10
1.89625
20
-2.14344
11
1.88567
21
-2.14344
0
LINE
8
BLACK
6
CONTINUOUS
10
1.88567
20
-2.14344
11
1.885
21
-2.1441
0
LINE
8
BLACK
6
CONTINUOUS
10
1.885
20
-2.1441
11
1.89802
21
-2.15387
0
LINE
8
BLACK
6
CONTINUOUS
10
1.89802
20
-2.15387
11
1.89873
21
-2.15462
0
LINE
8
BLACK
6
CONTINUOUS
10
1.89873
20
-2.15462
11
1.89918
21
-2.15659
0
LINE
8
BLACK
6
CONTINUOUS
10
1.89918
20
-2.15659
11
1.89827
21
-2.15839
0
LINE
8
BLACK
6
CONTINUOUS
10
1.89827
20
-2.15839
11
1.89641
21
-2.15918
0
LINE
8
BLACK
6
CONTINUOUS
10
1.89641
20
-2.15918
11
1.89448
21
-2.1586
0
LINE
8
BLACK
6
CONTINUOUS
10
1.89448
20
-2.1586
11
1.88078
21
-2.14832
0
LINE
8
BLACK
6
CONTINUOUS
10
1.88078
20
-2.14832
11
1.87078
21
-2.15832
0
LINE
8
BLACK
6
CONTINUOUS
10
1.87078
20
-2.15832
11
1.86994
21
-2.15891
0
LINE
8
BLACK
6
CONTINUOUS
10
1.86994
20
-2.15891
11
1.86793
21
-2.15909
0
LINE
8
BLACK
6
CONTINUOUS
10
1.86793
20
-2.15909
11
1.86628
21
-2.15793
0
LINE
8
BLACK
6
CONTINUOUS
10
1.86628
20
-2.15793
11
1.86575
21
-2.15598
0
LINE
8
BLACK
6
CONTINUOUS
10
1.86575
20
-2.15598
11
1.86661
21
-2.15415
0
LINE
8
BLACK
6
CONTINUOUS
10
1.86661
20
-2.15415
11
1.87731
21
-2.14344
0
LINE
8
BLACK
6
CONTINUOUS
10
1.87731
20
-2.14344
11
1.86869
21
-2.14344
0
LINE
8
BLACK
6
CONTINUOUS
10
1.86869
20
-2.14344
11
1.86768
21
-2.14326
0
LINE
8
BLACK
6
CONTINUOUS
10
1.86768
20
-2.14326
11
1.86614
21
-2.14196
0
LINE
8
BLACK
6
CONTINUOUS
10
1.86614
20
-2.14196
11
1.86579
21
-2.13997
0
LINE
8
BLACK
6
CONTINUOUS
10
1.86579
20
-2.13997
11
1.8668
21
-2.13822
0
LINE
8
BLACK
6
CONTINUOUS
10
1.8668
20
-2.13822
11
1.86869
21
-2.13753
0
LINE
8
BLACK
6
CONTINUOUS
10
1.86869
20
-2.13753
11
1.89625
21
-2.13753
0
LINE
8
BLACK
6
CONTINUOUS
10
1.89625
20
-2.13753
11
1.89726
21
-2.13771
0
LINE
8
BLACK
6
CONTINUOUS
10
1.94726
20
-2.13771
11
1.94881
21
-2.13901
0
LINE
8
BLACK
6
CONTINUOUS
10
1.94881
20
-2.13901
11
1.94916
21
-2.141
0
LINE
8
BLACK
6
CONTINUOUS
10
1.94916
20
-2.141
11
1.94815
21
-2.14275
0
LINE
8
BLACK
6
CONTINUOUS
10
1.94815
20
-2.14275
11
1.94625
21
-2.14344
0
LINE
8
BLACK
6
CONTINUOUS
10
1.94625
20
-2.14344
11
1.93567
21
-2.14344
0
LINE
8
BLACK
6
CONTINUOUS
10
1.93567
20
-2.14344
11
1.935
21
-2.1441
0
LINE
8
BLACK
6
CONTINUOUS
10
1.935
20
-2.1441
11
1.94802
21
-2.15387
0
LINE
8
BLACK
6
CONTINUOUS
10
1.94802
20
-2.15387
11
1.94873
21
-2.15462
0
LINE
8
BLACK
6
CONTINUOUS
10
1.94873
20
-2.15462
11
1.94918
21
-2.15659
0
LINE
8
BLACK
6
CONTINUOUS
10
1.94918
20
-2.15659
11
1.94827
21
-2.15839
0
LINE
8
BLACK
6
CONTINUOUS
10
1.94827
20
-2.15839
11
1.94641
21
-2.15918
0
LINE
8
BLACK
6
CONTINUOUS
10
1.94641
20
-2.15918
11
1.94448
21
-2.1586
0
LINE
8
BLACK
6
CONTINUOUS
10
1.94448
20
-2.1586
11
1.93078
21
-2.14832
0
LINE
8
BLACK
6
CONTINUOUS
10
1.93078
20
-2.14832
11
1.92078
21
-2.15832
0
LINE
8
BLACK
6
CONTINUOUS
10
1.92078
20
-2.15832
11
1.91994
21
-2.15891
0
LINE
8
BLACK
6
CONTINUOUS
10
1.91994
20
-2.15891
11
1.91793
21
-2.15909
0
LINE
8
BLACK
6
CONTINUOUS
10
1.91793
20
-2.15909
11
1.91628
21
-2.15793
0
LINE
8
BLACK
6
CONTINUOUS
10
1.91628
20
-2.15793
11
1.91575
21
-2.15598
0
LINE
8
BLACK
6
CONTINUOUS
10
1.91575
20
-2.15598
11
1.91661
21
-2.15415
0
LINE
8
BLACK
6
CONTINUOUS
10
1.91661
20
-2.15415
11
1.92731
21
-2.14344
0
LINE
8
BLACK
6
CONTINUOUS
10
1.92731
20
-2.14344
11
1.91869
21
-2.14344
0
LINE
8
BLACK
6
CONTINUOUS
10
1.91869
20
-2.14344
11
1.91768
21
-2.14326
0
LINE
8
BLACK
6
CONTINUOUS
10
1.91768
20
-2.14326
11
1.91614
21
-2.14196
0
LINE
8
BLACK
6
CONTINUOUS
10
1.91614
20
-2.14196
11
1.91579
21
-2.13997
0
LINE
8
BLACK
6
CONTINUOUS
10
1.91579
20
-2.13997
11
1.9168
21
-2.13822
0
LINE
8
BLACK
6
CONTINUOUS
10
1.9168
20
-2.13822
11
1.91869
21
-2.13753
0
LINE
8
BLACK
6
CONTINUOUS
10
1.91869
20
-2.13753
11
1.94625
21
-2.13753
0
LINE
8
BLACK
6
CONTINUOUS
10
1.94625
20
-2.13753
11
1.94726
21
-2.13771
0
LINE
8
BLACK
6
CONTINUOUS
10
1.99726
20
-2.15674
11
1.99881
21
-2.15804
0
LINE
8
BLACK
6
CONTINUOUS
10
1.99881
20
-2.15804
11
1.99916
21
-2.16003
0
LINE
8
BLACK
6
CONTINUOUS
10
1.99916
20
-2.16003
11
1.99815
21
-2.16178
0
LINE
8
BLACK
6
CONTINUOUS
10
1.99815
20
-2.16178
11
1.99625
21
-2.16247
0
LINE
8
BLACK
6
CONTINUOUS
10
1.99625
20
-2.16247
11
1.98567
21
-2.16247
0
LINE
8
BLACK
6
CONTINUOUS
10
1.98567
20
-2.16247
11
1.985
21
-2.16313
0
LINE
8
BLACK
6
CONTINUOUS
10
1.985
20
-2.16313
11
1.99802
21
-2.1729
0
LINE
8
BLACK
6
CONTINUOUS
10
1.99802
20
-2.1729
11
1.99873
21
-2.17365
0
LINE
8
BLACK
6
CONTINUOUS
10
1.99873
20
-2.17365
11
1.99918
21
-2.17562
0
LINE
8
BLACK
6
CONTINUOUS
10
1.99918
20
-2.17562
11
1.99827
21
-2.17742
0
LINE
8
BLACK
6
CONTINUOUS
10
1.99827
20
-2.17742
11
1.99641
21
-2.17821
0
LINE
8
BLACK
6
CONTINUOUS
10
1.99641
20
-2.17821
11
1.99448
21
-2.17762
0
LINE
8
BLACK
6
CONTINUOUS
10
1.99448
20
-2.17762
11
1.98078
21
-2.16735
0
LINE
8
BLACK
6
CONTINUOUS
10
1.98078
20
-2.16735
11
1.97078
21
-2.17735
0
LINE
8
BLACK
6
CONTINUOUS
10
1.97078
20
-2.17735
11
1.96994
21
-2.17794
0
LINE
8
BLACK
6
CONTINUOUS
10
1.96994
20
-2.17794
11
1.96793
21
-2.17811
0
LINE
8
BLACK
6
CONTINUOUS
10
1.96793
20
-2.17811
11
1.96628
21
-2.17696
0
LINE
8
BLACK
6
CONTINUOUS
10
1.96628
20
-2.17696
11
1.96575
21
-2.17501
0
LINE
8
BLACK
6
CONTINUOUS
10
1.96575
20
-2.17501
11
1.96661
21
-2.17317
0
LINE
8
BLACK
6
CONTINUOUS
10
1.96661
20
-2.17317
11
1.97731
21
-2.16247
0
LINE
8
BLACK
6
CONTINUOUS
10
1.97731
20
-2.16247
11
1.96869
21
-2.16247
0
LINE
8
BLACK
6
CONTINUOUS
10
1.96869
20
-2.16247
11
1.96768
21
-2.16229
0
LINE
8
BLACK
6
CONTINUOUS
10
1.96768
20
-2.16229
11
1.96614
21
-2.16099
0
LINE
8
BLACK
6
CONTINUOUS
10
1.96614
20
-2.16099
11
1.96579
21
-2.159
0
LINE
8
BLACK
6
CONTINUOUS
10
1.96579
20
-2.159
11
1.9668
21
-2.15725
0
LINE
8
BLACK
6
CONTINUOUS
10
1.9668
20
-2.15725
11
1.96869
21
-2.15656
0
LINE
8
BLACK
6
CONTINUOUS
10
1.96869
20
-2.15656
11
1.99625
21
-2.15656
0
LINE
8
BLACK
6
CONTINUOUS
10
1.99625
20
-2.15656
11
1.99726
21
-2.15674
0
LINE
8
BLACK
6
CONTINUOUS
10
1.89726
20
-2.10621
11
1.89881
21
-2.10751
0
LINE
8
BLACK
6
CONTINUOUS
10
1.89881
20
-2.10751
11
1.89916
21
-2.1095
0
LINE
8
BLACK
6
CONTINUOUS
10
1.89916
20
-2.1095
11
1.89815
21
-2.11125
0
LINE
8
BLACK
6
CONTINUOUS
10
1.89815
20
-2.11125
11
1.89625
21
-2.11194
0
LINE
8
BLACK
6
CONTINUOUS
10
1.89625
20
-2.11194
11
1.882
21
-2.11194
0
LINE
8
BLACK
6
CONTINUOUS
10
1.882
20
-2.11194
11
1.88963
21
-2.1155
0
LINE
8
BLACK
6
CONTINUOUS
10
1.88963
20
-2.1155
11
1.88995
21
-2.11572
0
LINE
8
BLACK
6
CONTINUOUS
10
1.88995
20
-2.11572
11
1.89007
21
-2.11576
0
LINE
8
BLACK
6
CONTINUOUS
10
1.89007
20
-2.11576
11
1.89015
21
-2.11586
0
LINE
8
BLACK
6
CONTINUOUS
10
1.89015
20
-2.11586
11
1.89047
21
-2.11609
0
LINE
8
BLACK
6
CONTINUOUS
10
1.89047
20
-2.11609
11
1.89079
21
-2.11678
0
LINE
8
BLACK
6
CONTINUOUS
10
1.89079
20
-2.11678
11
1.89123
21
-2.11741
0
LINE
8
BLACK
6
CONTINUOUS
10
1.89123
20
-2.11741
11
1.89121
21
-2.11768
0
LINE
8
BLACK
6
CONTINUOUS
10
1.89121
20
-2.11768
11
1.89132
21
-2.11792
0
LINE
8
BLACK
6
CONTINUOUS
10
1.89132
20
-2.11792
11
1.89112
21
-2.11866
0
LINE
8
BLACK
6
CONTINUOUS
10
1.89112
20
-2.11866
11
1.89106
21
-2.11942
0
LINE
8
BLACK
6
CONTINUOUS
10
1.89106
20
-2.11942
11
1.89087
21
-2.11961
0
LINE
8
BLACK
6
CONTINUOUS
10
1.89087
20
-2.11961
11
1.8908
21
-2.11987
0
LINE
8
BLACK
6
CONTINUOUS
10
1.8908
20
-2.11987
11
1.89017
21
-2.12031
0
LINE
8
BLACK
6
CONTINUOUS
10
1.89017
20
-2.12031
11
1.88963
21
-2.12085
0
LINE
8
BLACK
6
CONTINUOUS
10
1.88963
20
-2.12085
11
1.882
21
-2.12441
0
LINE
8
BLACK
6
CONTINUOUS
10
1.882
20
-2.12441
11
1.89625
21
-2.12441
0
LINE
8
BLACK
6
CONTINUOUS
10
1.89625
20
-2.12441
11
1.89726
21
-2.12459
0
LINE
8
BLACK
6
CONTINUOUS
10
1.89726
20
-2.12459
11
1.89881
21
-2.12589
0
LINE
8
BLACK
6
CONTINUOUS
10
1.89881
20
-2.12589
11
1.89916
21
-2.12787
0
LINE
8
BLACK
6
CONTINUOUS
10
1.89916
20
-2.12787
11
1.89815
21
-2.12962
0
LINE
8
BLACK
6
CONTINUOUS
10
1.89815
20
-2.12962
11
1.89625
21
-2.13031
0
LINE
8
BLACK
6
CONTINUOUS
10
1.89625
20
-2.13031
11
1.86869
21
-2.13031
0
LINE
8
BLACK
6
CONTINUOUS
10
1.86869
20
-2.13031
11
1.86768
21
-2.13014
0
LINE
8
BLACK
6
CONTINUOUS
10
1.86768
20
-2.13014
11
1.86738
21
-2.12988
0
LINE
8
BLACK
6
CONTINUOUS
10
1.86738
20
-2.12988
11
1.867
21
-2.12978
0
LINE
8
BLACK
6
CONTINUOUS
10
1.867
20
-2.12978
11
1.86663
21
-2.12925
0
LINE
8
BLACK
6
CONTINUOUS
10
1.86663
20
-2.12925
11
1.86614
21
-2.12884
0
LINE
8
BLACK
6
CONTINUOUS
10
1.86614
20
-2.12884
11
1.86607
21
-2.12845
0
LINE
8
BLACK
6
CONTINUOUS
10
1.86607
20
-2.12845
11
1.86584
21
-2.12813
0
LINE
8
BLACK
6
CONTINUOUS
10
1.86584
20
-2.12813
11
1.8659
21
-2.12748
0
LINE
8
BLACK
6
CONTINUOUS
10
1.8659
20
-2.12748
11
1.86579
21
-2.12685
0
LINE
8
BLACK
6
CONTINUOUS
10
1.86579
20
-2.12685
11
1.86598
21
-2.12651
0
LINE
8
BLACK
6
CONTINUOUS
10
1.86598
20
-2.12651
11
1.86602
21
-2.12612
0
LINE
8
BLACK
6
CONTINUOUS
10
1.86602
20
-2.12612
11
1.86647
21
-2.12566
0
LINE
8
BLACK
6
CONTINUOUS
10
1.86647
20
-2.12566
11
1.8668
21
-2.1251
0
LINE
8
BLACK
6
CONTINUOUS
10
1.8668
20
-2.1251
11
1.86717
21
-2.12497
0
LINE
8
BLACK
6
CONTINUOUS
10
1.86717
20
-2.12497
11
1.86745
21
-2.12469
0
LINE
8
BLACK
6
CONTINUOUS
10
1.86745
20
-2.12469
11
1.8814
21
-2.11818
0
LINE
8
BLACK
6
CONTINUOUS
10
1.8814
20
-2.11818
11
1.86745
21
-2.11167
0
LINE
8
BLACK
6
CONTINUOUS
10
1.86745
20
-2.11167
11
1.86661
21
-2.11108
0
LINE
8
BLACK
6
CONTINUOUS
10
1.86661
20
-2.11108
11
1.86644
21
-2.11072
0
LINE
8
BLACK
6
CONTINUOUS
10
1.86644
20
-2.11072
11
1.86614
21
-2.11047
0
LINE
8
BLACK
6
CONTINUOUS
10
1.86614
20
-2.11047
11
1.86603
21
-2.10983
0
LINE
8
BLACK
6
CONTINUOUS
10
1.86603
20
-2.10983
11
1.86575
21
-2.10925
0
LINE
8
BLACK
6
CONTINUOUS
10
1.86575
20
-2.10925
11
1.86585
21
-2.10887
0
LINE
8
BLACK
6
CONTINUOUS
10
1.86585
20
-2.10887
11
1.86579
21
-2.10848
0
LINE
8
BLACK
6
CONTINUOUS
10
1.86579
20
-2.10848
11
1.86611
21
-2.10792
0
LINE
8
BLACK
6
CONTINUOUS
10
1.86611
20
-2.10792
11
1.86628
21
-2.1073
0
LINE
8
BLACK
6
CONTINUOUS
10
1.86628
20
-2.1073
11
1.8666
21
-2.10707
0
LINE
8
BLACK
6
CONTINUOUS
10
1.8666
20
-2.10707
11
1.8668
21
-2.10673
0
LINE
8
BLACK
6
CONTINUOUS
10
1.8668
20
-2.10673
11
1.8674
21
-2.10651
0
LINE
8
BLACK
6
CONTINUOUS
10
1.8674
20
-2.10651
11
1.86793
21
-2.10614
0
LINE
8
BLACK
6
CONTINUOUS
10
1.86793
20
-2.10614
11
1.86832
21
-2.10617
0
LINE
8
BLACK
6
CONTINUOUS
10
1.86832
20
-2.10617
11
1.86869
21
-2.10604
0
LINE
8
BLACK
6
CONTINUOUS
10
1.86869
20
-2.10604
11
1.89625
21
-2.10604
0
LINE
8
BLACK
6
CONTINUOUS
10
1.89625
20
-2.10604
11
1.89726
21
-2.10621
0
LINE
8
BLACK
6
CONTINUOUS
10
1.94726
20
-2.10621
11
1.94881
21
-2.10751
0
LINE
8
BLACK
6
CONTINUOUS
10
1.94881
20
-2.10751
11
1.94916
21
-2.1095
0
LINE
8
BLACK
6
CONTINUOUS
10
1.94916
20
-2.1095
11
1.94815
21
-2.11125
0
LINE
8
BLACK
6
CONTINUOUS
10
1.94815
20
-2.11125
11
1.94625
21
-2.11194
0
LINE
8
BLACK
6
CONTINUOUS
10
1.94625
20
-2.11194
11
1.932
21
-2.11194
0
LINE
8
BLACK
6
CONTINUOUS
10
1.932
20
-2.11194
11
1.93963
21
-2.1155
0
LINE
8
BLACK
6
CONTINUOUS
10
1.93963
20
-2.1155
11
1.93995
21
-2.11572
0
LINE
8
BLACK
6
CONTINUOUS
10
1.93995
20
-2.11572
11
1.94007
21
-2.11576
0
LINE
8
BLACK
6
CONTINUOUS
10
1.94007
20
-2.11576
11
1.94015
21
-2.11586
0
LINE
8
BLACK
6
CONTINUOUS
10
1.94015
20
-2.11586
11
1.94047
21
-2.11609
0
LINE
8
BLACK
6
CONTINUOUS
10
1.94047
20
-2.11609
11
1.94079
21
-2.11678
0
LINE
8
BLACK
6
CONTINUOUS
10
1.94079
20
-2.11678
11
1.94123
21
-2.11741
0
LINE
8
BLACK
6
CONTINUOUS
10
1.94123
20
-2.11741
11
1.94121
21
-2.11768
0
LINE
8
BLACK
6
CONTINUOUS
10
1.94121
20
-2.11768
11
1.94132
21
-2.11792
0
LINE
8
BLACK
6
CONTINUOUS
10
1.94132
20
-2.11792
11
1.94112
21
-2.11866
0
LINE
8
BLACK
6
CONTINUOUS
10
1.94112
20
-2.11866
11
1.94106
21
-2.11942
0
LINE
8
BLACK
6
CONTINUOUS
10
1.94106
20
-2.11942
11
1.94087
21
-2.11961
0
LINE
8
BLACK
6
CONTINUOUS
10
1.94087
20
-2.11961
11
1.9408
21
-2.11987
0
LINE
8
BLACK
6
CONTINUOUS
10
1.9408
20
-2.11987
11
1.94017
21
-2.12031
0
LINE
8
BLACK
6
CONTINUOUS
10
1.94017
20
-2.12031
11
1.93963
21
-2.12085
0
LINE
8
BLACK
6
CONTINUOUS
10
1.93963
20
-2.12085
11
1.932
21
-2.12441
0
LINE
8
BLACK
6
CONTINUOUS
10
1.932
20
-2.12441
11
1.94625
21
-2.12441
0
LINE
8
BLACK
6
CONTINUOUS
10
1.94625
20
-2.12441
11
1.94726
21
-2.12459
0
LINE
8
BLACK
6
CONTINUOUS
10
1.94726
20
-2.12459
11
1.94881
21
-2.12589
0
LINE
8
BLACK
6
CONTINUOUS
10
1.94881
20
-2.12589
11
1.94916
21
-2.12787
0
LINE
8
BLACK
6
CONTINUOUS
10
1.94916
20
-2.12787
11
1.94815
21
-2.12962
0
LINE
8
BLACK
6
CONTINUOUS
10
1.94815
20
-2.12962
11
1.94625
21
-2.13031
0
LINE
8
BLACK
6
CONTINUOUS
10
1.94625
20
-2.13031
11
1.91869
21
-2.13031
0
LINE
8
BLACK
6
CONTINUOUS
10
1.91869
20
-2.13031
11
1.91768
21
-2.13014
0
LINE
8
BLACK
6
CONTINUOUS
10
1.91768
20
-2.13014
11
1.91738
21
-2.12988
0
LINE
8
BLACK
6
CONTINUOUS
10
1.91738
20
-2.12988
11
1.917
21
-2.12978
0
LINE
8
BLACK
6
CONTINUOUS
10
1.917
20
-2.12978
11
1.91663
21
-2.12925
0
LINE
8
BLACK
6
CONTINUOUS
10
1.91663
20
-2.12925
11
1.91614
21
-2.12884
0
LINE
8
BLACK
6
CONTINUOUS
10
1.91614
20
-2.12884
11
1.91607
21
-2.12845
0
LINE
8
BLACK
6
CONTINUOUS
10
1.91607
20
-2.12845
11
1.91584
21
-2.12813
0
LINE
8
BLACK
6
CONTINUOUS
10
1.91584
20
-2.12813
11
1.9159
21
-2.12748
0
LINE
8
BLACK
6
CONTINUOUS
10
1.9159
20
-2.12748
11
1.91579
21
-2.12685
0
LINE
8
BLACK
6
CONTINUOUS
10
1.91579
20
-2.12685
11
1.91598
21
-2.12651
0
LINE
8
BLACK
6
CONTINUOUS
10
1.91598
20
-2.12651
11
1.91602
21
-2.12612
0
LINE
8
BLACK
6
CONTINUOUS
10
1.91602
20
-2.12612
11
1.91647
21
-2.12566
0
LINE
8
BLACK
6
CONTINUOUS
10
1.91647
20
-2.12566
11
1.9168
21
-2.1251
0
LINE
8
BLACK
6
CONTINUOUS
10
1.9168
20
-2.1251
11
1.91717
21
-2.12497
0
LINE
8
BLACK
6
CONTINUOUS
10
1.91717
20
-2.12497
11
1.91745
21
-2.12469
0
LINE
8
BLACK
6
CONTINUOUS
10
1.91745
20
-2.12469
11
1.9314
21
-2.11818
0
LINE
8
BLACK
6
CONTINUOUS
10
1.9314
20
-2.11818
11
1.91745
21
-2.11167
0
LINE
8
BLACK
6
CONTINUOUS
10
1.91745
20
-2.11167
11
1.91661
21
-2.11108
0
LINE
8
BLACK
6
CONTINUOUS
10
1.91661
20
-2.11108
11
1.91644
21
-2.11072
0
LINE
8
BLACK
6
CONTINUOUS
10
1.91644
20
-2.11072
11
1.91614
21
-2.11047
0
LINE
8
BLACK
6
CONTINUOUS
10
1.91614
20
-2.11047
11
1.91603
21
-2.10983
0
LINE
8
BLACK
6
CONTINUOUS
10
1.91603
20
-2.10983
11
1.91575
21
-2.10925
0
LINE
8
BLACK
6
CONTINUOUS
10
1.91575
20
-2.10925
11
1.91585
21
-2.10887
0
LINE
8
BLACK
6
CONTINUOUS
10
1.91585
20
-2.10887
11
1.91579
21
-2.10848
0
LINE
8
BLACK
6
CONTINUOUS
10
1.91579
20
-2.10848
11
1.91611
21
-2.10792
0
LINE
8
BLACK
6
CONTINUOUS
10
1.91611
20
-2.10792
11
1.91628
21
-2.1073
0
LINE
8
BLACK
6
CONTINUOUS
10
1.91628
20
-2.1073
11
1.9166
21
-2.10707
0
LINE
8
BLACK
6
CONTINUOUS
10
1.9166
20
-2.10707
11
1.9168
21
-2.10673
0
LINE
8
BLACK
6
CONTINUOUS
10
1.9168
20
-2.10673
11
1.9174
21
-2.10651
0
LINE
8
BLACK
6
CONTINUOUS
10
1.9174
20
-2.10651
11
1.91793
21
-2.10614
0
LINE
8
BLACK
6
CONTINUOUS
10
1.91793
20
-2.10614
11
1.91832
21
-2.10617
0
LINE
8
BLACK
6
CONTINUOUS
10
1.91832
20
-2.10617
11
1.91869
21
-2.10604
0
LINE
8
BLACK
6
CONTINUOUS
10
1.91869
20
-2.10604
11
1.94625
21
-2.10604
0
LINE
8
BLACK
6
CONTINUOUS
10
1.94625
20
-2.10604
11
1.94726
21
-2.10621
0
LINE
8
BLACK
6
CONTINUOUS
10
1.99726
20
-2.12524
11
1.99881
21
-2.12654
0
LINE
8
BLACK
6
CONTINUOUS
10
1.99881
20
-2.12654
11
1.99916
21
-2.12853
0
LINE
8
BLACK
6
CONTINUOUS
10
1.99916
20
-2.12853
11
1.99815
21
-2.13028
0
LINE
8
BLACK
6
CONTINUOUS
10
1.99815
20
-2.13028
11
1.99625
21
-2.13097
0
LINE
8
BLACK
6
CONTINUOUS
10
1.99625
20
-2.13097
11
1.982
21
-2.13097
0
LINE
8
BLACK
6
CONTINUOUS
10
1.982
20
-2.13097
11
1.98963
21
-2.13453
0
LINE
8
BLACK
6
CONTINUOUS
10
1.98963
20
-2.13453
11
1.98995
21
-2.13475
0
LINE
8
BLACK
6
CONTINUOUS
10
1.98995
20
-2.13475
11
1.99007
21
-2.13479
0
LINE
8
BLACK
6
CONTINUOUS
10
1.99007
20
-2.13479
11
1.99015
21
-2.13489
0
LINE
8
BLACK
6
CONTINUOUS
10
1.99015
20
-2.13489
11
1.99047
21
-2.13512
0
LINE
8
BLACK
6
CONTINUOUS
10
1.99047
20
-2.13512
11
1.99079
21
-2.13581
0
LINE
8
BLACK
6
CONTINUOUS
10
1.99079
20
-2.13581
11
1.99123
21
-2.13644
0
LINE
8
BLACK
6
CONTINUOUS
10
1.99123
20
-2.13644
11
1.99121
21
-2.13671
0
LINE
8
BLACK
6
CONTINUOUS
10
1.99121
20
-2.13671
11
1.99132
21
-2.13695
0
LINE
8
BLACK
6
CONTINUOUS
10
1.99132
20
-2.13695
11
1.99112
21
-2.13769
0
LINE
8
BLACK
6
CONTINUOUS
10
1.99112
20
-2.13769
11
1.99106
21
-2.13845
0
LINE
8
BLACK
6
CONTINUOUS
10
1.99106
20
-2.13845
11
1.99087
21
-2.13864
0
LINE
8
BLACK
6
CONTINUOUS
10
1.99087
20
-2.13864
11
1.9908
21
-2.1389
0
LINE
8
BLACK
6
CONTINUOUS
10
1.9908
20
-2.1389
11
1.99017
21
-2.13934
0
LINE
8
BLACK
6
CONTINUOUS
10
1.99017
20
-2.13934
11
1.98963
21
-2.13988
0
LINE
8
BLACK
6
CONTINUOUS
10
1.98963
20
-2.13988
11
1.982
21
-2.14344
0
LINE
8
BLACK
6
CONTINUOUS
10
1.982
20
-2.14344
11
1.99625
21
-2.14344
0
LINE
8
BLACK
6
CONTINUOUS
10
1.99625
20
-2.14344
11
1.99726
21
-2.14362
0
LINE
8
BLACK
6
CONTINUOUS
10
1.99726
20
-2.14362
11
1.99881
21
-2.14491
0
LINE
8
BLACK
6
CONTINUOUS
10
1.99881
20
-2.14491
11
1.99916
21
-2.1469
0
LINE
8
BLACK
6
CONTINUOUS
10
1.99916
20
-2.1469
11
1.99815
21
-2.14865
0
LINE
8
BLACK
6
CONTINUOUS
10
1.99815
20
-2.14865
11
1.99625
21
-2.14934
0
LINE
8
BLACK
6
CONTINUOUS
10
1.99625
20
-2.14934
11
1.96869
21
-2.14934
0
LINE
8
BLACK
6
CONTINUOUS
10
1.96869
20
-2.14934
11
1.96768
21
-2.14917
0
LINE
8
BLACK
6
CONTINUOUS
10
1.96768
20
-2.14917
11
1.96738
21
-2.14891
0
LINE
8
BLACK
6
CONTINUOUS
10
1.96738
20
-2.14891
11
1.967
21
-2.14881
0
LINE
8
BLACK
6
CONTINUOUS
10
1.967
20
-2.14881
11
1.96663
21
-2.14828
0
LINE
8
BLACK
6
CONTINUOUS
10
1.96663
20
-2.14828
11
1.96614
21
-2.14787
0
LINE
8
BLACK
6
CONTINUOUS
10
1.96614
20
-2.14787
11
1.96607
21
-2.14748
0
LINE
8
BLACK
6
CONTINUOUS
10
1.96607
20
-2.14748
11
1.96584
21
-2.14716
0
LINE
8
BLACK
6
CONTINUOUS
10
1.96584
20
-2.14716
11
1.9659
21
-2.14651
0
LINE
8
BLACK
6
CONTINUOUS
10
1.9659
20
-2.14651
11
1.96579
21
-2.14588
0
LINE
8
BLACK
6
CONTINUOUS
10
1.96579
20
-2.14588
11
1.96598
21
-2.14554
0
LINE
8
BLACK
6
CONTINUOUS
10
1.96598
20
-2.14554
11
1.96602
21
-2.14514
0
LINE
8
BLACK
6
CONTINUOUS
10
1.96602
20
-2.14514
11
1.96647
21
-2.14469
0
LINE
8
BLACK
6
CONTINUOUS
10
1.96647
20
-2.14469
11
1.9668
21
-2.14413
0
LINE
8
BLACK
6
CONTINUOUS
10
1.9668
20
-2.14413
11
1.96717
21
-2.14399
0
LINE
8
BLACK
6
CONTINUOUS
10
1.96717
20
-2.14399
11
1.96745
21
-2.14372
0
LINE
8
BLACK
6
CONTINUOUS
10
1.96745
20
-2.14372
11
1.9814
21
-2.1372
0
LINE
8
BLACK
6
CONTINUOUS
10
1.9814
20
-2.1372
11
1.96745
21
-2.13069
0
LINE
8
BLACK
6
CONTINUOUS
10
1.96745
20
-2.13069
11
1.96661
21
-2.13011
0
LINE
8
BLACK
6
CONTINUOUS
10
1.96661
20
-2.13011
11
1.96644
21
-2.12975
0
LINE
8
BLACK
6
CONTINUOUS
10
1.96644
20
-2.12975
11
1.96614
21
-2.12949
0
LINE
8
BLACK
6
CONTINUOUS
10
1.96614
20
-2.12949
11
1.96603
21
-2.12886
0
LINE
8
BLACK
6
CONTINUOUS
10
1.96603
20
-2.12886
11
1.96575
21
-2.12827
0
LINE
8
BLACK
6
CONTINUOUS
10
1.96575
20
-2.12827
11
1.96585
21
-2.12789
0
LINE
8
BLACK
6
CONTINUOUS
10
1.96585
20
-2.12789
11
1.96579
21
-2.12751
0
LINE
8
BLACK
6
CONTINUOUS
10
1.96579
20
-2.12751
11
1.96611
21
-2.12695
0
LINE
8
BLACK
6
CONTINUOUS
10
1.96611
20
-2.12695
11
1.96628
21
-2.12632
0
LINE
8
BLACK
6
CONTINUOUS
10
1.96628
20
-2.12632
11
1.9666
21
-2.1261
0
LINE
8
BLACK
6
CONTINUOUS
10
1.9666
20
-2.1261
11
1.9668
21
-2.12576
0
LINE
8
BLACK
6
CONTINUOUS
10
1.9668
20
-2.12576
11
1.9674
21
-2.12554
0
LINE
8
BLACK
6
CONTINUOUS
10
1.9674
20
-2.12554
11
1.96793
21
-2.12517
0
LINE
8
BLACK
6
CONTINUOUS
10
1.96793
20
-2.12517
11
1.96832
21
-2.1252
0
LINE
8
BLACK
6
CONTINUOUS
10
1.96832
20
-2.1252
11
1.96869
21
-2.12507
0
LINE
8
BLACK
6
CONTINUOUS
10
1.96869
20
-2.12507
11
1.99625
21
-2.12507
0
LINE
8
BLACK
6
CONTINUOUS
10
1.99625
20
-2.12507
11
1.99726
21
-2.12524
0
LINE
8
BLACK
6
CONTINUOUS
10
2.19389
20
-2.09711
11
2.19402
21
-2.09709
0
LINE
8
BLACK
6
CONTINUOUS
10
2.19402
20
-2.09709
11
2.19413
21
-2.09716
0
LINE
8
BLACK
6
CONTINUOUS
10
2.19413
20
-2.09716
11
2.19451
21
-2.09723
0
LINE
8
BLACK
6
CONTINUOUS
10
2.19451
20
-2.09723
11
2.1951
21
-2.09772
0
LINE
8
BLACK
6
CONTINUOUS
10
2.1951
20
-2.09772
11
2.19577
21
-2.0981
0
LINE
8
BLACK
6
CONTINUOUS
10
2.19577
20
-2.0981
11
2.19586
21
-2.09835
0
LINE
8
BLACK
6
CONTINUOUS
10
2.19586
20
-2.09835
11
2.19606
21
-2.09852
0
LINE
8
BLACK
6
CONTINUOUS
10
2.19606
20
-2.09852
11
2.19619
21
-2.09928
0
LINE
8
BLACK
6
CONTINUOUS
10
2.19619
20
-2.09928
11
2.19646
21
-2.1
0
LINE
8
BLACK
6
CONTINUOUS
10
2.19646
20
-2.1
11
2.19646
21
-2.45
0
LINE
8
BLACK
6
CONTINUOUS
10
2.19646
20
-2.45
11
2.19639
21
-2.45038
0
LINE
8
BLACK
6
CONTINUOUS
10
2.19639
20
-2.45038
11
2.19641
21
-2.45051
0
LINE
8
BLACK
6
CONTINUOUS
10
2.19641
20
-2.45051
11
2.19635
21
-2.45063
0
LINE
8
BLACK
6
CONTINUOUS
10
2.19635
20
-2.45063
11
2.19628
21
-2.45101
0
LINE
8
BLACK
6
CONTINUOUS
10
2.19628
20
-2.45101
11
2.19579
21
-2.4516
0
LINE
8
BLACK
6
CONTINUOUS
10
2.19579
20
-2.4516
11
2.1954
21
-2.45226
0
LINE
8
BLACK
6
CONTINUOUS
10
2.1954
20
-2.45226
11
2.19515
21
-2.45235
0
LINE
8
BLACK
6
CONTINUOUS
10
2.19515
20
-2.45235
11
2.19498
21
-2.45256
0
LINE
8
BLACK
6
CONTINUOUS
10
2.19498
20
-2.45256
11
2.19422
21
-2.45269
0
LINE
8
BLACK
6
CONTINUOUS
10
2.19422
20
-2.45269
11
2.1935
21
-2.45295
0
LINE
8
BLACK
6
CONTINUOUS
10
2.1935
20
-2.45295
11
1.7935
21
-2.45295
0
LINE
8
BLACK
6
CONTINUOUS
10
1.7935
20
-2.45295
11
1.79312
21
-2.45289
0
LINE
8
BLACK
6
CONTINUOUS
10
1.79312
20
-2.45289
11
1.79299
21
-2.45291
0
LINE
8
BLACK
6
CONTINUOUS
10
1.79299
20
-2.45291
11
1.79288
21
-2.45284
0
LINE
8
BLACK
6
CONTINUOUS
10
1.79288
20
-2.45284
11
1.79249
21
-2.45277
0
LINE
8
BLACK
6
CONTINUOUS
10
1.79249
20
-2.45277
11
1.79191
21
-2.45228
0
LINE
8
BLACK
6
CONTINUOUS
10
1.79191
20
-2.45228
11
1.79124
21
-2.4519
0
LINE
8
BLACK
6
CONTINUOUS
10
1.79124
20
-2.4519
11
1.79115
21
-2.45165
0
LINE
8
BLACK
6
CONTINUOUS
10
1.79115
20
-2.45165
11
1.79095
21
-2.45148
0
LINE
8
BLACK
6
CONTINUOUS
10
1.79095
20
-2.45148
11
1.79081
21
-2.45072
0
LINE
8
BLACK
6
CONTINUOUS
10
1.79081
20
-2.45072
11
1.79055
21
-2.45
0
LINE
8
BLACK
6
CONTINUOUS
10
1.79055
20
-2.45
11
1.79055
21
-2.1
0
LINE
8
BLACK
6
CONTINUOUS
10
1.79055
20
-2.1
11
1.79062
21
-2.09962
0
LINE
8
BLACK
6
CONTINUOUS
10
1.79062
20
-2.09962
11
1.7906
21
-2.09949
0
LINE
8
BLACK
6
CONTINUOUS
10
1.7906
20
-2.09949
11
1.79066
21
-2.09937
0
LINE
8
BLACK
6
CONTINUOUS
10
1.79066
20
-2.09937
11
1.79073
21
-2.09899
0
LINE
8
BLACK
6
CONTINUOUS
10
1.79073
20
-2.09899
11
1.79122
21
-2.0984
0
LINE
8
BLACK
6
CONTINUOUS
10
1.79122
20
-2.0984
11
1.79161
21
-2.09774
0
LINE
8
BLACK
6
CONTINUOUS
10
1.79161
20
-2.09774
11
1.79186
21
-2.09765
0
LINE
8
BLACK
6
CONTINUOUS
10
1.79186
20
-2.09765
11
1.79203
21
-2.09744
0
LINE
8
BLACK
6
CONTINUOUS
10
1.79203
20
-2.09744
11
1.79278
21
-2.09731
0
LINE
8
BLACK
6
CONTINUOUS
10
1.79278
20
-2.09731
11
1.7935
21
-2.09705
0
LINE
8
BLACK
6
CONTINUOUS
10
1.7935
20
-2.09705
11
2.1935
21
-2.09705
0
LINE
8
BLACK
6
CONTINUOUS
10
2.1935
20
-2.09705
11
2.19389
21
-2.09711
0
LINE
8
BLACK
6
CONTINUOUS
10
1.79646
20
-2.10295
11
1.79646
21
-2.44705
0
LINE
8
BLACK
6
CONTINUOUS
10
1.79646
20
-2.44705
11
2.19055
21
-2.44705
0
LINE
8
BLACK
6
CONTINUOUS
10
2.19055
20
-2.44705
11
2.19055
21
-2.10295
0
LINE
8
BLACK
6
CONTINUOUS
10
2.19055
20
-2.10295
11
1.79646
21
-2.10295
0
LINE
8
BLACK
6
CONTINUOUS
10
2.19389
20
-1.84711
11
2.19402
21
-1.84709
0
LINE
8
BLACK
6
CONTINUOUS
10
2.19402
20
-1.84709
11
2.19413
21
-1.84716
0
LINE
8
BLACK
6
CONTINUOUS
10
2.19413
20
-1.84716
11
2.19451
21
-1.84723
0
LINE
8
BLACK
6
CONTINUOUS
10
2.19451
20
-1.84723
11
2.1951
21
-1.84772
0
LINE
8
BLACK
6
CONTINUOUS
10
2.1951
20
-1.84772
11
2.19577
21
-1.8481
0
LINE
8
BLACK
6
CONTINUOUS
10
2.19577
20
-1.8481
11
2.19586
21
-1.84835
0
LINE
8
BLACK
6
CONTINUOUS
10
2.19586
20
-1.84835
11
2.19606
21
-1.84852
0
LINE
8
BLACK
6
CONTINUOUS
10
2.19606
20
-1.84852
11
2.19619
21
-1.84928
0
LINE
8
BLACK
6
CONTINUOUS
10
2.19619
20
-1.84928
11
2.19646
21
-1.85
0
LINE
8
BLACK
6
CONTINUOUS
10
2.19646
20
-1.85
11
2.19646
21
-2
0
LINE
8
BLACK
6
CONTINUOUS
10
2.19646
20
-2
11
2.19639
21
-2.00038
0
LINE
8
BLACK
6
CONTINUOUS
10
2.19639
20
-2.00038
11
2.19641
21
-2.00051
0
LINE
8
BLACK
6
CONTINUOUS
10
2.19641
20
-2.00051
11
2.19635
21
-2.00063
0
LINE
8
BLACK
6
CONTINUOUS
10
2.19635
20
-2.00063
11
2.19628
21
-2.00101
0
LINE
8
BLACK
6
CONTINUOUS
10
2.19628
20
-2.00101
11
2.19579
21
-2.0016
0
LINE
8
BLACK
6
CONTINUOUS
10
2.19579
20
-2.0016
11
2.1954
21
-2.00226
0
LINE
8
BLACK
6
CONTINUOUS
10
2.1954
20
-2.00226
11
2.19515
21
-2.00235
0
LINE
8
BLACK
6
CONTINUOUS
10
2.19515
20
-2.00235
11
2.19498
21
-2.00256
0
LINE
8
BLACK
6
CONTINUOUS
10
2.19498
20
-2.00256
11
2.19422
21
-2.00269
0
LINE
8
BLACK
6
CONTINUOUS
10
2.19422
20
-2.00269
11
2.1935
21
-2.00295
0
LINE
8
BLACK
6
CONTINUOUS
10
2.1935
20
-2.00295
11
2.0935
21
-2.00295
0
LINE
8
BLACK
6
CONTINUOUS
10
2.0935
20
-2.00295
11
2.09312
21
-2.00289
0
LINE
8
BLACK
6
CONTINUOUS
10
2.09312
20
-2.00289
11
2.09299
21
-2.00291
0
LINE
8
BLACK
6
CONTINUOUS
10
2.09299
20
-2.00291
11
2.09288
21
-2.00284
0
LINE
8
BLACK
6
CONTINUOUS
10
2.09288
20
-2.00284
11
2.09249
21
-2.00277
0
LINE
8
BLACK
6
CONTINUOUS
10
2.09249
20
-2.00277
11
2.09191
21
-2.00228
0
LINE
8
BLACK
6
CONTINUOUS
10
2.09191
20
-2.00228
11
2.09124
21
-2.0019
0
LINE
8
BLACK
6
CONTINUOUS
10
2.09124
20
-2.0019
11
2.09115
21
-2.00165
0
LINE
8
BLACK
6
CONTINUOUS
10
2.09115
20
-2.00165
11
2.09095
21
-2.00148
0
LINE
8
BLACK
6
CONTINUOUS
10
2.09095
20
-2.00148
11
2.09081
21
-2.00072
0
LINE
8
BLACK
6
CONTINUOUS
10
2.09081
20
-2.00072
11
2.09055
21
-2
0
LINE
8
BLACK
6
CONTINUOUS
10
2.09055
20
-2
11
2.09055
21
-1.85
0
LINE
8
BLACK
6
CONTINUOUS
10
2.09055
20
-1.85
11
2.09062
21
-1.84962
0
LINE
8
BLACK
6
CONTINUOUS
10
2.09062
20
-1.84962
11
2.0906
21
-1.84949
0
LINE
8
BLACK
6
CONTINUOUS
10
2.0906
20
-1.84949
11
2.09066
21
-1.84937
0
LINE
8
BLACK
6
CONTINUOUS
10
2.09066
20
-1.84937
11
2.09073
21
-1.84899
0
LINE
8
BLACK
6
CONTINUOUS
10
2.09073
20
-1.84899
11
2.09122
21
-1.8484
0
LINE
8
BLACK
6
CONTINUOUS
10
2.09122
20
-1.8484
11
2.09161
21
-1.84774
0
LINE
8
BLACK
6
CONTINUOUS
10
2.09161
20
-1.84774
11
2.09186
21
-1.84765
0
LINE
8
BLACK
6
CONTINUOUS
10
2.09186
20
-1.84765
11
2.09203
21
-1.84744
0
LINE
8
BLACK
6
CONTINUOUS
10
2.09203
20
-1.84744
11
2.09278
21
-1.84731
0
LINE
8
BLACK
6
CONTINUOUS
10
2.09278
20
-1.84731
11
2.0935
21
-1.84705
0
LINE
8
BLACK
6
CONTINUOUS
10
2.0935
20
-1.84705
11
2.1935
21
-1.84705
0
LINE
8
BLACK
6
CONTINUOUS
10
2.1935
20
-1.84705
11
2.19389
21
-1.84711
0
LINE
8
BLACK
6
CONTINUOUS
10
2.09646
20
-1.85295
11
2.09646
21
-1.99705
0
LINE
8
BLACK
6
CONTINUOUS
10
2.09646
20
-1.99705
11
2.19055
21
-1.99705
0
LINE
8
BLACK
6
CONTINUOUS
10
2.19055
20
-1.99705
11
2.19055
21
-1.85295
0
LINE
8
BLACK
6
CONTINUOUS
10
2.19055
20
-1.85295
11
2.09646
21
-1.85295
0
LINE
8
BLACK
6
CONTINUOUS
10
2.19389
20
-1.64711
11
2.19402
21
-1.64709
0
LINE
8
BLACK
6
CONTINUOUS
10
2.19402
20
-1.64709
11
2.19413
21
-1.64716
0
LINE
8
BLACK
6
CONTINUOUS
10
2.19413
20
-1.64716
11
2.19451
21
-1.64723
0
LINE
8
BLACK
6
CONTINUOUS
10
2.19451
20
-1.64723
11
2.1951
21
-1.64772
0
LINE
8
BLACK
6
CONTINUOUS
10
2.1951
20
-1.64772
11
2.19577
21
-1.6481
0
LINE
8
BLACK
6
CONTINUOUS
10
2.19577
20
-1.6481
11
2.19586
21
-1.64835
0
LINE
8
BLACK
6
CONTINUOUS
10
2.19586
20
-1.64835
11
2.19606
21
-1.64852
0
LINE
8
BLACK
6
CONTINUOUS
10
2.19606
20
-1.64852
11
2.19619
21
-1.64928
0
LINE
8
BLACK
6
CONTINUOUS
10
2.19619
20
-1.64928
11
2.19646
21
-1.65
0
LINE
8
BLACK
6
CONTINUOUS
10
2.19646
20
-1.65
11
2.19646
21
-1.75
0
LINE
8
BLACK
6
CONTINUOUS
10
2.19646
20
-1.75
11
2.19639
21
-1.75038
0
LINE
8
BLACK
6
CONTINUOUS
10
2.19639
20
-1.75038
11
2.19641
21
-1.75051
0
LINE
8
BLACK
6
CONTINUOUS
10
2.19641
20
-1.75051
11
2.19635
21
-1.75063
0
LINE
8
BLACK
6
CONTINUOUS
10
2.19635
20
-1.75063
11
2.19628
21
-1.75101
0
LINE
8
BLACK
6
CONTINUOUS
10
2.19628
20
-1.75101
11
2.19579
21
-1.7516
0
LINE
8
BLACK
6
CONTINUOUS
10
2.19579
20
-1.7516
11
2.1954
21
-1.75226
0
LINE
8
BLACK
6
CONTINUOUS
10
2.1954
20
-1.75226
11
2.19515
21
-1.75235
0
LINE
8
BLACK
6
CONTINUOUS
10
2.19515
20
-1.75235
11
2.19498
21
-1.75256
0
LINE
8
BLACK
6
CONTINUOUS
10
2.19498
20
-1.75256
11
2.19422
21
-1.75269
0
LINE
8
BLACK
6
CONTINUOUS
10
2.19422
20
-1.75269
11
2.1935
21
-1.75295
0
LINE
8
BLACK
6
CONTINUOUS
10
2.1935
20
-1.75295
11
2.0935
21
-1.75295
0
LINE
8
BLACK
6
CONTINUOUS
10
2.0935
20
-1.75295
11
2.09312
21
-1.75289
0
LINE
8
BLACK
6
CONTINUOUS
10
2.09312
20
-1.75289
11
2.09299
21
-1.75291
0
LINE
8
BLACK
6
CONTINUOUS
10
2.09299
20
-1.75291
11
2.09288
21
-1.75284
0
LINE
8
BLACK
6
CONTINUOUS
10
2.09288
20
-1.75284
11
2.09249
21
-1.75277
0
LINE
8
BLACK
6
CONTINUOUS
10
2.09249
20
-1.75277
11
2.09191
21
-1.75228
0
LINE
8
BLACK
6
CONTINUOUS
10
2.09191
20
-1.75228
11
2.09124
21
-1.7519
0
LINE
8
BLACK
6
CONTINUOUS
10
2.09124
20
-1.7519
11
2.09115
21
-1.75165
0
LINE
8
BLACK
6
CONTINUOUS
10
2.09115
20
-1.75165
11
2.09095
21
-1.75148
0
LINE
8
BLACK
6
CONTINUOUS
10
2.09095
20
-1.75148
11
2.09081
21
-1.75072
0
LINE
8
BLACK
6
CONTINUOUS
10
2.09081
20
-1.75072
11
2.09055
21
-1.75
0
LINE
8
BLACK
6
CONTINUOUS
10
2.09055
20
-1.75
11
2.09055
21
-1.65
0
LINE
8
BLACK
6
CONTINUOUS
10
2.09055
20
-1.65
11
2.09062
21
-1.64962
0
LINE
8
BLACK
6
CONTINUOUS
10
2.09062
20
-1.64962
11
2.0906
21
-1.64949
0
LINE
8
BLACK
6
CONTINUOUS
10
2.0906
20
-1.64949
11
2.09066
21
-1.64937
0
LINE
8
BLACK
6
CONTINUOUS
10
2.09066
20
-1.64937
11
2.09073
21
-1.64899
0
LINE
8
BLACK
6
CONTINUOUS
10
2.09073
20
-1.64899
11
2.09122
21
-1.6484
0
LINE
8
BLACK
6
CONTINUOUS
10
2.09122
20
-1.6484
11
2.09161
21
-1.64774
0
LINE
8
BLACK
6
CONTINUOUS
10
2.09161
20
-1.64774
11
2.09186
21
-1.64765
0
LINE
8
BLACK
6
CONTINUOUS
10
2.09186
20
-1.64765
11
2.09203
21
-1.64744
0
LINE
8
BLACK
6
CONTINUOUS
10
2.09203
20
-1.64744
11
2.09278
21
-1.64731
0
LINE
8
BLACK
6
CONTINUOUS
10
2.09278
20
-1.64731
11
2.0935
21
-1.64705
0
LINE
8
BLACK
6
CONTINUOUS
10
2.0935
20
-1.64705
11
2.1935
21
-1.64705
0
LINE
8
BLACK
6
CONTINUOUS
10
2.1935
20
-1.64705
11
2.19389
21
-1.64711
0
LINE
8
BLACK
6
CONTINUOUS
10
2.09646
20
-1.65295
11
2.09646
21
-1.74705
0
LINE
8
BLACK
6
CONTINUOUS
10
2.09646
20
-1.74705
11
2.19055
21
-1.74705
0
LINE
8
BLACK
6
CONTINUOUS
10
2.19055
20
-1.74705
11
2.19055
21
-1.65295
0
LINE
8
BLACK
6
CONTINUOUS
10
2.19055
20
-1.65295
11
2.09646
21
-1.65295
0
LINE
8
BLACK
6
CONTINUOUS
10
2.14389
20
-1.34711
11
2.14402
21
-1.34709
0
LINE
8
BLACK
6
CONTINUOUS
10
2.14402
20
-1.34709
11
2.14413
21
-1.34716
0
LINE
8
BLACK
6
CONTINUOUS
10
2.14413
20
-1.34716
11
2.14451
21
-1.34723
0
LINE
8
BLACK
6
CONTINUOUS
10
2.14451
20
-1.34723
11
2.1451
21
-1.34772
0
LINE
8
BLACK
6
CONTINUOUS
10
2.1451
20
-1.34772
11
2.14577
21
-1.3481
0
LINE
8
BLACK
6
CONTINUOUS
10
2.14577
20
-1.3481
11
2.14586
21
-1.34835
0
LINE
8
BLACK
6
CONTINUOUS
10
2.14586
20
-1.34835
11
2.14606
21
-1.34852
0
LINE
8
BLACK
6
CONTINUOUS
10
2.14606
20
-1.34852
11
2.14619
21
-1.34928
0
LINE
8
BLACK
6
CONTINUOUS
10
2.14619
20
-1.34928
11
2.14646
21
-1.35
0
LINE
8
BLACK
6
CONTINUOUS
10
2.14646
20
-1.35
11
2.14646
21
-1.39705
0
LINE
8
BLACK
6
CONTINUOUS
10
2.14646
20
-1.39705
11
2.3435
21
-1.39705
0
LINE
8
BLACK
6
CONTINUOUS
10
2.3435
20
-1.39705
11
2.34389
21
-1.39711
0
LINE
8
BLACK
6
CONTINUOUS
10
2.34389
20
-1.39711
11
2.34402
21
-1.39709
0
LINE
8
BLACK
6
CONTINUOUS
10
2.34402
20
-1.39709
11
2.34413
21
-1.39716
0
LINE
8
BLACK
6
CONTINUOUS
10
2.34413
20
-1.39716
11
2.34451
21
-1.39723
0
LINE
8
BLACK
6
CONTINUOUS
10
2.34451
20
-1.39723
11
2.3451
21
-1.39772
0
LINE
8
BLACK
6
CONTINUOUS
10
2.3451
20
-1.39772
11
2.34577
21
-1.3981
0
LINE
8
BLACK
6
CONTINUOUS
10
2.34577
20
-1.3981
11
2.34586
21
-1.39835
0
LINE
8
BLACK
6
CONTINUOUS
10
2.34586
20
-1.39835
11
2.34606
21
-1.39852
0
LINE
8
BLACK
6
CONTINUOUS
10
2.34606
20
-1.39852
11
2.34619
21
-1.39928
0
LINE
8
BLACK
6
CONTINUOUS
10
2.34619
20
-1.39928
11
2.34646
21
-1.4
0
LINE
8
BLACK
6
CONTINUOUS
10
2.34646
20
-1.4
11
2.34646
21
-2.8
0
LINE
8
BLACK
6
CONTINUOUS
10
2.34646
20
-2.8
11
2.34639
21
-2.80038
0
LINE
8
BLACK
6
CONTINUOUS
10
2.34639
20
-2.80038
11
2.34641
21
-2.80051
0
LINE
8
BLACK
6
CONTINUOUS
10
2.34641
20
-2.80051
11
2.34635
21
-2.80063
0
LINE
8
BLACK
6
CONTINUOUS
10
2.34635
20
-2.80063
11
2.34628
21
-2.80101
0
LINE
8
BLACK
6
CONTINUOUS
10
2.34628
20
-2.80101
11
2.34579
21
-2.8016
0
LINE
8
BLACK
6
CONTINUOUS
10
2.34579
20
-2.8016
11
2.3454
21
-2.80226
0
LINE
8
BLACK
6
CONTINUOUS
10
2.3454
20
-2.80226
11
2.34515
21
-2.80235
0
LINE
8
BLACK
6
CONTINUOUS
10
2.34515
20
-2.80235
11
2.34498
21
-2.80256
0
LINE
8
BLACK
6
CONTINUOUS
10
2.34498
20
-2.80256
11
2.34422
21
-2.80269
0
LINE
8
BLACK
6
CONTINUOUS
10
2.34422
20
-2.80269
11
2.3435
21
-2.80295
0
LINE
8
BLACK
6
CONTINUOUS
10
2.3435
20
-2.80295
11
1.6435
21
-2.80295
0
LINE
8
BLACK
6
CONTINUOUS
10
1.6435
20
-2.80295
11
1.64312
21
-2.80289
0
LINE
8
BLACK
6
CONTINUOUS
10
1.64312
20
-2.80289
11
1.64299
21
-2.80291
0
LINE
8
BLACK
6
CONTINUOUS
10
1.64299
20
-2.80291
11
1.64288
21
-2.80284
0
LINE
8
BLACK
6
CONTINUOUS
10
1.64288
20
-2.80284
11
1.64249
21
-2.80277
0
LINE
8
BLACK
6
CONTINUOUS
10
1.64249
20
-2.80277
11
1.64191
21
-2.80228
0
LINE
8
BLACK
6
CONTINUOUS
10
1.64191
20
-2.80228
11
1.64124
21
-2.8019
0
LINE
8
BLACK
6
CONTINUOUS
10
1.64124
20
-2.8019
11
1.64115
21
-2.80165
0
LINE
8
BLACK
6
CONTINUOUS
10
1.64115
20
-2.80165
11
1.64095
21
-2.80148
0
LINE
8
BLACK
6
CONTINUOUS
10
1.64095
20
-2.80148
11
1.64081
21
-2.80072
0
LINE
8
BLACK
6
CONTINUOUS
10
1.64081
20
-2.80072
11
1.64055
21
-2.8
0
LINE
8
BLACK
6
CONTINUOUS
10
1.64055
20
-2.8
11
1.64055
21
-1.4
0
LINE
8
BLACK
6
CONTINUOUS
10
1.64055
20
-1.4
11
1.64062
21
-1.39962
0
LINE
8
BLACK
6
CONTINUOUS
10
1.64062
20
-1.39962
11
1.6406
21
-1.39949
0
LINE
8
BLACK
6
CONTINUOUS
10
1.6406
20
-1.39949
11
1.64066
21
-1.39937
0
LINE
8
BLACK
6
CONTINUOUS
10
1.64066
20
-1.39937
11
1.64073
21
-1.39899
0
LINE
8
BLACK
6
CONTINUOUS
10
1.64073
20
-1.39899
11
1.64122
21
-1.3984
0
LINE
8
BLACK
6
CONTINUOUS
10
1.64122
20
-1.3984
11
1.64161
21
-1.39774
0
LINE
8
BLACK
6
CONTINUOUS
10
1.64161
20
-1.39774
11
1.64186
21
-1.39765
0
LINE
8
BLACK
6
CONTINUOUS
10
1.64186
20
-1.39765
11
1.64203
21
-1.39744
0
LINE
8
BLACK
6
CONTINUOUS
10
1.64203
20
-1.39744
11
1.64278
21
-1.39731
0
LINE
8
BLACK
6
CONTINUOUS
10
1.64278
20
-1.39731
11
1.6435
21
-1.39705
0
LINE
8
BLACK
6
CONTINUOUS
10
1.6435
20
-1.39705
11
1.84055
21
-1.39705
0
LINE
8
BLACK
6
CONTINUOUS
10
1.84055
20
-1.39705
11
1.84055
21
-1.35
0
LINE
8
BLACK
6
CONTINUOUS
10
1.84055
20
-1.35
11
1.84062
21
-1.34962
0
LINE
8
BLACK
6
CONTINUOUS
10
1.84062
20
-1.34962
11
1.8406
21
-1.34949
0
LINE
8
BLACK
6
CONTINUOUS
10
1.8406
20
-1.34949
11
1.84066
21
-1.34937
0
LINE
8
BLACK
6
CONTINUOUS
10
1.84066
20
-1.34937
11
1.84073
21
-1.34899
0
LINE
8
BLACK
6
CONTINUOUS
10
1.84073
20
-1.34899
11
1.84122
21
-1.3484
0
LINE
8
BLACK
6
CONTINUOUS
10
1.84122
20
-1.3484
11
1.84161
21
-1.34774
0
LINE
8
BLACK
6
CONTINUOUS
10
1.84161
20
-1.34774
11
1.84186
21
-1.34765
0
LINE
8
BLACK
6
CONTINUOUS
10
1.84186
20
-1.34765
11
1.84203
21
-1.34744
0
LINE
8
BLACK
6
CONTINUOUS
10
1.84203
20
-1.34744
11
1.84278
21
-1.34731
0
LINE
8
BLACK
6
CONTINUOUS
10
1.84278
20
-1.34731
11
1.8435
21
-1.34705
0
LINE
8
BLACK
6
CONTINUOUS
10
1.8435
20
-1.34705
11
2.1435
21
-1.34705
0
LINE
8
BLACK
6
CONTINUOUS
10
2.1435
20
-1.34705
11
2.14389
21
-1.34711
0
LINE
8
BLACK
6
CONTINUOUS
10
2.14646
20
-1.40295
11
2.14646
21
-1.6
0
LINE
8
BLACK
6
CONTINUOUS
10
2.14646
20
-1.6
11
2.14639
21
-1.60038
0
LINE
8
BLACK
6
CONTINUOUS
10
2.14639
20
-1.60038
11
2.14641
21
-1.60051
0
LINE
8
BLACK
6
CONTINUOUS
10
2.14641
20
-1.60051
11
2.14635
21
-1.60063
0
LINE
8
BLACK
6
CONTINUOUS
10
2.14635
20
-1.60063
11
2.14628
21
-1.60101
0
LINE
8
BLACK
6
CONTINUOUS
10
2.14628
20
-1.60101
11
2.14579
21
-1.6016
0
LINE
8
BLACK
6
CONTINUOUS
10
2.14579
20
-1.6016
11
2.1454
21
-1.60226
0
LINE
8
BLACK
6
CONTINUOUS
10
2.1454
20
-1.60226
11
2.14515
21
-1.60235
0
LINE
8
BLACK
6
CONTINUOUS
10
2.14515
20
-1.60235
11
2.14498
21
-1.60256
0
LINE
8
BLACK
6
CONTINUOUS
10
2.14498
20
-1.60256
11
2.14422
21
-1.60269
0
LINE
8
BLACK
6
CONTINUOUS
10
2.14422
20
-1.60269
11
2.1435
21
-1.60295
0
LINE
8
BLACK
6
CONTINUOUS
10
2.1435
20
-1.60295
11
1.8435
21
-1.60295
0
LINE
8
BLACK
6
CONTINUOUS
10
1.8435
20
-1.60295
11
1.84312
21
-1.60289
0
LINE
8
BLACK
6
CONTINUOUS
10
1.84312
20
-1.60289
11
1.84299
21
-1.60291
0
LINE
8
BLACK
6
CONTINUOUS
10
1.84299
20
-1.60291
11
1.84288
21
-1.60284
0
LINE
8
BLACK
6
CONTINUOUS
10
1.84288
20
-1.60284
11
1.84249
21
-1.60277
0
LINE
8
BLACK
6
CONTINUOUS
10
1.84249
20
-1.60277
11
1.84191
21
-1.60228
0
LINE
8
BLACK
6
CONTINUOUS
10
1.84191
20
-1.60228
11
1.84124
21
-1.6019
0
LINE
8
BLACK
6
CONTINUOUS
10
1.84124
20
-1.6019
11
1.84115
21
-1.60165
0
LINE
8
BLACK
6
CONTINUOUS
10
1.84115
20
-1.60165
11
1.84095
21
-1.60148
0
LINE
8
BLACK
6
CONTINUOUS
10
1.84095
20
-1.60148
11
1.84081
21
-1.60072
0
LINE
8
BLACK
6
CONTINUOUS
10
1.84081
20
-1.60072
11
1.84055
21
-1.6
0
LINE
8
BLACK
6
CONTINUOUS
10
1.84055
20
-1.6
11
1.84055
21
-1.40295
0
LINE
8
BLACK
6
CONTINUOUS
10
1.84055
20
-1.40295
11
1.64646
21
-1.40295
0
LINE
8
BLACK
6
CONTINUOUS
10
1.64646
20
-1.40295
11
1.64646
21
-2.79705
0
LINE
8
BLACK
6
CONTINUOUS
10
1.64646
20
-2.79705
11
2.34055
21
-2.79705
0
LINE
8
BLACK
6
CONTINUOUS
10
2.34055
20
-2.79705
11
2.34055
21
-1.40295
0
LINE
8
BLACK
6
CONTINUOUS
10
2.34055
20
-1.40295
11
2.14646
21
-1.40295
0
LINE
8
BLACK
6
CONTINUOUS
10
1.84646
20
-1.40295
11
1.84646
21
-1.59705
0
LINE
8
BLACK
6
CONTINUOUS
10
1.84646
20
-1.59705
11
2.14055
21
-1.59705
0
LINE
8
BLACK
6
CONTINUOUS
10
2.14055
20
-1.59705
11
2.14055
21
-1.40295
0
LINE
8
BLACK
6
CONTINUOUS
10
2.14055
20
-1.40295
11
1.84646
21
-1.40295
0
LINE
8
BLACK
6
CONTINUOUS
10
1.84646
20
-1.35295
11
1.84646
21
-1.39705
0
LINE
8
BLACK
6
CONTINUOUS
10
1.84646
20
-1.39705
11
2.14055
21
-1.39705
0
LINE
8
BLACK
6
CONTINUOUS
10
2.14055
20
-1.39705
11
2.14055
21
-1.35295
0
LINE
8
BLACK
6
CONTINUOUS
10
2.14055
20
-1.35295
11
1.84646
21
-1.35295
0
LINE
8
BLACK
6
CONTINUOUS
10
1.58535
20
-2.107
11
1.58647
21
-2.10869
0
LINE
8
BLACK
6
CONTINUOUS
10
1.58647
20
-2.10869
11
1.58624
21
-2.11069
0
LINE
8
BLACK
6
CONTINUOUS
10
1.58624
20
-2.11069
11
1.58436
21
-2.11444
0
LINE
8
BLACK
6
CONTINUOUS
10
1.58436
20
-2.11444
11
1.58384
21
-2.11515
0
LINE
8
BLACK
6
CONTINUOUS
10
1.58384
20
-2.11515
11
1.58381
21
-2.11521
0
LINE
8
BLACK
6
CONTINUOUS
10
1.58381
20
-2.11521
11
1.58135
21
-2.11767
0
LINE
8
BLACK
6
CONTINUOUS
10
1.58135
20
-2.11767
11
1.60876
21
-2.11767
0
LINE
8
BLACK
6
CONTINUOUS
10
1.60876
20
-2.11767
11
1.60876
21
-2.10937
0
LINE
8
BLACK
6
CONTINUOUS
10
1.60876
20
-2.10937
11
1.60894
21
-2.10836
0
LINE
8
BLACK
6
CONTINUOUS
10
1.60894
20
-2.10836
11
1.61024
21
-2.10682
0
LINE
8
BLACK
6
CONTINUOUS
10
1.61024
20
-2.10682
11
1.61223
21
-2.10647
0
LINE
8
BLACK
6
CONTINUOUS
10
1.61223
20
-2.10647
11
1.61398
21
-2.10748
0
LINE
8
BLACK
6
CONTINUOUS
10
1.61398
20
-2.10748
11
1.61467
21
-2.10937
0
LINE
8
BLACK
6
CONTINUOUS
10
1.61467
20
-2.10937
11
1.61467
21
-2.13187
0
LINE
8
BLACK
6
CONTINUOUS
10
1.61467
20
-2.13187
11
1.61449
21
-2.13288
0
LINE
8
BLACK
6
CONTINUOUS
10
1.61449
20
-2.13288
11
1.61319
21
-2.13443
0
LINE
8
BLACK
6
CONTINUOUS
10
1.61319
20
-2.13443
11
1.6112
21
-2.13478
0
LINE
8
BLACK
6
CONTINUOUS
10
1.6112
20
-2.13478
11
1.60946
21
-2.13377
0
LINE
8
BLACK
6
CONTINUOUS
10
1.60946
20
-2.13377
11
1.60876
21
-2.13187
0
LINE
8
BLACK
6
CONTINUOUS
10
1.60876
20
-2.13187
11
1.60876
21
-2.12358
0
LINE
8
BLACK
6
CONTINUOUS
10
1.60876
20
-2.12358
11
1.57235
21
-2.12358
0
LINE
8
BLACK
6
CONTINUOUS
10
1.57235
20
-2.12358
11
1.57134
21
-2.1234
0
LINE
8
BLACK
6
CONTINUOUS
10
1.57134
20
-2.1234
11
1.57121
21
-2.12329
0
LINE
8
BLACK
6
CONTINUOUS
10
1.57121
20
-2.12329
11
1.57104
21
-2.12327
0
LINE
8
BLACK
6
CONTINUOUS
10
1.57104
20
-2.12327
11
1.57045
21
-2.12265
0
LINE
8
BLACK
6
CONTINUOUS
10
1.57045
20
-2.12265
11
1.56979
21
-2.1221
0
LINE
8
BLACK
6
CONTINUOUS
10
1.56979
20
-2.1221
11
1.56976
21
-2.12193
0
LINE
8
BLACK
6
CONTINUOUS
10
1.56976
20
-2.12193
11
1.56964
21
-2.12181
0
LINE
8
BLACK
6
CONTINUOUS
10
1.56964
20
-2.12181
11
1.56959
21
-2.12095
0
LINE
8
BLACK
6
CONTINUOUS
10
1.56959
20
-2.12095
11
1.56944
21
-2.12011
0
LINE
8
BLACK
6
CONTINUOUS
10
1.56944
20
-2.12011
11
1.56952
21
-2.11996
0
LINE
8
BLACK
6
CONTINUOUS
10
1.56952
20
-2.11996
11
1.56951
21
-2.11979
0
LINE
8
BLACK
6
CONTINUOUS
10
1.56951
20
-2.11979
11
1.57002
21
-2.1191
0
LINE
8
BLACK
6
CONTINUOUS
10
1.57002
20
-2.1191
11
1.57045
21
-2.11836
0
LINE
8
BLACK
6
CONTINUOUS
10
1.57045
20
-2.11836
11
1.57061
21
-2.1183
0
LINE
8
BLACK
6
CONTINUOUS
10
1.57061
20
-2.1183
11
1.57071
21
-2.11817
0
LINE
8
BLACK
6
CONTINUOUS
10
1.57071
20
-2.11817
11
1.57609
21
-2.11458
0
LINE
8
BLACK
6
CONTINUOUS
10
1.57609
20
-2.11458
11
1.57929
21
-2.11137
0
LINE
8
BLACK
6
CONTINUOUS
10
1.57929
20
-2.11137
11
1.58095
21
-2.10805
0
LINE
8
BLACK
6
CONTINUOUS
10
1.58095
20
-2.10805
11
1.58157
21
-2.10723
0
LINE
8
BLACK
6
CONTINUOUS
10
1.58157
20
-2.10723
11
1.58342
21
-2.10643
0
LINE
8
BLACK
6
CONTINUOUS
10
1.58342
20
-2.10643
11
1.58535
21
-2.107
0
LINE
8
BLACK
6
CONTINUOUS
10
1.60523
20
-2.06723
11
1.60536
21
-2.06734
0
LINE
8
BLACK
6
CONTINUOUS
10
1.60536
20
-2.06734
11
1.60554
21
-2.06736
0
LINE
8
BLACK
6
CONTINUOUS
10
1.60554
20
-2.06736
11
1.60929
21
-2.06924
0
LINE
8
BLACK
6
CONTINUOUS
10
1.60929
20
-2.06924
11
1.61
21
-2.06976
0
LINE
8
BLACK
6
CONTINUOUS
10
1.61
20
-2.06976
11
1.61006
21
-2.06979
0
LINE
8
BLACK
6
CONTINUOUS
10
1.61006
20
-2.06979
11
1.61193
21
-2.07167
0
LINE
8
BLACK
6
CONTINUOUS
10
1.61193
20
-2.07167
11
1.61244
21
-2.07239
0
LINE
8
BLACK
6
CONTINUOUS
10
1.61244
20
-2.07239
11
1.61248
21
-2.07243
0
LINE
8
BLACK
6
CONTINUOUS
10
1.61248
20
-2.07243
11
1.61436
21
-2.07618
0
LINE
8
BLACK
6
CONTINUOUS
10
1.61436
20
-2.07618
11
1.61465
21
-2.07717
0
LINE
8
BLACK
6
CONTINUOUS
10
1.61465
20
-2.07717
11
1.61461
21
-2.07734
0
LINE
8
BLACK
6
CONTINUOUS
10
1.61461
20
-2.07734
11
1.61467
21
-2.0775
0
LINE
8
BLACK
6
CONTINUOUS
10
1.61467
20
-2.0775
11
1.61467
21
-2.085
0
LINE
8
BLACK
6
CONTINUOUS
10
1.61467
20
-2.085
11
1.61449
21
-2.08601
0
LINE
8
BLACK
6
CONTINUOUS
10
1.61449
20
-2.08601
11
1.61438
21
-2.08615
0
LINE
8
BLACK
6
CONTINUOUS
10
1.61438
20
-2.08615
11
1.61436
21
-2.08632
0
LINE
8
BLACK
6
CONTINUOUS
10
1.61436
20
-2.08632
11
1.61248
21
-2.09007
0
LINE
8
BLACK
6
CONTINUOUS
10
1.61248
20
-2.09007
11
1.61196
21
-2.09078
0
LINE
8
BLACK
6
CONTINUOUS
10
1.61196
20
-2.09078
11
1.61193
21
-2.09084
0
LINE
8
BLACK
6
CONTINUOUS
10
1.61193
20
-2.09084
11
1.61006
21
-2.09271
0
LINE
8
BLACK
6
CONTINUOUS
10
1.61006
20
-2.09271
11
1.60933
21
-2.09322
0
LINE
8
BLACK
6
CONTINUOUS
10
1.60933
20
-2.09322
11
1.60929
21
-2.09327
0
LINE
8
BLACK
6
CONTINUOUS
10
1.60929
20
-2.09327
11
1.60554
21
-2.09514
0
LINE
8
BLACK
6
CONTINUOUS
10
1.60554
20
-2.09514
11
1.60456
21
-2.09543
0
LINE
8
BLACK
6
CONTINUOUS
10
1.60456
20
-2.09543
11
1.60438
21
-2.09539
0
LINE
8
BLACK
6
CONTINUOUS
10
1.60438
20
-2.09539
11
1.60422
21
-2.09545
0
LINE
8
BLACK
6
CONTINUOUS
10
1.60422
20
-2.09545
11
1.57235
21
-2.09545
0
LINE
8
BLACK
6
CONTINUOUS
10
1.57235
20
-2.09545
11
1.57134
21
-2.09528
0
LINE
8
BLACK
6
CONTINUOUS
10
1.57134
20
-2.09528
11
1.56979
21
-2.09398
0
LINE
8
BLACK
6
CONTINUOUS
10
1.56979
20
-2.09398
11
1.56944
21
-2.09199
0
LINE
8
BLACK
6
CONTINUOUS
10
1.56944
20
-2.09199
11
1.57045
21
-2.09024
0
LINE
8
BLACK
6
CONTINUOUS
10
1.57045
20
-2.09024
11
1.57235
21
-2.08955
0
LINE
8
BLACK
6
CONTINUOUS
10
1.57235
20
-2.08955
11
1.60352
21
-2.08955
0
LINE
8
BLACK
6
CONTINUOUS
10
1.60352
20
-2.08955
11
1.60622
21
-2.0882
0
LINE
8
BLACK
6
CONTINUOUS
10
1.60622
20
-2.0882
11
1.60742
21
-2.087
0
LINE
8
BLACK
6
CONTINUOUS
10
1.60742
20
-2.087
11
1.60876
21
-2.0843
0
LINE
8
BLACK
6
CONTINUOUS
10
1.60876
20
-2.0843
11
1.60876
21
-2.0782
0
LINE
8
BLACK
6
CONTINUOUS
10
1.60876
20
-2.0782
11
1.60742
21
-2.0755
0
LINE
8
BLACK
6
CONTINUOUS
10
1.60742
20
-2.0755
11
1.60622
21
-2.07431
0
LINE
8
BLACK
6
CONTINUOUS
10
1.60622
20
-2.07431
11
1.60352
21
-2.07296
0
LINE
8
BLACK
6
CONTINUOUS
10
1.60352
20
-2.07296
11
1.57235
21
-2.07296
0
LINE
8
BLACK
6
CONTINUOUS
10
1.57235
20
-2.07296
11
1.57134
21
-2.07278
0
LINE
8
BLACK
6
CONTINUOUS
10
1.57134
20
-2.07278
11
1.56979
21
-2.07148
0
LINE
8
BLACK
6
CONTINUOUS
10
1.56979
20
-2.07148
11
1.56944
21
-2.06949
0
LINE
8
BLACK
6
CONTINUOUS
10
1.56944
20
-2.06949
11
1.57045
21
-2.06774
0
LINE
8
BLACK
6
CONTINUOUS
10
1.57045
20
-2.06774
11
1.57235
21
-2.06705
0
LINE
8
BLACK
6
CONTINUOUS
10
1.57235
20
-2.06705
11
1.60422
21
-2.06705
0
LINE
8
BLACK
6
CONTINUOUS
10
1.60422
20
-2.06705
11
1.60523
21
-2.06723
  0
ENDSEC
  0
EOF
