G04 #@! TF.GenerationSoftware,KiCad,Pcbnew,7.0.1-0*
G04 #@! TF.CreationDate,2023-09-27T15:06:49-04:00*
G04 #@! TF.ProjectId,mechanical_speedo,6d656368-616e-4696-9361-6c5f73706565,rev?*
G04 #@! TF.SameCoordinates,Original*
G04 #@! TF.FileFunction,Legend,Top*
G04 #@! TF.FilePolarity,Positive*
%FSLAX46Y46*%
G04 Gerber Fmt 4.6, Leading zero omitted, Abs format (unit mm)*
G04 Created by KiCad (PCBNEW 7.0.1-0) date 2023-09-27 15:06:49*
%MOMM*%
%LPD*%
G01*
G04 APERTURE LIST*
%ADD10C,0.507214*%
%ADD11C,0.125000*%
%ADD12C,0.100000*%
%ADD13C,0.254000*%
%ADD14C,0.120000*%
%ADD15C,0.200000*%
G04 APERTURE END LIST*
D10*
X3653607Y3047214D02*
G75*
G03*
X3653607Y3047214I-253607J0D01*
G01*
D11*
X2130952Y-4938809D02*
X1845238Y-4938809D01*
X1988095Y-4938809D02*
X1988095Y-4438809D01*
X1988095Y-4438809D02*
X1940476Y-4510238D01*
X1940476Y-4510238D02*
X1892857Y-4557857D01*
X1892857Y-4557857D02*
X1845238Y-4581666D01*
X2440475Y-4438809D02*
X2488094Y-4438809D01*
X2488094Y-4438809D02*
X2535713Y-4462619D01*
X2535713Y-4462619D02*
X2559523Y-4486428D01*
X2559523Y-4486428D02*
X2583332Y-4534047D01*
X2583332Y-4534047D02*
X2607142Y-4629285D01*
X2607142Y-4629285D02*
X2607142Y-4748333D01*
X2607142Y-4748333D02*
X2583332Y-4843571D01*
X2583332Y-4843571D02*
X2559523Y-4891190D01*
X2559523Y-4891190D02*
X2535713Y-4915000D01*
X2535713Y-4915000D02*
X2488094Y-4938809D01*
X2488094Y-4938809D02*
X2440475Y-4938809D01*
X2440475Y-4938809D02*
X2392856Y-4915000D01*
X2392856Y-4915000D02*
X2369047Y-4891190D01*
X2369047Y-4891190D02*
X2345237Y-4843571D01*
X2345237Y-4843571D02*
X2321428Y-4748333D01*
X2321428Y-4748333D02*
X2321428Y-4629285D01*
X2321428Y-4629285D02*
X2345237Y-4534047D01*
X2345237Y-4534047D02*
X2369047Y-4486428D01*
X2369047Y-4486428D02*
X2392856Y-4462619D01*
X2392856Y-4462619D02*
X2440475Y-4438809D01*
X2916665Y-4438809D02*
X2964284Y-4438809D01*
X2964284Y-4438809D02*
X3011903Y-4462619D01*
X3011903Y-4462619D02*
X3035713Y-4486428D01*
X3035713Y-4486428D02*
X3059522Y-4534047D01*
X3059522Y-4534047D02*
X3083332Y-4629285D01*
X3083332Y-4629285D02*
X3083332Y-4748333D01*
X3083332Y-4748333D02*
X3059522Y-4843571D01*
X3059522Y-4843571D02*
X3035713Y-4891190D01*
X3035713Y-4891190D02*
X3011903Y-4915000D01*
X3011903Y-4915000D02*
X2964284Y-4938809D01*
X2964284Y-4938809D02*
X2916665Y-4938809D01*
X2916665Y-4938809D02*
X2869046Y-4915000D01*
X2869046Y-4915000D02*
X2845237Y-4891190D01*
X2845237Y-4891190D02*
X2821427Y-4843571D01*
X2821427Y-4843571D02*
X2797618Y-4748333D01*
X2797618Y-4748333D02*
X2797618Y-4629285D01*
X2797618Y-4629285D02*
X2821427Y-4534047D01*
X2821427Y-4534047D02*
X2845237Y-4486428D01*
X2845237Y-4486428D02*
X2869046Y-4462619D01*
X2869046Y-4462619D02*
X2916665Y-4438809D01*
X3297617Y-4605476D02*
X3297617Y-4938809D01*
X3297617Y-4653095D02*
X3321427Y-4629285D01*
X3321427Y-4629285D02*
X3369046Y-4605476D01*
X3369046Y-4605476D02*
X3440474Y-4605476D01*
X3440474Y-4605476D02*
X3488093Y-4629285D01*
X3488093Y-4629285D02*
X3511903Y-4676904D01*
X3511903Y-4676904D02*
X3511903Y-4938809D01*
X3916665Y-4676904D02*
X3749998Y-4676904D01*
X3749998Y-4938809D02*
X3749998Y-4438809D01*
X3749998Y-4438809D02*
X3988093Y-4438809D01*
D12*
X-4347619Y2048952D02*
X-4385714Y2068000D01*
X-4385714Y2068000D02*
X-4404761Y2087047D01*
X-4404761Y2087047D02*
X-4423809Y2125142D01*
X-4423809Y2125142D02*
X-4423809Y2239428D01*
X-4423809Y2239428D02*
X-4404761Y2277523D01*
X-4404761Y2277523D02*
X-4385714Y2296571D01*
X-4385714Y2296571D02*
X-4347619Y2315619D01*
X-4347619Y2315619D02*
X-4290476Y2315619D01*
X-4290476Y2315619D02*
X-4252380Y2296571D01*
X-4252380Y2296571D02*
X-4233333Y2277523D01*
X-4233333Y2277523D02*
X-4214285Y2239428D01*
X-4214285Y2239428D02*
X-4214285Y2125142D01*
X-4214285Y2125142D02*
X-4233333Y2087047D01*
X-4233333Y2087047D02*
X-4252380Y2068000D01*
X-4252380Y2068000D02*
X-4290476Y2048952D01*
X-4290476Y2048952D02*
X-4347619Y2048952D01*
X-4042856Y2315619D02*
X-4042856Y1915619D01*
X-4042856Y2296571D02*
X-4004761Y2315619D01*
X-4004761Y2315619D02*
X-3928571Y2315619D01*
X-3928571Y2315619D02*
X-3890475Y2296571D01*
X-3890475Y2296571D02*
X-3871428Y2277523D01*
X-3871428Y2277523D02*
X-3852380Y2239428D01*
X-3852380Y2239428D02*
X-3852380Y2125142D01*
X-3852380Y2125142D02*
X-3871428Y2087047D01*
X-3871428Y2087047D02*
X-3890475Y2068000D01*
X-3890475Y2068000D02*
X-3928571Y2048952D01*
X-3928571Y2048952D02*
X-4004761Y2048952D01*
X-4004761Y2048952D02*
X-4042856Y2068000D01*
X-3738094Y2315619D02*
X-3585713Y2315619D01*
X-3680951Y2448952D02*
X-3680951Y2106095D01*
X-3680951Y2106095D02*
X-3661904Y2068000D01*
X-3661904Y2068000D02*
X-3623809Y2048952D01*
X-3623809Y2048952D02*
X-3585713Y2048952D01*
X-3452380Y2087047D02*
X-3433333Y2068000D01*
X-3433333Y2068000D02*
X-3452380Y2048952D01*
X-3452380Y2048952D02*
X-3471428Y2068000D01*
X-3471428Y2068000D02*
X-3452380Y2087047D01*
X-3452380Y2087047D02*
X-3452380Y2048952D01*
D13*
X587526Y-1239762D02*
X-682473Y-1239762D01*
X466573Y90714D02*
X527050Y30238D01*
X527050Y30238D02*
X587526Y-151190D01*
X587526Y-151190D02*
X587526Y-272142D01*
X587526Y-272142D02*
X527050Y-453571D01*
X527050Y-453571D02*
X406097Y-574523D01*
X406097Y-574523D02*
X285145Y-635000D01*
X285145Y-635000D02*
X43240Y-695476D01*
X43240Y-695476D02*
X-138188Y-695476D01*
X-138188Y-695476D02*
X-380092Y-635000D01*
X-380092Y-635000D02*
X-501045Y-574523D01*
X-501045Y-574523D02*
X-621997Y-453571D01*
X-621997Y-453571D02*
X-682473Y-272142D01*
X-682473Y-272142D02*
X-682473Y-151190D01*
X-682473Y-151190D02*
X-621997Y30238D01*
X-621997Y30238D02*
X-561521Y90714D01*
X587526Y1300238D02*
X587526Y574523D01*
X587526Y937380D02*
X-682473Y937380D01*
X-682473Y937380D02*
X-501045Y816428D01*
X-501045Y816428D02*
X-380092Y695476D01*
X-380092Y695476D02*
X-319616Y574523D01*
D14*
X-3077500Y-62258D02*
X-3077500Y412258D01*
X-4122500Y-62258D02*
X-4122500Y412258D01*
D15*
X2450000Y1600000D02*
X2450000Y-1600000D01*
X2450000Y-1600000D02*
X-2450000Y-1600000D01*
X-2450000Y-1600000D02*
X-2450000Y1600000D01*
X-2450000Y1600000D02*
X2450000Y1600000D01*
X2605000Y3475000D02*
X2605000Y1950000D01*
D14*
X-40580Y-5110000D02*
X240580Y-5110000D01*
X-40580Y-4090000D02*
X240580Y-4090000D01*
X3885000Y3670000D02*
X3885000Y6330000D01*
X-1255000Y3670000D02*
X3885000Y3670000D01*
X-2525000Y3670000D02*
X-3855000Y3670000D01*
X-1255000Y6330000D02*
X3885000Y6330000D01*
X-3855000Y3670000D02*
X-3855000Y5000000D01*
X-1255000Y3670000D02*
X-1255000Y6330000D01*
M02*
