G04 #@! TF.GenerationSoftware,KiCad,Pcbnew,7.0.2-0*
G04 #@! TF.CreationDate,2023-05-22T20:56:43-04:00*
G04 #@! TF.ProjectId,speed_joystick,73706565-645f-46a6-9f79-737469636b2e,rev?*
G04 #@! TF.SameCoordinates,Original*
G04 #@! TF.FileFunction,Copper,L2,Bot*
G04 #@! TF.FilePolarity,Positive*
%FSLAX46Y46*%
G04 Gerber Fmt 4.6, Leading zero omitted, Abs format (unit mm)*
G04 Created by KiCad (PCBNEW 7.0.2-0) date 2023-05-22 20:56:43*
%MOMM*%
%LPD*%
G01*
G04 APERTURE LIST*
G04 Aperture macros list*
%AMRoundRect*
0 Rectangle with rounded corners*
0 $1 Rounding radius*
0 $2 $3 $4 $5 $6 $7 $8 $9 X,Y pos of 4 corners*
0 Add a 4 corners polygon primitive as box body*
4,1,4,$2,$3,$4,$5,$6,$7,$8,$9,$2,$3,0*
0 Add four circle primitives for the rounded corners*
1,1,$1+$1,$2,$3*
1,1,$1+$1,$4,$5*
1,1,$1+$1,$6,$7*
1,1,$1+$1,$8,$9*
0 Add four rect primitives between the rounded corners*
20,1,$1+$1,$2,$3,$4,$5,0*
20,1,$1+$1,$4,$5,$6,$7,0*
20,1,$1+$1,$6,$7,$8,$9,0*
20,1,$1+$1,$8,$9,$2,$3,0*%
G04 Aperture macros list end*
G04 #@! TA.AperFunction,ComponentPad*
%ADD10R,1.700000X1.700000*%
G04 #@! TD*
G04 #@! TA.AperFunction,ComponentPad*
%ADD11O,1.700000X1.700000*%
G04 #@! TD*
G04 #@! TA.AperFunction,ComponentPad*
%ADD12RoundRect,0.250000X-0.250000X-1.200000X0.250000X-1.200000X0.250000X1.200000X-0.250000X1.200000X0*%
G04 #@! TD*
G04 #@! TA.AperFunction,ComponentPad*
%ADD13R,1.600000X1.600000*%
G04 #@! TD*
G04 #@! TA.AperFunction,ComponentPad*
%ADD14C,1.600000*%
G04 #@! TD*
G04 #@! TA.AperFunction,ViaPad*
%ADD15C,0.800000*%
G04 #@! TD*
G04 #@! TA.AperFunction,Conductor*
%ADD16C,0.500000*%
G04 #@! TD*
G04 #@! TA.AperFunction,Conductor*
%ADD17C,0.250000*%
G04 #@! TD*
G04 APERTURE END LIST*
D10*
X63475000Y-73660000D03*
D11*
X63475000Y-71120000D03*
X63475000Y-68580000D03*
X63475000Y-66040000D03*
X63475000Y-63500000D03*
X63475000Y-60960000D03*
X63475000Y-58420000D03*
X63475000Y-55880000D03*
X63475000Y-53340000D03*
D12*
X107300000Y-60050000D03*
X109300000Y-60050000D03*
X111300000Y-60050000D03*
X113300000Y-60050000D03*
X115300000Y-60050000D03*
X117300000Y-60050000D03*
X119300000Y-60050000D03*
X121300000Y-60050000D03*
D10*
X101600000Y-73660000D03*
D11*
X101600000Y-71120000D03*
X101600000Y-68580000D03*
X101600000Y-66040000D03*
X101600000Y-63500000D03*
X101600000Y-60960000D03*
X101600000Y-58420000D03*
X101600000Y-55880000D03*
X101600000Y-53340000D03*
D13*
X58255000Y-36830000D03*
D14*
X58255000Y-39370000D03*
X58255000Y-41910000D03*
X58255000Y-44450000D03*
X58255000Y-46990000D03*
X58255000Y-49530000D03*
X58255000Y-52070000D03*
X58255000Y-54610000D03*
X58255000Y-57150000D03*
X58255000Y-59690000D03*
X58255000Y-62230000D03*
X58255000Y-64770000D03*
X58255000Y-67310000D03*
X58255000Y-69850000D03*
X43015000Y-69850000D03*
X43015000Y-67310000D03*
X43015000Y-64770000D03*
X43015000Y-62230000D03*
X43015000Y-59690000D03*
X43015000Y-57150000D03*
X43015000Y-54610000D03*
X43015000Y-52070000D03*
X43015000Y-49530000D03*
X43015000Y-46990000D03*
X43015000Y-44450000D03*
X43015000Y-41910000D03*
X43015000Y-39370000D03*
X43015000Y-36830000D03*
D15*
X123444000Y-65786000D03*
X125476000Y-67564000D03*
X129794000Y-71374000D03*
X111252000Y-70612000D03*
X111760000Y-64008000D03*
X36665000Y-94755000D03*
X26505000Y-36970000D03*
X35395000Y-83325000D03*
X30950000Y-81420000D03*
X49530000Y-54610000D03*
X25870000Y-41415000D03*
X22060000Y-53480000D03*
X36665000Y-38875000D03*
X27140000Y-56020000D03*
X36030000Y-41415000D03*
X27140000Y-58560000D03*
X36030000Y-48400000D03*
X27140000Y-61735000D03*
X124504076Y-42967613D03*
X131721697Y-45359883D03*
X129470553Y-46308246D03*
X135823075Y-50487059D03*
X55880000Y-66040000D03*
X45720000Y-66040000D03*
X53340000Y-55880000D03*
X121603219Y-85233961D03*
X114808000Y-88646000D03*
X126979531Y-82603182D03*
X121298954Y-87657691D03*
X131491754Y-78670553D03*
X127312941Y-85023075D03*
X134832387Y-73704076D03*
X132440117Y-80921697D03*
X136773772Y-68042207D03*
X136331075Y-75633059D03*
X138720651Y-69517573D03*
X137183606Y-62070795D03*
X139446000Y-62992000D03*
X136033961Y-56196781D03*
X133403182Y-50820469D03*
X138457691Y-56501046D03*
X118842207Y-41026228D03*
X126433059Y-41468925D03*
X120317573Y-39079349D03*
X112870795Y-40616394D03*
X106996781Y-41766039D03*
X113792000Y-38354000D03*
X107301046Y-39342309D03*
X101620469Y-44396818D03*
X97108246Y-48329447D03*
X101287059Y-41976925D03*
X96159883Y-46078303D03*
X93767613Y-53295924D03*
X92268925Y-51366941D03*
X91826228Y-58957793D03*
X89879349Y-57482427D03*
X91416394Y-64929205D03*
X92566039Y-70803219D03*
X89154000Y-64008000D03*
X90142309Y-70498954D03*
X95196818Y-76179531D03*
X99129447Y-80691754D03*
X92776925Y-76512941D03*
X96878303Y-81640117D03*
X104095924Y-84032387D03*
X102166941Y-85531075D03*
X109757793Y-85973772D03*
X89885797Y-58930435D03*
X91186000Y-61976000D03*
X138714203Y-68069565D03*
X129566435Y-80921697D03*
X122549742Y-86928103D03*
X124537177Y-84279311D03*
X109730435Y-87914203D03*
X109789728Y-40779150D03*
X99033565Y-46078303D03*
X127176823Y-44244689D03*
X112395000Y-38735000D03*
X95044689Y-50623177D03*
X131721697Y-48233565D03*
X89535000Y-65405000D03*
X98135539Y-82358538D03*
X130464461Y-44641462D03*
X137414000Y-65024000D03*
X115824000Y-40386000D03*
X106050258Y-40071897D03*
X92368031Y-56045586D03*
X128332278Y-83994619D03*
X93520689Y-73737177D03*
X125032722Y-41100381D03*
X118810272Y-86220850D03*
X134794619Y-49467722D03*
X101423177Y-82755311D03*
X106845586Y-85431969D03*
X100267722Y-43005381D03*
X91579150Y-68010272D03*
X118869565Y-39085797D03*
X95441462Y-47335539D03*
X133555311Y-76376823D03*
X135079311Y-53262823D03*
X121754414Y-41568031D03*
X90871897Y-71749742D03*
X136699619Y-74232722D03*
X93805381Y-77532278D03*
X137020850Y-58989728D03*
X116205000Y-88265000D03*
X137728103Y-55250258D03*
X139065000Y-61595000D03*
X91900381Y-52767278D03*
X103567278Y-85899619D03*
X96878303Y-78766435D03*
X136231969Y-70954414D03*
X133158538Y-79664461D03*
X104062823Y-42720689D03*
X112776000Y-86614000D03*
D16*
X29700000Y-49650000D02*
X30970000Y-49650000D01*
X32156600Y-48463400D02*
X32156600Y-44018400D01*
X27990000Y-57710000D02*
X27990000Y-51360000D01*
X34760000Y-41415000D02*
X36030000Y-41415000D01*
X27990000Y-51360000D02*
X29700000Y-49650000D01*
X27140000Y-58560000D02*
X27990000Y-57710000D01*
X30970000Y-49650000D02*
X32156600Y-48463400D01*
X32156600Y-44018400D02*
X34760000Y-41415000D01*
X27140000Y-56020000D02*
X27140000Y-51575000D01*
X27140000Y-51575000D02*
X24993600Y-49428600D01*
X24993600Y-49428600D02*
X24993600Y-44142801D01*
X35395000Y-40145000D02*
X36665000Y-38875000D01*
X24993600Y-44142801D02*
X28991401Y-40145000D01*
X28991401Y-40145000D02*
X35395000Y-40145000D01*
X49530000Y-53340000D02*
X49530000Y-54610000D01*
X53340000Y-49530000D02*
X49530000Y-53340000D01*
X58255000Y-49530000D02*
X53340000Y-49530000D01*
X22060000Y-45225000D02*
X22060000Y-53480000D01*
X25870000Y-41415000D02*
X22060000Y-45225000D01*
X30970000Y-52190000D02*
X29345000Y-52190000D01*
X28690000Y-60185000D02*
X27140000Y-61735000D01*
X36030000Y-48400000D02*
X34760000Y-48400000D01*
X34760000Y-48400000D02*
X30970000Y-52190000D01*
X28690000Y-52845000D02*
X28690000Y-60185000D01*
X29345000Y-52190000D02*
X28690000Y-52845000D01*
D17*
X129260753Y-45359883D02*
X126868483Y-42967613D01*
X126868484Y-42967613D02*
X124504076Y-42967613D01*
X131721697Y-45359883D02*
X129260753Y-45359883D01*
X131754396Y-46920200D02*
X129470553Y-46308246D01*
X133445986Y-49850120D02*
X131754396Y-46920200D01*
X135823075Y-50487059D02*
X133445986Y-49850120D01*
D16*
X45720000Y-66040000D02*
X55880000Y-66040000D01*
X47155000Y-54775000D02*
X48260000Y-55880000D01*
X45720000Y-54775000D02*
X47155000Y-54775000D01*
X53340000Y-55880000D02*
X48260000Y-55880000D01*
X45720000Y-54775000D02*
X43015000Y-52070000D01*
D17*
X116548150Y-86905850D02*
X119931330Y-86905850D01*
X119931330Y-86905850D02*
X121603219Y-85233961D01*
X114808000Y-88646000D02*
X116548150Y-86905850D01*
X122529426Y-85526451D02*
X125797327Y-84650820D01*
X125797327Y-84650820D02*
X126979531Y-82603183D01*
X121298954Y-87657691D02*
X122529426Y-85526451D01*
X127949880Y-82645986D02*
X130879800Y-80954396D01*
X130879800Y-80954396D02*
X131491754Y-78670553D01*
X127312941Y-85023075D02*
X127949880Y-82645986D01*
X134832387Y-76068484D02*
X134832387Y-73704076D01*
X132440117Y-80921697D02*
X132440117Y-78460753D01*
X132440117Y-78460753D02*
X134832387Y-76068483D01*
X137385726Y-70326050D02*
X136773772Y-68042207D01*
X136331075Y-75633059D02*
X135694136Y-73255970D01*
X135694136Y-73255970D02*
X137385726Y-70326050D01*
X138720651Y-69517573D02*
X137490179Y-67386333D01*
X137490179Y-67386334D02*
X138365810Y-64118433D01*
X138365810Y-64118433D02*
X137183606Y-62070796D01*
X137705850Y-61251850D02*
X137705850Y-57868670D01*
X139446000Y-62992000D02*
X137705850Y-61251850D01*
X137705850Y-57868670D02*
X136033961Y-56196781D01*
X136326451Y-55270574D02*
X135450820Y-52002673D01*
X135450820Y-52002673D02*
X133403183Y-50820469D01*
X138457691Y-56501046D02*
X136326451Y-55270574D01*
X124055970Y-42105864D02*
X121126050Y-40414274D01*
X121126050Y-40414274D02*
X118842207Y-41026228D01*
X126433059Y-41468925D02*
X124055970Y-42105864D01*
X118186334Y-40309821D02*
X114918433Y-39434190D01*
X114918433Y-39434190D02*
X112870796Y-40616394D01*
X120317573Y-39079349D02*
X118186333Y-40309821D01*
X113792000Y-38354000D02*
X112051850Y-40094150D01*
X108668670Y-40094150D02*
X106996781Y-41766039D01*
X112051850Y-40094150D02*
X108668670Y-40094150D01*
X102802673Y-42349180D02*
X101620469Y-44396817D01*
X106070574Y-41473549D02*
X102802673Y-42349180D01*
X107301046Y-39342309D02*
X106070574Y-41473549D01*
X100650120Y-44354014D02*
X97720200Y-46045604D01*
X97720200Y-46045604D02*
X97108246Y-48329447D01*
X101287059Y-41976925D02*
X100650120Y-44354014D01*
X96159883Y-46078303D02*
X96159883Y-48539247D01*
X96159883Y-48539247D02*
X93767613Y-50931517D01*
X93767613Y-50931516D02*
X93767613Y-53295924D01*
X91214274Y-56673950D02*
X91826228Y-58957793D01*
X92905864Y-53744030D02*
X91214274Y-56673950D01*
X92268925Y-51366941D02*
X92905864Y-53744030D01*
X90234190Y-62881567D02*
X91416394Y-64929204D01*
X89879349Y-57482427D02*
X91109821Y-59613667D01*
X91109821Y-59613666D02*
X90234190Y-62881567D01*
X90894150Y-69131330D02*
X92566039Y-70803219D01*
X89154000Y-64008000D02*
X90894150Y-65748150D01*
X90894150Y-65748150D02*
X90894150Y-69131330D01*
X90142309Y-70498954D02*
X92273549Y-71729426D01*
X92273549Y-71729426D02*
X93149180Y-74997327D01*
X93149180Y-74997327D02*
X95196817Y-76179531D01*
X95154014Y-77149880D02*
X96845604Y-80079800D01*
X96845604Y-80079800D02*
X99129447Y-80691754D01*
X92776925Y-76512941D02*
X95154014Y-77149880D01*
X99339247Y-81640117D02*
X101731517Y-84032387D01*
X96878303Y-81640117D02*
X99339247Y-81640117D01*
X101731516Y-84032387D02*
X104095924Y-84032387D01*
X104544030Y-84894136D02*
X107473950Y-86585726D01*
X102166941Y-85531075D02*
X104544030Y-84894136D01*
X107473950Y-86585726D02*
X109757793Y-85973772D01*
G04 #@! TA.AperFunction,Conductor*
G36*
X68515149Y-34354851D02*
G01*
X68529501Y-34389499D01*
X68529501Y-95150501D01*
X68515149Y-95185149D01*
X68480501Y-95199501D01*
X41929792Y-95199501D01*
X41911040Y-95195771D01*
X41910000Y-95195340D01*
X41899955Y-95199501D01*
X41871349Y-95211350D01*
X41855340Y-95249999D01*
X41855771Y-95251040D01*
X41859501Y-95269792D01*
X41859501Y-105310501D01*
X41845149Y-105345149D01*
X41810501Y-105359501D01*
X29309499Y-105359501D01*
X29274851Y-105345149D01*
X29260499Y-105310501D01*
X29260498Y-95269794D01*
X29264231Y-95251036D01*
X29264317Y-95250827D01*
X29264660Y-95250000D01*
X29248650Y-95211350D01*
X29220045Y-95199501D01*
X29210000Y-95195340D01*
X29208960Y-95195771D01*
X29190208Y-95199501D01*
X20419499Y-95199501D01*
X20384851Y-95185149D01*
X20370499Y-95150501D01*
X20370499Y-92777763D01*
X21005788Y-92777763D01*
X21035413Y-93047015D01*
X21035414Y-93047018D01*
X21103928Y-93309088D01*
X21209870Y-93558390D01*
X21350982Y-93789610D01*
X21524255Y-93997820D01*
X21725998Y-94178582D01*
X21951910Y-94328044D01*
X22197176Y-94443020D01*
X22342624Y-94486779D01*
X22456565Y-94521059D01*
X22456566Y-94521059D01*
X22456569Y-94521060D01*
X22724561Y-94560500D01*
X22724562Y-94560500D01*
X22926739Y-94560500D01*
X22927631Y-94560500D01*
X23130156Y-94545677D01*
X23394553Y-94486780D01*
X23647558Y-94390014D01*
X23883777Y-94257441D01*
X24098177Y-94091888D01*
X24286186Y-93896881D01*
X24443799Y-93676579D01*
X24567656Y-93435675D01*
X24577631Y-93406434D01*
X24655117Y-93179309D01*
X24679553Y-93047015D01*
X24704319Y-92912933D01*
X24709259Y-92777763D01*
X61645788Y-92777763D01*
X61675413Y-93047015D01*
X61675414Y-93047018D01*
X61743928Y-93309088D01*
X61849870Y-93558390D01*
X61990982Y-93789610D01*
X62164255Y-93997820D01*
X62365998Y-94178582D01*
X62591910Y-94328044D01*
X62837176Y-94443020D01*
X62982624Y-94486779D01*
X63096565Y-94521059D01*
X63096566Y-94521059D01*
X63096569Y-94521060D01*
X63364561Y-94560500D01*
X63364562Y-94560500D01*
X63566739Y-94560500D01*
X63567631Y-94560500D01*
X63770156Y-94545677D01*
X64034553Y-94486780D01*
X64287558Y-94390014D01*
X64523777Y-94257441D01*
X64738177Y-94091888D01*
X64926186Y-93896881D01*
X65083799Y-93676579D01*
X65207656Y-93435675D01*
X65217631Y-93406434D01*
X65295117Y-93179309D01*
X65319553Y-93047015D01*
X65344319Y-92912933D01*
X65354212Y-92642235D01*
X65324586Y-92372982D01*
X65256072Y-92110912D01*
X65150130Y-91861610D01*
X65009018Y-91630390D01*
X64835745Y-91422180D01*
X64634002Y-91241418D01*
X64408090Y-91091956D01*
X64408087Y-91091954D01*
X64162822Y-90976979D01*
X63903434Y-90898940D01*
X63702437Y-90869360D01*
X63635439Y-90859500D01*
X63432369Y-90859500D01*
X63431486Y-90859564D01*
X63431475Y-90859565D01*
X63229847Y-90874322D01*
X62965445Y-90933220D01*
X62712440Y-91029986D01*
X62476220Y-91162560D01*
X62261826Y-91328109D01*
X62073813Y-91523120D01*
X61916202Y-91743418D01*
X61792341Y-91984330D01*
X61704882Y-92240690D01*
X61655680Y-92507069D01*
X61645788Y-92777763D01*
X24709259Y-92777763D01*
X24714212Y-92642235D01*
X24684586Y-92372982D01*
X24616072Y-92110912D01*
X24510130Y-91861610D01*
X24369018Y-91630390D01*
X24195745Y-91422180D01*
X23994002Y-91241418D01*
X23768090Y-91091956D01*
X23768087Y-91091954D01*
X23522822Y-90976979D01*
X23263434Y-90898940D01*
X23062437Y-90869360D01*
X22995439Y-90859500D01*
X22792369Y-90859500D01*
X22791486Y-90859564D01*
X22791475Y-90859565D01*
X22589847Y-90874322D01*
X22325445Y-90933220D01*
X22072440Y-91029986D01*
X21836220Y-91162560D01*
X21621826Y-91328109D01*
X21433813Y-91523120D01*
X21276202Y-91743418D01*
X21152341Y-91984330D01*
X21064882Y-92240690D01*
X21015680Y-92507069D01*
X21005788Y-92777763D01*
X20370499Y-92777763D01*
X20370499Y-78807763D01*
X64185788Y-78807763D01*
X64215413Y-79077015D01*
X64215414Y-79077018D01*
X64283928Y-79339088D01*
X64389870Y-79588390D01*
X64530982Y-79819610D01*
X64704255Y-80027820D01*
X64905998Y-80208582D01*
X65131910Y-80358044D01*
X65377176Y-80473020D01*
X65522624Y-80516779D01*
X65636565Y-80551059D01*
X65636566Y-80551059D01*
X65636569Y-80551060D01*
X65904561Y-80590500D01*
X65904562Y-80590500D01*
X66106739Y-80590500D01*
X66107631Y-80590500D01*
X66310156Y-80575677D01*
X66574553Y-80516780D01*
X66827558Y-80420014D01*
X67063777Y-80287441D01*
X67278177Y-80121888D01*
X67466186Y-79926881D01*
X67623799Y-79706579D01*
X67747656Y-79465675D01*
X67757631Y-79436434D01*
X67835117Y-79209309D01*
X67859553Y-79077015D01*
X67884319Y-78942933D01*
X67894212Y-78672235D01*
X67864586Y-78402982D01*
X67796072Y-78140912D01*
X67690130Y-77891610D01*
X67549018Y-77660390D01*
X67375745Y-77452180D01*
X67174002Y-77271418D01*
X66948090Y-77121956D01*
X66948087Y-77121954D01*
X66702822Y-77006979D01*
X66443434Y-76928940D01*
X66242436Y-76899360D01*
X66175439Y-76889500D01*
X65972369Y-76889500D01*
X65971486Y-76889564D01*
X65971475Y-76889565D01*
X65769847Y-76904322D01*
X65505445Y-76963220D01*
X65252440Y-77059986D01*
X65016220Y-77192560D01*
X64801826Y-77358109D01*
X64613813Y-77553120D01*
X64456202Y-77773418D01*
X64332341Y-78014330D01*
X64244882Y-78270690D01*
X64195680Y-78537069D01*
X64185788Y-78807763D01*
X20370499Y-78807763D01*
X20370499Y-74529750D01*
X62424500Y-74529750D01*
X62436132Y-74588229D01*
X62480447Y-74654552D01*
X62513608Y-74676709D01*
X62546769Y-74698867D01*
X62561389Y-74701775D01*
X62605249Y-74710500D01*
X62605252Y-74710500D01*
X64344751Y-74710500D01*
X64379837Y-74703520D01*
X64403231Y-74698867D01*
X64469552Y-74654552D01*
X64513867Y-74588231D01*
X64525500Y-74529748D01*
X64525500Y-72790252D01*
X64525499Y-72790251D01*
X64525500Y-72790249D01*
X64513867Y-72731770D01*
X64513867Y-72731769D01*
X64491709Y-72698608D01*
X64469552Y-72665447D01*
X64419923Y-72632286D01*
X64403231Y-72621133D01*
X64403230Y-72621132D01*
X64403229Y-72621132D01*
X64344751Y-72609500D01*
X64344748Y-72609500D01*
X62605252Y-72609500D01*
X62605249Y-72609500D01*
X62546770Y-72621132D01*
X62480447Y-72665447D01*
X62436132Y-72731770D01*
X62424500Y-72790249D01*
X62424500Y-74529750D01*
X20370499Y-74529750D01*
X20370499Y-69850000D01*
X42009659Y-69850000D01*
X42028975Y-70046132D01*
X42086186Y-70234728D01*
X42179090Y-70408539D01*
X42304116Y-70560883D01*
X42456460Y-70685909D01*
X42456462Y-70685910D01*
X42630273Y-70778814D01*
X42736745Y-70811112D01*
X42818867Y-70836024D01*
X42838184Y-70837926D01*
X43015000Y-70855341D01*
X43211132Y-70836024D01*
X43399727Y-70778814D01*
X43573538Y-70685910D01*
X43725883Y-70560883D01*
X43850910Y-70408538D01*
X43943814Y-70234727D01*
X44001024Y-70046132D01*
X44020341Y-69850000D01*
X44020341Y-69849999D01*
X57249659Y-69849999D01*
X57268975Y-70046132D01*
X57326186Y-70234728D01*
X57419090Y-70408539D01*
X57544116Y-70560883D01*
X57696460Y-70685909D01*
X57696462Y-70685910D01*
X57870273Y-70778814D01*
X57976745Y-70811112D01*
X58058867Y-70836024D01*
X58078184Y-70837926D01*
X58255000Y-70855341D01*
X58451132Y-70836024D01*
X58639727Y-70778814D01*
X58813538Y-70685910D01*
X58965883Y-70560883D01*
X59090910Y-70408538D01*
X59183814Y-70234727D01*
X59241024Y-70046132D01*
X59260341Y-69850000D01*
X59241024Y-69653868D01*
X59235477Y-69635583D01*
X59183813Y-69465271D01*
X59090909Y-69291460D01*
X58965883Y-69139116D01*
X58813539Y-69014090D01*
X58639728Y-68921186D01*
X58451132Y-68863975D01*
X58272584Y-68846390D01*
X58255000Y-68844659D01*
X58254999Y-68844659D01*
X58058867Y-68863975D01*
X57870271Y-68921186D01*
X57696460Y-69014090D01*
X57544116Y-69139116D01*
X57419090Y-69291460D01*
X57326186Y-69465271D01*
X57268975Y-69653867D01*
X57249659Y-69849999D01*
X44020341Y-69849999D01*
X44001024Y-69653868D01*
X43995477Y-69635583D01*
X43943813Y-69465271D01*
X43850909Y-69291460D01*
X43725883Y-69139116D01*
X43573539Y-69014090D01*
X43399728Y-68921186D01*
X43211132Y-68863975D01*
X43032584Y-68846390D01*
X43015000Y-68844659D01*
X43014999Y-68844659D01*
X42818867Y-68863975D01*
X42630271Y-68921186D01*
X42456460Y-69014090D01*
X42304116Y-69139116D01*
X42179090Y-69291460D01*
X42086186Y-69465271D01*
X42028975Y-69653867D01*
X42009659Y-69850000D01*
X20370499Y-69850000D01*
X20370499Y-68579999D01*
X62419417Y-68579999D01*
X62439699Y-68785934D01*
X62499767Y-68983952D01*
X62499768Y-68983954D01*
X62597315Y-69166450D01*
X62728590Y-69326410D01*
X62888550Y-69457685D01*
X63071046Y-69555232D01*
X63170055Y-69585265D01*
X63269065Y-69615300D01*
X63287529Y-69617118D01*
X63475000Y-69635583D01*
X63680934Y-69615300D01*
X63878954Y-69555232D01*
X64061450Y-69457685D01*
X64221410Y-69326410D01*
X64352685Y-69166450D01*
X64450232Y-68983954D01*
X64510300Y-68785934D01*
X64530583Y-68580000D01*
X64510300Y-68374066D01*
X64486626Y-68296024D01*
X64450232Y-68176047D01*
X64450232Y-68176046D01*
X64352685Y-67993550D01*
X64221410Y-67833590D01*
X64061450Y-67702315D01*
X63878954Y-67604768D01*
X63878953Y-67604767D01*
X63878952Y-67604767D01*
X63680934Y-67544699D01*
X63475000Y-67524417D01*
X63269065Y-67544699D01*
X63071047Y-67604767D01*
X62888550Y-67702315D01*
X62728590Y-67833590D01*
X62597315Y-67993550D01*
X62499767Y-68176047D01*
X62439699Y-68374065D01*
X62419417Y-68579999D01*
X20370499Y-68579999D01*
X20370499Y-67310000D01*
X42009659Y-67310000D01*
X42028975Y-67506132D01*
X42086186Y-67694728D01*
X42179090Y-67868539D01*
X42304116Y-68020883D01*
X42456460Y-68145909D01*
X42456462Y-68145910D01*
X42630273Y-68238814D01*
X42736745Y-68271112D01*
X42818867Y-68296024D01*
X42838184Y-68297926D01*
X43015000Y-68315341D01*
X43211132Y-68296024D01*
X43399727Y-68238814D01*
X43573538Y-68145910D01*
X43725883Y-68020883D01*
X43850910Y-67868538D01*
X43943814Y-67694727D01*
X44001024Y-67506132D01*
X44020341Y-67310000D01*
X57249659Y-67310000D01*
X57268975Y-67506132D01*
X57326186Y-67694728D01*
X57419090Y-67868539D01*
X57544116Y-68020883D01*
X57696460Y-68145909D01*
X57696462Y-68145910D01*
X57870273Y-68238814D01*
X57976745Y-68271112D01*
X58058867Y-68296024D01*
X58076452Y-68297755D01*
X58255000Y-68315341D01*
X58451132Y-68296024D01*
X58639727Y-68238814D01*
X58813538Y-68145910D01*
X58965883Y-68020883D01*
X59090910Y-67868538D01*
X59183814Y-67694727D01*
X59241024Y-67506132D01*
X59260341Y-67310000D01*
X59241024Y-67113868D01*
X59235477Y-67095583D01*
X59183813Y-66925271D01*
X59090909Y-66751460D01*
X58965883Y-66599116D01*
X58813539Y-66474090D01*
X58639728Y-66381186D01*
X58451132Y-66323975D01*
X58255000Y-66304659D01*
X58058867Y-66323975D01*
X57870271Y-66381186D01*
X57696460Y-66474090D01*
X57544116Y-66599116D01*
X57419090Y-66751460D01*
X57326186Y-66925271D01*
X57268975Y-67113867D01*
X57249659Y-67310000D01*
X44020341Y-67310000D01*
X44001024Y-67113868D01*
X43995477Y-67095583D01*
X43943813Y-66925271D01*
X43850909Y-66751460D01*
X43725883Y-66599116D01*
X43573539Y-66474090D01*
X43399728Y-66381186D01*
X43211132Y-66323975D01*
X43032584Y-66306390D01*
X43015000Y-66304659D01*
X43014999Y-66304659D01*
X42818867Y-66323975D01*
X42630271Y-66381186D01*
X42456460Y-66474090D01*
X42304116Y-66599116D01*
X42179090Y-66751460D01*
X42086186Y-66925271D01*
X42028975Y-67113867D01*
X42009659Y-67310000D01*
X20370499Y-67310000D01*
X20370499Y-66040000D01*
X45114318Y-66040000D01*
X45134956Y-66196762D01*
X45195464Y-66342841D01*
X45195465Y-66342842D01*
X45291717Y-66468282D01*
X45369801Y-66528197D01*
X45417159Y-66564536D01*
X45563238Y-66625044D01*
X45720000Y-66645682D01*
X45876762Y-66625044D01*
X46022841Y-66564536D01*
X46106130Y-66500625D01*
X46135959Y-66490500D01*
X55464041Y-66490500D01*
X55493869Y-66500625D01*
X55577159Y-66564536D01*
X55723238Y-66625044D01*
X55880000Y-66645682D01*
X56036762Y-66625044D01*
X56182841Y-66564536D01*
X56308282Y-66468282D01*
X56404536Y-66342841D01*
X56465044Y-66196762D01*
X56485682Y-66040000D01*
X62419417Y-66040000D01*
X62439699Y-66245934D01*
X62499767Y-66443952D01*
X62499768Y-66443954D01*
X62597315Y-66626450D01*
X62728590Y-66786410D01*
X62888550Y-66917685D01*
X63071046Y-67015232D01*
X63170055Y-67045265D01*
X63269065Y-67075300D01*
X63287529Y-67077118D01*
X63475000Y-67095583D01*
X63680934Y-67075300D01*
X63878954Y-67015232D01*
X64061450Y-66917685D01*
X64221410Y-66786410D01*
X64352685Y-66626450D01*
X64450232Y-66443954D01*
X64510300Y-66245934D01*
X64530583Y-66040000D01*
X64510300Y-65834066D01*
X64486626Y-65756024D01*
X64450232Y-65636047D01*
X64450232Y-65636046D01*
X64352685Y-65453550D01*
X64221410Y-65293590D01*
X64061450Y-65162315D01*
X63878954Y-65064768D01*
X63878953Y-65064767D01*
X63878952Y-65064767D01*
X63680934Y-65004699D01*
X63475000Y-64984417D01*
X63269065Y-65004699D01*
X63071047Y-65064767D01*
X62888550Y-65162315D01*
X62728590Y-65293590D01*
X62597315Y-65453550D01*
X62499767Y-65636047D01*
X62439699Y-65834065D01*
X62419417Y-66040000D01*
X56485682Y-66040000D01*
X56465044Y-65883238D01*
X56404536Y-65737159D01*
X56368197Y-65689801D01*
X56308282Y-65611717D01*
X56182842Y-65515465D01*
X56182841Y-65515464D01*
X56036762Y-65454956D01*
X55880000Y-65434318D01*
X55723237Y-65454956D01*
X55577157Y-65515465D01*
X55493870Y-65579374D01*
X55464041Y-65589500D01*
X46135959Y-65589500D01*
X46106130Y-65579374D01*
X46022842Y-65515465D01*
X46022841Y-65515464D01*
X45876762Y-65454956D01*
X45720000Y-65434318D01*
X45563237Y-65454956D01*
X45417157Y-65515465D01*
X45291717Y-65611717D01*
X45195465Y-65737157D01*
X45195464Y-65737158D01*
X45195464Y-65737159D01*
X45134956Y-65883238D01*
X45114318Y-66040000D01*
X20370499Y-66040000D01*
X20370499Y-64769999D01*
X42009659Y-64769999D01*
X42028975Y-64966132D01*
X42086186Y-65154728D01*
X42179090Y-65328539D01*
X42304116Y-65480883D01*
X42456460Y-65605909D01*
X42456462Y-65605910D01*
X42630273Y-65698814D01*
X42736745Y-65731112D01*
X42818867Y-65756024D01*
X42838184Y-65757926D01*
X43015000Y-65775341D01*
X43211132Y-65756024D01*
X43399727Y-65698814D01*
X43573538Y-65605910D01*
X43725883Y-65480883D01*
X43850910Y-65328538D01*
X43943814Y-65154727D01*
X44001024Y-64966132D01*
X44020341Y-64770000D01*
X44020341Y-64769999D01*
X57249659Y-64769999D01*
X57268975Y-64966132D01*
X57326186Y-65154728D01*
X57419090Y-65328539D01*
X57544116Y-65480883D01*
X57696460Y-65605909D01*
X57696462Y-65605910D01*
X57870273Y-65698814D01*
X57976745Y-65731112D01*
X58058867Y-65756024D01*
X58076452Y-65757755D01*
X58255000Y-65775341D01*
X58451132Y-65756024D01*
X58639727Y-65698814D01*
X58813538Y-65605910D01*
X58965883Y-65480883D01*
X59090910Y-65328538D01*
X59183814Y-65154727D01*
X59241024Y-64966132D01*
X59260341Y-64770000D01*
X59241024Y-64573868D01*
X59235477Y-64555583D01*
X59183813Y-64385271D01*
X59090909Y-64211460D01*
X58965883Y-64059116D01*
X58813539Y-63934090D01*
X58639728Y-63841186D01*
X58451132Y-63783975D01*
X58255000Y-63764659D01*
X58058867Y-63783975D01*
X57870271Y-63841186D01*
X57696460Y-63934090D01*
X57544116Y-64059116D01*
X57419090Y-64211460D01*
X57326186Y-64385271D01*
X57268975Y-64573867D01*
X57249659Y-64769999D01*
X44020341Y-64769999D01*
X44001024Y-64573868D01*
X43995477Y-64555583D01*
X43943813Y-64385271D01*
X43850909Y-64211460D01*
X43725883Y-64059116D01*
X43573539Y-63934090D01*
X43399728Y-63841186D01*
X43211132Y-63783975D01*
X43032584Y-63766390D01*
X43015000Y-63764659D01*
X43014999Y-63764659D01*
X42818867Y-63783975D01*
X42630271Y-63841186D01*
X42456460Y-63934090D01*
X42304116Y-64059116D01*
X42179090Y-64211460D01*
X42086186Y-64385271D01*
X42028975Y-64573867D01*
X42009659Y-64769999D01*
X20370499Y-64769999D01*
X20370499Y-63500000D01*
X62419417Y-63500000D01*
X62439699Y-63705934D01*
X62499767Y-63903952D01*
X62499768Y-63903954D01*
X62597315Y-64086450D01*
X62728590Y-64246410D01*
X62888550Y-64377685D01*
X63071046Y-64475232D01*
X63170055Y-64505265D01*
X63269065Y-64535300D01*
X63287529Y-64537118D01*
X63475000Y-64555583D01*
X63680934Y-64535300D01*
X63878954Y-64475232D01*
X64061450Y-64377685D01*
X64221410Y-64246410D01*
X64352685Y-64086450D01*
X64450232Y-63903954D01*
X64510300Y-63705934D01*
X64530583Y-63500000D01*
X64510300Y-63294066D01*
X64486626Y-63216024D01*
X64450232Y-63096047D01*
X64450232Y-63096046D01*
X64352685Y-62913550D01*
X64221410Y-62753590D01*
X64061450Y-62622315D01*
X63878954Y-62524768D01*
X63878953Y-62524767D01*
X63878952Y-62524767D01*
X63680934Y-62464699D01*
X63475000Y-62444417D01*
X63269065Y-62464699D01*
X63071047Y-62524767D01*
X62888550Y-62622315D01*
X62728590Y-62753590D01*
X62597315Y-62913550D01*
X62499767Y-63096047D01*
X62439699Y-63294065D01*
X62419417Y-63500000D01*
X20370499Y-63500000D01*
X20370499Y-53480000D01*
X21454318Y-53480000D01*
X21474956Y-53636762D01*
X21535464Y-53782841D01*
X21535465Y-53782842D01*
X21631717Y-53908282D01*
X21709801Y-53968197D01*
X21757159Y-54004536D01*
X21903238Y-54065044D01*
X22060000Y-54085682D01*
X22216762Y-54065044D01*
X22362841Y-54004536D01*
X22488282Y-53908282D01*
X22584536Y-53782841D01*
X22645044Y-53636762D01*
X22665682Y-53480000D01*
X22645044Y-53323238D01*
X22584536Y-53177159D01*
X22520626Y-53093869D01*
X22510500Y-53064040D01*
X22510500Y-49445634D01*
X24538329Y-49445634D01*
X24549217Y-49503179D01*
X24549524Y-49504984D01*
X24558252Y-49562888D01*
X24559179Y-49564812D01*
X24563177Y-49576962D01*
X24563577Y-49579072D01*
X24578923Y-49608109D01*
X24590958Y-49630880D01*
X24591772Y-49632492D01*
X24617175Y-49685242D01*
X24618630Y-49686810D01*
X24626029Y-49697237D01*
X24627033Y-49699137D01*
X24668440Y-49740544D01*
X24669712Y-49741864D01*
X24709545Y-49784794D01*
X24711397Y-49785863D01*
X24721548Y-49793652D01*
X26675147Y-51747251D01*
X26689499Y-51781899D01*
X26689500Y-55604040D01*
X26679374Y-55633869D01*
X26615465Y-55717157D01*
X26615464Y-55717158D01*
X26615464Y-55717159D01*
X26554956Y-55863238D01*
X26534318Y-56020000D01*
X26554956Y-56176762D01*
X26615464Y-56322841D01*
X26629111Y-56340626D01*
X26711717Y-56448282D01*
X26789801Y-56508197D01*
X26837159Y-56544536D01*
X26983238Y-56605044D01*
X27140000Y-56625682D01*
X27296762Y-56605044D01*
X27442841Y-56544536D01*
X27460671Y-56530853D01*
X27496893Y-56521147D01*
X27529372Y-56539897D01*
X27539499Y-56569728D01*
X27539499Y-57503100D01*
X27525147Y-57537748D01*
X27115576Y-57947319D01*
X27087324Y-57961252D01*
X26983237Y-57974955D01*
X26837157Y-58035465D01*
X26711717Y-58131717D01*
X26615465Y-58257157D01*
X26615464Y-58257158D01*
X26615464Y-58257159D01*
X26554956Y-58403238D01*
X26534318Y-58560000D01*
X26554956Y-58716762D01*
X26615464Y-58862841D01*
X26615465Y-58862842D01*
X26711717Y-58988282D01*
X26789801Y-59048197D01*
X26837159Y-59084536D01*
X26983238Y-59145044D01*
X27140000Y-59165682D01*
X27296762Y-59145044D01*
X27442841Y-59084536D01*
X27568282Y-58988282D01*
X27664536Y-58862841D01*
X27725044Y-58716762D01*
X27738747Y-58612673D01*
X27752679Y-58584423D01*
X28155853Y-58181249D01*
X28190500Y-58166898D01*
X28225148Y-58181250D01*
X28239500Y-58215898D01*
X28239500Y-59978099D01*
X28225148Y-60012747D01*
X27115575Y-61122319D01*
X27087323Y-61136252D01*
X26983237Y-61149955D01*
X26837157Y-61210465D01*
X26711717Y-61306717D01*
X26615465Y-61432157D01*
X26615464Y-61432158D01*
X26615464Y-61432159D01*
X26554956Y-61578238D01*
X26534318Y-61735000D01*
X26554956Y-61891762D01*
X26615464Y-62037841D01*
X26615465Y-62037842D01*
X26711717Y-62163282D01*
X26789801Y-62223197D01*
X26837159Y-62259536D01*
X26983238Y-62320044D01*
X27140000Y-62340682D01*
X27296762Y-62320044D01*
X27442841Y-62259536D01*
X27481334Y-62229999D01*
X42009659Y-62229999D01*
X42028975Y-62426132D01*
X42086186Y-62614728D01*
X42179090Y-62788539D01*
X42304116Y-62940883D01*
X42456460Y-63065909D01*
X42456462Y-63065910D01*
X42630273Y-63158814D01*
X42736745Y-63191112D01*
X42818867Y-63216024D01*
X42838184Y-63217926D01*
X43015000Y-63235341D01*
X43211132Y-63216024D01*
X43399727Y-63158814D01*
X43573538Y-63065910D01*
X43725883Y-62940883D01*
X43850910Y-62788538D01*
X43943814Y-62614727D01*
X44001024Y-62426132D01*
X44020341Y-62230000D01*
X57249659Y-62230000D01*
X57268975Y-62426132D01*
X57326186Y-62614728D01*
X57419090Y-62788539D01*
X57544116Y-62940883D01*
X57696460Y-63065909D01*
X57696462Y-63065910D01*
X57870273Y-63158814D01*
X57976745Y-63191112D01*
X58058867Y-63216024D01*
X58078184Y-63217926D01*
X58255000Y-63235341D01*
X58451132Y-63216024D01*
X58639727Y-63158814D01*
X58813538Y-63065910D01*
X58965883Y-62940883D01*
X59090910Y-62788538D01*
X59183814Y-62614727D01*
X59241024Y-62426132D01*
X59260341Y-62230000D01*
X59241024Y-62033868D01*
X59235477Y-62015583D01*
X59183813Y-61845271D01*
X59090909Y-61671460D01*
X58965883Y-61519116D01*
X58813539Y-61394090D01*
X58639728Y-61301186D01*
X58451132Y-61243975D01*
X58272584Y-61226390D01*
X58255000Y-61224659D01*
X58254999Y-61224659D01*
X58058867Y-61243975D01*
X57870271Y-61301186D01*
X57696460Y-61394090D01*
X57544116Y-61519116D01*
X57419090Y-61671460D01*
X57326186Y-61845271D01*
X57268975Y-62033867D01*
X57249659Y-62230000D01*
X44020341Y-62230000D01*
X44001024Y-62033868D01*
X43995477Y-62015583D01*
X43943813Y-61845271D01*
X43850909Y-61671460D01*
X43725883Y-61519116D01*
X43573539Y-61394090D01*
X43399728Y-61301186D01*
X43211132Y-61243975D01*
X43032584Y-61226390D01*
X43015000Y-61224659D01*
X43014999Y-61224659D01*
X42818867Y-61243975D01*
X42630271Y-61301186D01*
X42456460Y-61394090D01*
X42304116Y-61519116D01*
X42179090Y-61671460D01*
X42086186Y-61845271D01*
X42028975Y-62033867D01*
X42009659Y-62229999D01*
X27481334Y-62229999D01*
X27568282Y-62163282D01*
X27664536Y-62037841D01*
X27725044Y-61891762D01*
X27738747Y-61787673D01*
X27752679Y-61759423D01*
X28552101Y-60960000D01*
X62419417Y-60960000D01*
X62439699Y-61165934D01*
X62499767Y-61363952D01*
X62499768Y-61363954D01*
X62597315Y-61546450D01*
X62728590Y-61706410D01*
X62888550Y-61837685D01*
X63071046Y-61935232D01*
X63170055Y-61965265D01*
X63269065Y-61995300D01*
X63287529Y-61997118D01*
X63475000Y-62015583D01*
X63680934Y-61995300D01*
X63878954Y-61935232D01*
X64061450Y-61837685D01*
X64221410Y-61706410D01*
X64352685Y-61546450D01*
X64450232Y-61363954D01*
X64510300Y-61165934D01*
X64530583Y-60960000D01*
X64510300Y-60754066D01*
X64486626Y-60676024D01*
X64450232Y-60556047D01*
X64450232Y-60556046D01*
X64352685Y-60373550D01*
X64221410Y-60213590D01*
X64061450Y-60082315D01*
X63878954Y-59984768D01*
X63878953Y-59984767D01*
X63878952Y-59984767D01*
X63680934Y-59924699D01*
X63475000Y-59904417D01*
X63269065Y-59924699D01*
X63071047Y-59984767D01*
X62888550Y-60082315D01*
X62728590Y-60213590D01*
X62597315Y-60373550D01*
X62499767Y-60556047D01*
X62439699Y-60754065D01*
X62419417Y-60960000D01*
X28552101Y-60960000D01*
X28988723Y-60523378D01*
X28992792Y-60519741D01*
X29023970Y-60494879D01*
X29056976Y-60446466D01*
X29057998Y-60445025D01*
X29092793Y-60397882D01*
X29093499Y-60395861D01*
X29099266Y-60384440D01*
X29100472Y-60382673D01*
X29117753Y-60326642D01*
X29118297Y-60324990D01*
X29137646Y-60269699D01*
X29137726Y-60267559D01*
X29139870Y-60254943D01*
X29140500Y-60252901D01*
X29140500Y-60194349D01*
X29140534Y-60192517D01*
X29142724Y-60133990D01*
X29142169Y-60131917D01*
X29140500Y-60119237D01*
X29140500Y-59690000D01*
X42009659Y-59690000D01*
X42028975Y-59886132D01*
X42086186Y-60074728D01*
X42179090Y-60248539D01*
X42304116Y-60400883D01*
X42456460Y-60525909D01*
X42456462Y-60525910D01*
X42630273Y-60618814D01*
X42736745Y-60651112D01*
X42818867Y-60676024D01*
X42838184Y-60677926D01*
X43015000Y-60695341D01*
X43211132Y-60676024D01*
X43399727Y-60618814D01*
X43573538Y-60525910D01*
X43725883Y-60400883D01*
X43850910Y-60248538D01*
X43943814Y-60074727D01*
X44001024Y-59886132D01*
X44020341Y-59690000D01*
X57249659Y-59690000D01*
X57268975Y-59886132D01*
X57326186Y-60074728D01*
X57419090Y-60248539D01*
X57544116Y-60400883D01*
X57696460Y-60525909D01*
X57696462Y-60525910D01*
X57870273Y-60618814D01*
X57976745Y-60651112D01*
X58058867Y-60676024D01*
X58078184Y-60677926D01*
X58255000Y-60695341D01*
X58451132Y-60676024D01*
X58639727Y-60618814D01*
X58813538Y-60525910D01*
X58965883Y-60400883D01*
X59090910Y-60248538D01*
X59183814Y-60074727D01*
X59241024Y-59886132D01*
X59260341Y-59690000D01*
X59241024Y-59493868D01*
X59235477Y-59475583D01*
X59183813Y-59305271D01*
X59090909Y-59131460D01*
X58965883Y-58979116D01*
X58813539Y-58854090D01*
X58639728Y-58761186D01*
X58451132Y-58703975D01*
X58272584Y-58686390D01*
X58255000Y-58684659D01*
X58254999Y-58684659D01*
X58058867Y-58703975D01*
X57870271Y-58761186D01*
X57696460Y-58854090D01*
X57544116Y-58979116D01*
X57419090Y-59131460D01*
X57326186Y-59305271D01*
X57268975Y-59493867D01*
X57249659Y-59690000D01*
X44020341Y-59690000D01*
X44001024Y-59493868D01*
X43995477Y-59475583D01*
X43943813Y-59305271D01*
X43850909Y-59131460D01*
X43725883Y-58979116D01*
X43573539Y-58854090D01*
X43399728Y-58761186D01*
X43211132Y-58703975D01*
X43015000Y-58684659D01*
X42818867Y-58703975D01*
X42630271Y-58761186D01*
X42456460Y-58854090D01*
X42304116Y-58979116D01*
X42179090Y-59131460D01*
X42086186Y-59305271D01*
X42028975Y-59493867D01*
X42009659Y-59690000D01*
X29140500Y-59690000D01*
X29140500Y-58419999D01*
X62419417Y-58419999D01*
X62439699Y-58625934D01*
X62499767Y-58823952D01*
X62499768Y-58823954D01*
X62597315Y-59006450D01*
X62728590Y-59166410D01*
X62888550Y-59297685D01*
X63071046Y-59395232D01*
X63170055Y-59425265D01*
X63269065Y-59455300D01*
X63287529Y-59457118D01*
X63475000Y-59475583D01*
X63680934Y-59455300D01*
X63878954Y-59395232D01*
X64061450Y-59297685D01*
X64221410Y-59166410D01*
X64352685Y-59006450D01*
X64450232Y-58823954D01*
X64510300Y-58625934D01*
X64530583Y-58420000D01*
X64512118Y-58232529D01*
X64510300Y-58214065D01*
X64469272Y-58078813D01*
X64450232Y-58016046D01*
X64352685Y-57833550D01*
X64221410Y-57673590D01*
X64061450Y-57542315D01*
X63878954Y-57444768D01*
X63878953Y-57444767D01*
X63878952Y-57444767D01*
X63680934Y-57384699D01*
X63475000Y-57364417D01*
X63269065Y-57384699D01*
X63071047Y-57444767D01*
X62888550Y-57542315D01*
X62728590Y-57673590D01*
X62597315Y-57833550D01*
X62499767Y-58016047D01*
X62439699Y-58214065D01*
X62419417Y-58419999D01*
X29140500Y-58419999D01*
X29140500Y-57150000D01*
X42009659Y-57150000D01*
X42028975Y-57346132D01*
X42086186Y-57534728D01*
X42179090Y-57708539D01*
X42304116Y-57860883D01*
X42456460Y-57985909D01*
X42456462Y-57985910D01*
X42630273Y-58078814D01*
X42692212Y-58097603D01*
X42818867Y-58136024D01*
X42838184Y-58137926D01*
X43015000Y-58155341D01*
X43211132Y-58136024D01*
X43399727Y-58078814D01*
X43573538Y-57985910D01*
X43725883Y-57860883D01*
X43850910Y-57708538D01*
X43943814Y-57534727D01*
X44001024Y-57346132D01*
X44020341Y-57150000D01*
X44020341Y-57149999D01*
X57249659Y-57149999D01*
X57268975Y-57346132D01*
X57326186Y-57534728D01*
X57419090Y-57708539D01*
X57544116Y-57860883D01*
X57696460Y-57985909D01*
X57696462Y-57985910D01*
X57870273Y-58078814D01*
X57932212Y-58097603D01*
X58058867Y-58136024D01*
X58076452Y-58137755D01*
X58255000Y-58155341D01*
X58451132Y-58136024D01*
X58639727Y-58078814D01*
X58813538Y-57985910D01*
X58965883Y-57860883D01*
X59090910Y-57708538D01*
X59183814Y-57534727D01*
X59241024Y-57346132D01*
X59260341Y-57150000D01*
X59241024Y-56953868D01*
X59235477Y-56935583D01*
X59183813Y-56765271D01*
X59090909Y-56591460D01*
X58965883Y-56439116D01*
X58813539Y-56314090D01*
X58639728Y-56221186D01*
X58451132Y-56163975D01*
X58255000Y-56144659D01*
X58058867Y-56163975D01*
X57870271Y-56221186D01*
X57696460Y-56314090D01*
X57544116Y-56439116D01*
X57419090Y-56591460D01*
X57326186Y-56765271D01*
X57268975Y-56953867D01*
X57249659Y-57149999D01*
X44020341Y-57149999D01*
X44001024Y-56953868D01*
X43995477Y-56935583D01*
X43943813Y-56765271D01*
X43850909Y-56591460D01*
X43725883Y-56439116D01*
X43573539Y-56314090D01*
X43399728Y-56221186D01*
X43211132Y-56163975D01*
X43032584Y-56146390D01*
X43015000Y-56144659D01*
X43014999Y-56144659D01*
X42818867Y-56163975D01*
X42630271Y-56221186D01*
X42456460Y-56314090D01*
X42304116Y-56439116D01*
X42179090Y-56591460D01*
X42086186Y-56765271D01*
X42028975Y-56953867D01*
X42009659Y-57150000D01*
X29140500Y-57150000D01*
X29140500Y-54609999D01*
X42009659Y-54609999D01*
X42028975Y-54806132D01*
X42086186Y-54994728D01*
X42179090Y-55168539D01*
X42304116Y-55320883D01*
X42456460Y-55445909D01*
X42456462Y-55445910D01*
X42630273Y-55538814D01*
X42736745Y-55571112D01*
X42818867Y-55596024D01*
X42838184Y-55597926D01*
X43015000Y-55615341D01*
X43211132Y-55596024D01*
X43399727Y-55538814D01*
X43573538Y-55445910D01*
X43725883Y-55320883D01*
X43850910Y-55168538D01*
X43943814Y-54994727D01*
X44001024Y-54806132D01*
X44020341Y-54610000D01*
X44001024Y-54413868D01*
X43995477Y-54395583D01*
X43974780Y-54327354D01*
X43943814Y-54225273D01*
X43869201Y-54085681D01*
X43850909Y-54051460D01*
X43725883Y-53899116D01*
X43573539Y-53774090D01*
X43399728Y-53681186D01*
X43211132Y-53623975D01*
X43032584Y-53606390D01*
X43015000Y-53604659D01*
X43014999Y-53604659D01*
X42818867Y-53623975D01*
X42630271Y-53681186D01*
X42456460Y-53774090D01*
X42304116Y-53899116D01*
X42179090Y-54051460D01*
X42086186Y-54225271D01*
X42028975Y-54413867D01*
X42009659Y-54609999D01*
X29140500Y-54609999D01*
X29140500Y-53051898D01*
X29154851Y-53017251D01*
X29517250Y-52654852D01*
X29551899Y-52640500D01*
X30941947Y-52640500D01*
X30947432Y-52640807D01*
X30987035Y-52645270D01*
X31044628Y-52634371D01*
X31046353Y-52634079D01*
X31104287Y-52625348D01*
X31106205Y-52624423D01*
X31118369Y-52620420D01*
X31120472Y-52620023D01*
X31172270Y-52592645D01*
X31173864Y-52591840D01*
X31226642Y-52566425D01*
X31228208Y-52564971D01*
X31238644Y-52557566D01*
X31240538Y-52556566D01*
X31281958Y-52515144D01*
X31283251Y-52513898D01*
X31326194Y-52474055D01*
X31327266Y-52472197D01*
X31335048Y-52462054D01*
X31727103Y-52069999D01*
X42009659Y-52069999D01*
X42028975Y-52266132D01*
X42086186Y-52454728D01*
X42179090Y-52628539D01*
X42304116Y-52780883D01*
X42456460Y-52905909D01*
X42456462Y-52905910D01*
X42630273Y-52998814D01*
X42701640Y-53020463D01*
X42818867Y-53056024D01*
X42838184Y-53057926D01*
X43015000Y-53075341D01*
X43211132Y-53056024D01*
X43300255Y-53028988D01*
X43337576Y-53032664D01*
X43349126Y-53041230D01*
X45381608Y-55073711D01*
X45385269Y-55077808D01*
X45410120Y-55108969D01*
X45458530Y-55141976D01*
X45460008Y-55143024D01*
X45507118Y-55177793D01*
X45509132Y-55178497D01*
X45520557Y-55184265D01*
X45522327Y-55185472D01*
X45578295Y-55202735D01*
X45580037Y-55203308D01*
X45615399Y-55215682D01*
X45635301Y-55222646D01*
X45637439Y-55222725D01*
X45650049Y-55224868D01*
X45652098Y-55225500D01*
X45710635Y-55225500D01*
X45712467Y-55225534D01*
X45771010Y-55227725D01*
X45773081Y-55227169D01*
X45785764Y-55225500D01*
X46948100Y-55225500D01*
X46982748Y-55239852D01*
X47921608Y-56178711D01*
X47925269Y-56182808D01*
X47950120Y-56213969D01*
X47998530Y-56246976D01*
X48000008Y-56248024D01*
X48047118Y-56282793D01*
X48049132Y-56283497D01*
X48060557Y-56289265D01*
X48062327Y-56290472D01*
X48118295Y-56307735D01*
X48120037Y-56308308D01*
X48175301Y-56327646D01*
X48177440Y-56327726D01*
X48190047Y-56329867D01*
X48192098Y-56330500D01*
X48250651Y-56330500D01*
X48252482Y-56330533D01*
X48311010Y-56332724D01*
X48313079Y-56332169D01*
X48325760Y-56330500D01*
X52924041Y-56330500D01*
X52953869Y-56340625D01*
X53037159Y-56404536D01*
X53183238Y-56465044D01*
X53340000Y-56485682D01*
X53496762Y-56465044D01*
X53642841Y-56404536D01*
X53768282Y-56308282D01*
X53864536Y-56182841D01*
X53925044Y-56036762D01*
X53945682Y-55880000D01*
X62419417Y-55880000D01*
X62439699Y-56085934D01*
X62499629Y-56283497D01*
X62499768Y-56283954D01*
X62597315Y-56466450D01*
X62728590Y-56626410D01*
X62888550Y-56757685D01*
X63071046Y-56855232D01*
X63170055Y-56885265D01*
X63269065Y-56915300D01*
X63287529Y-56917118D01*
X63475000Y-56935583D01*
X63680934Y-56915300D01*
X63878954Y-56855232D01*
X64061450Y-56757685D01*
X64221410Y-56626410D01*
X64352685Y-56466450D01*
X64450232Y-56283954D01*
X64510300Y-56085934D01*
X64530583Y-55880000D01*
X64510300Y-55674066D01*
X64486626Y-55596024D01*
X64450232Y-55476047D01*
X64450232Y-55476046D01*
X64352685Y-55293550D01*
X64221410Y-55133590D01*
X64061450Y-55002315D01*
X63878954Y-54904768D01*
X63878953Y-54904767D01*
X63878952Y-54904767D01*
X63680934Y-54844699D01*
X63475000Y-54824417D01*
X63269065Y-54844699D01*
X63071047Y-54904767D01*
X62888550Y-55002315D01*
X62728590Y-55133590D01*
X62597315Y-55293550D01*
X62499767Y-55476047D01*
X62439699Y-55674065D01*
X62419417Y-55880000D01*
X53945682Y-55880000D01*
X53925044Y-55723238D01*
X53864536Y-55577159D01*
X53828197Y-55529801D01*
X53768282Y-55451717D01*
X53642842Y-55355465D01*
X53642841Y-55355464D01*
X53496762Y-55294956D01*
X53340000Y-55274318D01*
X53339999Y-55274318D01*
X53183237Y-55294956D01*
X53037157Y-55355465D01*
X52953870Y-55419374D01*
X52924041Y-55429500D01*
X48466900Y-55429500D01*
X48432252Y-55415148D01*
X47627103Y-54610000D01*
X48924318Y-54610000D01*
X48944956Y-54766762D01*
X49005464Y-54912841D01*
X49005465Y-54912842D01*
X49101717Y-55038282D01*
X49147890Y-55073711D01*
X49227159Y-55134536D01*
X49373238Y-55195044D01*
X49530000Y-55215682D01*
X49686762Y-55195044D01*
X49832841Y-55134536D01*
X49958282Y-55038282D01*
X50054536Y-54912841D01*
X50115044Y-54766762D01*
X50135682Y-54610000D01*
X57249659Y-54610000D01*
X57268975Y-54806132D01*
X57326186Y-54994728D01*
X57419090Y-55168539D01*
X57544116Y-55320883D01*
X57696460Y-55445909D01*
X57696462Y-55445910D01*
X57870273Y-55538814D01*
X57976745Y-55571112D01*
X58058867Y-55596024D01*
X58078184Y-55597926D01*
X58255000Y-55615341D01*
X58451132Y-55596024D01*
X58639727Y-55538814D01*
X58813538Y-55445910D01*
X58965883Y-55320883D01*
X59090910Y-55168538D01*
X59183814Y-54994727D01*
X59241024Y-54806132D01*
X59260341Y-54610000D01*
X59241024Y-54413868D01*
X59235477Y-54395583D01*
X59214780Y-54327354D01*
X59183814Y-54225273D01*
X59109201Y-54085681D01*
X59090909Y-54051460D01*
X58965883Y-53899116D01*
X58813539Y-53774090D01*
X58639728Y-53681186D01*
X58451132Y-53623975D01*
X58272584Y-53606390D01*
X58255000Y-53604659D01*
X58254999Y-53604659D01*
X58058867Y-53623975D01*
X57870271Y-53681186D01*
X57696460Y-53774090D01*
X57544116Y-53899116D01*
X57419090Y-54051460D01*
X57326186Y-54225271D01*
X57268975Y-54413867D01*
X57249659Y-54610000D01*
X50135682Y-54610000D01*
X50115044Y-54453238D01*
X50054536Y-54307159D01*
X49990624Y-54223867D01*
X49980500Y-54194042D01*
X49980500Y-53546898D01*
X49994851Y-53512251D01*
X50167102Y-53340000D01*
X62419417Y-53340000D01*
X62439699Y-53545934D01*
X62499767Y-53743952D01*
X62499768Y-53743954D01*
X62597315Y-53926450D01*
X62728590Y-54086410D01*
X62888550Y-54217685D01*
X63071046Y-54315232D01*
X63170055Y-54345265D01*
X63269065Y-54375300D01*
X63287529Y-54377118D01*
X63475000Y-54395583D01*
X63680934Y-54375300D01*
X63878954Y-54315232D01*
X64061450Y-54217685D01*
X64221410Y-54086410D01*
X64352685Y-53926450D01*
X64450232Y-53743954D01*
X64510300Y-53545934D01*
X64530583Y-53340000D01*
X64510300Y-53134066D01*
X64508805Y-53129139D01*
X64450232Y-52936047D01*
X64450232Y-52936046D01*
X64352685Y-52753550D01*
X64221410Y-52593590D01*
X64061450Y-52462315D01*
X63878954Y-52364768D01*
X63878953Y-52364767D01*
X63878952Y-52364767D01*
X63680934Y-52304699D01*
X63475000Y-52284417D01*
X63269065Y-52304699D01*
X63071047Y-52364767D01*
X62888550Y-52462315D01*
X62728590Y-52593590D01*
X62597315Y-52753550D01*
X62499767Y-52936047D01*
X62439699Y-53134065D01*
X62419417Y-53340000D01*
X50167102Y-53340000D01*
X51437103Y-52069999D01*
X57249659Y-52069999D01*
X57268975Y-52266132D01*
X57326186Y-52454728D01*
X57419090Y-52628539D01*
X57544116Y-52780883D01*
X57696460Y-52905909D01*
X57696462Y-52905910D01*
X57870273Y-52998814D01*
X57941640Y-53020463D01*
X58058867Y-53056024D01*
X58078184Y-53057926D01*
X58255000Y-53075341D01*
X58451132Y-53056024D01*
X58639727Y-52998814D01*
X58813538Y-52905910D01*
X58965883Y-52780883D01*
X59090910Y-52628538D01*
X59183814Y-52454727D01*
X59241024Y-52266132D01*
X59260341Y-52070000D01*
X59241024Y-51873868D01*
X59225419Y-51822427D01*
X59213125Y-51781899D01*
X59183814Y-51685273D01*
X59090910Y-51511462D01*
X59090909Y-51511460D01*
X58965883Y-51359116D01*
X58813539Y-51234090D01*
X58639728Y-51141186D01*
X58451132Y-51083975D01*
X58272584Y-51066390D01*
X58255000Y-51064659D01*
X58254999Y-51064659D01*
X58058867Y-51083975D01*
X57870271Y-51141186D01*
X57696460Y-51234090D01*
X57544116Y-51359116D01*
X57419090Y-51511460D01*
X57326186Y-51685271D01*
X57268975Y-51873867D01*
X57249659Y-52069999D01*
X51437103Y-52069999D01*
X53512250Y-49994851D01*
X53546899Y-49980500D01*
X57331973Y-49980500D01*
X57366621Y-49994852D01*
X57375187Y-50006402D01*
X57419090Y-50088539D01*
X57544116Y-50240883D01*
X57696460Y-50365909D01*
X57696462Y-50365910D01*
X57870273Y-50458814D01*
X57976745Y-50491112D01*
X58058867Y-50516024D01*
X58078184Y-50517926D01*
X58255000Y-50535341D01*
X58451132Y-50516024D01*
X58639727Y-50458814D01*
X58813538Y-50365910D01*
X58965883Y-50240883D01*
X59090910Y-50088538D01*
X59183814Y-49914727D01*
X59241024Y-49726132D01*
X59260341Y-49530000D01*
X59241024Y-49333868D01*
X59238480Y-49325483D01*
X59206354Y-49219576D01*
X59183814Y-49145273D01*
X59156757Y-49094652D01*
X59090909Y-48971460D01*
X58965883Y-48819116D01*
X58813539Y-48694090D01*
X58639728Y-48601186D01*
X58451132Y-48543975D01*
X58272584Y-48526390D01*
X58255000Y-48524659D01*
X58254999Y-48524659D01*
X58058867Y-48543975D01*
X57870271Y-48601186D01*
X57696460Y-48694090D01*
X57544116Y-48819116D01*
X57419090Y-48971460D01*
X57375187Y-49053598D01*
X57346197Y-49077390D01*
X57331973Y-49079500D01*
X53368053Y-49079500D01*
X53362567Y-49079192D01*
X53322965Y-49074729D01*
X53265418Y-49085617D01*
X53263613Y-49085924D01*
X53217821Y-49092826D01*
X53205713Y-49094652D01*
X53205712Y-49094652D01*
X53205707Y-49094653D01*
X53203778Y-49095582D01*
X53191646Y-49099574D01*
X53189530Y-49099974D01*
X53137726Y-49127353D01*
X53136092Y-49128178D01*
X53083355Y-49153576D01*
X53081778Y-49155039D01*
X53071363Y-49162429D01*
X53069462Y-49163433D01*
X53028051Y-49204843D01*
X53026733Y-49206113D01*
X52983804Y-49245946D01*
X52982730Y-49247807D01*
X52974947Y-49257948D01*
X49231286Y-53001609D01*
X49227190Y-53005270D01*
X49196030Y-53030120D01*
X49163047Y-53078496D01*
X49161988Y-53079988D01*
X49127206Y-53127118D01*
X49126499Y-53129139D01*
X49120741Y-53140545D01*
X49119528Y-53142324D01*
X49102258Y-53198312D01*
X49101686Y-53200052D01*
X49082352Y-53255306D01*
X49082272Y-53257450D01*
X49080133Y-53270043D01*
X49079500Y-53272096D01*
X49079500Y-53330649D01*
X49079466Y-53332481D01*
X49077276Y-53391010D01*
X49077831Y-53393084D01*
X49079499Y-53405758D01*
X49079499Y-54194040D01*
X49069374Y-54223869D01*
X49068297Y-54225273D01*
X49005464Y-54307159D01*
X48981701Y-54364528D01*
X48950013Y-54441030D01*
X48944956Y-54453238D01*
X48924318Y-54610000D01*
X47627103Y-54610000D01*
X47493391Y-54476288D01*
X47489729Y-54472191D01*
X47464879Y-54441030D01*
X47464878Y-54441029D01*
X47416467Y-54408022D01*
X47414974Y-54406962D01*
X47367882Y-54372206D01*
X47365858Y-54371498D01*
X47354446Y-54365736D01*
X47352675Y-54364528D01*
X47296686Y-54347258D01*
X47294946Y-54346685D01*
X47239696Y-54327352D01*
X47237548Y-54327272D01*
X47224952Y-54325132D01*
X47222902Y-54324500D01*
X47164349Y-54324500D01*
X47162517Y-54324466D01*
X47118795Y-54322830D01*
X47103990Y-54322276D01*
X47101920Y-54322830D01*
X47089240Y-54324500D01*
X45926899Y-54324500D01*
X45892251Y-54310148D01*
X43986230Y-52404127D01*
X43971878Y-52369479D01*
X43973987Y-52355259D01*
X44001024Y-52266132D01*
X44020341Y-52070000D01*
X44001024Y-51873868D01*
X43985419Y-51822427D01*
X43973125Y-51781899D01*
X43943814Y-51685273D01*
X43850910Y-51511462D01*
X43850909Y-51511460D01*
X43725883Y-51359116D01*
X43573539Y-51234090D01*
X43399728Y-51141186D01*
X43211132Y-51083975D01*
X43032584Y-51066390D01*
X43015000Y-51064659D01*
X43014999Y-51064659D01*
X42818867Y-51083975D01*
X42630271Y-51141186D01*
X42456460Y-51234090D01*
X42304116Y-51359116D01*
X42179090Y-51511460D01*
X42086186Y-51685271D01*
X42028975Y-51873867D01*
X42009659Y-52069999D01*
X31727103Y-52069999D01*
X34267103Y-49530000D01*
X42009659Y-49530000D01*
X42028975Y-49726132D01*
X42086186Y-49914728D01*
X42179090Y-50088539D01*
X42304116Y-50240883D01*
X42456460Y-50365909D01*
X42456462Y-50365910D01*
X42630273Y-50458814D01*
X42736745Y-50491112D01*
X42818867Y-50516024D01*
X42836452Y-50517755D01*
X43015000Y-50535341D01*
X43211132Y-50516024D01*
X43399727Y-50458814D01*
X43573538Y-50365910D01*
X43725883Y-50240883D01*
X43850910Y-50088538D01*
X43943814Y-49914727D01*
X44001024Y-49726132D01*
X44020341Y-49530000D01*
X44001024Y-49333868D01*
X43998480Y-49325483D01*
X43966354Y-49219576D01*
X43943814Y-49145273D01*
X43916757Y-49094652D01*
X43850909Y-48971460D01*
X43725883Y-48819116D01*
X43573539Y-48694090D01*
X43399728Y-48601186D01*
X43211132Y-48543975D01*
X43032584Y-48526390D01*
X43015000Y-48524659D01*
X43014999Y-48524659D01*
X42818867Y-48543975D01*
X42630271Y-48601186D01*
X42456460Y-48694090D01*
X42304116Y-48819116D01*
X42179090Y-48971460D01*
X42086186Y-49145271D01*
X42028975Y-49333867D01*
X42009659Y-49530000D01*
X34267103Y-49530000D01*
X34932251Y-48864852D01*
X34966900Y-48850500D01*
X35614041Y-48850500D01*
X35643869Y-48860625D01*
X35727159Y-48924536D01*
X35873238Y-48985044D01*
X36030000Y-49005682D01*
X36186762Y-48985044D01*
X36332841Y-48924536D01*
X36458282Y-48828282D01*
X36554536Y-48702841D01*
X36615044Y-48556762D01*
X36635682Y-48400000D01*
X36626172Y-48327763D01*
X64185788Y-48327763D01*
X64215413Y-48597015D01*
X64283928Y-48859089D01*
X64389870Y-49108390D01*
X64491573Y-49275037D01*
X64530982Y-49339610D01*
X64704255Y-49547820D01*
X64905998Y-49728582D01*
X65131910Y-49878044D01*
X65377176Y-49993020D01*
X65488206Y-50026424D01*
X65636565Y-50071059D01*
X65636566Y-50071059D01*
X65636569Y-50071060D01*
X65904561Y-50110500D01*
X65904562Y-50110500D01*
X66106739Y-50110500D01*
X66107631Y-50110500D01*
X66310156Y-50095677D01*
X66574553Y-50036780D01*
X66827558Y-49940014D01*
X67063777Y-49807441D01*
X67278177Y-49641888D01*
X67466186Y-49446881D01*
X67623799Y-49226579D01*
X67747656Y-48985675D01*
X67768515Y-48924534D01*
X67835117Y-48729309D01*
X67835118Y-48729305D01*
X67884319Y-48462933D01*
X67894212Y-48192235D01*
X67864586Y-47922982D01*
X67796072Y-47660912D01*
X67690130Y-47411610D01*
X67549018Y-47180390D01*
X67375745Y-46972180D01*
X67174002Y-46791418D01*
X66948090Y-46641956D01*
X66948087Y-46641954D01*
X66702822Y-46526979D01*
X66443434Y-46448940D01*
X66242436Y-46419360D01*
X66175439Y-46409500D01*
X65972369Y-46409500D01*
X65971486Y-46409564D01*
X65971475Y-46409565D01*
X65769847Y-46424322D01*
X65505445Y-46483220D01*
X65252440Y-46579986D01*
X65016220Y-46712560D01*
X64801826Y-46878109D01*
X64613813Y-47073120D01*
X64456202Y-47293418D01*
X64332341Y-47534330D01*
X64244882Y-47790690D01*
X64195680Y-48057069D01*
X64185788Y-48327763D01*
X36626172Y-48327763D01*
X36615044Y-48243238D01*
X36554536Y-48097159D01*
X36498073Y-48023575D01*
X36458282Y-47971717D01*
X36332842Y-47875465D01*
X36332841Y-47875464D01*
X36186762Y-47814956D01*
X36186761Y-47814956D01*
X36089712Y-47802179D01*
X36057234Y-47783427D01*
X36047527Y-47747202D01*
X36066279Y-47714724D01*
X36077357Y-47708328D01*
X36079509Y-47707436D01*
X36088650Y-47703650D01*
X36100499Y-47675045D01*
X36104660Y-47665000D01*
X36104229Y-47663959D01*
X36100499Y-47645208D01*
X36100499Y-46990000D01*
X42009659Y-46990000D01*
X42028975Y-47186132D01*
X42086186Y-47374728D01*
X42179090Y-47548539D01*
X42304116Y-47700883D01*
X42456460Y-47825909D01*
X42456462Y-47825910D01*
X42630273Y-47918814D01*
X42698050Y-47939374D01*
X42818867Y-47976024D01*
X42838184Y-47977926D01*
X43015000Y-47995341D01*
X43211132Y-47976024D01*
X43399727Y-47918814D01*
X43573538Y-47825910D01*
X43725883Y-47700883D01*
X43850910Y-47548538D01*
X43943814Y-47374727D01*
X44001024Y-47186132D01*
X44020341Y-46990000D01*
X57249659Y-46990000D01*
X57268975Y-47186132D01*
X57326186Y-47374728D01*
X57419090Y-47548539D01*
X57544116Y-47700883D01*
X57696460Y-47825909D01*
X57696462Y-47825910D01*
X57870273Y-47918814D01*
X57938050Y-47939374D01*
X58058867Y-47976024D01*
X58078184Y-47977926D01*
X58255000Y-47995341D01*
X58451132Y-47976024D01*
X58639727Y-47918814D01*
X58813538Y-47825910D01*
X58965883Y-47700883D01*
X59090910Y-47548538D01*
X59183814Y-47374727D01*
X59241024Y-47186132D01*
X59260341Y-46990000D01*
X59241024Y-46793868D01*
X59183814Y-46605273D01*
X59141966Y-46526980D01*
X59090909Y-46431460D01*
X58965883Y-46279116D01*
X58813539Y-46154090D01*
X58639728Y-46061186D01*
X58451132Y-46003975D01*
X58272584Y-45986390D01*
X58255000Y-45984659D01*
X58254999Y-45984659D01*
X58058867Y-46003975D01*
X57870271Y-46061186D01*
X57696460Y-46154090D01*
X57544116Y-46279116D01*
X57419090Y-46431460D01*
X57326186Y-46605271D01*
X57268975Y-46793867D01*
X57249659Y-46990000D01*
X44020341Y-46990000D01*
X44001024Y-46793868D01*
X43943814Y-46605273D01*
X43901966Y-46526980D01*
X43850909Y-46431460D01*
X43725883Y-46279116D01*
X43573539Y-46154090D01*
X43399728Y-46061186D01*
X43211132Y-46003975D01*
X43032584Y-45986390D01*
X43015000Y-45984659D01*
X43014999Y-45984659D01*
X42818867Y-46003975D01*
X42630271Y-46061186D01*
X42456460Y-46154090D01*
X42304116Y-46279116D01*
X42179090Y-46431460D01*
X42086186Y-46605271D01*
X42028975Y-46793867D01*
X42009659Y-46990000D01*
X36100499Y-46990000D01*
X36100499Y-46234792D01*
X36104229Y-46216040D01*
X36104660Y-46215000D01*
X36088650Y-46176350D01*
X36060045Y-46164501D01*
X36050000Y-46160340D01*
X36048960Y-46160771D01*
X36030208Y-46164501D01*
X32869792Y-46164501D01*
X32851040Y-46160771D01*
X32850000Y-46160340D01*
X32839955Y-46164501D01*
X32811349Y-46176350D01*
X32795340Y-46214999D01*
X32795771Y-46216040D01*
X32799501Y-46234792D01*
X32799501Y-47645208D01*
X32795770Y-47663959D01*
X32795340Y-47665000D01*
X32799501Y-47675045D01*
X32811350Y-47703650D01*
X32850000Y-47719660D01*
X32851040Y-47719228D01*
X32869792Y-47715499D01*
X35881091Y-47715499D01*
X35915739Y-47729851D01*
X35930091Y-47764499D01*
X35915739Y-47799147D01*
X35887487Y-47813080D01*
X35873237Y-47814956D01*
X35727157Y-47875465D01*
X35678022Y-47913167D01*
X35665230Y-47922984D01*
X35643870Y-47939374D01*
X35614041Y-47949500D01*
X34788053Y-47949500D01*
X34782567Y-47949192D01*
X34742964Y-47944729D01*
X34685423Y-47955616D01*
X34683618Y-47955923D01*
X34637545Y-47962868D01*
X34625713Y-47964652D01*
X34625712Y-47964652D01*
X34625708Y-47964653D01*
X34623781Y-47965581D01*
X34611641Y-47969576D01*
X34609529Y-47969975D01*
X34557727Y-47997354D01*
X34556092Y-47998179D01*
X34503357Y-48023575D01*
X34501782Y-48025037D01*
X34491360Y-48032431D01*
X34489462Y-48033434D01*
X34448051Y-48074843D01*
X34446733Y-48076113D01*
X34403804Y-48115946D01*
X34402730Y-48117807D01*
X34394947Y-48127948D01*
X30797749Y-51725148D01*
X30763101Y-51739500D01*
X29373053Y-51739500D01*
X29367567Y-51739192D01*
X29327964Y-51734729D01*
X29270419Y-51745616D01*
X29268616Y-51745922D01*
X29210709Y-51754652D01*
X29208775Y-51755583D01*
X29196645Y-51759574D01*
X29194531Y-51759974D01*
X29142716Y-51787359D01*
X29141081Y-51788184D01*
X29088355Y-51813576D01*
X29086781Y-51815037D01*
X29076366Y-51822427D01*
X29074461Y-51823433D01*
X29033039Y-51864854D01*
X29031721Y-51866124D01*
X28988804Y-51905945D01*
X28987730Y-51907806D01*
X28979947Y-51917947D01*
X28524147Y-52373747D01*
X28489499Y-52388099D01*
X28454851Y-52373747D01*
X28440499Y-52339101D01*
X28440499Y-51566897D01*
X28454850Y-51532251D01*
X29872250Y-50114852D01*
X29906899Y-50100500D01*
X30941947Y-50100500D01*
X30947432Y-50100807D01*
X30987035Y-50105270D01*
X31044628Y-50094371D01*
X31046353Y-50094079D01*
X31104287Y-50085348D01*
X31106205Y-50084423D01*
X31118369Y-50080420D01*
X31120472Y-50080023D01*
X31172270Y-50052645D01*
X31173864Y-50051840D01*
X31226642Y-50026425D01*
X31228208Y-50024971D01*
X31238644Y-50017566D01*
X31240538Y-50016566D01*
X31281957Y-49975145D01*
X31283250Y-49973899D01*
X31326194Y-49934055D01*
X31327266Y-49932197D01*
X31335048Y-49922054D01*
X32455323Y-48801778D01*
X32459392Y-48798141D01*
X32490570Y-48773279D01*
X32523576Y-48724866D01*
X32524598Y-48723425D01*
X32559393Y-48676282D01*
X32560099Y-48674261D01*
X32565866Y-48662840D01*
X32567072Y-48661073D01*
X32584353Y-48605042D01*
X32584897Y-48603390D01*
X32604246Y-48548099D01*
X32604326Y-48545957D01*
X32606468Y-48533350D01*
X32607100Y-48531302D01*
X32607100Y-48472765D01*
X32607134Y-48470933D01*
X32607433Y-48462933D01*
X32609325Y-48412390D01*
X32608770Y-48410317D01*
X32607100Y-48397635D01*
X32607100Y-44449999D01*
X42009659Y-44449999D01*
X42028975Y-44646132D01*
X42086186Y-44834728D01*
X42179090Y-45008539D01*
X42304116Y-45160883D01*
X42456460Y-45285909D01*
X42456462Y-45285910D01*
X42630273Y-45378814D01*
X42736745Y-45411112D01*
X42818867Y-45436024D01*
X42838184Y-45437926D01*
X43015000Y-45455341D01*
X43211132Y-45436024D01*
X43399727Y-45378814D01*
X43573538Y-45285910D01*
X43725883Y-45160883D01*
X43850910Y-45008538D01*
X43943814Y-44834727D01*
X44001024Y-44646132D01*
X44020341Y-44450000D01*
X44020341Y-44449999D01*
X57249659Y-44449999D01*
X57268975Y-44646132D01*
X57326186Y-44834728D01*
X57419090Y-45008539D01*
X57544116Y-45160883D01*
X57696460Y-45285909D01*
X57696462Y-45285910D01*
X57870273Y-45378814D01*
X57976745Y-45411112D01*
X58058867Y-45436024D01*
X58078184Y-45437926D01*
X58255000Y-45455341D01*
X58451132Y-45436024D01*
X58639727Y-45378814D01*
X58813538Y-45285910D01*
X58965883Y-45160883D01*
X59090910Y-45008538D01*
X59183814Y-44834727D01*
X59241024Y-44646132D01*
X59260341Y-44450000D01*
X59241024Y-44253868D01*
X59227433Y-44209066D01*
X59204495Y-44133450D01*
X59183814Y-44065273D01*
X59119594Y-43945125D01*
X59090909Y-43891460D01*
X58965883Y-43739116D01*
X58813539Y-43614090D01*
X58639728Y-43521186D01*
X58451132Y-43463975D01*
X58272584Y-43446390D01*
X58255000Y-43444659D01*
X58254999Y-43444659D01*
X58058867Y-43463975D01*
X57870271Y-43521186D01*
X57696460Y-43614090D01*
X57544116Y-43739116D01*
X57419090Y-43891460D01*
X57326186Y-44065271D01*
X57268975Y-44253867D01*
X57249659Y-44449999D01*
X44020341Y-44449999D01*
X44001024Y-44253868D01*
X43987433Y-44209066D01*
X43964495Y-44133450D01*
X43943814Y-44065273D01*
X43879594Y-43945125D01*
X43850909Y-43891460D01*
X43725883Y-43739116D01*
X43573539Y-43614090D01*
X43399728Y-43521186D01*
X43211132Y-43463975D01*
X43032584Y-43446390D01*
X43015000Y-43444659D01*
X43014999Y-43444659D01*
X42818867Y-43463975D01*
X42630271Y-43521186D01*
X42456460Y-43614090D01*
X42304116Y-43739116D01*
X42179090Y-43891460D01*
X42086186Y-44065271D01*
X42028975Y-44253867D01*
X42009659Y-44449999D01*
X32607100Y-44449999D01*
X32607100Y-44225299D01*
X32621452Y-44190651D01*
X34932251Y-41879852D01*
X34966899Y-41865500D01*
X35614041Y-41865500D01*
X35643869Y-41875625D01*
X35727159Y-41939536D01*
X35873238Y-42000044D01*
X36030000Y-42020682D01*
X36186762Y-42000044D01*
X36332841Y-41939536D01*
X36371334Y-41909999D01*
X42009659Y-41909999D01*
X42028975Y-42106132D01*
X42086186Y-42294728D01*
X42179090Y-42468539D01*
X42304116Y-42620883D01*
X42456460Y-42745909D01*
X42456462Y-42745910D01*
X42630273Y-42838814D01*
X42736745Y-42871112D01*
X42818867Y-42896024D01*
X42838184Y-42897926D01*
X43015000Y-42915341D01*
X43211132Y-42896024D01*
X43399727Y-42838814D01*
X43573538Y-42745910D01*
X43725883Y-42620883D01*
X43850910Y-42468538D01*
X43943814Y-42294727D01*
X44001024Y-42106132D01*
X44020341Y-41910000D01*
X57249659Y-41910000D01*
X57268975Y-42106132D01*
X57326186Y-42294728D01*
X57419090Y-42468539D01*
X57544116Y-42620883D01*
X57696460Y-42745909D01*
X57696462Y-42745910D01*
X57870273Y-42838814D01*
X57976745Y-42871112D01*
X58058867Y-42896024D01*
X58078184Y-42897926D01*
X58255000Y-42915341D01*
X58451132Y-42896024D01*
X58639727Y-42838814D01*
X58813538Y-42745910D01*
X58965883Y-42620883D01*
X59090910Y-42468538D01*
X59183814Y-42294727D01*
X59241024Y-42106132D01*
X59260341Y-41910000D01*
X59241024Y-41713868D01*
X59183814Y-41525273D01*
X59105531Y-41378815D01*
X59090909Y-41351460D01*
X58965883Y-41199116D01*
X58813539Y-41074090D01*
X58639728Y-40981186D01*
X58451132Y-40923975D01*
X58272584Y-40906390D01*
X58255000Y-40904659D01*
X58254999Y-40904659D01*
X58058867Y-40923975D01*
X57870271Y-40981186D01*
X57696460Y-41074090D01*
X57544116Y-41199116D01*
X57419090Y-41351460D01*
X57326186Y-41525271D01*
X57268975Y-41713867D01*
X57249659Y-41910000D01*
X44020341Y-41910000D01*
X44001024Y-41713868D01*
X43943814Y-41525273D01*
X43865531Y-41378815D01*
X43850909Y-41351460D01*
X43725883Y-41199116D01*
X43573539Y-41074090D01*
X43399728Y-40981186D01*
X43211132Y-40923975D01*
X43032584Y-40906390D01*
X43015000Y-40904659D01*
X43014999Y-40904659D01*
X42818867Y-40923975D01*
X42630271Y-40981186D01*
X42456460Y-41074090D01*
X42304116Y-41199116D01*
X42179090Y-41351460D01*
X42086186Y-41525271D01*
X42028975Y-41713867D01*
X42009659Y-41909999D01*
X36371334Y-41909999D01*
X36458282Y-41843282D01*
X36554536Y-41717841D01*
X36615044Y-41571762D01*
X36635682Y-41415000D01*
X36615044Y-41258238D01*
X36554536Y-41112159D01*
X36505638Y-41048434D01*
X36458282Y-40986717D01*
X36332842Y-40890465D01*
X36332841Y-40890464D01*
X36186762Y-40829956D01*
X36030000Y-40809318D01*
X35873237Y-40829956D01*
X35727157Y-40890465D01*
X35643870Y-40954374D01*
X35614041Y-40964500D01*
X34788053Y-40964500D01*
X34782567Y-40964192D01*
X34742965Y-40959729D01*
X34685418Y-40970617D01*
X34683613Y-40970924D01*
X34637821Y-40977826D01*
X34625713Y-40979652D01*
X34625712Y-40979652D01*
X34625707Y-40979653D01*
X34623778Y-40980582D01*
X34611646Y-40984574D01*
X34609530Y-40984974D01*
X34557726Y-41012353D01*
X34556092Y-41013178D01*
X34503355Y-41038576D01*
X34501778Y-41040039D01*
X34491363Y-41047429D01*
X34489462Y-41048433D01*
X34448051Y-41089843D01*
X34446733Y-41091113D01*
X34403804Y-41130946D01*
X34402730Y-41132807D01*
X34394947Y-41142948D01*
X31857886Y-43680009D01*
X31853790Y-43683670D01*
X31822630Y-43708520D01*
X31789647Y-43756896D01*
X31788588Y-43758388D01*
X31753806Y-43805518D01*
X31753099Y-43807539D01*
X31747341Y-43818945D01*
X31746128Y-43820724D01*
X31728858Y-43876712D01*
X31728288Y-43878444D01*
X31727019Y-43882072D01*
X31708952Y-43933706D01*
X31708872Y-43935850D01*
X31706733Y-43948443D01*
X31706100Y-43950496D01*
X31706100Y-44009049D01*
X31706066Y-44010881D01*
X31703876Y-44069410D01*
X31704431Y-44071484D01*
X31706099Y-44084158D01*
X31706099Y-48256500D01*
X31691747Y-48291148D01*
X30797749Y-49185148D01*
X30763101Y-49199500D01*
X29728053Y-49199500D01*
X29722567Y-49199192D01*
X29682964Y-49194729D01*
X29625423Y-49205616D01*
X29623618Y-49205923D01*
X29577545Y-49212868D01*
X29565713Y-49214652D01*
X29565712Y-49214652D01*
X29565708Y-49214653D01*
X29563781Y-49215581D01*
X29551641Y-49219576D01*
X29549529Y-49219975D01*
X29497727Y-49247354D01*
X29496092Y-49248179D01*
X29443357Y-49273575D01*
X29441782Y-49275037D01*
X29431360Y-49282431D01*
X29429462Y-49283434D01*
X29388051Y-49324843D01*
X29386733Y-49326113D01*
X29343804Y-49365946D01*
X29342730Y-49367807D01*
X29334947Y-49377948D01*
X27691286Y-51021609D01*
X27687190Y-51025270D01*
X27656030Y-51050120D01*
X27623047Y-51098496D01*
X27621988Y-51099988D01*
X27587206Y-51147118D01*
X27586499Y-51149139D01*
X27580741Y-51160545D01*
X27579528Y-51162324D01*
X27562258Y-51218312D01*
X27561688Y-51220044D01*
X27551274Y-51249808D01*
X27526285Y-51277771D01*
X27488841Y-51279875D01*
X27470376Y-51268272D01*
X27465158Y-51263054D01*
X27463886Y-51261734D01*
X27424054Y-51218805D01*
X27422199Y-51217734D01*
X27412051Y-51209947D01*
X25458452Y-49256348D01*
X25444100Y-49221700D01*
X25444100Y-47665000D01*
X25795340Y-47665000D01*
X25799501Y-47675045D01*
X25811350Y-47703650D01*
X25850000Y-47719660D01*
X25851040Y-47719228D01*
X25869792Y-47715499D01*
X29030208Y-47715499D01*
X29048959Y-47719228D01*
X29050000Y-47719660D01*
X29088650Y-47703650D01*
X29100499Y-47675045D01*
X29104660Y-47665000D01*
X29104229Y-47663959D01*
X29100499Y-47645208D01*
X29100499Y-46234792D01*
X29104229Y-46216040D01*
X29104660Y-46215000D01*
X29088650Y-46176350D01*
X29060045Y-46164501D01*
X29050000Y-46160340D01*
X29048960Y-46160771D01*
X29030208Y-46164501D01*
X25869792Y-46164501D01*
X25851040Y-46160771D01*
X25850000Y-46160340D01*
X25839955Y-46164501D01*
X25811349Y-46176350D01*
X25795340Y-46214999D01*
X25795771Y-46216040D01*
X25799501Y-46234792D01*
X25799501Y-47645208D01*
X25795770Y-47663959D01*
X25795340Y-47665000D01*
X25444100Y-47665000D01*
X25444100Y-44415000D01*
X26894417Y-44415000D01*
X26914699Y-44620934D01*
X26974767Y-44818952D01*
X26974768Y-44818954D01*
X27072315Y-45001450D01*
X27203590Y-45161410D01*
X27363550Y-45292685D01*
X27546046Y-45390232D01*
X27569182Y-45397250D01*
X27744065Y-45450300D01*
X27759062Y-45451777D01*
X27898392Y-45465500D01*
X27899596Y-45465500D01*
X28000404Y-45465500D01*
X28001608Y-45465500D01*
X28155934Y-45450300D01*
X28353954Y-45390232D01*
X28536450Y-45292685D01*
X28696410Y-45161410D01*
X28827685Y-45001450D01*
X28925232Y-44818954D01*
X28985300Y-44620934D01*
X29005583Y-44415000D01*
X28985300Y-44209066D01*
X28985146Y-44208559D01*
X28940158Y-44060251D01*
X28925232Y-44011046D01*
X28827685Y-43828550D01*
X28696410Y-43668590D01*
X28536450Y-43537315D01*
X28353954Y-43439768D01*
X28353953Y-43439767D01*
X28353952Y-43439767D01*
X28155934Y-43379699D01*
X28002806Y-43364618D01*
X28001608Y-43364500D01*
X27898392Y-43364500D01*
X27897194Y-43364617D01*
X27897193Y-43364618D01*
X27744065Y-43379699D01*
X27546047Y-43439767D01*
X27363550Y-43537315D01*
X27203590Y-43668590D01*
X27072315Y-43828550D01*
X26974767Y-44011047D01*
X26914699Y-44209065D01*
X26894417Y-44415000D01*
X25444100Y-44415000D01*
X25444100Y-44349701D01*
X25458452Y-44315053D01*
X29163653Y-40609852D01*
X29198301Y-40595500D01*
X35366947Y-40595500D01*
X35372432Y-40595807D01*
X35412035Y-40600270D01*
X35469628Y-40589371D01*
X35471353Y-40589079D01*
X35529287Y-40580348D01*
X35531205Y-40579423D01*
X35543369Y-40575420D01*
X35545472Y-40575023D01*
X35597270Y-40547645D01*
X35598864Y-40546840D01*
X35651642Y-40521425D01*
X35653208Y-40519971D01*
X35663644Y-40512566D01*
X35665538Y-40511566D01*
X35706957Y-40470145D01*
X35708250Y-40468899D01*
X35751194Y-40429055D01*
X35752266Y-40427197D01*
X35760048Y-40417054D01*
X36689423Y-39487679D01*
X36717673Y-39473747D01*
X36821762Y-39460044D01*
X36967841Y-39399536D01*
X37006333Y-39370000D01*
X42009659Y-39370000D01*
X42028975Y-39566132D01*
X42086186Y-39754728D01*
X42179090Y-39928539D01*
X42304116Y-40080883D01*
X42456460Y-40205909D01*
X42456462Y-40205910D01*
X42630273Y-40298814D01*
X42736745Y-40331112D01*
X42818867Y-40356024D01*
X42838184Y-40357926D01*
X43015000Y-40375341D01*
X43211132Y-40356024D01*
X43399727Y-40298814D01*
X43573538Y-40205910D01*
X43725883Y-40080883D01*
X43850910Y-39928538D01*
X43943814Y-39754727D01*
X44001024Y-39566132D01*
X44020341Y-39370000D01*
X57249659Y-39370000D01*
X57268975Y-39566132D01*
X57326186Y-39754728D01*
X57419090Y-39928539D01*
X57544116Y-40080883D01*
X57696460Y-40205909D01*
X57696462Y-40205910D01*
X57870273Y-40298814D01*
X57976745Y-40331112D01*
X58058867Y-40356024D01*
X58078184Y-40357926D01*
X58255000Y-40375341D01*
X58451132Y-40356024D01*
X58639727Y-40298814D01*
X58813538Y-40205910D01*
X58965883Y-40080883D01*
X59090910Y-39928538D01*
X59183814Y-39754727D01*
X59241024Y-39566132D01*
X59260341Y-39370000D01*
X59241024Y-39173868D01*
X59183814Y-38985273D01*
X59105531Y-38838815D01*
X59090909Y-38811460D01*
X58965883Y-38659116D01*
X58813539Y-38534090D01*
X58639728Y-38441186D01*
X58451132Y-38383975D01*
X58272584Y-38366390D01*
X58255000Y-38364659D01*
X58254999Y-38364659D01*
X58058867Y-38383975D01*
X57870271Y-38441186D01*
X57696460Y-38534090D01*
X57544116Y-38659116D01*
X57419090Y-38811460D01*
X57326186Y-38985271D01*
X57268975Y-39173867D01*
X57249659Y-39370000D01*
X44020341Y-39370000D01*
X44001024Y-39173868D01*
X43943814Y-38985273D01*
X43865531Y-38838815D01*
X43850909Y-38811460D01*
X43725883Y-38659116D01*
X43573539Y-38534090D01*
X43399728Y-38441186D01*
X43211132Y-38383975D01*
X43032584Y-38366390D01*
X43015000Y-38364659D01*
X43014999Y-38364659D01*
X42818867Y-38383975D01*
X42630271Y-38441186D01*
X42456460Y-38534090D01*
X42304116Y-38659116D01*
X42179090Y-38811460D01*
X42086186Y-38985271D01*
X42028975Y-39173867D01*
X42009659Y-39370000D01*
X37006333Y-39370000D01*
X37093282Y-39303282D01*
X37189536Y-39177841D01*
X37250044Y-39031762D01*
X37270682Y-38875000D01*
X37250044Y-38718238D01*
X37189536Y-38572159D01*
X37153197Y-38524801D01*
X37093282Y-38446717D01*
X36967842Y-38350465D01*
X36967841Y-38350464D01*
X36821762Y-38289956D01*
X36665000Y-38269318D01*
X36664999Y-38269318D01*
X36508237Y-38289956D01*
X36362157Y-38350465D01*
X36236717Y-38446717D01*
X36140465Y-38572157D01*
X36079955Y-38718237D01*
X36066252Y-38822324D01*
X36052319Y-38850576D01*
X35222749Y-39680148D01*
X35188101Y-39694500D01*
X29019454Y-39694500D01*
X29013968Y-39694192D01*
X28974365Y-39689729D01*
X28916824Y-39700616D01*
X28915019Y-39700923D01*
X28868946Y-39707868D01*
X28857114Y-39709652D01*
X28857113Y-39709652D01*
X28857109Y-39709653D01*
X28855182Y-39710581D01*
X28843042Y-39714576D01*
X28840930Y-39714975D01*
X28789128Y-39742354D01*
X28787493Y-39743179D01*
X28734758Y-39768575D01*
X28733183Y-39770037D01*
X28722761Y-39777431D01*
X28720863Y-39778434D01*
X28679452Y-39819843D01*
X28678134Y-39821113D01*
X28635205Y-39860946D01*
X28634131Y-39862807D01*
X28626348Y-39872948D01*
X24694886Y-43804410D01*
X24690790Y-43808071D01*
X24659630Y-43832921D01*
X24626647Y-43881297D01*
X24625588Y-43882789D01*
X24590806Y-43929919D01*
X24590099Y-43931940D01*
X24584341Y-43943346D01*
X24583128Y-43945125D01*
X24565858Y-44001113D01*
X24565286Y-44002853D01*
X24545952Y-44058107D01*
X24545872Y-44060251D01*
X24543733Y-44072844D01*
X24543100Y-44074897D01*
X24543100Y-44133450D01*
X24543066Y-44135282D01*
X24540876Y-44193811D01*
X24541431Y-44195885D01*
X24543099Y-44208559D01*
X24543099Y-49400546D01*
X24542791Y-49406031D01*
X24538329Y-49445634D01*
X22510500Y-49445634D01*
X22510500Y-45431898D01*
X22524851Y-45397251D01*
X25894422Y-42027679D01*
X25922672Y-42013747D01*
X26026762Y-42000044D01*
X26172841Y-41939536D01*
X26298282Y-41843282D01*
X26394536Y-41717841D01*
X26455044Y-41571762D01*
X26475682Y-41415000D01*
X26455044Y-41258238D01*
X26394536Y-41112159D01*
X26345638Y-41048434D01*
X26298282Y-40986717D01*
X26172842Y-40890465D01*
X26172841Y-40890464D01*
X26026762Y-40829956D01*
X25870000Y-40809318D01*
X25713237Y-40829956D01*
X25567157Y-40890465D01*
X25441717Y-40986717D01*
X25345465Y-41112157D01*
X25284955Y-41258237D01*
X25271252Y-41362324D01*
X25257319Y-41390576D01*
X21761286Y-44886609D01*
X21757190Y-44890270D01*
X21726030Y-44915120D01*
X21693047Y-44963496D01*
X21691988Y-44964988D01*
X21657206Y-45012118D01*
X21656499Y-45014139D01*
X21650741Y-45025545D01*
X21649528Y-45027324D01*
X21632258Y-45083312D01*
X21631686Y-45085052D01*
X21612352Y-45140306D01*
X21612272Y-45142450D01*
X21610133Y-45155043D01*
X21609500Y-45157096D01*
X21609500Y-45215649D01*
X21609466Y-45217481D01*
X21607276Y-45276009D01*
X21607830Y-45278076D01*
X21609500Y-45290760D01*
X21609500Y-53064040D01*
X21599374Y-53093869D01*
X21535465Y-53177157D01*
X21535464Y-53177158D01*
X21535464Y-53177159D01*
X21474956Y-53323238D01*
X21454318Y-53480000D01*
X20370499Y-53480000D01*
X20370499Y-38415000D01*
X32894417Y-38415000D01*
X32914699Y-38620934D01*
X32972495Y-38811462D01*
X32974768Y-38818954D01*
X33072315Y-39001450D01*
X33203590Y-39161410D01*
X33363550Y-39292685D01*
X33546046Y-39390232D01*
X33576718Y-39399536D01*
X33744065Y-39450300D01*
X33759062Y-39451777D01*
X33898392Y-39465500D01*
X33899596Y-39465500D01*
X34000404Y-39465500D01*
X34001608Y-39465500D01*
X34155934Y-39450300D01*
X34353954Y-39390232D01*
X34536450Y-39292685D01*
X34696410Y-39161410D01*
X34827685Y-39001450D01*
X34925232Y-38818954D01*
X34985300Y-38620934D01*
X35005583Y-38415000D01*
X34985300Y-38209066D01*
X34925232Y-38011046D01*
X34827685Y-37828550D01*
X34696410Y-37668590D01*
X34536450Y-37537315D01*
X34353954Y-37439768D01*
X34353953Y-37439767D01*
X34353952Y-37439767D01*
X34155934Y-37379699D01*
X34002806Y-37364618D01*
X34001608Y-37364500D01*
X33898392Y-37364500D01*
X33897194Y-37364617D01*
X33897193Y-37364618D01*
X33744065Y-37379699D01*
X33546047Y-37439767D01*
X33363550Y-37537315D01*
X33203590Y-37668590D01*
X33072315Y-37828550D01*
X32974767Y-38011047D01*
X32914699Y-38209065D01*
X32894417Y-38415000D01*
X20370499Y-38415000D01*
X20370499Y-36830000D01*
X42009659Y-36830000D01*
X42028975Y-37026132D01*
X42086186Y-37214728D01*
X42179090Y-37388539D01*
X42304116Y-37540883D01*
X42456460Y-37665909D01*
X42456462Y-37665910D01*
X42630273Y-37758814D01*
X42736745Y-37791112D01*
X42818867Y-37816024D01*
X42838184Y-37817926D01*
X43015000Y-37835341D01*
X43211132Y-37816024D01*
X43399727Y-37758814D01*
X43573538Y-37665910D01*
X43725883Y-37540883D01*
X43850910Y-37388538D01*
X43943814Y-37214727D01*
X44001024Y-37026132D01*
X44020341Y-36830000D01*
X44001024Y-36633868D01*
X43998347Y-36625044D01*
X43943813Y-36445271D01*
X43850909Y-36271460D01*
X43725883Y-36119116D01*
X43573539Y-35994090D01*
X43399728Y-35901186D01*
X43211132Y-35843975D01*
X43032584Y-35826390D01*
X43015000Y-35824659D01*
X43014999Y-35824659D01*
X42818867Y-35843975D01*
X42630271Y-35901186D01*
X42456460Y-35994090D01*
X42304116Y-36119116D01*
X42179090Y-36271460D01*
X42086186Y-36445271D01*
X42028975Y-36633867D01*
X42009659Y-36830000D01*
X20370499Y-36830000D01*
X20370499Y-36615000D01*
X29295340Y-36615000D01*
X29299501Y-36625045D01*
X29311350Y-36653650D01*
X29350000Y-36669660D01*
X29351040Y-36669228D01*
X29369792Y-36665499D01*
X32530208Y-36665499D01*
X32548959Y-36669228D01*
X32550000Y-36669660D01*
X32588650Y-36653650D01*
X32600499Y-36625045D01*
X32604660Y-36615000D01*
X32604229Y-36613959D01*
X32600499Y-36595208D01*
X32600499Y-35184792D01*
X32604229Y-35166040D01*
X32604660Y-35165000D01*
X32588650Y-35126350D01*
X32560045Y-35114501D01*
X32550000Y-35110340D01*
X32548960Y-35110771D01*
X32530208Y-35114501D01*
X29369792Y-35114501D01*
X29351040Y-35110771D01*
X29350000Y-35110340D01*
X29339955Y-35114501D01*
X29311349Y-35126350D01*
X29295340Y-35164999D01*
X29295771Y-35166040D01*
X29299501Y-35184792D01*
X29299501Y-36595208D01*
X29295770Y-36613959D01*
X29295340Y-36615000D01*
X20370499Y-36615000D01*
X20370499Y-34389499D01*
X20384851Y-34354851D01*
X20419499Y-34340499D01*
X68480501Y-34340499D01*
X68515149Y-34354851D01*
G37*
G04 #@! TD.AperFunction*
G04 #@! TA.AperFunction,Conductor*
G36*
X114807672Y-37373728D02*
G01*
X115818464Y-37412951D01*
X115820298Y-37413058D01*
X116828849Y-37491449D01*
X116830717Y-37491630D01*
X117835454Y-37609067D01*
X117837281Y-37609317D01*
X118836730Y-37765627D01*
X118838536Y-37765946D01*
X119831191Y-37960897D01*
X119832999Y-37961289D01*
X120817278Y-38194568D01*
X120819118Y-38195042D01*
X121793642Y-38466318D01*
X121795378Y-38466838D01*
X122758664Y-38775703D01*
X122760442Y-38776311D01*
X123711028Y-39122297D01*
X123712746Y-39122961D01*
X124569650Y-39473045D01*
X124649152Y-39505525D01*
X124650897Y-39506277D01*
X125571806Y-39924881D01*
X125573485Y-39925684D01*
X126456074Y-40368937D01*
X126477437Y-40379666D01*
X126479115Y-40380550D01*
X127364810Y-40869256D01*
X127366403Y-40870176D01*
X128232471Y-41392851D01*
X128234057Y-41393850D01*
X129079223Y-41949723D01*
X129080763Y-41950780D01*
X129903734Y-42539005D01*
X129905225Y-42540115D01*
X130172806Y-42747506D01*
X130704734Y-43159782D01*
X130706214Y-43160975D01*
X131481111Y-43811190D01*
X131482542Y-43812439D01*
X131638007Y-43953516D01*
X132219544Y-44481233D01*
X132231618Y-44492189D01*
X132232996Y-44493488D01*
X132337250Y-44595740D01*
X132955189Y-45201811D01*
X132956519Y-45203168D01*
X133650682Y-45938937D01*
X133651925Y-45940306D01*
X134313551Y-46698446D01*
X134317048Y-46702453D01*
X134318265Y-46703903D01*
X134793757Y-47293421D01*
X134953331Y-47491261D01*
X134954489Y-47492755D01*
X135258538Y-47901164D01*
X135558542Y-48304139D01*
X135559647Y-48305685D01*
X136131784Y-49139883D01*
X136132828Y-49141471D01*
X136672179Y-49997208D01*
X136673161Y-49998835D01*
X137178933Y-50874857D01*
X137179851Y-50876521D01*
X137651267Y-51771483D01*
X137652120Y-51773181D01*
X138088479Y-52685749D01*
X138089266Y-52687479D01*
X138489928Y-53616317D01*
X138490646Y-53618076D01*
X138854974Y-54561710D01*
X138855623Y-54563493D01*
X139179749Y-55510787D01*
X139183096Y-55520567D01*
X139183673Y-55522368D01*
X139338647Y-56040018D01*
X139473781Y-56491397D01*
X139474291Y-56493227D01*
X139726617Y-57472815D01*
X139727055Y-57474665D01*
X139941193Y-58463241D01*
X139941560Y-58465105D01*
X140117220Y-59461316D01*
X140117512Y-59463193D01*
X140119205Y-59475582D01*
X140254401Y-60465397D01*
X140254622Y-60467284D01*
X140352552Y-61474089D01*
X140352699Y-61475984D01*
X140411514Y-62485795D01*
X140411588Y-62487694D01*
X140431203Y-63499050D01*
X140431203Y-63500950D01*
X140411588Y-64512305D01*
X140411514Y-64514204D01*
X140352699Y-65524015D01*
X140352552Y-65525910D01*
X140254622Y-66532715D01*
X140254401Y-66534602D01*
X140117513Y-67536805D01*
X140117220Y-67538683D01*
X139941560Y-68534894D01*
X139941193Y-68536758D01*
X139727055Y-69525334D01*
X139726617Y-69527184D01*
X139474291Y-70506772D01*
X139473781Y-70508602D01*
X139183676Y-71477622D01*
X139183096Y-71479432D01*
X138855624Y-72436503D01*
X138854974Y-72438289D01*
X138490646Y-73381923D01*
X138489928Y-73383682D01*
X138089266Y-74312520D01*
X138088479Y-74314250D01*
X137652120Y-75226818D01*
X137651267Y-75228516D01*
X137179851Y-76123478D01*
X137178933Y-76125142D01*
X136673161Y-77001164D01*
X136672179Y-77002791D01*
X136132828Y-77858528D01*
X136131784Y-77860116D01*
X135559647Y-78694314D01*
X135558542Y-78695860D01*
X134954495Y-79507236D01*
X134953331Y-79508738D01*
X134318270Y-80296090D01*
X134317048Y-80297546D01*
X133651942Y-81059674D01*
X133650665Y-81061081D01*
X132956519Y-81796831D01*
X132955189Y-81798188D01*
X132233001Y-82506506D01*
X132231618Y-82507810D01*
X131482542Y-83187560D01*
X131481111Y-83188809D01*
X130706214Y-83839024D01*
X130704734Y-83840217D01*
X129905242Y-84459871D01*
X129903718Y-84461006D01*
X129080776Y-85049210D01*
X129079209Y-85050285D01*
X128234068Y-85606142D01*
X128232460Y-85607155D01*
X127366429Y-86129808D01*
X127364784Y-86130758D01*
X126479119Y-86619447D01*
X126477437Y-86620333D01*
X125573502Y-87074306D01*
X125571788Y-87075126D01*
X124650897Y-87493722D01*
X124649152Y-87494474D01*
X123712774Y-87877027D01*
X123711001Y-87877712D01*
X122760452Y-88223684D01*
X122758654Y-88224299D01*
X121795420Y-88533148D01*
X121793599Y-88533693D01*
X120819118Y-88804957D01*
X120817278Y-88805431D01*
X119833024Y-89038704D01*
X119831167Y-89039107D01*
X118838569Y-89234047D01*
X118836697Y-89234377D01*
X117837309Y-89390678D01*
X117835427Y-89390935D01*
X116830729Y-89508367D01*
X116828837Y-89508551D01*
X115820329Y-89586939D01*
X115818432Y-89587049D01*
X114807672Y-89626272D01*
X114805772Y-89626309D01*
X113794228Y-89626309D01*
X113792328Y-89626272D01*
X112781567Y-89587049D01*
X112779670Y-89586939D01*
X111771162Y-89508551D01*
X111769270Y-89508367D01*
X110764572Y-89390935D01*
X110762690Y-89390678D01*
X109763302Y-89234377D01*
X109761430Y-89234047D01*
X108768832Y-89039107D01*
X108766975Y-89038704D01*
X107782721Y-88805431D01*
X107780881Y-88804957D01*
X106834482Y-88541510D01*
X106806391Y-88533690D01*
X106804589Y-88533151D01*
X106497810Y-88434786D01*
X105841345Y-88224299D01*
X105839547Y-88223684D01*
X104888998Y-87877712D01*
X104887225Y-87877027D01*
X103950847Y-87494474D01*
X103949102Y-87493722D01*
X103028211Y-87075126D01*
X103026497Y-87074306D01*
X102122562Y-86620333D01*
X102120880Y-86619447D01*
X101400650Y-86222041D01*
X101235205Y-86130752D01*
X101233570Y-86129808D01*
X101210887Y-86116119D01*
X100367539Y-85607155D01*
X100365931Y-85606142D01*
X99849764Y-85266654D01*
X99520787Y-85050283D01*
X99519223Y-85049210D01*
X99482658Y-85023075D01*
X98696273Y-84461000D01*
X98694757Y-84459871D01*
X98692611Y-84458208D01*
X97895265Y-83840217D01*
X97893785Y-83839024D01*
X97118888Y-83188809D01*
X97117457Y-83187560D01*
X96368381Y-82507810D01*
X96366998Y-82506506D01*
X96355823Y-82495546D01*
X95835064Y-81984788D01*
X95644810Y-81798188D01*
X95643480Y-81796831D01*
X95256750Y-81386922D01*
X94949314Y-81061059D01*
X94948076Y-81059695D01*
X94282942Y-80297535D01*
X94281729Y-80296090D01*
X94274753Y-80287441D01*
X93646657Y-79508723D01*
X93645504Y-79507236D01*
X93520323Y-79339089D01*
X93041450Y-78695850D01*
X93040352Y-78694314D01*
X93024055Y-78670553D01*
X92784361Y-78321069D01*
X92468215Y-77860116D01*
X92467171Y-77858528D01*
X92047427Y-77192560D01*
X91927811Y-77002777D01*
X91926838Y-77001164D01*
X91905157Y-76963612D01*
X91527920Y-76310219D01*
X91421066Y-76125142D01*
X91420148Y-76123478D01*
X91049690Y-75420180D01*
X90948729Y-75228511D01*
X90947879Y-75226818D01*
X90939732Y-75209781D01*
X90511519Y-74314249D01*
X90510733Y-74312520D01*
X90110069Y-73383677D01*
X90109353Y-73381923D01*
X90082883Y-73313364D01*
X89745013Y-72438257D01*
X89744386Y-72436535D01*
X89416890Y-71479392D01*
X89416336Y-71477663D01*
X89126209Y-70508571D01*
X89125716Y-70506801D01*
X88873380Y-69527177D01*
X88872944Y-69525334D01*
X88858290Y-69457685D01*
X88658806Y-68536758D01*
X88658439Y-68534894D01*
X88643087Y-68447830D01*
X88482772Y-67538640D01*
X88482493Y-67536850D01*
X88345597Y-66534600D01*
X88345377Y-66532715D01*
X88270655Y-65764508D01*
X88247446Y-65525897D01*
X88247300Y-65524015D01*
X88246731Y-65514248D01*
X88188483Y-64514168D01*
X88188412Y-64512341D01*
X88178630Y-64008000D01*
X88548318Y-64008000D01*
X88568956Y-64164762D01*
X88629464Y-64310841D01*
X88642056Y-64327251D01*
X88725717Y-64436282D01*
X88803801Y-64496197D01*
X88851159Y-64532536D01*
X88997238Y-64593044D01*
X89154000Y-64613682D01*
X89258488Y-64599925D01*
X89294713Y-64609631D01*
X89299532Y-64613858D01*
X90554298Y-65868624D01*
X90568650Y-65903272D01*
X90568650Y-69114970D01*
X90568464Y-69119241D01*
X90564885Y-69160139D01*
X90575510Y-69199790D01*
X90576435Y-69203962D01*
X90583561Y-69244374D01*
X90587606Y-69251380D01*
X90592501Y-69263197D01*
X90594595Y-69271012D01*
X90618138Y-69304636D01*
X90620434Y-69308241D01*
X90640956Y-69343786D01*
X90672403Y-69370173D01*
X90675555Y-69373061D01*
X91960180Y-70657686D01*
X91974532Y-70692334D01*
X91974112Y-70698730D01*
X91960357Y-70803219D01*
X91980995Y-70959981D01*
X92041503Y-71106060D01*
X92041504Y-71106061D01*
X92047958Y-71114472D01*
X92057665Y-71150697D01*
X92038913Y-71183175D01*
X92002688Y-71192882D01*
X91984584Y-71186736D01*
X90765190Y-70482719D01*
X90742360Y-70452966D01*
X90741109Y-70446680D01*
X90727353Y-70342192D01*
X90666845Y-70196113D01*
X90610939Y-70123255D01*
X90570591Y-70070671D01*
X90445151Y-69974419D01*
X90445150Y-69974418D01*
X90299071Y-69913910D01*
X90142309Y-69893272D01*
X89985546Y-69913910D01*
X89839466Y-69974419D01*
X89714026Y-70070671D01*
X89617774Y-70196111D01*
X89617773Y-70196112D01*
X89617773Y-70196113D01*
X89600051Y-70238896D01*
X89557265Y-70342191D01*
X89546757Y-70422012D01*
X89536627Y-70498954D01*
X89557265Y-70655716D01*
X89617773Y-70801795D01*
X89617774Y-70801796D01*
X89714026Y-70927236D01*
X89756701Y-70959981D01*
X89839468Y-71023490D01*
X89985547Y-71083998D01*
X90142309Y-71104636D01*
X90299071Y-71083998D01*
X90396438Y-71043666D01*
X90433940Y-71043666D01*
X90439686Y-71046499D01*
X91976459Y-71933756D01*
X91999288Y-71963508D01*
X92830537Y-75065773D01*
X92831462Y-75069945D01*
X92838266Y-75108524D01*
X92838592Y-75110372D01*
X92854956Y-75138717D01*
X92859114Y-75145918D01*
X92861087Y-75149709D01*
X92878431Y-75186903D01*
X92878432Y-75186904D01*
X92878433Y-75186906D01*
X92884153Y-75192626D01*
X92891938Y-75202771D01*
X92895986Y-75209782D01*
X92927439Y-75236174D01*
X92930567Y-75239040D01*
X92959601Y-75268074D01*
X92996819Y-75285429D01*
X93000572Y-75287383D01*
X94561408Y-76188532D01*
X94573936Y-76195765D01*
X94596766Y-76225518D01*
X94598017Y-76231804D01*
X94611773Y-76336293D01*
X94649930Y-76428411D01*
X94672282Y-76482372D01*
X94689698Y-76505069D01*
X94768533Y-76607810D01*
X94768534Y-76607811D01*
X94768536Y-76607813D01*
X94776948Y-76614267D01*
X94795699Y-76646745D01*
X94785993Y-76682970D01*
X94753514Y-76701722D01*
X94734436Y-76700471D01*
X93449519Y-76356179D01*
X93374377Y-76336044D01*
X93344625Y-76313215D01*
X93341795Y-76307476D01*
X93301461Y-76210100D01*
X93261171Y-76157593D01*
X93205207Y-76084658D01*
X93079767Y-75988406D01*
X93079766Y-75988405D01*
X92933687Y-75927897D01*
X92776925Y-75907259D01*
X92620162Y-75927897D01*
X92516867Y-75970683D01*
X92488751Y-75982330D01*
X92474082Y-75988406D01*
X92348642Y-76084658D01*
X92252390Y-76210098D01*
X92252389Y-76210099D01*
X92252389Y-76210100D01*
X92239268Y-76241778D01*
X92200221Y-76336045D01*
X92191881Y-76356179D01*
X92171243Y-76512941D01*
X92191881Y-76669703D01*
X92252389Y-76815782D01*
X92252390Y-76815783D01*
X92348642Y-76941223D01*
X92379451Y-76964863D01*
X92474084Y-77037477D01*
X92620163Y-77097985D01*
X92776925Y-77118623D01*
X92933687Y-77097985D01*
X93079766Y-77037477D01*
X93163378Y-76973318D01*
X93199601Y-76963612D01*
X93205888Y-76964863D01*
X94919931Y-77424140D01*
X94949682Y-77446968D01*
X96555539Y-80228392D01*
X96557513Y-80232184D01*
X96574855Y-80269377D01*
X96574856Y-80269378D01*
X96574857Y-80269379D01*
X96603883Y-80298405D01*
X96606761Y-80301546D01*
X96633149Y-80332994D01*
X96640159Y-80337041D01*
X96650301Y-80344823D01*
X96656025Y-80350547D01*
X96656026Y-80350548D01*
X96693220Y-80367891D01*
X96697012Y-80369865D01*
X96732559Y-80390388D01*
X96772992Y-80397516D01*
X96777144Y-80398437D01*
X98531992Y-80868649D01*
X98561744Y-80891478D01*
X98564579Y-80897226D01*
X98604912Y-80994597D01*
X98701164Y-81120036D01*
X98779248Y-81179951D01*
X98826606Y-81216290D01*
X98836403Y-81220348D01*
X98862920Y-81246866D01*
X98862920Y-81284369D01*
X98836401Y-81310887D01*
X98817650Y-81314617D01*
X97409616Y-81314617D01*
X97374968Y-81300265D01*
X97370742Y-81295446D01*
X97306585Y-81211834D01*
X97181145Y-81115582D01*
X97181144Y-81115581D01*
X97035065Y-81055073D01*
X96878303Y-81034435D01*
X96721540Y-81055073D01*
X96575460Y-81115582D01*
X96450020Y-81211834D01*
X96353768Y-81337274D01*
X96353767Y-81337275D01*
X96353767Y-81337276D01*
X96348505Y-81349979D01*
X96320180Y-81418363D01*
X96293259Y-81483355D01*
X96272621Y-81640117D01*
X96293259Y-81796879D01*
X96353767Y-81942958D01*
X96353768Y-81942959D01*
X96450020Y-82068399D01*
X96463376Y-82078647D01*
X96575462Y-82164653D01*
X96721541Y-82225161D01*
X96878303Y-82245799D01*
X97035065Y-82225161D01*
X97181144Y-82164653D01*
X97306585Y-82068399D01*
X97370742Y-81984788D01*
X97403220Y-81966036D01*
X97409616Y-81965617D01*
X99184125Y-81965617D01*
X99218773Y-81979969D01*
X101489780Y-84250976D01*
X101492668Y-84254127D01*
X101519061Y-84285581D01*
X101554618Y-84306109D01*
X101558210Y-84308398D01*
X101591833Y-84331941D01*
X101599650Y-84334035D01*
X101611464Y-84338930D01*
X101618469Y-84342974D01*
X101618471Y-84342975D01*
X101658889Y-84350101D01*
X101663059Y-84351025D01*
X101681737Y-84356030D01*
X101702709Y-84361651D01*
X101702709Y-84361650D01*
X101702710Y-84361651D01*
X101743608Y-84358073D01*
X101747879Y-84357887D01*
X103564611Y-84357887D01*
X103599259Y-84372239D01*
X103603485Y-84377058D01*
X103667641Y-84460669D01*
X103745725Y-84520584D01*
X103793083Y-84556923D01*
X103939162Y-84617431D01*
X103948825Y-84618703D01*
X103949674Y-84618815D01*
X103982152Y-84637567D01*
X103991859Y-84673792D01*
X103973107Y-84706270D01*
X103955960Y-84714726D01*
X102595904Y-85079151D01*
X102558722Y-85074256D01*
X102553393Y-85070696D01*
X102469782Y-85006539D01*
X102323703Y-84946031D01*
X102166941Y-84925393D01*
X102010178Y-84946031D01*
X101864098Y-85006540D01*
X101738658Y-85102792D01*
X101642406Y-85228232D01*
X101642405Y-85228233D01*
X101642405Y-85228234D01*
X101633931Y-85248693D01*
X101581897Y-85374312D01*
X101572033Y-85449236D01*
X101561259Y-85531075D01*
X101581897Y-85687837D01*
X101642405Y-85833916D01*
X101646935Y-85839819D01*
X101738658Y-85959357D01*
X101816742Y-86019272D01*
X101864100Y-86055611D01*
X102010179Y-86116119D01*
X102166941Y-86136757D01*
X102323703Y-86116119D01*
X102469782Y-86055611D01*
X102595223Y-85959357D01*
X102691477Y-85833916D01*
X102731807Y-85736547D01*
X102758325Y-85710029D01*
X102764383Y-85707972D01*
X104478438Y-85248693D01*
X104515619Y-85253587D01*
X105531001Y-85839819D01*
X107297048Y-86859447D01*
X107300639Y-86861734D01*
X107334266Y-86885280D01*
X107373919Y-86895904D01*
X107377972Y-86897182D01*
X107416556Y-86911226D01*
X107424649Y-86911226D01*
X107437330Y-86912895D01*
X107441812Y-86914096D01*
X107445142Y-86914989D01*
X107445142Y-86914988D01*
X107445143Y-86914989D01*
X107486030Y-86911412D01*
X107490301Y-86911226D01*
X107531342Y-86911226D01*
X107531344Y-86911226D01*
X107569941Y-86897177D01*
X107573966Y-86895909D01*
X109328828Y-86425694D01*
X109366010Y-86430589D01*
X109371339Y-86434150D01*
X109454952Y-86498308D01*
X109601031Y-86558816D01*
X109757793Y-86579454D01*
X109914555Y-86558816D01*
X110060634Y-86498308D01*
X110186075Y-86402054D01*
X110282329Y-86276613D01*
X110342837Y-86130534D01*
X110363475Y-85973772D01*
X110342837Y-85817010D01*
X110282329Y-85670931D01*
X110233392Y-85607155D01*
X110186075Y-85545489D01*
X110060635Y-85449237D01*
X110060634Y-85449236D01*
X109914555Y-85388728D01*
X109757793Y-85368090D01*
X109757792Y-85368090D01*
X109601030Y-85388728D01*
X109454950Y-85449237D01*
X109329510Y-85545489D01*
X109233258Y-85670928D01*
X109192925Y-85768298D01*
X109166406Y-85794816D01*
X109160337Y-85796876D01*
X107539541Y-86231167D01*
X107502359Y-86226272D01*
X106156494Y-85449237D01*
X104720926Y-84620411D01*
X104717348Y-84618132D01*
X104690164Y-84599097D01*
X104683714Y-84594581D01*
X104644072Y-84583959D01*
X104639997Y-84582674D01*
X104601425Y-84568636D01*
X104601424Y-84568636D01*
X104593331Y-84568636D01*
X104580649Y-84566966D01*
X104578069Y-84566275D01*
X104572836Y-84564872D01*
X104532141Y-84568433D01*
X104496374Y-84557155D01*
X104479057Y-84523889D01*
X104490335Y-84488122D01*
X104498035Y-84480750D01*
X104524206Y-84460669D01*
X104620460Y-84335228D01*
X104680968Y-84189149D01*
X104701606Y-84032387D01*
X104680968Y-83875625D01*
X104620460Y-83729546D01*
X104584121Y-83682188D01*
X104524206Y-83604104D01*
X104398766Y-83507852D01*
X104398765Y-83507851D01*
X104252686Y-83447343D01*
X104095924Y-83426705D01*
X103939161Y-83447343D01*
X103793081Y-83507852D01*
X103667641Y-83604104D01*
X103603485Y-83687716D01*
X103571007Y-83706468D01*
X103564611Y-83706887D01*
X101886639Y-83706887D01*
X101851991Y-83692535D01*
X99580971Y-81421515D01*
X99578094Y-81418376D01*
X99551702Y-81386923D01*
X99516158Y-81366401D01*
X99512553Y-81364105D01*
X99508553Y-81361304D01*
X99478931Y-81340563D01*
X99478930Y-81340562D01*
X99478929Y-81340562D01*
X99471114Y-81338468D01*
X99459297Y-81333573D01*
X99452291Y-81329528D01*
X99412061Y-81322434D01*
X99380432Y-81302283D01*
X99372316Y-81265669D01*
X99392467Y-81234040D01*
X99401807Y-81228915D01*
X99432288Y-81216290D01*
X99557729Y-81120036D01*
X99653983Y-80994595D01*
X99714491Y-80848516D01*
X99735129Y-80691754D01*
X99714491Y-80534992D01*
X99653983Y-80388913D01*
X99611074Y-80332993D01*
X99557729Y-80263471D01*
X99432289Y-80167219D01*
X99432288Y-80167218D01*
X99286209Y-80106710D01*
X99129447Y-80086072D01*
X99129446Y-80086072D01*
X98972684Y-80106710D01*
X98826604Y-80167219D01*
X98742991Y-80231375D01*
X98706766Y-80241081D01*
X98700481Y-80239830D01*
X97132200Y-79819610D01*
X97079685Y-79805538D01*
X97049934Y-79782710D01*
X96487048Y-78807763D01*
X102285788Y-78807763D01*
X102315413Y-79077015D01*
X102383928Y-79339089D01*
X102489870Y-79588390D01*
X102622394Y-79805539D01*
X102630982Y-79819610D01*
X102804255Y-80027820D01*
X103005998Y-80208582D01*
X103231910Y-80358044D01*
X103477176Y-80473020D01*
X103622624Y-80516779D01*
X103736565Y-80551059D01*
X103736566Y-80551059D01*
X103736569Y-80551060D01*
X104004561Y-80590500D01*
X104206739Y-80590500D01*
X104207631Y-80590500D01*
X104410156Y-80575677D01*
X104674553Y-80516780D01*
X104927558Y-80420014D01*
X105163777Y-80287441D01*
X105378177Y-80121888D01*
X105566186Y-79926881D01*
X105723799Y-79706579D01*
X105847656Y-79465675D01*
X105857631Y-79436434D01*
X105935117Y-79209309D01*
X105955397Y-79099516D01*
X105984319Y-78942933D01*
X105994212Y-78672235D01*
X105964586Y-78402982D01*
X105896072Y-78140912D01*
X105790130Y-77891610D01*
X105649018Y-77660390D01*
X105475745Y-77452180D01*
X105274002Y-77271418D01*
X105048090Y-77121956D01*
X105048087Y-77121954D01*
X104802822Y-77006979D01*
X104543434Y-76928940D01*
X104324267Y-76896686D01*
X104275439Y-76889500D01*
X104275438Y-76889500D01*
X104073261Y-76889500D01*
X104072369Y-76889500D01*
X104071486Y-76889564D01*
X104071475Y-76889565D01*
X103869847Y-76904322D01*
X103605445Y-76963220D01*
X103352440Y-77059986D01*
X103116220Y-77192560D01*
X102901826Y-77358109D01*
X102713813Y-77553120D01*
X102556202Y-77773418D01*
X102432341Y-78014330D01*
X102344882Y-78270690D01*
X102295680Y-78537069D01*
X102285788Y-78807763D01*
X96487048Y-78807763D01*
X95444075Y-77001282D01*
X95442114Y-76997516D01*
X95424762Y-76960301D01*
X95395733Y-76931272D01*
X95392856Y-76928133D01*
X95366469Y-76896686D01*
X95359462Y-76892640D01*
X95349317Y-76884856D01*
X95343594Y-76879133D01*
X95343592Y-76879132D01*
X95343591Y-76879131D01*
X95306573Y-76861869D01*
X95281236Y-76834219D01*
X95282872Y-76796752D01*
X95305777Y-76775763D01*
X112445788Y-76775763D01*
X112475413Y-77045015D01*
X112543928Y-77307089D01*
X112649870Y-77556390D01*
X112782322Y-77773421D01*
X112790982Y-77787610D01*
X112964255Y-77995820D01*
X113165998Y-78176582D01*
X113391910Y-78326044D01*
X113391912Y-78326045D01*
X113411260Y-78335115D01*
X113637176Y-78441020D01*
X113782624Y-78484779D01*
X113896565Y-78519059D01*
X113896566Y-78519059D01*
X113896569Y-78519060D01*
X114164561Y-78558500D01*
X114366739Y-78558500D01*
X114367631Y-78558500D01*
X114570156Y-78543677D01*
X114834553Y-78484780D01*
X115087558Y-78388014D01*
X115323777Y-78255441D01*
X115538177Y-78089888D01*
X115726186Y-77894881D01*
X115883799Y-77674579D01*
X116007656Y-77433675D01*
X116033436Y-77358109D01*
X116095117Y-77177309D01*
X116105341Y-77121956D01*
X116144319Y-76910933D01*
X116154212Y-76640235D01*
X116124586Y-76370982D01*
X116056072Y-76108912D01*
X115950130Y-75859610D01*
X115809018Y-75628390D01*
X115635745Y-75420180D01*
X115434002Y-75239418D01*
X115208090Y-75089956D01*
X115208087Y-75089954D01*
X114962822Y-74974979D01*
X114703434Y-74896940D01*
X114502436Y-74867360D01*
X114435439Y-74857500D01*
X114435438Y-74857500D01*
X114233261Y-74857500D01*
X114232369Y-74857500D01*
X114231486Y-74857564D01*
X114231475Y-74857565D01*
X114029847Y-74872322D01*
X113765445Y-74931220D01*
X113512440Y-75027986D01*
X113276220Y-75160560D01*
X113061826Y-75326109D01*
X112873813Y-75521120D01*
X112716202Y-75741418D01*
X112592341Y-75982330D01*
X112504882Y-76238690D01*
X112455680Y-76505069D01*
X112445788Y-76775763D01*
X95305777Y-76775763D01*
X95310522Y-76771415D01*
X95320884Y-76768879D01*
X95353580Y-76764575D01*
X95499659Y-76704067D01*
X95625100Y-76607813D01*
X95721354Y-76482372D01*
X95781862Y-76336293D01*
X95802500Y-76179531D01*
X95781862Y-76022769D01*
X95721354Y-75876690D01*
X95685015Y-75829332D01*
X95625100Y-75751248D01*
X95499660Y-75654996D01*
X95499659Y-75654995D01*
X95353580Y-75594487D01*
X95196818Y-75573849D01*
X95040054Y-75594487D01*
X94942687Y-75634817D01*
X94905184Y-75634817D01*
X94899436Y-75631982D01*
X93761473Y-74974979D01*
X93446268Y-74792995D01*
X93423440Y-74763244D01*
X93360875Y-74529750D01*
X100549499Y-74529750D01*
X100561132Y-74588229D01*
X100605447Y-74654552D01*
X100638608Y-74676709D01*
X100671769Y-74698867D01*
X100686389Y-74701775D01*
X100730249Y-74710500D01*
X102469748Y-74710500D01*
X102469751Y-74710500D01*
X102504837Y-74703520D01*
X102528231Y-74698867D01*
X102594552Y-74654552D01*
X102638867Y-74588231D01*
X102650500Y-74529748D01*
X102650500Y-72790252D01*
X102650500Y-72790251D01*
X102650500Y-72790249D01*
X102638867Y-72731770D01*
X102638867Y-72731769D01*
X102616709Y-72698608D01*
X102594552Y-72665447D01*
X102544923Y-72632286D01*
X102528231Y-72621133D01*
X102528230Y-72621132D01*
X102528229Y-72621132D01*
X102469751Y-72609500D01*
X102469748Y-72609500D01*
X100730252Y-72609500D01*
X100730249Y-72609500D01*
X100671770Y-72621132D01*
X100605447Y-72665447D01*
X100561132Y-72731770D01*
X100549499Y-72790249D01*
X100549499Y-74529750D01*
X93360875Y-74529750D01*
X92592186Y-71660966D01*
X92591265Y-71656814D01*
X92584137Y-71616381D01*
X92563614Y-71580834D01*
X92561640Y-71577042D01*
X92544297Y-71539848D01*
X92544296Y-71539847D01*
X92538572Y-71534123D01*
X92530790Y-71523981D01*
X92526743Y-71516971D01*
X92495450Y-71490713D01*
X92478133Y-71457447D01*
X92489411Y-71421680D01*
X92522677Y-71404363D01*
X92533338Y-71404595D01*
X92566039Y-71408901D01*
X92722801Y-71388263D01*
X92868880Y-71327755D01*
X92994321Y-71231501D01*
X93090575Y-71106060D01*
X93151083Y-70959981D01*
X93171721Y-70803219D01*
X93151083Y-70646457D01*
X93090575Y-70500378D01*
X92994639Y-70375351D01*
X92994321Y-70374936D01*
X92868881Y-70278684D01*
X92868880Y-70278683D01*
X92722801Y-70218175D01*
X92566039Y-70197537D01*
X92566038Y-70197537D01*
X92461550Y-70211293D01*
X92425325Y-70201586D01*
X92420506Y-70197360D01*
X91234002Y-69010855D01*
X91219650Y-68976207D01*
X91219650Y-68580000D01*
X100544417Y-68580000D01*
X100564699Y-68785934D01*
X100622418Y-68976207D01*
X100624768Y-68983954D01*
X100722315Y-69166450D01*
X100853590Y-69326410D01*
X101013550Y-69457685D01*
X101196046Y-69555232D01*
X101295055Y-69585265D01*
X101394065Y-69615300D01*
X101412529Y-69617118D01*
X101600000Y-69635583D01*
X101805934Y-69615300D01*
X102003954Y-69555232D01*
X102186450Y-69457685D01*
X102346410Y-69326410D01*
X102477685Y-69166450D01*
X102575232Y-68983954D01*
X102635300Y-68785934D01*
X102655583Y-68580000D01*
X102635300Y-68374066D01*
X102626497Y-68345047D01*
X102605265Y-68275056D01*
X102575232Y-68176046D01*
X102477685Y-67993550D01*
X102346410Y-67833590D01*
X102186450Y-67702315D01*
X102003954Y-67604768D01*
X102003953Y-67604767D01*
X102003952Y-67604767D01*
X101805934Y-67544699D01*
X101600000Y-67524417D01*
X101394065Y-67544699D01*
X101196047Y-67604767D01*
X101013550Y-67702315D01*
X100853590Y-67833590D01*
X100722315Y-67993550D01*
X100624767Y-68176047D01*
X100564699Y-68374065D01*
X100544417Y-68580000D01*
X91219650Y-68580000D01*
X91219650Y-67372126D01*
X91219650Y-66040000D01*
X100544417Y-66040000D01*
X100564699Y-66245934D01*
X100624767Y-66443952D01*
X100624768Y-66443954D01*
X100722315Y-66626450D01*
X100853590Y-66786410D01*
X101013550Y-66917685D01*
X101196046Y-67015232D01*
X101295055Y-67045265D01*
X101394065Y-67075300D01*
X101412529Y-67077118D01*
X101600000Y-67095583D01*
X101805934Y-67075300D01*
X102003954Y-67015232D01*
X102186450Y-66917685D01*
X102346410Y-66786410D01*
X102477685Y-66626450D01*
X102575232Y-66443954D01*
X102635300Y-66245934D01*
X102655583Y-66040000D01*
X102635300Y-65834066D01*
X102575232Y-65636046D01*
X102477685Y-65453550D01*
X102346410Y-65293590D01*
X102186450Y-65162315D01*
X102003954Y-65064768D01*
X102003953Y-65064767D01*
X102003952Y-65064767D01*
X101805934Y-65004699D01*
X101600000Y-64984417D01*
X101394065Y-65004699D01*
X101196047Y-65064767D01*
X101013550Y-65162315D01*
X100853590Y-65293590D01*
X100722315Y-65453550D01*
X100624767Y-65636047D01*
X100564699Y-65834065D01*
X100544417Y-66040000D01*
X91219650Y-66040000D01*
X91219650Y-65764485D01*
X91219836Y-65760236D01*
X91223414Y-65719343D01*
X91212790Y-65679695D01*
X91211864Y-65675521D01*
X91204738Y-65635105D01*
X91200692Y-65628097D01*
X91195797Y-65616278D01*
X91193704Y-65608466D01*
X91170272Y-65575002D01*
X91162155Y-65538390D01*
X91182305Y-65506760D01*
X91218919Y-65498642D01*
X91229160Y-65501627D01*
X91259632Y-65514249D01*
X91416394Y-65534887D01*
X91573156Y-65514249D01*
X91719235Y-65453741D01*
X91844676Y-65357487D01*
X91940930Y-65232046D01*
X92001438Y-65085967D01*
X92022076Y-64929205D01*
X92001438Y-64772443D01*
X91940930Y-64626364D01*
X91886617Y-64555582D01*
X91844676Y-64500922D01*
X91719236Y-64404670D01*
X91719235Y-64404669D01*
X91654088Y-64377684D01*
X91573156Y-64344160D01*
X91468667Y-64330404D01*
X91436188Y-64311652D01*
X91432628Y-64306323D01*
X91350700Y-64164420D01*
X90967097Y-63500000D01*
X100544417Y-63500000D01*
X100564699Y-63705934D01*
X100624767Y-63903952D01*
X100624768Y-63903954D01*
X100722315Y-64086450D01*
X100853590Y-64246410D01*
X101013550Y-64377685D01*
X101196046Y-64475232D01*
X101280736Y-64500922D01*
X101394065Y-64535300D01*
X101412529Y-64537118D01*
X101600000Y-64555583D01*
X101805934Y-64535300D01*
X102003954Y-64475232D01*
X102186450Y-64377685D01*
X102346410Y-64246410D01*
X102477685Y-64086450D01*
X102575232Y-63903954D01*
X102635300Y-63705934D01*
X102655583Y-63500000D01*
X102637118Y-63312529D01*
X102635300Y-63294065D01*
X102575232Y-63096047D01*
X102575232Y-63096046D01*
X102477685Y-62913550D01*
X102346410Y-62753590D01*
X102186450Y-62622315D01*
X102003954Y-62524768D01*
X102003953Y-62524767D01*
X102003952Y-62524767D01*
X101805934Y-62464699D01*
X101600000Y-62444417D01*
X101394065Y-62464699D01*
X101196047Y-62524767D01*
X101013550Y-62622315D01*
X100853590Y-62753590D01*
X100722315Y-62913550D01*
X100624767Y-63096047D01*
X100564699Y-63294065D01*
X100544417Y-63500000D01*
X90967097Y-63500000D01*
X90593641Y-62853155D01*
X90588747Y-62815974D01*
X90622727Y-62689159D01*
X91086053Y-60960000D01*
X100544417Y-60960000D01*
X100564699Y-61165934D01*
X100624767Y-61363952D01*
X100624768Y-61363954D01*
X100722315Y-61546450D01*
X100853590Y-61706410D01*
X101013550Y-61837685D01*
X101196046Y-61935232D01*
X101295055Y-61965265D01*
X101394065Y-61995300D01*
X101412529Y-61997118D01*
X101600000Y-62015583D01*
X101805934Y-61995300D01*
X102003954Y-61935232D01*
X102186450Y-61837685D01*
X102346410Y-61706410D01*
X102477685Y-61546450D01*
X102575232Y-61363954D01*
X102593338Y-61304266D01*
X106599500Y-61304266D01*
X106599604Y-61305376D01*
X106599605Y-61305395D01*
X106602354Y-61334699D01*
X106647207Y-61462883D01*
X106727849Y-61572150D01*
X106837116Y-61652792D01*
X106837117Y-61652792D01*
X106837118Y-61652793D01*
X106965301Y-61697646D01*
X106995734Y-61700500D01*
X107603130Y-61700500D01*
X107604266Y-61700500D01*
X107634699Y-61697646D01*
X107762882Y-61652793D01*
X107872150Y-61572150D01*
X107952793Y-61462882D01*
X107997646Y-61334699D01*
X108000500Y-61304266D01*
X110599500Y-61304266D01*
X110599604Y-61305376D01*
X110599605Y-61305395D01*
X110602354Y-61334699D01*
X110647207Y-61462883D01*
X110727849Y-61572150D01*
X110837116Y-61652792D01*
X110837117Y-61652792D01*
X110837118Y-61652793D01*
X110965301Y-61697646D01*
X110995734Y-61700500D01*
X111603130Y-61700500D01*
X111604266Y-61700500D01*
X111634699Y-61697646D01*
X111762882Y-61652793D01*
X111872150Y-61572150D01*
X111952793Y-61462882D01*
X111997646Y-61334699D01*
X112000500Y-61304266D01*
X112599500Y-61304266D01*
X112599604Y-61305376D01*
X112599605Y-61305395D01*
X112602354Y-61334699D01*
X112647207Y-61462883D01*
X112727849Y-61572150D01*
X112837116Y-61652792D01*
X112837117Y-61652792D01*
X112837118Y-61652793D01*
X112965301Y-61697646D01*
X112995734Y-61700500D01*
X113603130Y-61700500D01*
X113604266Y-61700500D01*
X113634699Y-61697646D01*
X113762882Y-61652793D01*
X113872150Y-61572150D01*
X113952793Y-61462882D01*
X113997646Y-61334699D01*
X114000500Y-61304266D01*
X114599500Y-61304266D01*
X114599604Y-61305376D01*
X114599605Y-61305395D01*
X114602354Y-61334699D01*
X114647207Y-61462883D01*
X114727849Y-61572150D01*
X114837116Y-61652792D01*
X114837117Y-61652792D01*
X114837118Y-61652793D01*
X114965301Y-61697646D01*
X114995734Y-61700500D01*
X115603130Y-61700500D01*
X115604266Y-61700500D01*
X115634699Y-61697646D01*
X115762882Y-61652793D01*
X115872150Y-61572150D01*
X115952793Y-61462882D01*
X115997646Y-61334699D01*
X116000500Y-61304266D01*
X116599500Y-61304266D01*
X116599604Y-61305376D01*
X116599605Y-61305395D01*
X116602354Y-61334699D01*
X116647207Y-61462883D01*
X116727849Y-61572150D01*
X116837116Y-61652792D01*
X116837117Y-61652792D01*
X116837118Y-61652793D01*
X116965301Y-61697646D01*
X116995734Y-61700500D01*
X117603130Y-61700500D01*
X117604266Y-61700500D01*
X117634699Y-61697646D01*
X117762882Y-61652793D01*
X117872150Y-61572150D01*
X117952793Y-61462882D01*
X117997646Y-61334699D01*
X118000500Y-61304266D01*
X118599500Y-61304266D01*
X118599604Y-61305376D01*
X118599605Y-61305395D01*
X118602354Y-61334699D01*
X118647207Y-61462883D01*
X118727849Y-61572150D01*
X118837116Y-61652792D01*
X118837117Y-61652792D01*
X118837118Y-61652793D01*
X118965301Y-61697646D01*
X118995734Y-61700500D01*
X119603130Y-61700500D01*
X119604266Y-61700500D01*
X119634699Y-61697646D01*
X119762882Y-61652793D01*
X119872150Y-61572150D01*
X119952793Y-61462882D01*
X119997646Y-61334699D01*
X120000500Y-61304266D01*
X120599500Y-61304266D01*
X120599604Y-61305376D01*
X120599605Y-61305395D01*
X120602354Y-61334699D01*
X120647207Y-61462883D01*
X120727849Y-61572150D01*
X120837116Y-61652792D01*
X120837117Y-61652792D01*
X120837118Y-61652793D01*
X120965301Y-61697646D01*
X120995734Y-61700500D01*
X121603130Y-61700500D01*
X121604266Y-61700500D01*
X121634699Y-61697646D01*
X121762882Y-61652793D01*
X121872150Y-61572150D01*
X121952793Y-61462882D01*
X121997646Y-61334699D01*
X122000500Y-61304266D01*
X122000500Y-58795734D01*
X121997646Y-58765301D01*
X121952793Y-58637118D01*
X121904245Y-58571337D01*
X121872150Y-58527849D01*
X121762883Y-58447207D01*
X121634699Y-58402354D01*
X121605395Y-58399605D01*
X121605376Y-58399604D01*
X121604266Y-58399500D01*
X121603130Y-58399500D01*
X120996870Y-58399500D01*
X120995734Y-58399500D01*
X120994624Y-58399604D01*
X120994604Y-58399605D01*
X120965300Y-58402354D01*
X120837116Y-58447207D01*
X120727849Y-58527849D01*
X120647207Y-58637116D01*
X120602354Y-58765300D01*
X120599605Y-58794604D01*
X120599604Y-58794624D01*
X120599500Y-58795734D01*
X120599500Y-61304266D01*
X120000500Y-61304266D01*
X120000500Y-58795734D01*
X119997646Y-58765301D01*
X119952793Y-58637118D01*
X119904245Y-58571337D01*
X119872150Y-58527849D01*
X119762883Y-58447207D01*
X119634699Y-58402354D01*
X119605395Y-58399605D01*
X119605376Y-58399604D01*
X119604266Y-58399500D01*
X119603130Y-58399500D01*
X118996870Y-58399500D01*
X118995734Y-58399500D01*
X118994624Y-58399604D01*
X118994604Y-58399605D01*
X118965300Y-58402354D01*
X118837116Y-58447207D01*
X118727849Y-58527849D01*
X118647207Y-58637116D01*
X118602354Y-58765300D01*
X118599605Y-58794604D01*
X118599604Y-58794624D01*
X118599500Y-58795734D01*
X118599500Y-61304266D01*
X118000500Y-61304266D01*
X118000500Y-58795734D01*
X117997646Y-58765301D01*
X117952793Y-58637118D01*
X117904245Y-58571337D01*
X117872150Y-58527849D01*
X117762883Y-58447207D01*
X117634699Y-58402354D01*
X117605395Y-58399605D01*
X117605376Y-58399604D01*
X117604266Y-58399500D01*
X117603130Y-58399500D01*
X116996870Y-58399500D01*
X116995734Y-58399500D01*
X116994624Y-58399604D01*
X116994604Y-58399605D01*
X116965300Y-58402354D01*
X116837116Y-58447207D01*
X116727849Y-58527849D01*
X116647207Y-58637116D01*
X116602354Y-58765300D01*
X116599605Y-58794604D01*
X116599604Y-58794624D01*
X116599500Y-58795734D01*
X116599500Y-61304266D01*
X116000500Y-61304266D01*
X116000500Y-58795734D01*
X115997646Y-58765301D01*
X115952793Y-58637118D01*
X115904245Y-58571337D01*
X115872150Y-58527849D01*
X115762883Y-58447207D01*
X115634699Y-58402354D01*
X115605395Y-58399605D01*
X115605376Y-58399604D01*
X115604266Y-58399500D01*
X115603130Y-58399500D01*
X114996870Y-58399500D01*
X114995734Y-58399500D01*
X114994624Y-58399604D01*
X114994604Y-58399605D01*
X114965300Y-58402354D01*
X114837116Y-58447207D01*
X114727849Y-58527849D01*
X114647207Y-58637116D01*
X114602354Y-58765300D01*
X114599605Y-58794604D01*
X114599604Y-58794624D01*
X114599500Y-58795734D01*
X114599500Y-61304266D01*
X114000500Y-61304266D01*
X114000500Y-58795734D01*
X113997646Y-58765301D01*
X113952793Y-58637118D01*
X113904245Y-58571337D01*
X113872150Y-58527849D01*
X113762883Y-58447207D01*
X113634699Y-58402354D01*
X113605395Y-58399605D01*
X113605376Y-58399604D01*
X113604266Y-58399500D01*
X113603130Y-58399500D01*
X112996870Y-58399500D01*
X112995734Y-58399500D01*
X112994624Y-58399604D01*
X112994604Y-58399605D01*
X112965300Y-58402354D01*
X112837116Y-58447207D01*
X112727849Y-58527849D01*
X112647207Y-58637116D01*
X112602354Y-58765300D01*
X112599605Y-58794604D01*
X112599604Y-58794624D01*
X112599500Y-58795734D01*
X112599500Y-61304266D01*
X112000500Y-61304266D01*
X112000500Y-58795734D01*
X111997646Y-58765301D01*
X111952793Y-58637118D01*
X111904245Y-58571337D01*
X111872150Y-58527849D01*
X111762883Y-58447207D01*
X111634699Y-58402354D01*
X111605395Y-58399605D01*
X111605376Y-58399604D01*
X111604266Y-58399500D01*
X111603130Y-58399500D01*
X110996870Y-58399500D01*
X110995734Y-58399500D01*
X110994624Y-58399604D01*
X110994604Y-58399605D01*
X110965300Y-58402354D01*
X110837116Y-58447207D01*
X110727849Y-58527849D01*
X110647207Y-58637116D01*
X110602354Y-58765300D01*
X110599605Y-58794604D01*
X110599604Y-58794624D01*
X110599500Y-58795734D01*
X110599500Y-61304266D01*
X108000500Y-61304266D01*
X108000500Y-58795734D01*
X107997646Y-58765301D01*
X107952793Y-58637118D01*
X107904245Y-58571337D01*
X107872150Y-58527849D01*
X107762883Y-58447207D01*
X107634699Y-58402354D01*
X107605395Y-58399605D01*
X107605376Y-58399604D01*
X107604266Y-58399500D01*
X107603130Y-58399500D01*
X106996870Y-58399500D01*
X106995734Y-58399500D01*
X106994624Y-58399604D01*
X106994604Y-58399605D01*
X106965300Y-58402354D01*
X106837116Y-58447207D01*
X106727849Y-58527849D01*
X106647207Y-58637116D01*
X106602354Y-58765300D01*
X106599605Y-58794604D01*
X106599604Y-58794624D01*
X106599500Y-58795734D01*
X106599500Y-61304266D01*
X102593338Y-61304266D01*
X102635300Y-61165934D01*
X102655583Y-60960000D01*
X102635300Y-60754066D01*
X102575232Y-60556046D01*
X102477685Y-60373550D01*
X102346410Y-60213590D01*
X102186450Y-60082315D01*
X102003954Y-59984768D01*
X102003953Y-59984767D01*
X102003952Y-59984767D01*
X101805934Y-59924699D01*
X101600000Y-59904417D01*
X101394065Y-59924699D01*
X101196047Y-59984767D01*
X101013550Y-60082315D01*
X100853590Y-60213590D01*
X100722315Y-60373550D01*
X100624767Y-60556047D01*
X100564699Y-60754065D01*
X100544417Y-60960000D01*
X91086053Y-60960000D01*
X91420002Y-59713685D01*
X91421276Y-59709643D01*
X91435321Y-59671061D01*
X91435321Y-59630016D01*
X91435507Y-59625746D01*
X91439084Y-59584857D01*
X91436991Y-59577047D01*
X91435321Y-59564364D01*
X91435321Y-59556274D01*
X91430430Y-59542836D01*
X91421348Y-59517884D01*
X91422984Y-59480418D01*
X91450633Y-59455081D01*
X91488101Y-59456717D01*
X91497222Y-59462252D01*
X91523387Y-59482329D01*
X91669466Y-59542837D01*
X91826228Y-59563475D01*
X91982990Y-59542837D01*
X92129069Y-59482329D01*
X92254510Y-59386075D01*
X92350764Y-59260634D01*
X92411272Y-59114555D01*
X92431910Y-58957793D01*
X92411272Y-58801031D01*
X92350764Y-58654952D01*
X92282516Y-58566009D01*
X92254510Y-58529510D01*
X92129071Y-58433258D01*
X92097064Y-58420000D01*
X92097062Y-58419999D01*
X100544417Y-58419999D01*
X100564699Y-58625934D01*
X100617814Y-58801030D01*
X100624768Y-58823954D01*
X100722315Y-59006450D01*
X100853590Y-59166410D01*
X101013550Y-59297685D01*
X101196046Y-59395232D01*
X101295056Y-59425265D01*
X101394065Y-59455300D01*
X101408453Y-59456717D01*
X101600000Y-59475583D01*
X101805934Y-59455300D01*
X102003954Y-59395232D01*
X102186450Y-59297685D01*
X102346410Y-59166410D01*
X102477685Y-59006450D01*
X102575232Y-58823954D01*
X102635300Y-58625934D01*
X102655583Y-58420000D01*
X102635300Y-58214066D01*
X102575232Y-58016046D01*
X102477685Y-57833550D01*
X102346410Y-57673590D01*
X102186450Y-57542315D01*
X102003954Y-57444768D01*
X102003953Y-57444767D01*
X102003952Y-57444767D01*
X101805934Y-57384699D01*
X101600000Y-57364417D01*
X101394065Y-57384699D01*
X101196047Y-57444767D01*
X101013550Y-57542315D01*
X100853590Y-57673590D01*
X100722315Y-57833550D01*
X100624767Y-58016047D01*
X100564699Y-58214065D01*
X100544417Y-58419999D01*
X92097062Y-58419999D01*
X92031699Y-58392924D01*
X92005182Y-58366406D01*
X92003125Y-58360347D01*
X91580161Y-56781824D01*
X91568831Y-56739541D01*
X91573725Y-56702360D01*
X92048515Y-55879999D01*
X100544417Y-55879999D01*
X100564699Y-56085934D01*
X100624767Y-56283952D01*
X100624768Y-56283954D01*
X100722315Y-56466450D01*
X100853590Y-56626410D01*
X101013550Y-56757685D01*
X101196046Y-56855232D01*
X101266966Y-56876745D01*
X101394065Y-56915300D01*
X101412529Y-56917118D01*
X101600000Y-56935583D01*
X101805934Y-56915300D01*
X102003954Y-56855232D01*
X102186450Y-56757685D01*
X102346410Y-56626410D01*
X102477685Y-56466450D01*
X102575232Y-56283954D01*
X102635300Y-56085934D01*
X102655583Y-55880000D01*
X102635300Y-55674066D01*
X102611508Y-55595635D01*
X102575232Y-55476047D01*
X102575232Y-55476046D01*
X102477685Y-55293550D01*
X102346410Y-55133590D01*
X102186450Y-55002315D01*
X102003954Y-54904768D01*
X102003953Y-54904767D01*
X102003952Y-54904767D01*
X101805934Y-54844699D01*
X101600000Y-54824417D01*
X101394065Y-54844699D01*
X101196047Y-54904767D01*
X101013550Y-55002315D01*
X100853590Y-55133590D01*
X100722315Y-55293550D01*
X100624767Y-55476047D01*
X100564699Y-55674065D01*
X100544417Y-55879999D01*
X92048515Y-55879999D01*
X93179588Y-53920923D01*
X93181856Y-53917362D01*
X93205418Y-53883715D01*
X93216045Y-53844050D01*
X93217318Y-53840011D01*
X93231364Y-53801424D01*
X93231364Y-53793331D01*
X93233034Y-53780647D01*
X93235127Y-53772837D01*
X93231566Y-53732142D01*
X93242843Y-53696375D01*
X93276109Y-53679058D01*
X93311876Y-53690334D01*
X93319253Y-53698040D01*
X93319255Y-53698043D01*
X93339332Y-53724207D01*
X93365067Y-53743954D01*
X93464772Y-53820460D01*
X93610851Y-53880968D01*
X93767613Y-53901606D01*
X93924375Y-53880968D01*
X94070454Y-53820460D01*
X94195895Y-53724206D01*
X94292149Y-53598765D01*
X94352657Y-53452686D01*
X94367492Y-53339999D01*
X100544417Y-53339999D01*
X100564699Y-53545934D01*
X100624767Y-53743952D01*
X100624768Y-53743954D01*
X100722315Y-53926450D01*
X100853590Y-54086410D01*
X101013550Y-54217685D01*
X101196046Y-54315232D01*
X101295056Y-54345266D01*
X101394065Y-54375300D01*
X101412529Y-54377118D01*
X101600000Y-54395583D01*
X101805934Y-54375300D01*
X102003954Y-54315232D01*
X102186450Y-54217685D01*
X102346410Y-54086410D01*
X102477685Y-53926450D01*
X102575232Y-53743954D01*
X102635300Y-53545934D01*
X102655583Y-53340000D01*
X102635300Y-53134066D01*
X102575232Y-52936046D01*
X102477685Y-52753550D01*
X102346410Y-52593590D01*
X102186450Y-52462315D01*
X102003954Y-52364768D01*
X102003953Y-52364767D01*
X102003952Y-52364767D01*
X101805934Y-52304699D01*
X101600000Y-52284417D01*
X101394065Y-52304699D01*
X101196047Y-52364767D01*
X101013550Y-52462315D01*
X100853590Y-52593590D01*
X100722315Y-52753550D01*
X100624767Y-52936047D01*
X100564699Y-53134065D01*
X100544417Y-53339999D01*
X94367492Y-53339999D01*
X94373295Y-53295924D01*
X94352657Y-53139162D01*
X94292149Y-52993083D01*
X94195895Y-52867642D01*
X94112282Y-52803483D01*
X94093532Y-52771005D01*
X94093113Y-52764610D01*
X94093113Y-51086638D01*
X94107465Y-51051990D01*
X94799690Y-50359765D01*
X112445788Y-50359765D01*
X112449356Y-50392188D01*
X112475413Y-50629015D01*
X112543928Y-50891089D01*
X112649870Y-51140390D01*
X112788788Y-51368016D01*
X112790982Y-51371610D01*
X112964255Y-51579820D01*
X113165998Y-51760582D01*
X113391910Y-51910044D01*
X113637176Y-52025020D01*
X113782624Y-52068779D01*
X113896565Y-52103059D01*
X113896566Y-52103059D01*
X113896569Y-52103060D01*
X114164561Y-52142500D01*
X114366739Y-52142500D01*
X114367631Y-52142500D01*
X114570156Y-52127677D01*
X114834553Y-52068780D01*
X115087558Y-51972014D01*
X115323777Y-51839441D01*
X115538177Y-51673888D01*
X115726186Y-51478881D01*
X115883799Y-51258579D01*
X116007656Y-51017675D01*
X116046877Y-50902710D01*
X116095117Y-50761309D01*
X116095688Y-50758217D01*
X116144319Y-50494933D01*
X116154212Y-50224235D01*
X116124586Y-49954982D01*
X116056072Y-49692912D01*
X115950130Y-49443610D01*
X115809018Y-49212390D01*
X115635745Y-49004180D01*
X115434002Y-48823418D01*
X115208090Y-48673956D01*
X115208087Y-48673954D01*
X114962822Y-48558979D01*
X114703434Y-48480940D01*
X114502436Y-48451360D01*
X114435439Y-48441500D01*
X114435438Y-48441500D01*
X114233261Y-48441500D01*
X114232369Y-48441500D01*
X114231486Y-48441564D01*
X114231475Y-48441565D01*
X114029847Y-48456322D01*
X113765445Y-48515220D01*
X113512440Y-48611986D01*
X113276220Y-48744560D01*
X113061826Y-48910109D01*
X112873813Y-49105120D01*
X112716202Y-49325418D01*
X112592341Y-49566330D01*
X112504882Y-49822690D01*
X112455680Y-50089069D01*
X112447350Y-50317026D01*
X112445788Y-50359765D01*
X94799690Y-50359765D01*
X95219442Y-49940013D01*
X96378488Y-48780966D01*
X96381630Y-48778088D01*
X96413077Y-48751702D01*
X96433612Y-48716132D01*
X96435876Y-48712577D01*
X96459437Y-48678931D01*
X96461531Y-48671112D01*
X96466424Y-48659299D01*
X96470471Y-48652292D01*
X96477564Y-48612060D01*
X96497713Y-48580433D01*
X96534327Y-48572315D01*
X96565957Y-48592465D01*
X96571089Y-48601818D01*
X96583711Y-48632290D01*
X96679963Y-48757729D01*
X96706496Y-48778088D01*
X96805405Y-48853983D01*
X96951484Y-48914491D01*
X97108246Y-48935129D01*
X97265008Y-48914491D01*
X97411087Y-48853983D01*
X97536528Y-48757729D01*
X97632782Y-48632288D01*
X97693290Y-48486209D01*
X97713928Y-48329447D01*
X97713706Y-48327763D01*
X102285788Y-48327763D01*
X102315413Y-48597015D01*
X102383928Y-48859089D01*
X102489870Y-49108390D01*
X102622322Y-49325421D01*
X102630982Y-49339610D01*
X102804255Y-49547820D01*
X103005998Y-49728582D01*
X103231910Y-49878044D01*
X103477176Y-49993020D01*
X103589057Y-50026680D01*
X103736565Y-50071059D01*
X103736566Y-50071059D01*
X103736569Y-50071060D01*
X104004561Y-50110500D01*
X104206739Y-50110500D01*
X104207631Y-50110500D01*
X104410156Y-50095677D01*
X104674553Y-50036780D01*
X104927558Y-49940014D01*
X105163777Y-49807441D01*
X105378177Y-49641888D01*
X105566186Y-49446881D01*
X105723799Y-49226579D01*
X105847656Y-48985675D01*
X105873436Y-48910109D01*
X105935117Y-48729309D01*
X105935118Y-48729305D01*
X105984319Y-48462933D01*
X105994212Y-48192235D01*
X105964586Y-47922982D01*
X105896072Y-47660912D01*
X105790130Y-47411610D01*
X105649018Y-47180390D01*
X105475745Y-46972180D01*
X105274002Y-46791418D01*
X105048090Y-46641956D01*
X105048087Y-46641954D01*
X104802822Y-46526979D01*
X104543434Y-46448940D01*
X104342436Y-46419360D01*
X104275439Y-46409500D01*
X104275438Y-46409500D01*
X104073261Y-46409500D01*
X104072369Y-46409500D01*
X104071486Y-46409564D01*
X104071475Y-46409565D01*
X103869847Y-46424322D01*
X103605445Y-46483220D01*
X103352440Y-46579986D01*
X103116220Y-46712560D01*
X102901826Y-46878109D01*
X102713813Y-47073120D01*
X102556202Y-47293418D01*
X102432341Y-47534330D01*
X102344882Y-47790690D01*
X102295680Y-48057069D01*
X102285788Y-48327763D01*
X97713706Y-48327763D01*
X97693290Y-48172685D01*
X97632782Y-48026606D01*
X97568624Y-47942993D01*
X97558917Y-47906768D01*
X97560168Y-47900482D01*
X97585776Y-47804911D01*
X97994460Y-46279683D01*
X98017286Y-46249935D01*
X100798729Y-44644068D01*
X100802487Y-44642112D01*
X100839699Y-44624761D01*
X100868719Y-44595739D01*
X100871859Y-44592861D01*
X100903314Y-44566469D01*
X100907359Y-44559460D01*
X100915148Y-44549311D01*
X100920867Y-44543593D01*
X100938131Y-44506568D01*
X100965779Y-44481233D01*
X101003246Y-44482867D01*
X101028583Y-44510517D01*
X101031120Y-44520881D01*
X101035425Y-44553580D01*
X101095933Y-44699659D01*
X101095934Y-44699660D01*
X101192186Y-44825100D01*
X101205542Y-44835348D01*
X101317628Y-44921354D01*
X101463707Y-44981862D01*
X101620469Y-45002500D01*
X101777231Y-44981862D01*
X101923310Y-44921354D01*
X102048751Y-44825100D01*
X102145005Y-44699659D01*
X102205513Y-44553580D01*
X102226151Y-44396818D01*
X102205513Y-44240056D01*
X102165181Y-44142686D01*
X102165181Y-44105184D01*
X102168011Y-44099444D01*
X103007004Y-42646266D01*
X103036752Y-42623440D01*
X106139037Y-41792185D01*
X106143179Y-41791266D01*
X106183619Y-41784137D01*
X106219177Y-41763606D01*
X106222935Y-41761650D01*
X106260153Y-41744296D01*
X106265872Y-41738575D01*
X106276020Y-41730788D01*
X106283029Y-41726743D01*
X106309286Y-41695449D01*
X106342550Y-41678133D01*
X106378318Y-41689409D01*
X106395635Y-41722674D01*
X106395403Y-41733341D01*
X106391098Y-41766038D01*
X106410656Y-41914593D01*
X106411737Y-41922801D01*
X106472245Y-42068880D01*
X106479575Y-42078433D01*
X106568498Y-42194321D01*
X106646582Y-42254236D01*
X106693940Y-42290575D01*
X106840019Y-42351083D01*
X106996781Y-42371721D01*
X107153543Y-42351083D01*
X107299622Y-42290575D01*
X107425063Y-42194321D01*
X107521317Y-42068880D01*
X107581825Y-41922801D01*
X107602463Y-41766039D01*
X107588706Y-41661548D01*
X107598413Y-41625324D01*
X107602631Y-41620513D01*
X108789143Y-40434002D01*
X108823792Y-40419650D01*
X112035491Y-40419650D01*
X112039761Y-40419835D01*
X112080657Y-40423414D01*
X112120312Y-40412787D01*
X112124473Y-40411865D01*
X112164895Y-40404738D01*
X112171902Y-40400691D01*
X112183715Y-40395798D01*
X112191534Y-40393704D01*
X112224996Y-40370272D01*
X112261608Y-40362155D01*
X112293239Y-40382305D01*
X112301357Y-40418918D01*
X112298371Y-40429162D01*
X112285751Y-40459629D01*
X112270654Y-40574304D01*
X112265113Y-40616394D01*
X112285751Y-40773156D01*
X112346259Y-40919235D01*
X112346260Y-40919236D01*
X112442512Y-41044676D01*
X112520596Y-41104591D01*
X112567954Y-41140930D01*
X112714033Y-41201438D01*
X112870795Y-41222076D01*
X113027557Y-41201438D01*
X113173636Y-41140930D01*
X113299077Y-41044676D01*
X113395331Y-40919235D01*
X113455839Y-40773156D01*
X113469594Y-40668667D01*
X113488345Y-40636189D01*
X113493666Y-40632633D01*
X114946843Y-39793641D01*
X114984024Y-39788747D01*
X115178867Y-39840955D01*
X118086303Y-40619999D01*
X118090366Y-40621281D01*
X118128937Y-40635321D01*
X118128939Y-40635321D01*
X118169983Y-40635321D01*
X118174253Y-40635507D01*
X118215141Y-40639084D01*
X118222953Y-40636990D01*
X118235635Y-40635321D01*
X118243726Y-40635321D01*
X118243727Y-40635321D01*
X118282114Y-40621348D01*
X118319581Y-40622983D01*
X118344919Y-40650633D01*
X118343284Y-40688100D01*
X118337748Y-40697222D01*
X118317672Y-40723385D01*
X118257163Y-40869465D01*
X118255265Y-40883881D01*
X118236525Y-41026228D01*
X118257163Y-41182990D01*
X118317671Y-41329069D01*
X118317672Y-41329070D01*
X118413924Y-41454510D01*
X118492008Y-41514425D01*
X118539366Y-41550764D01*
X118685445Y-41611272D01*
X118842207Y-41631910D01*
X118998969Y-41611272D01*
X119145048Y-41550764D01*
X119270489Y-41454510D01*
X119366743Y-41329069D01*
X119407074Y-41231699D01*
X119433591Y-41205182D01*
X119439646Y-41203127D01*
X121060457Y-40768831D01*
X121097638Y-40773725D01*
X122171737Y-41393857D01*
X123879068Y-42379585D01*
X123882659Y-42381872D01*
X123916286Y-42405418D01*
X123955939Y-42416042D01*
X123959992Y-42417320D01*
X123998576Y-42431364D01*
X124006669Y-42431364D01*
X124019350Y-42433033D01*
X124027163Y-42435127D01*
X124027164Y-42435126D01*
X124027165Y-42435127D01*
X124067857Y-42431567D01*
X124103624Y-42442843D01*
X124120941Y-42476109D01*
X124109665Y-42511876D01*
X124101958Y-42519254D01*
X124075792Y-42539332D01*
X123979541Y-42664770D01*
X123979540Y-42664771D01*
X123979540Y-42664772D01*
X123968430Y-42691593D01*
X123944645Y-42749017D01*
X123919032Y-42810851D01*
X123898394Y-42967613D01*
X123919032Y-43124375D01*
X123979540Y-43270454D01*
X123979541Y-43270455D01*
X124075793Y-43395895D01*
X124153877Y-43455810D01*
X124201235Y-43492149D01*
X124347314Y-43552657D01*
X124504076Y-43573295D01*
X124660838Y-43552657D01*
X124806917Y-43492149D01*
X124932358Y-43395895D01*
X124996514Y-43312284D01*
X125028993Y-43293532D01*
X125035389Y-43293113D01*
X126713361Y-43293113D01*
X126748009Y-43307465D01*
X129019022Y-45578478D01*
X129021910Y-45581630D01*
X129048295Y-45613075D01*
X129048297Y-45613076D01*
X129048298Y-45613077D01*
X129083869Y-45633614D01*
X129087429Y-45635882D01*
X129107622Y-45650021D01*
X129121069Y-45659437D01*
X129128881Y-45661530D01*
X129140700Y-45666425D01*
X129147706Y-45670470D01*
X129147708Y-45670471D01*
X129187937Y-45677564D01*
X129219567Y-45697715D01*
X129227684Y-45734329D01*
X129207533Y-45765959D01*
X129198182Y-45771088D01*
X129167712Y-45783710D01*
X129167710Y-45783711D01*
X129042270Y-45879963D01*
X128946018Y-46005403D01*
X128893849Y-46131350D01*
X128885509Y-46151484D01*
X128864871Y-46308246D01*
X128885509Y-46465008D01*
X128946017Y-46611087D01*
X128946018Y-46611088D01*
X129042270Y-46736528D01*
X129113805Y-46791418D01*
X129167712Y-46832782D01*
X129313791Y-46893290D01*
X129470553Y-46913928D01*
X129627315Y-46893290D01*
X129773394Y-46832782D01*
X129857006Y-46768623D01*
X129893229Y-46758917D01*
X129899516Y-46760168D01*
X131520313Y-47194460D01*
X131550064Y-47217288D01*
X133155518Y-49998014D01*
X133155921Y-49998712D01*
X133157895Y-50002504D01*
X133175237Y-50039697D01*
X133175238Y-50039698D01*
X133175239Y-50039699D01*
X133204265Y-50068725D01*
X133207143Y-50071866D01*
X133233531Y-50103314D01*
X133240541Y-50107361D01*
X133250683Y-50115143D01*
X133256407Y-50120867D01*
X133293429Y-50138130D01*
X133318766Y-50165779D01*
X133317131Y-50203246D01*
X133289481Y-50228584D01*
X133279117Y-50231120D01*
X133246419Y-50235424D01*
X133100339Y-50295934D01*
X132974899Y-50392186D01*
X132878647Y-50517626D01*
X132818138Y-50663706D01*
X132802578Y-50781897D01*
X132797500Y-50820469D01*
X132818138Y-50977231D01*
X132878646Y-51123310D01*
X132878647Y-51123311D01*
X132974899Y-51248751D01*
X133052983Y-51308666D01*
X133100341Y-51345005D01*
X133246420Y-51405513D01*
X133403182Y-51426151D01*
X133559944Y-51405513D01*
X133657312Y-51365181D01*
X133694814Y-51365181D01*
X133700560Y-51368014D01*
X135153730Y-52207003D01*
X135176558Y-52236754D01*
X135194765Y-52304700D01*
X136007808Y-55339020D01*
X136008733Y-55343192D01*
X136015862Y-55383616D01*
X136015863Y-55383619D01*
X136032227Y-55411964D01*
X136036385Y-55419165D01*
X136038358Y-55422956D01*
X136055702Y-55460150D01*
X136055703Y-55460151D01*
X136055704Y-55460153D01*
X136061424Y-55465873D01*
X136069209Y-55476018D01*
X136073257Y-55483029D01*
X136104549Y-55509286D01*
X136121866Y-55542551D01*
X136110590Y-55578318D01*
X136077324Y-55595635D01*
X136066658Y-55595403D01*
X136033961Y-55591098D01*
X135877198Y-55611737D01*
X135731118Y-55672246D01*
X135605678Y-55768498D01*
X135509426Y-55893938D01*
X135509425Y-55893939D01*
X135509425Y-55893940D01*
X135448917Y-56040019D01*
X135428279Y-56196781D01*
X135448917Y-56353543D01*
X135509425Y-56499622D01*
X135510518Y-56501046D01*
X135605678Y-56625063D01*
X135648353Y-56657808D01*
X135731120Y-56721317D01*
X135877199Y-56781825D01*
X136033961Y-56802463D01*
X136138449Y-56788706D01*
X136174674Y-56798412D01*
X136179493Y-56802639D01*
X137365998Y-57989143D01*
X137380350Y-58023791D01*
X137380350Y-61235490D01*
X137380164Y-61239761D01*
X137376585Y-61280659D01*
X137387210Y-61320310D01*
X137388135Y-61324482D01*
X137395261Y-61364894D01*
X137399306Y-61371900D01*
X137404201Y-61383717D01*
X137406295Y-61391532D01*
X137429725Y-61424995D01*
X137437841Y-61461610D01*
X137417691Y-61493239D01*
X137381076Y-61501355D01*
X137370835Y-61498370D01*
X137340370Y-61485751D01*
X137183606Y-61465113D01*
X137026843Y-61485751D01*
X136880763Y-61546260D01*
X136755323Y-61642512D01*
X136659071Y-61767952D01*
X136659070Y-61767953D01*
X136659070Y-61767954D01*
X136598562Y-61914033D01*
X136577924Y-62070795D01*
X136598562Y-62227557D01*
X136659070Y-62373636D01*
X136668801Y-62386318D01*
X136755323Y-62499077D01*
X136788805Y-62524768D01*
X136880765Y-62595331D01*
X137026843Y-62655839D01*
X137026844Y-62655839D01*
X137131330Y-62669594D01*
X137163809Y-62688345D01*
X137167370Y-62693675D01*
X138006356Y-64146842D01*
X138011251Y-64184024D01*
X137180002Y-67286292D01*
X137178717Y-67290369D01*
X137164679Y-67328939D01*
X137164679Y-67369982D01*
X137164493Y-67374252D01*
X137160915Y-67415140D01*
X137163009Y-67422951D01*
X137164679Y-67435634D01*
X137164679Y-67443727D01*
X137178651Y-67482114D01*
X137177015Y-67519581D01*
X137149365Y-67544918D01*
X137111898Y-67543282D01*
X137102781Y-67537750D01*
X137076613Y-67517671D01*
X136930534Y-67457163D01*
X136773772Y-67436525D01*
X136617009Y-67457163D01*
X136470929Y-67517672D01*
X136345489Y-67613924D01*
X136249237Y-67739364D01*
X136249236Y-67739365D01*
X136249236Y-67739366D01*
X136188728Y-67885445D01*
X136168090Y-68042207D01*
X136188728Y-68198969D01*
X136249236Y-68345048D01*
X136249237Y-68345049D01*
X136345489Y-68470489D01*
X136346377Y-68471170D01*
X136470931Y-68566743D01*
X136568298Y-68607074D01*
X136594816Y-68633592D01*
X136596876Y-68639661D01*
X137031167Y-70260457D01*
X137026272Y-70297639D01*
X135420418Y-73079060D01*
X135418123Y-73082663D01*
X135394581Y-73116286D01*
X135383961Y-73155923D01*
X135382676Y-73159999D01*
X135368636Y-73198574D01*
X135368636Y-73206668D01*
X135366966Y-73219351D01*
X135364872Y-73227161D01*
X135368433Y-73267858D01*
X135357155Y-73303625D01*
X135323889Y-73320942D01*
X135288122Y-73309664D01*
X135280745Y-73301958D01*
X135260669Y-73275794D01*
X135260667Y-73275793D01*
X135260667Y-73275792D01*
X135135229Y-73179541D01*
X135135228Y-73179540D01*
X134989149Y-73119032D01*
X134832387Y-73098394D01*
X134675624Y-73119032D01*
X134529544Y-73179541D01*
X134404104Y-73275793D01*
X134307852Y-73401233D01*
X134307851Y-73401234D01*
X134307851Y-73401235D01*
X134247343Y-73547314D01*
X134226705Y-73704076D01*
X134247343Y-73860838D01*
X134307851Y-74006917D01*
X134307852Y-74006918D01*
X134404102Y-74132355D01*
X134404103Y-74132356D01*
X134404105Y-74132358D01*
X134487717Y-74196515D01*
X134506468Y-74228992D01*
X134506887Y-74235388D01*
X134506887Y-75913360D01*
X134492535Y-75948008D01*
X132221520Y-78219022D01*
X132218369Y-78221909D01*
X132186924Y-78248295D01*
X132166395Y-78283851D01*
X132164099Y-78287454D01*
X132140563Y-78321067D01*
X132138468Y-78328886D01*
X132133576Y-78340697D01*
X132129528Y-78347708D01*
X132122434Y-78387937D01*
X132102283Y-78419566D01*
X132065669Y-78427682D01*
X132034040Y-78407531D01*
X132028909Y-78398178D01*
X132024699Y-78388014D01*
X132016290Y-78367712D01*
X131953359Y-78285698D01*
X131920036Y-78242270D01*
X131794596Y-78146018D01*
X131794595Y-78146017D01*
X131648516Y-78085509D01*
X131491754Y-78064871D01*
X131491753Y-78064871D01*
X131334991Y-78085509D01*
X131231696Y-78128295D01*
X131201243Y-78140910D01*
X131188911Y-78146018D01*
X131063471Y-78242270D01*
X130967219Y-78367710D01*
X130906710Y-78513790D01*
X130893271Y-78615874D01*
X130886072Y-78670553D01*
X130906710Y-78827315D01*
X130967218Y-78973394D01*
X131031375Y-79057005D01*
X131041081Y-79093230D01*
X131039830Y-79099516D01*
X130605539Y-80720312D01*
X130582709Y-80750065D01*
X127801290Y-82355919D01*
X127797498Y-82357893D01*
X127760302Y-82375237D01*
X127731270Y-82404267D01*
X127728121Y-82407152D01*
X127696685Y-82433531D01*
X127692641Y-82440535D01*
X127684860Y-82450677D01*
X127679132Y-82456405D01*
X127661868Y-82493427D01*
X127634218Y-82518762D01*
X127596750Y-82517125D01*
X127571415Y-82489475D01*
X127568879Y-82479113D01*
X127564575Y-82446420D01*
X127504067Y-82300341D01*
X127446379Y-82225160D01*
X127407813Y-82174899D01*
X127282373Y-82078647D01*
X127282372Y-82078646D01*
X127136293Y-82018138D01*
X126979531Y-81997500D01*
X126822768Y-82018138D01*
X126719473Y-82060924D01*
X126701429Y-82068399D01*
X126676688Y-82078647D01*
X126551248Y-82174899D01*
X126454996Y-82300339D01*
X126394487Y-82446419D01*
X126373849Y-82603181D01*
X126394487Y-82759946D01*
X126434817Y-82857311D01*
X126434817Y-82894813D01*
X126431982Y-82900562D01*
X125592996Y-84353729D01*
X125563243Y-84376559D01*
X122460978Y-85207808D01*
X122456807Y-85208733D01*
X122416380Y-85215862D01*
X122380832Y-85236385D01*
X122377044Y-85238358D01*
X122339844Y-85255705D01*
X122334122Y-85261427D01*
X122323981Y-85269209D01*
X122316971Y-85273257D01*
X122290712Y-85304549D01*
X122257446Y-85321865D01*
X122221679Y-85310586D01*
X122204363Y-85277320D01*
X122204595Y-85266662D01*
X122208901Y-85233961D01*
X122188263Y-85077199D01*
X122127755Y-84931120D01*
X122078026Y-84866312D01*
X122031501Y-84805678D01*
X121929738Y-84727594D01*
X121906060Y-84709425D01*
X121759981Y-84648917D01*
X121603219Y-84628279D01*
X121446456Y-84648917D01*
X121300376Y-84709426D01*
X121174936Y-84805678D01*
X121078684Y-84931118D01*
X121078683Y-84931119D01*
X121078683Y-84931120D01*
X121074640Y-84940880D01*
X121018175Y-85077198D01*
X121004663Y-85179837D01*
X120997537Y-85233961D01*
X121011293Y-85338448D01*
X121001586Y-85374673D01*
X120997360Y-85379492D01*
X119810856Y-86565998D01*
X119776208Y-86580350D01*
X116564509Y-86580350D01*
X116560238Y-86580164D01*
X116519342Y-86576585D01*
X116479678Y-86587213D01*
X116475507Y-86588137D01*
X116435105Y-86595261D01*
X116428094Y-86599309D01*
X116416283Y-86604201D01*
X116408464Y-86606296D01*
X116374851Y-86629832D01*
X116371249Y-86632127D01*
X116335695Y-86652655D01*
X116309305Y-86684104D01*
X116306418Y-86687254D01*
X114953531Y-88040141D01*
X114918883Y-88054493D01*
X114912488Y-88054074D01*
X114808000Y-88040318D01*
X114807999Y-88040318D01*
X114651237Y-88060956D01*
X114505157Y-88121465D01*
X114379717Y-88217717D01*
X114283465Y-88343157D01*
X114283464Y-88343158D01*
X114283464Y-88343159D01*
X114222956Y-88489238D01*
X114202318Y-88646000D01*
X114222956Y-88802762D01*
X114283464Y-88948841D01*
X114283465Y-88948842D01*
X114379717Y-89074282D01*
X114457801Y-89134197D01*
X114505159Y-89170536D01*
X114651238Y-89231044D01*
X114808000Y-89251682D01*
X114964762Y-89231044D01*
X115110841Y-89170536D01*
X115236282Y-89074282D01*
X115332536Y-88948841D01*
X115393044Y-88802762D01*
X115413682Y-88646000D01*
X115399925Y-88541509D01*
X115409632Y-88505285D01*
X115413850Y-88500474D01*
X116668623Y-87245702D01*
X116703272Y-87231350D01*
X119914971Y-87231350D01*
X119919241Y-87231535D01*
X119960137Y-87235114D01*
X119999792Y-87224487D01*
X120003953Y-87223565D01*
X120044375Y-87216438D01*
X120051382Y-87212391D01*
X120063195Y-87207498D01*
X120071014Y-87205404D01*
X120104660Y-87181843D01*
X120108215Y-87179579D01*
X120143785Y-87159044D01*
X120170184Y-87127581D01*
X120173051Y-87124453D01*
X121457686Y-85839818D01*
X121492333Y-85825467D01*
X121498728Y-85825885D01*
X121603219Y-85839643D01*
X121759981Y-85819005D01*
X121906060Y-85758497D01*
X121914472Y-85752042D01*
X121950694Y-85742335D01*
X121983173Y-85761085D01*
X121992881Y-85797310D01*
X121986735Y-85815416D01*
X121282719Y-87034809D01*
X121252966Y-87057639D01*
X121246680Y-87058890D01*
X121142191Y-87072646D01*
X120996111Y-87133156D01*
X120870671Y-87229408D01*
X120774419Y-87354848D01*
X120774418Y-87354849D01*
X120774418Y-87354850D01*
X120763488Y-87381237D01*
X120716584Y-87494474D01*
X120713910Y-87500929D01*
X120693272Y-87657691D01*
X120713910Y-87814453D01*
X120774418Y-87960532D01*
X120774419Y-87960533D01*
X120870671Y-88085973D01*
X120916926Y-88121465D01*
X120996113Y-88182227D01*
X121142192Y-88242735D01*
X121298954Y-88263373D01*
X121455716Y-88242735D01*
X121601795Y-88182227D01*
X121727236Y-88085973D01*
X121823490Y-87960532D01*
X121883998Y-87814453D01*
X121904636Y-87657691D01*
X121883998Y-87500929D01*
X121843666Y-87403560D01*
X121843666Y-87366058D01*
X121846496Y-87360318D01*
X122733757Y-85823537D01*
X122763505Y-85800711D01*
X125865790Y-84969456D01*
X125869932Y-84968537D01*
X125910372Y-84961408D01*
X125945930Y-84940877D01*
X125949688Y-84938921D01*
X125986906Y-84921567D01*
X125992625Y-84915846D01*
X126002773Y-84908059D01*
X126009782Y-84904014D01*
X126036174Y-84872559D01*
X126039053Y-84869419D01*
X126068073Y-84840400D01*
X126068073Y-84840399D01*
X126068074Y-84840399D01*
X126085425Y-84803188D01*
X126087392Y-84799411D01*
X126139345Y-84709426D01*
X126995766Y-83226060D01*
X127025518Y-83203232D01*
X127031801Y-83201981D01*
X127136293Y-83188226D01*
X127282372Y-83127718D01*
X127407813Y-83031464D01*
X127414268Y-83023050D01*
X127446743Y-83004300D01*
X127482969Y-83014005D01*
X127501722Y-83046483D01*
X127500471Y-83065563D01*
X127136045Y-84425620D01*
X127113215Y-84455373D01*
X127107467Y-84458208D01*
X127010098Y-84498540D01*
X126884658Y-84594792D01*
X126788406Y-84720232D01*
X126727897Y-84866312D01*
X126709436Y-85006539D01*
X126707259Y-85023075D01*
X126727897Y-85179837D01*
X126788405Y-85325916D01*
X126788406Y-85325917D01*
X126884658Y-85451357D01*
X126962742Y-85511272D01*
X127010100Y-85547611D01*
X127156179Y-85608119D01*
X127312941Y-85628757D01*
X127469703Y-85608119D01*
X127615782Y-85547611D01*
X127741223Y-85451357D01*
X127837477Y-85325916D01*
X127897985Y-85179837D01*
X127918623Y-85023075D01*
X127897985Y-84866313D01*
X127837477Y-84720234D01*
X127773319Y-84636621D01*
X127763612Y-84600396D01*
X127764863Y-84594110D01*
X127767583Y-84583959D01*
X128224140Y-82880065D01*
X128246966Y-82850317D01*
X131028409Y-81244450D01*
X131032167Y-81242494D01*
X131069379Y-81225143D01*
X131098399Y-81196121D01*
X131101539Y-81193243D01*
X131132994Y-81166851D01*
X131137039Y-81159842D01*
X131144828Y-81149693D01*
X131150547Y-81143975D01*
X131167901Y-81106757D01*
X131169860Y-81102995D01*
X131190388Y-81067441D01*
X131197517Y-81027001D01*
X131198436Y-81022859D01*
X131668649Y-79268004D01*
X131691478Y-79238254D01*
X131697212Y-79235425D01*
X131794595Y-79195089D01*
X131920036Y-79098835D01*
X132016290Y-78973394D01*
X132020348Y-78963596D01*
X132046866Y-78937080D01*
X132084369Y-78937080D01*
X132110887Y-78963599D01*
X132114617Y-78982350D01*
X132114617Y-80390383D01*
X132100265Y-80425031D01*
X132095447Y-80429257D01*
X132011833Y-80493416D01*
X131915582Y-80618854D01*
X131855073Y-80764934D01*
X131838413Y-80891478D01*
X131834435Y-80921697D01*
X131855073Y-81078459D01*
X131915581Y-81224538D01*
X131916045Y-81225143D01*
X132011834Y-81349979D01*
X132059980Y-81386922D01*
X132137276Y-81446233D01*
X132283355Y-81506741D01*
X132440117Y-81527379D01*
X132596879Y-81506741D01*
X132742958Y-81446233D01*
X132868399Y-81349979D01*
X132964653Y-81224538D01*
X133025161Y-81078459D01*
X133045799Y-80921697D01*
X133025161Y-80764935D01*
X132964653Y-80618856D01*
X132868399Y-80493415D01*
X132784786Y-80429256D01*
X132766036Y-80396778D01*
X132765617Y-80390383D01*
X132765617Y-78615874D01*
X132779968Y-78581227D01*
X135050986Y-76310208D01*
X135054128Y-76307330D01*
X135085581Y-76280939D01*
X135106109Y-76245381D01*
X135108405Y-76241778D01*
X135110532Y-76238741D01*
X135131941Y-76208167D01*
X135134035Y-76200350D01*
X135138925Y-76188541D01*
X135142975Y-76181529D01*
X135150102Y-76141103D01*
X135151024Y-76136944D01*
X135161651Y-76097290D01*
X135158073Y-76056391D01*
X135157887Y-76052121D01*
X135157887Y-74235388D01*
X135172239Y-74200740D01*
X135177042Y-74196526D01*
X135260669Y-74132358D01*
X135356923Y-74006917D01*
X135417431Y-73860838D01*
X135418814Y-73850326D01*
X135437566Y-73817847D01*
X135473791Y-73808140D01*
X135506270Y-73826891D01*
X135514725Y-73844038D01*
X135519227Y-73860838D01*
X135879151Y-75204095D01*
X135874256Y-75241277D01*
X135870696Y-75246606D01*
X135848746Y-75275213D01*
X135806539Y-75330218D01*
X135746031Y-75476297D01*
X135725393Y-75633059D01*
X135746031Y-75789821D01*
X135806539Y-75935900D01*
X135806540Y-75935901D01*
X135902792Y-76061341D01*
X135964786Y-76108910D01*
X136028234Y-76157595D01*
X136174313Y-76218103D01*
X136331075Y-76238741D01*
X136487837Y-76218103D01*
X136633916Y-76157595D01*
X136759357Y-76061341D01*
X136855611Y-75935900D01*
X136916119Y-75789821D01*
X136936757Y-75633059D01*
X136916119Y-75476297D01*
X136855611Y-75330218D01*
X136813404Y-75275213D01*
X136759357Y-75204776D01*
X136633918Y-75108524D01*
X136589087Y-75089954D01*
X136536546Y-75068190D01*
X136510029Y-75041672D01*
X136507972Y-75035614D01*
X136048692Y-73321561D01*
X136053587Y-73284380D01*
X137659453Y-70502938D01*
X137661728Y-70499367D01*
X137685280Y-70465734D01*
X137695906Y-70426072D01*
X137697187Y-70422012D01*
X137711226Y-70383444D01*
X137711226Y-70375351D01*
X137712896Y-70362667D01*
X137714989Y-70354856D01*
X137711412Y-70313968D01*
X137711226Y-70309698D01*
X137711226Y-70268657D01*
X137711226Y-70268656D01*
X137697179Y-70230064D01*
X137695907Y-70226026D01*
X137225693Y-68471170D01*
X137230589Y-68433988D01*
X137234141Y-68428671D01*
X137298308Y-68345048D01*
X137358816Y-68198969D01*
X137379454Y-68042207D01*
X137378070Y-68031694D01*
X137387777Y-67995470D01*
X137420255Y-67976718D01*
X137456480Y-67986425D01*
X137469086Y-68000799D01*
X138173102Y-69220192D01*
X138177997Y-69257374D01*
X138175937Y-69263443D01*
X138135607Y-69360808D01*
X138133994Y-69373061D01*
X138114969Y-69517573D01*
X138135607Y-69674335D01*
X138196115Y-69820414D01*
X138196116Y-69820415D01*
X138292368Y-69945855D01*
X138329593Y-69974418D01*
X138417810Y-70042109D01*
X138563889Y-70102617D01*
X138720651Y-70123255D01*
X138877413Y-70102617D01*
X139023492Y-70042109D01*
X139148933Y-69945855D01*
X139245187Y-69820414D01*
X139305695Y-69674335D01*
X139326333Y-69517573D01*
X139305695Y-69360811D01*
X139245187Y-69214732D01*
X139208138Y-69166449D01*
X139148933Y-69089290D01*
X139023493Y-68993038D01*
X139023492Y-68993037D01*
X138969531Y-68970685D01*
X138877413Y-68932528D01*
X138772923Y-68918772D01*
X138740445Y-68900020D01*
X138736889Y-68894699D01*
X137849630Y-67357922D01*
X137844736Y-67320741D01*
X137852874Y-67290369D01*
X138675990Y-64218457D01*
X138677262Y-64214422D01*
X138691310Y-64175828D01*
X138691310Y-64134783D01*
X138691496Y-64130513D01*
X138695073Y-64089624D01*
X138692980Y-64081814D01*
X138691310Y-64069131D01*
X138691310Y-64061040D01*
X138691310Y-64061039D01*
X138677266Y-64022455D01*
X138675988Y-64018402D01*
X138665364Y-63978749D01*
X138641816Y-63945119D01*
X138639529Y-63941528D01*
X138084125Y-62979541D01*
X137731152Y-62368175D01*
X137726258Y-62330994D01*
X137728318Y-62324924D01*
X137768650Y-62227557D01*
X137789288Y-62070795D01*
X137768650Y-61914033D01*
X137764592Y-61904236D01*
X137764592Y-61866733D01*
X137791110Y-61840214D01*
X137828613Y-61840214D01*
X137844510Y-61850836D01*
X138840141Y-62846467D01*
X138854493Y-62881115D01*
X138854073Y-62887511D01*
X138840318Y-62992000D01*
X138860956Y-63148762D01*
X138921464Y-63294841D01*
X138921465Y-63294842D01*
X139017717Y-63420282D01*
X139095801Y-63480197D01*
X139143159Y-63516536D01*
X139289238Y-63577044D01*
X139446000Y-63597682D01*
X139602762Y-63577044D01*
X139748841Y-63516536D01*
X139874282Y-63420282D01*
X139970536Y-63294841D01*
X140031044Y-63148762D01*
X140051682Y-62992000D01*
X140031044Y-62835238D01*
X139970536Y-62689159D01*
X139919245Y-62622315D01*
X139874282Y-62563717D01*
X139748842Y-62467465D01*
X139748841Y-62467464D01*
X139602762Y-62406956D01*
X139446000Y-62386318D01*
X139445999Y-62386318D01*
X139341511Y-62400074D01*
X139305286Y-62390367D01*
X139300467Y-62386141D01*
X138045702Y-61131376D01*
X138031350Y-61096728D01*
X138031350Y-57885019D01*
X138031536Y-57880748D01*
X138035113Y-57839863D01*
X138024486Y-57800204D01*
X138023567Y-57796062D01*
X138016438Y-57755625D01*
X138012392Y-57748617D01*
X138007497Y-57736798D01*
X138005404Y-57728986D01*
X137981856Y-57695356D01*
X137979568Y-57691764D01*
X137969075Y-57673590D01*
X137959044Y-57656215D01*
X137927594Y-57629825D01*
X137924443Y-57626937D01*
X136639819Y-56342313D01*
X136625467Y-56307665D01*
X136625886Y-56301269D01*
X136628166Y-56283952D01*
X136639643Y-56196781D01*
X136619005Y-56040019D01*
X136558497Y-55893940D01*
X136552039Y-55885524D01*
X136542333Y-55849302D01*
X136561084Y-55816823D01*
X136597309Y-55807116D01*
X136615414Y-55813262D01*
X137834810Y-56517280D01*
X137857639Y-56547032D01*
X137858890Y-56553318D01*
X137872646Y-56657808D01*
X137906502Y-56739541D01*
X137933155Y-56803887D01*
X137933156Y-56803888D01*
X138029408Y-56929328D01*
X138066633Y-56957891D01*
X138154850Y-57025582D01*
X138300929Y-57086090D01*
X138457691Y-57106728D01*
X138614453Y-57086090D01*
X138760532Y-57025582D01*
X138885973Y-56929328D01*
X138982227Y-56803887D01*
X139042735Y-56657808D01*
X139063373Y-56501046D01*
X139042735Y-56344284D01*
X138982227Y-56198205D01*
X138896079Y-56085934D01*
X138885973Y-56072763D01*
X138760533Y-55976511D01*
X138760532Y-55976510D01*
X138614453Y-55916002D01*
X138457691Y-55895364D01*
X138300926Y-55916002D01*
X138203561Y-55956332D01*
X138166058Y-55956332D01*
X138160310Y-55953497D01*
X136740189Y-55133590D01*
X136623539Y-55066242D01*
X136600711Y-55036491D01*
X135769459Y-51934219D01*
X135768538Y-51930067D01*
X135761409Y-51889628D01*
X135740869Y-51854053D01*
X135738921Y-51850310D01*
X135721567Y-51813094D01*
X135721565Y-51813092D01*
X135721565Y-51813091D01*
X135715845Y-51807371D01*
X135708058Y-51797224D01*
X135706903Y-51795223D01*
X135704014Y-51790219D01*
X135672569Y-51763833D01*
X135669418Y-51760945D01*
X135640400Y-51731927D01*
X135640399Y-51731926D01*
X135603196Y-51714577D01*
X135599408Y-51712605D01*
X135525236Y-51669782D01*
X134813012Y-51258579D01*
X134026062Y-50804233D01*
X134003232Y-50774480D01*
X134001981Y-50768193D01*
X133988226Y-50663707D01*
X133973856Y-50629015D01*
X133927718Y-50517628D01*
X133831464Y-50392187D01*
X133823048Y-50385729D01*
X133804298Y-50353251D01*
X133814005Y-50317026D01*
X133846484Y-50298275D01*
X133865557Y-50299525D01*
X135225620Y-50663954D01*
X135255372Y-50686783D01*
X135258204Y-50692526D01*
X135292152Y-50774480D01*
X135298540Y-50789902D01*
X135394792Y-50915341D01*
X135437192Y-50947875D01*
X135520234Y-51011595D01*
X135666313Y-51072103D01*
X135823075Y-51092741D01*
X135979837Y-51072103D01*
X136125916Y-51011595D01*
X136251357Y-50915341D01*
X136347611Y-50789900D01*
X136408119Y-50643821D01*
X136428757Y-50487059D01*
X136408119Y-50330297D01*
X136347611Y-50184218D01*
X136291111Y-50110585D01*
X136251357Y-50058776D01*
X136125917Y-49962524D01*
X136125916Y-49962523D01*
X135979837Y-49902015D01*
X135823075Y-49881377D01*
X135666312Y-49902015D01*
X135593273Y-49932269D01*
X135520234Y-49962523D01*
X135466048Y-50004100D01*
X135436622Y-50026680D01*
X135400397Y-50036386D01*
X135394111Y-50035135D01*
X133680068Y-49575859D01*
X133650316Y-49553030D01*
X132280473Y-47180392D01*
X132044460Y-46771606D01*
X132042486Y-46767813D01*
X132025144Y-46730623D01*
X132025143Y-46730622D01*
X132025143Y-46730621D01*
X131996109Y-46701587D01*
X131993243Y-46698459D01*
X131966851Y-46667006D01*
X131966850Y-46667005D01*
X131959840Y-46662958D01*
X131949695Y-46655173D01*
X131943975Y-46649453D01*
X131943974Y-46649452D01*
X131943973Y-46649451D01*
X131914795Y-46635846D01*
X131906772Y-46632105D01*
X131902992Y-46630137D01*
X131869996Y-46611087D01*
X131867440Y-46609611D01*
X131827019Y-46602483D01*
X131822847Y-46601558D01*
X130143148Y-46151484D01*
X130068006Y-46131349D01*
X130038254Y-46108520D01*
X130035422Y-46102778D01*
X129995089Y-46005405D01*
X129948682Y-45944926D01*
X129898835Y-45879963D01*
X129773395Y-45783711D01*
X129773394Y-45783710D01*
X129763596Y-45779651D01*
X129737080Y-45753134D01*
X129737080Y-45715631D01*
X129763599Y-45689113D01*
X129782350Y-45685383D01*
X131190384Y-45685383D01*
X131225032Y-45699735D01*
X131229258Y-45704554D01*
X131293414Y-45788165D01*
X131352039Y-45833149D01*
X131418856Y-45884419D01*
X131564935Y-45944927D01*
X131721697Y-45965565D01*
X131878459Y-45944927D01*
X132024538Y-45884419D01*
X132149979Y-45788165D01*
X132246233Y-45662724D01*
X132306741Y-45516645D01*
X132327379Y-45359883D01*
X132306741Y-45203121D01*
X132246233Y-45057042D01*
X132188545Y-44981861D01*
X132149979Y-44931600D01*
X132024539Y-44835348D01*
X132024538Y-44835347D01*
X131878459Y-44774839D01*
X131721697Y-44754201D01*
X131721696Y-44754201D01*
X131564934Y-44774839D01*
X131461639Y-44817625D01*
X131443595Y-44825100D01*
X131418854Y-44835348D01*
X131293414Y-44931600D01*
X131229258Y-45015212D01*
X131196780Y-45033964D01*
X131190384Y-45034383D01*
X129415875Y-45034383D01*
X129381227Y-45020031D01*
X127110213Y-42749017D01*
X127107336Y-42745878D01*
X127080939Y-42714419D01*
X127080938Y-42714418D01*
X127045382Y-42693890D01*
X127041785Y-42691598D01*
X127008167Y-42668059D01*
X127008166Y-42668058D01*
X127000351Y-42665964D01*
X126988537Y-42661071D01*
X126981529Y-42657025D01*
X126981528Y-42657024D01*
X126981527Y-42657024D01*
X126941103Y-42649895D01*
X126936931Y-42648970D01*
X126897292Y-42638348D01*
X126856395Y-42641927D01*
X126852124Y-42642113D01*
X125035389Y-42642113D01*
X125000741Y-42627761D01*
X124996515Y-42622942D01*
X124932358Y-42539330D01*
X124806918Y-42443078D01*
X124806917Y-42443077D01*
X124660838Y-42382569D01*
X124660671Y-42382547D01*
X124650322Y-42381184D01*
X124617844Y-42362431D01*
X124608139Y-42326205D01*
X124626892Y-42293727D01*
X124644033Y-42285274D01*
X126004095Y-41920847D01*
X126041277Y-41925742D01*
X126046601Y-41929299D01*
X126130218Y-41993461D01*
X126276297Y-42053969D01*
X126433059Y-42074607D01*
X126589821Y-42053969D01*
X126735900Y-41993461D01*
X126861341Y-41897207D01*
X126957595Y-41771766D01*
X127018103Y-41625687D01*
X127038741Y-41468925D01*
X127018103Y-41312163D01*
X126957595Y-41166084D01*
X126864436Y-41044676D01*
X126861341Y-41040642D01*
X126735901Y-40944390D01*
X126735900Y-40944389D01*
X126589821Y-40883881D01*
X126433059Y-40863243D01*
X126276296Y-40883881D01*
X126130216Y-40944390D01*
X126004776Y-41040642D01*
X125908524Y-41166081D01*
X125868191Y-41263451D01*
X125841672Y-41289969D01*
X125835603Y-41292029D01*
X124121561Y-41751305D01*
X124084379Y-41746410D01*
X121302958Y-40140556D01*
X121299353Y-40138260D01*
X121265733Y-40114719D01*
X121226094Y-40104098D01*
X121222019Y-40102813D01*
X121183445Y-40088774D01*
X121183444Y-40088774D01*
X121175351Y-40088774D01*
X121162669Y-40087104D01*
X121160597Y-40086549D01*
X121154857Y-40085010D01*
X121113969Y-40088588D01*
X121109699Y-40088774D01*
X121068653Y-40088774D01*
X121030083Y-40102811D01*
X121026008Y-40104096D01*
X119271170Y-40574304D01*
X119233988Y-40569409D01*
X119228659Y-40565849D01*
X119145048Y-40501692D01*
X118998969Y-40441184D01*
X118842206Y-40420545D01*
X118831692Y-40421930D01*
X118795467Y-40412223D01*
X118776716Y-40379744D01*
X118786423Y-40343519D01*
X118800795Y-40330915D01*
X120020192Y-39626895D01*
X120057373Y-39622001D01*
X120063441Y-39624060D01*
X120160811Y-39664393D01*
X120317573Y-39685031D01*
X120474335Y-39664393D01*
X120620414Y-39603885D01*
X120745855Y-39507631D01*
X120842109Y-39382190D01*
X120902617Y-39236111D01*
X120923255Y-39079349D01*
X120902617Y-38922587D01*
X120842109Y-38776508D01*
X120805770Y-38729150D01*
X120745855Y-38651066D01*
X120620415Y-38554814D01*
X120620414Y-38554813D01*
X120474335Y-38494305D01*
X120317573Y-38473667D01*
X120160810Y-38494305D01*
X120014730Y-38554814D01*
X119889290Y-38651066D01*
X119793038Y-38776506D01*
X119732528Y-38922586D01*
X119718772Y-39027075D01*
X119700020Y-39059554D01*
X119694691Y-39063114D01*
X118157923Y-39950367D01*
X118120741Y-39955262D01*
X115018475Y-39124012D01*
X115014399Y-39122727D01*
X114975829Y-39108690D01*
X114975828Y-39108690D01*
X114934784Y-39108690D01*
X114930514Y-39108504D01*
X114889625Y-39104926D01*
X114883544Y-39106556D01*
X114881813Y-39107020D01*
X114869132Y-39108690D01*
X114861038Y-39108690D01*
X114822462Y-39122730D01*
X114818386Y-39124015D01*
X114778749Y-39134635D01*
X114745130Y-39158175D01*
X114741526Y-39160471D01*
X113168175Y-40068845D01*
X113130993Y-40073740D01*
X113124924Y-40071680D01*
X113027559Y-40031350D01*
X112870795Y-40010712D01*
X112714031Y-40031350D01*
X112704232Y-40035409D01*
X112666729Y-40035407D01*
X112640211Y-40008888D01*
X112640213Y-39971385D01*
X112650831Y-39955493D01*
X113646467Y-38959857D01*
X113681114Y-38945506D01*
X113687509Y-38945924D01*
X113792000Y-38959682D01*
X113948762Y-38939044D01*
X114094841Y-38878536D01*
X114220282Y-38782282D01*
X114316536Y-38656841D01*
X114377044Y-38510762D01*
X114397682Y-38354000D01*
X114377044Y-38197238D01*
X114316536Y-38051159D01*
X114280197Y-38003801D01*
X114220282Y-37925717D01*
X114094842Y-37829465D01*
X114094841Y-37829464D01*
X113948762Y-37768956D01*
X113792000Y-37748318D01*
X113635237Y-37768956D01*
X113489157Y-37829465D01*
X113363717Y-37925717D01*
X113267465Y-38051157D01*
X113206956Y-38197237D01*
X113186318Y-38353999D01*
X113200074Y-38458487D01*
X113190367Y-38494712D01*
X113186141Y-38499531D01*
X111931376Y-39754298D01*
X111896728Y-39768650D01*
X108685020Y-39768650D01*
X108680751Y-39768464D01*
X108639863Y-39764887D01*
X108639862Y-39764887D01*
X108600206Y-39775512D01*
X108596054Y-39776432D01*
X108555625Y-39783562D01*
X108555623Y-39783562D01*
X108555623Y-39783563D01*
X108548614Y-39787609D01*
X108536803Y-39792501D01*
X108528984Y-39794596D01*
X108495371Y-39818132D01*
X108491769Y-39820427D01*
X108456215Y-39840955D01*
X108429825Y-39872404D01*
X108426938Y-39875554D01*
X107142312Y-41160180D01*
X107107664Y-41174532D01*
X107101269Y-41174113D01*
X106996781Y-41160357D01*
X106996780Y-41160357D01*
X106840018Y-41180995D01*
X106771499Y-41209377D01*
X106700196Y-41238912D01*
X106693938Y-41241504D01*
X106685523Y-41247961D01*
X106649297Y-41257665D01*
X106616820Y-41238912D01*
X106607116Y-41202686D01*
X106613259Y-41184588D01*
X107317280Y-39965188D01*
X107347032Y-39942360D01*
X107353315Y-39941109D01*
X107457808Y-39927353D01*
X107603887Y-39866845D01*
X107729328Y-39770591D01*
X107825582Y-39645150D01*
X107886090Y-39499071D01*
X107906728Y-39342309D01*
X107886090Y-39185547D01*
X107825582Y-39039468D01*
X107789243Y-38992110D01*
X107729328Y-38914026D01*
X107603888Y-38817774D01*
X107603887Y-38817773D01*
X107457808Y-38757265D01*
X107301046Y-38736627D01*
X107144283Y-38757265D01*
X106998203Y-38817774D01*
X106872763Y-38914026D01*
X106776511Y-39039466D01*
X106776510Y-39039467D01*
X106776510Y-39039468D01*
X106759991Y-39079349D01*
X106716002Y-39185546D01*
X106695364Y-39342309D01*
X106716002Y-39499073D01*
X106756332Y-39596438D01*
X106756332Y-39633940D01*
X106753497Y-39639689D01*
X105866243Y-41176458D01*
X105836490Y-41199288D01*
X102734231Y-42030535D01*
X102730060Y-42031460D01*
X102689627Y-42038590D01*
X102654076Y-42059115D01*
X102650288Y-42061087D01*
X102613094Y-42078432D01*
X102607367Y-42084158D01*
X102597229Y-42091937D01*
X102590219Y-42095985D01*
X102563843Y-42127418D01*
X102560958Y-42130567D01*
X102531925Y-42159602D01*
X102514578Y-42196800D01*
X102512605Y-42200590D01*
X101604233Y-43773936D01*
X101574480Y-43796766D01*
X101568194Y-43798017D01*
X101463706Y-43811773D01*
X101317626Y-43872283D01*
X101192188Y-43968534D01*
X101185730Y-43976951D01*
X101153251Y-43995702D01*
X101117026Y-43985995D01*
X101098275Y-43953516D01*
X101099526Y-43934439D01*
X101132216Y-43812439D01*
X101463954Y-42574376D01*
X101486783Y-42544626D01*
X101492517Y-42541797D01*
X101589900Y-42501461D01*
X101715341Y-42405207D01*
X101811595Y-42279766D01*
X101872103Y-42133687D01*
X101892741Y-41976925D01*
X101872103Y-41820163D01*
X101811595Y-41674084D01*
X101761867Y-41609277D01*
X101715341Y-41548642D01*
X101611450Y-41468925D01*
X101589900Y-41452389D01*
X101443821Y-41391881D01*
X101287059Y-41371243D01*
X101130296Y-41391881D01*
X100984216Y-41452390D01*
X100858776Y-41548642D01*
X100762524Y-41674082D01*
X100702015Y-41820162D01*
X100687647Y-41929303D01*
X100681377Y-41976925D01*
X100702015Y-42133687D01*
X100762523Y-42279766D01*
X100762524Y-42279767D01*
X100826679Y-42363376D01*
X100836386Y-42399601D01*
X100835135Y-42405887D01*
X100375859Y-44119930D01*
X100353029Y-44149683D01*
X97571610Y-45755536D01*
X97567819Y-45757510D01*
X97530619Y-45774857D01*
X97501596Y-45803879D01*
X97498447Y-45806765D01*
X97467006Y-45833149D01*
X97462958Y-45840159D01*
X97455176Y-45850300D01*
X97449454Y-45856022D01*
X97432107Y-45893222D01*
X97430134Y-45897011D01*
X97409611Y-45932559D01*
X97402483Y-45972979D01*
X97401558Y-45977151D01*
X96931350Y-47731991D01*
X96908520Y-47761744D01*
X96902772Y-47764579D01*
X96805402Y-47804912D01*
X96679963Y-47901164D01*
X96583711Y-48026603D01*
X96583709Y-48026606D01*
X96583710Y-48026606D01*
X96579651Y-48036403D01*
X96553133Y-48062920D01*
X96515630Y-48062919D01*
X96489112Y-48036399D01*
X96485383Y-48017649D01*
X96485383Y-46609615D01*
X96499735Y-46574967D01*
X96504538Y-46570753D01*
X96588165Y-46506585D01*
X96684419Y-46381144D01*
X96744927Y-46235065D01*
X96765565Y-46078303D01*
X96744927Y-45921541D01*
X96684419Y-45775462D01*
X96624762Y-45697715D01*
X96588165Y-45650020D01*
X96462725Y-45553768D01*
X96462724Y-45553767D01*
X96316645Y-45493259D01*
X96159883Y-45472621D01*
X96159882Y-45472621D01*
X96003120Y-45493259D01*
X95857040Y-45553768D01*
X95731600Y-45650020D01*
X95635348Y-45775460D01*
X95585000Y-45897011D01*
X95574839Y-45921541D01*
X95554201Y-46078303D01*
X95574839Y-46235065D01*
X95635347Y-46381144D01*
X95635348Y-46381145D01*
X95731598Y-46506582D01*
X95731599Y-46506583D01*
X95731601Y-46506585D01*
X95815213Y-46570742D01*
X95833964Y-46603219D01*
X95834383Y-46609615D01*
X95834383Y-48384123D01*
X95820031Y-48418771D01*
X93549022Y-50689780D01*
X93545872Y-50692667D01*
X93514418Y-50719061D01*
X93493890Y-50754615D01*
X93491595Y-50758217D01*
X93468059Y-50791832D01*
X93465963Y-50799652D01*
X93461072Y-50811461D01*
X93457024Y-50818472D01*
X93449895Y-50858896D01*
X93448971Y-50863067D01*
X93438349Y-50902710D01*
X93441927Y-50943604D01*
X93442113Y-50947875D01*
X93442112Y-52764610D01*
X93427760Y-52799258D01*
X93422942Y-52803484D01*
X93339329Y-52867643D01*
X93243078Y-52993081D01*
X93182569Y-53139161D01*
X93181184Y-53149678D01*
X93162431Y-53182156D01*
X93126205Y-53191861D01*
X93093727Y-53173108D01*
X93085274Y-53155965D01*
X92720846Y-51795904D01*
X92725742Y-51758722D01*
X92729294Y-51753405D01*
X92793461Y-51669782D01*
X92853969Y-51523703D01*
X92874607Y-51366941D01*
X92853969Y-51210179D01*
X92793461Y-51064100D01*
X92753171Y-51011593D01*
X92697207Y-50938658D01*
X92571767Y-50842406D01*
X92571766Y-50842405D01*
X92425687Y-50781897D01*
X92268925Y-50761259D01*
X92112162Y-50781897D01*
X91966082Y-50842406D01*
X91840642Y-50938658D01*
X91744390Y-51064098D01*
X91744389Y-51064099D01*
X91744389Y-51064100D01*
X91726667Y-51106883D01*
X91712789Y-51140390D01*
X91683881Y-51210179D01*
X91663243Y-51366941D01*
X91683881Y-51523703D01*
X91744389Y-51669782D01*
X91744390Y-51669783D01*
X91840642Y-51795223D01*
X91917346Y-51854079D01*
X91966084Y-51891477D01*
X92063451Y-51931807D01*
X92089969Y-51958324D01*
X92092028Y-51964393D01*
X92094071Y-51972014D01*
X92551305Y-53678438D01*
X92546410Y-53715620D01*
X90940556Y-56497040D01*
X90938261Y-56500643D01*
X90914719Y-56534266D01*
X90904099Y-56573903D01*
X90902814Y-56577979D01*
X90888774Y-56616554D01*
X90888774Y-56624648D01*
X90887104Y-56637331D01*
X90885010Y-56645141D01*
X90888588Y-56686030D01*
X90888774Y-56690300D01*
X90888774Y-56731344D01*
X90898361Y-56757684D01*
X90902812Y-56769913D01*
X90904097Y-56773990D01*
X91374304Y-58528827D01*
X91369409Y-58566009D01*
X91365849Y-58571337D01*
X91301693Y-58654950D01*
X91241184Y-58801030D01*
X91220546Y-58957792D01*
X91221930Y-58968305D01*
X91212223Y-59004530D01*
X91179745Y-59023282D01*
X91143520Y-59013575D01*
X91130914Y-58999201D01*
X90592979Y-58067471D01*
X90426895Y-57779806D01*
X90422001Y-57742625D01*
X90424058Y-57736562D01*
X90464393Y-57639189D01*
X90485031Y-57482427D01*
X90464393Y-57325665D01*
X90403885Y-57179586D01*
X90347979Y-57106728D01*
X90307631Y-57054144D01*
X90182191Y-56957892D01*
X90182190Y-56957891D01*
X90036111Y-56897383D01*
X89879349Y-56876745D01*
X89879348Y-56876745D01*
X89722586Y-56897383D01*
X89576506Y-56957892D01*
X89451066Y-57054144D01*
X89354814Y-57179584D01*
X89354813Y-57179585D01*
X89354813Y-57179586D01*
X89294305Y-57325665D01*
X89273667Y-57482427D01*
X89294305Y-57639189D01*
X89354813Y-57785268D01*
X89366291Y-57800226D01*
X89451066Y-57910709D01*
X89529150Y-57970624D01*
X89576508Y-58006963D01*
X89722587Y-58067471D01*
X89827075Y-58081227D01*
X89859553Y-58099979D01*
X89863114Y-58105308D01*
X90750367Y-59642075D01*
X90755262Y-59679257D01*
X89924012Y-62781529D01*
X89922727Y-62785606D01*
X89908690Y-62824173D01*
X89908690Y-62865215D01*
X89908504Y-62869485D01*
X89904926Y-62910373D01*
X89907020Y-62918184D01*
X89908690Y-62930868D01*
X89908690Y-62938962D01*
X89922729Y-62977536D01*
X89924014Y-62981611D01*
X89934635Y-63021250D01*
X89958178Y-63054873D01*
X89960474Y-63058478D01*
X90868845Y-64631823D01*
X90873740Y-64669005D01*
X90871680Y-64675074D01*
X90831350Y-64772441D01*
X90810712Y-64929205D01*
X90831350Y-65085969D01*
X90835407Y-65095764D01*
X90835407Y-65133267D01*
X90808888Y-65159785D01*
X90771385Y-65159785D01*
X90755489Y-65149163D01*
X89759858Y-64153532D01*
X89745506Y-64118884D01*
X89745925Y-64112488D01*
X89749353Y-64086449D01*
X89759682Y-64008000D01*
X89739044Y-63851238D01*
X89678536Y-63705159D01*
X89642197Y-63657801D01*
X89582282Y-63579717D01*
X89456842Y-63483465D01*
X89456841Y-63483464D01*
X89310762Y-63422956D01*
X89154000Y-63402318D01*
X89153999Y-63402318D01*
X88997237Y-63422956D01*
X88851157Y-63483465D01*
X88725717Y-63579717D01*
X88629465Y-63705157D01*
X88629464Y-63705158D01*
X88629464Y-63705159D01*
X88568956Y-63851238D01*
X88548318Y-64008000D01*
X88178630Y-64008000D01*
X88168796Y-63500928D01*
X88168796Y-63499050D01*
X88188412Y-62487656D01*
X88188483Y-62485833D01*
X88247301Y-61475967D01*
X88247447Y-61474089D01*
X88252223Y-61424995D01*
X88345377Y-60467276D01*
X88345598Y-60465397D01*
X88379992Y-60213590D01*
X88482494Y-59463141D01*
X88482770Y-59461367D01*
X88658440Y-58465095D01*
X88658806Y-58463241D01*
X88671995Y-58402354D01*
X88872948Y-57474645D01*
X88873382Y-57472815D01*
X89125719Y-56493185D01*
X89126205Y-56491441D01*
X89416340Y-55522321D01*
X89416885Y-55520622D01*
X89744392Y-54563447D01*
X89745007Y-54561758D01*
X90109362Y-53618052D01*
X90110061Y-53616340D01*
X90510741Y-52687459D01*
X90511520Y-52685749D01*
X90532064Y-52642785D01*
X90947891Y-51773156D01*
X90948719Y-51771508D01*
X91420157Y-50876503D01*
X91421066Y-50874857D01*
X91427873Y-50863067D01*
X91926860Y-49998797D01*
X91927797Y-49997245D01*
X92467176Y-49141463D01*
X92468215Y-49139883D01*
X92489815Y-49108390D01*
X93040376Y-48305651D01*
X93041432Y-48304173D01*
X93645535Y-47492722D01*
X93646637Y-47491300D01*
X94281758Y-46703873D01*
X94282920Y-46702489D01*
X94948099Y-45940278D01*
X94949290Y-45938965D01*
X95643500Y-45203147D01*
X95644789Y-45201831D01*
X96367028Y-44493464D01*
X96368350Y-44492217D01*
X97117476Y-43812422D01*
X97118868Y-43811206D01*
X97893804Y-43160959D01*
X97895244Y-43159798D01*
X98694798Y-42540096D01*
X98696240Y-42539023D01*
X99519260Y-41950763D01*
X99520752Y-41949739D01*
X100365965Y-41393835D01*
X100367504Y-41392865D01*
X101233618Y-40870162D01*
X101235167Y-40869268D01*
X102120905Y-40380538D01*
X102122536Y-40379679D01*
X103026534Y-39925674D01*
X103028173Y-39924891D01*
X103949117Y-39506270D01*
X103950831Y-39505531D01*
X104887270Y-39122954D01*
X104888954Y-39122303D01*
X105839573Y-38776306D01*
X105841319Y-38775708D01*
X106804635Y-38466833D01*
X106806343Y-38466322D01*
X107780893Y-38195038D01*
X107782709Y-38194571D01*
X108767011Y-37961287D01*
X108768798Y-37960899D01*
X109761471Y-37765944D01*
X109763260Y-37765629D01*
X110762725Y-37609316D01*
X110764538Y-37609068D01*
X111769287Y-37491630D01*
X111771145Y-37491449D01*
X112779704Y-37413058D01*
X112781532Y-37412952D01*
X113792327Y-37373728D01*
X113794228Y-37373691D01*
X114805772Y-37373691D01*
X114807672Y-37373728D01*
G37*
G04 #@! TD.AperFunction*
M02*
