G04 #@! TF.GenerationSoftware,KiCad,Pcbnew,7.0.2-0*
G04 #@! TF.CreationDate,2023-05-22T20:56:43-04:00*
G04 #@! TF.ProjectId,speed_joystick,73706565-645f-46a6-9f79-737469636b2e,rev?*
G04 #@! TF.SameCoordinates,Original*
G04 #@! TF.FileFunction,Legend,Bot*
G04 #@! TF.FilePolarity,Positive*
%FSLAX46Y46*%
G04 Gerber Fmt 4.6, Leading zero omitted, Abs format (unit mm)*
G04 Created by KiCad (PCBNEW 7.0.2-0) date 2023-05-22 20:56:43*
%MOMM*%
%LPD*%
G01*
G04 APERTURE LIST*
%ADD10C,0.150000*%
%ADD11C,0.100000*%
G04 APERTURE END LIST*
D10*
X60718723Y-88272800D02*
X60575866Y-88320419D01*
X60575866Y-88320419D02*
X60337771Y-88320419D01*
X60337771Y-88320419D02*
X60242533Y-88272800D01*
X60242533Y-88272800D02*
X60194914Y-88225180D01*
X60194914Y-88225180D02*
X60147295Y-88129942D01*
X60147295Y-88129942D02*
X60147295Y-88034704D01*
X60147295Y-88034704D02*
X60194914Y-87939466D01*
X60194914Y-87939466D02*
X60242533Y-87891847D01*
X60242533Y-87891847D02*
X60337771Y-87844228D01*
X60337771Y-87844228D02*
X60528247Y-87796609D01*
X60528247Y-87796609D02*
X60623485Y-87748990D01*
X60623485Y-87748990D02*
X60671104Y-87701371D01*
X60671104Y-87701371D02*
X60718723Y-87606133D01*
X60718723Y-87606133D02*
X60718723Y-87510895D01*
X60718723Y-87510895D02*
X60671104Y-87415657D01*
X60671104Y-87415657D02*
X60623485Y-87368038D01*
X60623485Y-87368038D02*
X60528247Y-87320419D01*
X60528247Y-87320419D02*
X60290152Y-87320419D01*
X60290152Y-87320419D02*
X60147295Y-87368038D01*
X59718723Y-88320419D02*
X59718723Y-87320419D01*
X59718723Y-87320419D02*
X59337771Y-87320419D01*
X59337771Y-87320419D02*
X59242533Y-87368038D01*
X59242533Y-87368038D02*
X59194914Y-87415657D01*
X59194914Y-87415657D02*
X59147295Y-87510895D01*
X59147295Y-87510895D02*
X59147295Y-87653752D01*
X59147295Y-87653752D02*
X59194914Y-87748990D01*
X59194914Y-87748990D02*
X59242533Y-87796609D01*
X59242533Y-87796609D02*
X59337771Y-87844228D01*
X59337771Y-87844228D02*
X59718723Y-87844228D01*
X58718723Y-87796609D02*
X58385390Y-87796609D01*
X58242533Y-88320419D02*
X58718723Y-88320419D01*
X58718723Y-88320419D02*
X58718723Y-87320419D01*
X58718723Y-87320419D02*
X58242533Y-87320419D01*
X57813961Y-87796609D02*
X57480628Y-87796609D01*
X57337771Y-88320419D02*
X57813961Y-88320419D01*
X57813961Y-88320419D02*
X57813961Y-87320419D01*
X57813961Y-87320419D02*
X57337771Y-87320419D01*
X56909199Y-88320419D02*
X56909199Y-87320419D01*
X56909199Y-87320419D02*
X56671104Y-87320419D01*
X56671104Y-87320419D02*
X56528247Y-87368038D01*
X56528247Y-87368038D02*
X56433009Y-87463276D01*
X56433009Y-87463276D02*
X56385390Y-87558514D01*
X56385390Y-87558514D02*
X56337771Y-87748990D01*
X56337771Y-87748990D02*
X56337771Y-87891847D01*
X56337771Y-87891847D02*
X56385390Y-88082323D01*
X56385390Y-88082323D02*
X56433009Y-88177561D01*
X56433009Y-88177561D02*
X56528247Y-88272800D01*
X56528247Y-88272800D02*
X56671104Y-88320419D01*
X56671104Y-88320419D02*
X56909199Y-88320419D01*
X54861580Y-87320419D02*
X54861580Y-88034704D01*
X54861580Y-88034704D02*
X54909199Y-88177561D01*
X54909199Y-88177561D02*
X55004437Y-88272800D01*
X55004437Y-88272800D02*
X55147294Y-88320419D01*
X55147294Y-88320419D02*
X55242532Y-88320419D01*
X54194913Y-87320419D02*
X54004437Y-87320419D01*
X54004437Y-87320419D02*
X53909199Y-87368038D01*
X53909199Y-87368038D02*
X53813961Y-87463276D01*
X53813961Y-87463276D02*
X53766342Y-87653752D01*
X53766342Y-87653752D02*
X53766342Y-87987085D01*
X53766342Y-87987085D02*
X53813961Y-88177561D01*
X53813961Y-88177561D02*
X53909199Y-88272800D01*
X53909199Y-88272800D02*
X54004437Y-88320419D01*
X54004437Y-88320419D02*
X54194913Y-88320419D01*
X54194913Y-88320419D02*
X54290151Y-88272800D01*
X54290151Y-88272800D02*
X54385389Y-88177561D01*
X54385389Y-88177561D02*
X54433008Y-87987085D01*
X54433008Y-87987085D02*
X54433008Y-87653752D01*
X54433008Y-87653752D02*
X54385389Y-87463276D01*
X54385389Y-87463276D02*
X54290151Y-87368038D01*
X54290151Y-87368038D02*
X54194913Y-87320419D01*
X53147294Y-87844228D02*
X53147294Y-88320419D01*
X53480627Y-87320419D02*
X53147294Y-87844228D01*
X53147294Y-87844228D02*
X52813961Y-87320419D01*
X52528246Y-88272800D02*
X52385389Y-88320419D01*
X52385389Y-88320419D02*
X52147294Y-88320419D01*
X52147294Y-88320419D02*
X52052056Y-88272800D01*
X52052056Y-88272800D02*
X52004437Y-88225180D01*
X52004437Y-88225180D02*
X51956818Y-88129942D01*
X51956818Y-88129942D02*
X51956818Y-88034704D01*
X51956818Y-88034704D02*
X52004437Y-87939466D01*
X52004437Y-87939466D02*
X52052056Y-87891847D01*
X52052056Y-87891847D02*
X52147294Y-87844228D01*
X52147294Y-87844228D02*
X52337770Y-87796609D01*
X52337770Y-87796609D02*
X52433008Y-87748990D01*
X52433008Y-87748990D02*
X52480627Y-87701371D01*
X52480627Y-87701371D02*
X52528246Y-87606133D01*
X52528246Y-87606133D02*
X52528246Y-87510895D01*
X52528246Y-87510895D02*
X52480627Y-87415657D01*
X52480627Y-87415657D02*
X52433008Y-87368038D01*
X52433008Y-87368038D02*
X52337770Y-87320419D01*
X52337770Y-87320419D02*
X52099675Y-87320419D01*
X52099675Y-87320419D02*
X51956818Y-87368038D01*
X51671103Y-87320419D02*
X51099675Y-87320419D01*
X51385389Y-88320419D02*
X51385389Y-87320419D01*
X50766341Y-88320419D02*
X50766341Y-87320419D01*
X49718723Y-88225180D02*
X49766342Y-88272800D01*
X49766342Y-88272800D02*
X49909199Y-88320419D01*
X49909199Y-88320419D02*
X50004437Y-88320419D01*
X50004437Y-88320419D02*
X50147294Y-88272800D01*
X50147294Y-88272800D02*
X50242532Y-88177561D01*
X50242532Y-88177561D02*
X50290151Y-88082323D01*
X50290151Y-88082323D02*
X50337770Y-87891847D01*
X50337770Y-87891847D02*
X50337770Y-87748990D01*
X50337770Y-87748990D02*
X50290151Y-87558514D01*
X50290151Y-87558514D02*
X50242532Y-87463276D01*
X50242532Y-87463276D02*
X50147294Y-87368038D01*
X50147294Y-87368038D02*
X50004437Y-87320419D01*
X50004437Y-87320419D02*
X49909199Y-87320419D01*
X49909199Y-87320419D02*
X49766342Y-87368038D01*
X49766342Y-87368038D02*
X49718723Y-87415657D01*
X49290151Y-88320419D02*
X49290151Y-87320419D01*
X48718723Y-88320419D02*
X49147294Y-87748990D01*
X48718723Y-87320419D02*
X49290151Y-87891847D01*
X47671103Y-87320419D02*
X47337770Y-88320419D01*
X47337770Y-88320419D02*
X47004437Y-87320419D01*
X46147294Y-88320419D02*
X46718722Y-88320419D01*
X46433008Y-88320419D02*
X46433008Y-87320419D01*
X46433008Y-87320419D02*
X46528246Y-87463276D01*
X46528246Y-87463276D02*
X46623484Y-87558514D01*
X46623484Y-87558514D02*
X46718722Y-87606133D01*
X45718722Y-88225180D02*
X45671103Y-88272800D01*
X45671103Y-88272800D02*
X45718722Y-88320419D01*
X45718722Y-88320419D02*
X45766341Y-88272800D01*
X45766341Y-88272800D02*
X45718722Y-88225180D01*
X45718722Y-88225180D02*
X45718722Y-88320419D01*
X45052056Y-87320419D02*
X44956818Y-87320419D01*
X44956818Y-87320419D02*
X44861580Y-87368038D01*
X44861580Y-87368038D02*
X44813961Y-87415657D01*
X44813961Y-87415657D02*
X44766342Y-87510895D01*
X44766342Y-87510895D02*
X44718723Y-87701371D01*
X44718723Y-87701371D02*
X44718723Y-87939466D01*
X44718723Y-87939466D02*
X44766342Y-88129942D01*
X44766342Y-88129942D02*
X44813961Y-88225180D01*
X44813961Y-88225180D02*
X44861580Y-88272800D01*
X44861580Y-88272800D02*
X44956818Y-88320419D01*
X44956818Y-88320419D02*
X45052056Y-88320419D01*
X45052056Y-88320419D02*
X45147294Y-88272800D01*
X45147294Y-88272800D02*
X45194913Y-88225180D01*
X45194913Y-88225180D02*
X45242532Y-88129942D01*
X45242532Y-88129942D02*
X45290151Y-87939466D01*
X45290151Y-87939466D02*
X45290151Y-87701371D01*
X45290151Y-87701371D02*
X45242532Y-87510895D01*
X45242532Y-87510895D02*
X45194913Y-87415657D01*
X45194913Y-87415657D02*
X45147294Y-87368038D01*
X45147294Y-87368038D02*
X45052056Y-87320419D01*
X122897923Y-82126000D02*
X122755066Y-82173619D01*
X122755066Y-82173619D02*
X122516971Y-82173619D01*
X122516971Y-82173619D02*
X122421733Y-82126000D01*
X122421733Y-82126000D02*
X122374114Y-82078380D01*
X122374114Y-82078380D02*
X122326495Y-81983142D01*
X122326495Y-81983142D02*
X122326495Y-81887904D01*
X122326495Y-81887904D02*
X122374114Y-81792666D01*
X122374114Y-81792666D02*
X122421733Y-81745047D01*
X122421733Y-81745047D02*
X122516971Y-81697428D01*
X122516971Y-81697428D02*
X122707447Y-81649809D01*
X122707447Y-81649809D02*
X122802685Y-81602190D01*
X122802685Y-81602190D02*
X122850304Y-81554571D01*
X122850304Y-81554571D02*
X122897923Y-81459333D01*
X122897923Y-81459333D02*
X122897923Y-81364095D01*
X122897923Y-81364095D02*
X122850304Y-81268857D01*
X122850304Y-81268857D02*
X122802685Y-81221238D01*
X122802685Y-81221238D02*
X122707447Y-81173619D01*
X122707447Y-81173619D02*
X122469352Y-81173619D01*
X122469352Y-81173619D02*
X122326495Y-81221238D01*
X121897923Y-82173619D02*
X121897923Y-81173619D01*
X121897923Y-81173619D02*
X121516971Y-81173619D01*
X121516971Y-81173619D02*
X121421733Y-81221238D01*
X121421733Y-81221238D02*
X121374114Y-81268857D01*
X121374114Y-81268857D02*
X121326495Y-81364095D01*
X121326495Y-81364095D02*
X121326495Y-81506952D01*
X121326495Y-81506952D02*
X121374114Y-81602190D01*
X121374114Y-81602190D02*
X121421733Y-81649809D01*
X121421733Y-81649809D02*
X121516971Y-81697428D01*
X121516971Y-81697428D02*
X121897923Y-81697428D01*
X120897923Y-81649809D02*
X120564590Y-81649809D01*
X120421733Y-82173619D02*
X120897923Y-82173619D01*
X120897923Y-82173619D02*
X120897923Y-81173619D01*
X120897923Y-81173619D02*
X120421733Y-81173619D01*
X119993161Y-81649809D02*
X119659828Y-81649809D01*
X119516971Y-82173619D02*
X119993161Y-82173619D01*
X119993161Y-82173619D02*
X119993161Y-81173619D01*
X119993161Y-81173619D02*
X119516971Y-81173619D01*
X119088399Y-82173619D02*
X119088399Y-81173619D01*
X119088399Y-81173619D02*
X118850304Y-81173619D01*
X118850304Y-81173619D02*
X118707447Y-81221238D01*
X118707447Y-81221238D02*
X118612209Y-81316476D01*
X118612209Y-81316476D02*
X118564590Y-81411714D01*
X118564590Y-81411714D02*
X118516971Y-81602190D01*
X118516971Y-81602190D02*
X118516971Y-81745047D01*
X118516971Y-81745047D02*
X118564590Y-81935523D01*
X118564590Y-81935523D02*
X118612209Y-82030761D01*
X118612209Y-82030761D02*
X118707447Y-82126000D01*
X118707447Y-82126000D02*
X118850304Y-82173619D01*
X118850304Y-82173619D02*
X119088399Y-82173619D01*
X117040780Y-81173619D02*
X117040780Y-81887904D01*
X117040780Y-81887904D02*
X117088399Y-82030761D01*
X117088399Y-82030761D02*
X117183637Y-82126000D01*
X117183637Y-82126000D02*
X117326494Y-82173619D01*
X117326494Y-82173619D02*
X117421732Y-82173619D01*
X116374113Y-81173619D02*
X116183637Y-81173619D01*
X116183637Y-81173619D02*
X116088399Y-81221238D01*
X116088399Y-81221238D02*
X115993161Y-81316476D01*
X115993161Y-81316476D02*
X115945542Y-81506952D01*
X115945542Y-81506952D02*
X115945542Y-81840285D01*
X115945542Y-81840285D02*
X115993161Y-82030761D01*
X115993161Y-82030761D02*
X116088399Y-82126000D01*
X116088399Y-82126000D02*
X116183637Y-82173619D01*
X116183637Y-82173619D02*
X116374113Y-82173619D01*
X116374113Y-82173619D02*
X116469351Y-82126000D01*
X116469351Y-82126000D02*
X116564589Y-82030761D01*
X116564589Y-82030761D02*
X116612208Y-81840285D01*
X116612208Y-81840285D02*
X116612208Y-81506952D01*
X116612208Y-81506952D02*
X116564589Y-81316476D01*
X116564589Y-81316476D02*
X116469351Y-81221238D01*
X116469351Y-81221238D02*
X116374113Y-81173619D01*
X115326494Y-81697428D02*
X115326494Y-82173619D01*
X115659827Y-81173619D02*
X115326494Y-81697428D01*
X115326494Y-81697428D02*
X114993161Y-81173619D01*
X114707446Y-82126000D02*
X114564589Y-82173619D01*
X114564589Y-82173619D02*
X114326494Y-82173619D01*
X114326494Y-82173619D02*
X114231256Y-82126000D01*
X114231256Y-82126000D02*
X114183637Y-82078380D01*
X114183637Y-82078380D02*
X114136018Y-81983142D01*
X114136018Y-81983142D02*
X114136018Y-81887904D01*
X114136018Y-81887904D02*
X114183637Y-81792666D01*
X114183637Y-81792666D02*
X114231256Y-81745047D01*
X114231256Y-81745047D02*
X114326494Y-81697428D01*
X114326494Y-81697428D02*
X114516970Y-81649809D01*
X114516970Y-81649809D02*
X114612208Y-81602190D01*
X114612208Y-81602190D02*
X114659827Y-81554571D01*
X114659827Y-81554571D02*
X114707446Y-81459333D01*
X114707446Y-81459333D02*
X114707446Y-81364095D01*
X114707446Y-81364095D02*
X114659827Y-81268857D01*
X114659827Y-81268857D02*
X114612208Y-81221238D01*
X114612208Y-81221238D02*
X114516970Y-81173619D01*
X114516970Y-81173619D02*
X114278875Y-81173619D01*
X114278875Y-81173619D02*
X114136018Y-81221238D01*
X113850303Y-81173619D02*
X113278875Y-81173619D01*
X113564589Y-82173619D02*
X113564589Y-81173619D01*
X112945541Y-82173619D02*
X112945541Y-81173619D01*
X111897923Y-82078380D02*
X111945542Y-82126000D01*
X111945542Y-82126000D02*
X112088399Y-82173619D01*
X112088399Y-82173619D02*
X112183637Y-82173619D01*
X112183637Y-82173619D02*
X112326494Y-82126000D01*
X112326494Y-82126000D02*
X112421732Y-82030761D01*
X112421732Y-82030761D02*
X112469351Y-81935523D01*
X112469351Y-81935523D02*
X112516970Y-81745047D01*
X112516970Y-81745047D02*
X112516970Y-81602190D01*
X112516970Y-81602190D02*
X112469351Y-81411714D01*
X112469351Y-81411714D02*
X112421732Y-81316476D01*
X112421732Y-81316476D02*
X112326494Y-81221238D01*
X112326494Y-81221238D02*
X112183637Y-81173619D01*
X112183637Y-81173619D02*
X112088399Y-81173619D01*
X112088399Y-81173619D02*
X111945542Y-81221238D01*
X111945542Y-81221238D02*
X111897923Y-81268857D01*
X111469351Y-82173619D02*
X111469351Y-81173619D01*
X110897923Y-82173619D02*
X111326494Y-81602190D01*
X110897923Y-81173619D02*
X111469351Y-81745047D01*
X109850303Y-81173619D02*
X109516970Y-82173619D01*
X109516970Y-82173619D02*
X109183637Y-81173619D01*
X108326494Y-82173619D02*
X108897922Y-82173619D01*
X108612208Y-82173619D02*
X108612208Y-81173619D01*
X108612208Y-81173619D02*
X108707446Y-81316476D01*
X108707446Y-81316476D02*
X108802684Y-81411714D01*
X108802684Y-81411714D02*
X108897922Y-81459333D01*
X107897922Y-82078380D02*
X107850303Y-82126000D01*
X107850303Y-82126000D02*
X107897922Y-82173619D01*
X107897922Y-82173619D02*
X107945541Y-82126000D01*
X107945541Y-82126000D02*
X107897922Y-82078380D01*
X107897922Y-82078380D02*
X107897922Y-82173619D01*
X107231256Y-81173619D02*
X107136018Y-81173619D01*
X107136018Y-81173619D02*
X107040780Y-81221238D01*
X107040780Y-81221238D02*
X106993161Y-81268857D01*
X106993161Y-81268857D02*
X106945542Y-81364095D01*
X106945542Y-81364095D02*
X106897923Y-81554571D01*
X106897923Y-81554571D02*
X106897923Y-81792666D01*
X106897923Y-81792666D02*
X106945542Y-81983142D01*
X106945542Y-81983142D02*
X106993161Y-82078380D01*
X106993161Y-82078380D02*
X107040780Y-82126000D01*
X107040780Y-82126000D02*
X107136018Y-82173619D01*
X107136018Y-82173619D02*
X107231256Y-82173619D01*
X107231256Y-82173619D02*
X107326494Y-82126000D01*
X107326494Y-82126000D02*
X107374113Y-82078380D01*
X107374113Y-82078380D02*
X107421732Y-81983142D01*
X107421732Y-81983142D02*
X107469351Y-81792666D01*
X107469351Y-81792666D02*
X107469351Y-81554571D01*
X107469351Y-81554571D02*
X107421732Y-81364095D01*
X107421732Y-81364095D02*
X107374113Y-81268857D01*
X107374113Y-81268857D02*
X107326494Y-81221238D01*
X107326494Y-81221238D02*
X107231256Y-81173619D01*
X39937619Y-52578095D02*
X40747142Y-52578095D01*
X40747142Y-52578095D02*
X40842380Y-52625714D01*
X40842380Y-52625714D02*
X40890000Y-52673333D01*
X40890000Y-52673333D02*
X40937619Y-52768571D01*
X40937619Y-52768571D02*
X40937619Y-52959047D01*
X40937619Y-52959047D02*
X40890000Y-53054285D01*
X40890000Y-53054285D02*
X40842380Y-53101904D01*
X40842380Y-53101904D02*
X40747142Y-53149523D01*
X40747142Y-53149523D02*
X39937619Y-53149523D01*
X40937619Y-54149523D02*
X40937619Y-53578095D01*
X40937619Y-53863809D02*
X39937619Y-53863809D01*
X39937619Y-53863809D02*
X40080476Y-53768571D01*
X40080476Y-53768571D02*
X40175714Y-53673333D01*
X40175714Y-53673333D02*
X40223333Y-53578095D01*
X50704833Y-54051665D02*
X50004833Y-54051665D01*
X50004833Y-54051665D02*
X50504833Y-54284999D01*
X50504833Y-54284999D02*
X50004833Y-54518332D01*
X50004833Y-54518332D02*
X50704833Y-54518332D01*
X50704833Y-54851665D02*
X50004833Y-54851665D01*
X50704833Y-55251665D02*
X50304833Y-54951665D01*
X50004833Y-55251665D02*
X50404833Y-54851665D01*
X50704833Y-55884999D02*
X50704833Y-55551665D01*
X50704833Y-55551665D02*
X50004833Y-55551665D01*
X50071500Y-56084999D02*
X50038166Y-56118332D01*
X50038166Y-56118332D02*
X50004833Y-56184999D01*
X50004833Y-56184999D02*
X50004833Y-56351666D01*
X50004833Y-56351666D02*
X50038166Y-56418332D01*
X50038166Y-56418332D02*
X50071500Y-56451666D01*
X50071500Y-56451666D02*
X50138166Y-56484999D01*
X50138166Y-56484999D02*
X50204833Y-56484999D01*
X50204833Y-56484999D02*
X50304833Y-56451666D01*
X50304833Y-56451666D02*
X50704833Y-56051666D01*
X50704833Y-56051666D02*
X50704833Y-56484999D01*
X50004833Y-57084999D02*
X50004833Y-56951666D01*
X50004833Y-56951666D02*
X50038166Y-56884999D01*
X50038166Y-56884999D02*
X50071500Y-56851666D01*
X50071500Y-56851666D02*
X50171500Y-56784999D01*
X50171500Y-56784999D02*
X50304833Y-56751666D01*
X50304833Y-56751666D02*
X50571500Y-56751666D01*
X50571500Y-56751666D02*
X50638166Y-56784999D01*
X50638166Y-56784999D02*
X50671500Y-56818333D01*
X50671500Y-56818333D02*
X50704833Y-56884999D01*
X50704833Y-56884999D02*
X50704833Y-57018333D01*
X50704833Y-57018333D02*
X50671500Y-57084999D01*
X50671500Y-57084999D02*
X50638166Y-57118333D01*
X50638166Y-57118333D02*
X50571500Y-57151666D01*
X50571500Y-57151666D02*
X50404833Y-57151666D01*
X50404833Y-57151666D02*
X50338166Y-57118333D01*
X50338166Y-57118333D02*
X50304833Y-57084999D01*
X50304833Y-57084999D02*
X50271500Y-57018333D01*
X50271500Y-57018333D02*
X50271500Y-56884999D01*
X50271500Y-56884999D02*
X50304833Y-56818333D01*
X50304833Y-56818333D02*
X50338166Y-56784999D01*
X50338166Y-56784999D02*
X50404833Y-56751666D01*
X50004833Y-57385000D02*
X50004833Y-57851666D01*
X50004833Y-57851666D02*
X50704833Y-57385000D01*
X50704833Y-57385000D02*
X50704833Y-57851666D01*
X50004833Y-58418333D02*
X50004833Y-58285000D01*
X50004833Y-58285000D02*
X50038166Y-58218333D01*
X50038166Y-58218333D02*
X50071500Y-58185000D01*
X50071500Y-58185000D02*
X50171500Y-58118333D01*
X50171500Y-58118333D02*
X50304833Y-58085000D01*
X50304833Y-58085000D02*
X50571500Y-58085000D01*
X50571500Y-58085000D02*
X50638166Y-58118333D01*
X50638166Y-58118333D02*
X50671500Y-58151667D01*
X50671500Y-58151667D02*
X50704833Y-58218333D01*
X50704833Y-58218333D02*
X50704833Y-58351667D01*
X50704833Y-58351667D02*
X50671500Y-58418333D01*
X50671500Y-58418333D02*
X50638166Y-58451667D01*
X50638166Y-58451667D02*
X50571500Y-58485000D01*
X50571500Y-58485000D02*
X50404833Y-58485000D01*
X50404833Y-58485000D02*
X50338166Y-58451667D01*
X50338166Y-58451667D02*
X50304833Y-58418333D01*
X50304833Y-58418333D02*
X50271500Y-58351667D01*
X50271500Y-58351667D02*
X50271500Y-58218333D01*
X50271500Y-58218333D02*
X50304833Y-58151667D01*
X50304833Y-58151667D02*
X50338166Y-58118333D01*
X50338166Y-58118333D02*
X50404833Y-58085000D01*
X50238166Y-59085000D02*
X50704833Y-59085000D01*
X49971500Y-58918334D02*
X50471500Y-58751667D01*
X50471500Y-58751667D02*
X50471500Y-59185000D01*
X50004833Y-59351667D02*
X50704833Y-59585001D01*
X50704833Y-59585001D02*
X50004833Y-59818334D01*
X50338166Y-60285001D02*
X50338166Y-60051667D01*
X50704833Y-60051667D02*
X50004833Y-60051667D01*
X50004833Y-60051667D02*
X50004833Y-60385001D01*
X50004833Y-60551667D02*
X50004833Y-60951667D01*
X50704833Y-60751667D02*
X50004833Y-60751667D01*
X50238166Y-61485000D02*
X50704833Y-61485000D01*
X49971500Y-61318334D02*
X50471500Y-61151667D01*
X50471500Y-61151667D02*
X50471500Y-61585000D01*
X49434833Y-53568332D02*
X48734833Y-53568332D01*
X48734833Y-53568332D02*
X49234833Y-53801666D01*
X49234833Y-53801666D02*
X48734833Y-54034999D01*
X48734833Y-54034999D02*
X49434833Y-54034999D01*
X49434833Y-54368332D02*
X48734833Y-54368332D01*
X49434833Y-54768332D02*
X49034833Y-54468332D01*
X48734833Y-54768332D02*
X49134833Y-54368332D01*
X48801500Y-55034999D02*
X48768166Y-55068332D01*
X48768166Y-55068332D02*
X48734833Y-55134999D01*
X48734833Y-55134999D02*
X48734833Y-55301666D01*
X48734833Y-55301666D02*
X48768166Y-55368332D01*
X48768166Y-55368332D02*
X48801500Y-55401666D01*
X48801500Y-55401666D02*
X48868166Y-55434999D01*
X48868166Y-55434999D02*
X48934833Y-55434999D01*
X48934833Y-55434999D02*
X49034833Y-55401666D01*
X49034833Y-55401666D02*
X49434833Y-55001666D01*
X49434833Y-55001666D02*
X49434833Y-55434999D01*
X48734833Y-55868333D02*
X48734833Y-55934999D01*
X48734833Y-55934999D02*
X48768166Y-56001666D01*
X48768166Y-56001666D02*
X48801500Y-56034999D01*
X48801500Y-56034999D02*
X48868166Y-56068333D01*
X48868166Y-56068333D02*
X49001500Y-56101666D01*
X49001500Y-56101666D02*
X49168166Y-56101666D01*
X49168166Y-56101666D02*
X49301500Y-56068333D01*
X49301500Y-56068333D02*
X49368166Y-56034999D01*
X49368166Y-56034999D02*
X49401500Y-56001666D01*
X49401500Y-56001666D02*
X49434833Y-55934999D01*
X49434833Y-55934999D02*
X49434833Y-55868333D01*
X49434833Y-55868333D02*
X49401500Y-55801666D01*
X49401500Y-55801666D02*
X49368166Y-55768333D01*
X49368166Y-55768333D02*
X49301500Y-55734999D01*
X49301500Y-55734999D02*
X49168166Y-55701666D01*
X49168166Y-55701666D02*
X49001500Y-55701666D01*
X49001500Y-55701666D02*
X48868166Y-55734999D01*
X48868166Y-55734999D02*
X48801500Y-55768333D01*
X48801500Y-55768333D02*
X48768166Y-55801666D01*
X48768166Y-55801666D02*
X48734833Y-55868333D01*
X49434833Y-56401666D02*
X48734833Y-56401666D01*
X48734833Y-56401666D02*
X48734833Y-56568333D01*
X48734833Y-56568333D02*
X48768166Y-56668333D01*
X48768166Y-56668333D02*
X48834833Y-56735000D01*
X48834833Y-56735000D02*
X48901500Y-56768333D01*
X48901500Y-56768333D02*
X49034833Y-56801666D01*
X49034833Y-56801666D02*
X49134833Y-56801666D01*
X49134833Y-56801666D02*
X49268166Y-56768333D01*
X49268166Y-56768333D02*
X49334833Y-56735000D01*
X49334833Y-56735000D02*
X49401500Y-56668333D01*
X49401500Y-56668333D02*
X49434833Y-56568333D01*
X49434833Y-56568333D02*
X49434833Y-56401666D01*
X48734833Y-57035000D02*
X49434833Y-57501666D01*
X48734833Y-57501666D02*
X49434833Y-57035000D01*
X49434833Y-58135000D02*
X49434833Y-57735000D01*
X49434833Y-57935000D02*
X48734833Y-57935000D01*
X48734833Y-57935000D02*
X48834833Y-57868333D01*
X48834833Y-57868333D02*
X48901500Y-57801667D01*
X48901500Y-57801667D02*
X48934833Y-57735000D01*
X48801500Y-58401667D02*
X48768166Y-58435000D01*
X48768166Y-58435000D02*
X48734833Y-58501667D01*
X48734833Y-58501667D02*
X48734833Y-58668334D01*
X48734833Y-58668334D02*
X48768166Y-58735000D01*
X48768166Y-58735000D02*
X48801500Y-58768334D01*
X48801500Y-58768334D02*
X48868166Y-58801667D01*
X48868166Y-58801667D02*
X48934833Y-58801667D01*
X48934833Y-58801667D02*
X49034833Y-58768334D01*
X49034833Y-58768334D02*
X49434833Y-58368334D01*
X49434833Y-58368334D02*
X49434833Y-58801667D01*
X49034833Y-59201667D02*
X49001500Y-59135001D01*
X49001500Y-59135001D02*
X48968166Y-59101667D01*
X48968166Y-59101667D02*
X48901500Y-59068334D01*
X48901500Y-59068334D02*
X48868166Y-59068334D01*
X48868166Y-59068334D02*
X48801500Y-59101667D01*
X48801500Y-59101667D02*
X48768166Y-59135001D01*
X48768166Y-59135001D02*
X48734833Y-59201667D01*
X48734833Y-59201667D02*
X48734833Y-59335001D01*
X48734833Y-59335001D02*
X48768166Y-59401667D01*
X48768166Y-59401667D02*
X48801500Y-59435001D01*
X48801500Y-59435001D02*
X48868166Y-59468334D01*
X48868166Y-59468334D02*
X48901500Y-59468334D01*
X48901500Y-59468334D02*
X48968166Y-59435001D01*
X48968166Y-59435001D02*
X49001500Y-59401667D01*
X49001500Y-59401667D02*
X49034833Y-59335001D01*
X49034833Y-59335001D02*
X49034833Y-59201667D01*
X49034833Y-59201667D02*
X49068166Y-59135001D01*
X49068166Y-59135001D02*
X49101500Y-59101667D01*
X49101500Y-59101667D02*
X49168166Y-59068334D01*
X49168166Y-59068334D02*
X49301500Y-59068334D01*
X49301500Y-59068334D02*
X49368166Y-59101667D01*
X49368166Y-59101667D02*
X49401500Y-59135001D01*
X49401500Y-59135001D02*
X49434833Y-59201667D01*
X49434833Y-59201667D02*
X49434833Y-59335001D01*
X49434833Y-59335001D02*
X49401500Y-59401667D01*
X49401500Y-59401667D02*
X49368166Y-59435001D01*
X49368166Y-59435001D02*
X49301500Y-59468334D01*
X49301500Y-59468334D02*
X49168166Y-59468334D01*
X49168166Y-59468334D02*
X49101500Y-59435001D01*
X49101500Y-59435001D02*
X49068166Y-59401667D01*
X49068166Y-59401667D02*
X49034833Y-59335001D01*
X48734833Y-59668334D02*
X49434833Y-59901668D01*
X49434833Y-59901668D02*
X48734833Y-60135001D01*
X49434833Y-60701668D02*
X49434833Y-60368334D01*
X49434833Y-60368334D02*
X48734833Y-60368334D01*
X49434833Y-60935001D02*
X48734833Y-60935001D01*
X49068166Y-60935001D02*
X49068166Y-61335001D01*
X49434833Y-61335001D02*
X48734833Y-61335001D01*
X48734833Y-62001668D02*
X48734833Y-61668334D01*
X48734833Y-61668334D02*
X49068166Y-61635001D01*
X49068166Y-61635001D02*
X49034833Y-61668334D01*
X49034833Y-61668334D02*
X49001500Y-61735001D01*
X49001500Y-61735001D02*
X49001500Y-61901668D01*
X49001500Y-61901668D02*
X49034833Y-61968334D01*
X49034833Y-61968334D02*
X49068166Y-62001668D01*
X49068166Y-62001668D02*
X49134833Y-62035001D01*
X49134833Y-62035001D02*
X49301500Y-62035001D01*
X49301500Y-62035001D02*
X49368166Y-62001668D01*
X49368166Y-62001668D02*
X49401500Y-61968334D01*
X49401500Y-61968334D02*
X49434833Y-61901668D01*
X49434833Y-61901668D02*
X49434833Y-61735001D01*
X49434833Y-61735001D02*
X49401500Y-61668334D01*
X49401500Y-61668334D02*
X49368166Y-61635001D01*
X48164833Y-53568332D02*
X47464833Y-53568332D01*
X47464833Y-53568332D02*
X47964833Y-53801666D01*
X47964833Y-53801666D02*
X47464833Y-54034999D01*
X47464833Y-54034999D02*
X48164833Y-54034999D01*
X48164833Y-54368332D02*
X47464833Y-54368332D01*
X48164833Y-54768332D02*
X47764833Y-54468332D01*
X47464833Y-54768332D02*
X47864833Y-54368332D01*
X47531500Y-55034999D02*
X47498166Y-55068332D01*
X47498166Y-55068332D02*
X47464833Y-55134999D01*
X47464833Y-55134999D02*
X47464833Y-55301666D01*
X47464833Y-55301666D02*
X47498166Y-55368332D01*
X47498166Y-55368332D02*
X47531500Y-55401666D01*
X47531500Y-55401666D02*
X47598166Y-55434999D01*
X47598166Y-55434999D02*
X47664833Y-55434999D01*
X47664833Y-55434999D02*
X47764833Y-55401666D01*
X47764833Y-55401666D02*
X48164833Y-55001666D01*
X48164833Y-55001666D02*
X48164833Y-55434999D01*
X47464833Y-55868333D02*
X47464833Y-55934999D01*
X47464833Y-55934999D02*
X47498166Y-56001666D01*
X47498166Y-56001666D02*
X47531500Y-56034999D01*
X47531500Y-56034999D02*
X47598166Y-56068333D01*
X47598166Y-56068333D02*
X47731500Y-56101666D01*
X47731500Y-56101666D02*
X47898166Y-56101666D01*
X47898166Y-56101666D02*
X48031500Y-56068333D01*
X48031500Y-56068333D02*
X48098166Y-56034999D01*
X48098166Y-56034999D02*
X48131500Y-56001666D01*
X48131500Y-56001666D02*
X48164833Y-55934999D01*
X48164833Y-55934999D02*
X48164833Y-55868333D01*
X48164833Y-55868333D02*
X48131500Y-55801666D01*
X48131500Y-55801666D02*
X48098166Y-55768333D01*
X48098166Y-55768333D02*
X48031500Y-55734999D01*
X48031500Y-55734999D02*
X47898166Y-55701666D01*
X47898166Y-55701666D02*
X47731500Y-55701666D01*
X47731500Y-55701666D02*
X47598166Y-55734999D01*
X47598166Y-55734999D02*
X47531500Y-55768333D01*
X47531500Y-55768333D02*
X47498166Y-55801666D01*
X47498166Y-55801666D02*
X47464833Y-55868333D01*
X48164833Y-56401666D02*
X47464833Y-56401666D01*
X47464833Y-56401666D02*
X47464833Y-56568333D01*
X47464833Y-56568333D02*
X47498166Y-56668333D01*
X47498166Y-56668333D02*
X47564833Y-56735000D01*
X47564833Y-56735000D02*
X47631500Y-56768333D01*
X47631500Y-56768333D02*
X47764833Y-56801666D01*
X47764833Y-56801666D02*
X47864833Y-56801666D01*
X47864833Y-56801666D02*
X47998166Y-56768333D01*
X47998166Y-56768333D02*
X48064833Y-56735000D01*
X48064833Y-56735000D02*
X48131500Y-56668333D01*
X48131500Y-56668333D02*
X48164833Y-56568333D01*
X48164833Y-56568333D02*
X48164833Y-56401666D01*
X47464833Y-57035000D02*
X48164833Y-57501666D01*
X47464833Y-57501666D02*
X48164833Y-57035000D01*
X47531500Y-57735000D02*
X47498166Y-57768333D01*
X47498166Y-57768333D02*
X47464833Y-57835000D01*
X47464833Y-57835000D02*
X47464833Y-58001667D01*
X47464833Y-58001667D02*
X47498166Y-58068333D01*
X47498166Y-58068333D02*
X47531500Y-58101667D01*
X47531500Y-58101667D02*
X47598166Y-58135000D01*
X47598166Y-58135000D02*
X47664833Y-58135000D01*
X47664833Y-58135000D02*
X47764833Y-58101667D01*
X47764833Y-58101667D02*
X48164833Y-57701667D01*
X48164833Y-57701667D02*
X48164833Y-58135000D01*
X47464833Y-58768334D02*
X47464833Y-58435000D01*
X47464833Y-58435000D02*
X47798166Y-58401667D01*
X47798166Y-58401667D02*
X47764833Y-58435000D01*
X47764833Y-58435000D02*
X47731500Y-58501667D01*
X47731500Y-58501667D02*
X47731500Y-58668334D01*
X47731500Y-58668334D02*
X47764833Y-58735000D01*
X47764833Y-58735000D02*
X47798166Y-58768334D01*
X47798166Y-58768334D02*
X47864833Y-58801667D01*
X47864833Y-58801667D02*
X48031500Y-58801667D01*
X48031500Y-58801667D02*
X48098166Y-58768334D01*
X48098166Y-58768334D02*
X48131500Y-58735000D01*
X48131500Y-58735000D02*
X48164833Y-58668334D01*
X48164833Y-58668334D02*
X48164833Y-58501667D01*
X48164833Y-58501667D02*
X48131500Y-58435000D01*
X48131500Y-58435000D02*
X48098166Y-58401667D01*
X47464833Y-59401667D02*
X47464833Y-59268334D01*
X47464833Y-59268334D02*
X47498166Y-59201667D01*
X47498166Y-59201667D02*
X47531500Y-59168334D01*
X47531500Y-59168334D02*
X47631500Y-59101667D01*
X47631500Y-59101667D02*
X47764833Y-59068334D01*
X47764833Y-59068334D02*
X48031500Y-59068334D01*
X48031500Y-59068334D02*
X48098166Y-59101667D01*
X48098166Y-59101667D02*
X48131500Y-59135001D01*
X48131500Y-59135001D02*
X48164833Y-59201667D01*
X48164833Y-59201667D02*
X48164833Y-59335001D01*
X48164833Y-59335001D02*
X48131500Y-59401667D01*
X48131500Y-59401667D02*
X48098166Y-59435001D01*
X48098166Y-59435001D02*
X48031500Y-59468334D01*
X48031500Y-59468334D02*
X47864833Y-59468334D01*
X47864833Y-59468334D02*
X47798166Y-59435001D01*
X47798166Y-59435001D02*
X47764833Y-59401667D01*
X47764833Y-59401667D02*
X47731500Y-59335001D01*
X47731500Y-59335001D02*
X47731500Y-59201667D01*
X47731500Y-59201667D02*
X47764833Y-59135001D01*
X47764833Y-59135001D02*
X47798166Y-59101667D01*
X47798166Y-59101667D02*
X47864833Y-59068334D01*
X47464833Y-59668334D02*
X48164833Y-59901668D01*
X48164833Y-59901668D02*
X47464833Y-60135001D01*
X48164833Y-60701668D02*
X48164833Y-60368334D01*
X48164833Y-60368334D02*
X47464833Y-60368334D01*
X48164833Y-60935001D02*
X47464833Y-60935001D01*
X47798166Y-60935001D02*
X47798166Y-61335001D01*
X48164833Y-61335001D02*
X47464833Y-61335001D01*
X47464833Y-61601668D02*
X47464833Y-62068334D01*
X47464833Y-62068334D02*
X48164833Y-61768334D01*
X54445000Y-34290000D02*
X46825000Y-34290000D01*
X46825000Y-34290000D02*
X46825000Y-35560000D01*
X59525000Y-35560000D02*
X41745000Y-35560000D01*
X54445000Y-35560000D02*
X54445000Y-34290000D01*
X41745000Y-35560000D02*
X41745000Y-71120000D01*
X54445000Y-40640000D02*
X54445000Y-35560000D01*
X54445000Y-40640000D02*
X46825000Y-40640000D01*
X46825000Y-40640000D02*
X46825000Y-35560000D01*
X55715000Y-41910000D02*
X55715000Y-44450000D01*
X53175000Y-41910000D02*
X55715000Y-41910000D01*
X55715000Y-44450000D02*
X53175000Y-44450000D01*
X53175000Y-44450000D02*
X53175000Y-41910000D01*
X55715000Y-46990000D02*
X55715000Y-50800000D01*
X53175000Y-46990000D02*
X55715000Y-46990000D01*
X55715000Y-50800000D02*
X53175000Y-50800000D01*
X53175000Y-50800000D02*
X53175000Y-46990000D01*
X45555000Y-53340000D02*
X55715000Y-53340000D01*
X55715000Y-62230000D02*
X55715000Y-53340000D01*
X55715000Y-62230000D02*
X45555000Y-62230000D01*
X45555000Y-62230000D02*
X45555000Y-53340000D01*
X53175000Y-66040000D02*
X48095000Y-66040000D01*
X48095000Y-66040000D02*
X48095000Y-68580000D01*
X53175000Y-68580000D02*
X53175000Y-66040000D01*
X59525000Y-71120000D02*
X59525000Y-35560000D01*
X41745000Y-71120000D02*
X59525000Y-71120000D01*
D11*
X54318000Y-57150000D02*
X54064000Y-57531000D01*
X53810000Y-57277000D01*
X54064000Y-56896000D01*
X54318000Y-57150000D01*
G36*
X54318000Y-57150000D02*
G01*
X54064000Y-57531000D01*
X53810000Y-57277000D01*
X54064000Y-56896000D01*
X54318000Y-57150000D01*
G37*
X53556000Y-57277000D02*
X53302000Y-57658000D01*
X53048000Y-57404000D01*
X53302000Y-57023000D01*
X53556000Y-57277000D01*
G36*
X53556000Y-57277000D02*
G01*
X53302000Y-57658000D01*
X53048000Y-57404000D01*
X53302000Y-57023000D01*
X53556000Y-57277000D01*
G37*
X54699000Y-57531000D02*
X54445000Y-57912000D01*
X54191000Y-57658000D01*
X54445000Y-57277000D01*
X54699000Y-57531000D01*
G36*
X54699000Y-57531000D02*
G01*
X54445000Y-57912000D01*
X54191000Y-57658000D01*
X54445000Y-57277000D01*
X54699000Y-57531000D01*
G37*
X53937000Y-57658000D02*
X53683000Y-58039000D01*
X53429000Y-57785000D01*
X53683000Y-57404000D01*
X53937000Y-57658000D01*
G36*
X53937000Y-57658000D02*
G01*
X53683000Y-58039000D01*
X53429000Y-57785000D01*
X53683000Y-57404000D01*
X53937000Y-57658000D01*
G37*
X53175000Y-57785000D02*
X52921000Y-58166000D01*
X52667000Y-57912000D01*
X52921000Y-57531000D01*
X53175000Y-57785000D01*
G36*
X53175000Y-57785000D02*
G01*
X52921000Y-58166000D01*
X52667000Y-57912000D01*
X52921000Y-57531000D01*
X53175000Y-57785000D01*
G37*
X55080000Y-57912000D02*
X54826000Y-58293000D01*
X54572000Y-58039000D01*
X54826000Y-57658000D01*
X55080000Y-57912000D01*
G36*
X55080000Y-57912000D02*
G01*
X54826000Y-58293000D01*
X54572000Y-58039000D01*
X54826000Y-57658000D01*
X55080000Y-57912000D01*
G37*
X53556000Y-58166000D02*
X53302000Y-58547000D01*
X53048000Y-58293000D01*
X53302000Y-57912000D01*
X53556000Y-58166000D01*
G36*
X53556000Y-58166000D02*
G01*
X53302000Y-58547000D01*
X53048000Y-58293000D01*
X53302000Y-57912000D01*
X53556000Y-58166000D01*
G37*
X52794000Y-58293000D02*
X52540000Y-58674000D01*
X52286000Y-58420000D01*
X52540000Y-58039000D01*
X52794000Y-58293000D01*
G36*
X52794000Y-58293000D02*
G01*
X52540000Y-58674000D01*
X52286000Y-58420000D01*
X52540000Y-58039000D01*
X52794000Y-58293000D01*
G37*
M02*
