G04 #@! TF.GenerationSoftware,KiCad,Pcbnew,(5.1.4-0)*
G04 #@! TF.CreationDate,2020-03-10T11:39:59-04:00*
G04 #@! TF.ProjectId,joystick,6a6f7973-7469-4636-9b2e-6b696361645f,rev?*
G04 #@! TF.SameCoordinates,Original*
G04 #@! TF.FileFunction,Paste,Top*
G04 #@! TF.FilePolarity,Positive*
%FSLAX46Y46*%
G04 Gerber Fmt 4.6, Leading zero omitted, Abs format (unit mm)*
G04 Created by KiCad (PCBNEW (5.1.4-0)) date 2020-03-10 11:39:59*
%MOMM*%
%LPD*%
G04 APERTURE LIST*
%ADD10C,0.100000*%
%ADD11C,0.975000*%
%ADD12R,2.000000X1.900000*%
%ADD13R,2.900000X2.000000*%
G04 APERTURE END LIST*
D10*
G36*
X147930142Y-116101174D02*
G01*
X147953803Y-116104684D01*
X147977007Y-116110496D01*
X147999529Y-116118554D01*
X148021153Y-116128782D01*
X148041670Y-116141079D01*
X148060883Y-116155329D01*
X148078607Y-116171393D01*
X148094671Y-116189117D01*
X148108921Y-116208330D01*
X148121218Y-116228847D01*
X148131446Y-116250471D01*
X148139504Y-116272993D01*
X148145316Y-116296197D01*
X148148826Y-116319858D01*
X148150000Y-116343750D01*
X148150000Y-117256250D01*
X148148826Y-117280142D01*
X148145316Y-117303803D01*
X148139504Y-117327007D01*
X148131446Y-117349529D01*
X148121218Y-117371153D01*
X148108921Y-117391670D01*
X148094671Y-117410883D01*
X148078607Y-117428607D01*
X148060883Y-117444671D01*
X148041670Y-117458921D01*
X148021153Y-117471218D01*
X147999529Y-117481446D01*
X147977007Y-117489504D01*
X147953803Y-117495316D01*
X147930142Y-117498826D01*
X147906250Y-117500000D01*
X147418750Y-117500000D01*
X147394858Y-117498826D01*
X147371197Y-117495316D01*
X147347993Y-117489504D01*
X147325471Y-117481446D01*
X147303847Y-117471218D01*
X147283330Y-117458921D01*
X147264117Y-117444671D01*
X147246393Y-117428607D01*
X147230329Y-117410883D01*
X147216079Y-117391670D01*
X147203782Y-117371153D01*
X147193554Y-117349529D01*
X147185496Y-117327007D01*
X147179684Y-117303803D01*
X147176174Y-117280142D01*
X147175000Y-117256250D01*
X147175000Y-116343750D01*
X147176174Y-116319858D01*
X147179684Y-116296197D01*
X147185496Y-116272993D01*
X147193554Y-116250471D01*
X147203782Y-116228847D01*
X147216079Y-116208330D01*
X147230329Y-116189117D01*
X147246393Y-116171393D01*
X147264117Y-116155329D01*
X147283330Y-116141079D01*
X147303847Y-116128782D01*
X147325471Y-116118554D01*
X147347993Y-116110496D01*
X147371197Y-116104684D01*
X147394858Y-116101174D01*
X147418750Y-116100000D01*
X147906250Y-116100000D01*
X147930142Y-116101174D01*
X147930142Y-116101174D01*
G37*
D11*
X147662500Y-116800000D03*
D10*
G36*
X149805142Y-116101174D02*
G01*
X149828803Y-116104684D01*
X149852007Y-116110496D01*
X149874529Y-116118554D01*
X149896153Y-116128782D01*
X149916670Y-116141079D01*
X149935883Y-116155329D01*
X149953607Y-116171393D01*
X149969671Y-116189117D01*
X149983921Y-116208330D01*
X149996218Y-116228847D01*
X150006446Y-116250471D01*
X150014504Y-116272993D01*
X150020316Y-116296197D01*
X150023826Y-116319858D01*
X150025000Y-116343750D01*
X150025000Y-117256250D01*
X150023826Y-117280142D01*
X150020316Y-117303803D01*
X150014504Y-117327007D01*
X150006446Y-117349529D01*
X149996218Y-117371153D01*
X149983921Y-117391670D01*
X149969671Y-117410883D01*
X149953607Y-117428607D01*
X149935883Y-117444671D01*
X149916670Y-117458921D01*
X149896153Y-117471218D01*
X149874529Y-117481446D01*
X149852007Y-117489504D01*
X149828803Y-117495316D01*
X149805142Y-117498826D01*
X149781250Y-117500000D01*
X149293750Y-117500000D01*
X149269858Y-117498826D01*
X149246197Y-117495316D01*
X149222993Y-117489504D01*
X149200471Y-117481446D01*
X149178847Y-117471218D01*
X149158330Y-117458921D01*
X149139117Y-117444671D01*
X149121393Y-117428607D01*
X149105329Y-117410883D01*
X149091079Y-117391670D01*
X149078782Y-117371153D01*
X149068554Y-117349529D01*
X149060496Y-117327007D01*
X149054684Y-117303803D01*
X149051174Y-117280142D01*
X149050000Y-117256250D01*
X149050000Y-116343750D01*
X149051174Y-116319858D01*
X149054684Y-116296197D01*
X149060496Y-116272993D01*
X149068554Y-116250471D01*
X149078782Y-116228847D01*
X149091079Y-116208330D01*
X149105329Y-116189117D01*
X149121393Y-116171393D01*
X149139117Y-116155329D01*
X149158330Y-116141079D01*
X149178847Y-116128782D01*
X149200471Y-116118554D01*
X149222993Y-116110496D01*
X149246197Y-116104684D01*
X149269858Y-116101174D01*
X149293750Y-116100000D01*
X149781250Y-116100000D01*
X149805142Y-116101174D01*
X149805142Y-116101174D01*
G37*
D11*
X149537500Y-116800000D03*
D12*
X127350000Y-116930000D03*
X127350000Y-112930000D03*
X127350000Y-108930000D03*
X142350000Y-112930000D03*
X142350000Y-108930000D03*
X142350000Y-116930000D03*
D13*
X112400000Y-104200000D03*
X112400000Y-101800000D03*
X90800000Y-104200000D03*
X90800000Y-101700000D03*
D10*
G36*
X141830142Y-72188674D02*
G01*
X141853803Y-72192184D01*
X141877007Y-72197996D01*
X141899529Y-72206054D01*
X141921153Y-72216282D01*
X141941670Y-72228579D01*
X141960883Y-72242829D01*
X141978607Y-72258893D01*
X141994671Y-72276617D01*
X142008921Y-72295830D01*
X142021218Y-72316347D01*
X142031446Y-72337971D01*
X142039504Y-72360493D01*
X142045316Y-72383697D01*
X142048826Y-72407358D01*
X142050000Y-72431250D01*
X142050000Y-72918750D01*
X142048826Y-72942642D01*
X142045316Y-72966303D01*
X142039504Y-72989507D01*
X142031446Y-73012029D01*
X142021218Y-73033653D01*
X142008921Y-73054170D01*
X141994671Y-73073383D01*
X141978607Y-73091107D01*
X141960883Y-73107171D01*
X141941670Y-73121421D01*
X141921153Y-73133718D01*
X141899529Y-73143946D01*
X141877007Y-73152004D01*
X141853803Y-73157816D01*
X141830142Y-73161326D01*
X141806250Y-73162500D01*
X140893750Y-73162500D01*
X140869858Y-73161326D01*
X140846197Y-73157816D01*
X140822993Y-73152004D01*
X140800471Y-73143946D01*
X140778847Y-73133718D01*
X140758330Y-73121421D01*
X140739117Y-73107171D01*
X140721393Y-73091107D01*
X140705329Y-73073383D01*
X140691079Y-73054170D01*
X140678782Y-73033653D01*
X140668554Y-73012029D01*
X140660496Y-72989507D01*
X140654684Y-72966303D01*
X140651174Y-72942642D01*
X140650000Y-72918750D01*
X140650000Y-72431250D01*
X140651174Y-72407358D01*
X140654684Y-72383697D01*
X140660496Y-72360493D01*
X140668554Y-72337971D01*
X140678782Y-72316347D01*
X140691079Y-72295830D01*
X140705329Y-72276617D01*
X140721393Y-72258893D01*
X140739117Y-72242829D01*
X140758330Y-72228579D01*
X140778847Y-72216282D01*
X140800471Y-72206054D01*
X140822993Y-72197996D01*
X140846197Y-72192184D01*
X140869858Y-72188674D01*
X140893750Y-72187500D01*
X141806250Y-72187500D01*
X141830142Y-72188674D01*
X141830142Y-72188674D01*
G37*
D11*
X141350000Y-72675000D03*
D10*
G36*
X141830142Y-70313674D02*
G01*
X141853803Y-70317184D01*
X141877007Y-70322996D01*
X141899529Y-70331054D01*
X141921153Y-70341282D01*
X141941670Y-70353579D01*
X141960883Y-70367829D01*
X141978607Y-70383893D01*
X141994671Y-70401617D01*
X142008921Y-70420830D01*
X142021218Y-70441347D01*
X142031446Y-70462971D01*
X142039504Y-70485493D01*
X142045316Y-70508697D01*
X142048826Y-70532358D01*
X142050000Y-70556250D01*
X142050000Y-71043750D01*
X142048826Y-71067642D01*
X142045316Y-71091303D01*
X142039504Y-71114507D01*
X142031446Y-71137029D01*
X142021218Y-71158653D01*
X142008921Y-71179170D01*
X141994671Y-71198383D01*
X141978607Y-71216107D01*
X141960883Y-71232171D01*
X141941670Y-71246421D01*
X141921153Y-71258718D01*
X141899529Y-71268946D01*
X141877007Y-71277004D01*
X141853803Y-71282816D01*
X141830142Y-71286326D01*
X141806250Y-71287500D01*
X140893750Y-71287500D01*
X140869858Y-71286326D01*
X140846197Y-71282816D01*
X140822993Y-71277004D01*
X140800471Y-71268946D01*
X140778847Y-71258718D01*
X140758330Y-71246421D01*
X140739117Y-71232171D01*
X140721393Y-71216107D01*
X140705329Y-71198383D01*
X140691079Y-71179170D01*
X140678782Y-71158653D01*
X140668554Y-71137029D01*
X140660496Y-71114507D01*
X140654684Y-71091303D01*
X140651174Y-71067642D01*
X140650000Y-71043750D01*
X140650000Y-70556250D01*
X140651174Y-70532358D01*
X140654684Y-70508697D01*
X140660496Y-70485493D01*
X140668554Y-70462971D01*
X140678782Y-70441347D01*
X140691079Y-70420830D01*
X140705329Y-70401617D01*
X140721393Y-70383893D01*
X140739117Y-70367829D01*
X140758330Y-70353579D01*
X140778847Y-70341282D01*
X140800471Y-70331054D01*
X140822993Y-70322996D01*
X140846197Y-70317184D01*
X140869858Y-70313674D01*
X140893750Y-70312500D01*
X141806250Y-70312500D01*
X141830142Y-70313674D01*
X141830142Y-70313674D01*
G37*
D11*
X141350000Y-70800000D03*
D10*
G36*
X142280142Y-65826174D02*
G01*
X142303803Y-65829684D01*
X142327007Y-65835496D01*
X142349529Y-65843554D01*
X142371153Y-65853782D01*
X142391670Y-65866079D01*
X142410883Y-65880329D01*
X142428607Y-65896393D01*
X142444671Y-65914117D01*
X142458921Y-65933330D01*
X142471218Y-65953847D01*
X142481446Y-65975471D01*
X142489504Y-65997993D01*
X142495316Y-66021197D01*
X142498826Y-66044858D01*
X142500000Y-66068750D01*
X142500000Y-66556250D01*
X142498826Y-66580142D01*
X142495316Y-66603803D01*
X142489504Y-66627007D01*
X142481446Y-66649529D01*
X142471218Y-66671153D01*
X142458921Y-66691670D01*
X142444671Y-66710883D01*
X142428607Y-66728607D01*
X142410883Y-66744671D01*
X142391670Y-66758921D01*
X142371153Y-66771218D01*
X142349529Y-66781446D01*
X142327007Y-66789504D01*
X142303803Y-66795316D01*
X142280142Y-66798826D01*
X142256250Y-66800000D01*
X141343750Y-66800000D01*
X141319858Y-66798826D01*
X141296197Y-66795316D01*
X141272993Y-66789504D01*
X141250471Y-66781446D01*
X141228847Y-66771218D01*
X141208330Y-66758921D01*
X141189117Y-66744671D01*
X141171393Y-66728607D01*
X141155329Y-66710883D01*
X141141079Y-66691670D01*
X141128782Y-66671153D01*
X141118554Y-66649529D01*
X141110496Y-66627007D01*
X141104684Y-66603803D01*
X141101174Y-66580142D01*
X141100000Y-66556250D01*
X141100000Y-66068750D01*
X141101174Y-66044858D01*
X141104684Y-66021197D01*
X141110496Y-65997993D01*
X141118554Y-65975471D01*
X141128782Y-65953847D01*
X141141079Y-65933330D01*
X141155329Y-65914117D01*
X141171393Y-65896393D01*
X141189117Y-65880329D01*
X141208330Y-65866079D01*
X141228847Y-65853782D01*
X141250471Y-65843554D01*
X141272993Y-65835496D01*
X141296197Y-65829684D01*
X141319858Y-65826174D01*
X141343750Y-65825000D01*
X142256250Y-65825000D01*
X142280142Y-65826174D01*
X142280142Y-65826174D01*
G37*
D11*
X141800000Y-66312500D03*
D10*
G36*
X142280142Y-67701174D02*
G01*
X142303803Y-67704684D01*
X142327007Y-67710496D01*
X142349529Y-67718554D01*
X142371153Y-67728782D01*
X142391670Y-67741079D01*
X142410883Y-67755329D01*
X142428607Y-67771393D01*
X142444671Y-67789117D01*
X142458921Y-67808330D01*
X142471218Y-67828847D01*
X142481446Y-67850471D01*
X142489504Y-67872993D01*
X142495316Y-67896197D01*
X142498826Y-67919858D01*
X142500000Y-67943750D01*
X142500000Y-68431250D01*
X142498826Y-68455142D01*
X142495316Y-68478803D01*
X142489504Y-68502007D01*
X142481446Y-68524529D01*
X142471218Y-68546153D01*
X142458921Y-68566670D01*
X142444671Y-68585883D01*
X142428607Y-68603607D01*
X142410883Y-68619671D01*
X142391670Y-68633921D01*
X142371153Y-68646218D01*
X142349529Y-68656446D01*
X142327007Y-68664504D01*
X142303803Y-68670316D01*
X142280142Y-68673826D01*
X142256250Y-68675000D01*
X141343750Y-68675000D01*
X141319858Y-68673826D01*
X141296197Y-68670316D01*
X141272993Y-68664504D01*
X141250471Y-68656446D01*
X141228847Y-68646218D01*
X141208330Y-68633921D01*
X141189117Y-68619671D01*
X141171393Y-68603607D01*
X141155329Y-68585883D01*
X141141079Y-68566670D01*
X141128782Y-68546153D01*
X141118554Y-68524529D01*
X141110496Y-68502007D01*
X141104684Y-68478803D01*
X141101174Y-68455142D01*
X141100000Y-68431250D01*
X141100000Y-67943750D01*
X141101174Y-67919858D01*
X141104684Y-67896197D01*
X141110496Y-67872993D01*
X141118554Y-67850471D01*
X141128782Y-67828847D01*
X141141079Y-67808330D01*
X141155329Y-67789117D01*
X141171393Y-67771393D01*
X141189117Y-67755329D01*
X141208330Y-67741079D01*
X141228847Y-67728782D01*
X141250471Y-67718554D01*
X141272993Y-67710496D01*
X141296197Y-67704684D01*
X141319858Y-67701174D01*
X141343750Y-67700000D01*
X142256250Y-67700000D01*
X142280142Y-67701174D01*
X142280142Y-67701174D01*
G37*
D11*
X141800000Y-68187500D03*
D10*
G36*
X147930142Y-112101174D02*
G01*
X147953803Y-112104684D01*
X147977007Y-112110496D01*
X147999529Y-112118554D01*
X148021153Y-112128782D01*
X148041670Y-112141079D01*
X148060883Y-112155329D01*
X148078607Y-112171393D01*
X148094671Y-112189117D01*
X148108921Y-112208330D01*
X148121218Y-112228847D01*
X148131446Y-112250471D01*
X148139504Y-112272993D01*
X148145316Y-112296197D01*
X148148826Y-112319858D01*
X148150000Y-112343750D01*
X148150000Y-113256250D01*
X148148826Y-113280142D01*
X148145316Y-113303803D01*
X148139504Y-113327007D01*
X148131446Y-113349529D01*
X148121218Y-113371153D01*
X148108921Y-113391670D01*
X148094671Y-113410883D01*
X148078607Y-113428607D01*
X148060883Y-113444671D01*
X148041670Y-113458921D01*
X148021153Y-113471218D01*
X147999529Y-113481446D01*
X147977007Y-113489504D01*
X147953803Y-113495316D01*
X147930142Y-113498826D01*
X147906250Y-113500000D01*
X147418750Y-113500000D01*
X147394858Y-113498826D01*
X147371197Y-113495316D01*
X147347993Y-113489504D01*
X147325471Y-113481446D01*
X147303847Y-113471218D01*
X147283330Y-113458921D01*
X147264117Y-113444671D01*
X147246393Y-113428607D01*
X147230329Y-113410883D01*
X147216079Y-113391670D01*
X147203782Y-113371153D01*
X147193554Y-113349529D01*
X147185496Y-113327007D01*
X147179684Y-113303803D01*
X147176174Y-113280142D01*
X147175000Y-113256250D01*
X147175000Y-112343750D01*
X147176174Y-112319858D01*
X147179684Y-112296197D01*
X147185496Y-112272993D01*
X147193554Y-112250471D01*
X147203782Y-112228847D01*
X147216079Y-112208330D01*
X147230329Y-112189117D01*
X147246393Y-112171393D01*
X147264117Y-112155329D01*
X147283330Y-112141079D01*
X147303847Y-112128782D01*
X147325471Y-112118554D01*
X147347993Y-112110496D01*
X147371197Y-112104684D01*
X147394858Y-112101174D01*
X147418750Y-112100000D01*
X147906250Y-112100000D01*
X147930142Y-112101174D01*
X147930142Y-112101174D01*
G37*
D11*
X147662500Y-112800000D03*
D10*
G36*
X149805142Y-112101174D02*
G01*
X149828803Y-112104684D01*
X149852007Y-112110496D01*
X149874529Y-112118554D01*
X149896153Y-112128782D01*
X149916670Y-112141079D01*
X149935883Y-112155329D01*
X149953607Y-112171393D01*
X149969671Y-112189117D01*
X149983921Y-112208330D01*
X149996218Y-112228847D01*
X150006446Y-112250471D01*
X150014504Y-112272993D01*
X150020316Y-112296197D01*
X150023826Y-112319858D01*
X150025000Y-112343750D01*
X150025000Y-113256250D01*
X150023826Y-113280142D01*
X150020316Y-113303803D01*
X150014504Y-113327007D01*
X150006446Y-113349529D01*
X149996218Y-113371153D01*
X149983921Y-113391670D01*
X149969671Y-113410883D01*
X149953607Y-113428607D01*
X149935883Y-113444671D01*
X149916670Y-113458921D01*
X149896153Y-113471218D01*
X149874529Y-113481446D01*
X149852007Y-113489504D01*
X149828803Y-113495316D01*
X149805142Y-113498826D01*
X149781250Y-113500000D01*
X149293750Y-113500000D01*
X149269858Y-113498826D01*
X149246197Y-113495316D01*
X149222993Y-113489504D01*
X149200471Y-113481446D01*
X149178847Y-113471218D01*
X149158330Y-113458921D01*
X149139117Y-113444671D01*
X149121393Y-113428607D01*
X149105329Y-113410883D01*
X149091079Y-113391670D01*
X149078782Y-113371153D01*
X149068554Y-113349529D01*
X149060496Y-113327007D01*
X149054684Y-113303803D01*
X149051174Y-113280142D01*
X149050000Y-113256250D01*
X149050000Y-112343750D01*
X149051174Y-112319858D01*
X149054684Y-112296197D01*
X149060496Y-112272993D01*
X149068554Y-112250471D01*
X149078782Y-112228847D01*
X149091079Y-112208330D01*
X149105329Y-112189117D01*
X149121393Y-112171393D01*
X149139117Y-112155329D01*
X149158330Y-112141079D01*
X149178847Y-112128782D01*
X149200471Y-112118554D01*
X149222993Y-112110496D01*
X149246197Y-112104684D01*
X149269858Y-112101174D01*
X149293750Y-112100000D01*
X149781250Y-112100000D01*
X149805142Y-112101174D01*
X149805142Y-112101174D01*
G37*
D11*
X149537500Y-112800000D03*
D10*
G36*
X148030142Y-108301174D02*
G01*
X148053803Y-108304684D01*
X148077007Y-108310496D01*
X148099529Y-108318554D01*
X148121153Y-108328782D01*
X148141670Y-108341079D01*
X148160883Y-108355329D01*
X148178607Y-108371393D01*
X148194671Y-108389117D01*
X148208921Y-108408330D01*
X148221218Y-108428847D01*
X148231446Y-108450471D01*
X148239504Y-108472993D01*
X148245316Y-108496197D01*
X148248826Y-108519858D01*
X148250000Y-108543750D01*
X148250000Y-109456250D01*
X148248826Y-109480142D01*
X148245316Y-109503803D01*
X148239504Y-109527007D01*
X148231446Y-109549529D01*
X148221218Y-109571153D01*
X148208921Y-109591670D01*
X148194671Y-109610883D01*
X148178607Y-109628607D01*
X148160883Y-109644671D01*
X148141670Y-109658921D01*
X148121153Y-109671218D01*
X148099529Y-109681446D01*
X148077007Y-109689504D01*
X148053803Y-109695316D01*
X148030142Y-109698826D01*
X148006250Y-109700000D01*
X147518750Y-109700000D01*
X147494858Y-109698826D01*
X147471197Y-109695316D01*
X147447993Y-109689504D01*
X147425471Y-109681446D01*
X147403847Y-109671218D01*
X147383330Y-109658921D01*
X147364117Y-109644671D01*
X147346393Y-109628607D01*
X147330329Y-109610883D01*
X147316079Y-109591670D01*
X147303782Y-109571153D01*
X147293554Y-109549529D01*
X147285496Y-109527007D01*
X147279684Y-109503803D01*
X147276174Y-109480142D01*
X147275000Y-109456250D01*
X147275000Y-108543750D01*
X147276174Y-108519858D01*
X147279684Y-108496197D01*
X147285496Y-108472993D01*
X147293554Y-108450471D01*
X147303782Y-108428847D01*
X147316079Y-108408330D01*
X147330329Y-108389117D01*
X147346393Y-108371393D01*
X147364117Y-108355329D01*
X147383330Y-108341079D01*
X147403847Y-108328782D01*
X147425471Y-108318554D01*
X147447993Y-108310496D01*
X147471197Y-108304684D01*
X147494858Y-108301174D01*
X147518750Y-108300000D01*
X148006250Y-108300000D01*
X148030142Y-108301174D01*
X148030142Y-108301174D01*
G37*
D11*
X147762500Y-109000000D03*
D10*
G36*
X149905142Y-108301174D02*
G01*
X149928803Y-108304684D01*
X149952007Y-108310496D01*
X149974529Y-108318554D01*
X149996153Y-108328782D01*
X150016670Y-108341079D01*
X150035883Y-108355329D01*
X150053607Y-108371393D01*
X150069671Y-108389117D01*
X150083921Y-108408330D01*
X150096218Y-108428847D01*
X150106446Y-108450471D01*
X150114504Y-108472993D01*
X150120316Y-108496197D01*
X150123826Y-108519858D01*
X150125000Y-108543750D01*
X150125000Y-109456250D01*
X150123826Y-109480142D01*
X150120316Y-109503803D01*
X150114504Y-109527007D01*
X150106446Y-109549529D01*
X150096218Y-109571153D01*
X150083921Y-109591670D01*
X150069671Y-109610883D01*
X150053607Y-109628607D01*
X150035883Y-109644671D01*
X150016670Y-109658921D01*
X149996153Y-109671218D01*
X149974529Y-109681446D01*
X149952007Y-109689504D01*
X149928803Y-109695316D01*
X149905142Y-109698826D01*
X149881250Y-109700000D01*
X149393750Y-109700000D01*
X149369858Y-109698826D01*
X149346197Y-109695316D01*
X149322993Y-109689504D01*
X149300471Y-109681446D01*
X149278847Y-109671218D01*
X149258330Y-109658921D01*
X149239117Y-109644671D01*
X149221393Y-109628607D01*
X149205329Y-109610883D01*
X149191079Y-109591670D01*
X149178782Y-109571153D01*
X149168554Y-109549529D01*
X149160496Y-109527007D01*
X149154684Y-109503803D01*
X149151174Y-109480142D01*
X149150000Y-109456250D01*
X149150000Y-108543750D01*
X149151174Y-108519858D01*
X149154684Y-108496197D01*
X149160496Y-108472993D01*
X149168554Y-108450471D01*
X149178782Y-108428847D01*
X149191079Y-108408330D01*
X149205329Y-108389117D01*
X149221393Y-108371393D01*
X149239117Y-108355329D01*
X149258330Y-108341079D01*
X149278847Y-108328782D01*
X149300471Y-108318554D01*
X149322993Y-108310496D01*
X149346197Y-108304684D01*
X149369858Y-108301174D01*
X149393750Y-108300000D01*
X149881250Y-108300000D01*
X149905142Y-108301174D01*
X149905142Y-108301174D01*
G37*
D11*
X149637500Y-109000000D03*
D10*
G36*
X122092642Y-116001174D02*
G01*
X122116303Y-116004684D01*
X122139507Y-116010496D01*
X122162029Y-116018554D01*
X122183653Y-116028782D01*
X122204170Y-116041079D01*
X122223383Y-116055329D01*
X122241107Y-116071393D01*
X122257171Y-116089117D01*
X122271421Y-116108330D01*
X122283718Y-116128847D01*
X122293946Y-116150471D01*
X122302004Y-116172993D01*
X122307816Y-116196197D01*
X122311326Y-116219858D01*
X122312500Y-116243750D01*
X122312500Y-117156250D01*
X122311326Y-117180142D01*
X122307816Y-117203803D01*
X122302004Y-117227007D01*
X122293946Y-117249529D01*
X122283718Y-117271153D01*
X122271421Y-117291670D01*
X122257171Y-117310883D01*
X122241107Y-117328607D01*
X122223383Y-117344671D01*
X122204170Y-117358921D01*
X122183653Y-117371218D01*
X122162029Y-117381446D01*
X122139507Y-117389504D01*
X122116303Y-117395316D01*
X122092642Y-117398826D01*
X122068750Y-117400000D01*
X121581250Y-117400000D01*
X121557358Y-117398826D01*
X121533697Y-117395316D01*
X121510493Y-117389504D01*
X121487971Y-117381446D01*
X121466347Y-117371218D01*
X121445830Y-117358921D01*
X121426617Y-117344671D01*
X121408893Y-117328607D01*
X121392829Y-117310883D01*
X121378579Y-117291670D01*
X121366282Y-117271153D01*
X121356054Y-117249529D01*
X121347996Y-117227007D01*
X121342184Y-117203803D01*
X121338674Y-117180142D01*
X121337500Y-117156250D01*
X121337500Y-116243750D01*
X121338674Y-116219858D01*
X121342184Y-116196197D01*
X121347996Y-116172993D01*
X121356054Y-116150471D01*
X121366282Y-116128847D01*
X121378579Y-116108330D01*
X121392829Y-116089117D01*
X121408893Y-116071393D01*
X121426617Y-116055329D01*
X121445830Y-116041079D01*
X121466347Y-116028782D01*
X121487971Y-116018554D01*
X121510493Y-116010496D01*
X121533697Y-116004684D01*
X121557358Y-116001174D01*
X121581250Y-116000000D01*
X122068750Y-116000000D01*
X122092642Y-116001174D01*
X122092642Y-116001174D01*
G37*
D11*
X121825000Y-116700000D03*
D10*
G36*
X120217642Y-116001174D02*
G01*
X120241303Y-116004684D01*
X120264507Y-116010496D01*
X120287029Y-116018554D01*
X120308653Y-116028782D01*
X120329170Y-116041079D01*
X120348383Y-116055329D01*
X120366107Y-116071393D01*
X120382171Y-116089117D01*
X120396421Y-116108330D01*
X120408718Y-116128847D01*
X120418946Y-116150471D01*
X120427004Y-116172993D01*
X120432816Y-116196197D01*
X120436326Y-116219858D01*
X120437500Y-116243750D01*
X120437500Y-117156250D01*
X120436326Y-117180142D01*
X120432816Y-117203803D01*
X120427004Y-117227007D01*
X120418946Y-117249529D01*
X120408718Y-117271153D01*
X120396421Y-117291670D01*
X120382171Y-117310883D01*
X120366107Y-117328607D01*
X120348383Y-117344671D01*
X120329170Y-117358921D01*
X120308653Y-117371218D01*
X120287029Y-117381446D01*
X120264507Y-117389504D01*
X120241303Y-117395316D01*
X120217642Y-117398826D01*
X120193750Y-117400000D01*
X119706250Y-117400000D01*
X119682358Y-117398826D01*
X119658697Y-117395316D01*
X119635493Y-117389504D01*
X119612971Y-117381446D01*
X119591347Y-117371218D01*
X119570830Y-117358921D01*
X119551617Y-117344671D01*
X119533893Y-117328607D01*
X119517829Y-117310883D01*
X119503579Y-117291670D01*
X119491282Y-117271153D01*
X119481054Y-117249529D01*
X119472996Y-117227007D01*
X119467184Y-117203803D01*
X119463674Y-117180142D01*
X119462500Y-117156250D01*
X119462500Y-116243750D01*
X119463674Y-116219858D01*
X119467184Y-116196197D01*
X119472996Y-116172993D01*
X119481054Y-116150471D01*
X119491282Y-116128847D01*
X119503579Y-116108330D01*
X119517829Y-116089117D01*
X119533893Y-116071393D01*
X119551617Y-116055329D01*
X119570830Y-116041079D01*
X119591347Y-116028782D01*
X119612971Y-116018554D01*
X119635493Y-116010496D01*
X119658697Y-116004684D01*
X119682358Y-116001174D01*
X119706250Y-116000000D01*
X120193750Y-116000000D01*
X120217642Y-116001174D01*
X120217642Y-116001174D01*
G37*
D11*
X119950000Y-116700000D03*
D10*
G36*
X122055142Y-112201174D02*
G01*
X122078803Y-112204684D01*
X122102007Y-112210496D01*
X122124529Y-112218554D01*
X122146153Y-112228782D01*
X122166670Y-112241079D01*
X122185883Y-112255329D01*
X122203607Y-112271393D01*
X122219671Y-112289117D01*
X122233921Y-112308330D01*
X122246218Y-112328847D01*
X122256446Y-112350471D01*
X122264504Y-112372993D01*
X122270316Y-112396197D01*
X122273826Y-112419858D01*
X122275000Y-112443750D01*
X122275000Y-113356250D01*
X122273826Y-113380142D01*
X122270316Y-113403803D01*
X122264504Y-113427007D01*
X122256446Y-113449529D01*
X122246218Y-113471153D01*
X122233921Y-113491670D01*
X122219671Y-113510883D01*
X122203607Y-113528607D01*
X122185883Y-113544671D01*
X122166670Y-113558921D01*
X122146153Y-113571218D01*
X122124529Y-113581446D01*
X122102007Y-113589504D01*
X122078803Y-113595316D01*
X122055142Y-113598826D01*
X122031250Y-113600000D01*
X121543750Y-113600000D01*
X121519858Y-113598826D01*
X121496197Y-113595316D01*
X121472993Y-113589504D01*
X121450471Y-113581446D01*
X121428847Y-113571218D01*
X121408330Y-113558921D01*
X121389117Y-113544671D01*
X121371393Y-113528607D01*
X121355329Y-113510883D01*
X121341079Y-113491670D01*
X121328782Y-113471153D01*
X121318554Y-113449529D01*
X121310496Y-113427007D01*
X121304684Y-113403803D01*
X121301174Y-113380142D01*
X121300000Y-113356250D01*
X121300000Y-112443750D01*
X121301174Y-112419858D01*
X121304684Y-112396197D01*
X121310496Y-112372993D01*
X121318554Y-112350471D01*
X121328782Y-112328847D01*
X121341079Y-112308330D01*
X121355329Y-112289117D01*
X121371393Y-112271393D01*
X121389117Y-112255329D01*
X121408330Y-112241079D01*
X121428847Y-112228782D01*
X121450471Y-112218554D01*
X121472993Y-112210496D01*
X121496197Y-112204684D01*
X121519858Y-112201174D01*
X121543750Y-112200000D01*
X122031250Y-112200000D01*
X122055142Y-112201174D01*
X122055142Y-112201174D01*
G37*
D11*
X121787500Y-112900000D03*
D10*
G36*
X120180142Y-112201174D02*
G01*
X120203803Y-112204684D01*
X120227007Y-112210496D01*
X120249529Y-112218554D01*
X120271153Y-112228782D01*
X120291670Y-112241079D01*
X120310883Y-112255329D01*
X120328607Y-112271393D01*
X120344671Y-112289117D01*
X120358921Y-112308330D01*
X120371218Y-112328847D01*
X120381446Y-112350471D01*
X120389504Y-112372993D01*
X120395316Y-112396197D01*
X120398826Y-112419858D01*
X120400000Y-112443750D01*
X120400000Y-113356250D01*
X120398826Y-113380142D01*
X120395316Y-113403803D01*
X120389504Y-113427007D01*
X120381446Y-113449529D01*
X120371218Y-113471153D01*
X120358921Y-113491670D01*
X120344671Y-113510883D01*
X120328607Y-113528607D01*
X120310883Y-113544671D01*
X120291670Y-113558921D01*
X120271153Y-113571218D01*
X120249529Y-113581446D01*
X120227007Y-113589504D01*
X120203803Y-113595316D01*
X120180142Y-113598826D01*
X120156250Y-113600000D01*
X119668750Y-113600000D01*
X119644858Y-113598826D01*
X119621197Y-113595316D01*
X119597993Y-113589504D01*
X119575471Y-113581446D01*
X119553847Y-113571218D01*
X119533330Y-113558921D01*
X119514117Y-113544671D01*
X119496393Y-113528607D01*
X119480329Y-113510883D01*
X119466079Y-113491670D01*
X119453782Y-113471153D01*
X119443554Y-113449529D01*
X119435496Y-113427007D01*
X119429684Y-113403803D01*
X119426174Y-113380142D01*
X119425000Y-113356250D01*
X119425000Y-112443750D01*
X119426174Y-112419858D01*
X119429684Y-112396197D01*
X119435496Y-112372993D01*
X119443554Y-112350471D01*
X119453782Y-112328847D01*
X119466079Y-112308330D01*
X119480329Y-112289117D01*
X119496393Y-112271393D01*
X119514117Y-112255329D01*
X119533330Y-112241079D01*
X119553847Y-112228782D01*
X119575471Y-112218554D01*
X119597993Y-112210496D01*
X119621197Y-112204684D01*
X119644858Y-112201174D01*
X119668750Y-112200000D01*
X120156250Y-112200000D01*
X120180142Y-112201174D01*
X120180142Y-112201174D01*
G37*
D11*
X119912500Y-112900000D03*
M02*
