G04 #@! TF.GenerationSoftware,KiCad,Pcbnew,(5.1.4-0)*
G04 #@! TF.CreationDate,2020-03-10T11:39:59-04:00*
G04 #@! TF.ProjectId,joystick,6a6f7973-7469-4636-9b2e-6b696361645f,rev?*
G04 #@! TF.SameCoordinates,Original*
G04 #@! TF.FileFunction,Soldermask,Bot*
G04 #@! TF.FilePolarity,Negative*
%FSLAX46Y46*%
G04 Gerber Fmt 4.6, Leading zero omitted, Abs format (unit mm)*
G04 Created by KiCad (PCBNEW (5.1.4-0)) date 2020-03-10 11:39:59*
%MOMM*%
%LPD*%
G04 APERTURE LIST*
%ADD10C,0.100000*%
G04 APERTURE END LIST*
D10*
G36*
X166370866Y-120135527D02*
G01*
X166554501Y-120172054D01*
X166900461Y-120315356D01*
X167211817Y-120523397D01*
X167476603Y-120788183D01*
X167684644Y-121099539D01*
X167827946Y-121445499D01*
X167901000Y-121812768D01*
X167901000Y-122187232D01*
X167827946Y-122554501D01*
X167684644Y-122900461D01*
X167476603Y-123211817D01*
X167211817Y-123476603D01*
X166900461Y-123684644D01*
X166554501Y-123827946D01*
X166187233Y-123901000D01*
X165812767Y-123901000D01*
X165445499Y-123827946D01*
X165099539Y-123684644D01*
X164788183Y-123476603D01*
X164523397Y-123211817D01*
X164315356Y-122900461D01*
X164172054Y-122554501D01*
X164099000Y-122187232D01*
X164099000Y-121812768D01*
X164172054Y-121445499D01*
X164315356Y-121099539D01*
X164523397Y-120788183D01*
X164788183Y-120523397D01*
X165099539Y-120315356D01*
X165445499Y-120172054D01*
X165629134Y-120135527D01*
X165812767Y-120099000D01*
X166187233Y-120099000D01*
X166370866Y-120135527D01*
X166370866Y-120135527D01*
G37*
G36*
X84370866Y-120135527D02*
G01*
X84554501Y-120172054D01*
X84900461Y-120315356D01*
X85211817Y-120523397D01*
X85476603Y-120788183D01*
X85684644Y-121099539D01*
X85827946Y-121445499D01*
X85901000Y-121812768D01*
X85901000Y-122187232D01*
X85827946Y-122554501D01*
X85684644Y-122900461D01*
X85476603Y-123211817D01*
X85211817Y-123476603D01*
X84900461Y-123684644D01*
X84554501Y-123827946D01*
X84187233Y-123901000D01*
X83812767Y-123901000D01*
X83445499Y-123827946D01*
X83099539Y-123684644D01*
X82788183Y-123476603D01*
X82523397Y-123211817D01*
X82315356Y-122900461D01*
X82172054Y-122554501D01*
X82099000Y-122187232D01*
X82099000Y-121812768D01*
X82172054Y-121445499D01*
X82315356Y-121099539D01*
X82523397Y-120788183D01*
X82788183Y-120523397D01*
X83099539Y-120315356D01*
X83445499Y-120172054D01*
X83629134Y-120135527D01*
X83812767Y-120099000D01*
X84187233Y-120099000D01*
X84370866Y-120135527D01*
X84370866Y-120135527D01*
G37*
G36*
X140601000Y-119511000D02*
G01*
X136099000Y-119511000D01*
X136099000Y-117409000D01*
X140601000Y-117409000D01*
X140601000Y-119511000D01*
X140601000Y-119511000D01*
G37*
G36*
X133601000Y-119511000D02*
G01*
X129099000Y-119511000D01*
X129099000Y-117409000D01*
X133601000Y-117409000D01*
X133601000Y-119511000D01*
X133601000Y-119511000D01*
G37*
G36*
X131656564Y-114919389D02*
G01*
X131847833Y-114998615D01*
X131847835Y-114998616D01*
X132019973Y-115113635D01*
X132166365Y-115260027D01*
X132281385Y-115432167D01*
X132360611Y-115623436D01*
X132401000Y-115826484D01*
X132401000Y-116033516D01*
X132360611Y-116236564D01*
X132281385Y-116427833D01*
X132281384Y-116427835D01*
X132166365Y-116599973D01*
X132019973Y-116746365D01*
X131847835Y-116861384D01*
X131847834Y-116861385D01*
X131847833Y-116861385D01*
X131656564Y-116940611D01*
X131453516Y-116981000D01*
X131246484Y-116981000D01*
X131043436Y-116940611D01*
X130852167Y-116861385D01*
X130852166Y-116861385D01*
X130852165Y-116861384D01*
X130680027Y-116746365D01*
X130533635Y-116599973D01*
X130418616Y-116427835D01*
X130418615Y-116427833D01*
X130339389Y-116236564D01*
X130299000Y-116033516D01*
X130299000Y-115826484D01*
X130339389Y-115623436D01*
X130418615Y-115432167D01*
X130533635Y-115260027D01*
X130680027Y-115113635D01*
X130852165Y-114998616D01*
X130852167Y-114998615D01*
X131043436Y-114919389D01*
X131246484Y-114879000D01*
X131453516Y-114879000D01*
X131656564Y-114919389D01*
X131656564Y-114919389D01*
G37*
G36*
X138656564Y-108919389D02*
G01*
X138847833Y-108998615D01*
X138847835Y-108998616D01*
X138897127Y-109031552D01*
X139019973Y-109113635D01*
X139166365Y-109260027D01*
X139281385Y-109432167D01*
X139360611Y-109623436D01*
X139401000Y-109826484D01*
X139401000Y-110033516D01*
X139360611Y-110236564D01*
X139281385Y-110427833D01*
X139281384Y-110427835D01*
X139166365Y-110599973D01*
X139019973Y-110746365D01*
X138847835Y-110861384D01*
X138847834Y-110861385D01*
X138847833Y-110861385D01*
X138656564Y-110940611D01*
X138453516Y-110981000D01*
X138246484Y-110981000D01*
X138043436Y-110940611D01*
X137852167Y-110861385D01*
X137852166Y-110861385D01*
X137852165Y-110861384D01*
X137680027Y-110746365D01*
X137533635Y-110599973D01*
X137418616Y-110427835D01*
X137418615Y-110427833D01*
X137339389Y-110236564D01*
X137299000Y-110033516D01*
X137299000Y-109826484D01*
X137339389Y-109623436D01*
X137418615Y-109432167D01*
X137533635Y-109260027D01*
X137680027Y-109113635D01*
X137802873Y-109031552D01*
X137852165Y-108998616D01*
X137852167Y-108998615D01*
X138043436Y-108919389D01*
X138246484Y-108879000D01*
X138453516Y-108879000D01*
X138656564Y-108919389D01*
X138656564Y-108919389D01*
G37*
G36*
X124181552Y-108466331D02*
G01*
X124263627Y-108500328D01*
X124263629Y-108500329D01*
X124300813Y-108525175D01*
X124337495Y-108549685D01*
X124400315Y-108612505D01*
X124449672Y-108686373D01*
X124483669Y-108768448D01*
X124501000Y-108855579D01*
X124501000Y-108944421D01*
X124483669Y-109031552D01*
X124449672Y-109113627D01*
X124449671Y-109113629D01*
X124400314Y-109187496D01*
X124337496Y-109250314D01*
X124263629Y-109299671D01*
X124263628Y-109299672D01*
X124263627Y-109299672D01*
X124181552Y-109333669D01*
X124094421Y-109351000D01*
X124005579Y-109351000D01*
X123918448Y-109333669D01*
X123836373Y-109299672D01*
X123836372Y-109299672D01*
X123836371Y-109299671D01*
X123762504Y-109250314D01*
X123699686Y-109187496D01*
X123650329Y-109113629D01*
X123650328Y-109113627D01*
X123616331Y-109031552D01*
X123599000Y-108944421D01*
X123599000Y-108855579D01*
X123616331Y-108768448D01*
X123650328Y-108686373D01*
X123699685Y-108612505D01*
X123762505Y-108549685D01*
X123799187Y-108525175D01*
X123836371Y-108500329D01*
X123836373Y-108500328D01*
X123918448Y-108466331D01*
X124005579Y-108449000D01*
X124094421Y-108449000D01*
X124181552Y-108466331D01*
X124181552Y-108466331D01*
G37*
G36*
X137101000Y-108451000D02*
G01*
X132599000Y-108451000D01*
X132599000Y-106349000D01*
X137101000Y-106349000D01*
X137101000Y-108451000D01*
X137101000Y-108451000D01*
G37*
G36*
X112431552Y-106516331D02*
G01*
X112513627Y-106550328D01*
X112513629Y-106550329D01*
X112550813Y-106575175D01*
X112587495Y-106599685D01*
X112650315Y-106662505D01*
X112699672Y-106736373D01*
X112733669Y-106818448D01*
X112751000Y-106905579D01*
X112751000Y-106994421D01*
X112733669Y-107081552D01*
X112699672Y-107163627D01*
X112699671Y-107163629D01*
X112650314Y-107237496D01*
X112587496Y-107300314D01*
X112513629Y-107349671D01*
X112513628Y-107349672D01*
X112513627Y-107349672D01*
X112431552Y-107383669D01*
X112344421Y-107401000D01*
X112255579Y-107401000D01*
X112168448Y-107383669D01*
X112086373Y-107349672D01*
X112086372Y-107349672D01*
X112086371Y-107349671D01*
X112012504Y-107300314D01*
X111949686Y-107237496D01*
X111900329Y-107163629D01*
X111900328Y-107163627D01*
X111866331Y-107081552D01*
X111849000Y-106994421D01*
X111849000Y-106905579D01*
X111866331Y-106818448D01*
X111900328Y-106736373D01*
X111949685Y-106662505D01*
X112012505Y-106599685D01*
X112049187Y-106575175D01*
X112086371Y-106550329D01*
X112086373Y-106550328D01*
X112168448Y-106516331D01*
X112255579Y-106499000D01*
X112344421Y-106499000D01*
X112431552Y-106516331D01*
X112431552Y-106516331D01*
G37*
G36*
X108242831Y-103627841D02*
G01*
X108387826Y-103656682D01*
X108500974Y-103703550D01*
X108660989Y-103769830D01*
X108660990Y-103769831D01*
X108906832Y-103934097D01*
X109115903Y-104143168D01*
X109115904Y-104143170D01*
X109280170Y-104389011D01*
X109332908Y-104516332D01*
X109393318Y-104662174D01*
X109408077Y-104736373D01*
X109451000Y-104952163D01*
X109451000Y-105247837D01*
X109393318Y-105537825D01*
X109280170Y-105810989D01*
X109280169Y-105810990D01*
X109115903Y-106056832D01*
X108906832Y-106265903D01*
X108783076Y-106348594D01*
X108660989Y-106430170D01*
X108500974Y-106496450D01*
X108387826Y-106543318D01*
X108242831Y-106572159D01*
X108097837Y-106601000D01*
X107802163Y-106601000D01*
X107657169Y-106572159D01*
X107512174Y-106543318D01*
X107399026Y-106496450D01*
X107239011Y-106430170D01*
X107116924Y-106348594D01*
X106993168Y-106265903D01*
X106784097Y-106056832D01*
X106619831Y-105810990D01*
X106619830Y-105810989D01*
X106506682Y-105537825D01*
X106449000Y-105247837D01*
X106449000Y-104952163D01*
X106491923Y-104736373D01*
X106506682Y-104662174D01*
X106567092Y-104516332D01*
X106619830Y-104389011D01*
X106784096Y-104143170D01*
X106784097Y-104143168D01*
X106993168Y-103934097D01*
X107239010Y-103769831D01*
X107239011Y-103769830D01*
X107399026Y-103703550D01*
X107512174Y-103656682D01*
X107657169Y-103627841D01*
X107802163Y-103599000D01*
X108097837Y-103599000D01*
X108242831Y-103627841D01*
X108242831Y-103627841D01*
G37*
G36*
X95542831Y-103627841D02*
G01*
X95687826Y-103656682D01*
X95800974Y-103703550D01*
X95960989Y-103769830D01*
X95960990Y-103769831D01*
X96206832Y-103934097D01*
X96415903Y-104143168D01*
X96415904Y-104143170D01*
X96580170Y-104389011D01*
X96632908Y-104516332D01*
X96693318Y-104662174D01*
X96708077Y-104736373D01*
X96751000Y-104952163D01*
X96751000Y-105247837D01*
X96693318Y-105537825D01*
X96580170Y-105810989D01*
X96580169Y-105810990D01*
X96415903Y-106056832D01*
X96206832Y-106265903D01*
X96083076Y-106348594D01*
X95960989Y-106430170D01*
X95800974Y-106496450D01*
X95687826Y-106543318D01*
X95542831Y-106572159D01*
X95397837Y-106601000D01*
X95102163Y-106601000D01*
X94957169Y-106572159D01*
X94812174Y-106543318D01*
X94699026Y-106496450D01*
X94539011Y-106430170D01*
X94416924Y-106348594D01*
X94293168Y-106265903D01*
X94084097Y-106056832D01*
X93919831Y-105810990D01*
X93919830Y-105810989D01*
X93806682Y-105537825D01*
X93749000Y-105247837D01*
X93749000Y-104952163D01*
X93791923Y-104736373D01*
X93806682Y-104662174D01*
X93867092Y-104516332D01*
X93919830Y-104389011D01*
X94084096Y-104143170D01*
X94084097Y-104143168D01*
X94293168Y-103934097D01*
X94539010Y-103769831D01*
X94539011Y-103769830D01*
X94699026Y-103703550D01*
X94812174Y-103656682D01*
X94957169Y-103627841D01*
X95102163Y-103599000D01*
X95397837Y-103599000D01*
X95542831Y-103627841D01*
X95542831Y-103627841D01*
G37*
G36*
X153131552Y-104516331D02*
G01*
X153213627Y-104550328D01*
X153213629Y-104550329D01*
X153250813Y-104575175D01*
X153287495Y-104599685D01*
X153350315Y-104662505D01*
X153399672Y-104736373D01*
X153433669Y-104818448D01*
X153451000Y-104905579D01*
X153451000Y-104994421D01*
X153433669Y-105081552D01*
X153399672Y-105163627D01*
X153399671Y-105163629D01*
X153350314Y-105237496D01*
X153287496Y-105300314D01*
X153213629Y-105349671D01*
X153213628Y-105349672D01*
X153213627Y-105349672D01*
X153131552Y-105383669D01*
X153044421Y-105401000D01*
X152955579Y-105401000D01*
X152868448Y-105383669D01*
X152786373Y-105349672D01*
X152786372Y-105349672D01*
X152786371Y-105349671D01*
X152712504Y-105300314D01*
X152649686Y-105237496D01*
X152600329Y-105163629D01*
X152600328Y-105163627D01*
X152566331Y-105081552D01*
X152549000Y-104994421D01*
X152549000Y-104905579D01*
X152566331Y-104818448D01*
X152600328Y-104736373D01*
X152649685Y-104662505D01*
X152712505Y-104599685D01*
X152749187Y-104575175D01*
X152786371Y-104550329D01*
X152786373Y-104550328D01*
X152868448Y-104516331D01*
X152955579Y-104499000D01*
X153044421Y-104499000D01*
X153131552Y-104516331D01*
X153131552Y-104516331D01*
G37*
G36*
X161088228Y-102171703D02*
G01*
X161243100Y-102235853D01*
X161382481Y-102328985D01*
X161501015Y-102447519D01*
X161594147Y-102586900D01*
X161658297Y-102741772D01*
X161691000Y-102906184D01*
X161691000Y-103073816D01*
X161658297Y-103238228D01*
X161594147Y-103393100D01*
X161501015Y-103532481D01*
X161382481Y-103651015D01*
X161243100Y-103744147D01*
X161088228Y-103808297D01*
X160923816Y-103841000D01*
X160756184Y-103841000D01*
X160591772Y-103808297D01*
X160436900Y-103744147D01*
X160297519Y-103651015D01*
X160178985Y-103532481D01*
X160085853Y-103393100D01*
X160021703Y-103238228D01*
X159989000Y-103073816D01*
X159989000Y-102906184D01*
X160021703Y-102741772D01*
X160085853Y-102586900D01*
X160178985Y-102447519D01*
X160297519Y-102328985D01*
X160436900Y-102235853D01*
X160591772Y-102171703D01*
X160756184Y-102139000D01*
X160923816Y-102139000D01*
X161088228Y-102171703D01*
X161088228Y-102171703D01*
G37*
G36*
X145848228Y-102171703D02*
G01*
X146003100Y-102235853D01*
X146142481Y-102328985D01*
X146261015Y-102447519D01*
X146354147Y-102586900D01*
X146418297Y-102741772D01*
X146451000Y-102906184D01*
X146451000Y-103073816D01*
X146418297Y-103238228D01*
X146354147Y-103393100D01*
X146261015Y-103532481D01*
X146142481Y-103651015D01*
X146003100Y-103744147D01*
X145848228Y-103808297D01*
X145683816Y-103841000D01*
X145516184Y-103841000D01*
X145351772Y-103808297D01*
X145196900Y-103744147D01*
X145057519Y-103651015D01*
X144938985Y-103532481D01*
X144845853Y-103393100D01*
X144781703Y-103238228D01*
X144749000Y-103073816D01*
X144749000Y-102906184D01*
X144781703Y-102741772D01*
X144845853Y-102586900D01*
X144938985Y-102447519D01*
X145057519Y-102328985D01*
X145196900Y-102235853D01*
X145351772Y-102171703D01*
X145516184Y-102139000D01*
X145683816Y-102139000D01*
X145848228Y-102171703D01*
X145848228Y-102171703D01*
G37*
G36*
X108242831Y-99427841D02*
G01*
X108387826Y-99456682D01*
X108500974Y-99503550D01*
X108660989Y-99569830D01*
X108660990Y-99569831D01*
X108906832Y-99734097D01*
X109115903Y-99943168D01*
X109115904Y-99943170D01*
X109280170Y-100189011D01*
X109393318Y-100462175D01*
X109451000Y-100752163D01*
X109451000Y-101047837D01*
X109393318Y-101337825D01*
X109280170Y-101610989D01*
X109280169Y-101610990D01*
X109115903Y-101856832D01*
X108906832Y-102065903D01*
X108797434Y-102139000D01*
X108660989Y-102230170D01*
X108500974Y-102296450D01*
X108387826Y-102343318D01*
X108242831Y-102372159D01*
X108097837Y-102401000D01*
X107802163Y-102401000D01*
X107657169Y-102372159D01*
X107512174Y-102343318D01*
X107399026Y-102296450D01*
X107239011Y-102230170D01*
X107102566Y-102139000D01*
X106993168Y-102065903D01*
X106784097Y-101856832D01*
X106619831Y-101610990D01*
X106619830Y-101610989D01*
X106506682Y-101337825D01*
X106449000Y-101047837D01*
X106449000Y-100752163D01*
X106506682Y-100462175D01*
X106619830Y-100189011D01*
X106784096Y-99943170D01*
X106784097Y-99943168D01*
X106993168Y-99734097D01*
X107239010Y-99569831D01*
X107239011Y-99569830D01*
X107399026Y-99503550D01*
X107512174Y-99456682D01*
X107657169Y-99427841D01*
X107802163Y-99399000D01*
X108097837Y-99399000D01*
X108242831Y-99427841D01*
X108242831Y-99427841D01*
G37*
G36*
X95542831Y-99427841D02*
G01*
X95687826Y-99456682D01*
X95800974Y-99503550D01*
X95960989Y-99569830D01*
X95960990Y-99569831D01*
X96206832Y-99734097D01*
X96415903Y-99943168D01*
X96415904Y-99943170D01*
X96580170Y-100189011D01*
X96693318Y-100462175D01*
X96751000Y-100752163D01*
X96751000Y-101047837D01*
X96693318Y-101337825D01*
X96580170Y-101610989D01*
X96580169Y-101610990D01*
X96415903Y-101856832D01*
X96206832Y-102065903D01*
X96097434Y-102139000D01*
X95960989Y-102230170D01*
X95800974Y-102296450D01*
X95687826Y-102343318D01*
X95542831Y-102372159D01*
X95397837Y-102401000D01*
X95102163Y-102401000D01*
X94957169Y-102372159D01*
X94812174Y-102343318D01*
X94699026Y-102296450D01*
X94539011Y-102230170D01*
X94402566Y-102139000D01*
X94293168Y-102065903D01*
X94084097Y-101856832D01*
X93919831Y-101610990D01*
X93919830Y-101610989D01*
X93806682Y-101337825D01*
X93749000Y-101047837D01*
X93749000Y-100752163D01*
X93806682Y-100462175D01*
X93919830Y-100189011D01*
X94084096Y-99943170D01*
X94084097Y-99943168D01*
X94293168Y-99734097D01*
X94539010Y-99569831D01*
X94539011Y-99569830D01*
X94699026Y-99503550D01*
X94812174Y-99456682D01*
X94957169Y-99427841D01*
X95102163Y-99399000D01*
X95397837Y-99399000D01*
X95542831Y-99427841D01*
X95542831Y-99427841D01*
G37*
G36*
X161088228Y-99631703D02*
G01*
X161243100Y-99695853D01*
X161382481Y-99788985D01*
X161501015Y-99907519D01*
X161594147Y-100046900D01*
X161658297Y-100201772D01*
X161691000Y-100366184D01*
X161691000Y-100533816D01*
X161658297Y-100698228D01*
X161594147Y-100853100D01*
X161501015Y-100992481D01*
X161382481Y-101111015D01*
X161243100Y-101204147D01*
X161088228Y-101268297D01*
X160923816Y-101301000D01*
X160756184Y-101301000D01*
X160591772Y-101268297D01*
X160436900Y-101204147D01*
X160297519Y-101111015D01*
X160178985Y-100992481D01*
X160085853Y-100853100D01*
X160021703Y-100698228D01*
X159989000Y-100533816D01*
X159989000Y-100366184D01*
X160021703Y-100201772D01*
X160085853Y-100046900D01*
X160178985Y-99907519D01*
X160297519Y-99788985D01*
X160436900Y-99695853D01*
X160591772Y-99631703D01*
X160756184Y-99599000D01*
X160923816Y-99599000D01*
X161088228Y-99631703D01*
X161088228Y-99631703D01*
G37*
G36*
X145848228Y-99631703D02*
G01*
X146003100Y-99695853D01*
X146142481Y-99788985D01*
X146261015Y-99907519D01*
X146354147Y-100046900D01*
X146418297Y-100201772D01*
X146451000Y-100366184D01*
X146451000Y-100533816D01*
X146418297Y-100698228D01*
X146354147Y-100853100D01*
X146261015Y-100992481D01*
X146142481Y-101111015D01*
X146003100Y-101204147D01*
X145848228Y-101268297D01*
X145683816Y-101301000D01*
X145516184Y-101301000D01*
X145351772Y-101268297D01*
X145196900Y-101204147D01*
X145057519Y-101111015D01*
X144938985Y-100992481D01*
X144845853Y-100853100D01*
X144781703Y-100698228D01*
X144749000Y-100533816D01*
X144749000Y-100366184D01*
X144781703Y-100201772D01*
X144845853Y-100046900D01*
X144938985Y-99907519D01*
X145057519Y-99788985D01*
X145196900Y-99695853D01*
X145351772Y-99631703D01*
X145516184Y-99599000D01*
X145683816Y-99599000D01*
X145848228Y-99631703D01*
X145848228Y-99631703D01*
G37*
G36*
X161088228Y-97091703D02*
G01*
X161243100Y-97155853D01*
X161382481Y-97248985D01*
X161501015Y-97367519D01*
X161594147Y-97506900D01*
X161658297Y-97661772D01*
X161691000Y-97826184D01*
X161691000Y-97993816D01*
X161658297Y-98158228D01*
X161594147Y-98313100D01*
X161501015Y-98452481D01*
X161382481Y-98571015D01*
X161243100Y-98664147D01*
X161088228Y-98728297D01*
X160923816Y-98761000D01*
X160756184Y-98761000D01*
X160591772Y-98728297D01*
X160436900Y-98664147D01*
X160297519Y-98571015D01*
X160178985Y-98452481D01*
X160085853Y-98313100D01*
X160021703Y-98158228D01*
X159989000Y-97993816D01*
X159989000Y-97826184D01*
X160021703Y-97661772D01*
X160085853Y-97506900D01*
X160178985Y-97367519D01*
X160297519Y-97248985D01*
X160436900Y-97155853D01*
X160591772Y-97091703D01*
X160756184Y-97059000D01*
X160923816Y-97059000D01*
X161088228Y-97091703D01*
X161088228Y-97091703D01*
G37*
G36*
X145848228Y-97091703D02*
G01*
X146003100Y-97155853D01*
X146142481Y-97248985D01*
X146261015Y-97367519D01*
X146354147Y-97506900D01*
X146418297Y-97661772D01*
X146451000Y-97826184D01*
X146451000Y-97993816D01*
X146418297Y-98158228D01*
X146354147Y-98313100D01*
X146261015Y-98452481D01*
X146142481Y-98571015D01*
X146003100Y-98664147D01*
X145848228Y-98728297D01*
X145683816Y-98761000D01*
X145516184Y-98761000D01*
X145351772Y-98728297D01*
X145196900Y-98664147D01*
X145057519Y-98571015D01*
X144938985Y-98452481D01*
X144845853Y-98313100D01*
X144781703Y-98158228D01*
X144749000Y-97993816D01*
X144749000Y-97826184D01*
X144781703Y-97661772D01*
X144845853Y-97506900D01*
X144938985Y-97367519D01*
X145057519Y-97248985D01*
X145196900Y-97155853D01*
X145351772Y-97091703D01*
X145516184Y-97059000D01*
X145683816Y-97059000D01*
X145848228Y-97091703D01*
X145848228Y-97091703D01*
G37*
G36*
X161088228Y-94551703D02*
G01*
X161243100Y-94615853D01*
X161382481Y-94708985D01*
X161501015Y-94827519D01*
X161594147Y-94966900D01*
X161658297Y-95121772D01*
X161691000Y-95286184D01*
X161691000Y-95453816D01*
X161658297Y-95618228D01*
X161594147Y-95773100D01*
X161501015Y-95912481D01*
X161382481Y-96031015D01*
X161243100Y-96124147D01*
X161088228Y-96188297D01*
X160923816Y-96221000D01*
X160756184Y-96221000D01*
X160591772Y-96188297D01*
X160436900Y-96124147D01*
X160297519Y-96031015D01*
X160178985Y-95912481D01*
X160085853Y-95773100D01*
X160021703Y-95618228D01*
X159989000Y-95453816D01*
X159989000Y-95286184D01*
X160021703Y-95121772D01*
X160085853Y-94966900D01*
X160178985Y-94827519D01*
X160297519Y-94708985D01*
X160436900Y-94615853D01*
X160591772Y-94551703D01*
X160756184Y-94519000D01*
X160923816Y-94519000D01*
X161088228Y-94551703D01*
X161088228Y-94551703D01*
G37*
G36*
X145848228Y-94551703D02*
G01*
X146003100Y-94615853D01*
X146142481Y-94708985D01*
X146261015Y-94827519D01*
X146354147Y-94966900D01*
X146418297Y-95121772D01*
X146451000Y-95286184D01*
X146451000Y-95453816D01*
X146418297Y-95618228D01*
X146354147Y-95773100D01*
X146261015Y-95912481D01*
X146142481Y-96031015D01*
X146003100Y-96124147D01*
X145848228Y-96188297D01*
X145683816Y-96221000D01*
X145516184Y-96221000D01*
X145351772Y-96188297D01*
X145196900Y-96124147D01*
X145057519Y-96031015D01*
X144938985Y-95912481D01*
X144845853Y-95773100D01*
X144781703Y-95618228D01*
X144749000Y-95453816D01*
X144749000Y-95286184D01*
X144781703Y-95121772D01*
X144845853Y-94966900D01*
X144938985Y-94827519D01*
X145057519Y-94708985D01*
X145196900Y-94615853D01*
X145351772Y-94551703D01*
X145516184Y-94519000D01*
X145683816Y-94519000D01*
X145848228Y-94551703D01*
X145848228Y-94551703D01*
G37*
G36*
X145848228Y-92011703D02*
G01*
X146003100Y-92075853D01*
X146142481Y-92168985D01*
X146261015Y-92287519D01*
X146354147Y-92426900D01*
X146418297Y-92581772D01*
X146451000Y-92746184D01*
X146451000Y-92913816D01*
X146418297Y-93078228D01*
X146354147Y-93233100D01*
X146261015Y-93372481D01*
X146142481Y-93491015D01*
X146003100Y-93584147D01*
X145848228Y-93648297D01*
X145683816Y-93681000D01*
X145516184Y-93681000D01*
X145351772Y-93648297D01*
X145196900Y-93584147D01*
X145057519Y-93491015D01*
X144938985Y-93372481D01*
X144845853Y-93233100D01*
X144781703Y-93078228D01*
X144749000Y-92913816D01*
X144749000Y-92746184D01*
X144781703Y-92581772D01*
X144845853Y-92426900D01*
X144938985Y-92287519D01*
X145057519Y-92168985D01*
X145196900Y-92075853D01*
X145351772Y-92011703D01*
X145516184Y-91979000D01*
X145683816Y-91979000D01*
X145848228Y-92011703D01*
X145848228Y-92011703D01*
G37*
G36*
X161088228Y-92011703D02*
G01*
X161243100Y-92075853D01*
X161382481Y-92168985D01*
X161501015Y-92287519D01*
X161594147Y-92426900D01*
X161658297Y-92581772D01*
X161691000Y-92746184D01*
X161691000Y-92913816D01*
X161658297Y-93078228D01*
X161594147Y-93233100D01*
X161501015Y-93372481D01*
X161382481Y-93491015D01*
X161243100Y-93584147D01*
X161088228Y-93648297D01*
X160923816Y-93681000D01*
X160756184Y-93681000D01*
X160591772Y-93648297D01*
X160436900Y-93584147D01*
X160297519Y-93491015D01*
X160178985Y-93372481D01*
X160085853Y-93233100D01*
X160021703Y-93078228D01*
X159989000Y-92913816D01*
X159989000Y-92746184D01*
X160021703Y-92581772D01*
X160085853Y-92426900D01*
X160178985Y-92287519D01*
X160297519Y-92168985D01*
X160436900Y-92075853D01*
X160591772Y-92011703D01*
X160756184Y-91979000D01*
X160923816Y-91979000D01*
X161088228Y-92011703D01*
X161088228Y-92011703D01*
G37*
G36*
X161088228Y-89471703D02*
G01*
X161243100Y-89535853D01*
X161382481Y-89628985D01*
X161501015Y-89747519D01*
X161594147Y-89886900D01*
X161658297Y-90041772D01*
X161691000Y-90206184D01*
X161691000Y-90373816D01*
X161658297Y-90538228D01*
X161594147Y-90693100D01*
X161501015Y-90832481D01*
X161382481Y-90951015D01*
X161243100Y-91044147D01*
X161088228Y-91108297D01*
X160923816Y-91141000D01*
X160756184Y-91141000D01*
X160591772Y-91108297D01*
X160436900Y-91044147D01*
X160297519Y-90951015D01*
X160178985Y-90832481D01*
X160085853Y-90693100D01*
X160021703Y-90538228D01*
X159989000Y-90373816D01*
X159989000Y-90206184D01*
X160021703Y-90041772D01*
X160085853Y-89886900D01*
X160178985Y-89747519D01*
X160297519Y-89628985D01*
X160436900Y-89535853D01*
X160591772Y-89471703D01*
X160756184Y-89439000D01*
X160923816Y-89439000D01*
X161088228Y-89471703D01*
X161088228Y-89471703D01*
G37*
G36*
X145848228Y-89471703D02*
G01*
X146003100Y-89535853D01*
X146142481Y-89628985D01*
X146261015Y-89747519D01*
X146354147Y-89886900D01*
X146418297Y-90041772D01*
X146451000Y-90206184D01*
X146451000Y-90373816D01*
X146418297Y-90538228D01*
X146354147Y-90693100D01*
X146261015Y-90832481D01*
X146142481Y-90951015D01*
X146003100Y-91044147D01*
X145848228Y-91108297D01*
X145683816Y-91141000D01*
X145516184Y-91141000D01*
X145351772Y-91108297D01*
X145196900Y-91044147D01*
X145057519Y-90951015D01*
X144938985Y-90832481D01*
X144845853Y-90693100D01*
X144781703Y-90538228D01*
X144749000Y-90373816D01*
X144749000Y-90206184D01*
X144781703Y-90041772D01*
X144845853Y-89886900D01*
X144938985Y-89747519D01*
X145057519Y-89628985D01*
X145196900Y-89535853D01*
X145351772Y-89471703D01*
X145516184Y-89439000D01*
X145683816Y-89439000D01*
X145848228Y-89471703D01*
X145848228Y-89471703D01*
G37*
G36*
X161088228Y-86931703D02*
G01*
X161243100Y-86995853D01*
X161382481Y-87088985D01*
X161501015Y-87207519D01*
X161594147Y-87346900D01*
X161658297Y-87501772D01*
X161691000Y-87666184D01*
X161691000Y-87833816D01*
X161658297Y-87998228D01*
X161594147Y-88153100D01*
X161501015Y-88292481D01*
X161382481Y-88411015D01*
X161243100Y-88504147D01*
X161088228Y-88568297D01*
X160923816Y-88601000D01*
X160756184Y-88601000D01*
X160591772Y-88568297D01*
X160436900Y-88504147D01*
X160297519Y-88411015D01*
X160178985Y-88292481D01*
X160085853Y-88153100D01*
X160021703Y-87998228D01*
X159989000Y-87833816D01*
X159989000Y-87666184D01*
X160021703Y-87501772D01*
X160085853Y-87346900D01*
X160178985Y-87207519D01*
X160297519Y-87088985D01*
X160436900Y-86995853D01*
X160591772Y-86931703D01*
X160756184Y-86899000D01*
X160923816Y-86899000D01*
X161088228Y-86931703D01*
X161088228Y-86931703D01*
G37*
G36*
X145848228Y-86931703D02*
G01*
X146003100Y-86995853D01*
X146142481Y-87088985D01*
X146261015Y-87207519D01*
X146354147Y-87346900D01*
X146418297Y-87501772D01*
X146451000Y-87666184D01*
X146451000Y-87833816D01*
X146418297Y-87998228D01*
X146354147Y-88153100D01*
X146261015Y-88292481D01*
X146142481Y-88411015D01*
X146003100Y-88504147D01*
X145848228Y-88568297D01*
X145683816Y-88601000D01*
X145516184Y-88601000D01*
X145351772Y-88568297D01*
X145196900Y-88504147D01*
X145057519Y-88411015D01*
X144938985Y-88292481D01*
X144845853Y-88153100D01*
X144781703Y-87998228D01*
X144749000Y-87833816D01*
X144749000Y-87666184D01*
X144781703Y-87501772D01*
X144845853Y-87346900D01*
X144938985Y-87207519D01*
X145057519Y-87088985D01*
X145196900Y-86995853D01*
X145351772Y-86931703D01*
X145516184Y-86899000D01*
X145683816Y-86899000D01*
X145848228Y-86931703D01*
X145848228Y-86931703D01*
G37*
G36*
X102230443Y-85405519D02*
G01*
X102296627Y-85412037D01*
X102466466Y-85463557D01*
X102622991Y-85547222D01*
X102658729Y-85576552D01*
X102760186Y-85659814D01*
X102836234Y-85752480D01*
X102872778Y-85797009D01*
X102956443Y-85953534D01*
X103007963Y-86123373D01*
X103025359Y-86300000D01*
X103007963Y-86476627D01*
X102956443Y-86646466D01*
X102872778Y-86802991D01*
X102843448Y-86838729D01*
X102760186Y-86940186D01*
X102658729Y-87023448D01*
X102622991Y-87052778D01*
X102466466Y-87136443D01*
X102296627Y-87187963D01*
X102230443Y-87194481D01*
X102164260Y-87201000D01*
X102075740Y-87201000D01*
X102009557Y-87194481D01*
X101943373Y-87187963D01*
X101773534Y-87136443D01*
X101617009Y-87052778D01*
X101581271Y-87023448D01*
X101479814Y-86940186D01*
X101396552Y-86838729D01*
X101367222Y-86802991D01*
X101283557Y-86646466D01*
X101232037Y-86476627D01*
X101214641Y-86300000D01*
X101232037Y-86123373D01*
X101283557Y-85953534D01*
X101367222Y-85797009D01*
X101403766Y-85752480D01*
X101479814Y-85659814D01*
X101581271Y-85576552D01*
X101617009Y-85547222D01*
X101773534Y-85463557D01*
X101943373Y-85412037D01*
X102009557Y-85405519D01*
X102075740Y-85399000D01*
X102164260Y-85399000D01*
X102230443Y-85405519D01*
X102230443Y-85405519D01*
G37*
G36*
X99690443Y-85405519D02*
G01*
X99756627Y-85412037D01*
X99926466Y-85463557D01*
X100082991Y-85547222D01*
X100118729Y-85576552D01*
X100220186Y-85659814D01*
X100296234Y-85752480D01*
X100332778Y-85797009D01*
X100416443Y-85953534D01*
X100467963Y-86123373D01*
X100485359Y-86300000D01*
X100467963Y-86476627D01*
X100416443Y-86646466D01*
X100332778Y-86802991D01*
X100303448Y-86838729D01*
X100220186Y-86940186D01*
X100118729Y-87023448D01*
X100082991Y-87052778D01*
X99926466Y-87136443D01*
X99756627Y-87187963D01*
X99690443Y-87194481D01*
X99624260Y-87201000D01*
X99535740Y-87201000D01*
X99469557Y-87194481D01*
X99403373Y-87187963D01*
X99233534Y-87136443D01*
X99077009Y-87052778D01*
X99041271Y-87023448D01*
X98939814Y-86940186D01*
X98856552Y-86838729D01*
X98827222Y-86802991D01*
X98743557Y-86646466D01*
X98692037Y-86476627D01*
X98674641Y-86300000D01*
X98692037Y-86123373D01*
X98743557Y-85953534D01*
X98827222Y-85797009D01*
X98863766Y-85752480D01*
X98939814Y-85659814D01*
X99041271Y-85576552D01*
X99077009Y-85547222D01*
X99233534Y-85463557D01*
X99403373Y-85412037D01*
X99469557Y-85405519D01*
X99535740Y-85399000D01*
X99624260Y-85399000D01*
X99690443Y-85405519D01*
X99690443Y-85405519D01*
G37*
G36*
X97150443Y-85405519D02*
G01*
X97216627Y-85412037D01*
X97386466Y-85463557D01*
X97542991Y-85547222D01*
X97578729Y-85576552D01*
X97680186Y-85659814D01*
X97756234Y-85752480D01*
X97792778Y-85797009D01*
X97876443Y-85953534D01*
X97927963Y-86123373D01*
X97945359Y-86300000D01*
X97927963Y-86476627D01*
X97876443Y-86646466D01*
X97792778Y-86802991D01*
X97763448Y-86838729D01*
X97680186Y-86940186D01*
X97578729Y-87023448D01*
X97542991Y-87052778D01*
X97386466Y-87136443D01*
X97216627Y-87187963D01*
X97150443Y-87194481D01*
X97084260Y-87201000D01*
X96995740Y-87201000D01*
X96929557Y-87194481D01*
X96863373Y-87187963D01*
X96693534Y-87136443D01*
X96537009Y-87052778D01*
X96501271Y-87023448D01*
X96399814Y-86940186D01*
X96316552Y-86838729D01*
X96287222Y-86802991D01*
X96203557Y-86646466D01*
X96152037Y-86476627D01*
X96134641Y-86300000D01*
X96152037Y-86123373D01*
X96203557Y-85953534D01*
X96287222Y-85797009D01*
X96323766Y-85752480D01*
X96399814Y-85659814D01*
X96501271Y-85576552D01*
X96537009Y-85547222D01*
X96693534Y-85463557D01*
X96863373Y-85412037D01*
X96929557Y-85405519D01*
X96995740Y-85399000D01*
X97084260Y-85399000D01*
X97150443Y-85405519D01*
X97150443Y-85405519D01*
G37*
G36*
X95401000Y-87201000D02*
G01*
X93599000Y-87201000D01*
X93599000Y-85399000D01*
X95401000Y-85399000D01*
X95401000Y-87201000D01*
X95401000Y-87201000D01*
G37*
G36*
X104770443Y-85405519D02*
G01*
X104836627Y-85412037D01*
X105006466Y-85463557D01*
X105162991Y-85547222D01*
X105198729Y-85576552D01*
X105300186Y-85659814D01*
X105376234Y-85752480D01*
X105412778Y-85797009D01*
X105496443Y-85953534D01*
X105547963Y-86123373D01*
X105565359Y-86300000D01*
X105547963Y-86476627D01*
X105496443Y-86646466D01*
X105412778Y-86802991D01*
X105383448Y-86838729D01*
X105300186Y-86940186D01*
X105198729Y-87023448D01*
X105162991Y-87052778D01*
X105006466Y-87136443D01*
X104836627Y-87187963D01*
X104770443Y-87194481D01*
X104704260Y-87201000D01*
X104615740Y-87201000D01*
X104549557Y-87194481D01*
X104483373Y-87187963D01*
X104313534Y-87136443D01*
X104157009Y-87052778D01*
X104121271Y-87023448D01*
X104019814Y-86940186D01*
X103936552Y-86838729D01*
X103907222Y-86802991D01*
X103823557Y-86646466D01*
X103772037Y-86476627D01*
X103754641Y-86300000D01*
X103772037Y-86123373D01*
X103823557Y-85953534D01*
X103907222Y-85797009D01*
X103943766Y-85752480D01*
X104019814Y-85659814D01*
X104121271Y-85576552D01*
X104157009Y-85547222D01*
X104313534Y-85463557D01*
X104483373Y-85412037D01*
X104549557Y-85405519D01*
X104615740Y-85399000D01*
X104704260Y-85399000D01*
X104770443Y-85405519D01*
X104770443Y-85405519D01*
G37*
G36*
X107310443Y-85405519D02*
G01*
X107376627Y-85412037D01*
X107546466Y-85463557D01*
X107702991Y-85547222D01*
X107738729Y-85576552D01*
X107840186Y-85659814D01*
X107916234Y-85752480D01*
X107952778Y-85797009D01*
X108036443Y-85953534D01*
X108087963Y-86123373D01*
X108105359Y-86300000D01*
X108087963Y-86476627D01*
X108036443Y-86646466D01*
X107952778Y-86802991D01*
X107923448Y-86838729D01*
X107840186Y-86940186D01*
X107738729Y-87023448D01*
X107702991Y-87052778D01*
X107546466Y-87136443D01*
X107376627Y-87187963D01*
X107310443Y-87194481D01*
X107244260Y-87201000D01*
X107155740Y-87201000D01*
X107089557Y-87194481D01*
X107023373Y-87187963D01*
X106853534Y-87136443D01*
X106697009Y-87052778D01*
X106661271Y-87023448D01*
X106559814Y-86940186D01*
X106476552Y-86838729D01*
X106447222Y-86802991D01*
X106363557Y-86646466D01*
X106312037Y-86476627D01*
X106294641Y-86300000D01*
X106312037Y-86123373D01*
X106363557Y-85953534D01*
X106447222Y-85797009D01*
X106483766Y-85752480D01*
X106559814Y-85659814D01*
X106661271Y-85576552D01*
X106697009Y-85547222D01*
X106853534Y-85463557D01*
X107023373Y-85412037D01*
X107089557Y-85405519D01*
X107155740Y-85399000D01*
X107244260Y-85399000D01*
X107310443Y-85405519D01*
X107310443Y-85405519D01*
G37*
G36*
X161088228Y-84391703D02*
G01*
X161243100Y-84455853D01*
X161382481Y-84548985D01*
X161501015Y-84667519D01*
X161594147Y-84806900D01*
X161658297Y-84961772D01*
X161691000Y-85126184D01*
X161691000Y-85293816D01*
X161658297Y-85458228D01*
X161594147Y-85613100D01*
X161501015Y-85752481D01*
X161382481Y-85871015D01*
X161243100Y-85964147D01*
X161088228Y-86028297D01*
X160923816Y-86061000D01*
X160756184Y-86061000D01*
X160591772Y-86028297D01*
X160436900Y-85964147D01*
X160297519Y-85871015D01*
X160178985Y-85752481D01*
X160085853Y-85613100D01*
X160021703Y-85458228D01*
X159989000Y-85293816D01*
X159989000Y-85126184D01*
X160021703Y-84961772D01*
X160085853Y-84806900D01*
X160178985Y-84667519D01*
X160297519Y-84548985D01*
X160436900Y-84455853D01*
X160591772Y-84391703D01*
X160756184Y-84359000D01*
X160923816Y-84359000D01*
X161088228Y-84391703D01*
X161088228Y-84391703D01*
G37*
G36*
X145848228Y-84391703D02*
G01*
X146003100Y-84455853D01*
X146142481Y-84548985D01*
X146261015Y-84667519D01*
X146354147Y-84806900D01*
X146418297Y-84961772D01*
X146451000Y-85126184D01*
X146451000Y-85293816D01*
X146418297Y-85458228D01*
X146354147Y-85613100D01*
X146261015Y-85752481D01*
X146142481Y-85871015D01*
X146003100Y-85964147D01*
X145848228Y-86028297D01*
X145683816Y-86061000D01*
X145516184Y-86061000D01*
X145351772Y-86028297D01*
X145196900Y-85964147D01*
X145057519Y-85871015D01*
X144938985Y-85752481D01*
X144845853Y-85613100D01*
X144781703Y-85458228D01*
X144749000Y-85293816D01*
X144749000Y-85126184D01*
X144781703Y-84961772D01*
X144845853Y-84806900D01*
X144938985Y-84667519D01*
X145057519Y-84548985D01*
X145196900Y-84455853D01*
X145351772Y-84391703D01*
X145516184Y-84359000D01*
X145683816Y-84359000D01*
X145848228Y-84391703D01*
X145848228Y-84391703D01*
G37*
G36*
X161088228Y-81851703D02*
G01*
X161243100Y-81915853D01*
X161382481Y-82008985D01*
X161501015Y-82127519D01*
X161594147Y-82266900D01*
X161658297Y-82421772D01*
X161691000Y-82586184D01*
X161691000Y-82753816D01*
X161658297Y-82918228D01*
X161594147Y-83073100D01*
X161501015Y-83212481D01*
X161382481Y-83331015D01*
X161243100Y-83424147D01*
X161088228Y-83488297D01*
X160923816Y-83521000D01*
X160756184Y-83521000D01*
X160591772Y-83488297D01*
X160436900Y-83424147D01*
X160297519Y-83331015D01*
X160178985Y-83212481D01*
X160085853Y-83073100D01*
X160021703Y-82918228D01*
X159989000Y-82753816D01*
X159989000Y-82586184D01*
X160021703Y-82421772D01*
X160085853Y-82266900D01*
X160178985Y-82127519D01*
X160297519Y-82008985D01*
X160436900Y-81915853D01*
X160591772Y-81851703D01*
X160756184Y-81819000D01*
X160923816Y-81819000D01*
X161088228Y-81851703D01*
X161088228Y-81851703D01*
G37*
G36*
X145848228Y-81851703D02*
G01*
X146003100Y-81915853D01*
X146142481Y-82008985D01*
X146261015Y-82127519D01*
X146354147Y-82266900D01*
X146418297Y-82421772D01*
X146451000Y-82586184D01*
X146451000Y-82753816D01*
X146418297Y-82918228D01*
X146354147Y-83073100D01*
X146261015Y-83212481D01*
X146142481Y-83331015D01*
X146003100Y-83424147D01*
X145848228Y-83488297D01*
X145683816Y-83521000D01*
X145516184Y-83521000D01*
X145351772Y-83488297D01*
X145196900Y-83424147D01*
X145057519Y-83331015D01*
X144938985Y-83212481D01*
X144845853Y-83073100D01*
X144781703Y-82918228D01*
X144749000Y-82753816D01*
X144749000Y-82586184D01*
X144781703Y-82421772D01*
X144845853Y-82266900D01*
X144938985Y-82127519D01*
X145057519Y-82008985D01*
X145196900Y-81915853D01*
X145351772Y-81851703D01*
X145516184Y-81819000D01*
X145683816Y-81819000D01*
X145848228Y-81851703D01*
X145848228Y-81851703D01*
G37*
G36*
X161088228Y-79311703D02*
G01*
X161243100Y-79375853D01*
X161382481Y-79468985D01*
X161501015Y-79587519D01*
X161594147Y-79726900D01*
X161658297Y-79881772D01*
X161691000Y-80046184D01*
X161691000Y-80213816D01*
X161658297Y-80378228D01*
X161594147Y-80533100D01*
X161501015Y-80672481D01*
X161382481Y-80791015D01*
X161243100Y-80884147D01*
X161088228Y-80948297D01*
X160923816Y-80981000D01*
X160756184Y-80981000D01*
X160591772Y-80948297D01*
X160436900Y-80884147D01*
X160297519Y-80791015D01*
X160178985Y-80672481D01*
X160085853Y-80533100D01*
X160021703Y-80378228D01*
X159989000Y-80213816D01*
X159989000Y-80046184D01*
X160021703Y-79881772D01*
X160085853Y-79726900D01*
X160178985Y-79587519D01*
X160297519Y-79468985D01*
X160436900Y-79375853D01*
X160591772Y-79311703D01*
X160756184Y-79279000D01*
X160923816Y-79279000D01*
X161088228Y-79311703D01*
X161088228Y-79311703D01*
G37*
G36*
X145848228Y-79311703D02*
G01*
X146003100Y-79375853D01*
X146142481Y-79468985D01*
X146261015Y-79587519D01*
X146354147Y-79726900D01*
X146418297Y-79881772D01*
X146451000Y-80046184D01*
X146451000Y-80213816D01*
X146418297Y-80378228D01*
X146354147Y-80533100D01*
X146261015Y-80672481D01*
X146142481Y-80791015D01*
X146003100Y-80884147D01*
X145848228Y-80948297D01*
X145683816Y-80981000D01*
X145516184Y-80981000D01*
X145351772Y-80948297D01*
X145196900Y-80884147D01*
X145057519Y-80791015D01*
X144938985Y-80672481D01*
X144845853Y-80533100D01*
X144781703Y-80378228D01*
X144749000Y-80213816D01*
X144749000Y-80046184D01*
X144781703Y-79881772D01*
X144845853Y-79726900D01*
X144938985Y-79587519D01*
X145057519Y-79468985D01*
X145196900Y-79375853D01*
X145351772Y-79311703D01*
X145516184Y-79279000D01*
X145683816Y-79279000D01*
X145848228Y-79311703D01*
X145848228Y-79311703D01*
G37*
G36*
X161088228Y-76771703D02*
G01*
X161243100Y-76835853D01*
X161382481Y-76928985D01*
X161501015Y-77047519D01*
X161594147Y-77186900D01*
X161658297Y-77341772D01*
X161691000Y-77506184D01*
X161691000Y-77673816D01*
X161658297Y-77838228D01*
X161594147Y-77993100D01*
X161501015Y-78132481D01*
X161382481Y-78251015D01*
X161243100Y-78344147D01*
X161088228Y-78408297D01*
X160923816Y-78441000D01*
X160756184Y-78441000D01*
X160591772Y-78408297D01*
X160436900Y-78344147D01*
X160297519Y-78251015D01*
X160178985Y-78132481D01*
X160085853Y-77993100D01*
X160021703Y-77838228D01*
X159989000Y-77673816D01*
X159989000Y-77506184D01*
X160021703Y-77341772D01*
X160085853Y-77186900D01*
X160178985Y-77047519D01*
X160297519Y-76928985D01*
X160436900Y-76835853D01*
X160591772Y-76771703D01*
X160756184Y-76739000D01*
X160923816Y-76739000D01*
X161088228Y-76771703D01*
X161088228Y-76771703D01*
G37*
G36*
X145848228Y-76771703D02*
G01*
X146003100Y-76835853D01*
X146142481Y-76928985D01*
X146261015Y-77047519D01*
X146354147Y-77186900D01*
X146418297Y-77341772D01*
X146451000Y-77506184D01*
X146451000Y-77673816D01*
X146418297Y-77838228D01*
X146354147Y-77993100D01*
X146261015Y-78132481D01*
X146142481Y-78251015D01*
X146003100Y-78344147D01*
X145848228Y-78408297D01*
X145683816Y-78441000D01*
X145516184Y-78441000D01*
X145351772Y-78408297D01*
X145196900Y-78344147D01*
X145057519Y-78251015D01*
X144938985Y-78132481D01*
X144845853Y-77993100D01*
X144781703Y-77838228D01*
X144749000Y-77673816D01*
X144749000Y-77506184D01*
X144781703Y-77341772D01*
X144845853Y-77186900D01*
X144938985Y-77047519D01*
X145057519Y-76928985D01*
X145196900Y-76835853D01*
X145351772Y-76771703D01*
X145516184Y-76739000D01*
X145683816Y-76739000D01*
X145848228Y-76771703D01*
X145848228Y-76771703D01*
G37*
G36*
X161088228Y-74231703D02*
G01*
X161243100Y-74295853D01*
X161382481Y-74388985D01*
X161501015Y-74507519D01*
X161594147Y-74646900D01*
X161658297Y-74801772D01*
X161691000Y-74966184D01*
X161691000Y-75133816D01*
X161658297Y-75298228D01*
X161594147Y-75453100D01*
X161501015Y-75592481D01*
X161382481Y-75711015D01*
X161243100Y-75804147D01*
X161088228Y-75868297D01*
X160923816Y-75901000D01*
X160756184Y-75901000D01*
X160591772Y-75868297D01*
X160436900Y-75804147D01*
X160297519Y-75711015D01*
X160178985Y-75592481D01*
X160085853Y-75453100D01*
X160021703Y-75298228D01*
X159989000Y-75133816D01*
X159989000Y-74966184D01*
X160021703Y-74801772D01*
X160085853Y-74646900D01*
X160178985Y-74507519D01*
X160297519Y-74388985D01*
X160436900Y-74295853D01*
X160591772Y-74231703D01*
X160756184Y-74199000D01*
X160923816Y-74199000D01*
X161088228Y-74231703D01*
X161088228Y-74231703D01*
G37*
G36*
X145848228Y-74231703D02*
G01*
X146003100Y-74295853D01*
X146142481Y-74388985D01*
X146261015Y-74507519D01*
X146354147Y-74646900D01*
X146418297Y-74801772D01*
X146451000Y-74966184D01*
X146451000Y-75133816D01*
X146418297Y-75298228D01*
X146354147Y-75453100D01*
X146261015Y-75592481D01*
X146142481Y-75711015D01*
X146003100Y-75804147D01*
X145848228Y-75868297D01*
X145683816Y-75901000D01*
X145516184Y-75901000D01*
X145351772Y-75868297D01*
X145196900Y-75804147D01*
X145057519Y-75711015D01*
X144938985Y-75592481D01*
X144845853Y-75453100D01*
X144781703Y-75298228D01*
X144749000Y-75133816D01*
X144749000Y-74966184D01*
X144781703Y-74801772D01*
X144845853Y-74646900D01*
X144938985Y-74507519D01*
X145057519Y-74388985D01*
X145196900Y-74295853D01*
X145351772Y-74231703D01*
X145516184Y-74199000D01*
X145683816Y-74199000D01*
X145848228Y-74231703D01*
X145848228Y-74231703D01*
G37*
G36*
X145848228Y-71691703D02*
G01*
X146003100Y-71755853D01*
X146142481Y-71848985D01*
X146261015Y-71967519D01*
X146354147Y-72106900D01*
X146418297Y-72261772D01*
X146451000Y-72426184D01*
X146451000Y-72593816D01*
X146418297Y-72758228D01*
X146354147Y-72913100D01*
X146261015Y-73052481D01*
X146142481Y-73171015D01*
X146003100Y-73264147D01*
X145848228Y-73328297D01*
X145683816Y-73361000D01*
X145516184Y-73361000D01*
X145351772Y-73328297D01*
X145196900Y-73264147D01*
X145057519Y-73171015D01*
X144938985Y-73052481D01*
X144845853Y-72913100D01*
X144781703Y-72758228D01*
X144749000Y-72593816D01*
X144749000Y-72426184D01*
X144781703Y-72261772D01*
X144845853Y-72106900D01*
X144938985Y-71967519D01*
X145057519Y-71848985D01*
X145196900Y-71755853D01*
X145351772Y-71691703D01*
X145516184Y-71659000D01*
X145683816Y-71659000D01*
X145848228Y-71691703D01*
X145848228Y-71691703D01*
G37*
G36*
X161088228Y-71691703D02*
G01*
X161243100Y-71755853D01*
X161382481Y-71848985D01*
X161501015Y-71967519D01*
X161594147Y-72106900D01*
X161658297Y-72261772D01*
X161691000Y-72426184D01*
X161691000Y-72593816D01*
X161658297Y-72758228D01*
X161594147Y-72913100D01*
X161501015Y-73052481D01*
X161382481Y-73171015D01*
X161243100Y-73264147D01*
X161088228Y-73328297D01*
X160923816Y-73361000D01*
X160756184Y-73361000D01*
X160591772Y-73328297D01*
X160436900Y-73264147D01*
X160297519Y-73171015D01*
X160178985Y-73052481D01*
X160085853Y-72913100D01*
X160021703Y-72758228D01*
X159989000Y-72593816D01*
X159989000Y-72426184D01*
X160021703Y-72261772D01*
X160085853Y-72106900D01*
X160178985Y-71967519D01*
X160297519Y-71848985D01*
X160436900Y-71755853D01*
X160591772Y-71691703D01*
X160756184Y-71659000D01*
X160923816Y-71659000D01*
X161088228Y-71691703D01*
X161088228Y-71691703D01*
G37*
G36*
X146451000Y-70821000D02*
G01*
X144749000Y-70821000D01*
X144749000Y-69119000D01*
X146451000Y-69119000D01*
X146451000Y-70821000D01*
X146451000Y-70821000D01*
G37*
G36*
X161088228Y-69151703D02*
G01*
X161243100Y-69215853D01*
X161382481Y-69308985D01*
X161501015Y-69427519D01*
X161594147Y-69566900D01*
X161658297Y-69721772D01*
X161691000Y-69886184D01*
X161691000Y-70053816D01*
X161658297Y-70218228D01*
X161594147Y-70373100D01*
X161501015Y-70512481D01*
X161382481Y-70631015D01*
X161243100Y-70724147D01*
X161088228Y-70788297D01*
X160923816Y-70821000D01*
X160756184Y-70821000D01*
X160591772Y-70788297D01*
X160436900Y-70724147D01*
X160297519Y-70631015D01*
X160178985Y-70512481D01*
X160085853Y-70373100D01*
X160021703Y-70218228D01*
X159989000Y-70053816D01*
X159989000Y-69886184D01*
X160021703Y-69721772D01*
X160085853Y-69566900D01*
X160178985Y-69427519D01*
X160297519Y-69308985D01*
X160436900Y-69215853D01*
X160591772Y-69151703D01*
X160756184Y-69119000D01*
X160923816Y-69119000D01*
X161088228Y-69151703D01*
X161088228Y-69151703D01*
G37*
G36*
X166554501Y-65172054D02*
G01*
X166900461Y-65315356D01*
X167211817Y-65523397D01*
X167476603Y-65788183D01*
X167684644Y-66099539D01*
X167827946Y-66445499D01*
X167901000Y-66812768D01*
X167901000Y-67187232D01*
X167841479Y-67486468D01*
X167827946Y-67554500D01*
X167687827Y-67892778D01*
X167684644Y-67900461D01*
X167476603Y-68211817D01*
X167211817Y-68476603D01*
X166900461Y-68684644D01*
X166554501Y-68827946D01*
X166187233Y-68901000D01*
X165812767Y-68901000D01*
X165445499Y-68827946D01*
X165099539Y-68684644D01*
X164788183Y-68476603D01*
X164523397Y-68211817D01*
X164315356Y-67900461D01*
X164312174Y-67892778D01*
X164172054Y-67554500D01*
X164158522Y-67486468D01*
X164099000Y-67187232D01*
X164099000Y-66812768D01*
X164172054Y-66445499D01*
X164315356Y-66099539D01*
X164523397Y-65788183D01*
X164788183Y-65523397D01*
X165099539Y-65315356D01*
X165445499Y-65172054D01*
X165812767Y-65099000D01*
X166187233Y-65099000D01*
X166554501Y-65172054D01*
X166554501Y-65172054D01*
G37*
G36*
X84554501Y-65172054D02*
G01*
X84900461Y-65315356D01*
X85211817Y-65523397D01*
X85476603Y-65788183D01*
X85684644Y-66099539D01*
X85827946Y-66445499D01*
X85901000Y-66812768D01*
X85901000Y-67187232D01*
X85841479Y-67486468D01*
X85827946Y-67554500D01*
X85687827Y-67892778D01*
X85684644Y-67900461D01*
X85476603Y-68211817D01*
X85211817Y-68476603D01*
X84900461Y-68684644D01*
X84554501Y-68827946D01*
X84187233Y-68901000D01*
X83812767Y-68901000D01*
X83445499Y-68827946D01*
X83099539Y-68684644D01*
X82788183Y-68476603D01*
X82523397Y-68211817D01*
X82315356Y-67900461D01*
X82312174Y-67892778D01*
X82172054Y-67554500D01*
X82158522Y-67486468D01*
X82099000Y-67187232D01*
X82099000Y-66812768D01*
X82172054Y-66445499D01*
X82315356Y-66099539D01*
X82523397Y-65788183D01*
X82788183Y-65523397D01*
X83099539Y-65315356D01*
X83445499Y-65172054D01*
X83812767Y-65099000D01*
X84187233Y-65099000D01*
X84554501Y-65172054D01*
X84554501Y-65172054D01*
G37*
G36*
X122181000Y-68041000D02*
G01*
X120379000Y-68041000D01*
X120379000Y-66239000D01*
X122181000Y-66239000D01*
X122181000Y-68041000D01*
X122181000Y-68041000D01*
G37*
G36*
X123930443Y-66245519D02*
G01*
X123996627Y-66252037D01*
X124166466Y-66303557D01*
X124322991Y-66387222D01*
X124358729Y-66416552D01*
X124460186Y-66499814D01*
X124543448Y-66601271D01*
X124572778Y-66637009D01*
X124656443Y-66793534D01*
X124707963Y-66963373D01*
X124725359Y-67140000D01*
X124707963Y-67316627D01*
X124656443Y-67486466D01*
X124572778Y-67642991D01*
X124543448Y-67678729D01*
X124460186Y-67780186D01*
X124358729Y-67863448D01*
X124322991Y-67892778D01*
X124166466Y-67976443D01*
X123996627Y-68027963D01*
X123930443Y-68034481D01*
X123864260Y-68041000D01*
X123775740Y-68041000D01*
X123709557Y-68034481D01*
X123643373Y-68027963D01*
X123473534Y-67976443D01*
X123317009Y-67892778D01*
X123281271Y-67863448D01*
X123179814Y-67780186D01*
X123096552Y-67678729D01*
X123067222Y-67642991D01*
X122983557Y-67486466D01*
X122932037Y-67316627D01*
X122914641Y-67140000D01*
X122932037Y-66963373D01*
X122983557Y-66793534D01*
X123067222Y-66637009D01*
X123096552Y-66601271D01*
X123179814Y-66499814D01*
X123281271Y-66416552D01*
X123317009Y-66387222D01*
X123473534Y-66303557D01*
X123643373Y-66252037D01*
X123709557Y-66245519D01*
X123775740Y-66239000D01*
X123864260Y-66239000D01*
X123930443Y-66245519D01*
X123930443Y-66245519D01*
G37*
G36*
X126470443Y-66245519D02*
G01*
X126536627Y-66252037D01*
X126706466Y-66303557D01*
X126862991Y-66387222D01*
X126898729Y-66416552D01*
X127000186Y-66499814D01*
X127083448Y-66601271D01*
X127112778Y-66637009D01*
X127196443Y-66793534D01*
X127247963Y-66963373D01*
X127265359Y-67140000D01*
X127247963Y-67316627D01*
X127196443Y-67486466D01*
X127112778Y-67642991D01*
X127083448Y-67678729D01*
X127000186Y-67780186D01*
X126898729Y-67863448D01*
X126862991Y-67892778D01*
X126706466Y-67976443D01*
X126536627Y-68027963D01*
X126470443Y-68034481D01*
X126404260Y-68041000D01*
X126315740Y-68041000D01*
X126249557Y-68034481D01*
X126183373Y-68027963D01*
X126013534Y-67976443D01*
X125857009Y-67892778D01*
X125821271Y-67863448D01*
X125719814Y-67780186D01*
X125636552Y-67678729D01*
X125607222Y-67642991D01*
X125523557Y-67486466D01*
X125472037Y-67316627D01*
X125454641Y-67140000D01*
X125472037Y-66963373D01*
X125523557Y-66793534D01*
X125607222Y-66637009D01*
X125636552Y-66601271D01*
X125719814Y-66499814D01*
X125821271Y-66416552D01*
X125857009Y-66387222D01*
X126013534Y-66303557D01*
X126183373Y-66252037D01*
X126249557Y-66245519D01*
X126315740Y-66239000D01*
X126404260Y-66239000D01*
X126470443Y-66245519D01*
X126470443Y-66245519D01*
G37*
G36*
X129010443Y-66245519D02*
G01*
X129076627Y-66252037D01*
X129246466Y-66303557D01*
X129402991Y-66387222D01*
X129438729Y-66416552D01*
X129540186Y-66499814D01*
X129623448Y-66601271D01*
X129652778Y-66637009D01*
X129736443Y-66793534D01*
X129787963Y-66963373D01*
X129805359Y-67140000D01*
X129787963Y-67316627D01*
X129736443Y-67486466D01*
X129652778Y-67642991D01*
X129623448Y-67678729D01*
X129540186Y-67780186D01*
X129438729Y-67863448D01*
X129402991Y-67892778D01*
X129246466Y-67976443D01*
X129076627Y-68027963D01*
X129010443Y-68034481D01*
X128944260Y-68041000D01*
X128855740Y-68041000D01*
X128789557Y-68034481D01*
X128723373Y-68027963D01*
X128553534Y-67976443D01*
X128397009Y-67892778D01*
X128361271Y-67863448D01*
X128259814Y-67780186D01*
X128176552Y-67678729D01*
X128147222Y-67642991D01*
X128063557Y-67486466D01*
X128012037Y-67316627D01*
X127994641Y-67140000D01*
X128012037Y-66963373D01*
X128063557Y-66793534D01*
X128147222Y-66637009D01*
X128176552Y-66601271D01*
X128259814Y-66499814D01*
X128361271Y-66416552D01*
X128397009Y-66387222D01*
X128553534Y-66303557D01*
X128723373Y-66252037D01*
X128789557Y-66245519D01*
X128855740Y-66239000D01*
X128944260Y-66239000D01*
X129010443Y-66245519D01*
X129010443Y-66245519D01*
G37*
M02*
