M48
INCH,TZ
T1C0.0157
T2C0.0394
T3C0.0433
T4C0.0571
T5C0.0630
T6C0.0709
%
G90
G05
T1
X44213Y-42106
X48839Y-42874
X60236Y-41319
T2
X47748Y-26433
X48748Y-26433
X49748Y-26433
X50748Y-26433
X37205Y-33976
X38205Y-33976
X39205Y-33976
X40205Y-33976
X41205Y-33976
X42205Y-33976
T3
X57323Y-27547
X57323Y-28547
X57323Y-29547
X57323Y-30547
X57323Y-31547
X57323Y-32547
X57323Y-33547
X57323Y-34547
X57323Y-35547
X57323Y-36547
X57323Y-37547
X57323Y-38547
X57323Y-39547
X57323Y-40547
X63323Y-27547
X63323Y-28547
X63323Y-29547
X63323Y-30547
X63323Y-31547
X63323Y-32547
X63323Y-33547
X63323Y-34547
X63323Y-35547
X63323Y-36547
X63323Y-37547
X63323Y-38547
X63323Y-39547
X63323Y-40547
T5
X51713Y-45642
X54469Y-43280
T6
X37500Y-39724
X37500Y-41378
X42500Y-39724
X42500Y-41378
T4
G00X51329Y-46638
M15
G01X52096Y-46638
M16
G05
G00X52707Y-42283
M15
G01X53474Y-42283
M16
G05
G00X54085Y-46638
M15
G01X54852Y-46638
M16
G05
T0
M30
