G04 #@! TF.GenerationSoftware,KiCad,Pcbnew,(5.1.4-0)*
G04 #@! TF.CreationDate,2020-03-10T11:39:59-04:00*
G04 #@! TF.ProjectId,joystick,6a6f7973-7469-4636-9b2e-6b696361645f,rev?*
G04 #@! TF.SameCoordinates,Original*
G04 #@! TF.FileFunction,Legend,Top*
G04 #@! TF.FilePolarity,Positive*
%FSLAX46Y46*%
G04 Gerber Fmt 4.6, Leading zero omitted, Abs format (unit mm)*
G04 Created by KiCad (PCBNEW (5.1.4-0)) date 2020-03-10 11:39:59*
%MOMM*%
%LPD*%
G04 APERTURE LIST*
%ADD10C,0.120000*%
%ADD11C,0.100000*%
%ADD12C,0.150000*%
G04 APERTURE END LIST*
D10*
X93170000Y-87630000D02*
X93170000Y-86300000D01*
X94500000Y-87630000D02*
X93170000Y-87630000D01*
X95770000Y-87630000D02*
X95770000Y-84970000D01*
X95770000Y-84970000D02*
X108530000Y-84970000D01*
X95770000Y-87630000D02*
X108530000Y-87630000D01*
X108530000Y-87630000D02*
X108530000Y-84970000D01*
X148858578Y-116090000D02*
X148341422Y-116090000D01*
X148858578Y-117510000D02*
X148341422Y-117510000D01*
D11*
X111661000Y-65180000D02*
X111661000Y-93120000D01*
X138839000Y-65180000D02*
X111661000Y-65180000D01*
X138839000Y-93120000D02*
X138839000Y-65180000D01*
X111661000Y-93120000D02*
X138839000Y-93120000D01*
D10*
X140640000Y-71478922D02*
X140640000Y-71996078D01*
X142060000Y-71478922D02*
X142060000Y-71996078D01*
X142510000Y-67508578D02*
X142510000Y-66991422D01*
X141090000Y-67508578D02*
X141090000Y-66991422D01*
X148858578Y-112090000D02*
X148341422Y-112090000D01*
X148858578Y-113510000D02*
X148341422Y-113510000D01*
X148958578Y-108290000D02*
X148441422Y-108290000D01*
X148958578Y-109710000D02*
X148441422Y-109710000D01*
X120628922Y-117410000D02*
X121146078Y-117410000D01*
X120628922Y-115990000D02*
X121146078Y-115990000D01*
X120591422Y-113610000D02*
X121108578Y-113610000D01*
X120591422Y-112190000D02*
X121108578Y-112190000D01*
D11*
G36*
X150299000Y-91306000D02*
G01*
X150553000Y-91052000D01*
X150807000Y-91433000D01*
X150553000Y-91687000D01*
X150299000Y-91306000D01*
G37*
X150299000Y-91306000D02*
X150553000Y-91052000D01*
X150807000Y-91433000D01*
X150553000Y-91687000D01*
X150299000Y-91306000D01*
G36*
X149537000Y-90290000D02*
G01*
X149791000Y-90036000D01*
X150045000Y-90417000D01*
X149791000Y-90671000D01*
X149537000Y-90290000D01*
G37*
X149537000Y-90290000D02*
X149791000Y-90036000D01*
X150045000Y-90417000D01*
X149791000Y-90671000D01*
X149537000Y-90290000D01*
G36*
X148775000Y-91052000D02*
G01*
X149029000Y-90798000D01*
X149283000Y-91179000D01*
X149029000Y-91433000D01*
X148775000Y-91052000D01*
G37*
X148775000Y-91052000D02*
X149029000Y-90798000D01*
X149283000Y-91179000D01*
X149029000Y-91433000D01*
X148775000Y-91052000D01*
G36*
X150680000Y-90925000D02*
G01*
X150934000Y-90671000D01*
X151188000Y-91052000D01*
X150934000Y-91306000D01*
X150680000Y-90925000D01*
G37*
X150680000Y-90925000D02*
X150934000Y-90671000D01*
X151188000Y-91052000D01*
X150934000Y-91306000D01*
X150680000Y-90925000D01*
G36*
X149156000Y-90671000D02*
G01*
X149410000Y-90417000D01*
X149664000Y-90798000D01*
X149410000Y-91052000D01*
X149156000Y-90671000D01*
G37*
X149156000Y-90671000D02*
X149410000Y-90417000D01*
X149664000Y-90798000D01*
X149410000Y-91052000D01*
X149156000Y-90671000D01*
G36*
X151061000Y-91433000D02*
G01*
X151315000Y-91179000D01*
X151569000Y-91560000D01*
X151315000Y-91814000D01*
X151061000Y-91433000D01*
G37*
X151061000Y-91433000D02*
X151315000Y-91179000D01*
X151569000Y-91560000D01*
X151315000Y-91814000D01*
X151061000Y-91433000D01*
G36*
X149918000Y-90798000D02*
G01*
X150172000Y-90544000D01*
X150426000Y-90925000D01*
X150172000Y-91179000D01*
X149918000Y-90798000D01*
G37*
X149918000Y-90798000D02*
X150172000Y-90544000D01*
X150426000Y-90925000D01*
X150172000Y-91179000D01*
X149918000Y-90798000D01*
G36*
X150299000Y-90417000D02*
G01*
X150553000Y-90163000D01*
X150807000Y-90544000D01*
X150553000Y-90798000D01*
X150299000Y-90417000D01*
G37*
X150299000Y-90417000D02*
X150553000Y-90163000D01*
X150807000Y-90544000D01*
X150553000Y-90798000D01*
X150299000Y-90417000D01*
D12*
X144330000Y-68700000D02*
X162110000Y-68700000D01*
X144330000Y-104260000D02*
X144330000Y-68700000D01*
X162110000Y-104260000D02*
X144330000Y-104260000D01*
X162110000Y-68700000D02*
X162110000Y-104260000D01*
X148140000Y-95370000D02*
X148140000Y-86480000D01*
X158300000Y-95370000D02*
X158300000Y-86480000D01*
X158300000Y-86480000D02*
X148140000Y-86480000D01*
X148140000Y-95370000D02*
X158300000Y-95370000D01*
X155760000Y-99180000D02*
X155760000Y-101720000D01*
X150680000Y-99180000D02*
X155760000Y-99180000D01*
X150680000Y-101720000D02*
X150680000Y-99180000D01*
X150680000Y-75050000D02*
X148140000Y-75050000D01*
X150680000Y-77590000D02*
X150680000Y-75050000D01*
X148140000Y-77590000D02*
X150680000Y-77590000D01*
X148140000Y-75050000D02*
X148140000Y-77590000D01*
X149410000Y-73780000D02*
X149410000Y-68700000D01*
X157030000Y-73780000D02*
X157030000Y-68700000D01*
X149410000Y-73780000D02*
X157030000Y-73780000D01*
X150680000Y-80130000D02*
X148140000Y-80130000D01*
X150680000Y-83940000D02*
X150680000Y-80130000D01*
X148140000Y-83940000D02*
X150680000Y-83940000D01*
X148140000Y-80130000D02*
X148140000Y-83940000D01*
X157030000Y-67430000D02*
X157030000Y-68700000D01*
X149410000Y-67430000D02*
X157030000Y-67430000D01*
X149410000Y-68700000D02*
X149410000Y-67430000D01*
X92574761Y-88014285D02*
X92622380Y-87871428D01*
X92622380Y-87633333D01*
X92574761Y-87538095D01*
X92527142Y-87490476D01*
X92431904Y-87442857D01*
X92336666Y-87442857D01*
X92241428Y-87490476D01*
X92193809Y-87538095D01*
X92146190Y-87633333D01*
X92098571Y-87823809D01*
X92050952Y-87919047D01*
X92003333Y-87966666D01*
X91908095Y-88014285D01*
X91812857Y-88014285D01*
X91717619Y-87966666D01*
X91670000Y-87919047D01*
X91622380Y-87823809D01*
X91622380Y-87585714D01*
X91670000Y-87442857D01*
X92098571Y-87014285D02*
X92098571Y-86680952D01*
X92622380Y-86538095D02*
X92622380Y-87014285D01*
X91622380Y-87014285D01*
X91622380Y-86538095D01*
X92622380Y-85538095D02*
X92146190Y-85871428D01*
X92622380Y-86109523D02*
X91622380Y-86109523D01*
X91622380Y-85728571D01*
X91670000Y-85633333D01*
X91717619Y-85585714D01*
X91812857Y-85538095D01*
X91955714Y-85538095D01*
X92050952Y-85585714D01*
X92098571Y-85633333D01*
X92146190Y-85728571D01*
X92146190Y-86109523D01*
X92622380Y-84585714D02*
X92622380Y-85157142D01*
X92622380Y-84871428D02*
X91622380Y-84871428D01*
X91765238Y-84966666D01*
X91860476Y-85061904D01*
X91908095Y-85157142D01*
X148483333Y-115552380D02*
X148150000Y-115076190D01*
X147911904Y-115552380D02*
X147911904Y-114552380D01*
X148292857Y-114552380D01*
X148388095Y-114600000D01*
X148435714Y-114647619D01*
X148483333Y-114742857D01*
X148483333Y-114885714D01*
X148435714Y-114980952D01*
X148388095Y-115028571D01*
X148292857Y-115076190D01*
X147911904Y-115076190D01*
X149388095Y-114552380D02*
X148911904Y-114552380D01*
X148864285Y-115028571D01*
X148911904Y-114980952D01*
X149007142Y-114933333D01*
X149245238Y-114933333D01*
X149340476Y-114980952D01*
X149388095Y-115028571D01*
X149435714Y-115123809D01*
X149435714Y-115361904D01*
X149388095Y-115457142D01*
X149340476Y-115504761D01*
X149245238Y-115552380D01*
X149007142Y-115552380D01*
X148911904Y-115504761D01*
X148864285Y-115457142D01*
X123511428Y-69362380D02*
X123701904Y-69362380D01*
X123797142Y-69410000D01*
X123892380Y-69505238D01*
X123940000Y-69695714D01*
X123940000Y-70029047D01*
X123892380Y-70219523D01*
X123797142Y-70314761D01*
X123701904Y-70362380D01*
X123511428Y-70362380D01*
X123416190Y-70314761D01*
X123320952Y-70219523D01*
X123273333Y-70029047D01*
X123273333Y-69695714D01*
X123320952Y-69505238D01*
X123416190Y-69410000D01*
X123511428Y-69362380D01*
X124844761Y-70362380D02*
X124368571Y-70362380D01*
X124368571Y-69362380D01*
X125178095Y-69838571D02*
X125511428Y-69838571D01*
X125654285Y-70362380D02*
X125178095Y-70362380D01*
X125178095Y-69362380D01*
X125654285Y-69362380D01*
X126082857Y-70362380D02*
X126082857Y-69362380D01*
X126320952Y-69362380D01*
X126463809Y-69410000D01*
X126559047Y-69505238D01*
X126606666Y-69600476D01*
X126654285Y-69790952D01*
X126654285Y-69933809D01*
X126606666Y-70124285D01*
X126559047Y-70219523D01*
X126463809Y-70314761D01*
X126320952Y-70362380D01*
X126082857Y-70362380D01*
X127606666Y-70362380D02*
X127035238Y-70362380D01*
X127320952Y-70362380D02*
X127320952Y-69362380D01*
X127225714Y-69505238D01*
X127130476Y-69600476D01*
X127035238Y-69648095D01*
X133516666Y-114354761D02*
X133659523Y-114402380D01*
X133897619Y-114402380D01*
X133992857Y-114354761D01*
X134040476Y-114307142D01*
X134088095Y-114211904D01*
X134088095Y-114116666D01*
X134040476Y-114021428D01*
X133992857Y-113973809D01*
X133897619Y-113926190D01*
X133707142Y-113878571D01*
X133611904Y-113830952D01*
X133564285Y-113783333D01*
X133516666Y-113688095D01*
X133516666Y-113592857D01*
X133564285Y-113497619D01*
X133611904Y-113450000D01*
X133707142Y-113402380D01*
X133945238Y-113402380D01*
X134088095Y-113450000D01*
X134421428Y-113402380D02*
X134659523Y-114402380D01*
X134850000Y-113688095D01*
X135040476Y-114402380D01*
X135278571Y-113402380D01*
X136183333Y-114402380D02*
X135611904Y-114402380D01*
X135897619Y-114402380D02*
X135897619Y-113402380D01*
X135802380Y-113545238D01*
X135707142Y-113640476D01*
X135611904Y-113688095D01*
X100904761Y-103802380D02*
X100571428Y-103326190D01*
X100333333Y-103802380D02*
X100333333Y-102802380D01*
X100714285Y-102802380D01*
X100809523Y-102850000D01*
X100857142Y-102897619D01*
X100904761Y-102992857D01*
X100904761Y-103135714D01*
X100857142Y-103230952D01*
X100809523Y-103278571D01*
X100714285Y-103326190D01*
X100333333Y-103326190D01*
X101190476Y-102802380D02*
X101523809Y-103802380D01*
X101857142Y-102802380D01*
X102714285Y-103802380D02*
X102142857Y-103802380D01*
X102428571Y-103802380D02*
X102428571Y-102802380D01*
X102333333Y-102945238D01*
X102238095Y-103040476D01*
X102142857Y-103088095D01*
X109656666Y-103692380D02*
X110275714Y-103692380D01*
X109942380Y-104073333D01*
X110085238Y-104073333D01*
X110180476Y-104120952D01*
X110228095Y-104168571D01*
X110275714Y-104263809D01*
X110275714Y-104501904D01*
X110228095Y-104597142D01*
X110180476Y-104644761D01*
X110085238Y-104692380D01*
X109799523Y-104692380D01*
X109704285Y-104644761D01*
X109656666Y-104597142D01*
X109744285Y-101157619D02*
X109791904Y-101110000D01*
X109887142Y-101062380D01*
X110125238Y-101062380D01*
X110220476Y-101110000D01*
X110268095Y-101157619D01*
X110315714Y-101252857D01*
X110315714Y-101348095D01*
X110268095Y-101490952D01*
X109696666Y-102062380D01*
X110315714Y-102062380D01*
X93435714Y-104602380D02*
X92864285Y-104602380D01*
X93150000Y-104602380D02*
X93150000Y-103602380D01*
X93054761Y-103745238D01*
X92959523Y-103840476D01*
X92864285Y-103888095D01*
X93325714Y-102012380D02*
X92754285Y-102012380D01*
X93040000Y-102012380D02*
X93040000Y-101012380D01*
X92944761Y-101155238D01*
X92849523Y-101250476D01*
X92754285Y-101298095D01*
X140252380Y-71904166D02*
X139776190Y-72237500D01*
X140252380Y-72475595D02*
X139252380Y-72475595D01*
X139252380Y-72094642D01*
X139300000Y-71999404D01*
X139347619Y-71951785D01*
X139442857Y-71904166D01*
X139585714Y-71904166D01*
X139680952Y-71951785D01*
X139728571Y-71999404D01*
X139776190Y-72094642D01*
X139776190Y-72475595D01*
X139252380Y-71570833D02*
X139252380Y-70904166D01*
X140252380Y-71332738D01*
X140602380Y-67416666D02*
X140126190Y-67750000D01*
X140602380Y-67988095D02*
X139602380Y-67988095D01*
X139602380Y-67607142D01*
X139650000Y-67511904D01*
X139697619Y-67464285D01*
X139792857Y-67416666D01*
X139935714Y-67416666D01*
X140030952Y-67464285D01*
X140078571Y-67511904D01*
X140126190Y-67607142D01*
X140126190Y-67988095D01*
X139602380Y-66559523D02*
X139602380Y-66750000D01*
X139650000Y-66845238D01*
X139697619Y-66892857D01*
X139840476Y-66988095D01*
X140030952Y-67035714D01*
X140411904Y-67035714D01*
X140507142Y-66988095D01*
X140554761Y-66940476D01*
X140602380Y-66845238D01*
X140602380Y-66654761D01*
X140554761Y-66559523D01*
X140507142Y-66511904D01*
X140411904Y-66464285D01*
X140173809Y-66464285D01*
X140078571Y-66511904D01*
X140030952Y-66559523D01*
X139983333Y-66654761D01*
X139983333Y-66845238D01*
X140030952Y-66940476D01*
X140078571Y-66988095D01*
X140173809Y-67035714D01*
X148383333Y-111802380D02*
X148050000Y-111326190D01*
X147811904Y-111802380D02*
X147811904Y-110802380D01*
X148192857Y-110802380D01*
X148288095Y-110850000D01*
X148335714Y-110897619D01*
X148383333Y-110992857D01*
X148383333Y-111135714D01*
X148335714Y-111230952D01*
X148288095Y-111278571D01*
X148192857Y-111326190D01*
X147811904Y-111326190D01*
X149240476Y-111135714D02*
X149240476Y-111802380D01*
X149002380Y-110754761D02*
X148764285Y-111469047D01*
X149383333Y-111469047D01*
X148583333Y-107802380D02*
X148250000Y-107326190D01*
X148011904Y-107802380D02*
X148011904Y-106802380D01*
X148392857Y-106802380D01*
X148488095Y-106850000D01*
X148535714Y-106897619D01*
X148583333Y-106992857D01*
X148583333Y-107135714D01*
X148535714Y-107230952D01*
X148488095Y-107278571D01*
X148392857Y-107326190D01*
X148011904Y-107326190D01*
X148916666Y-106802380D02*
X149535714Y-106802380D01*
X149202380Y-107183333D01*
X149345238Y-107183333D01*
X149440476Y-107230952D01*
X149488095Y-107278571D01*
X149535714Y-107373809D01*
X149535714Y-107611904D01*
X149488095Y-107707142D01*
X149440476Y-107754761D01*
X149345238Y-107802380D01*
X149059523Y-107802380D01*
X148964285Y-107754761D01*
X148916666Y-107707142D01*
X120720833Y-115502380D02*
X120387500Y-115026190D01*
X120149404Y-115502380D02*
X120149404Y-114502380D01*
X120530357Y-114502380D01*
X120625595Y-114550000D01*
X120673214Y-114597619D01*
X120720833Y-114692857D01*
X120720833Y-114835714D01*
X120673214Y-114930952D01*
X120625595Y-114978571D01*
X120530357Y-115026190D01*
X120149404Y-115026190D01*
X121101785Y-114597619D02*
X121149404Y-114550000D01*
X121244642Y-114502380D01*
X121482738Y-114502380D01*
X121577976Y-114550000D01*
X121625595Y-114597619D01*
X121673214Y-114692857D01*
X121673214Y-114788095D01*
X121625595Y-114930952D01*
X121054166Y-115502380D01*
X121673214Y-115502380D01*
X120683333Y-111702380D02*
X120350000Y-111226190D01*
X120111904Y-111702380D02*
X120111904Y-110702380D01*
X120492857Y-110702380D01*
X120588095Y-110750000D01*
X120635714Y-110797619D01*
X120683333Y-110892857D01*
X120683333Y-111035714D01*
X120635714Y-111130952D01*
X120588095Y-111178571D01*
X120492857Y-111226190D01*
X120111904Y-111226190D01*
X121635714Y-111702380D02*
X121064285Y-111702380D01*
X121350000Y-111702380D02*
X121350000Y-110702380D01*
X121254761Y-110845238D01*
X121159523Y-110940476D01*
X121064285Y-110988095D01*
X159792380Y-83941904D02*
X160601904Y-83941904D01*
X160697142Y-83894285D01*
X160744761Y-83846666D01*
X160792380Y-83751428D01*
X160792380Y-83560952D01*
X160744761Y-83465714D01*
X160697142Y-83418095D01*
X160601904Y-83370476D01*
X159792380Y-83370476D01*
X160792380Y-82370476D02*
X160792380Y-82941904D01*
X160792380Y-82656190D02*
X159792380Y-82656190D01*
X159935238Y-82751428D01*
X160030476Y-82846666D01*
X160078095Y-82941904D01*
X155060666Y-95141666D02*
X154360666Y-95141666D01*
X154860666Y-94908333D01*
X154360666Y-94675000D01*
X155060666Y-94675000D01*
X155060666Y-94341666D02*
X154360666Y-94341666D01*
X155060666Y-93941666D02*
X154660666Y-94241666D01*
X154360666Y-93941666D02*
X154760666Y-94341666D01*
X154427333Y-93675000D02*
X154394000Y-93641666D01*
X154360666Y-93575000D01*
X154360666Y-93408333D01*
X154394000Y-93341666D01*
X154427333Y-93308333D01*
X154494000Y-93275000D01*
X154560666Y-93275000D01*
X154660666Y-93308333D01*
X155060666Y-93708333D01*
X155060666Y-93275000D01*
X154360666Y-92841666D02*
X154360666Y-92775000D01*
X154394000Y-92708333D01*
X154427333Y-92675000D01*
X154494000Y-92641666D01*
X154627333Y-92608333D01*
X154794000Y-92608333D01*
X154927333Y-92641666D01*
X154994000Y-92675000D01*
X155027333Y-92708333D01*
X155060666Y-92775000D01*
X155060666Y-92841666D01*
X155027333Y-92908333D01*
X154994000Y-92941666D01*
X154927333Y-92975000D01*
X154794000Y-93008333D01*
X154627333Y-93008333D01*
X154494000Y-92975000D01*
X154427333Y-92941666D01*
X154394000Y-92908333D01*
X154360666Y-92841666D01*
X155060666Y-92308333D02*
X154360666Y-92308333D01*
X154360666Y-92141666D01*
X154394000Y-92041666D01*
X154460666Y-91975000D01*
X154527333Y-91941666D01*
X154660666Y-91908333D01*
X154760666Y-91908333D01*
X154894000Y-91941666D01*
X154960666Y-91975000D01*
X155027333Y-92041666D01*
X155060666Y-92141666D01*
X155060666Y-92308333D01*
X154360666Y-91675000D02*
X155060666Y-91208333D01*
X154360666Y-91208333D02*
X155060666Y-91675000D01*
X155060666Y-90575000D02*
X155060666Y-90975000D01*
X155060666Y-90775000D02*
X154360666Y-90775000D01*
X154460666Y-90841666D01*
X154527333Y-90908333D01*
X154560666Y-90975000D01*
X154427333Y-90308333D02*
X154394000Y-90275000D01*
X154360666Y-90208333D01*
X154360666Y-90041666D01*
X154394000Y-89975000D01*
X154427333Y-89941666D01*
X154494000Y-89908333D01*
X154560666Y-89908333D01*
X154660666Y-89941666D01*
X155060666Y-90341666D01*
X155060666Y-89908333D01*
X154660666Y-89508333D02*
X154627333Y-89575000D01*
X154594000Y-89608333D01*
X154527333Y-89641666D01*
X154494000Y-89641666D01*
X154427333Y-89608333D01*
X154394000Y-89575000D01*
X154360666Y-89508333D01*
X154360666Y-89375000D01*
X154394000Y-89308333D01*
X154427333Y-89275000D01*
X154494000Y-89241666D01*
X154527333Y-89241666D01*
X154594000Y-89275000D01*
X154627333Y-89308333D01*
X154660666Y-89375000D01*
X154660666Y-89508333D01*
X154694000Y-89575000D01*
X154727333Y-89608333D01*
X154794000Y-89641666D01*
X154927333Y-89641666D01*
X154994000Y-89608333D01*
X155027333Y-89575000D01*
X155060666Y-89508333D01*
X155060666Y-89375000D01*
X155027333Y-89308333D01*
X154994000Y-89275000D01*
X154927333Y-89241666D01*
X154794000Y-89241666D01*
X154727333Y-89275000D01*
X154694000Y-89308333D01*
X154660666Y-89375000D01*
X154360666Y-89041666D02*
X155060666Y-88808333D01*
X154360666Y-88575000D01*
X155060666Y-88008333D02*
X155060666Y-88341666D01*
X154360666Y-88341666D01*
X155060666Y-87775000D02*
X154360666Y-87775000D01*
X154694000Y-87775000D02*
X154694000Y-87375000D01*
X155060666Y-87375000D02*
X154360666Y-87375000D01*
X154360666Y-86708333D02*
X154360666Y-87041666D01*
X154694000Y-87075000D01*
X154660666Y-87041666D01*
X154627333Y-86975000D01*
X154627333Y-86808333D01*
X154660666Y-86741666D01*
X154694000Y-86708333D01*
X154760666Y-86675000D01*
X154927333Y-86675000D01*
X154994000Y-86708333D01*
X155027333Y-86741666D01*
X155060666Y-86808333D01*
X155060666Y-86975000D01*
X155027333Y-87041666D01*
X154994000Y-87075000D01*
X153790666Y-94658333D02*
X153090666Y-94658333D01*
X153590666Y-94425000D01*
X153090666Y-94191666D01*
X153790666Y-94191666D01*
X153790666Y-93858333D02*
X153090666Y-93858333D01*
X153790666Y-93458333D02*
X153390666Y-93758333D01*
X153090666Y-93458333D02*
X153490666Y-93858333D01*
X153790666Y-92825000D02*
X153790666Y-93158333D01*
X153090666Y-93158333D01*
X153157333Y-92625000D02*
X153124000Y-92591666D01*
X153090666Y-92525000D01*
X153090666Y-92358333D01*
X153124000Y-92291666D01*
X153157333Y-92258333D01*
X153224000Y-92225000D01*
X153290666Y-92225000D01*
X153390666Y-92258333D01*
X153790666Y-92658333D01*
X153790666Y-92225000D01*
X153090666Y-91625000D02*
X153090666Y-91758333D01*
X153124000Y-91825000D01*
X153157333Y-91858333D01*
X153257333Y-91925000D01*
X153390666Y-91958333D01*
X153657333Y-91958333D01*
X153724000Y-91925000D01*
X153757333Y-91891666D01*
X153790666Y-91825000D01*
X153790666Y-91691666D01*
X153757333Y-91625000D01*
X153724000Y-91591666D01*
X153657333Y-91558333D01*
X153490666Y-91558333D01*
X153424000Y-91591666D01*
X153390666Y-91625000D01*
X153357333Y-91691666D01*
X153357333Y-91825000D01*
X153390666Y-91891666D01*
X153424000Y-91925000D01*
X153490666Y-91958333D01*
X153090666Y-91325000D02*
X153090666Y-90858333D01*
X153790666Y-91325000D01*
X153790666Y-90858333D01*
X153090666Y-90291666D02*
X153090666Y-90425000D01*
X153124000Y-90491666D01*
X153157333Y-90525000D01*
X153257333Y-90591666D01*
X153390666Y-90625000D01*
X153657333Y-90625000D01*
X153724000Y-90591666D01*
X153757333Y-90558333D01*
X153790666Y-90491666D01*
X153790666Y-90358333D01*
X153757333Y-90291666D01*
X153724000Y-90258333D01*
X153657333Y-90225000D01*
X153490666Y-90225000D01*
X153424000Y-90258333D01*
X153390666Y-90291666D01*
X153357333Y-90358333D01*
X153357333Y-90491666D01*
X153390666Y-90558333D01*
X153424000Y-90591666D01*
X153490666Y-90625000D01*
X153324000Y-89625000D02*
X153790666Y-89625000D01*
X153057333Y-89791666D02*
X153557333Y-89958333D01*
X153557333Y-89525000D01*
X153090666Y-89358333D02*
X153790666Y-89125000D01*
X153090666Y-88891666D01*
X153424000Y-88425000D02*
X153424000Y-88658333D01*
X153790666Y-88658333D02*
X153090666Y-88658333D01*
X153090666Y-88325000D01*
X153090666Y-88158333D02*
X153090666Y-87758333D01*
X153790666Y-87958333D02*
X153090666Y-87958333D01*
X153324000Y-87225000D02*
X153790666Y-87225000D01*
X153057333Y-87391666D02*
X153557333Y-87558333D01*
X153557333Y-87125000D01*
X156330666Y-95141666D02*
X155630666Y-95141666D01*
X156130666Y-94908333D01*
X155630666Y-94675000D01*
X156330666Y-94675000D01*
X156330666Y-94341666D02*
X155630666Y-94341666D01*
X156330666Y-93941666D02*
X155930666Y-94241666D01*
X155630666Y-93941666D02*
X156030666Y-94341666D01*
X155697333Y-93675000D02*
X155664000Y-93641666D01*
X155630666Y-93575000D01*
X155630666Y-93408333D01*
X155664000Y-93341666D01*
X155697333Y-93308333D01*
X155764000Y-93275000D01*
X155830666Y-93275000D01*
X155930666Y-93308333D01*
X156330666Y-93708333D01*
X156330666Y-93275000D01*
X155630666Y-92841666D02*
X155630666Y-92775000D01*
X155664000Y-92708333D01*
X155697333Y-92675000D01*
X155764000Y-92641666D01*
X155897333Y-92608333D01*
X156064000Y-92608333D01*
X156197333Y-92641666D01*
X156264000Y-92675000D01*
X156297333Y-92708333D01*
X156330666Y-92775000D01*
X156330666Y-92841666D01*
X156297333Y-92908333D01*
X156264000Y-92941666D01*
X156197333Y-92975000D01*
X156064000Y-93008333D01*
X155897333Y-93008333D01*
X155764000Y-92975000D01*
X155697333Y-92941666D01*
X155664000Y-92908333D01*
X155630666Y-92841666D01*
X156330666Y-92308333D02*
X155630666Y-92308333D01*
X155630666Y-92141666D01*
X155664000Y-92041666D01*
X155730666Y-91975000D01*
X155797333Y-91941666D01*
X155930666Y-91908333D01*
X156030666Y-91908333D01*
X156164000Y-91941666D01*
X156230666Y-91975000D01*
X156297333Y-92041666D01*
X156330666Y-92141666D01*
X156330666Y-92308333D01*
X155630666Y-91675000D02*
X156330666Y-91208333D01*
X155630666Y-91208333D02*
X156330666Y-91675000D01*
X155697333Y-90975000D02*
X155664000Y-90941666D01*
X155630666Y-90875000D01*
X155630666Y-90708333D01*
X155664000Y-90641666D01*
X155697333Y-90608333D01*
X155764000Y-90575000D01*
X155830666Y-90575000D01*
X155930666Y-90608333D01*
X156330666Y-91008333D01*
X156330666Y-90575000D01*
X155630666Y-89941666D02*
X155630666Y-90275000D01*
X155964000Y-90308333D01*
X155930666Y-90275000D01*
X155897333Y-90208333D01*
X155897333Y-90041666D01*
X155930666Y-89975000D01*
X155964000Y-89941666D01*
X156030666Y-89908333D01*
X156197333Y-89908333D01*
X156264000Y-89941666D01*
X156297333Y-89975000D01*
X156330666Y-90041666D01*
X156330666Y-90208333D01*
X156297333Y-90275000D01*
X156264000Y-90308333D01*
X155630666Y-89308333D02*
X155630666Y-89441666D01*
X155664000Y-89508333D01*
X155697333Y-89541666D01*
X155797333Y-89608333D01*
X155930666Y-89641666D01*
X156197333Y-89641666D01*
X156264000Y-89608333D01*
X156297333Y-89575000D01*
X156330666Y-89508333D01*
X156330666Y-89375000D01*
X156297333Y-89308333D01*
X156264000Y-89275000D01*
X156197333Y-89241666D01*
X156030666Y-89241666D01*
X155964000Y-89275000D01*
X155930666Y-89308333D01*
X155897333Y-89375000D01*
X155897333Y-89508333D01*
X155930666Y-89575000D01*
X155964000Y-89608333D01*
X156030666Y-89641666D01*
X155630666Y-89041666D02*
X156330666Y-88808333D01*
X155630666Y-88575000D01*
X156330666Y-88008333D02*
X156330666Y-88341666D01*
X155630666Y-88341666D01*
X156330666Y-87775000D02*
X155630666Y-87775000D01*
X155964000Y-87775000D02*
X155964000Y-87375000D01*
X156330666Y-87375000D02*
X155630666Y-87375000D01*
X155630666Y-87108333D02*
X155630666Y-86641666D01*
X156330666Y-86941666D01*
X154283809Y-79582380D02*
X154855238Y-79582380D01*
X154569523Y-80582380D02*
X154569523Y-79582380D01*
X155093333Y-79582380D02*
X155712380Y-79582380D01*
X155379047Y-79963333D01*
X155521904Y-79963333D01*
X155617142Y-80010952D01*
X155664761Y-80058571D01*
X155712380Y-80153809D01*
X155712380Y-80391904D01*
X155664761Y-80487142D01*
X155617142Y-80534761D01*
X155521904Y-80582380D01*
X155236190Y-80582380D01*
X155140952Y-80534761D01*
X155093333Y-80487142D01*
X156140952Y-80487142D02*
X156188571Y-80534761D01*
X156140952Y-80582380D01*
X156093333Y-80534761D01*
X156140952Y-80487142D01*
X156140952Y-80582380D01*
X157140952Y-80582380D02*
X156569523Y-80582380D01*
X156855238Y-80582380D02*
X156855238Y-79582380D01*
X156760000Y-79725238D01*
X156664761Y-79820476D01*
X156569523Y-79868095D01*
X154283809Y-75772380D02*
X154855238Y-75772380D01*
X154569523Y-76772380D02*
X154569523Y-75772380D01*
X155093333Y-75772380D02*
X155712380Y-75772380D01*
X155379047Y-76153333D01*
X155521904Y-76153333D01*
X155617142Y-76200952D01*
X155664761Y-76248571D01*
X155712380Y-76343809D01*
X155712380Y-76581904D01*
X155664761Y-76677142D01*
X155617142Y-76724761D01*
X155521904Y-76772380D01*
X155236190Y-76772380D01*
X155140952Y-76724761D01*
X155093333Y-76677142D01*
X156140952Y-76677142D02*
X156188571Y-76724761D01*
X156140952Y-76772380D01*
X156093333Y-76724761D01*
X156140952Y-76677142D01*
X156140952Y-76772380D01*
X156569523Y-75867619D02*
X156617142Y-75820000D01*
X156712380Y-75772380D01*
X156950476Y-75772380D01*
X157045714Y-75820000D01*
X157093333Y-75867619D01*
X157140952Y-75962857D01*
X157140952Y-76058095D01*
X157093333Y-76200952D01*
X156521904Y-76772380D01*
X157140952Y-76772380D01*
M02*
