G04 #@! TF.GenerationSoftware,KiCad,Pcbnew,(5.1.4-0)*
G04 #@! TF.CreationDate,2020-03-10T11:39:59-04:00*
G04 #@! TF.ProjectId,joystick,6a6f7973-7469-4636-9b2e-6b696361645f,rev?*
G04 #@! TF.SameCoordinates,Original*
G04 #@! TF.FileFunction,Copper,L2,Bot*
G04 #@! TF.FilePolarity,Positive*
%FSLAX46Y46*%
G04 Gerber Fmt 4.6, Leading zero omitted, Abs format (unit mm)*
G04 Created by KiCad (PCBNEW (5.1.4-0)) date 2020-03-10 11:39:59*
%MOMM*%
%LPD*%
G04 APERTURE LIST*
%ADD10O,1.700000X1.700000*%
%ADD11R,1.700000X1.700000*%
%ADD12R,4.400000X2.000000*%
%ADD13C,2.000000*%
%ADD14C,2.900000*%
%ADD15R,1.600000X1.600000*%
%ADD16C,1.600000*%
%ADD17C,0.800000*%
%ADD18C,0.250000*%
%ADD19C,0.254000*%
G04 APERTURE END LIST*
D10*
X107200000Y-86300000D03*
X104660000Y-86300000D03*
X102120000Y-86300000D03*
X99580000Y-86300000D03*
X97040000Y-86300000D03*
D11*
X94500000Y-86300000D03*
D10*
X128900000Y-67140000D03*
X126360000Y-67140000D03*
X123820000Y-67140000D03*
D11*
X121280000Y-67140000D03*
D12*
X138350000Y-118460000D03*
X131350000Y-118460000D03*
X134850000Y-107400000D03*
D13*
X138350000Y-109930000D03*
X131350000Y-115930000D03*
D14*
X107950000Y-100900000D03*
X107950000Y-105100000D03*
X95250000Y-105100000D03*
X95250000Y-100900000D03*
D15*
X145600000Y-69970000D03*
D16*
X145600000Y-72510000D03*
X145600000Y-75050000D03*
X145600000Y-77590000D03*
X145600000Y-80130000D03*
X145600000Y-82670000D03*
X145600000Y-85210000D03*
X145600000Y-87750000D03*
X145600000Y-90290000D03*
X145600000Y-92830000D03*
X145600000Y-95370000D03*
X145600000Y-97910000D03*
X145600000Y-100450000D03*
X160840000Y-69970000D03*
X160840000Y-72510000D03*
X160840000Y-75050000D03*
X160840000Y-77590000D03*
X160840000Y-80130000D03*
X160840000Y-82670000D03*
X160840000Y-85210000D03*
X160840000Y-87750000D03*
X160840000Y-90290000D03*
X160840000Y-92830000D03*
X160840000Y-95370000D03*
X160840000Y-97910000D03*
X160840000Y-100450000D03*
X145600000Y-102990000D03*
X160840000Y-102990000D03*
D17*
X112300000Y-106950000D03*
X124050000Y-108900000D03*
X153000000Y-104950000D03*
D18*
X127535001Y-65964999D02*
X157464999Y-65964999D01*
X126360000Y-67140000D02*
X127535001Y-65964999D01*
X157464999Y-65964999D02*
X158850000Y-67350000D01*
X158850000Y-67350000D02*
X158850000Y-87150000D01*
X159450000Y-87750000D02*
X160840000Y-87750000D01*
X158850000Y-87150000D02*
X159450000Y-87750000D01*
X153000000Y-104950000D02*
X155050000Y-104950000D01*
X161850000Y-104950000D02*
X153000000Y-104950000D01*
X162700000Y-102250000D02*
X162700000Y-104100000D01*
X162025001Y-101575001D02*
X162700000Y-102250000D01*
X160840000Y-100450000D02*
X161965001Y-101575001D01*
X161965001Y-101575001D02*
X162025001Y-101575001D01*
X162700000Y-104100000D02*
X161850000Y-104950000D01*
X113370000Y-72510000D02*
X102030000Y-83850000D01*
X145600000Y-72510000D02*
X113370000Y-72510000D01*
X102030000Y-83850000D02*
X99580000Y-86300000D01*
X145600000Y-92830000D02*
X143650000Y-90880000D01*
X143650000Y-90880000D02*
X143650000Y-75950000D01*
X140950000Y-73250000D02*
X113750000Y-73250000D01*
X143650000Y-75950000D02*
X140950000Y-73250000D01*
X104660000Y-82340000D02*
X104660000Y-86300000D01*
X113750000Y-73250000D02*
X104660000Y-82340000D01*
D19*
G36*
X164822911Y-64797821D02*
G01*
X164415905Y-65069774D01*
X164069774Y-65415905D01*
X163797821Y-65822911D01*
X163610497Y-66275152D01*
X163515000Y-66755249D01*
X163515000Y-67244751D01*
X163610497Y-67724848D01*
X163797821Y-68177089D01*
X164069774Y-68584095D01*
X164415905Y-68930226D01*
X164822911Y-69202179D01*
X165275152Y-69389503D01*
X165755249Y-69485000D01*
X166244751Y-69485000D01*
X166260092Y-69481949D01*
X163678280Y-71134951D01*
X163642539Y-71154055D01*
X163595548Y-71192620D01*
X163547847Y-71230230D01*
X163543461Y-71235367D01*
X163538234Y-71239656D01*
X163499665Y-71286652D01*
X163460223Y-71332841D01*
X163456923Y-71338735D01*
X163452634Y-71343961D01*
X163423977Y-71397574D01*
X163394301Y-71450574D01*
X163392214Y-71456998D01*
X163389027Y-71462961D01*
X163371387Y-71521111D01*
X163352613Y-71578906D01*
X163351819Y-71585619D01*
X163349858Y-71592084D01*
X163343899Y-71652584D01*
X163336765Y-71712905D01*
X163339946Y-71753287D01*
X163339947Y-101835027D01*
X163334974Y-101825724D01*
X163240001Y-101709999D01*
X163211004Y-101686202D01*
X162588804Y-101064003D01*
X162565002Y-101035000D01*
X162449277Y-100940027D01*
X162353788Y-100888987D01*
X162238688Y-100773886D01*
X162275000Y-100591335D01*
X162275000Y-100308665D01*
X162219853Y-100031426D01*
X162111680Y-99770273D01*
X161954637Y-99535241D01*
X161754759Y-99335363D01*
X161522241Y-99180000D01*
X161754759Y-99024637D01*
X161954637Y-98824759D01*
X162111680Y-98589727D01*
X162219853Y-98328574D01*
X162275000Y-98051335D01*
X162275000Y-97768665D01*
X162219853Y-97491426D01*
X162111680Y-97230273D01*
X161954637Y-96995241D01*
X161754759Y-96795363D01*
X161522241Y-96640000D01*
X161754759Y-96484637D01*
X161954637Y-96284759D01*
X162111680Y-96049727D01*
X162219853Y-95788574D01*
X162275000Y-95511335D01*
X162275000Y-95228665D01*
X162219853Y-94951426D01*
X162111680Y-94690273D01*
X161954637Y-94455241D01*
X161754759Y-94255363D01*
X161522241Y-94100000D01*
X161754759Y-93944637D01*
X161954637Y-93744759D01*
X162111680Y-93509727D01*
X162219853Y-93248574D01*
X162275000Y-92971335D01*
X162275000Y-92688665D01*
X162219853Y-92411426D01*
X162111680Y-92150273D01*
X161954637Y-91915241D01*
X161754759Y-91715363D01*
X161522241Y-91560000D01*
X161754759Y-91404637D01*
X161954637Y-91204759D01*
X162111680Y-90969727D01*
X162219853Y-90708574D01*
X162275000Y-90431335D01*
X162275000Y-90148665D01*
X162219853Y-89871426D01*
X162111680Y-89610273D01*
X161954637Y-89375241D01*
X161754759Y-89175363D01*
X161522241Y-89020000D01*
X161754759Y-88864637D01*
X161954637Y-88664759D01*
X162111680Y-88429727D01*
X162219853Y-88168574D01*
X162275000Y-87891335D01*
X162275000Y-87608665D01*
X162219853Y-87331426D01*
X162111680Y-87070273D01*
X161954637Y-86835241D01*
X161754759Y-86635363D01*
X161522241Y-86480000D01*
X161754759Y-86324637D01*
X161954637Y-86124759D01*
X162111680Y-85889727D01*
X162219853Y-85628574D01*
X162275000Y-85351335D01*
X162275000Y-85068665D01*
X162219853Y-84791426D01*
X162111680Y-84530273D01*
X161954637Y-84295241D01*
X161754759Y-84095363D01*
X161522241Y-83940000D01*
X161754759Y-83784637D01*
X161954637Y-83584759D01*
X162111680Y-83349727D01*
X162219853Y-83088574D01*
X162275000Y-82811335D01*
X162275000Y-82528665D01*
X162219853Y-82251426D01*
X162111680Y-81990273D01*
X161954637Y-81755241D01*
X161754759Y-81555363D01*
X161522241Y-81400000D01*
X161754759Y-81244637D01*
X161954637Y-81044759D01*
X162111680Y-80809727D01*
X162219853Y-80548574D01*
X162275000Y-80271335D01*
X162275000Y-79988665D01*
X162219853Y-79711426D01*
X162111680Y-79450273D01*
X161954637Y-79215241D01*
X161754759Y-79015363D01*
X161522241Y-78860000D01*
X161754759Y-78704637D01*
X161954637Y-78504759D01*
X162111680Y-78269727D01*
X162219853Y-78008574D01*
X162275000Y-77731335D01*
X162275000Y-77448665D01*
X162219853Y-77171426D01*
X162111680Y-76910273D01*
X161954637Y-76675241D01*
X161754759Y-76475363D01*
X161522241Y-76320000D01*
X161754759Y-76164637D01*
X161954637Y-75964759D01*
X162111680Y-75729727D01*
X162219853Y-75468574D01*
X162275000Y-75191335D01*
X162275000Y-74908665D01*
X162219853Y-74631426D01*
X162111680Y-74370273D01*
X161954637Y-74135241D01*
X161754759Y-73935363D01*
X161522241Y-73780000D01*
X161754759Y-73624637D01*
X161954637Y-73424759D01*
X162111680Y-73189727D01*
X162219853Y-72928574D01*
X162275000Y-72651335D01*
X162275000Y-72368665D01*
X162219853Y-72091426D01*
X162111680Y-71830273D01*
X161954637Y-71595241D01*
X161754759Y-71395363D01*
X161522241Y-71240000D01*
X161754759Y-71084637D01*
X161954637Y-70884759D01*
X162111680Y-70649727D01*
X162219853Y-70388574D01*
X162275000Y-70111335D01*
X162275000Y-69828665D01*
X162219853Y-69551426D01*
X162111680Y-69290273D01*
X161954637Y-69055241D01*
X161754759Y-68855363D01*
X161519727Y-68698320D01*
X161258574Y-68590147D01*
X160981335Y-68535000D01*
X160698665Y-68535000D01*
X160421426Y-68590147D01*
X160160273Y-68698320D01*
X159925241Y-68855363D01*
X159725363Y-69055241D01*
X159610000Y-69227894D01*
X159610000Y-67387322D01*
X159613676Y-67349999D01*
X159610000Y-67312676D01*
X159610000Y-67312667D01*
X159599003Y-67201014D01*
X159555546Y-67057753D01*
X159484974Y-66925724D01*
X159390001Y-66809999D01*
X159361004Y-66786202D01*
X158028803Y-65454002D01*
X158005000Y-65424998D01*
X157889275Y-65330025D01*
X157757246Y-65259453D01*
X157613985Y-65215996D01*
X157502332Y-65204999D01*
X157502321Y-65204999D01*
X157464999Y-65201323D01*
X157427677Y-65204999D01*
X127572323Y-65204999D01*
X127535000Y-65201323D01*
X127497677Y-65204999D01*
X127497668Y-65204999D01*
X127386015Y-65215996D01*
X127242754Y-65259453D01*
X127110725Y-65330025D01*
X126995000Y-65424998D01*
X126971202Y-65453996D01*
X126725995Y-65699203D01*
X126651111Y-65676487D01*
X126432950Y-65655000D01*
X126287050Y-65655000D01*
X126068889Y-65676487D01*
X125788966Y-65761401D01*
X125530986Y-65899294D01*
X125304866Y-66084866D01*
X125119294Y-66310986D01*
X125090000Y-66365791D01*
X125060706Y-66310986D01*
X124875134Y-66084866D01*
X124649014Y-65899294D01*
X124391034Y-65761401D01*
X124111111Y-65676487D01*
X123892950Y-65655000D01*
X123747050Y-65655000D01*
X123528889Y-65676487D01*
X123248966Y-65761401D01*
X122990986Y-65899294D01*
X122764866Y-66084866D01*
X122579294Y-66310986D01*
X122441401Y-66568966D01*
X122356487Y-66848889D01*
X122327815Y-67140000D01*
X122356487Y-67431111D01*
X122441401Y-67711034D01*
X122579294Y-67969014D01*
X122764866Y-68195134D01*
X122990986Y-68380706D01*
X123248966Y-68518599D01*
X123528889Y-68603513D01*
X123747050Y-68625000D01*
X123892950Y-68625000D01*
X124111111Y-68603513D01*
X124391034Y-68518599D01*
X124649014Y-68380706D01*
X124875134Y-68195134D01*
X125060706Y-67969014D01*
X125090000Y-67914209D01*
X125119294Y-67969014D01*
X125304866Y-68195134D01*
X125530986Y-68380706D01*
X125788966Y-68518599D01*
X126068889Y-68603513D01*
X126287050Y-68625000D01*
X126432950Y-68625000D01*
X126651111Y-68603513D01*
X126931034Y-68518599D01*
X127189014Y-68380706D01*
X127415134Y-68195134D01*
X127600706Y-67969014D01*
X127630000Y-67914209D01*
X127659294Y-67969014D01*
X127844866Y-68195134D01*
X128070986Y-68380706D01*
X128328966Y-68518599D01*
X128608889Y-68603513D01*
X128827050Y-68625000D01*
X128972950Y-68625000D01*
X129191111Y-68603513D01*
X129471034Y-68518599D01*
X129729014Y-68380706D01*
X129955134Y-68195134D01*
X130140706Y-67969014D01*
X130278599Y-67711034D01*
X130363513Y-67431111D01*
X130392185Y-67140000D01*
X130363513Y-66848889D01*
X130325931Y-66724999D01*
X157150198Y-66724999D01*
X158090000Y-67664802D01*
X158090001Y-87112667D01*
X158086324Y-87150000D01*
X158090001Y-87187333D01*
X158100998Y-87298986D01*
X158109109Y-87325724D01*
X158144454Y-87442246D01*
X158215026Y-87574276D01*
X158236969Y-87601013D01*
X158310000Y-87690001D01*
X158338998Y-87713799D01*
X158886200Y-88261002D01*
X158909999Y-88290001D01*
X158938997Y-88313799D01*
X159025723Y-88384974D01*
X159157753Y-88455546D01*
X159301014Y-88499003D01*
X159412667Y-88510000D01*
X159412676Y-88510000D01*
X159449999Y-88513676D01*
X159487322Y-88510000D01*
X159621957Y-88510000D01*
X159725363Y-88664759D01*
X159925241Y-88864637D01*
X160157759Y-89020000D01*
X159925241Y-89175363D01*
X159725363Y-89375241D01*
X159568320Y-89610273D01*
X159460147Y-89871426D01*
X159405000Y-90148665D01*
X159405000Y-90431335D01*
X159460147Y-90708574D01*
X159568320Y-90969727D01*
X159725363Y-91204759D01*
X159925241Y-91404637D01*
X160157759Y-91560000D01*
X159925241Y-91715363D01*
X159725363Y-91915241D01*
X159568320Y-92150273D01*
X159460147Y-92411426D01*
X159405000Y-92688665D01*
X159405000Y-92971335D01*
X159460147Y-93248574D01*
X159568320Y-93509727D01*
X159725363Y-93744759D01*
X159925241Y-93944637D01*
X160157759Y-94100000D01*
X159925241Y-94255363D01*
X159725363Y-94455241D01*
X159568320Y-94690273D01*
X159460147Y-94951426D01*
X159405000Y-95228665D01*
X159405000Y-95511335D01*
X159460147Y-95788574D01*
X159568320Y-96049727D01*
X159725363Y-96284759D01*
X159925241Y-96484637D01*
X160157759Y-96640000D01*
X159925241Y-96795363D01*
X159725363Y-96995241D01*
X159568320Y-97230273D01*
X159460147Y-97491426D01*
X159405000Y-97768665D01*
X159405000Y-98051335D01*
X159460147Y-98328574D01*
X159568320Y-98589727D01*
X159725363Y-98824759D01*
X159925241Y-99024637D01*
X160157759Y-99180000D01*
X159925241Y-99335363D01*
X159725363Y-99535241D01*
X159568320Y-99770273D01*
X159460147Y-100031426D01*
X159405000Y-100308665D01*
X159405000Y-100591335D01*
X159460147Y-100868574D01*
X159568320Y-101129727D01*
X159725363Y-101364759D01*
X159925241Y-101564637D01*
X160157759Y-101720000D01*
X159925241Y-101875363D01*
X159725363Y-102075241D01*
X159568320Y-102310273D01*
X159460147Y-102571426D01*
X159405000Y-102848665D01*
X159405000Y-103131335D01*
X159460147Y-103408574D01*
X159568320Y-103669727D01*
X159725363Y-103904759D01*
X159925241Y-104104637D01*
X160052996Y-104190000D01*
X153703711Y-104190000D01*
X153659774Y-104146063D01*
X153490256Y-104032795D01*
X153301898Y-103954774D01*
X153101939Y-103915000D01*
X152898061Y-103915000D01*
X152698102Y-103954774D01*
X152509744Y-104032795D01*
X152340226Y-104146063D01*
X152196063Y-104290226D01*
X152082795Y-104459744D01*
X152004774Y-104648102D01*
X151965000Y-104848061D01*
X151965000Y-105051939D01*
X152004774Y-105251898D01*
X152082795Y-105440256D01*
X152196063Y-105609774D01*
X152340226Y-105753937D01*
X152509744Y-105867205D01*
X152698102Y-105945226D01*
X152898061Y-105985000D01*
X153101939Y-105985000D01*
X153301898Y-105945226D01*
X153490256Y-105867205D01*
X153659774Y-105753937D01*
X153703711Y-105710000D01*
X161812678Y-105710000D01*
X161850000Y-105713676D01*
X161887322Y-105710000D01*
X161887333Y-105710000D01*
X161998986Y-105699003D01*
X162142247Y-105655546D01*
X162274276Y-105584974D01*
X162390001Y-105490001D01*
X162413803Y-105460998D01*
X163211003Y-104663799D01*
X163240001Y-104640001D01*
X163334974Y-104524276D01*
X163339947Y-104514973D01*
X163339947Y-117246575D01*
X163336765Y-117286970D01*
X163343905Y-117347337D01*
X163349859Y-117407792D01*
X163351819Y-117414252D01*
X163352613Y-117420969D01*
X163371398Y-117478796D01*
X163389028Y-117536915D01*
X163392213Y-117542874D01*
X163394301Y-117549301D01*
X163423987Y-117602319D01*
X163452635Y-117655915D01*
X163456922Y-117661139D01*
X163460223Y-117667034D01*
X163499670Y-117713228D01*
X163538235Y-117760220D01*
X163543461Y-117764509D01*
X163547847Y-117769645D01*
X163595559Y-117807265D01*
X163642540Y-117845820D01*
X163678274Y-117864921D01*
X166260375Y-119518108D01*
X166244751Y-119515000D01*
X165755249Y-119515000D01*
X165275152Y-119610497D01*
X164822911Y-119797821D01*
X164415905Y-120069774D01*
X164069774Y-120415905D01*
X163797821Y-120822911D01*
X163610497Y-121275152D01*
X163515000Y-121755249D01*
X163515000Y-122244751D01*
X163610497Y-122724848D01*
X163797821Y-123177089D01*
X164069774Y-123584095D01*
X164415905Y-123930226D01*
X164822911Y-124202179D01*
X165155392Y-124339897D01*
X164033573Y-124339897D01*
X163999926Y-124336583D01*
X163999644Y-124336611D01*
X163999376Y-124336584D01*
X163965373Y-124339897D01*
X84844608Y-124339897D01*
X85177089Y-124202179D01*
X85584095Y-123930226D01*
X85930226Y-123584095D01*
X86202179Y-123177089D01*
X86389503Y-122724848D01*
X86485000Y-122244751D01*
X86485000Y-121755249D01*
X86389503Y-121275152D01*
X86202179Y-120822911D01*
X85930226Y-120415905D01*
X85584095Y-120069774D01*
X85177089Y-119797821D01*
X84724848Y-119610497D01*
X84244751Y-119515000D01*
X83755249Y-119515000D01*
X83739268Y-119518179D01*
X86321616Y-117864835D01*
X86357341Y-117845739D01*
X86404290Y-117807209D01*
X86452034Y-117769565D01*
X86456423Y-117764425D01*
X86461646Y-117760139D01*
X86500201Y-117713159D01*
X86539658Y-117666954D01*
X86542958Y-117661060D01*
X86547247Y-117655834D01*
X86575904Y-117602221D01*
X86605580Y-117549221D01*
X86607667Y-117542797D01*
X86610854Y-117536834D01*
X86628494Y-117478684D01*
X86634563Y-117460000D01*
X128511928Y-117460000D01*
X128511928Y-119460000D01*
X128524188Y-119584482D01*
X128560498Y-119704180D01*
X128619463Y-119814494D01*
X128698815Y-119911185D01*
X128795506Y-119990537D01*
X128905820Y-120049502D01*
X129025518Y-120085812D01*
X129150000Y-120098072D01*
X133550000Y-120098072D01*
X133674482Y-120085812D01*
X133794180Y-120049502D01*
X133904494Y-119990537D01*
X134001185Y-119911185D01*
X134080537Y-119814494D01*
X134139502Y-119704180D01*
X134175812Y-119584482D01*
X134188072Y-119460000D01*
X134188072Y-117460000D01*
X135511928Y-117460000D01*
X135511928Y-119460000D01*
X135524188Y-119584482D01*
X135560498Y-119704180D01*
X135619463Y-119814494D01*
X135698815Y-119911185D01*
X135795506Y-119990537D01*
X135905820Y-120049502D01*
X136025518Y-120085812D01*
X136150000Y-120098072D01*
X140550000Y-120098072D01*
X140674482Y-120085812D01*
X140794180Y-120049502D01*
X140904494Y-119990537D01*
X141001185Y-119911185D01*
X141080537Y-119814494D01*
X141139502Y-119704180D01*
X141175812Y-119584482D01*
X141188072Y-119460000D01*
X141188072Y-117460000D01*
X141175812Y-117335518D01*
X141139502Y-117215820D01*
X141080537Y-117105506D01*
X141001185Y-117008815D01*
X140904494Y-116929463D01*
X140794180Y-116870498D01*
X140674482Y-116834188D01*
X140550000Y-116821928D01*
X136150000Y-116821928D01*
X136025518Y-116834188D01*
X135905820Y-116870498D01*
X135795506Y-116929463D01*
X135698815Y-117008815D01*
X135619463Y-117105506D01*
X135560498Y-117215820D01*
X135524188Y-117335518D01*
X135511928Y-117460000D01*
X134188072Y-117460000D01*
X134175812Y-117335518D01*
X134139502Y-117215820D01*
X134080537Y-117105506D01*
X134001185Y-117008815D01*
X133904494Y-116929463D01*
X133794180Y-116870498D01*
X133674482Y-116834188D01*
X133550000Y-116821928D01*
X132720430Y-116821928D01*
X132798918Y-116704463D01*
X132922168Y-116406912D01*
X132985000Y-116091033D01*
X132985000Y-115768967D01*
X132922168Y-115453088D01*
X132798918Y-115155537D01*
X132619987Y-114887748D01*
X132392252Y-114660013D01*
X132124463Y-114481082D01*
X131826912Y-114357832D01*
X131511033Y-114295000D01*
X131188967Y-114295000D01*
X130873088Y-114357832D01*
X130575537Y-114481082D01*
X130307748Y-114660013D01*
X130080013Y-114887748D01*
X129901082Y-115155537D01*
X129777832Y-115453088D01*
X129715000Y-115768967D01*
X129715000Y-116091033D01*
X129777832Y-116406912D01*
X129901082Y-116704463D01*
X129979570Y-116821928D01*
X129150000Y-116821928D01*
X129025518Y-116834188D01*
X128905820Y-116870498D01*
X128795506Y-116929463D01*
X128698815Y-117008815D01*
X128619463Y-117105506D01*
X128560498Y-117215820D01*
X128524188Y-117335518D01*
X128511928Y-117460000D01*
X86634563Y-117460000D01*
X86647268Y-117420889D01*
X86648062Y-117414175D01*
X86650023Y-117407711D01*
X86655979Y-117347239D01*
X86663117Y-117286890D01*
X86659935Y-117246498D01*
X86659935Y-104894645D01*
X93165000Y-104894645D01*
X93165000Y-105305355D01*
X93245126Y-105708172D01*
X93402297Y-106087618D01*
X93630475Y-106429110D01*
X93920890Y-106719525D01*
X94262382Y-106947703D01*
X94641828Y-107104874D01*
X95044645Y-107185000D01*
X95455355Y-107185000D01*
X95858172Y-107104874D01*
X96237618Y-106947703D01*
X96579110Y-106719525D01*
X96869525Y-106429110D01*
X97097703Y-106087618D01*
X97254874Y-105708172D01*
X97335000Y-105305355D01*
X97335000Y-104894645D01*
X105865000Y-104894645D01*
X105865000Y-105305355D01*
X105945126Y-105708172D01*
X106102297Y-106087618D01*
X106330475Y-106429110D01*
X106620890Y-106719525D01*
X106962382Y-106947703D01*
X107341828Y-107104874D01*
X107744645Y-107185000D01*
X108155355Y-107185000D01*
X108558172Y-107104874D01*
X108937618Y-106947703D01*
X109279110Y-106719525D01*
X109569525Y-106429110D01*
X109588975Y-106400000D01*
X132011928Y-106400000D01*
X132011928Y-108400000D01*
X132024188Y-108524482D01*
X132060498Y-108644180D01*
X132119463Y-108754494D01*
X132198815Y-108851185D01*
X132295506Y-108930537D01*
X132405820Y-108989502D01*
X132525518Y-109025812D01*
X132650000Y-109038072D01*
X136979570Y-109038072D01*
X136901082Y-109155537D01*
X136777832Y-109453088D01*
X136715000Y-109768967D01*
X136715000Y-110091033D01*
X136777832Y-110406912D01*
X136901082Y-110704463D01*
X137080013Y-110972252D01*
X137307748Y-111199987D01*
X137575537Y-111378918D01*
X137873088Y-111502168D01*
X138188967Y-111565000D01*
X138511033Y-111565000D01*
X138826912Y-111502168D01*
X139124463Y-111378918D01*
X139392252Y-111199987D01*
X139619987Y-110972252D01*
X139798918Y-110704463D01*
X139922168Y-110406912D01*
X139985000Y-110091033D01*
X139985000Y-109768967D01*
X139922168Y-109453088D01*
X139798918Y-109155537D01*
X139619987Y-108887748D01*
X139392252Y-108660013D01*
X139124463Y-108481082D01*
X138826912Y-108357832D01*
X138511033Y-108295000D01*
X138188967Y-108295000D01*
X137873088Y-108357832D01*
X137684533Y-108435934D01*
X137688072Y-108400000D01*
X137688072Y-106400000D01*
X137675812Y-106275518D01*
X137639502Y-106155820D01*
X137580537Y-106045506D01*
X137501185Y-105948815D01*
X137404494Y-105869463D01*
X137294180Y-105810498D01*
X137174482Y-105774188D01*
X137050000Y-105761928D01*
X132650000Y-105761928D01*
X132525518Y-105774188D01*
X132405820Y-105810498D01*
X132295506Y-105869463D01*
X132198815Y-105948815D01*
X132119463Y-106045506D01*
X132060498Y-106155820D01*
X132024188Y-106275518D01*
X132011928Y-106400000D01*
X109588975Y-106400000D01*
X109797703Y-106087618D01*
X109954874Y-105708172D01*
X110035000Y-105305355D01*
X110035000Y-104894645D01*
X109954874Y-104491828D01*
X109797703Y-104112382D01*
X109569525Y-103770890D01*
X109279110Y-103480475D01*
X108937618Y-103252297D01*
X108558172Y-103095126D01*
X108155355Y-103015000D01*
X107744645Y-103015000D01*
X107341828Y-103095126D01*
X106962382Y-103252297D01*
X106620890Y-103480475D01*
X106330475Y-103770890D01*
X106102297Y-104112382D01*
X105945126Y-104491828D01*
X105865000Y-104894645D01*
X97335000Y-104894645D01*
X97254874Y-104491828D01*
X97097703Y-104112382D01*
X96869525Y-103770890D01*
X96579110Y-103480475D01*
X96237618Y-103252297D01*
X95858172Y-103095126D01*
X95455355Y-103015000D01*
X95044645Y-103015000D01*
X94641828Y-103095126D01*
X94262382Y-103252297D01*
X93920890Y-103480475D01*
X93630475Y-103770890D01*
X93402297Y-104112382D01*
X93245126Y-104491828D01*
X93165000Y-104894645D01*
X86659935Y-104894645D01*
X86659935Y-100694645D01*
X93165000Y-100694645D01*
X93165000Y-101105355D01*
X93245126Y-101508172D01*
X93402297Y-101887618D01*
X93630475Y-102229110D01*
X93920890Y-102519525D01*
X94262382Y-102747703D01*
X94641828Y-102904874D01*
X95044645Y-102985000D01*
X95455355Y-102985000D01*
X95858172Y-102904874D01*
X96237618Y-102747703D01*
X96579110Y-102519525D01*
X96869525Y-102229110D01*
X97097703Y-101887618D01*
X97254874Y-101508172D01*
X97335000Y-101105355D01*
X97335000Y-100694645D01*
X105865000Y-100694645D01*
X105865000Y-101105355D01*
X105945126Y-101508172D01*
X106102297Y-101887618D01*
X106330475Y-102229110D01*
X106620890Y-102519525D01*
X106962382Y-102747703D01*
X107341828Y-102904874D01*
X107744645Y-102985000D01*
X108155355Y-102985000D01*
X108558172Y-102904874D01*
X108937618Y-102747703D01*
X109279110Y-102519525D01*
X109569525Y-102229110D01*
X109797703Y-101887618D01*
X109954874Y-101508172D01*
X110035000Y-101105355D01*
X110035000Y-100694645D01*
X109954874Y-100291828D01*
X109797703Y-99912382D01*
X109569525Y-99570890D01*
X109279110Y-99280475D01*
X108937618Y-99052297D01*
X108558172Y-98895126D01*
X108155355Y-98815000D01*
X107744645Y-98815000D01*
X107341828Y-98895126D01*
X106962382Y-99052297D01*
X106620890Y-99280475D01*
X106330475Y-99570890D01*
X106102297Y-99912382D01*
X105945126Y-100291828D01*
X105865000Y-100694645D01*
X97335000Y-100694645D01*
X97254874Y-100291828D01*
X97097703Y-99912382D01*
X96869525Y-99570890D01*
X96579110Y-99280475D01*
X96237618Y-99052297D01*
X95858172Y-98895126D01*
X95455355Y-98815000D01*
X95044645Y-98815000D01*
X94641828Y-98895126D01*
X94262382Y-99052297D01*
X93920890Y-99280475D01*
X93630475Y-99570890D01*
X93402297Y-99912382D01*
X93245126Y-100291828D01*
X93165000Y-100694645D01*
X86659935Y-100694645D01*
X86659935Y-86300000D01*
X95547815Y-86300000D01*
X95576487Y-86591111D01*
X95661401Y-86871034D01*
X95799294Y-87129014D01*
X95984866Y-87355134D01*
X96210986Y-87540706D01*
X96468966Y-87678599D01*
X96748889Y-87763513D01*
X96967050Y-87785000D01*
X97112950Y-87785000D01*
X97331111Y-87763513D01*
X97611034Y-87678599D01*
X97869014Y-87540706D01*
X98095134Y-87355134D01*
X98280706Y-87129014D01*
X98310000Y-87074209D01*
X98339294Y-87129014D01*
X98524866Y-87355134D01*
X98750986Y-87540706D01*
X99008966Y-87678599D01*
X99288889Y-87763513D01*
X99507050Y-87785000D01*
X99652950Y-87785000D01*
X99871111Y-87763513D01*
X100151034Y-87678599D01*
X100409014Y-87540706D01*
X100635134Y-87355134D01*
X100820706Y-87129014D01*
X100850000Y-87074209D01*
X100879294Y-87129014D01*
X101064866Y-87355134D01*
X101290986Y-87540706D01*
X101548966Y-87678599D01*
X101828889Y-87763513D01*
X102047050Y-87785000D01*
X102192950Y-87785000D01*
X102411111Y-87763513D01*
X102691034Y-87678599D01*
X102949014Y-87540706D01*
X103175134Y-87355134D01*
X103360706Y-87129014D01*
X103390000Y-87074209D01*
X103419294Y-87129014D01*
X103604866Y-87355134D01*
X103830986Y-87540706D01*
X104088966Y-87678599D01*
X104368889Y-87763513D01*
X104587050Y-87785000D01*
X104732950Y-87785000D01*
X104951111Y-87763513D01*
X105231034Y-87678599D01*
X105489014Y-87540706D01*
X105715134Y-87355134D01*
X105900706Y-87129014D01*
X105930000Y-87074209D01*
X105959294Y-87129014D01*
X106144866Y-87355134D01*
X106370986Y-87540706D01*
X106628966Y-87678599D01*
X106908889Y-87763513D01*
X107127050Y-87785000D01*
X107272950Y-87785000D01*
X107491111Y-87763513D01*
X107771034Y-87678599D01*
X108029014Y-87540706D01*
X108255134Y-87355134D01*
X108440706Y-87129014D01*
X108578599Y-86871034D01*
X108663513Y-86591111D01*
X108692185Y-86300000D01*
X108663513Y-86008889D01*
X108578599Y-85728966D01*
X108440706Y-85470986D01*
X108255134Y-85244866D01*
X108029014Y-85059294D01*
X107771034Y-84921401D01*
X107491111Y-84836487D01*
X107272950Y-84815000D01*
X107127050Y-84815000D01*
X106908889Y-84836487D01*
X106628966Y-84921401D01*
X106370986Y-85059294D01*
X106144866Y-85244866D01*
X105959294Y-85470986D01*
X105930000Y-85525791D01*
X105900706Y-85470986D01*
X105715134Y-85244866D01*
X105489014Y-85059294D01*
X105420000Y-85022405D01*
X105420000Y-82654801D01*
X114064802Y-74010000D01*
X140635199Y-74010000D01*
X142890001Y-76264803D01*
X142890000Y-90842678D01*
X142886324Y-90880000D01*
X142890000Y-90917322D01*
X142890000Y-90917332D01*
X142900997Y-91028985D01*
X142944454Y-91172246D01*
X143015026Y-91304276D01*
X143054871Y-91352826D01*
X143109999Y-91420001D01*
X143139002Y-91443804D01*
X144201312Y-92506114D01*
X144165000Y-92688665D01*
X144165000Y-92971335D01*
X144220147Y-93248574D01*
X144328320Y-93509727D01*
X144485363Y-93744759D01*
X144685241Y-93944637D01*
X144917759Y-94100000D01*
X144685241Y-94255363D01*
X144485363Y-94455241D01*
X144328320Y-94690273D01*
X144220147Y-94951426D01*
X144165000Y-95228665D01*
X144165000Y-95511335D01*
X144220147Y-95788574D01*
X144328320Y-96049727D01*
X144485363Y-96284759D01*
X144685241Y-96484637D01*
X144917759Y-96640000D01*
X144685241Y-96795363D01*
X144485363Y-96995241D01*
X144328320Y-97230273D01*
X144220147Y-97491426D01*
X144165000Y-97768665D01*
X144165000Y-98051335D01*
X144220147Y-98328574D01*
X144328320Y-98589727D01*
X144485363Y-98824759D01*
X144685241Y-99024637D01*
X144917759Y-99180000D01*
X144685241Y-99335363D01*
X144485363Y-99535241D01*
X144328320Y-99770273D01*
X144220147Y-100031426D01*
X144165000Y-100308665D01*
X144165000Y-100591335D01*
X144220147Y-100868574D01*
X144328320Y-101129727D01*
X144485363Y-101364759D01*
X144685241Y-101564637D01*
X144917759Y-101720000D01*
X144685241Y-101875363D01*
X144485363Y-102075241D01*
X144328320Y-102310273D01*
X144220147Y-102571426D01*
X144165000Y-102848665D01*
X144165000Y-103131335D01*
X144220147Y-103408574D01*
X144328320Y-103669727D01*
X144485363Y-103904759D01*
X144685241Y-104104637D01*
X144920273Y-104261680D01*
X145181426Y-104369853D01*
X145458665Y-104425000D01*
X145741335Y-104425000D01*
X146018574Y-104369853D01*
X146279727Y-104261680D01*
X146514759Y-104104637D01*
X146714637Y-103904759D01*
X146871680Y-103669727D01*
X146979853Y-103408574D01*
X147035000Y-103131335D01*
X147035000Y-102848665D01*
X146979853Y-102571426D01*
X146871680Y-102310273D01*
X146714637Y-102075241D01*
X146514759Y-101875363D01*
X146282241Y-101720000D01*
X146514759Y-101564637D01*
X146714637Y-101364759D01*
X146871680Y-101129727D01*
X146979853Y-100868574D01*
X147035000Y-100591335D01*
X147035000Y-100308665D01*
X146979853Y-100031426D01*
X146871680Y-99770273D01*
X146714637Y-99535241D01*
X146514759Y-99335363D01*
X146282241Y-99180000D01*
X146514759Y-99024637D01*
X146714637Y-98824759D01*
X146871680Y-98589727D01*
X146979853Y-98328574D01*
X147035000Y-98051335D01*
X147035000Y-97768665D01*
X146979853Y-97491426D01*
X146871680Y-97230273D01*
X146714637Y-96995241D01*
X146514759Y-96795363D01*
X146282241Y-96640000D01*
X146514759Y-96484637D01*
X146714637Y-96284759D01*
X146871680Y-96049727D01*
X146979853Y-95788574D01*
X147035000Y-95511335D01*
X147035000Y-95228665D01*
X146979853Y-94951426D01*
X146871680Y-94690273D01*
X146714637Y-94455241D01*
X146514759Y-94255363D01*
X146282241Y-94100000D01*
X146514759Y-93944637D01*
X146714637Y-93744759D01*
X146871680Y-93509727D01*
X146979853Y-93248574D01*
X147035000Y-92971335D01*
X147035000Y-92688665D01*
X146979853Y-92411426D01*
X146871680Y-92150273D01*
X146714637Y-91915241D01*
X146514759Y-91715363D01*
X146282241Y-91560000D01*
X146514759Y-91404637D01*
X146714637Y-91204759D01*
X146871680Y-90969727D01*
X146979853Y-90708574D01*
X147035000Y-90431335D01*
X147035000Y-90148665D01*
X146979853Y-89871426D01*
X146871680Y-89610273D01*
X146714637Y-89375241D01*
X146514759Y-89175363D01*
X146282241Y-89020000D01*
X146514759Y-88864637D01*
X146714637Y-88664759D01*
X146871680Y-88429727D01*
X146979853Y-88168574D01*
X147035000Y-87891335D01*
X147035000Y-87608665D01*
X146979853Y-87331426D01*
X146871680Y-87070273D01*
X146714637Y-86835241D01*
X146514759Y-86635363D01*
X146282241Y-86480000D01*
X146514759Y-86324637D01*
X146714637Y-86124759D01*
X146871680Y-85889727D01*
X146979853Y-85628574D01*
X147035000Y-85351335D01*
X147035000Y-85068665D01*
X146979853Y-84791426D01*
X146871680Y-84530273D01*
X146714637Y-84295241D01*
X146514759Y-84095363D01*
X146282241Y-83940000D01*
X146514759Y-83784637D01*
X146714637Y-83584759D01*
X146871680Y-83349727D01*
X146979853Y-83088574D01*
X147035000Y-82811335D01*
X147035000Y-82528665D01*
X146979853Y-82251426D01*
X146871680Y-81990273D01*
X146714637Y-81755241D01*
X146514759Y-81555363D01*
X146282241Y-81400000D01*
X146514759Y-81244637D01*
X146714637Y-81044759D01*
X146871680Y-80809727D01*
X146979853Y-80548574D01*
X147035000Y-80271335D01*
X147035000Y-79988665D01*
X146979853Y-79711426D01*
X146871680Y-79450273D01*
X146714637Y-79215241D01*
X146514759Y-79015363D01*
X146282241Y-78860000D01*
X146514759Y-78704637D01*
X146714637Y-78504759D01*
X146871680Y-78269727D01*
X146979853Y-78008574D01*
X147035000Y-77731335D01*
X147035000Y-77448665D01*
X146979853Y-77171426D01*
X146871680Y-76910273D01*
X146714637Y-76675241D01*
X146514759Y-76475363D01*
X146282241Y-76320000D01*
X146514759Y-76164637D01*
X146714637Y-75964759D01*
X146871680Y-75729727D01*
X146979853Y-75468574D01*
X147035000Y-75191335D01*
X147035000Y-74908665D01*
X146979853Y-74631426D01*
X146871680Y-74370273D01*
X146714637Y-74135241D01*
X146514759Y-73935363D01*
X146282241Y-73780000D01*
X146514759Y-73624637D01*
X146714637Y-73424759D01*
X146871680Y-73189727D01*
X146979853Y-72928574D01*
X147035000Y-72651335D01*
X147035000Y-72368665D01*
X146979853Y-72091426D01*
X146871680Y-71830273D01*
X146714637Y-71595241D01*
X146514759Y-71395363D01*
X146279727Y-71238320D01*
X146018574Y-71130147D01*
X145741335Y-71075000D01*
X145458665Y-71075000D01*
X145181426Y-71130147D01*
X144920273Y-71238320D01*
X144685241Y-71395363D01*
X144485363Y-71595241D01*
X144381957Y-71750000D01*
X113407325Y-71750000D01*
X113370000Y-71746324D01*
X113332675Y-71750000D01*
X113332667Y-71750000D01*
X113221014Y-71760997D01*
X113077753Y-71804454D01*
X112945724Y-71875026D01*
X112829999Y-71969999D01*
X112806201Y-71998997D01*
X101519003Y-83286196D01*
X101518997Y-83286201D01*
X99945996Y-84859203D01*
X99871111Y-84836487D01*
X99652950Y-84815000D01*
X99507050Y-84815000D01*
X99288889Y-84836487D01*
X99008966Y-84921401D01*
X98750986Y-85059294D01*
X98524866Y-85244866D01*
X98339294Y-85470986D01*
X98310000Y-85525791D01*
X98280706Y-85470986D01*
X98095134Y-85244866D01*
X97869014Y-85059294D01*
X97611034Y-84921401D01*
X97331111Y-84836487D01*
X97112950Y-84815000D01*
X96967050Y-84815000D01*
X96748889Y-84836487D01*
X96468966Y-84921401D01*
X96210986Y-85059294D01*
X95984866Y-85244866D01*
X95799294Y-85470986D01*
X95661401Y-85728966D01*
X95576487Y-86008889D01*
X95547815Y-86300000D01*
X86659935Y-86300000D01*
X86659935Y-71753377D01*
X86663117Y-71712985D01*
X86655979Y-71652636D01*
X86650023Y-71592164D01*
X86648062Y-71585700D01*
X86647268Y-71578986D01*
X86628494Y-71521191D01*
X86610854Y-71463041D01*
X86607667Y-71457078D01*
X86605580Y-71450654D01*
X86575904Y-71397654D01*
X86547247Y-71344041D01*
X86542958Y-71338815D01*
X86539658Y-71332921D01*
X86500216Y-71286732D01*
X86461647Y-71239736D01*
X86456421Y-71235447D01*
X86452034Y-71230310D01*
X86404316Y-71192686D01*
X86357342Y-71154136D01*
X86321611Y-71135037D01*
X83739551Y-69481878D01*
X83755249Y-69485000D01*
X84244751Y-69485000D01*
X84724848Y-69389503D01*
X85177089Y-69202179D01*
X85584095Y-68930226D01*
X85930226Y-68584095D01*
X86202179Y-68177089D01*
X86389503Y-67724848D01*
X86485000Y-67244751D01*
X86485000Y-66755249D01*
X86389503Y-66275152D01*
X86202179Y-65822911D01*
X85930226Y-65415905D01*
X85584095Y-65069774D01*
X85177089Y-64797821D01*
X84844308Y-64659979D01*
X165155692Y-64659979D01*
X164822911Y-64797821D01*
X164822911Y-64797821D01*
G37*
X164822911Y-64797821D02*
X164415905Y-65069774D01*
X164069774Y-65415905D01*
X163797821Y-65822911D01*
X163610497Y-66275152D01*
X163515000Y-66755249D01*
X163515000Y-67244751D01*
X163610497Y-67724848D01*
X163797821Y-68177089D01*
X164069774Y-68584095D01*
X164415905Y-68930226D01*
X164822911Y-69202179D01*
X165275152Y-69389503D01*
X165755249Y-69485000D01*
X166244751Y-69485000D01*
X166260092Y-69481949D01*
X163678280Y-71134951D01*
X163642539Y-71154055D01*
X163595548Y-71192620D01*
X163547847Y-71230230D01*
X163543461Y-71235367D01*
X163538234Y-71239656D01*
X163499665Y-71286652D01*
X163460223Y-71332841D01*
X163456923Y-71338735D01*
X163452634Y-71343961D01*
X163423977Y-71397574D01*
X163394301Y-71450574D01*
X163392214Y-71456998D01*
X163389027Y-71462961D01*
X163371387Y-71521111D01*
X163352613Y-71578906D01*
X163351819Y-71585619D01*
X163349858Y-71592084D01*
X163343899Y-71652584D01*
X163336765Y-71712905D01*
X163339946Y-71753287D01*
X163339947Y-101835027D01*
X163334974Y-101825724D01*
X163240001Y-101709999D01*
X163211004Y-101686202D01*
X162588804Y-101064003D01*
X162565002Y-101035000D01*
X162449277Y-100940027D01*
X162353788Y-100888987D01*
X162238688Y-100773886D01*
X162275000Y-100591335D01*
X162275000Y-100308665D01*
X162219853Y-100031426D01*
X162111680Y-99770273D01*
X161954637Y-99535241D01*
X161754759Y-99335363D01*
X161522241Y-99180000D01*
X161754759Y-99024637D01*
X161954637Y-98824759D01*
X162111680Y-98589727D01*
X162219853Y-98328574D01*
X162275000Y-98051335D01*
X162275000Y-97768665D01*
X162219853Y-97491426D01*
X162111680Y-97230273D01*
X161954637Y-96995241D01*
X161754759Y-96795363D01*
X161522241Y-96640000D01*
X161754759Y-96484637D01*
X161954637Y-96284759D01*
X162111680Y-96049727D01*
X162219853Y-95788574D01*
X162275000Y-95511335D01*
X162275000Y-95228665D01*
X162219853Y-94951426D01*
X162111680Y-94690273D01*
X161954637Y-94455241D01*
X161754759Y-94255363D01*
X161522241Y-94100000D01*
X161754759Y-93944637D01*
X161954637Y-93744759D01*
X162111680Y-93509727D01*
X162219853Y-93248574D01*
X162275000Y-92971335D01*
X162275000Y-92688665D01*
X162219853Y-92411426D01*
X162111680Y-92150273D01*
X161954637Y-91915241D01*
X161754759Y-91715363D01*
X161522241Y-91560000D01*
X161754759Y-91404637D01*
X161954637Y-91204759D01*
X162111680Y-90969727D01*
X162219853Y-90708574D01*
X162275000Y-90431335D01*
X162275000Y-90148665D01*
X162219853Y-89871426D01*
X162111680Y-89610273D01*
X161954637Y-89375241D01*
X161754759Y-89175363D01*
X161522241Y-89020000D01*
X161754759Y-88864637D01*
X161954637Y-88664759D01*
X162111680Y-88429727D01*
X162219853Y-88168574D01*
X162275000Y-87891335D01*
X162275000Y-87608665D01*
X162219853Y-87331426D01*
X162111680Y-87070273D01*
X161954637Y-86835241D01*
X161754759Y-86635363D01*
X161522241Y-86480000D01*
X161754759Y-86324637D01*
X161954637Y-86124759D01*
X162111680Y-85889727D01*
X162219853Y-85628574D01*
X162275000Y-85351335D01*
X162275000Y-85068665D01*
X162219853Y-84791426D01*
X162111680Y-84530273D01*
X161954637Y-84295241D01*
X161754759Y-84095363D01*
X161522241Y-83940000D01*
X161754759Y-83784637D01*
X161954637Y-83584759D01*
X162111680Y-83349727D01*
X162219853Y-83088574D01*
X162275000Y-82811335D01*
X162275000Y-82528665D01*
X162219853Y-82251426D01*
X162111680Y-81990273D01*
X161954637Y-81755241D01*
X161754759Y-81555363D01*
X161522241Y-81400000D01*
X161754759Y-81244637D01*
X161954637Y-81044759D01*
X162111680Y-80809727D01*
X162219853Y-80548574D01*
X162275000Y-80271335D01*
X162275000Y-79988665D01*
X162219853Y-79711426D01*
X162111680Y-79450273D01*
X161954637Y-79215241D01*
X161754759Y-79015363D01*
X161522241Y-78860000D01*
X161754759Y-78704637D01*
X161954637Y-78504759D01*
X162111680Y-78269727D01*
X162219853Y-78008574D01*
X162275000Y-77731335D01*
X162275000Y-77448665D01*
X162219853Y-77171426D01*
X162111680Y-76910273D01*
X161954637Y-76675241D01*
X161754759Y-76475363D01*
X161522241Y-76320000D01*
X161754759Y-76164637D01*
X161954637Y-75964759D01*
X162111680Y-75729727D01*
X162219853Y-75468574D01*
X162275000Y-75191335D01*
X162275000Y-74908665D01*
X162219853Y-74631426D01*
X162111680Y-74370273D01*
X161954637Y-74135241D01*
X161754759Y-73935363D01*
X161522241Y-73780000D01*
X161754759Y-73624637D01*
X161954637Y-73424759D01*
X162111680Y-73189727D01*
X162219853Y-72928574D01*
X162275000Y-72651335D01*
X162275000Y-72368665D01*
X162219853Y-72091426D01*
X162111680Y-71830273D01*
X161954637Y-71595241D01*
X161754759Y-71395363D01*
X161522241Y-71240000D01*
X161754759Y-71084637D01*
X161954637Y-70884759D01*
X162111680Y-70649727D01*
X162219853Y-70388574D01*
X162275000Y-70111335D01*
X162275000Y-69828665D01*
X162219853Y-69551426D01*
X162111680Y-69290273D01*
X161954637Y-69055241D01*
X161754759Y-68855363D01*
X161519727Y-68698320D01*
X161258574Y-68590147D01*
X160981335Y-68535000D01*
X160698665Y-68535000D01*
X160421426Y-68590147D01*
X160160273Y-68698320D01*
X159925241Y-68855363D01*
X159725363Y-69055241D01*
X159610000Y-69227894D01*
X159610000Y-67387322D01*
X159613676Y-67349999D01*
X159610000Y-67312676D01*
X159610000Y-67312667D01*
X159599003Y-67201014D01*
X159555546Y-67057753D01*
X159484974Y-66925724D01*
X159390001Y-66809999D01*
X159361004Y-66786202D01*
X158028803Y-65454002D01*
X158005000Y-65424998D01*
X157889275Y-65330025D01*
X157757246Y-65259453D01*
X157613985Y-65215996D01*
X157502332Y-65204999D01*
X157502321Y-65204999D01*
X157464999Y-65201323D01*
X157427677Y-65204999D01*
X127572323Y-65204999D01*
X127535000Y-65201323D01*
X127497677Y-65204999D01*
X127497668Y-65204999D01*
X127386015Y-65215996D01*
X127242754Y-65259453D01*
X127110725Y-65330025D01*
X126995000Y-65424998D01*
X126971202Y-65453996D01*
X126725995Y-65699203D01*
X126651111Y-65676487D01*
X126432950Y-65655000D01*
X126287050Y-65655000D01*
X126068889Y-65676487D01*
X125788966Y-65761401D01*
X125530986Y-65899294D01*
X125304866Y-66084866D01*
X125119294Y-66310986D01*
X125090000Y-66365791D01*
X125060706Y-66310986D01*
X124875134Y-66084866D01*
X124649014Y-65899294D01*
X124391034Y-65761401D01*
X124111111Y-65676487D01*
X123892950Y-65655000D01*
X123747050Y-65655000D01*
X123528889Y-65676487D01*
X123248966Y-65761401D01*
X122990986Y-65899294D01*
X122764866Y-66084866D01*
X122579294Y-66310986D01*
X122441401Y-66568966D01*
X122356487Y-66848889D01*
X122327815Y-67140000D01*
X122356487Y-67431111D01*
X122441401Y-67711034D01*
X122579294Y-67969014D01*
X122764866Y-68195134D01*
X122990986Y-68380706D01*
X123248966Y-68518599D01*
X123528889Y-68603513D01*
X123747050Y-68625000D01*
X123892950Y-68625000D01*
X124111111Y-68603513D01*
X124391034Y-68518599D01*
X124649014Y-68380706D01*
X124875134Y-68195134D01*
X125060706Y-67969014D01*
X125090000Y-67914209D01*
X125119294Y-67969014D01*
X125304866Y-68195134D01*
X125530986Y-68380706D01*
X125788966Y-68518599D01*
X126068889Y-68603513D01*
X126287050Y-68625000D01*
X126432950Y-68625000D01*
X126651111Y-68603513D01*
X126931034Y-68518599D01*
X127189014Y-68380706D01*
X127415134Y-68195134D01*
X127600706Y-67969014D01*
X127630000Y-67914209D01*
X127659294Y-67969014D01*
X127844866Y-68195134D01*
X128070986Y-68380706D01*
X128328966Y-68518599D01*
X128608889Y-68603513D01*
X128827050Y-68625000D01*
X128972950Y-68625000D01*
X129191111Y-68603513D01*
X129471034Y-68518599D01*
X129729014Y-68380706D01*
X129955134Y-68195134D01*
X130140706Y-67969014D01*
X130278599Y-67711034D01*
X130363513Y-67431111D01*
X130392185Y-67140000D01*
X130363513Y-66848889D01*
X130325931Y-66724999D01*
X157150198Y-66724999D01*
X158090000Y-67664802D01*
X158090001Y-87112667D01*
X158086324Y-87150000D01*
X158090001Y-87187333D01*
X158100998Y-87298986D01*
X158109109Y-87325724D01*
X158144454Y-87442246D01*
X158215026Y-87574276D01*
X158236969Y-87601013D01*
X158310000Y-87690001D01*
X158338998Y-87713799D01*
X158886200Y-88261002D01*
X158909999Y-88290001D01*
X158938997Y-88313799D01*
X159025723Y-88384974D01*
X159157753Y-88455546D01*
X159301014Y-88499003D01*
X159412667Y-88510000D01*
X159412676Y-88510000D01*
X159449999Y-88513676D01*
X159487322Y-88510000D01*
X159621957Y-88510000D01*
X159725363Y-88664759D01*
X159925241Y-88864637D01*
X160157759Y-89020000D01*
X159925241Y-89175363D01*
X159725363Y-89375241D01*
X159568320Y-89610273D01*
X159460147Y-89871426D01*
X159405000Y-90148665D01*
X159405000Y-90431335D01*
X159460147Y-90708574D01*
X159568320Y-90969727D01*
X159725363Y-91204759D01*
X159925241Y-91404637D01*
X160157759Y-91560000D01*
X159925241Y-91715363D01*
X159725363Y-91915241D01*
X159568320Y-92150273D01*
X159460147Y-92411426D01*
X159405000Y-92688665D01*
X159405000Y-92971335D01*
X159460147Y-93248574D01*
X159568320Y-93509727D01*
X159725363Y-93744759D01*
X159925241Y-93944637D01*
X160157759Y-94100000D01*
X159925241Y-94255363D01*
X159725363Y-94455241D01*
X159568320Y-94690273D01*
X159460147Y-94951426D01*
X159405000Y-95228665D01*
X159405000Y-95511335D01*
X159460147Y-95788574D01*
X159568320Y-96049727D01*
X159725363Y-96284759D01*
X159925241Y-96484637D01*
X160157759Y-96640000D01*
X159925241Y-96795363D01*
X159725363Y-96995241D01*
X159568320Y-97230273D01*
X159460147Y-97491426D01*
X159405000Y-97768665D01*
X159405000Y-98051335D01*
X159460147Y-98328574D01*
X159568320Y-98589727D01*
X159725363Y-98824759D01*
X159925241Y-99024637D01*
X160157759Y-99180000D01*
X159925241Y-99335363D01*
X159725363Y-99535241D01*
X159568320Y-99770273D01*
X159460147Y-100031426D01*
X159405000Y-100308665D01*
X159405000Y-100591335D01*
X159460147Y-100868574D01*
X159568320Y-101129727D01*
X159725363Y-101364759D01*
X159925241Y-101564637D01*
X160157759Y-101720000D01*
X159925241Y-101875363D01*
X159725363Y-102075241D01*
X159568320Y-102310273D01*
X159460147Y-102571426D01*
X159405000Y-102848665D01*
X159405000Y-103131335D01*
X159460147Y-103408574D01*
X159568320Y-103669727D01*
X159725363Y-103904759D01*
X159925241Y-104104637D01*
X160052996Y-104190000D01*
X153703711Y-104190000D01*
X153659774Y-104146063D01*
X153490256Y-104032795D01*
X153301898Y-103954774D01*
X153101939Y-103915000D01*
X152898061Y-103915000D01*
X152698102Y-103954774D01*
X152509744Y-104032795D01*
X152340226Y-104146063D01*
X152196063Y-104290226D01*
X152082795Y-104459744D01*
X152004774Y-104648102D01*
X151965000Y-104848061D01*
X151965000Y-105051939D01*
X152004774Y-105251898D01*
X152082795Y-105440256D01*
X152196063Y-105609774D01*
X152340226Y-105753937D01*
X152509744Y-105867205D01*
X152698102Y-105945226D01*
X152898061Y-105985000D01*
X153101939Y-105985000D01*
X153301898Y-105945226D01*
X153490256Y-105867205D01*
X153659774Y-105753937D01*
X153703711Y-105710000D01*
X161812678Y-105710000D01*
X161850000Y-105713676D01*
X161887322Y-105710000D01*
X161887333Y-105710000D01*
X161998986Y-105699003D01*
X162142247Y-105655546D01*
X162274276Y-105584974D01*
X162390001Y-105490001D01*
X162413803Y-105460998D01*
X163211003Y-104663799D01*
X163240001Y-104640001D01*
X163334974Y-104524276D01*
X163339947Y-104514973D01*
X163339947Y-117246575D01*
X163336765Y-117286970D01*
X163343905Y-117347337D01*
X163349859Y-117407792D01*
X163351819Y-117414252D01*
X163352613Y-117420969D01*
X163371398Y-117478796D01*
X163389028Y-117536915D01*
X163392213Y-117542874D01*
X163394301Y-117549301D01*
X163423987Y-117602319D01*
X163452635Y-117655915D01*
X163456922Y-117661139D01*
X163460223Y-117667034D01*
X163499670Y-117713228D01*
X163538235Y-117760220D01*
X163543461Y-117764509D01*
X163547847Y-117769645D01*
X163595559Y-117807265D01*
X163642540Y-117845820D01*
X163678274Y-117864921D01*
X166260375Y-119518108D01*
X166244751Y-119515000D01*
X165755249Y-119515000D01*
X165275152Y-119610497D01*
X164822911Y-119797821D01*
X164415905Y-120069774D01*
X164069774Y-120415905D01*
X163797821Y-120822911D01*
X163610497Y-121275152D01*
X163515000Y-121755249D01*
X163515000Y-122244751D01*
X163610497Y-122724848D01*
X163797821Y-123177089D01*
X164069774Y-123584095D01*
X164415905Y-123930226D01*
X164822911Y-124202179D01*
X165155392Y-124339897D01*
X164033573Y-124339897D01*
X163999926Y-124336583D01*
X163999644Y-124336611D01*
X163999376Y-124336584D01*
X163965373Y-124339897D01*
X84844608Y-124339897D01*
X85177089Y-124202179D01*
X85584095Y-123930226D01*
X85930226Y-123584095D01*
X86202179Y-123177089D01*
X86389503Y-122724848D01*
X86485000Y-122244751D01*
X86485000Y-121755249D01*
X86389503Y-121275152D01*
X86202179Y-120822911D01*
X85930226Y-120415905D01*
X85584095Y-120069774D01*
X85177089Y-119797821D01*
X84724848Y-119610497D01*
X84244751Y-119515000D01*
X83755249Y-119515000D01*
X83739268Y-119518179D01*
X86321616Y-117864835D01*
X86357341Y-117845739D01*
X86404290Y-117807209D01*
X86452034Y-117769565D01*
X86456423Y-117764425D01*
X86461646Y-117760139D01*
X86500201Y-117713159D01*
X86539658Y-117666954D01*
X86542958Y-117661060D01*
X86547247Y-117655834D01*
X86575904Y-117602221D01*
X86605580Y-117549221D01*
X86607667Y-117542797D01*
X86610854Y-117536834D01*
X86628494Y-117478684D01*
X86634563Y-117460000D01*
X128511928Y-117460000D01*
X128511928Y-119460000D01*
X128524188Y-119584482D01*
X128560498Y-119704180D01*
X128619463Y-119814494D01*
X128698815Y-119911185D01*
X128795506Y-119990537D01*
X128905820Y-120049502D01*
X129025518Y-120085812D01*
X129150000Y-120098072D01*
X133550000Y-120098072D01*
X133674482Y-120085812D01*
X133794180Y-120049502D01*
X133904494Y-119990537D01*
X134001185Y-119911185D01*
X134080537Y-119814494D01*
X134139502Y-119704180D01*
X134175812Y-119584482D01*
X134188072Y-119460000D01*
X134188072Y-117460000D01*
X135511928Y-117460000D01*
X135511928Y-119460000D01*
X135524188Y-119584482D01*
X135560498Y-119704180D01*
X135619463Y-119814494D01*
X135698815Y-119911185D01*
X135795506Y-119990537D01*
X135905820Y-120049502D01*
X136025518Y-120085812D01*
X136150000Y-120098072D01*
X140550000Y-120098072D01*
X140674482Y-120085812D01*
X140794180Y-120049502D01*
X140904494Y-119990537D01*
X141001185Y-119911185D01*
X141080537Y-119814494D01*
X141139502Y-119704180D01*
X141175812Y-119584482D01*
X141188072Y-119460000D01*
X141188072Y-117460000D01*
X141175812Y-117335518D01*
X141139502Y-117215820D01*
X141080537Y-117105506D01*
X141001185Y-117008815D01*
X140904494Y-116929463D01*
X140794180Y-116870498D01*
X140674482Y-116834188D01*
X140550000Y-116821928D01*
X136150000Y-116821928D01*
X136025518Y-116834188D01*
X135905820Y-116870498D01*
X135795506Y-116929463D01*
X135698815Y-117008815D01*
X135619463Y-117105506D01*
X135560498Y-117215820D01*
X135524188Y-117335518D01*
X135511928Y-117460000D01*
X134188072Y-117460000D01*
X134175812Y-117335518D01*
X134139502Y-117215820D01*
X134080537Y-117105506D01*
X134001185Y-117008815D01*
X133904494Y-116929463D01*
X133794180Y-116870498D01*
X133674482Y-116834188D01*
X133550000Y-116821928D01*
X132720430Y-116821928D01*
X132798918Y-116704463D01*
X132922168Y-116406912D01*
X132985000Y-116091033D01*
X132985000Y-115768967D01*
X132922168Y-115453088D01*
X132798918Y-115155537D01*
X132619987Y-114887748D01*
X132392252Y-114660013D01*
X132124463Y-114481082D01*
X131826912Y-114357832D01*
X131511033Y-114295000D01*
X131188967Y-114295000D01*
X130873088Y-114357832D01*
X130575537Y-114481082D01*
X130307748Y-114660013D01*
X130080013Y-114887748D01*
X129901082Y-115155537D01*
X129777832Y-115453088D01*
X129715000Y-115768967D01*
X129715000Y-116091033D01*
X129777832Y-116406912D01*
X129901082Y-116704463D01*
X129979570Y-116821928D01*
X129150000Y-116821928D01*
X129025518Y-116834188D01*
X128905820Y-116870498D01*
X128795506Y-116929463D01*
X128698815Y-117008815D01*
X128619463Y-117105506D01*
X128560498Y-117215820D01*
X128524188Y-117335518D01*
X128511928Y-117460000D01*
X86634563Y-117460000D01*
X86647268Y-117420889D01*
X86648062Y-117414175D01*
X86650023Y-117407711D01*
X86655979Y-117347239D01*
X86663117Y-117286890D01*
X86659935Y-117246498D01*
X86659935Y-104894645D01*
X93165000Y-104894645D01*
X93165000Y-105305355D01*
X93245126Y-105708172D01*
X93402297Y-106087618D01*
X93630475Y-106429110D01*
X93920890Y-106719525D01*
X94262382Y-106947703D01*
X94641828Y-107104874D01*
X95044645Y-107185000D01*
X95455355Y-107185000D01*
X95858172Y-107104874D01*
X96237618Y-106947703D01*
X96579110Y-106719525D01*
X96869525Y-106429110D01*
X97097703Y-106087618D01*
X97254874Y-105708172D01*
X97335000Y-105305355D01*
X97335000Y-104894645D01*
X105865000Y-104894645D01*
X105865000Y-105305355D01*
X105945126Y-105708172D01*
X106102297Y-106087618D01*
X106330475Y-106429110D01*
X106620890Y-106719525D01*
X106962382Y-106947703D01*
X107341828Y-107104874D01*
X107744645Y-107185000D01*
X108155355Y-107185000D01*
X108558172Y-107104874D01*
X108937618Y-106947703D01*
X109279110Y-106719525D01*
X109569525Y-106429110D01*
X109588975Y-106400000D01*
X132011928Y-106400000D01*
X132011928Y-108400000D01*
X132024188Y-108524482D01*
X132060498Y-108644180D01*
X132119463Y-108754494D01*
X132198815Y-108851185D01*
X132295506Y-108930537D01*
X132405820Y-108989502D01*
X132525518Y-109025812D01*
X132650000Y-109038072D01*
X136979570Y-109038072D01*
X136901082Y-109155537D01*
X136777832Y-109453088D01*
X136715000Y-109768967D01*
X136715000Y-110091033D01*
X136777832Y-110406912D01*
X136901082Y-110704463D01*
X137080013Y-110972252D01*
X137307748Y-111199987D01*
X137575537Y-111378918D01*
X137873088Y-111502168D01*
X138188967Y-111565000D01*
X138511033Y-111565000D01*
X138826912Y-111502168D01*
X139124463Y-111378918D01*
X139392252Y-111199987D01*
X139619987Y-110972252D01*
X139798918Y-110704463D01*
X139922168Y-110406912D01*
X139985000Y-110091033D01*
X139985000Y-109768967D01*
X139922168Y-109453088D01*
X139798918Y-109155537D01*
X139619987Y-108887748D01*
X139392252Y-108660013D01*
X139124463Y-108481082D01*
X138826912Y-108357832D01*
X138511033Y-108295000D01*
X138188967Y-108295000D01*
X137873088Y-108357832D01*
X137684533Y-108435934D01*
X137688072Y-108400000D01*
X137688072Y-106400000D01*
X137675812Y-106275518D01*
X137639502Y-106155820D01*
X137580537Y-106045506D01*
X137501185Y-105948815D01*
X137404494Y-105869463D01*
X137294180Y-105810498D01*
X137174482Y-105774188D01*
X137050000Y-105761928D01*
X132650000Y-105761928D01*
X132525518Y-105774188D01*
X132405820Y-105810498D01*
X132295506Y-105869463D01*
X132198815Y-105948815D01*
X132119463Y-106045506D01*
X132060498Y-106155820D01*
X132024188Y-106275518D01*
X132011928Y-106400000D01*
X109588975Y-106400000D01*
X109797703Y-106087618D01*
X109954874Y-105708172D01*
X110035000Y-105305355D01*
X110035000Y-104894645D01*
X109954874Y-104491828D01*
X109797703Y-104112382D01*
X109569525Y-103770890D01*
X109279110Y-103480475D01*
X108937618Y-103252297D01*
X108558172Y-103095126D01*
X108155355Y-103015000D01*
X107744645Y-103015000D01*
X107341828Y-103095126D01*
X106962382Y-103252297D01*
X106620890Y-103480475D01*
X106330475Y-103770890D01*
X106102297Y-104112382D01*
X105945126Y-104491828D01*
X105865000Y-104894645D01*
X97335000Y-104894645D01*
X97254874Y-104491828D01*
X97097703Y-104112382D01*
X96869525Y-103770890D01*
X96579110Y-103480475D01*
X96237618Y-103252297D01*
X95858172Y-103095126D01*
X95455355Y-103015000D01*
X95044645Y-103015000D01*
X94641828Y-103095126D01*
X94262382Y-103252297D01*
X93920890Y-103480475D01*
X93630475Y-103770890D01*
X93402297Y-104112382D01*
X93245126Y-104491828D01*
X93165000Y-104894645D01*
X86659935Y-104894645D01*
X86659935Y-100694645D01*
X93165000Y-100694645D01*
X93165000Y-101105355D01*
X93245126Y-101508172D01*
X93402297Y-101887618D01*
X93630475Y-102229110D01*
X93920890Y-102519525D01*
X94262382Y-102747703D01*
X94641828Y-102904874D01*
X95044645Y-102985000D01*
X95455355Y-102985000D01*
X95858172Y-102904874D01*
X96237618Y-102747703D01*
X96579110Y-102519525D01*
X96869525Y-102229110D01*
X97097703Y-101887618D01*
X97254874Y-101508172D01*
X97335000Y-101105355D01*
X97335000Y-100694645D01*
X105865000Y-100694645D01*
X105865000Y-101105355D01*
X105945126Y-101508172D01*
X106102297Y-101887618D01*
X106330475Y-102229110D01*
X106620890Y-102519525D01*
X106962382Y-102747703D01*
X107341828Y-102904874D01*
X107744645Y-102985000D01*
X108155355Y-102985000D01*
X108558172Y-102904874D01*
X108937618Y-102747703D01*
X109279110Y-102519525D01*
X109569525Y-102229110D01*
X109797703Y-101887618D01*
X109954874Y-101508172D01*
X110035000Y-101105355D01*
X110035000Y-100694645D01*
X109954874Y-100291828D01*
X109797703Y-99912382D01*
X109569525Y-99570890D01*
X109279110Y-99280475D01*
X108937618Y-99052297D01*
X108558172Y-98895126D01*
X108155355Y-98815000D01*
X107744645Y-98815000D01*
X107341828Y-98895126D01*
X106962382Y-99052297D01*
X106620890Y-99280475D01*
X106330475Y-99570890D01*
X106102297Y-99912382D01*
X105945126Y-100291828D01*
X105865000Y-100694645D01*
X97335000Y-100694645D01*
X97254874Y-100291828D01*
X97097703Y-99912382D01*
X96869525Y-99570890D01*
X96579110Y-99280475D01*
X96237618Y-99052297D01*
X95858172Y-98895126D01*
X95455355Y-98815000D01*
X95044645Y-98815000D01*
X94641828Y-98895126D01*
X94262382Y-99052297D01*
X93920890Y-99280475D01*
X93630475Y-99570890D01*
X93402297Y-99912382D01*
X93245126Y-100291828D01*
X93165000Y-100694645D01*
X86659935Y-100694645D01*
X86659935Y-86300000D01*
X95547815Y-86300000D01*
X95576487Y-86591111D01*
X95661401Y-86871034D01*
X95799294Y-87129014D01*
X95984866Y-87355134D01*
X96210986Y-87540706D01*
X96468966Y-87678599D01*
X96748889Y-87763513D01*
X96967050Y-87785000D01*
X97112950Y-87785000D01*
X97331111Y-87763513D01*
X97611034Y-87678599D01*
X97869014Y-87540706D01*
X98095134Y-87355134D01*
X98280706Y-87129014D01*
X98310000Y-87074209D01*
X98339294Y-87129014D01*
X98524866Y-87355134D01*
X98750986Y-87540706D01*
X99008966Y-87678599D01*
X99288889Y-87763513D01*
X99507050Y-87785000D01*
X99652950Y-87785000D01*
X99871111Y-87763513D01*
X100151034Y-87678599D01*
X100409014Y-87540706D01*
X100635134Y-87355134D01*
X100820706Y-87129014D01*
X100850000Y-87074209D01*
X100879294Y-87129014D01*
X101064866Y-87355134D01*
X101290986Y-87540706D01*
X101548966Y-87678599D01*
X101828889Y-87763513D01*
X102047050Y-87785000D01*
X102192950Y-87785000D01*
X102411111Y-87763513D01*
X102691034Y-87678599D01*
X102949014Y-87540706D01*
X103175134Y-87355134D01*
X103360706Y-87129014D01*
X103390000Y-87074209D01*
X103419294Y-87129014D01*
X103604866Y-87355134D01*
X103830986Y-87540706D01*
X104088966Y-87678599D01*
X104368889Y-87763513D01*
X104587050Y-87785000D01*
X104732950Y-87785000D01*
X104951111Y-87763513D01*
X105231034Y-87678599D01*
X105489014Y-87540706D01*
X105715134Y-87355134D01*
X105900706Y-87129014D01*
X105930000Y-87074209D01*
X105959294Y-87129014D01*
X106144866Y-87355134D01*
X106370986Y-87540706D01*
X106628966Y-87678599D01*
X106908889Y-87763513D01*
X107127050Y-87785000D01*
X107272950Y-87785000D01*
X107491111Y-87763513D01*
X107771034Y-87678599D01*
X108029014Y-87540706D01*
X108255134Y-87355134D01*
X108440706Y-87129014D01*
X108578599Y-86871034D01*
X108663513Y-86591111D01*
X108692185Y-86300000D01*
X108663513Y-86008889D01*
X108578599Y-85728966D01*
X108440706Y-85470986D01*
X108255134Y-85244866D01*
X108029014Y-85059294D01*
X107771034Y-84921401D01*
X107491111Y-84836487D01*
X107272950Y-84815000D01*
X107127050Y-84815000D01*
X106908889Y-84836487D01*
X106628966Y-84921401D01*
X106370986Y-85059294D01*
X106144866Y-85244866D01*
X105959294Y-85470986D01*
X105930000Y-85525791D01*
X105900706Y-85470986D01*
X105715134Y-85244866D01*
X105489014Y-85059294D01*
X105420000Y-85022405D01*
X105420000Y-82654801D01*
X114064802Y-74010000D01*
X140635199Y-74010000D01*
X142890001Y-76264803D01*
X142890000Y-90842678D01*
X142886324Y-90880000D01*
X142890000Y-90917322D01*
X142890000Y-90917332D01*
X142900997Y-91028985D01*
X142944454Y-91172246D01*
X143015026Y-91304276D01*
X143054871Y-91352826D01*
X143109999Y-91420001D01*
X143139002Y-91443804D01*
X144201312Y-92506114D01*
X144165000Y-92688665D01*
X144165000Y-92971335D01*
X144220147Y-93248574D01*
X144328320Y-93509727D01*
X144485363Y-93744759D01*
X144685241Y-93944637D01*
X144917759Y-94100000D01*
X144685241Y-94255363D01*
X144485363Y-94455241D01*
X144328320Y-94690273D01*
X144220147Y-94951426D01*
X144165000Y-95228665D01*
X144165000Y-95511335D01*
X144220147Y-95788574D01*
X144328320Y-96049727D01*
X144485363Y-96284759D01*
X144685241Y-96484637D01*
X144917759Y-96640000D01*
X144685241Y-96795363D01*
X144485363Y-96995241D01*
X144328320Y-97230273D01*
X144220147Y-97491426D01*
X144165000Y-97768665D01*
X144165000Y-98051335D01*
X144220147Y-98328574D01*
X144328320Y-98589727D01*
X144485363Y-98824759D01*
X144685241Y-99024637D01*
X144917759Y-99180000D01*
X144685241Y-99335363D01*
X144485363Y-99535241D01*
X144328320Y-99770273D01*
X144220147Y-100031426D01*
X144165000Y-100308665D01*
X144165000Y-100591335D01*
X144220147Y-100868574D01*
X144328320Y-101129727D01*
X144485363Y-101364759D01*
X144685241Y-101564637D01*
X144917759Y-101720000D01*
X144685241Y-101875363D01*
X144485363Y-102075241D01*
X144328320Y-102310273D01*
X144220147Y-102571426D01*
X144165000Y-102848665D01*
X144165000Y-103131335D01*
X144220147Y-103408574D01*
X144328320Y-103669727D01*
X144485363Y-103904759D01*
X144685241Y-104104637D01*
X144920273Y-104261680D01*
X145181426Y-104369853D01*
X145458665Y-104425000D01*
X145741335Y-104425000D01*
X146018574Y-104369853D01*
X146279727Y-104261680D01*
X146514759Y-104104637D01*
X146714637Y-103904759D01*
X146871680Y-103669727D01*
X146979853Y-103408574D01*
X147035000Y-103131335D01*
X147035000Y-102848665D01*
X146979853Y-102571426D01*
X146871680Y-102310273D01*
X146714637Y-102075241D01*
X146514759Y-101875363D01*
X146282241Y-101720000D01*
X146514759Y-101564637D01*
X146714637Y-101364759D01*
X146871680Y-101129727D01*
X146979853Y-100868574D01*
X147035000Y-100591335D01*
X147035000Y-100308665D01*
X146979853Y-100031426D01*
X146871680Y-99770273D01*
X146714637Y-99535241D01*
X146514759Y-99335363D01*
X146282241Y-99180000D01*
X146514759Y-99024637D01*
X146714637Y-98824759D01*
X146871680Y-98589727D01*
X146979853Y-98328574D01*
X147035000Y-98051335D01*
X147035000Y-97768665D01*
X146979853Y-97491426D01*
X146871680Y-97230273D01*
X146714637Y-96995241D01*
X146514759Y-96795363D01*
X146282241Y-96640000D01*
X146514759Y-96484637D01*
X146714637Y-96284759D01*
X146871680Y-96049727D01*
X146979853Y-95788574D01*
X147035000Y-95511335D01*
X147035000Y-95228665D01*
X146979853Y-94951426D01*
X146871680Y-94690273D01*
X146714637Y-94455241D01*
X146514759Y-94255363D01*
X146282241Y-94100000D01*
X146514759Y-93944637D01*
X146714637Y-93744759D01*
X146871680Y-93509727D01*
X146979853Y-93248574D01*
X147035000Y-92971335D01*
X147035000Y-92688665D01*
X146979853Y-92411426D01*
X146871680Y-92150273D01*
X146714637Y-91915241D01*
X146514759Y-91715363D01*
X146282241Y-91560000D01*
X146514759Y-91404637D01*
X146714637Y-91204759D01*
X146871680Y-90969727D01*
X146979853Y-90708574D01*
X147035000Y-90431335D01*
X147035000Y-90148665D01*
X146979853Y-89871426D01*
X146871680Y-89610273D01*
X146714637Y-89375241D01*
X146514759Y-89175363D01*
X146282241Y-89020000D01*
X146514759Y-88864637D01*
X146714637Y-88664759D01*
X146871680Y-88429727D01*
X146979853Y-88168574D01*
X147035000Y-87891335D01*
X147035000Y-87608665D01*
X146979853Y-87331426D01*
X146871680Y-87070273D01*
X146714637Y-86835241D01*
X146514759Y-86635363D01*
X146282241Y-86480000D01*
X146514759Y-86324637D01*
X146714637Y-86124759D01*
X146871680Y-85889727D01*
X146979853Y-85628574D01*
X147035000Y-85351335D01*
X147035000Y-85068665D01*
X146979853Y-84791426D01*
X146871680Y-84530273D01*
X146714637Y-84295241D01*
X146514759Y-84095363D01*
X146282241Y-83940000D01*
X146514759Y-83784637D01*
X146714637Y-83584759D01*
X146871680Y-83349727D01*
X146979853Y-83088574D01*
X147035000Y-82811335D01*
X147035000Y-82528665D01*
X146979853Y-82251426D01*
X146871680Y-81990273D01*
X146714637Y-81755241D01*
X146514759Y-81555363D01*
X146282241Y-81400000D01*
X146514759Y-81244637D01*
X146714637Y-81044759D01*
X146871680Y-80809727D01*
X146979853Y-80548574D01*
X147035000Y-80271335D01*
X147035000Y-79988665D01*
X146979853Y-79711426D01*
X146871680Y-79450273D01*
X146714637Y-79215241D01*
X146514759Y-79015363D01*
X146282241Y-78860000D01*
X146514759Y-78704637D01*
X146714637Y-78504759D01*
X146871680Y-78269727D01*
X146979853Y-78008574D01*
X147035000Y-77731335D01*
X147035000Y-77448665D01*
X146979853Y-77171426D01*
X146871680Y-76910273D01*
X146714637Y-76675241D01*
X146514759Y-76475363D01*
X146282241Y-76320000D01*
X146514759Y-76164637D01*
X146714637Y-75964759D01*
X146871680Y-75729727D01*
X146979853Y-75468574D01*
X147035000Y-75191335D01*
X147035000Y-74908665D01*
X146979853Y-74631426D01*
X146871680Y-74370273D01*
X146714637Y-74135241D01*
X146514759Y-73935363D01*
X146282241Y-73780000D01*
X146514759Y-73624637D01*
X146714637Y-73424759D01*
X146871680Y-73189727D01*
X146979853Y-72928574D01*
X147035000Y-72651335D01*
X147035000Y-72368665D01*
X146979853Y-72091426D01*
X146871680Y-71830273D01*
X146714637Y-71595241D01*
X146514759Y-71395363D01*
X146279727Y-71238320D01*
X146018574Y-71130147D01*
X145741335Y-71075000D01*
X145458665Y-71075000D01*
X145181426Y-71130147D01*
X144920273Y-71238320D01*
X144685241Y-71395363D01*
X144485363Y-71595241D01*
X144381957Y-71750000D01*
X113407325Y-71750000D01*
X113370000Y-71746324D01*
X113332675Y-71750000D01*
X113332667Y-71750000D01*
X113221014Y-71760997D01*
X113077753Y-71804454D01*
X112945724Y-71875026D01*
X112829999Y-71969999D01*
X112806201Y-71998997D01*
X101519003Y-83286196D01*
X101518997Y-83286201D01*
X99945996Y-84859203D01*
X99871111Y-84836487D01*
X99652950Y-84815000D01*
X99507050Y-84815000D01*
X99288889Y-84836487D01*
X99008966Y-84921401D01*
X98750986Y-85059294D01*
X98524866Y-85244866D01*
X98339294Y-85470986D01*
X98310000Y-85525791D01*
X98280706Y-85470986D01*
X98095134Y-85244866D01*
X97869014Y-85059294D01*
X97611034Y-84921401D01*
X97331111Y-84836487D01*
X97112950Y-84815000D01*
X96967050Y-84815000D01*
X96748889Y-84836487D01*
X96468966Y-84921401D01*
X96210986Y-85059294D01*
X95984866Y-85244866D01*
X95799294Y-85470986D01*
X95661401Y-85728966D01*
X95576487Y-86008889D01*
X95547815Y-86300000D01*
X86659935Y-86300000D01*
X86659935Y-71753377D01*
X86663117Y-71712985D01*
X86655979Y-71652636D01*
X86650023Y-71592164D01*
X86648062Y-71585700D01*
X86647268Y-71578986D01*
X86628494Y-71521191D01*
X86610854Y-71463041D01*
X86607667Y-71457078D01*
X86605580Y-71450654D01*
X86575904Y-71397654D01*
X86547247Y-71344041D01*
X86542958Y-71338815D01*
X86539658Y-71332921D01*
X86500216Y-71286732D01*
X86461647Y-71239736D01*
X86456421Y-71235447D01*
X86452034Y-71230310D01*
X86404316Y-71192686D01*
X86357342Y-71154136D01*
X86321611Y-71135037D01*
X83739551Y-69481878D01*
X83755249Y-69485000D01*
X84244751Y-69485000D01*
X84724848Y-69389503D01*
X85177089Y-69202179D01*
X85584095Y-68930226D01*
X85930226Y-68584095D01*
X86202179Y-68177089D01*
X86389503Y-67724848D01*
X86485000Y-67244751D01*
X86485000Y-66755249D01*
X86389503Y-66275152D01*
X86202179Y-65822911D01*
X85930226Y-65415905D01*
X85584095Y-65069774D01*
X85177089Y-64797821D01*
X84844308Y-64659979D01*
X165155692Y-64659979D01*
X164822911Y-64797821D01*
M02*
