G04 #@! TF.GenerationSoftware,KiCad,Pcbnew,7.0.2-0*
G04 #@! TF.CreationDate,2023-05-22T20:56:43-04:00*
G04 #@! TF.ProjectId,speed_joystick,73706565-645f-46a6-9f79-737469636b2e,rev?*
G04 #@! TF.SameCoordinates,Original*
G04 #@! TF.FileFunction,Legend,Top*
G04 #@! TF.FilePolarity,Positive*
%FSLAX46Y46*%
G04 Gerber Fmt 4.6, Leading zero omitted, Abs format (unit mm)*
G04 Created by KiCad (PCBNEW 7.0.2-0) date 2023-05-22 20:56:43*
%MOMM*%
%LPD*%
G01*
G04 APERTURE LIST*
%ADD10C,0.120000*%
%ADD11C,0.150000*%
%ADD12C,0.100000*%
%ADD13C,0.127000*%
%ADD14C,0.200000*%
G04 APERTURE END LIST*
D10*
X152357643Y-63500000D02*
G75*
G03*
X152357643Y-63500000I-38057643J0D01*
G01*
D11*
X114918019Y-69308804D02*
X115727542Y-69308804D01*
X115727542Y-69308804D02*
X115822780Y-69261185D01*
X115822780Y-69261185D02*
X115870400Y-69213566D01*
X115870400Y-69213566D02*
X115918019Y-69118328D01*
X115918019Y-69118328D02*
X115918019Y-68927852D01*
X115918019Y-68927852D02*
X115870400Y-68832614D01*
X115870400Y-68832614D02*
X115822780Y-68784995D01*
X115822780Y-68784995D02*
X115727542Y-68737376D01*
X115727542Y-68737376D02*
X114918019Y-68737376D01*
X114918019Y-68356423D02*
X114918019Y-67737376D01*
X114918019Y-67737376D02*
X115298971Y-68070709D01*
X115298971Y-68070709D02*
X115298971Y-67927852D01*
X115298971Y-67927852D02*
X115346590Y-67832614D01*
X115346590Y-67832614D02*
X115394209Y-67784995D01*
X115394209Y-67784995D02*
X115489447Y-67737376D01*
X115489447Y-67737376D02*
X115727542Y-67737376D01*
X115727542Y-67737376D02*
X115822780Y-67784995D01*
X115822780Y-67784995D02*
X115870400Y-67832614D01*
X115870400Y-67832614D02*
X115918019Y-67927852D01*
X115918019Y-67927852D02*
X115918019Y-68213566D01*
X115918019Y-68213566D02*
X115870400Y-68308804D01*
X115870400Y-68308804D02*
X115822780Y-68356423D01*
X129794095Y-69058619D02*
X129794095Y-69868142D01*
X129794095Y-69868142D02*
X129841714Y-69963380D01*
X129841714Y-69963380D02*
X129889333Y-70011000D01*
X129889333Y-70011000D02*
X129984571Y-70058619D01*
X129984571Y-70058619D02*
X130175047Y-70058619D01*
X130175047Y-70058619D02*
X130270285Y-70011000D01*
X130270285Y-70011000D02*
X130317904Y-69963380D01*
X130317904Y-69963380D02*
X130365523Y-69868142D01*
X130365523Y-69868142D02*
X130365523Y-69058619D01*
X131270285Y-69391952D02*
X131270285Y-70058619D01*
X131032190Y-69011000D02*
X130794095Y-69725285D01*
X130794095Y-69725285D02*
X131413142Y-69725285D01*
X127373142Y-64375380D02*
X127325523Y-64423000D01*
X127325523Y-64423000D02*
X127182666Y-64470619D01*
X127182666Y-64470619D02*
X127087428Y-64470619D01*
X127087428Y-64470619D02*
X126944571Y-64423000D01*
X126944571Y-64423000D02*
X126849333Y-64327761D01*
X126849333Y-64327761D02*
X126801714Y-64232523D01*
X126801714Y-64232523D02*
X126754095Y-64042047D01*
X126754095Y-64042047D02*
X126754095Y-63899190D01*
X126754095Y-63899190D02*
X126801714Y-63708714D01*
X126801714Y-63708714D02*
X126849333Y-63613476D01*
X126849333Y-63613476D02*
X126944571Y-63518238D01*
X126944571Y-63518238D02*
X127087428Y-63470619D01*
X127087428Y-63470619D02*
X127182666Y-63470619D01*
X127182666Y-63470619D02*
X127325523Y-63518238D01*
X127325523Y-63518238D02*
X127373142Y-63565857D01*
X127754095Y-63565857D02*
X127801714Y-63518238D01*
X127801714Y-63518238D02*
X127896952Y-63470619D01*
X127896952Y-63470619D02*
X128135047Y-63470619D01*
X128135047Y-63470619D02*
X128230285Y-63518238D01*
X128230285Y-63518238D02*
X128277904Y-63565857D01*
X128277904Y-63565857D02*
X128325523Y-63661095D01*
X128325523Y-63661095D02*
X128325523Y-63756333D01*
X128325523Y-63756333D02*
X128277904Y-63899190D01*
X128277904Y-63899190D02*
X127706476Y-64470619D01*
X127706476Y-64470619D02*
X128325523Y-64470619D01*
X128896952Y-63899190D02*
X128801714Y-63851571D01*
X128801714Y-63851571D02*
X128754095Y-63803952D01*
X128754095Y-63803952D02*
X128706476Y-63708714D01*
X128706476Y-63708714D02*
X128706476Y-63661095D01*
X128706476Y-63661095D02*
X128754095Y-63565857D01*
X128754095Y-63565857D02*
X128801714Y-63518238D01*
X128801714Y-63518238D02*
X128896952Y-63470619D01*
X128896952Y-63470619D02*
X129087428Y-63470619D01*
X129087428Y-63470619D02*
X129182666Y-63518238D01*
X129182666Y-63518238D02*
X129230285Y-63565857D01*
X129230285Y-63565857D02*
X129277904Y-63661095D01*
X129277904Y-63661095D02*
X129277904Y-63708714D01*
X129277904Y-63708714D02*
X129230285Y-63803952D01*
X129230285Y-63803952D02*
X129182666Y-63851571D01*
X129182666Y-63851571D02*
X129087428Y-63899190D01*
X129087428Y-63899190D02*
X128896952Y-63899190D01*
X128896952Y-63899190D02*
X128801714Y-63946809D01*
X128801714Y-63946809D02*
X128754095Y-63994428D01*
X128754095Y-63994428D02*
X128706476Y-64089666D01*
X128706476Y-64089666D02*
X128706476Y-64280142D01*
X128706476Y-64280142D02*
X128754095Y-64375380D01*
X128754095Y-64375380D02*
X128801714Y-64423000D01*
X128801714Y-64423000D02*
X128896952Y-64470619D01*
X128896952Y-64470619D02*
X129087428Y-64470619D01*
X129087428Y-64470619D02*
X129182666Y-64423000D01*
X129182666Y-64423000D02*
X129230285Y-64375380D01*
X129230285Y-64375380D02*
X129277904Y-64280142D01*
X129277904Y-64280142D02*
X129277904Y-64089666D01*
X129277904Y-64089666D02*
X129230285Y-63994428D01*
X129230285Y-63994428D02*
X129182666Y-63946809D01*
X129182666Y-63946809D02*
X129087428Y-63899190D01*
X111365380Y-72016857D02*
X111413000Y-72064476D01*
X111413000Y-72064476D02*
X111460619Y-72207333D01*
X111460619Y-72207333D02*
X111460619Y-72302571D01*
X111460619Y-72302571D02*
X111413000Y-72445428D01*
X111413000Y-72445428D02*
X111317761Y-72540666D01*
X111317761Y-72540666D02*
X111222523Y-72588285D01*
X111222523Y-72588285D02*
X111032047Y-72635904D01*
X111032047Y-72635904D02*
X110889190Y-72635904D01*
X110889190Y-72635904D02*
X110698714Y-72588285D01*
X110698714Y-72588285D02*
X110603476Y-72540666D01*
X110603476Y-72540666D02*
X110508238Y-72445428D01*
X110508238Y-72445428D02*
X110460619Y-72302571D01*
X110460619Y-72302571D02*
X110460619Y-72207333D01*
X110460619Y-72207333D02*
X110508238Y-72064476D01*
X110508238Y-72064476D02*
X110555857Y-72016857D01*
X110460619Y-71683523D02*
X110460619Y-71064476D01*
X110460619Y-71064476D02*
X110841571Y-71397809D01*
X110841571Y-71397809D02*
X110841571Y-71254952D01*
X110841571Y-71254952D02*
X110889190Y-71159714D01*
X110889190Y-71159714D02*
X110936809Y-71112095D01*
X110936809Y-71112095D02*
X111032047Y-71064476D01*
X111032047Y-71064476D02*
X111270142Y-71064476D01*
X111270142Y-71064476D02*
X111365380Y-71112095D01*
X111365380Y-71112095D02*
X111413000Y-71159714D01*
X111413000Y-71159714D02*
X111460619Y-71254952D01*
X111460619Y-71254952D02*
X111460619Y-71540666D01*
X111460619Y-71540666D02*
X111413000Y-71635904D01*
X111413000Y-71635904D02*
X111365380Y-71683523D01*
X110460619Y-70445428D02*
X110460619Y-70350190D01*
X110460619Y-70350190D02*
X110508238Y-70254952D01*
X110508238Y-70254952D02*
X110555857Y-70207333D01*
X110555857Y-70207333D02*
X110651095Y-70159714D01*
X110651095Y-70159714D02*
X110841571Y-70112095D01*
X110841571Y-70112095D02*
X111079666Y-70112095D01*
X111079666Y-70112095D02*
X111270142Y-70159714D01*
X111270142Y-70159714D02*
X111365380Y-70207333D01*
X111365380Y-70207333D02*
X111413000Y-70254952D01*
X111413000Y-70254952D02*
X111460619Y-70350190D01*
X111460619Y-70350190D02*
X111460619Y-70445428D01*
X111460619Y-70445428D02*
X111413000Y-70540666D01*
X111413000Y-70540666D02*
X111365380Y-70588285D01*
X111365380Y-70588285D02*
X111270142Y-70635904D01*
X111270142Y-70635904D02*
X111079666Y-70683523D01*
X111079666Y-70683523D02*
X110841571Y-70683523D01*
X110841571Y-70683523D02*
X110651095Y-70635904D01*
X110651095Y-70635904D02*
X110555857Y-70588285D01*
X110555857Y-70588285D02*
X110508238Y-70540666D01*
X110508238Y-70540666D02*
X110460619Y-70445428D01*
X111619380Y-65412857D02*
X111667000Y-65460476D01*
X111667000Y-65460476D02*
X111714619Y-65603333D01*
X111714619Y-65603333D02*
X111714619Y-65698571D01*
X111714619Y-65698571D02*
X111667000Y-65841428D01*
X111667000Y-65841428D02*
X111571761Y-65936666D01*
X111571761Y-65936666D02*
X111476523Y-65984285D01*
X111476523Y-65984285D02*
X111286047Y-66031904D01*
X111286047Y-66031904D02*
X111143190Y-66031904D01*
X111143190Y-66031904D02*
X110952714Y-65984285D01*
X110952714Y-65984285D02*
X110857476Y-65936666D01*
X110857476Y-65936666D02*
X110762238Y-65841428D01*
X110762238Y-65841428D02*
X110714619Y-65698571D01*
X110714619Y-65698571D02*
X110714619Y-65603333D01*
X110714619Y-65603333D02*
X110762238Y-65460476D01*
X110762238Y-65460476D02*
X110809857Y-65412857D01*
X110809857Y-65031904D02*
X110762238Y-64984285D01*
X110762238Y-64984285D02*
X110714619Y-64889047D01*
X110714619Y-64889047D02*
X110714619Y-64650952D01*
X110714619Y-64650952D02*
X110762238Y-64555714D01*
X110762238Y-64555714D02*
X110809857Y-64508095D01*
X110809857Y-64508095D02*
X110905095Y-64460476D01*
X110905095Y-64460476D02*
X111000333Y-64460476D01*
X111000333Y-64460476D02*
X111143190Y-64508095D01*
X111143190Y-64508095D02*
X111714619Y-65079523D01*
X111714619Y-65079523D02*
X111714619Y-64460476D01*
X111714619Y-63984285D02*
X111714619Y-63793809D01*
X111714619Y-63793809D02*
X111667000Y-63698571D01*
X111667000Y-63698571D02*
X111619380Y-63650952D01*
X111619380Y-63650952D02*
X111476523Y-63555714D01*
X111476523Y-63555714D02*
X111286047Y-63508095D01*
X111286047Y-63508095D02*
X110905095Y-63508095D01*
X110905095Y-63508095D02*
X110809857Y-63555714D01*
X110809857Y-63555714D02*
X110762238Y-63603333D01*
X110762238Y-63603333D02*
X110714619Y-63698571D01*
X110714619Y-63698571D02*
X110714619Y-63889047D01*
X110714619Y-63889047D02*
X110762238Y-63984285D01*
X110762238Y-63984285D02*
X110809857Y-64031904D01*
X110809857Y-64031904D02*
X110905095Y-64079523D01*
X110905095Y-64079523D02*
X111143190Y-64079523D01*
X111143190Y-64079523D02*
X111238428Y-64031904D01*
X111238428Y-64031904D02*
X111286047Y-63984285D01*
X111286047Y-63984285D02*
X111333666Y-63889047D01*
X111333666Y-63889047D02*
X111333666Y-63698571D01*
X111333666Y-63698571D02*
X111286047Y-63603333D01*
X111286047Y-63603333D02*
X111238428Y-63555714D01*
X111238428Y-63555714D02*
X111143190Y-63508095D01*
X127462619Y-75096666D02*
X126986428Y-75429999D01*
X127462619Y-75668094D02*
X126462619Y-75668094D01*
X126462619Y-75668094D02*
X126462619Y-75287142D01*
X126462619Y-75287142D02*
X126510238Y-75191904D01*
X126510238Y-75191904D02*
X126557857Y-75144285D01*
X126557857Y-75144285D02*
X126653095Y-75096666D01*
X126653095Y-75096666D02*
X126795952Y-75096666D01*
X126795952Y-75096666D02*
X126891190Y-75144285D01*
X126891190Y-75144285D02*
X126938809Y-75191904D01*
X126938809Y-75191904D02*
X126986428Y-75287142D01*
X126986428Y-75287142D02*
X126986428Y-75668094D01*
X126891190Y-74525237D02*
X126843571Y-74620475D01*
X126843571Y-74620475D02*
X126795952Y-74668094D01*
X126795952Y-74668094D02*
X126700714Y-74715713D01*
X126700714Y-74715713D02*
X126653095Y-74715713D01*
X126653095Y-74715713D02*
X126557857Y-74668094D01*
X126557857Y-74668094D02*
X126510238Y-74620475D01*
X126510238Y-74620475D02*
X126462619Y-74525237D01*
X126462619Y-74525237D02*
X126462619Y-74334761D01*
X126462619Y-74334761D02*
X126510238Y-74239523D01*
X126510238Y-74239523D02*
X126557857Y-74191904D01*
X126557857Y-74191904D02*
X126653095Y-74144285D01*
X126653095Y-74144285D02*
X126700714Y-74144285D01*
X126700714Y-74144285D02*
X126795952Y-74191904D01*
X126795952Y-74191904D02*
X126843571Y-74239523D01*
X126843571Y-74239523D02*
X126891190Y-74334761D01*
X126891190Y-74334761D02*
X126891190Y-74525237D01*
X126891190Y-74525237D02*
X126938809Y-74620475D01*
X126938809Y-74620475D02*
X126986428Y-74668094D01*
X126986428Y-74668094D02*
X127081666Y-74715713D01*
X127081666Y-74715713D02*
X127272142Y-74715713D01*
X127272142Y-74715713D02*
X127367380Y-74668094D01*
X127367380Y-74668094D02*
X127415000Y-74620475D01*
X127415000Y-74620475D02*
X127462619Y-74525237D01*
X127462619Y-74525237D02*
X127462619Y-74334761D01*
X127462619Y-74334761D02*
X127415000Y-74239523D01*
X127415000Y-74239523D02*
X127367380Y-74191904D01*
X127367380Y-74191904D02*
X127272142Y-74144285D01*
X127272142Y-74144285D02*
X127081666Y-74144285D01*
X127081666Y-74144285D02*
X126986428Y-74191904D01*
X126986428Y-74191904D02*
X126938809Y-74239523D01*
X126938809Y-74239523D02*
X126891190Y-74334761D01*
X127078642Y-72967380D02*
X127031023Y-73015000D01*
X127031023Y-73015000D02*
X126888166Y-73062619D01*
X126888166Y-73062619D02*
X126792928Y-73062619D01*
X126792928Y-73062619D02*
X126650071Y-73015000D01*
X126650071Y-73015000D02*
X126554833Y-72919761D01*
X126554833Y-72919761D02*
X126507214Y-72824523D01*
X126507214Y-72824523D02*
X126459595Y-72634047D01*
X126459595Y-72634047D02*
X126459595Y-72491190D01*
X126459595Y-72491190D02*
X126507214Y-72300714D01*
X126507214Y-72300714D02*
X126554833Y-72205476D01*
X126554833Y-72205476D02*
X126650071Y-72110238D01*
X126650071Y-72110238D02*
X126792928Y-72062619D01*
X126792928Y-72062619D02*
X126888166Y-72062619D01*
X126888166Y-72062619D02*
X127031023Y-72110238D01*
X127031023Y-72110238D02*
X127078642Y-72157857D01*
X127459595Y-72157857D02*
X127507214Y-72110238D01*
X127507214Y-72110238D02*
X127602452Y-72062619D01*
X127602452Y-72062619D02*
X127840547Y-72062619D01*
X127840547Y-72062619D02*
X127935785Y-72110238D01*
X127935785Y-72110238D02*
X127983404Y-72157857D01*
X127983404Y-72157857D02*
X128031023Y-72253095D01*
X128031023Y-72253095D02*
X128031023Y-72348333D01*
X128031023Y-72348333D02*
X127983404Y-72491190D01*
X127983404Y-72491190D02*
X127411976Y-73062619D01*
X127411976Y-73062619D02*
X128031023Y-73062619D01*
X128364357Y-72062619D02*
X129031023Y-72062619D01*
X129031023Y-72062619D02*
X128602452Y-73062619D01*
X114165142Y-62851380D02*
X114117523Y-62899000D01*
X114117523Y-62899000D02*
X113974666Y-62946619D01*
X113974666Y-62946619D02*
X113879428Y-62946619D01*
X113879428Y-62946619D02*
X113736571Y-62899000D01*
X113736571Y-62899000D02*
X113641333Y-62803761D01*
X113641333Y-62803761D02*
X113593714Y-62708523D01*
X113593714Y-62708523D02*
X113546095Y-62518047D01*
X113546095Y-62518047D02*
X113546095Y-62375190D01*
X113546095Y-62375190D02*
X113593714Y-62184714D01*
X113593714Y-62184714D02*
X113641333Y-62089476D01*
X113641333Y-62089476D02*
X113736571Y-61994238D01*
X113736571Y-61994238D02*
X113879428Y-61946619D01*
X113879428Y-61946619D02*
X113974666Y-61946619D01*
X113974666Y-61946619D02*
X114117523Y-61994238D01*
X114117523Y-61994238D02*
X114165142Y-62041857D01*
X114546095Y-62041857D02*
X114593714Y-61994238D01*
X114593714Y-61994238D02*
X114688952Y-61946619D01*
X114688952Y-61946619D02*
X114927047Y-61946619D01*
X114927047Y-61946619D02*
X115022285Y-61994238D01*
X115022285Y-61994238D02*
X115069904Y-62041857D01*
X115069904Y-62041857D02*
X115117523Y-62137095D01*
X115117523Y-62137095D02*
X115117523Y-62232333D01*
X115117523Y-62232333D02*
X115069904Y-62375190D01*
X115069904Y-62375190D02*
X114498476Y-62946619D01*
X114498476Y-62946619D02*
X115117523Y-62946619D01*
X115974666Y-61946619D02*
X115784190Y-61946619D01*
X115784190Y-61946619D02*
X115688952Y-61994238D01*
X115688952Y-61994238D02*
X115641333Y-62041857D01*
X115641333Y-62041857D02*
X115546095Y-62184714D01*
X115546095Y-62184714D02*
X115498476Y-62375190D01*
X115498476Y-62375190D02*
X115498476Y-62756142D01*
X115498476Y-62756142D02*
X115546095Y-62851380D01*
X115546095Y-62851380D02*
X115593714Y-62899000D01*
X115593714Y-62899000D02*
X115688952Y-62946619D01*
X115688952Y-62946619D02*
X115879428Y-62946619D01*
X115879428Y-62946619D02*
X115974666Y-62899000D01*
X115974666Y-62899000D02*
X116022285Y-62851380D01*
X116022285Y-62851380D02*
X116069904Y-62756142D01*
X116069904Y-62756142D02*
X116069904Y-62518047D01*
X116069904Y-62518047D02*
X116022285Y-62422809D01*
X116022285Y-62422809D02*
X115974666Y-62375190D01*
X115974666Y-62375190D02*
X115879428Y-62327571D01*
X115879428Y-62327571D02*
X115688952Y-62327571D01*
X115688952Y-62327571D02*
X115593714Y-62375190D01*
X115593714Y-62375190D02*
X115546095Y-62422809D01*
X115546095Y-62422809D02*
X115498476Y-62518047D01*
X114419142Y-74027380D02*
X114371523Y-74075000D01*
X114371523Y-74075000D02*
X114228666Y-74122619D01*
X114228666Y-74122619D02*
X114133428Y-74122619D01*
X114133428Y-74122619D02*
X113990571Y-74075000D01*
X113990571Y-74075000D02*
X113895333Y-73979761D01*
X113895333Y-73979761D02*
X113847714Y-73884523D01*
X113847714Y-73884523D02*
X113800095Y-73694047D01*
X113800095Y-73694047D02*
X113800095Y-73551190D01*
X113800095Y-73551190D02*
X113847714Y-73360714D01*
X113847714Y-73360714D02*
X113895333Y-73265476D01*
X113895333Y-73265476D02*
X113990571Y-73170238D01*
X113990571Y-73170238D02*
X114133428Y-73122619D01*
X114133428Y-73122619D02*
X114228666Y-73122619D01*
X114228666Y-73122619D02*
X114371523Y-73170238D01*
X114371523Y-73170238D02*
X114419142Y-73217857D01*
X114800095Y-73217857D02*
X114847714Y-73170238D01*
X114847714Y-73170238D02*
X114942952Y-73122619D01*
X114942952Y-73122619D02*
X115181047Y-73122619D01*
X115181047Y-73122619D02*
X115276285Y-73170238D01*
X115276285Y-73170238D02*
X115323904Y-73217857D01*
X115323904Y-73217857D02*
X115371523Y-73313095D01*
X115371523Y-73313095D02*
X115371523Y-73408333D01*
X115371523Y-73408333D02*
X115323904Y-73551190D01*
X115323904Y-73551190D02*
X114752476Y-74122619D01*
X114752476Y-74122619D02*
X115371523Y-74122619D01*
X116276285Y-73122619D02*
X115800095Y-73122619D01*
X115800095Y-73122619D02*
X115752476Y-73598809D01*
X115752476Y-73598809D02*
X115800095Y-73551190D01*
X115800095Y-73551190D02*
X115895333Y-73503571D01*
X115895333Y-73503571D02*
X116133428Y-73503571D01*
X116133428Y-73503571D02*
X116228666Y-73551190D01*
X116228666Y-73551190D02*
X116276285Y-73598809D01*
X116276285Y-73598809D02*
X116323904Y-73694047D01*
X116323904Y-73694047D02*
X116323904Y-73932142D01*
X116323904Y-73932142D02*
X116276285Y-74027380D01*
X116276285Y-74027380D02*
X116228666Y-74075000D01*
X116228666Y-74075000D02*
X116133428Y-74122619D01*
X116133428Y-74122619D02*
X115895333Y-74122619D01*
X115895333Y-74122619D02*
X115800095Y-74075000D01*
X115800095Y-74075000D02*
X115752476Y-74027380D01*
X129702857Y-82003780D02*
X129636343Y-81993245D01*
X129636343Y-81993245D02*
X129513849Y-81905661D01*
X129513849Y-81905661D02*
X129457869Y-81828612D01*
X129457869Y-81828612D02*
X129412425Y-81685048D01*
X129412425Y-81685048D02*
X129433494Y-81552019D01*
X129433494Y-81552019D02*
X129482554Y-81457515D01*
X129482554Y-81457515D02*
X129608662Y-81307031D01*
X129608662Y-81307031D02*
X129724236Y-81223062D01*
X129724236Y-81223062D02*
X129906325Y-81149628D01*
X129906325Y-81149628D02*
X130011364Y-81132173D01*
X130011364Y-81132173D02*
X130144392Y-81153242D01*
X130144392Y-81153242D02*
X130266886Y-81240826D01*
X130266886Y-81240826D02*
X130322866Y-81317876D01*
X130322866Y-81317876D02*
X130368311Y-81461439D01*
X130368311Y-81461439D02*
X130357776Y-81527954D01*
X130630753Y-81741646D02*
X130994620Y-82242466D01*
X130994620Y-82242466D02*
X130490495Y-82196712D01*
X130490495Y-82196712D02*
X130574464Y-82312286D01*
X130574464Y-82312286D02*
X130591919Y-82417325D01*
X130591919Y-82417325D02*
X130581384Y-82483840D01*
X130581384Y-82483840D02*
X130532325Y-82578344D01*
X130532325Y-82578344D02*
X130339702Y-82718293D01*
X130339702Y-82718293D02*
X130234663Y-82735748D01*
X130234663Y-82735748D02*
X130168148Y-82725213D01*
X130168148Y-82725213D02*
X130073644Y-82676153D01*
X130073644Y-82676153D02*
X129905706Y-82445006D01*
X129905706Y-82445006D02*
X129888251Y-82339967D01*
X129888251Y-82339967D02*
X129898786Y-82273452D01*
X132803780Y-48097142D02*
X132793245Y-48163656D01*
X132793245Y-48163656D02*
X132705661Y-48286150D01*
X132705661Y-48286150D02*
X132628612Y-48342130D01*
X132628612Y-48342130D02*
X132485048Y-48387574D01*
X132485048Y-48387574D02*
X132352019Y-48366505D01*
X132352019Y-48366505D02*
X132257515Y-48317445D01*
X132257515Y-48317445D02*
X132107031Y-48191337D01*
X132107031Y-48191337D02*
X132023062Y-48075763D01*
X132023062Y-48075763D02*
X131949628Y-47893674D01*
X131949628Y-47893674D02*
X131932173Y-47788635D01*
X131932173Y-47788635D02*
X131953242Y-47655607D01*
X131953242Y-47655607D02*
X132040826Y-47533113D01*
X132040826Y-47533113D02*
X132117876Y-47477133D01*
X132117876Y-47477133D02*
X132261439Y-47431688D01*
X132261439Y-47431688D02*
X132327954Y-47442223D01*
X133245006Y-47894293D02*
X133399104Y-47782334D01*
X133399104Y-47782334D02*
X133448163Y-47687830D01*
X133448163Y-47687830D02*
X133458698Y-47621316D01*
X133458698Y-47621316D02*
X133451778Y-47449762D01*
X133451778Y-47449762D02*
X133378344Y-47267674D01*
X133378344Y-47267674D02*
X133154426Y-46959477D01*
X133154426Y-46959477D02*
X133059921Y-46910418D01*
X133059921Y-46910418D02*
X132993407Y-46899883D01*
X132993407Y-46899883D02*
X132888368Y-46917338D01*
X132888368Y-46917338D02*
X132734270Y-47029297D01*
X132734270Y-47029297D02*
X132685210Y-47123801D01*
X132685210Y-47123801D02*
X132674675Y-47190315D01*
X132674675Y-47190315D02*
X132692130Y-47295354D01*
X132692130Y-47295354D02*
X132832079Y-47487977D01*
X132832079Y-47487977D02*
X132926583Y-47537037D01*
X132926583Y-47537037D02*
X132993098Y-47547572D01*
X132993098Y-47547572D02*
X133098137Y-47530117D01*
X133098137Y-47530117D02*
X133252235Y-47418158D01*
X133252235Y-47418158D02*
X133301295Y-47323654D01*
X133301295Y-47323654D02*
X133311829Y-47257139D01*
X133311829Y-47257139D02*
X133294374Y-47152100D01*
X63141666Y-75892619D02*
X63141666Y-76606904D01*
X63141666Y-76606904D02*
X63094047Y-76749761D01*
X63094047Y-76749761D02*
X62998809Y-76845000D01*
X62998809Y-76845000D02*
X62855952Y-76892619D01*
X62855952Y-76892619D02*
X62760714Y-76892619D01*
X64046428Y-76225952D02*
X64046428Y-76892619D01*
X63808333Y-75845000D02*
X63570238Y-76559285D01*
X63570238Y-76559285D02*
X64189285Y-76559285D01*
X119265599Y-40276488D02*
X119524418Y-39310562D01*
X119524418Y-39310562D02*
X119754400Y-39372186D01*
X119754400Y-39372186D02*
X119880065Y-39455156D01*
X119880065Y-39455156D02*
X119947408Y-39571799D01*
X119947408Y-39571799D02*
X119968756Y-39676116D01*
X119968756Y-39676116D02*
X119965453Y-39872427D01*
X119965453Y-39872427D02*
X119928479Y-40010416D01*
X119928479Y-40010416D02*
X119833184Y-40182077D01*
X119833184Y-40182077D02*
X119762538Y-40261746D01*
X119762538Y-40261746D02*
X119645895Y-40329089D01*
X119645895Y-40329089D02*
X119495581Y-40338111D01*
X119495581Y-40338111D02*
X119265599Y-40276488D01*
X120737486Y-40670879D02*
X120185528Y-40522982D01*
X120461507Y-40596931D02*
X120720326Y-39631005D01*
X120720326Y-39631005D02*
X120591359Y-39744345D01*
X120591359Y-39744345D02*
X120474717Y-39811688D01*
X120474717Y-39811688D02*
X120370399Y-39833035D01*
X121339627Y-39895544D02*
X121397948Y-39861872D01*
X121397948Y-39861872D02*
X121502266Y-39840525D01*
X121502266Y-39840525D02*
X121732248Y-39902148D01*
X121732248Y-39902148D02*
X121811917Y-39972794D01*
X121811917Y-39972794D02*
X121845588Y-40031116D01*
X121845588Y-40031116D02*
X121866935Y-40135433D01*
X121866935Y-40135433D02*
X121842286Y-40227426D01*
X121842286Y-40227426D02*
X121759315Y-40353091D01*
X121759315Y-40353091D02*
X121059461Y-40757152D01*
X121059461Y-40757152D02*
X121657415Y-40917373D01*
X95573183Y-79973118D02*
X95562648Y-80039632D01*
X95562648Y-80039632D02*
X95475064Y-80162126D01*
X95475064Y-80162126D02*
X95398015Y-80218106D01*
X95398015Y-80218106D02*
X95254451Y-80263550D01*
X95254451Y-80263550D02*
X95121423Y-80242481D01*
X95121423Y-80242481D02*
X95026918Y-80193421D01*
X95026918Y-80193421D02*
X94876435Y-80067313D01*
X94876435Y-80067313D02*
X94792465Y-79951739D01*
X94792465Y-79951739D02*
X94719031Y-79769651D01*
X94719031Y-79769651D02*
X94701576Y-79664612D01*
X94701576Y-79664612D02*
X94722646Y-79531583D01*
X94722646Y-79531583D02*
X94810230Y-79409089D01*
X94810230Y-79409089D02*
X94887279Y-79353109D01*
X94887279Y-79353109D02*
X95030843Y-79307665D01*
X95030843Y-79307665D02*
X95097357Y-79318199D01*
X95405554Y-79094281D02*
X95416089Y-79027767D01*
X95416089Y-79027767D02*
X95465148Y-78933263D01*
X95465148Y-78933263D02*
X95657771Y-78793314D01*
X95657771Y-78793314D02*
X95762810Y-78775859D01*
X95762810Y-78775859D02*
X95829325Y-78786394D01*
X95829325Y-78786394D02*
X95923829Y-78835453D01*
X95923829Y-78835453D02*
X95979809Y-78912502D01*
X95979809Y-78912502D02*
X96025253Y-79056066D01*
X96025253Y-79056066D02*
X95898835Y-79854239D01*
X95898835Y-79854239D02*
X96399655Y-79490372D01*
X97170148Y-78930576D02*
X96707852Y-79266453D01*
X96939000Y-79098515D02*
X96351215Y-78289498D01*
X96351215Y-78289498D02*
X96358135Y-78461051D01*
X96358135Y-78461051D02*
X96337065Y-78594080D01*
X96337065Y-78594080D02*
X96288006Y-78688584D01*
X90582619Y-64714285D02*
X89582619Y-64714285D01*
X89582619Y-64714285D02*
X89582619Y-64476190D01*
X89582619Y-64476190D02*
X89630238Y-64333333D01*
X89630238Y-64333333D02*
X89725476Y-64238095D01*
X89725476Y-64238095D02*
X89820714Y-64190476D01*
X89820714Y-64190476D02*
X90011190Y-64142857D01*
X90011190Y-64142857D02*
X90154047Y-64142857D01*
X90154047Y-64142857D02*
X90344523Y-64190476D01*
X90344523Y-64190476D02*
X90439761Y-64238095D01*
X90439761Y-64238095D02*
X90535000Y-64333333D01*
X90535000Y-64333333D02*
X90582619Y-64476190D01*
X90582619Y-64476190D02*
X90582619Y-64714285D01*
X90582619Y-63190476D02*
X90582619Y-63761904D01*
X90582619Y-63476190D02*
X89582619Y-63476190D01*
X89582619Y-63476190D02*
X89725476Y-63571428D01*
X89725476Y-63571428D02*
X89820714Y-63666666D01*
X89820714Y-63666666D02*
X89868333Y-63761904D01*
X90582619Y-62714285D02*
X90582619Y-62523809D01*
X90582619Y-62523809D02*
X90535000Y-62428571D01*
X90535000Y-62428571D02*
X90487380Y-62380952D01*
X90487380Y-62380952D02*
X90344523Y-62285714D01*
X90344523Y-62285714D02*
X90154047Y-62238095D01*
X90154047Y-62238095D02*
X89773095Y-62238095D01*
X89773095Y-62238095D02*
X89677857Y-62285714D01*
X89677857Y-62285714D02*
X89630238Y-62333333D01*
X89630238Y-62333333D02*
X89582619Y-62428571D01*
X89582619Y-62428571D02*
X89582619Y-62619047D01*
X89582619Y-62619047D02*
X89630238Y-62714285D01*
X89630238Y-62714285D02*
X89677857Y-62761904D01*
X89677857Y-62761904D02*
X89773095Y-62809523D01*
X89773095Y-62809523D02*
X90011190Y-62809523D01*
X90011190Y-62809523D02*
X90106428Y-62761904D01*
X90106428Y-62761904D02*
X90154047Y-62714285D01*
X90154047Y-62714285D02*
X90201666Y-62619047D01*
X90201666Y-62619047D02*
X90201666Y-62428571D01*
X90201666Y-62428571D02*
X90154047Y-62333333D01*
X90154047Y-62333333D02*
X90106428Y-62285714D01*
X90106428Y-62285714D02*
X90011190Y-62238095D01*
X97826881Y-44773183D02*
X97760367Y-44762648D01*
X97760367Y-44762648D02*
X97637873Y-44675064D01*
X97637873Y-44675064D02*
X97581893Y-44598015D01*
X97581893Y-44598015D02*
X97536449Y-44454451D01*
X97536449Y-44454451D02*
X97557518Y-44321423D01*
X97557518Y-44321423D02*
X97606578Y-44226918D01*
X97606578Y-44226918D02*
X97732686Y-44076435D01*
X97732686Y-44076435D02*
X97848260Y-43992465D01*
X97848260Y-43992465D02*
X98030348Y-43919031D01*
X98030348Y-43919031D02*
X98135387Y-43901576D01*
X98135387Y-43901576D02*
X98268416Y-43922646D01*
X98268416Y-43922646D02*
X98390910Y-44010230D01*
X98390910Y-44010230D02*
X98446890Y-44087279D01*
X98446890Y-44087279D02*
X98492334Y-44230843D01*
X98492334Y-44230843D02*
X98481800Y-44297357D01*
X98309627Y-45599655D02*
X97973750Y-45137360D01*
X98141689Y-45368507D02*
X98950706Y-44780722D01*
X98950706Y-44780722D02*
X98779152Y-44787642D01*
X98779152Y-44787642D02*
X98646123Y-44766573D01*
X98646123Y-44766573D02*
X98551619Y-44717513D01*
X99650450Y-45743838D02*
X99370552Y-45358591D01*
X99370552Y-45358591D02*
X98957316Y-45599965D01*
X98957316Y-45599965D02*
X99023831Y-45610499D01*
X99023831Y-45610499D02*
X99118335Y-45659559D01*
X99118335Y-45659559D02*
X99258284Y-45852182D01*
X99258284Y-45852182D02*
X99275739Y-45957221D01*
X99275739Y-45957221D02*
X99265204Y-46023735D01*
X99265204Y-46023735D02*
X99216144Y-46118240D01*
X99216144Y-46118240D02*
X99023521Y-46258188D01*
X99023521Y-46258188D02*
X98918482Y-46275643D01*
X98918482Y-46275643D02*
X98851968Y-46265109D01*
X98851968Y-46265109D02*
X98757464Y-46216049D01*
X98757464Y-46216049D02*
X98617515Y-46023426D01*
X98617515Y-46023426D02*
X98600060Y-45918387D01*
X98600060Y-45918387D02*
X98610595Y-45851873D01*
X124388887Y-85359832D02*
X124327366Y-85332441D01*
X124327366Y-85332441D02*
X124231714Y-85216137D01*
X124231714Y-85216137D02*
X124197584Y-85127225D01*
X124197584Y-85127225D02*
X124190845Y-84976791D01*
X124190845Y-84976791D02*
X124245627Y-84853748D01*
X124245627Y-84853748D02*
X124317474Y-84775162D01*
X124317474Y-84775162D02*
X124478234Y-84662445D01*
X124478234Y-84662445D02*
X124611602Y-84611250D01*
X124611602Y-84611250D02*
X124806492Y-84587445D01*
X124806492Y-84587445D02*
X124912470Y-84597771D01*
X124912470Y-84597771D02*
X125035513Y-84652553D01*
X125035513Y-84652553D02*
X125131164Y-84768857D01*
X125131164Y-84768857D02*
X125165294Y-84857769D01*
X125165294Y-84857769D02*
X125172034Y-85008203D01*
X125172034Y-85008203D02*
X125144643Y-85069724D01*
X125281164Y-85425374D02*
X125342685Y-85452765D01*
X125342685Y-85452765D02*
X125421272Y-85524612D01*
X125421272Y-85524612D02*
X125506597Y-85746893D01*
X125506597Y-85746893D02*
X125496271Y-85852871D01*
X125496271Y-85852871D02*
X125468880Y-85914392D01*
X125468880Y-85914392D02*
X125397033Y-85992979D01*
X125397033Y-85992979D02*
X125308121Y-86027109D01*
X125308121Y-86027109D02*
X125157687Y-86033848D01*
X125157687Y-86033848D02*
X124419431Y-85705156D01*
X124419431Y-85705156D02*
X124641277Y-86283086D01*
X118387376Y-87226172D02*
X118335040Y-87183791D01*
X118335040Y-87183791D02*
X118272749Y-87046694D01*
X118272749Y-87046694D02*
X118262794Y-86951978D01*
X118262794Y-86951978D02*
X118295220Y-86804926D01*
X118295220Y-86804926D02*
X118379981Y-86700255D01*
X118379981Y-86700255D02*
X118469720Y-86642941D01*
X118469720Y-86642941D02*
X118654175Y-86575673D01*
X118654175Y-86575673D02*
X118796249Y-86560740D01*
X118796249Y-86560740D02*
X118990660Y-86588188D01*
X118990660Y-86588188D02*
X119090354Y-86625591D01*
X119090354Y-86625591D02*
X119195025Y-86710353D01*
X119195025Y-86710353D02*
X119257316Y-86847450D01*
X119257316Y-86847450D02*
X119267271Y-86942166D01*
X119267271Y-86942166D02*
X119234846Y-87089218D01*
X119234846Y-87089218D02*
X119192465Y-87141554D01*
X118392210Y-88183291D02*
X118332480Y-87614993D01*
X118362345Y-87899142D02*
X119356867Y-87794613D01*
X119356867Y-87794613D02*
X119204837Y-87714830D01*
X119204837Y-87714830D02*
X119100166Y-87630068D01*
X119100166Y-87630068D02*
X119042853Y-87540329D01*
X131203051Y-81446874D02*
X130495944Y-80739768D01*
X130495944Y-80739768D02*
X130664303Y-80571409D01*
X130664303Y-80571409D02*
X130798990Y-80504065D01*
X130798990Y-80504065D02*
X130933677Y-80504065D01*
X130933677Y-80504065D02*
X131034692Y-80537737D01*
X131034692Y-80537737D02*
X131203051Y-80638752D01*
X131203051Y-80638752D02*
X131304066Y-80739768D01*
X131304066Y-80739768D02*
X131405081Y-80908126D01*
X131405081Y-80908126D02*
X131438753Y-81009142D01*
X131438753Y-81009142D02*
X131438753Y-81143829D01*
X131438753Y-81143829D02*
X131371410Y-81278516D01*
X131371410Y-81278516D02*
X131203051Y-81446874D01*
X131741799Y-79965317D02*
X132213203Y-80436722D01*
X131304066Y-79864302D02*
X131640784Y-80537737D01*
X131640784Y-80537737D02*
X132078516Y-80100004D01*
X138942619Y-64238094D02*
X137942619Y-64238094D01*
X137942619Y-64238094D02*
X137942619Y-63999999D01*
X137942619Y-63999999D02*
X137990238Y-63857142D01*
X137990238Y-63857142D02*
X138085476Y-63761904D01*
X138085476Y-63761904D02*
X138180714Y-63714285D01*
X138180714Y-63714285D02*
X138371190Y-63666666D01*
X138371190Y-63666666D02*
X138514047Y-63666666D01*
X138514047Y-63666666D02*
X138704523Y-63714285D01*
X138704523Y-63714285D02*
X138799761Y-63761904D01*
X138799761Y-63761904D02*
X138895000Y-63857142D01*
X138895000Y-63857142D02*
X138942619Y-63999999D01*
X138942619Y-63999999D02*
X138942619Y-64238094D01*
X137942619Y-63333332D02*
X137942619Y-62666666D01*
X137942619Y-62666666D02*
X138942619Y-63095237D01*
X106749111Y-86988662D02*
X107007930Y-86022736D01*
X107007930Y-86022736D02*
X107237912Y-86084360D01*
X107237912Y-86084360D02*
X107363577Y-86167330D01*
X107363577Y-86167330D02*
X107430920Y-86283973D01*
X107430920Y-86283973D02*
X107452268Y-86388290D01*
X107452268Y-86388290D02*
X107448965Y-86584601D01*
X107448965Y-86584601D02*
X107411991Y-86722590D01*
X107411991Y-86722590D02*
X107316696Y-86894251D01*
X107316696Y-86894251D02*
X107246050Y-86973920D01*
X107246050Y-86973920D02*
X107129407Y-87041263D01*
X107129407Y-87041263D02*
X106979093Y-87050285D01*
X106979093Y-87050285D02*
X106749111Y-86988662D01*
X107903210Y-86361223D02*
X107961531Y-86327552D01*
X107961531Y-86327552D02*
X108065849Y-86306205D01*
X108065849Y-86306205D02*
X108295831Y-86367828D01*
X108295831Y-86367828D02*
X108375499Y-86438474D01*
X108375499Y-86438474D02*
X108409171Y-86496795D01*
X108409171Y-86496795D02*
X108430518Y-86601113D01*
X108430518Y-86601113D02*
X108405869Y-86693106D01*
X108405869Y-86693106D02*
X108322898Y-86818770D01*
X108322898Y-86818770D02*
X107623044Y-87222832D01*
X107623044Y-87222832D02*
X108220998Y-87383053D01*
X109221480Y-86960947D02*
X109048934Y-87604898D01*
X109090096Y-86531352D02*
X108675243Y-87159675D01*
X108675243Y-87159675D02*
X109273197Y-87319897D01*
X112966666Y-46554619D02*
X112633333Y-46078428D01*
X112395238Y-46554619D02*
X112395238Y-45554619D01*
X112395238Y-45554619D02*
X112776190Y-45554619D01*
X112776190Y-45554619D02*
X112871428Y-45602238D01*
X112871428Y-45602238D02*
X112919047Y-45649857D01*
X112919047Y-45649857D02*
X112966666Y-45745095D01*
X112966666Y-45745095D02*
X112966666Y-45887952D01*
X112966666Y-45887952D02*
X112919047Y-45983190D01*
X112919047Y-45983190D02*
X112871428Y-46030809D01*
X112871428Y-46030809D02*
X112776190Y-46078428D01*
X112776190Y-46078428D02*
X112395238Y-46078428D01*
X113395238Y-46030809D02*
X113728571Y-46030809D01*
X113871428Y-46554619D02*
X113395238Y-46554619D01*
X113395238Y-46554619D02*
X113395238Y-45554619D01*
X113395238Y-45554619D02*
X113871428Y-45554619D01*
X114633333Y-46030809D02*
X114300000Y-46030809D01*
X114300000Y-46554619D02*
X114300000Y-45554619D01*
X114300000Y-45554619D02*
X114776190Y-45554619D01*
X115300000Y-45554619D02*
X115300000Y-45792714D01*
X115061905Y-45697476D02*
X115300000Y-45792714D01*
X115300000Y-45792714D02*
X115538095Y-45697476D01*
X115157143Y-45983190D02*
X115300000Y-45792714D01*
X115300000Y-45792714D02*
X115442857Y-45983190D01*
X116061905Y-45554619D02*
X116061905Y-45792714D01*
X115823810Y-45697476D02*
X116061905Y-45792714D01*
X116061905Y-45792714D02*
X116300000Y-45697476D01*
X115919048Y-45983190D02*
X116061905Y-45792714D01*
X116061905Y-45792714D02*
X116204762Y-45983190D01*
X96016407Y-80066333D02*
X96723514Y-79359226D01*
X96723514Y-79359226D02*
X96891872Y-79527585D01*
X96891872Y-79527585D02*
X96959216Y-79662272D01*
X96959216Y-79662272D02*
X96959216Y-79796959D01*
X96959216Y-79796959D02*
X96925544Y-79897974D01*
X96925544Y-79897974D02*
X96824529Y-80066333D01*
X96824529Y-80066333D02*
X96723514Y-80167348D01*
X96723514Y-80167348D02*
X96555155Y-80268363D01*
X96555155Y-80268363D02*
X96454140Y-80302035D01*
X96454140Y-80302035D02*
X96319453Y-80302035D01*
X96319453Y-80302035D02*
X96184765Y-80234692D01*
X96184765Y-80234692D02*
X96016407Y-80066333D01*
X97329605Y-80100005D02*
X97396949Y-80100005D01*
X97396949Y-80100005D02*
X97497964Y-80133676D01*
X97497964Y-80133676D02*
X97666323Y-80302035D01*
X97666323Y-80302035D02*
X97699994Y-80403050D01*
X97699994Y-80403050D02*
X97699994Y-80470394D01*
X97699994Y-80470394D02*
X97666323Y-80571409D01*
X97666323Y-80571409D02*
X97598979Y-80638753D01*
X97598979Y-80638753D02*
X97464292Y-80706096D01*
X97464292Y-80706096D02*
X96656170Y-80706096D01*
X96656170Y-80706096D02*
X97093903Y-81143829D01*
X98003040Y-80773440D02*
X98070384Y-80773440D01*
X98070384Y-80773440D02*
X98171399Y-80807111D01*
X98171399Y-80807111D02*
X98339758Y-80975470D01*
X98339758Y-80975470D02*
X98373429Y-81076485D01*
X98373429Y-81076485D02*
X98373429Y-81143829D01*
X98373429Y-81143829D02*
X98339758Y-81244844D01*
X98339758Y-81244844D02*
X98272414Y-81312188D01*
X98272414Y-81312188D02*
X98137727Y-81379531D01*
X98137727Y-81379531D02*
X97329605Y-81379531D01*
X97329605Y-81379531D02*
X97767338Y-81817264D01*
X106988580Y-40905048D02*
X106729761Y-39939123D01*
X106729761Y-39939123D02*
X106959743Y-39877499D01*
X106959743Y-39877499D02*
X107110058Y-39886521D01*
X107110058Y-39886521D02*
X107226700Y-39953865D01*
X107226700Y-39953865D02*
X107297346Y-40033533D01*
X107297346Y-40033533D02*
X107392641Y-40205194D01*
X107392641Y-40205194D02*
X107429615Y-40343184D01*
X107429615Y-40343184D02*
X107432918Y-40539494D01*
X107432918Y-40539494D02*
X107411571Y-40643812D01*
X107411571Y-40643812D02*
X107344227Y-40760454D01*
X107344227Y-40760454D02*
X107218562Y-40843425D01*
X107218562Y-40843425D02*
X106988580Y-40905048D01*
X108460467Y-40510658D02*
X107908510Y-40658554D01*
X108184488Y-40584606D02*
X107925669Y-39618680D01*
X107925669Y-39618680D02*
X107870650Y-39781319D01*
X107870650Y-39781319D02*
X107803307Y-39897961D01*
X107803307Y-39897961D02*
X107723639Y-39968607D01*
X109115858Y-39644862D02*
X109288404Y-40288813D01*
X108787277Y-39338514D02*
X108742166Y-40090085D01*
X108742166Y-40090085D02*
X109340120Y-39929863D01*
X125107088Y-42353002D02*
X125607088Y-41486977D01*
X125607088Y-41486977D02*
X125813284Y-41606025D01*
X125813284Y-41606025D02*
X125913193Y-41718693D01*
X125913193Y-41718693D02*
X125948052Y-41848790D01*
X125948052Y-41848790D02*
X125941672Y-41955078D01*
X125941672Y-41955078D02*
X125887674Y-42143845D01*
X125887674Y-42143845D02*
X125816245Y-42267563D01*
X125816245Y-42267563D02*
X125679768Y-42408711D01*
X125679768Y-42408711D02*
X125590909Y-42467380D01*
X125590909Y-42467380D02*
X125460812Y-42502239D01*
X125460812Y-42502239D02*
X125313284Y-42472050D01*
X125313284Y-42472050D02*
X125107088Y-42353002D01*
X126426745Y-43114907D02*
X125931874Y-42829193D01*
X126179310Y-42972050D02*
X126679310Y-42106025D01*
X126679310Y-42106025D02*
X126525402Y-42182124D01*
X126525402Y-42182124D02*
X126395305Y-42216983D01*
X126395305Y-42216983D02*
X126289017Y-42210603D01*
X127251532Y-43591098D02*
X126756660Y-43305383D01*
X127004096Y-43448241D02*
X127504096Y-42582215D01*
X127504096Y-42582215D02*
X127350189Y-42658314D01*
X127350189Y-42658314D02*
X127220091Y-42693174D01*
X127220091Y-42693174D02*
X127113803Y-42686794D01*
X137911909Y-70590923D02*
X136945983Y-70332104D01*
X136945983Y-70332104D02*
X137007607Y-70102122D01*
X137007607Y-70102122D02*
X137090578Y-69976457D01*
X137090578Y-69976457D02*
X137207220Y-69909113D01*
X137207220Y-69909113D02*
X137311538Y-69887766D01*
X137311538Y-69887766D02*
X137507848Y-69891069D01*
X137507848Y-69891069D02*
X137645838Y-69928043D01*
X137645838Y-69928043D02*
X137817499Y-70023338D01*
X137817499Y-70023338D02*
X137897167Y-70093984D01*
X137897167Y-70093984D02*
X137964510Y-70210626D01*
X137964510Y-70210626D02*
X137973533Y-70360941D01*
X137973533Y-70360941D02*
X137911909Y-70590923D01*
X137315725Y-68952210D02*
X137266426Y-69136196D01*
X137266426Y-69136196D02*
X137287773Y-69240513D01*
X137287773Y-69240513D02*
X137321445Y-69298835D01*
X137321445Y-69298835D02*
X137434785Y-69427802D01*
X137434785Y-69427802D02*
X137606446Y-69523097D01*
X137606446Y-69523097D02*
X137974418Y-69621695D01*
X137974418Y-69621695D02*
X138078735Y-69600348D01*
X138078735Y-69600348D02*
X138137056Y-69566676D01*
X138137056Y-69566676D02*
X138207702Y-69487008D01*
X138207702Y-69487008D02*
X138257001Y-69303022D01*
X138257001Y-69303022D02*
X138235654Y-69198704D01*
X138235654Y-69198704D02*
X138201982Y-69140383D01*
X138201982Y-69140383D02*
X138122314Y-69069737D01*
X138122314Y-69069737D02*
X137892332Y-69008113D01*
X137892332Y-69008113D02*
X137788014Y-69029461D01*
X137788014Y-69029461D02*
X137729693Y-69063132D01*
X137729693Y-69063132D02*
X137659047Y-69142800D01*
X137659047Y-69142800D02*
X137609748Y-69326786D01*
X137609748Y-69326786D02*
X137631095Y-69431104D01*
X137631095Y-69431104D02*
X137664767Y-69489425D01*
X137664767Y-69489425D02*
X137744435Y-69560071D01*
X90182777Y-68705068D02*
X91148702Y-68446249D01*
X91148702Y-68446249D02*
X91210326Y-68676231D01*
X91210326Y-68676231D02*
X91201304Y-68826546D01*
X91201304Y-68826546D02*
X91133960Y-68943188D01*
X91133960Y-68943188D02*
X91054292Y-69013834D01*
X91054292Y-69013834D02*
X90882631Y-69109129D01*
X90882631Y-69109129D02*
X90744641Y-69146103D01*
X90744641Y-69146103D02*
X90548331Y-69149406D01*
X90548331Y-69149406D02*
X90444013Y-69128059D01*
X90444013Y-69128059D02*
X90327371Y-69060715D01*
X90327371Y-69060715D02*
X90244400Y-68935050D01*
X90244400Y-68935050D02*
X90182777Y-68705068D01*
X91303204Y-69390828D02*
X91361525Y-69424500D01*
X91361525Y-69424500D02*
X91432171Y-69504168D01*
X91432171Y-69504168D02*
X91493794Y-69734150D01*
X91493794Y-69734150D02*
X91472447Y-69838468D01*
X91472447Y-69838468D02*
X91438776Y-69896789D01*
X91438776Y-69896789D02*
X91359107Y-69967435D01*
X91359107Y-69967435D02*
X91267114Y-69992084D01*
X91267114Y-69992084D02*
X91116800Y-69983062D01*
X91116800Y-69983062D02*
X90416946Y-69579001D01*
X90416946Y-69579001D02*
X90577167Y-70176955D01*
X91703315Y-70516090D02*
X91727964Y-70608083D01*
X91727964Y-70608083D02*
X91706617Y-70712401D01*
X91706617Y-70712401D02*
X91672945Y-70770722D01*
X91672945Y-70770722D02*
X91593277Y-70841368D01*
X91593277Y-70841368D02*
X91421616Y-70936663D01*
X91421616Y-70936663D02*
X91191634Y-70998287D01*
X91191634Y-70998287D02*
X90995323Y-71001589D01*
X90995323Y-71001589D02*
X90891005Y-70980242D01*
X90891005Y-70980242D02*
X90832684Y-70946570D01*
X90832684Y-70946570D02*
X90762038Y-70866902D01*
X90762038Y-70866902D02*
X90737389Y-70774909D01*
X90737389Y-70774909D02*
X90758736Y-70670592D01*
X90758736Y-70670592D02*
X90792408Y-70612270D01*
X90792408Y-70612270D02*
X90872076Y-70541625D01*
X90872076Y-70541625D02*
X91043737Y-70446329D01*
X91043737Y-70446329D02*
X91273719Y-70384706D01*
X91273719Y-70384706D02*
X91470030Y-70381403D01*
X91470030Y-70381403D02*
X91574348Y-70402750D01*
X91574348Y-70402750D02*
X91632669Y-70436422D01*
X91632669Y-70436422D02*
X91703315Y-70516090D01*
X125982100Y-85210181D02*
X125482100Y-84344155D01*
X125482100Y-84344155D02*
X125688297Y-84225108D01*
X125688297Y-84225108D02*
X125835824Y-84194918D01*
X125835824Y-84194918D02*
X125965922Y-84229778D01*
X125965922Y-84229778D02*
X126054780Y-84288447D01*
X126054780Y-84288447D02*
X126191258Y-84429595D01*
X126191258Y-84429595D02*
X126262686Y-84553313D01*
X126262686Y-84553313D02*
X126316685Y-84742079D01*
X126316685Y-84742079D02*
X126323065Y-84848368D01*
X126323065Y-84848368D02*
X126288205Y-84978465D01*
X126288205Y-84978465D02*
X126188297Y-85091133D01*
X126188297Y-85091133D02*
X125982100Y-85210181D01*
X126265647Y-83891774D02*
X126801758Y-83582251D01*
X126801758Y-83582251D02*
X126703559Y-84078832D01*
X126703559Y-84078832D02*
X126827277Y-84007403D01*
X126827277Y-84007403D02*
X126933565Y-84001023D01*
X126933565Y-84001023D02*
X126998614Y-84018453D01*
X126998614Y-84018453D02*
X127087472Y-84077122D01*
X127087472Y-84077122D02*
X127206520Y-84283319D01*
X127206520Y-84283319D02*
X127212900Y-84389607D01*
X127212900Y-84389607D02*
X127195470Y-84454656D01*
X127195470Y-84454656D02*
X127136801Y-84543514D01*
X127136801Y-84543514D02*
X126889365Y-84686371D01*
X126889365Y-84686371D02*
X126783077Y-84692751D01*
X126783077Y-84692751D02*
X126718028Y-84675321D01*
X106318660Y-87129547D02*
X106342794Y-87192418D01*
X106342794Y-87192418D02*
X106328191Y-87342293D01*
X106328191Y-87342293D02*
X106289454Y-87429297D01*
X106289454Y-87429297D02*
X106187847Y-87540435D01*
X106187847Y-87540435D02*
X106062105Y-87588702D01*
X106062105Y-87588702D02*
X105955733Y-87593468D01*
X105955733Y-87593468D02*
X105762356Y-87559496D01*
X105762356Y-87559496D02*
X105631849Y-87501391D01*
X105631849Y-87501391D02*
X105477209Y-87380415D01*
X105477209Y-87380415D02*
X105409573Y-87298176D01*
X105409573Y-87298176D02*
X105361305Y-87172435D01*
X105361305Y-87172435D02*
X105375909Y-87022560D01*
X105375909Y-87022560D02*
X105414645Y-86935556D01*
X105414645Y-86935556D02*
X105516253Y-86824418D01*
X105516253Y-86824418D02*
X105579123Y-86800284D01*
X105734071Y-86452267D02*
X105709937Y-86389396D01*
X105709937Y-86389396D02*
X105705172Y-86283023D01*
X105705172Y-86283023D02*
X105802014Y-86065513D01*
X105802014Y-86065513D02*
X105884253Y-85997877D01*
X105884253Y-85997877D02*
X105947123Y-85973743D01*
X105947123Y-85973743D02*
X106053496Y-85968978D01*
X106053496Y-85968978D02*
X106140500Y-86007714D01*
X106140500Y-86007714D02*
X106251638Y-86109322D01*
X106251638Y-86109322D02*
X106541243Y-86863769D01*
X106541243Y-86863769D02*
X106793033Y-86298241D01*
X106015066Y-85586989D02*
X106266855Y-85021461D01*
X106266855Y-85021461D02*
X106479294Y-85480923D01*
X106479294Y-85480923D02*
X106537399Y-85350417D01*
X106537399Y-85350417D02*
X106619638Y-85282781D01*
X106619638Y-85282781D02*
X106682509Y-85258647D01*
X106682509Y-85258647D02*
X106788881Y-85253882D01*
X106788881Y-85253882D02*
X107006392Y-85350724D01*
X107006392Y-85350724D02*
X107074028Y-85432963D01*
X107074028Y-85432963D02*
X107098162Y-85495833D01*
X107098162Y-85495833D02*
X107102927Y-85602206D01*
X107102927Y-85602206D02*
X106986717Y-85863219D01*
X106986717Y-85863219D02*
X106904478Y-85930855D01*
X106904478Y-85930855D02*
X106841607Y-85954989D01*
X92351723Y-74769707D02*
X93217748Y-74269707D01*
X93217748Y-74269707D02*
X93336796Y-74475903D01*
X93336796Y-74475903D02*
X93366985Y-74623431D01*
X93366985Y-74623431D02*
X93332125Y-74753528D01*
X93332125Y-74753528D02*
X93273456Y-74842387D01*
X93273456Y-74842387D02*
X93132309Y-74978864D01*
X93132309Y-74978864D02*
X93008591Y-75050293D01*
X93008591Y-75050293D02*
X92819824Y-75104291D01*
X92819824Y-75104291D02*
X92713536Y-75110671D01*
X92713536Y-75110671D02*
X92583438Y-75075812D01*
X92583438Y-75075812D02*
X92470770Y-74975903D01*
X92470770Y-74975903D02*
X92351723Y-74769707D01*
X93611460Y-75142112D02*
X93676509Y-75159542D01*
X93676509Y-75159542D02*
X93765367Y-75218211D01*
X93765367Y-75218211D02*
X93884415Y-75424407D01*
X93884415Y-75424407D02*
X93890795Y-75530695D01*
X93890795Y-75530695D02*
X93873365Y-75595744D01*
X93873365Y-75595744D02*
X93814696Y-75684603D01*
X93814696Y-75684603D02*
X93732217Y-75732222D01*
X93732217Y-75732222D02*
X93584690Y-75762411D01*
X93584690Y-75762411D02*
X92804104Y-75553254D01*
X92804104Y-75553254D02*
X93113628Y-76089364D01*
X93589818Y-76914151D02*
X93304104Y-76419279D01*
X93446961Y-76666715D02*
X94312986Y-76166715D01*
X94312986Y-76166715D02*
X94141649Y-76155665D01*
X94141649Y-76155665D02*
X94011552Y-76120805D01*
X94011552Y-76120805D02*
X93922693Y-76062136D01*
X91076488Y-58534400D02*
X90110562Y-58275581D01*
X90110562Y-58275581D02*
X90172186Y-58045599D01*
X90172186Y-58045599D02*
X90255156Y-57919934D01*
X90255156Y-57919934D02*
X90371799Y-57852591D01*
X90371799Y-57852591D02*
X90476116Y-57831243D01*
X90476116Y-57831243D02*
X90672427Y-57834546D01*
X90672427Y-57834546D02*
X90810416Y-57871520D01*
X90810416Y-57871520D02*
X90982077Y-57966815D01*
X90982077Y-57966815D02*
X91061746Y-58037461D01*
X91061746Y-58037461D02*
X91129089Y-58154104D01*
X91129089Y-58154104D02*
X91138111Y-58304418D01*
X91138111Y-58304418D02*
X91076488Y-58534400D01*
X91470879Y-57062513D02*
X91322982Y-57614471D01*
X91396931Y-57338492D02*
X90431005Y-57079673D01*
X90431005Y-57079673D02*
X90544345Y-57208640D01*
X90544345Y-57208640D02*
X90611688Y-57325282D01*
X90611688Y-57325282D02*
X90633035Y-57429600D01*
X91066818Y-56362659D02*
X90996172Y-56442327D01*
X90996172Y-56442327D02*
X90937851Y-56475999D01*
X90937851Y-56475999D02*
X90833533Y-56497346D01*
X90833533Y-56497346D02*
X90787537Y-56485021D01*
X90787537Y-56485021D02*
X90707868Y-56414375D01*
X90707868Y-56414375D02*
X90674197Y-56356054D01*
X90674197Y-56356054D02*
X90652850Y-56251736D01*
X90652850Y-56251736D02*
X90702148Y-56067751D01*
X90702148Y-56067751D02*
X90772794Y-55988082D01*
X90772794Y-55988082D02*
X90831116Y-55954411D01*
X90831116Y-55954411D02*
X90935433Y-55933064D01*
X90935433Y-55933064D02*
X90981430Y-55945388D01*
X90981430Y-55945388D02*
X91061098Y-56016034D01*
X91061098Y-56016034D02*
X91094770Y-56074355D01*
X91094770Y-56074355D02*
X91116117Y-56178673D01*
X91116117Y-56178673D02*
X91066818Y-56362659D01*
X91066818Y-56362659D02*
X91088165Y-56466977D01*
X91088165Y-56466977D02*
X91121837Y-56525298D01*
X91121837Y-56525298D02*
X91201505Y-56595944D01*
X91201505Y-56595944D02*
X91385491Y-56645242D01*
X91385491Y-56645242D02*
X91489808Y-56623895D01*
X91489808Y-56623895D02*
X91548130Y-56590224D01*
X91548130Y-56590224D02*
X91618775Y-56510555D01*
X91618775Y-56510555D02*
X91668074Y-56326570D01*
X91668074Y-56326570D02*
X91646727Y-56222252D01*
X91646727Y-56222252D02*
X91613056Y-56163931D01*
X91613056Y-56163931D02*
X91533387Y-56093285D01*
X91533387Y-56093285D02*
X91349401Y-56043986D01*
X91349401Y-56043986D02*
X91245084Y-56065333D01*
X91245084Y-56065333D02*
X91186763Y-56099005D01*
X91186763Y-56099005D02*
X91116117Y-56178673D01*
X137018198Y-56648545D02*
X137984124Y-56389726D01*
X137984124Y-56389726D02*
X138045747Y-56619709D01*
X138045747Y-56619709D02*
X138036725Y-56770023D01*
X138036725Y-56770023D02*
X137969381Y-56886665D01*
X137969381Y-56886665D02*
X137889713Y-56957311D01*
X137889713Y-56957311D02*
X137718052Y-57052606D01*
X137718052Y-57052606D02*
X137580063Y-57089580D01*
X137580063Y-57089580D02*
X137383752Y-57092883D01*
X137383752Y-57092883D02*
X137279434Y-57071536D01*
X137279434Y-57071536D02*
X137162792Y-57004192D01*
X137162792Y-57004192D02*
X137079821Y-56878528D01*
X137079821Y-56878528D02*
X137018198Y-56648545D01*
X137865949Y-57604564D02*
X137887296Y-57500246D01*
X137887296Y-57500246D02*
X137920967Y-57441925D01*
X137920967Y-57441925D02*
X138000636Y-57371279D01*
X138000636Y-57371279D02*
X138046632Y-57358955D01*
X138046632Y-57358955D02*
X138150950Y-57380302D01*
X138150950Y-57380302D02*
X138209271Y-57413973D01*
X138209271Y-57413973D02*
X138279917Y-57493642D01*
X138279917Y-57493642D02*
X138329216Y-57677627D01*
X138329216Y-57677627D02*
X138307869Y-57781945D01*
X138307869Y-57781945D02*
X138274197Y-57840266D01*
X138274197Y-57840266D02*
X138194529Y-57910912D01*
X138194529Y-57910912D02*
X138148532Y-57923237D01*
X138148532Y-57923237D02*
X138044215Y-57901890D01*
X138044215Y-57901890D02*
X137985893Y-57868218D01*
X137985893Y-57868218D02*
X137915248Y-57788550D01*
X137915248Y-57788550D02*
X137865949Y-57604564D01*
X137865949Y-57604564D02*
X137795303Y-57524896D01*
X137795303Y-57524896D02*
X137736982Y-57491224D01*
X137736982Y-57491224D02*
X137632664Y-57469877D01*
X137632664Y-57469877D02*
X137448678Y-57519176D01*
X137448678Y-57519176D02*
X137369010Y-57589822D01*
X137369010Y-57589822D02*
X137335338Y-57648143D01*
X137335338Y-57648143D02*
X137313991Y-57752461D01*
X137313991Y-57752461D02*
X137363290Y-57936446D01*
X137363290Y-57936446D02*
X137433936Y-58016115D01*
X137433936Y-58016115D02*
X137492257Y-58049786D01*
X137492257Y-58049786D02*
X137596575Y-58071133D01*
X137596575Y-58071133D02*
X137780561Y-58021835D01*
X137780561Y-58021835D02*
X137860229Y-57951189D01*
X137860229Y-57951189D02*
X137893900Y-57892867D01*
X137893900Y-57892867D02*
X137915248Y-57788550D01*
X28918095Y-85962619D02*
X28918095Y-86772142D01*
X28918095Y-86772142D02*
X28965714Y-86867380D01*
X28965714Y-86867380D02*
X29013333Y-86915000D01*
X29013333Y-86915000D02*
X29108571Y-86962619D01*
X29108571Y-86962619D02*
X29299047Y-86962619D01*
X29299047Y-86962619D02*
X29394285Y-86915000D01*
X29394285Y-86915000D02*
X29441904Y-86867380D01*
X29441904Y-86867380D02*
X29489523Y-86772142D01*
X29489523Y-86772142D02*
X29489523Y-85962619D01*
X29918095Y-86057857D02*
X29965714Y-86010238D01*
X29965714Y-86010238D02*
X30060952Y-85962619D01*
X30060952Y-85962619D02*
X30299047Y-85962619D01*
X30299047Y-85962619D02*
X30394285Y-86010238D01*
X30394285Y-86010238D02*
X30441904Y-86057857D01*
X30441904Y-86057857D02*
X30489523Y-86153095D01*
X30489523Y-86153095D02*
X30489523Y-86248333D01*
X30489523Y-86248333D02*
X30441904Y-86391190D01*
X30441904Y-86391190D02*
X29870476Y-86962619D01*
X29870476Y-86962619D02*
X30489523Y-86962619D01*
X119965033Y-87493975D02*
X119706214Y-86528049D01*
X119706214Y-86528049D02*
X119936197Y-86466426D01*
X119936197Y-86466426D02*
X120086511Y-86475448D01*
X120086511Y-86475448D02*
X120203153Y-86542792D01*
X120203153Y-86542792D02*
X120273799Y-86622460D01*
X120273799Y-86622460D02*
X120369094Y-86794121D01*
X120369094Y-86794121D02*
X120406068Y-86932110D01*
X120406068Y-86932110D02*
X120409371Y-87128421D01*
X120409371Y-87128421D02*
X120388024Y-87232739D01*
X120388024Y-87232739D02*
X120320680Y-87349381D01*
X120320680Y-87349381D02*
X120195016Y-87432352D01*
X120195016Y-87432352D02*
X119965033Y-87493975D01*
X120650793Y-86373548D02*
X120684465Y-86315227D01*
X120684465Y-86315227D02*
X120764133Y-86244581D01*
X120764133Y-86244581D02*
X120994115Y-86182957D01*
X120994115Y-86182957D02*
X121098433Y-86204304D01*
X121098433Y-86204304D02*
X121156754Y-86237976D01*
X121156754Y-86237976D02*
X121227400Y-86317644D01*
X121227400Y-86317644D02*
X121252050Y-86409637D01*
X121252050Y-86409637D02*
X121243027Y-86559951D01*
X121243027Y-86559951D02*
X120838966Y-87259806D01*
X120838966Y-87259806D02*
X121436920Y-87099584D01*
X89845542Y-68402731D02*
X89803161Y-68455067D01*
X89803161Y-68455067D02*
X89666064Y-68517357D01*
X89666064Y-68517357D02*
X89571348Y-68527312D01*
X89571348Y-68527312D02*
X89424296Y-68494887D01*
X89424296Y-68494887D02*
X89319624Y-68410126D01*
X89319624Y-68410126D02*
X89262311Y-68320387D01*
X89262311Y-68320387D02*
X89195042Y-68135932D01*
X89195042Y-68135932D02*
X89180110Y-67993857D01*
X89180110Y-67993857D02*
X89207558Y-67799447D01*
X89207558Y-67799447D02*
X89244961Y-67699753D01*
X89244961Y-67699753D02*
X89329722Y-67595081D01*
X89329722Y-67595081D02*
X89466819Y-67532791D01*
X89466819Y-67532791D02*
X89561536Y-67522835D01*
X89561536Y-67522835D02*
X89708588Y-67555261D01*
X89708588Y-67555261D02*
X89760923Y-67597642D01*
X90802661Y-68397896D02*
X90234362Y-68457627D01*
X90518511Y-68427762D02*
X90413983Y-67433240D01*
X90413983Y-67433240D02*
X90334199Y-67585269D01*
X90334199Y-67585269D02*
X90249438Y-67689941D01*
X90249438Y-67689941D02*
X90159699Y-67747254D01*
X91276242Y-68348121D02*
X91465675Y-68328211D01*
X91465675Y-68328211D02*
X91555414Y-68270897D01*
X91555414Y-68270897D02*
X91597795Y-68218562D01*
X91597795Y-68218562D02*
X91677578Y-68066532D01*
X91677578Y-68066532D02*
X91705026Y-67872122D01*
X91705026Y-67872122D02*
X91665206Y-67493256D01*
X91665206Y-67493256D02*
X91607893Y-67403517D01*
X91607893Y-67403517D02*
X91555557Y-67361137D01*
X91555557Y-67361137D02*
X91455863Y-67323734D01*
X91455863Y-67323734D02*
X91266430Y-67343644D01*
X91266430Y-67343644D02*
X91176692Y-67400957D01*
X91176692Y-67400957D02*
X91134311Y-67453293D01*
X91134311Y-67453293D02*
X91096908Y-67552987D01*
X91096908Y-67552987D02*
X91121795Y-67789778D01*
X91121795Y-67789778D02*
X91179109Y-67879516D01*
X91179109Y-67879516D02*
X91231445Y-67921897D01*
X91231445Y-67921897D02*
X91331138Y-67959300D01*
X91331138Y-67959300D02*
X91520571Y-67939390D01*
X91520571Y-67939390D02*
X91610310Y-67882077D01*
X91610310Y-67882077D02*
X91652691Y-67829741D01*
X91652691Y-67829741D02*
X91690094Y-67730047D01*
X109397268Y-39045542D02*
X109344932Y-39003161D01*
X109344932Y-39003161D02*
X109282642Y-38866064D01*
X109282642Y-38866064D02*
X109272687Y-38771348D01*
X109272687Y-38771348D02*
X109305112Y-38624296D01*
X109305112Y-38624296D02*
X109389873Y-38519624D01*
X109389873Y-38519624D02*
X109479612Y-38462311D01*
X109479612Y-38462311D02*
X109664067Y-38395042D01*
X109664067Y-38395042D02*
X109806142Y-38380110D01*
X109806142Y-38380110D02*
X110000552Y-38407558D01*
X110000552Y-38407558D02*
X110100246Y-38444961D01*
X110100246Y-38444961D02*
X110204918Y-38529722D01*
X110204918Y-38529722D02*
X110267208Y-38666819D01*
X110267208Y-38666819D02*
X110277164Y-38761536D01*
X110277164Y-38761536D02*
X110244738Y-38908588D01*
X110244738Y-38908588D02*
X110202357Y-38960923D01*
X109402103Y-40002661D02*
X109342372Y-39434362D01*
X109372237Y-39718511D02*
X110366759Y-39613983D01*
X110366759Y-39613983D02*
X110214730Y-39534199D01*
X110214730Y-39534199D02*
X110110058Y-39449438D01*
X110110058Y-39449438D02*
X110052745Y-39359699D01*
X110431467Y-40229639D02*
X110496176Y-40845296D01*
X110496176Y-40845296D02*
X110082467Y-40553609D01*
X110082467Y-40553609D02*
X110097400Y-40695683D01*
X110097400Y-40695683D02*
X110059997Y-40795377D01*
X110059997Y-40795377D02*
X110017616Y-40847713D01*
X110017616Y-40847713D02*
X109927877Y-40905026D01*
X109927877Y-40905026D02*
X109691086Y-40929914D01*
X109691086Y-40929914D02*
X109591393Y-40892511D01*
X109591393Y-40892511D02*
X109539057Y-40850130D01*
X109539057Y-40850130D02*
X109481744Y-40760392D01*
X109481744Y-40760392D02*
X109451878Y-40476242D01*
X109451878Y-40476242D02*
X109489281Y-40376549D01*
X109489281Y-40376549D02*
X109531662Y-40324213D01*
X101389707Y-43567288D02*
X100889707Y-42701263D01*
X100889707Y-42701263D02*
X101095903Y-42582215D01*
X101095903Y-42582215D02*
X101243431Y-42552026D01*
X101243431Y-42552026D02*
X101373528Y-42586886D01*
X101373528Y-42586886D02*
X101462387Y-42645555D01*
X101462387Y-42645555D02*
X101598864Y-42786702D01*
X101598864Y-42786702D02*
X101670293Y-42910420D01*
X101670293Y-42910420D02*
X101724291Y-43099187D01*
X101724291Y-43099187D02*
X101730671Y-43205475D01*
X101730671Y-43205475D02*
X101695812Y-43335573D01*
X101695812Y-43335573D02*
X101595903Y-43448241D01*
X101595903Y-43448241D02*
X101389707Y-43567288D01*
X102709364Y-42805383D02*
X102214493Y-43091098D01*
X102461929Y-42948241D02*
X101961929Y-42082215D01*
X101961929Y-42082215D02*
X101950879Y-42253552D01*
X101950879Y-42253552D02*
X101916019Y-42383650D01*
X101916019Y-42383650D02*
X101857350Y-42472508D01*
X102992911Y-41486977D02*
X102580518Y-41725072D01*
X102580518Y-41725072D02*
X102777374Y-42161275D01*
X102777374Y-42161275D02*
X102794804Y-42096226D01*
X102794804Y-42096226D02*
X102853473Y-42007368D01*
X102853473Y-42007368D02*
X103059670Y-41888320D01*
X103059670Y-41888320D02*
X103165958Y-41881940D01*
X103165958Y-41881940D02*
X103231007Y-41899370D01*
X103231007Y-41899370D02*
X103319865Y-41958039D01*
X103319865Y-41958039D02*
X103438913Y-42164236D01*
X103438913Y-42164236D02*
X103445292Y-42270524D01*
X103445292Y-42270524D02*
X103427862Y-42335573D01*
X103427862Y-42335573D02*
X103369193Y-42424431D01*
X103369193Y-42424431D02*
X103162997Y-42543479D01*
X103162997Y-42543479D02*
X103056709Y-42549858D01*
X103056709Y-42549858D02*
X102991660Y-42532429D01*
X122429630Y-41343865D02*
X122453764Y-41406736D01*
X122453764Y-41406736D02*
X122439161Y-41556611D01*
X122439161Y-41556611D02*
X122400424Y-41643615D01*
X122400424Y-41643615D02*
X122298817Y-41754753D01*
X122298817Y-41754753D02*
X122173075Y-41803020D01*
X122173075Y-41803020D02*
X122066703Y-41807786D01*
X122066703Y-41807786D02*
X121873326Y-41773814D01*
X121873326Y-41773814D02*
X121742819Y-41715709D01*
X121742819Y-41715709D02*
X121588179Y-41594733D01*
X121588179Y-41594733D02*
X121520543Y-41512494D01*
X121520543Y-41512494D02*
X121472275Y-41386753D01*
X121472275Y-41386753D02*
X121486879Y-41236878D01*
X121486879Y-41236878D02*
X121525615Y-41149874D01*
X121525615Y-41149874D02*
X121627223Y-41038736D01*
X121627223Y-41038736D02*
X121690093Y-41014602D01*
X122904003Y-40512559D02*
X122671582Y-41034585D01*
X122787792Y-40773572D02*
X121874247Y-40366835D01*
X121874247Y-40366835D02*
X121966016Y-40511945D01*
X121966016Y-40511945D02*
X122014284Y-40637686D01*
X122014284Y-40637686D02*
X122019049Y-40744058D01*
X123291371Y-39642515D02*
X123058950Y-40164541D01*
X123175160Y-39903528D02*
X122261615Y-39496792D01*
X122261615Y-39496792D02*
X122353385Y-39641901D01*
X122353385Y-39641901D02*
X122401652Y-39767642D01*
X122401652Y-39767642D02*
X122406418Y-39874015D01*
X136159832Y-53411112D02*
X136132441Y-53472633D01*
X136132441Y-53472633D02*
X136016137Y-53568285D01*
X136016137Y-53568285D02*
X135927225Y-53602415D01*
X135927225Y-53602415D02*
X135776791Y-53609154D01*
X135776791Y-53609154D02*
X135653748Y-53554372D01*
X135653748Y-53554372D02*
X135575162Y-53482525D01*
X135575162Y-53482525D02*
X135462445Y-53321765D01*
X135462445Y-53321765D02*
X135411250Y-53188397D01*
X135411250Y-53188397D02*
X135387445Y-52993507D01*
X135387445Y-52993507D02*
X135397771Y-52887529D01*
X135397771Y-52887529D02*
X135452553Y-52764486D01*
X135452553Y-52764486D02*
X135568857Y-52668835D01*
X135568857Y-52668835D02*
X135657769Y-52634705D01*
X135657769Y-52634705D02*
X135808203Y-52627965D01*
X135808203Y-52627965D02*
X135869724Y-52655356D01*
X136522655Y-52761768D02*
X136416677Y-52751442D01*
X136416677Y-52751442D02*
X136355156Y-52724051D01*
X136355156Y-52724051D02*
X136276569Y-52652204D01*
X136276569Y-52652204D02*
X136259504Y-52607748D01*
X136259504Y-52607748D02*
X136269830Y-52501770D01*
X136269830Y-52501770D02*
X136297221Y-52440249D01*
X136297221Y-52440249D02*
X136369069Y-52361662D01*
X136369069Y-52361662D02*
X136546893Y-52293402D01*
X136546893Y-52293402D02*
X136652871Y-52303728D01*
X136652871Y-52303728D02*
X136714392Y-52331119D01*
X136714392Y-52331119D02*
X136792979Y-52402966D01*
X136792979Y-52402966D02*
X136810044Y-52447422D01*
X136810044Y-52447422D02*
X136799718Y-52553400D01*
X136799718Y-52553400D02*
X136772327Y-52614921D01*
X136772327Y-52614921D02*
X136700480Y-52693508D01*
X136700480Y-52693508D02*
X136522655Y-52761768D01*
X136522655Y-52761768D02*
X136450808Y-52840355D01*
X136450808Y-52840355D02*
X136423417Y-52901876D01*
X136423417Y-52901876D02*
X136413091Y-53007854D01*
X136413091Y-53007854D02*
X136481351Y-53185678D01*
X136481351Y-53185678D02*
X136559938Y-53257526D01*
X136559938Y-53257526D02*
X136621459Y-53284917D01*
X136621459Y-53284917D02*
X136727437Y-53295243D01*
X136727437Y-53295243D02*
X136905261Y-53226982D01*
X136905261Y-53226982D02*
X136977109Y-53148396D01*
X136977109Y-53148396D02*
X137004500Y-53086874D01*
X137004500Y-53086874D02*
X137014826Y-52980897D01*
X137014826Y-52980897D02*
X136946565Y-52803072D01*
X136946565Y-52803072D02*
X136867979Y-52731225D01*
X136867979Y-52731225D02*
X136806457Y-52703834D01*
X136806457Y-52703834D02*
X136700480Y-52693508D01*
X113220666Y-80472619D02*
X112887333Y-79996428D01*
X112649238Y-80472619D02*
X112649238Y-79472619D01*
X112649238Y-79472619D02*
X113030190Y-79472619D01*
X113030190Y-79472619D02*
X113125428Y-79520238D01*
X113125428Y-79520238D02*
X113173047Y-79567857D01*
X113173047Y-79567857D02*
X113220666Y-79663095D01*
X113220666Y-79663095D02*
X113220666Y-79805952D01*
X113220666Y-79805952D02*
X113173047Y-79901190D01*
X113173047Y-79901190D02*
X113125428Y-79948809D01*
X113125428Y-79948809D02*
X113030190Y-79996428D01*
X113030190Y-79996428D02*
X112649238Y-79996428D01*
X113649238Y-79948809D02*
X113982571Y-79948809D01*
X114125428Y-80472619D02*
X113649238Y-80472619D01*
X113649238Y-80472619D02*
X113649238Y-79472619D01*
X113649238Y-79472619D02*
X114125428Y-79472619D01*
X114887333Y-79948809D02*
X114554000Y-79948809D01*
X114554000Y-80472619D02*
X114554000Y-79472619D01*
X114554000Y-79472619D02*
X115030190Y-79472619D01*
X115554000Y-79472619D02*
X115554000Y-79710714D01*
X115315905Y-79615476D02*
X115554000Y-79710714D01*
X115554000Y-79710714D02*
X115792095Y-79615476D01*
X115411143Y-79901190D02*
X115554000Y-79710714D01*
X115554000Y-79710714D02*
X115696857Y-79901190D01*
X116315905Y-79472619D02*
X116315905Y-79710714D01*
X116077810Y-79615476D02*
X116315905Y-79710714D01*
X116315905Y-79710714D02*
X116554000Y-79615476D01*
X116173048Y-79901190D02*
X116315905Y-79710714D01*
X116315905Y-79710714D02*
X116458762Y-79901190D01*
X93153002Y-52692911D02*
X92286977Y-52192911D01*
X92286977Y-52192911D02*
X92406025Y-51986715D01*
X92406025Y-51986715D02*
X92518693Y-51886806D01*
X92518693Y-51886806D02*
X92648790Y-51851947D01*
X92648790Y-51851947D02*
X92755078Y-51858327D01*
X92755078Y-51858327D02*
X92943845Y-51912325D01*
X92943845Y-51912325D02*
X93067563Y-51983754D01*
X93067563Y-51983754D02*
X93208711Y-52120231D01*
X93208711Y-52120231D02*
X93267380Y-52209090D01*
X93267380Y-52209090D02*
X93302239Y-52339187D01*
X93302239Y-52339187D02*
X93272050Y-52486715D01*
X93272050Y-52486715D02*
X93153002Y-52692911D01*
X93914907Y-51373254D02*
X93629193Y-51868125D01*
X93772050Y-51620689D02*
X92906025Y-51120689D01*
X92906025Y-51120689D02*
X92982124Y-51274597D01*
X92982124Y-51274597D02*
X93016983Y-51404694D01*
X93016983Y-51404694D02*
X93010603Y-51510982D01*
X93215549Y-50584578D02*
X93548882Y-50007228D01*
X93548882Y-50007228D02*
X94200622Y-50878382D01*
X116418190Y-39994714D02*
X116457774Y-40049196D01*
X116457774Y-40049196D02*
X116482459Y-40197744D01*
X116482459Y-40197744D02*
X116467560Y-40291809D01*
X116467560Y-40291809D02*
X116398180Y-40425458D01*
X116398180Y-40425458D02*
X116289216Y-40504625D01*
X116289216Y-40504625D02*
X116187701Y-40536760D01*
X116187701Y-40536760D02*
X115992121Y-40553995D01*
X115992121Y-40553995D02*
X115851022Y-40531648D01*
X115851022Y-40531648D02*
X115670340Y-40454818D01*
X115670340Y-40454818D02*
X115583724Y-40392886D01*
X115583724Y-40392886D02*
X115504557Y-40283922D01*
X115504557Y-40283922D02*
X115479872Y-40135375D01*
X115479872Y-40135375D02*
X115494771Y-40041309D01*
X115494771Y-40041309D02*
X115564151Y-39907660D01*
X115564151Y-39907660D02*
X115618633Y-39868077D01*
X116661241Y-39068957D02*
X116571850Y-39633350D01*
X116616546Y-39351154D02*
X115628857Y-39194719D01*
X115628857Y-39194719D02*
X115755057Y-39311133D01*
X115755057Y-39311133D02*
X115834224Y-39420097D01*
X115834224Y-39420097D02*
X115866358Y-39521611D01*
X115827212Y-38551159D02*
X115787629Y-38496677D01*
X115787629Y-38496677D02*
X115755495Y-38395162D01*
X115755495Y-38395162D02*
X115792741Y-38159998D01*
X115792741Y-38159998D02*
X115854672Y-38073382D01*
X115854672Y-38073382D02*
X115909154Y-38033798D01*
X115909154Y-38033798D02*
X116010669Y-38001664D01*
X116010669Y-38001664D02*
X116104735Y-38016563D01*
X116104735Y-38016563D02*
X116238384Y-38085943D01*
X116238384Y-38085943D02*
X116713386Y-38739728D01*
X116713386Y-38739728D02*
X116810226Y-38128301D01*
X136891156Y-71823314D02*
X136828285Y-71847448D01*
X136828285Y-71847448D02*
X136678411Y-71832845D01*
X136678411Y-71832845D02*
X136591406Y-71794108D01*
X136591406Y-71794108D02*
X136480268Y-71692501D01*
X136480268Y-71692501D02*
X136432001Y-71566760D01*
X136432001Y-71566760D02*
X136427235Y-71460387D01*
X136427235Y-71460387D02*
X136461207Y-71267010D01*
X136461207Y-71267010D02*
X136519312Y-71136503D01*
X136519312Y-71136503D02*
X136640288Y-70981863D01*
X136640288Y-70981863D02*
X136722527Y-70914227D01*
X136722527Y-70914227D02*
X136848268Y-70865960D01*
X136848268Y-70865960D02*
X136998143Y-70880563D01*
X136998143Y-70880563D02*
X137085147Y-70919300D01*
X137085147Y-70919300D02*
X137196285Y-71020907D01*
X137196285Y-71020907D02*
X137220419Y-71083778D01*
X138085697Y-71364773D02*
X137650675Y-71171089D01*
X137650675Y-71171089D02*
X137413489Y-71586742D01*
X137413489Y-71586742D02*
X137476360Y-71562609D01*
X137476360Y-71562609D02*
X137582732Y-71557843D01*
X137582732Y-71557843D02*
X137800243Y-71654685D01*
X137800243Y-71654685D02*
X137867879Y-71736924D01*
X137867879Y-71736924D02*
X137892013Y-71799795D01*
X137892013Y-71799795D02*
X137896778Y-71906168D01*
X137896778Y-71906168D02*
X137799936Y-72123678D01*
X137799936Y-72123678D02*
X137717697Y-72191314D01*
X137717697Y-72191314D02*
X137654827Y-72215448D01*
X137654827Y-72215448D02*
X137548454Y-72220213D01*
X137548454Y-72220213D02*
X137330943Y-72123371D01*
X137330943Y-72123371D02*
X137263307Y-72041132D01*
X137263307Y-72041132D02*
X137239173Y-71978262D01*
X29146667Y-42325000D02*
X29289524Y-42372619D01*
X29289524Y-42372619D02*
X29527619Y-42372619D01*
X29527619Y-42372619D02*
X29622857Y-42325000D01*
X29622857Y-42325000D02*
X29670476Y-42277380D01*
X29670476Y-42277380D02*
X29718095Y-42182142D01*
X29718095Y-42182142D02*
X29718095Y-42086904D01*
X29718095Y-42086904D02*
X29670476Y-41991666D01*
X29670476Y-41991666D02*
X29622857Y-41944047D01*
X29622857Y-41944047D02*
X29527619Y-41896428D01*
X29527619Y-41896428D02*
X29337143Y-41848809D01*
X29337143Y-41848809D02*
X29241905Y-41801190D01*
X29241905Y-41801190D02*
X29194286Y-41753571D01*
X29194286Y-41753571D02*
X29146667Y-41658333D01*
X29146667Y-41658333D02*
X29146667Y-41563095D01*
X29146667Y-41563095D02*
X29194286Y-41467857D01*
X29194286Y-41467857D02*
X29241905Y-41420238D01*
X29241905Y-41420238D02*
X29337143Y-41372619D01*
X29337143Y-41372619D02*
X29575238Y-41372619D01*
X29575238Y-41372619D02*
X29718095Y-41420238D01*
X30051429Y-41372619D02*
X30289524Y-42372619D01*
X30289524Y-42372619D02*
X30480000Y-41658333D01*
X30480000Y-41658333D02*
X30670476Y-42372619D01*
X30670476Y-42372619D02*
X30908572Y-41372619D01*
X31813333Y-42372619D02*
X31241905Y-42372619D01*
X31527619Y-42372619D02*
X31527619Y-41372619D01*
X31527619Y-41372619D02*
X31432381Y-41515476D01*
X31432381Y-41515476D02*
X31337143Y-41610714D01*
X31337143Y-41610714D02*
X31241905Y-41658333D01*
X96670649Y-47587908D02*
X95963542Y-46880801D01*
X95963542Y-46880801D02*
X96131901Y-46712443D01*
X96131901Y-46712443D02*
X96266588Y-46645099D01*
X96266588Y-46645099D02*
X96401275Y-46645099D01*
X96401275Y-46645099D02*
X96502290Y-46678771D01*
X96502290Y-46678771D02*
X96670649Y-46779786D01*
X96670649Y-46779786D02*
X96771664Y-46880801D01*
X96771664Y-46880801D02*
X96872679Y-47049160D01*
X96872679Y-47049160D02*
X96906351Y-47150175D01*
X96906351Y-47150175D02*
X96906351Y-47284862D01*
X96906351Y-47284862D02*
X96839008Y-47419550D01*
X96839008Y-47419550D02*
X96670649Y-47587908D01*
X97748145Y-46510412D02*
X97344084Y-46914473D01*
X97546114Y-46712443D02*
X96839008Y-46005336D01*
X96839008Y-46005336D02*
X96872679Y-46173695D01*
X96872679Y-46173695D02*
X96872679Y-46308382D01*
X96872679Y-46308382D02*
X96839008Y-46409397D01*
X97647130Y-45197214D02*
X97512443Y-45331901D01*
X97512443Y-45331901D02*
X97478771Y-45432916D01*
X97478771Y-45432916D02*
X97478771Y-45500260D01*
X97478771Y-45500260D02*
X97512443Y-45668618D01*
X97512443Y-45668618D02*
X97613458Y-45836977D01*
X97613458Y-45836977D02*
X97882832Y-46106351D01*
X97882832Y-46106351D02*
X97983847Y-46140023D01*
X97983847Y-46140023D02*
X98051191Y-46140023D01*
X98051191Y-46140023D02*
X98152206Y-46106351D01*
X98152206Y-46106351D02*
X98286893Y-45971664D01*
X98286893Y-45971664D02*
X98320565Y-45870649D01*
X98320565Y-45870649D02*
X98320565Y-45803305D01*
X98320565Y-45803305D02*
X98286893Y-45702290D01*
X98286893Y-45702290D02*
X98118534Y-45533931D01*
X98118534Y-45533931D02*
X98017519Y-45500260D01*
X98017519Y-45500260D02*
X97950175Y-45500260D01*
X97950175Y-45500260D02*
X97849160Y-45533931D01*
X97849160Y-45533931D02*
X97714473Y-45668618D01*
X97714473Y-45668618D02*
X97680801Y-45769634D01*
X97680801Y-45769634D02*
X97680801Y-45836977D01*
X97680801Y-45836977D02*
X97714473Y-45937992D01*
X38397619Y-86666666D02*
X37921428Y-86999999D01*
X38397619Y-87238094D02*
X37397619Y-87238094D01*
X37397619Y-87238094D02*
X37397619Y-86857142D01*
X37397619Y-86857142D02*
X37445238Y-86761904D01*
X37445238Y-86761904D02*
X37492857Y-86714285D01*
X37492857Y-86714285D02*
X37588095Y-86666666D01*
X37588095Y-86666666D02*
X37730952Y-86666666D01*
X37730952Y-86666666D02*
X37826190Y-86714285D01*
X37826190Y-86714285D02*
X37873809Y-86761904D01*
X37873809Y-86761904D02*
X37921428Y-86857142D01*
X37921428Y-86857142D02*
X37921428Y-87238094D01*
X37397619Y-86333332D02*
X37397619Y-85666666D01*
X37397619Y-85666666D02*
X38397619Y-86095237D01*
X113966666Y-54462619D02*
X113966666Y-55176904D01*
X113966666Y-55176904D02*
X113919047Y-55319761D01*
X113919047Y-55319761D02*
X113823809Y-55415000D01*
X113823809Y-55415000D02*
X113680952Y-55462619D01*
X113680952Y-55462619D02*
X113585714Y-55462619D01*
X114966666Y-55462619D02*
X114395238Y-55462619D01*
X114680952Y-55462619D02*
X114680952Y-54462619D01*
X114680952Y-54462619D02*
X114585714Y-54605476D01*
X114585714Y-54605476D02*
X114490476Y-54700714D01*
X114490476Y-54700714D02*
X114395238Y-54748333D01*
X91947727Y-74564954D02*
X91920336Y-74626475D01*
X91920336Y-74626475D02*
X91804033Y-74722127D01*
X91804033Y-74722127D02*
X91715120Y-74756257D01*
X91715120Y-74756257D02*
X91564686Y-74762996D01*
X91564686Y-74762996D02*
X91441644Y-74708214D01*
X91441644Y-74708214D02*
X91363057Y-74636367D01*
X91363057Y-74636367D02*
X91250340Y-74475607D01*
X91250340Y-74475607D02*
X91199145Y-74342238D01*
X91199145Y-74342238D02*
X91175341Y-74147348D01*
X91175341Y-74147348D02*
X91185667Y-74041371D01*
X91185667Y-74041371D02*
X91240449Y-73918328D01*
X91240449Y-73918328D02*
X91356752Y-73822676D01*
X91356752Y-73822676D02*
X91445665Y-73788546D01*
X91445665Y-73788546D02*
X91596098Y-73781807D01*
X91596098Y-73781807D02*
X91657620Y-73809198D01*
X92013269Y-73672677D02*
X92040661Y-73611156D01*
X92040661Y-73611156D02*
X92112508Y-73532569D01*
X92112508Y-73532569D02*
X92334789Y-73447243D01*
X92334789Y-73447243D02*
X92440766Y-73457569D01*
X92440766Y-73457569D02*
X92502288Y-73484960D01*
X92502288Y-73484960D02*
X92580874Y-73556808D01*
X92580874Y-73556808D02*
X92615005Y-73645720D01*
X92615005Y-73645720D02*
X92621744Y-73796154D01*
X92621744Y-73796154D02*
X92293051Y-74534410D01*
X92293051Y-74534410D02*
X92870982Y-74312563D01*
X93090545Y-73157136D02*
X93179457Y-73123006D01*
X93179457Y-73123006D02*
X93285434Y-73133332D01*
X93285434Y-73133332D02*
X93346956Y-73160723D01*
X93346956Y-73160723D02*
X93425542Y-73232570D01*
X93425542Y-73232570D02*
X93538259Y-73393330D01*
X93538259Y-73393330D02*
X93623585Y-73615611D01*
X93623585Y-73615611D02*
X93647389Y-73810501D01*
X93647389Y-73810501D02*
X93637063Y-73916478D01*
X93637063Y-73916478D02*
X93609672Y-73978000D01*
X93609672Y-73978000D02*
X93537825Y-74056586D01*
X93537825Y-74056586D02*
X93448912Y-74090716D01*
X93448912Y-74090716D02*
X93342935Y-74080390D01*
X93342935Y-74080390D02*
X93281414Y-74052999D01*
X93281414Y-74052999D02*
X93202827Y-73981152D01*
X93202827Y-73981152D02*
X93090110Y-73820392D01*
X93090110Y-73820392D02*
X93004785Y-73598111D01*
X93004785Y-73598111D02*
X92980980Y-73403221D01*
X92980980Y-73403221D02*
X92991306Y-73297244D01*
X92991306Y-73297244D02*
X93018697Y-73235722D01*
X93018697Y-73235722D02*
X93090545Y-73157136D01*
X113561905Y-88142619D02*
X113561905Y-87142619D01*
X113561905Y-87142619D02*
X113800000Y-87142619D01*
X113800000Y-87142619D02*
X113942857Y-87190238D01*
X113942857Y-87190238D02*
X114038095Y-87285476D01*
X114038095Y-87285476D02*
X114085714Y-87380714D01*
X114085714Y-87380714D02*
X114133333Y-87571190D01*
X114133333Y-87571190D02*
X114133333Y-87714047D01*
X114133333Y-87714047D02*
X114085714Y-87904523D01*
X114085714Y-87904523D02*
X114038095Y-87999761D01*
X114038095Y-87999761D02*
X113942857Y-88095000D01*
X113942857Y-88095000D02*
X113800000Y-88142619D01*
X113800000Y-88142619D02*
X113561905Y-88142619D01*
X115085714Y-88142619D02*
X114514286Y-88142619D01*
X114800000Y-88142619D02*
X114800000Y-87142619D01*
X114800000Y-87142619D02*
X114704762Y-87285476D01*
X114704762Y-87285476D02*
X114609524Y-87380714D01*
X114609524Y-87380714D02*
X114514286Y-87428333D01*
X112706394Y-88390112D02*
X112745978Y-88444594D01*
X112745978Y-88444594D02*
X112770663Y-88593142D01*
X112770663Y-88593142D02*
X112755764Y-88687207D01*
X112755764Y-88687207D02*
X112686384Y-88820856D01*
X112686384Y-88820856D02*
X112577420Y-88900023D01*
X112577420Y-88900023D02*
X112475905Y-88932158D01*
X112475905Y-88932158D02*
X112280325Y-88949393D01*
X112280325Y-88949393D02*
X112139226Y-88927046D01*
X112139226Y-88927046D02*
X111958544Y-88850216D01*
X111958544Y-88850216D02*
X111871928Y-88788284D01*
X111871928Y-88788284D02*
X111792761Y-88679320D01*
X111792761Y-88679320D02*
X111768076Y-88530773D01*
X111768076Y-88530773D02*
X111782975Y-88436707D01*
X111782975Y-88436707D02*
X111852355Y-88303058D01*
X111852355Y-88303058D02*
X111906837Y-88263475D01*
X111966431Y-87887212D02*
X111926848Y-87832730D01*
X111926848Y-87832730D02*
X111894713Y-87731216D01*
X111894713Y-87731216D02*
X111931960Y-87496052D01*
X111931960Y-87496052D02*
X111993891Y-87409435D01*
X111993891Y-87409435D02*
X112048373Y-87369852D01*
X112048373Y-87369852D02*
X112149888Y-87337718D01*
X112149888Y-87337718D02*
X112243953Y-87352616D01*
X112243953Y-87352616D02*
X112377603Y-87421997D01*
X112377603Y-87421997D02*
X112852605Y-88075781D01*
X112852605Y-88075781D02*
X112949445Y-87464355D01*
X112425073Y-86513475D02*
X113083532Y-86617765D01*
X112011564Y-86689045D02*
X112679810Y-87035948D01*
X112679810Y-87035948D02*
X112776650Y-86424522D01*
X89409887Y-61906394D02*
X89355405Y-61945978D01*
X89355405Y-61945978D02*
X89206857Y-61970663D01*
X89206857Y-61970663D02*
X89112792Y-61955764D01*
X89112792Y-61955764D02*
X88979143Y-61886384D01*
X88979143Y-61886384D02*
X88899976Y-61777420D01*
X88899976Y-61777420D02*
X88867841Y-61675905D01*
X88867841Y-61675905D02*
X88850606Y-61480325D01*
X88850606Y-61480325D02*
X88872953Y-61339226D01*
X88872953Y-61339226D02*
X88949783Y-61158544D01*
X88949783Y-61158544D02*
X89011715Y-61071928D01*
X89011715Y-61071928D02*
X89120679Y-60992761D01*
X89120679Y-60992761D02*
X89269226Y-60968076D01*
X89269226Y-60968076D02*
X89363292Y-60982975D01*
X89363292Y-60982975D02*
X89496941Y-61052355D01*
X89496941Y-61052355D02*
X89536524Y-61106837D01*
X90335644Y-62149445D02*
X89771251Y-62060054D01*
X90053447Y-62104750D02*
X90209882Y-61117061D01*
X90209882Y-61117061D02*
X90093468Y-61243261D01*
X90093468Y-61243261D02*
X89984504Y-61322428D01*
X89984504Y-61322428D02*
X89882990Y-61354562D01*
X90989428Y-61674443D02*
X90902812Y-61612512D01*
X90902812Y-61612512D02*
X90863229Y-61558030D01*
X90863229Y-61558030D02*
X90831094Y-61456515D01*
X90831094Y-61456515D02*
X90838544Y-61409482D01*
X90838544Y-61409482D02*
X90900475Y-61322866D01*
X90900475Y-61322866D02*
X90954957Y-61283282D01*
X90954957Y-61283282D02*
X91056472Y-61251148D01*
X91056472Y-61251148D02*
X91244603Y-61280945D01*
X91244603Y-61280945D02*
X91331219Y-61342876D01*
X91331219Y-61342876D02*
X91370803Y-61397358D01*
X91370803Y-61397358D02*
X91402937Y-61498873D01*
X91402937Y-61498873D02*
X91395488Y-61545906D01*
X91395488Y-61545906D02*
X91333556Y-61632522D01*
X91333556Y-61632522D02*
X91279074Y-61672106D01*
X91279074Y-61672106D02*
X91177560Y-61704240D01*
X91177560Y-61704240D02*
X90989428Y-61674443D01*
X90989428Y-61674443D02*
X90887914Y-61706577D01*
X90887914Y-61706577D02*
X90833432Y-61746161D01*
X90833432Y-61746161D02*
X90771500Y-61832777D01*
X90771500Y-61832777D02*
X90741703Y-62020908D01*
X90741703Y-62020908D02*
X90773838Y-62122423D01*
X90773838Y-62122423D02*
X90813421Y-62176905D01*
X90813421Y-62176905D02*
X90900037Y-62238836D01*
X90900037Y-62238836D02*
X91088168Y-62268633D01*
X91088168Y-62268633D02*
X91189683Y-62236499D01*
X91189683Y-62236499D02*
X91244165Y-62196916D01*
X91244165Y-62196916D02*
X91306097Y-62110299D01*
X91306097Y-62110299D02*
X91335894Y-61922168D01*
X91335894Y-61922168D02*
X91303759Y-61820653D01*
X91303759Y-61820653D02*
X91264176Y-61766171D01*
X91264176Y-61766171D02*
X91177560Y-61704240D01*
X127887049Y-44202920D02*
X127894088Y-44269894D01*
X127894088Y-44269894D02*
X127841192Y-44410883D01*
X127841192Y-44410883D02*
X127781257Y-44484897D01*
X127781257Y-44484897D02*
X127654347Y-44565950D01*
X127654347Y-44565950D02*
X127520398Y-44580029D01*
X127520398Y-44580029D02*
X127416416Y-44557100D01*
X127416416Y-44557100D02*
X127238421Y-44474237D01*
X127238421Y-44474237D02*
X127127400Y-44384334D01*
X127127400Y-44384334D02*
X127009340Y-44227456D01*
X127009340Y-44227456D02*
X126965294Y-44130514D01*
X126965294Y-44130514D02*
X126951215Y-43996565D01*
X126951215Y-43996565D02*
X127004111Y-43855576D01*
X127004111Y-43855576D02*
X127064046Y-43781562D01*
X127064046Y-43781562D02*
X127190956Y-43700509D01*
X127190956Y-43700509D02*
X127257931Y-43693470D01*
X128560416Y-43522716D02*
X128200804Y-43966799D01*
X128380610Y-43744758D02*
X127603464Y-43115437D01*
X127603464Y-43115437D02*
X127654549Y-43279354D01*
X127654549Y-43279354D02*
X127668628Y-43413303D01*
X127668628Y-43413303D02*
X127645700Y-43517285D01*
X128172849Y-42412305D02*
X128232784Y-42338291D01*
X128232784Y-42338291D02*
X128329726Y-42294245D01*
X128329726Y-42294245D02*
X128396701Y-42287206D01*
X128396701Y-42287206D02*
X128500683Y-42310134D01*
X128500683Y-42310134D02*
X128678678Y-42392998D01*
X128678678Y-42392998D02*
X128863713Y-42542836D01*
X128863713Y-42542836D02*
X128981773Y-42699713D01*
X128981773Y-42699713D02*
X129025819Y-42796656D01*
X129025819Y-42796656D02*
X129032859Y-42863630D01*
X129032859Y-42863630D02*
X129009930Y-42967612D01*
X129009930Y-42967612D02*
X128949995Y-43041626D01*
X128949995Y-43041626D02*
X128853053Y-43085672D01*
X128853053Y-43085672D02*
X128786078Y-43092711D01*
X128786078Y-43092711D02*
X128682097Y-43069783D01*
X128682097Y-43069783D02*
X128504101Y-42986919D01*
X128504101Y-42986919D02*
X128319066Y-42837081D01*
X128319066Y-42837081D02*
X128201006Y-42680204D01*
X128201006Y-42680204D02*
X128156960Y-42583261D01*
X128156960Y-42583261D02*
X128149921Y-42516287D01*
X128149921Y-42516287D02*
X128172849Y-42412305D01*
X103806666Y-77162619D02*
X103806666Y-77876904D01*
X103806666Y-77876904D02*
X103759047Y-78019761D01*
X103759047Y-78019761D02*
X103663809Y-78115000D01*
X103663809Y-78115000D02*
X103520952Y-78162619D01*
X103520952Y-78162619D02*
X103425714Y-78162619D01*
X104187619Y-77162619D02*
X104806666Y-77162619D01*
X104806666Y-77162619D02*
X104473333Y-77543571D01*
X104473333Y-77543571D02*
X104616190Y-77543571D01*
X104616190Y-77543571D02*
X104711428Y-77591190D01*
X104711428Y-77591190D02*
X104759047Y-77638809D01*
X104759047Y-77638809D02*
X104806666Y-77734047D01*
X104806666Y-77734047D02*
X104806666Y-77972142D01*
X104806666Y-77972142D02*
X104759047Y-78067380D01*
X104759047Y-78067380D02*
X104711428Y-78115000D01*
X104711428Y-78115000D02*
X104616190Y-78162619D01*
X104616190Y-78162619D02*
X104330476Y-78162619D01*
X104330476Y-78162619D02*
X104235238Y-78115000D01*
X104235238Y-78115000D02*
X104187619Y-78067380D01*
X113085714Y-39782619D02*
X113085714Y-38782619D01*
X113085714Y-38782619D02*
X113323809Y-38782619D01*
X113323809Y-38782619D02*
X113466666Y-38830238D01*
X113466666Y-38830238D02*
X113561904Y-38925476D01*
X113561904Y-38925476D02*
X113609523Y-39020714D01*
X113609523Y-39020714D02*
X113657142Y-39211190D01*
X113657142Y-39211190D02*
X113657142Y-39354047D01*
X113657142Y-39354047D02*
X113609523Y-39544523D01*
X113609523Y-39544523D02*
X113561904Y-39639761D01*
X113561904Y-39639761D02*
X113466666Y-39735000D01*
X113466666Y-39735000D02*
X113323809Y-39782619D01*
X113323809Y-39782619D02*
X113085714Y-39782619D01*
X114609523Y-39782619D02*
X114038095Y-39782619D01*
X114323809Y-39782619D02*
X114323809Y-38782619D01*
X114323809Y-38782619D02*
X114228571Y-38925476D01*
X114228571Y-38925476D02*
X114133333Y-39020714D01*
X114133333Y-39020714D02*
X114038095Y-39068333D01*
X114942857Y-38782619D02*
X115561904Y-38782619D01*
X115561904Y-38782619D02*
X115228571Y-39163571D01*
X115228571Y-39163571D02*
X115371428Y-39163571D01*
X115371428Y-39163571D02*
X115466666Y-39211190D01*
X115466666Y-39211190D02*
X115514285Y-39258809D01*
X115514285Y-39258809D02*
X115561904Y-39354047D01*
X115561904Y-39354047D02*
X115561904Y-39592142D01*
X115561904Y-39592142D02*
X115514285Y-39687380D01*
X115514285Y-39687380D02*
X115466666Y-39735000D01*
X115466666Y-39735000D02*
X115371428Y-39782619D01*
X115371428Y-39782619D02*
X115085714Y-39782619D01*
X115085714Y-39782619D02*
X114990476Y-39735000D01*
X114990476Y-39735000D02*
X114942857Y-39687380D01*
X90670452Y-55518660D02*
X90607581Y-55542794D01*
X90607581Y-55542794D02*
X90457706Y-55528191D01*
X90457706Y-55528191D02*
X90370702Y-55489454D01*
X90370702Y-55489454D02*
X90259564Y-55387847D01*
X90259564Y-55387847D02*
X90211297Y-55262105D01*
X90211297Y-55262105D02*
X90206531Y-55155733D01*
X90206531Y-55155733D02*
X90240503Y-54962356D01*
X90240503Y-54962356D02*
X90298608Y-54831849D01*
X90298608Y-54831849D02*
X90419584Y-54677209D01*
X90419584Y-54677209D02*
X90501823Y-54609573D01*
X90501823Y-54609573D02*
X90627564Y-54561305D01*
X90627564Y-54561305D02*
X90777439Y-54575909D01*
X90777439Y-54575909D02*
X90864443Y-54614645D01*
X90864443Y-54614645D02*
X90975581Y-54716253D01*
X90975581Y-54716253D02*
X90999715Y-54779123D01*
X91501758Y-55993033D02*
X90979732Y-55760612D01*
X91240745Y-55876822D02*
X91647482Y-54963277D01*
X91647482Y-54963277D02*
X91502372Y-55055046D01*
X91502372Y-55055046D02*
X91376631Y-55103314D01*
X91376631Y-55103314D02*
X91270259Y-55108079D01*
X92213010Y-55215066D02*
X92822041Y-55486224D01*
X92822041Y-55486224D02*
X92023784Y-56225454D01*
X130212091Y-45870649D02*
X130919198Y-45163542D01*
X130919198Y-45163542D02*
X131087556Y-45331901D01*
X131087556Y-45331901D02*
X131154900Y-45466588D01*
X131154900Y-45466588D02*
X131154900Y-45601275D01*
X131154900Y-45601275D02*
X131121228Y-45702290D01*
X131121228Y-45702290D02*
X131020213Y-45870649D01*
X131020213Y-45870649D02*
X130919198Y-45971664D01*
X130919198Y-45971664D02*
X130750839Y-46072679D01*
X130750839Y-46072679D02*
X130649824Y-46106351D01*
X130649824Y-46106351D02*
X130515137Y-46106351D01*
X130515137Y-46106351D02*
X130380449Y-46039008D01*
X130380449Y-46039008D02*
X130212091Y-45870649D01*
X131289587Y-46948145D02*
X130885526Y-46544084D01*
X131087556Y-46746114D02*
X131794663Y-46039008D01*
X131794663Y-46039008D02*
X131626304Y-46072679D01*
X131626304Y-46072679D02*
X131491617Y-46072679D01*
X131491617Y-46072679D02*
X131390602Y-46039008D01*
X132434426Y-46678771D02*
X132501770Y-46746114D01*
X132501770Y-46746114D02*
X132535442Y-46847130D01*
X132535442Y-46847130D02*
X132535442Y-46914473D01*
X132535442Y-46914473D02*
X132501770Y-47015488D01*
X132501770Y-47015488D02*
X132400755Y-47183847D01*
X132400755Y-47183847D02*
X132232396Y-47352206D01*
X132232396Y-47352206D02*
X132064037Y-47453221D01*
X132064037Y-47453221D02*
X131963022Y-47486893D01*
X131963022Y-47486893D02*
X131895678Y-47486893D01*
X131895678Y-47486893D02*
X131794663Y-47453221D01*
X131794663Y-47453221D02*
X131727320Y-47385878D01*
X131727320Y-47385878D02*
X131693648Y-47284862D01*
X131693648Y-47284862D02*
X131693648Y-47217519D01*
X131693648Y-47217519D02*
X131727320Y-47116504D01*
X131727320Y-47116504D02*
X131828335Y-46948145D01*
X131828335Y-46948145D02*
X131996694Y-46779786D01*
X131996694Y-46779786D02*
X132165052Y-46678771D01*
X132165052Y-46678771D02*
X132266068Y-46645099D01*
X132266068Y-46645099D02*
X132333411Y-46645099D01*
X132333411Y-46645099D02*
X132434426Y-46678771D01*
X134470806Y-51002100D02*
X135336832Y-50502100D01*
X135336832Y-50502100D02*
X135455879Y-50708297D01*
X135455879Y-50708297D02*
X135486069Y-50855824D01*
X135486069Y-50855824D02*
X135451209Y-50985922D01*
X135451209Y-50985922D02*
X135392540Y-51074780D01*
X135392540Y-51074780D02*
X135251392Y-51211258D01*
X135251392Y-51211258D02*
X135127674Y-51282686D01*
X135127674Y-51282686D02*
X134938908Y-51336685D01*
X134938908Y-51336685D02*
X134832619Y-51343065D01*
X134832619Y-51343065D02*
X134702522Y-51308205D01*
X134702522Y-51308205D02*
X134589854Y-51208297D01*
X134589854Y-51208297D02*
X134470806Y-51002100D01*
X134994616Y-51909365D02*
X135089854Y-52074322D01*
X135089854Y-52074322D02*
X135178712Y-52132991D01*
X135178712Y-52132991D02*
X135243761Y-52150421D01*
X135243761Y-52150421D02*
X135415098Y-52161471D01*
X135415098Y-52161471D02*
X135603865Y-52107472D01*
X135603865Y-52107472D02*
X135933779Y-51916996D01*
X135933779Y-51916996D02*
X135992448Y-51828138D01*
X135992448Y-51828138D02*
X136009878Y-51763089D01*
X136009878Y-51763089D02*
X136003498Y-51656801D01*
X136003498Y-51656801D02*
X135908260Y-51491844D01*
X135908260Y-51491844D02*
X135819402Y-51433174D01*
X135819402Y-51433174D02*
X135754353Y-51415745D01*
X135754353Y-51415745D02*
X135648065Y-51422124D01*
X135648065Y-51422124D02*
X135441868Y-51541172D01*
X135441868Y-51541172D02*
X135383199Y-51630030D01*
X135383199Y-51630030D02*
X135365770Y-51695079D01*
X135365770Y-51695079D02*
X135372149Y-51801367D01*
X135372149Y-51801367D02*
X135467387Y-51966325D01*
X135467387Y-51966325D02*
X135556246Y-52024994D01*
X135556246Y-52024994D02*
X135621295Y-52042423D01*
X135621295Y-52042423D02*
X135727583Y-52036044D01*
X138026172Y-59412623D02*
X137983791Y-59464959D01*
X137983791Y-59464959D02*
X137846694Y-59527250D01*
X137846694Y-59527250D02*
X137751978Y-59537205D01*
X137751978Y-59537205D02*
X137604926Y-59504779D01*
X137604926Y-59504779D02*
X137500255Y-59420018D01*
X137500255Y-59420018D02*
X137442941Y-59330279D01*
X137442941Y-59330279D02*
X137375673Y-59145824D01*
X137375673Y-59145824D02*
X137360740Y-59003750D01*
X137360740Y-59003750D02*
X137388188Y-58809339D01*
X137388188Y-58809339D02*
X137425591Y-58709645D01*
X137425591Y-58709645D02*
X137510353Y-58604974D01*
X137510353Y-58604974D02*
X137647450Y-58542683D01*
X137647450Y-58542683D02*
X137742166Y-58532728D01*
X137742166Y-58532728D02*
X137889218Y-58565153D01*
X137889218Y-58565153D02*
X137941554Y-58607534D01*
X138263106Y-58477975D02*
X138926121Y-58408289D01*
X138926121Y-58408289D02*
X138604425Y-59447609D01*
X32053333Y-91597619D02*
X31720000Y-91121428D01*
X31481905Y-91597619D02*
X31481905Y-90597619D01*
X31481905Y-90597619D02*
X31862857Y-90597619D01*
X31862857Y-90597619D02*
X31958095Y-90645238D01*
X31958095Y-90645238D02*
X32005714Y-90692857D01*
X32005714Y-90692857D02*
X32053333Y-90788095D01*
X32053333Y-90788095D02*
X32053333Y-90930952D01*
X32053333Y-90930952D02*
X32005714Y-91026190D01*
X32005714Y-91026190D02*
X31958095Y-91073809D01*
X31958095Y-91073809D02*
X31862857Y-91121428D01*
X31862857Y-91121428D02*
X31481905Y-91121428D01*
X32386667Y-90597619D02*
X33005714Y-90597619D01*
X33005714Y-90597619D02*
X32672381Y-90978571D01*
X32672381Y-90978571D02*
X32815238Y-90978571D01*
X32815238Y-90978571D02*
X32910476Y-91026190D01*
X32910476Y-91026190D02*
X32958095Y-91073809D01*
X32958095Y-91073809D02*
X33005714Y-91169047D01*
X33005714Y-91169047D02*
X33005714Y-91407142D01*
X33005714Y-91407142D02*
X32958095Y-91502380D01*
X32958095Y-91502380D02*
X32910476Y-91550000D01*
X32910476Y-91550000D02*
X32815238Y-91597619D01*
X32815238Y-91597619D02*
X32529524Y-91597619D01*
X32529524Y-91597619D02*
X32434286Y-91550000D01*
X32434286Y-91550000D02*
X32386667Y-91502380D01*
X93541331Y-49674841D02*
X93474357Y-49681880D01*
X93474357Y-49681880D02*
X93333368Y-49628984D01*
X93333368Y-49628984D02*
X93259354Y-49569049D01*
X93259354Y-49569049D02*
X93178301Y-49442139D01*
X93178301Y-49442139D02*
X93164222Y-49308190D01*
X93164222Y-49308190D02*
X93187151Y-49204208D01*
X93187151Y-49204208D02*
X93270014Y-49026213D01*
X93270014Y-49026213D02*
X93359917Y-48915192D01*
X93359917Y-48915192D02*
X93516795Y-48797132D01*
X93516795Y-48797132D02*
X93613737Y-48753086D01*
X93613737Y-48753086D02*
X93747686Y-48739007D01*
X93747686Y-48739007D02*
X93888675Y-48791903D01*
X93888675Y-48791903D02*
X93962689Y-48851838D01*
X93962689Y-48851838D02*
X94043742Y-48978748D01*
X94043742Y-48978748D02*
X94050781Y-49045723D01*
X94221535Y-50348208D02*
X93777452Y-49988596D01*
X93999493Y-50168402D02*
X94628814Y-49391256D01*
X94628814Y-49391256D02*
X94464897Y-49442341D01*
X94464897Y-49442341D02*
X94330948Y-49456420D01*
X94330948Y-49456420D02*
X94226966Y-49433492D01*
X95516981Y-50110479D02*
X95368953Y-49990609D01*
X95368953Y-49990609D02*
X95264971Y-49967680D01*
X95264971Y-49967680D02*
X95197997Y-49974720D01*
X95197997Y-49974720D02*
X95034080Y-50025805D01*
X95034080Y-50025805D02*
X94877202Y-50143865D01*
X94877202Y-50143865D02*
X94637461Y-50439921D01*
X94637461Y-50439921D02*
X94614533Y-50543903D01*
X94614533Y-50543903D02*
X94621572Y-50610877D01*
X94621572Y-50610877D02*
X94665618Y-50707819D01*
X94665618Y-50707819D02*
X94813646Y-50827690D01*
X94813646Y-50827690D02*
X94917628Y-50850618D01*
X94917628Y-50850618D02*
X94984602Y-50843579D01*
X94984602Y-50843579D02*
X95081545Y-50799533D01*
X95081545Y-50799533D02*
X95231383Y-50614498D01*
X95231383Y-50614498D02*
X95254311Y-50510516D01*
X95254311Y-50510516D02*
X95247272Y-50443542D01*
X95247272Y-50443542D02*
X95203226Y-50346600D01*
X95203226Y-50346600D02*
X95055198Y-50226729D01*
X95055198Y-50226729D02*
X94951216Y-50203801D01*
X94951216Y-50203801D02*
X94884242Y-50210840D01*
X94884242Y-50210840D02*
X94787299Y-50254886D01*
X138275613Y-65692683D02*
X138221131Y-65732267D01*
X138221131Y-65732267D02*
X138072584Y-65756952D01*
X138072584Y-65756952D02*
X137978518Y-65742053D01*
X137978518Y-65742053D02*
X137844869Y-65672672D01*
X137844869Y-65672672D02*
X137765702Y-65563708D01*
X137765702Y-65563708D02*
X137733568Y-65462194D01*
X137733568Y-65462194D02*
X137716332Y-65266613D01*
X137716332Y-65266613D02*
X137738680Y-65125515D01*
X137738680Y-65125515D02*
X137815510Y-64944833D01*
X137815510Y-64944833D02*
X137877441Y-64858217D01*
X137877441Y-64858217D02*
X137986405Y-64779050D01*
X137986405Y-64779050D02*
X138134952Y-64754365D01*
X138134952Y-64754365D02*
X138229018Y-64769263D01*
X138229018Y-64769263D02*
X138362667Y-64838644D01*
X138362667Y-64838644D02*
X138402251Y-64893126D01*
X139263739Y-64933147D02*
X139075608Y-64903350D01*
X139075608Y-64903350D02*
X138974093Y-64935484D01*
X138974093Y-64935484D02*
X138919611Y-64975068D01*
X138919611Y-64975068D02*
X138803198Y-65101267D01*
X138803198Y-65101267D02*
X138726368Y-65281949D01*
X138726368Y-65281949D02*
X138666774Y-65658212D01*
X138666774Y-65658212D02*
X138698908Y-65759726D01*
X138698908Y-65759726D02*
X138738492Y-65814208D01*
X138738492Y-65814208D02*
X138825108Y-65876140D01*
X138825108Y-65876140D02*
X139013239Y-65905937D01*
X139013239Y-65905937D02*
X139114754Y-65873803D01*
X139114754Y-65873803D02*
X139169236Y-65834219D01*
X139169236Y-65834219D02*
X139231167Y-65747603D01*
X139231167Y-65747603D02*
X139268414Y-65512439D01*
X139268414Y-65512439D02*
X139236279Y-65410924D01*
X139236279Y-65410924D02*
X139196696Y-65356442D01*
X139196696Y-65356442D02*
X139110080Y-65294511D01*
X139110080Y-65294511D02*
X138921948Y-65264714D01*
X138921948Y-65264714D02*
X138820434Y-65296848D01*
X138820434Y-65296848D02*
X138765952Y-65336431D01*
X138765952Y-65336431D02*
X138704020Y-65423048D01*
X133967149Y-77386726D02*
X133900175Y-77393765D01*
X133900175Y-77393765D02*
X133759186Y-77340869D01*
X133759186Y-77340869D02*
X133685172Y-77280934D01*
X133685172Y-77280934D02*
X133604119Y-77154024D01*
X133604119Y-77154024D02*
X133590040Y-77020075D01*
X133590040Y-77020075D02*
X133612969Y-76916093D01*
X133612969Y-76916093D02*
X133695832Y-76738098D01*
X133695832Y-76738098D02*
X133785735Y-76627077D01*
X133785735Y-76627077D02*
X133942613Y-76509017D01*
X133942613Y-76509017D02*
X134039555Y-76464970D01*
X134039555Y-76464970D02*
X134173504Y-76450892D01*
X134173504Y-76450892D02*
X134314493Y-76503788D01*
X134314493Y-76503788D02*
X134388507Y-76563723D01*
X134388507Y-76563723D02*
X134469560Y-76690633D01*
X134469560Y-76690633D02*
X134476599Y-76757608D01*
X134992886Y-77482060D02*
X134573339Y-78000157D01*
X135047592Y-77036166D02*
X134413043Y-77441432D01*
X134413043Y-77441432D02*
X134894133Y-77831011D01*
X100927088Y-84233990D02*
X101427088Y-83367965D01*
X101427088Y-83367965D02*
X101633284Y-83487013D01*
X101633284Y-83487013D02*
X101733193Y-83599681D01*
X101733193Y-83599681D02*
X101768052Y-83729778D01*
X101768052Y-83729778D02*
X101761672Y-83836066D01*
X101761672Y-83836066D02*
X101707674Y-84024833D01*
X101707674Y-84024833D02*
X101636245Y-84148551D01*
X101636245Y-84148551D02*
X101499768Y-84289699D01*
X101499768Y-84289699D02*
X101410909Y-84348368D01*
X101410909Y-84348368D02*
X101280812Y-84383227D01*
X101280812Y-84383227D02*
X101133284Y-84353038D01*
X101133284Y-84353038D02*
X100927088Y-84233990D01*
X102204255Y-83926634D02*
X102269304Y-83909204D01*
X102269304Y-83909204D02*
X102375592Y-83915584D01*
X102375592Y-83915584D02*
X102581788Y-84034632D01*
X102581788Y-84034632D02*
X102640457Y-84123490D01*
X102640457Y-84123490D02*
X102657887Y-84188539D01*
X102657887Y-84188539D02*
X102651507Y-84294827D01*
X102651507Y-84294827D02*
X102603888Y-84377306D01*
X102603888Y-84377306D02*
X102491220Y-84477214D01*
X102491220Y-84477214D02*
X101710634Y-84686371D01*
X101710634Y-84686371D02*
X102246745Y-84995895D01*
X103035421Y-84296537D02*
X103571532Y-84606060D01*
X103571532Y-84606060D02*
X103092380Y-84769308D01*
X103092380Y-84769308D02*
X103216098Y-84840737D01*
X103216098Y-84840737D02*
X103274767Y-84929595D01*
X103274767Y-84929595D02*
X103292197Y-84994644D01*
X103292197Y-84994644D02*
X103285817Y-85100932D01*
X103285817Y-85100932D02*
X103166770Y-85307129D01*
X103166770Y-85307129D02*
X103077911Y-85365798D01*
X103077911Y-85365798D02*
X103012862Y-85383227D01*
X103012862Y-85383227D02*
X102906574Y-85376848D01*
X102906574Y-85376848D02*
X102659139Y-85233990D01*
X102659139Y-85233990D02*
X102600469Y-85145132D01*
X102600469Y-85145132D02*
X102583040Y-85080083D01*
X103235045Y-41147727D02*
X103173524Y-41120336D01*
X103173524Y-41120336D02*
X103077872Y-41004033D01*
X103077872Y-41004033D02*
X103043742Y-40915120D01*
X103043742Y-40915120D02*
X103037003Y-40764686D01*
X103037003Y-40764686D02*
X103091785Y-40641644D01*
X103091785Y-40641644D02*
X103163632Y-40563057D01*
X103163632Y-40563057D02*
X103324392Y-40450340D01*
X103324392Y-40450340D02*
X103457761Y-40399145D01*
X103457761Y-40399145D02*
X103652651Y-40375341D01*
X103652651Y-40375341D02*
X103758628Y-40385667D01*
X103758628Y-40385667D02*
X103881671Y-40440449D01*
X103881671Y-40440449D02*
X103977323Y-40556752D01*
X103977323Y-40556752D02*
X104011453Y-40645665D01*
X104011453Y-40645665D02*
X104018192Y-40796098D01*
X104018192Y-40796098D02*
X103990801Y-40857620D01*
X103487436Y-42070982D02*
X103282654Y-41537507D01*
X103385045Y-41804244D02*
X104318625Y-41445876D01*
X104318625Y-41445876D02*
X104151126Y-41408159D01*
X104151126Y-41408159D02*
X104028084Y-41353377D01*
X104028084Y-41353377D02*
X103949497Y-41281530D01*
X104416995Y-42632282D02*
X103794608Y-42871194D01*
X104687319Y-42273479D02*
X103935150Y-42307175D01*
X103935150Y-42307175D02*
X104156997Y-42885106D01*
X100474841Y-84258668D02*
X100481880Y-84325642D01*
X100481880Y-84325642D02*
X100428984Y-84466631D01*
X100428984Y-84466631D02*
X100369049Y-84540645D01*
X100369049Y-84540645D02*
X100242139Y-84621698D01*
X100242139Y-84621698D02*
X100108190Y-84635777D01*
X100108190Y-84635777D02*
X100004208Y-84612848D01*
X100004208Y-84612848D02*
X99826213Y-84529985D01*
X99826213Y-84529985D02*
X99715192Y-84440082D01*
X99715192Y-84440082D02*
X99597132Y-84283204D01*
X99597132Y-84283204D02*
X99553086Y-84186262D01*
X99553086Y-84186262D02*
X99539007Y-84052313D01*
X99539007Y-84052313D02*
X99591903Y-83911324D01*
X99591903Y-83911324D02*
X99651838Y-83837310D01*
X99651838Y-83837310D02*
X99778748Y-83756257D01*
X99778748Y-83756257D02*
X99845723Y-83749218D01*
X100085464Y-83453162D02*
X100078425Y-83386188D01*
X100078425Y-83386188D02*
X100101353Y-83282206D01*
X100101353Y-83282206D02*
X100251191Y-83097171D01*
X100251191Y-83097171D02*
X100348133Y-83053125D01*
X100348133Y-83053125D02*
X100415108Y-83046086D01*
X100415108Y-83046086D02*
X100519089Y-83069014D01*
X100519089Y-83069014D02*
X100593103Y-83128949D01*
X100593103Y-83128949D02*
X100674157Y-83255859D01*
X100674157Y-83255859D02*
X100758628Y-84059554D01*
X100758628Y-84059554D02*
X101148208Y-83578464D01*
X100684817Y-82713023D02*
X100677777Y-82646049D01*
X100677777Y-82646049D02*
X100700706Y-82542067D01*
X100700706Y-82542067D02*
X100850544Y-82357032D01*
X100850544Y-82357032D02*
X100947486Y-82312986D01*
X100947486Y-82312986D02*
X101014461Y-82305947D01*
X101014461Y-82305947D02*
X101118442Y-82328875D01*
X101118442Y-82328875D02*
X101192456Y-82388810D01*
X101192456Y-82388810D02*
X101273509Y-82515720D01*
X101273509Y-82515720D02*
X101357981Y-83319415D01*
X101357981Y-83319415D02*
X101747560Y-82838325D01*
X135272086Y-76460518D02*
X134406061Y-75960518D01*
X134406061Y-75960518D02*
X134525108Y-75754321D01*
X134525108Y-75754321D02*
X134637776Y-75654413D01*
X134637776Y-75654413D02*
X134767874Y-75619553D01*
X134767874Y-75619553D02*
X134874162Y-75625933D01*
X134874162Y-75625933D02*
X135062929Y-75679932D01*
X135062929Y-75679932D02*
X135186647Y-75751360D01*
X135186647Y-75751360D02*
X135327794Y-75887838D01*
X135327794Y-75887838D02*
X135386463Y-75976696D01*
X135386463Y-75976696D02*
X135421323Y-76106794D01*
X135421323Y-76106794D02*
X135391134Y-76254321D01*
X135391134Y-76254321D02*
X135272086Y-76460518D01*
X135144156Y-74682099D02*
X134906061Y-75094492D01*
X134906061Y-75094492D02*
X135294644Y-75373827D01*
X135294644Y-75373827D02*
X135277214Y-75308778D01*
X135277214Y-75308778D02*
X135283594Y-75202490D01*
X135283594Y-75202490D02*
X135402642Y-74996293D01*
X135402642Y-74996293D02*
X135491500Y-74937624D01*
X135491500Y-74937624D02*
X135556549Y-74920195D01*
X135556549Y-74920195D02*
X135662837Y-74926574D01*
X135662837Y-74926574D02*
X135869034Y-75045622D01*
X135869034Y-75045622D02*
X135927703Y-75134480D01*
X135927703Y-75134480D02*
X135945132Y-75199529D01*
X135945132Y-75199529D02*
X135938753Y-75305817D01*
X135938753Y-75305817D02*
X135819705Y-75512014D01*
X135819705Y-75512014D02*
X135730847Y-75570683D01*
X135730847Y-75570683D02*
X135665798Y-75588113D01*
D10*
X116270400Y-68546900D02*
X116270400Y-66346900D01*
X116270400Y-68546900D02*
X116270400Y-72146900D01*
X123040400Y-68546900D02*
X123040400Y-66346900D01*
X123040400Y-68546900D02*
X123040400Y-70746900D01*
X128270000Y-66766000D02*
X128920000Y-66766000D01*
X128270000Y-69886000D02*
X128920000Y-69886000D01*
X128270000Y-66766000D02*
X126595000Y-66766000D01*
X128270000Y-69886000D02*
X127620000Y-69886000D01*
X128156580Y-65022000D02*
X127875420Y-65022000D01*
X128156580Y-66042000D02*
X127875420Y-66042000D01*
X113032000Y-71514580D02*
X113032000Y-71233420D01*
X112012000Y-71514580D02*
X112012000Y-71233420D01*
X113527000Y-64897580D02*
X113527000Y-64616420D01*
X112507000Y-64897580D02*
X112507000Y-64616420D01*
X123725000Y-75157064D02*
X123725000Y-74702936D01*
X125195000Y-75157064D02*
X125195000Y-74702936D01*
X127580920Y-71586000D02*
X127862080Y-71586000D01*
X127580920Y-70566000D02*
X127862080Y-70566000D01*
X115064000Y-64897580D02*
X115064000Y-64616420D01*
X114044000Y-64897580D02*
X114044000Y-64616420D01*
X114810000Y-71514580D02*
X114810000Y-71233420D01*
X113790000Y-71514580D02*
X113790000Y-71233420D01*
X129271113Y-82349706D02*
X129436375Y-82577169D01*
X128445915Y-82949247D02*
X128611177Y-83176710D01*
X133149706Y-48528887D02*
X133377169Y-48363625D01*
X133749247Y-49354085D02*
X133976710Y-49188823D01*
X64805000Y-72390000D02*
X64805000Y-52010000D01*
X64805000Y-72390000D02*
X62145000Y-72390000D01*
X64805000Y-52010000D02*
X62145000Y-52010000D01*
X63475000Y-74990000D02*
X62145000Y-74990000D01*
X62145000Y-74990000D02*
X62145000Y-73660000D01*
X62145000Y-72390000D02*
X62145000Y-52010000D01*
D12*
X117690496Y-41187236D02*
X117996682Y-41010459D01*
X117996682Y-41010459D02*
X117690496Y-41187236D01*
X117996682Y-41010459D02*
X118173459Y-41316645D01*
X117673159Y-42217867D02*
X117996682Y-41010459D01*
X118302869Y-40833683D02*
X122166572Y-41868959D01*
X117914640Y-42282571D02*
X118302869Y-40833683D01*
X122166572Y-41868959D02*
X121778343Y-43317847D01*
X121778343Y-43317847D02*
X117914640Y-42282571D01*
D10*
X95450294Y-78471113D02*
X95222831Y-78636375D01*
X94850753Y-77645915D02*
X94623290Y-77811177D01*
D12*
X91870000Y-66000000D02*
X91620000Y-65750000D01*
X91620000Y-65750000D02*
X91870000Y-66000000D01*
X91620000Y-65750000D02*
X91870000Y-65500000D01*
X92870000Y-65750000D02*
X91620000Y-65750000D01*
X91370000Y-65500000D02*
X91370000Y-61500000D01*
X92870000Y-65500000D02*
X91370000Y-65500000D01*
X91370000Y-61500000D02*
X92870000Y-61500000D01*
X92870000Y-61500000D02*
X92870000Y-65500000D01*
D10*
X99328887Y-44650294D02*
X99163625Y-44422831D01*
X100154085Y-44050753D02*
X99988823Y-43823290D01*
X123882322Y-85582227D02*
X123983080Y-85844712D01*
X122930070Y-85947762D02*
X123030828Y-86210247D01*
X117840512Y-87309881D02*
X117869901Y-87589500D01*
X116826099Y-87416500D02*
X116855488Y-87696119D01*
D12*
X131928172Y-77592638D02*
X131928172Y-77946191D01*
X131928172Y-77946191D02*
X131928172Y-77592638D01*
X131928172Y-77946191D02*
X131574618Y-77946191D01*
X131044288Y-77062308D02*
X131928172Y-77946191D01*
X131928172Y-78299745D02*
X129099745Y-81128172D01*
X130867511Y-77239084D02*
X131928172Y-78299745D01*
X129099745Y-81128172D02*
X128039084Y-80067511D01*
X128039084Y-80067511D02*
X130867511Y-77239084D01*
X136730000Y-61000000D02*
X136980000Y-61250000D01*
X136980000Y-61250000D02*
X136730000Y-61000000D01*
X136980000Y-61250000D02*
X136730000Y-61500000D01*
X135730000Y-61250000D02*
X136980000Y-61250000D01*
X137230000Y-61500000D02*
X137230000Y-65500000D01*
X135730000Y-61500000D02*
X137230000Y-61500000D01*
X137230000Y-65500000D02*
X135730000Y-65500000D01*
X135730000Y-65500000D02*
X135730000Y-61500000D01*
X110909504Y-85812764D02*
X110603318Y-85989541D01*
X110603318Y-85989541D02*
X110909504Y-85812764D01*
X110603318Y-85989541D02*
X110426541Y-85683355D01*
X110926841Y-84782133D02*
X110603318Y-85989541D01*
X110297131Y-86166317D02*
X106433428Y-85131041D01*
X110685360Y-84717429D02*
X110297131Y-86166317D01*
X106433428Y-85131041D02*
X106821657Y-83682153D01*
X106821657Y-83682153D02*
X110685360Y-84717429D01*
X100207362Y-81128172D02*
X99853809Y-81128172D01*
X99853809Y-81128172D02*
X100207362Y-81128172D01*
X99853809Y-81128172D02*
X99853809Y-80774618D01*
X100737692Y-80244288D02*
X99853809Y-81128172D01*
X99500255Y-81128172D02*
X96671828Y-78299745D01*
X100560916Y-80067511D02*
X99500255Y-81128172D01*
X96671828Y-78299745D02*
X97732489Y-77239084D01*
X97732489Y-77239084D02*
X100560916Y-80067511D01*
X106079875Y-42481331D02*
X106256651Y-42175145D01*
X106256651Y-42175145D02*
X106079875Y-42481331D01*
X106256651Y-42175145D02*
X106562838Y-42351922D01*
X106580175Y-43382552D02*
X106256651Y-42175145D01*
X106433428Y-41868959D02*
X110297131Y-40833683D01*
X106821657Y-43317847D02*
X106433428Y-41868959D01*
X110297131Y-40833683D02*
X110685360Y-42282571D01*
X110685360Y-42282571D02*
X106821657Y-43317847D01*
X123349936Y-42825051D02*
X123691443Y-42733544D01*
X123691443Y-42733544D02*
X123349936Y-42825051D01*
X123691443Y-42733544D02*
X123782949Y-43075051D01*
X123066443Y-43816076D02*
X123691443Y-42733544D01*
X124032949Y-42642038D02*
X127497051Y-44642038D01*
X123282949Y-43941076D02*
X124032949Y-42642038D01*
X127497051Y-44642038D02*
X126747051Y-45941076D01*
X126747051Y-45941076D02*
X123282949Y-43941076D01*
X136612764Y-66890496D02*
X136789541Y-67196682D01*
X136789541Y-67196682D02*
X136612764Y-66890496D01*
X136789541Y-67196682D02*
X136483355Y-67373459D01*
X135582133Y-66873159D02*
X136789541Y-67196682D01*
X136966317Y-67502869D02*
X135931041Y-71366572D01*
X135517429Y-67114640D02*
X136966317Y-67502869D01*
X135931041Y-71366572D02*
X134482153Y-70978343D01*
X134482153Y-70978343D02*
X135517429Y-67114640D01*
X93281331Y-71720125D02*
X92975145Y-71543349D01*
X92975145Y-71543349D02*
X93281331Y-71720125D01*
X92975145Y-71543349D02*
X93151922Y-71237162D01*
X94182552Y-71219825D02*
X92975145Y-71543349D01*
X92668959Y-71366572D02*
X91633683Y-67502869D01*
X94117847Y-70978343D02*
X92668959Y-71366572D01*
X91633683Y-67502869D02*
X93082571Y-67114640D01*
X93082571Y-67114640D02*
X94117847Y-70978343D01*
X127680064Y-81674949D02*
X127588557Y-82016456D01*
X127588557Y-82016456D02*
X127680064Y-81674949D01*
X127588557Y-82016456D02*
X127247051Y-81924949D01*
X126963557Y-80933924D02*
X127588557Y-82016456D01*
X127497051Y-82357962D02*
X124032949Y-84357962D01*
X126747051Y-81058924D02*
X127497051Y-82357962D01*
X124032949Y-84357962D02*
X123282949Y-83058924D01*
X123282949Y-83058924D02*
X126747051Y-81058924D01*
D10*
X105461232Y-85890217D02*
X105346874Y-86147070D01*
X104529416Y-85475346D02*
X104415058Y-85732199D01*
D12*
X96125051Y-76880064D02*
X95783544Y-76788557D01*
X95783544Y-76788557D02*
X96125051Y-76880064D01*
X95783544Y-76788557D02*
X95875051Y-76447051D01*
X96866076Y-76163557D02*
X95783544Y-76788557D01*
X95442038Y-76697051D02*
X93442038Y-73232949D01*
X96741076Y-75947051D02*
X95442038Y-76697051D01*
X93442038Y-73232949D02*
X94741076Y-72482949D01*
X94741076Y-72482949D02*
X96741076Y-75947051D01*
X91987236Y-60109504D02*
X91810459Y-59803318D01*
X91810459Y-59803318D02*
X91987236Y-60109504D01*
X91810459Y-59803318D02*
X92116645Y-59626541D01*
X93017867Y-60126841D02*
X91810459Y-59803318D01*
X91633683Y-59497131D02*
X92668959Y-55633428D01*
X93082571Y-59885360D02*
X91633683Y-59497131D01*
X92668959Y-55633428D02*
X94117847Y-56021657D01*
X94117847Y-56021657D02*
X93082571Y-59885360D01*
X135318669Y-55279875D02*
X135624855Y-55456651D01*
X135624855Y-55456651D02*
X135318669Y-55279875D01*
X135624855Y-55456651D02*
X135448078Y-55762838D01*
X134417448Y-55780175D02*
X135624855Y-55456651D01*
X135931041Y-55633428D02*
X136966317Y-59497131D01*
X134482153Y-56021657D02*
X135931041Y-55633428D01*
X136966317Y-59497131D02*
X135517429Y-59885360D01*
X135517429Y-59885360D02*
X134482153Y-56021657D01*
D10*
X32875000Y-86500000D02*
X32875000Y-83050000D01*
X32875000Y-86500000D02*
X32875000Y-88450000D01*
X27755000Y-86500000D02*
X27755000Y-84550000D01*
X27755000Y-86500000D02*
X27755000Y-88450000D01*
D12*
X122520125Y-84518669D02*
X122343349Y-84824855D01*
X122343349Y-84824855D02*
X122520125Y-84518669D01*
X122343349Y-84824855D02*
X122037162Y-84648078D01*
X122019825Y-83617448D02*
X122343349Y-84824855D01*
X122166572Y-85131041D02*
X118302869Y-86166317D01*
X121778343Y-83682153D02*
X122166572Y-85131041D01*
X118302869Y-86166317D02*
X117914640Y-84717429D01*
X117914640Y-84717429D02*
X121778343Y-83682153D01*
D10*
X90490119Y-67040512D02*
X90210500Y-67069901D01*
X90383500Y-66026099D02*
X90103881Y-66055488D01*
X110759488Y-39690119D02*
X110730099Y-39410500D01*
X111773901Y-39583500D02*
X111744512Y-39303881D01*
X24372936Y-55920000D02*
X24827064Y-55920000D01*
X24372936Y-57390000D02*
X24827064Y-57390000D01*
X24827064Y-54850000D02*
X24372936Y-54850000D01*
X24827064Y-53380000D02*
X24372936Y-53380000D01*
D12*
X100919936Y-45325051D02*
X101011443Y-44983544D01*
X101011443Y-44983544D02*
X100919936Y-45325051D01*
X101011443Y-44983544D02*
X101352949Y-45075051D01*
X101636443Y-46066076D02*
X101011443Y-44983544D01*
X101102949Y-44642038D02*
X104567051Y-42642038D01*
X101852949Y-45941076D02*
X101102949Y-44642038D01*
X104567051Y-42642038D02*
X105317051Y-43941076D01*
X105317051Y-43941076D02*
X101852949Y-45941076D01*
D10*
X123138768Y-41109783D02*
X123253126Y-40852930D01*
X124070584Y-41524654D02*
X124184942Y-41267801D01*
X136382227Y-53917678D02*
X136644712Y-53816920D01*
X136747762Y-54869930D02*
X137010247Y-54769172D01*
D12*
X93625051Y-54450064D02*
X93533544Y-54108557D01*
X93533544Y-54108557D02*
X93625051Y-54450064D01*
X93533544Y-54108557D02*
X93875051Y-54017051D01*
X94616076Y-54733557D02*
X93533544Y-54108557D01*
X93442038Y-53767051D02*
X95442038Y-50302949D01*
X94741076Y-54517051D02*
X93442038Y-53767051D01*
X95442038Y-50302949D02*
X96741076Y-51052949D01*
X96741076Y-51052949D02*
X94741076Y-54517051D01*
D10*
X117042579Y-39585070D02*
X117086563Y-39307371D01*
X118050021Y-39744633D02*
X118094005Y-39466934D01*
X136690217Y-72338768D02*
X136947070Y-72453126D01*
X136275346Y-73270584D02*
X136532199Y-73384942D01*
D13*
X24750000Y-35215000D02*
X29030000Y-35215000D01*
X24750000Y-36145000D02*
X24750000Y-35215000D01*
X24750000Y-46685000D02*
X24750000Y-47615000D01*
X24750000Y-47615000D02*
X25530000Y-47615000D01*
X29370000Y-47615000D02*
X32530000Y-47615000D01*
X32870000Y-35215000D02*
X37150000Y-35215000D01*
X36370000Y-47615000D02*
X37150000Y-47615000D01*
X37150000Y-35215000D02*
X37150000Y-36145000D01*
X37150000Y-47615000D02*
X37150000Y-46685000D01*
D14*
X23150000Y-35690000D02*
G75*
G03*
X23150000Y-35690000I-100000J0D01*
G01*
D12*
X96671828Y-49407362D02*
X96671828Y-49053809D01*
X96671828Y-49053809D02*
X96671828Y-49407362D01*
X96671828Y-49053809D02*
X97025382Y-49053809D01*
X97555712Y-49937692D02*
X96671828Y-49053809D01*
X96671828Y-48700255D02*
X99500255Y-45871828D01*
X97732489Y-49760916D02*
X96671828Y-48700255D01*
X99500255Y-45871828D02*
X100560916Y-46932489D01*
X100560916Y-46932489D02*
X97732489Y-49760916D01*
D10*
X34660000Y-86727064D02*
X34660000Y-86272936D01*
X36130000Y-86727064D02*
X36130000Y-86272936D01*
X106540000Y-60110000D02*
X106540000Y-61500000D01*
X92217773Y-73082322D02*
X91955288Y-73183080D01*
X91852238Y-72130070D02*
X91589753Y-72230828D01*
D12*
X116800000Y-85930000D02*
X116550000Y-86180000D01*
X116550000Y-86180000D02*
X116800000Y-85930000D01*
X116550000Y-86180000D02*
X116300000Y-85930000D01*
X116550000Y-84930000D02*
X116550000Y-86180000D01*
X116300000Y-86430000D02*
X112300000Y-86430000D01*
X116300000Y-84930000D02*
X116300000Y-86430000D01*
X112300000Y-86430000D02*
X112300000Y-84930000D01*
X112300000Y-84930000D02*
X116300000Y-84930000D01*
D10*
X24372936Y-61000000D02*
X24827064Y-61000000D01*
X24372936Y-62470000D02*
X24827064Y-62470000D01*
X111557421Y-87414930D02*
X111513437Y-87692629D01*
X110549979Y-87255367D02*
X110505995Y-87533066D01*
X90385070Y-60757421D02*
X90107371Y-60713437D01*
X90544633Y-59749979D02*
X90266934Y-59705995D01*
X24372936Y-50840000D02*
X24827064Y-50840000D01*
X24372936Y-52310000D02*
X24827064Y-52310000D01*
X128632609Y-44160352D02*
X128809548Y-43941849D01*
X129425298Y-44802259D02*
X129602237Y-44583756D01*
X102930000Y-72390000D02*
X102930000Y-52010000D01*
X102930000Y-72390000D02*
X100270000Y-72390000D01*
X102930000Y-52010000D02*
X100270000Y-52010000D01*
X101600000Y-74990000D02*
X100270000Y-74990000D01*
X100270000Y-74990000D02*
X100270000Y-73660000D01*
X100270000Y-72390000D02*
X100270000Y-52010000D01*
D12*
X111800000Y-41070000D02*
X112050000Y-40820000D01*
X112050000Y-40820000D02*
X111800000Y-41070000D01*
X112050000Y-40820000D02*
X112300000Y-41070000D01*
X112050000Y-42070000D02*
X112050000Y-40820000D01*
X112300000Y-40570000D02*
X116300000Y-40570000D01*
X112300000Y-42070000D02*
X112300000Y-40570000D01*
X116300000Y-40570000D02*
X116300000Y-42070000D01*
X116300000Y-42070000D02*
X112300000Y-42070000D01*
D10*
X91909783Y-54661232D02*
X91652930Y-54546874D01*
X92324654Y-53729416D02*
X92067801Y-53615058D01*
D12*
X128392638Y-45871828D02*
X128746191Y-45871828D01*
X128746191Y-45871828D02*
X128392638Y-45871828D01*
X128746191Y-45871828D02*
X128746191Y-46225382D01*
X127862308Y-46755712D02*
X128746191Y-45871828D01*
X129099745Y-45871828D02*
X131928172Y-48700255D01*
X128039084Y-46932489D02*
X129099745Y-45871828D01*
X131928172Y-48700255D02*
X130867511Y-49760916D01*
X130867511Y-49760916D02*
X128039084Y-46932489D01*
X132474949Y-50119936D02*
X132816456Y-50211443D01*
X132816456Y-50211443D02*
X132474949Y-50119936D01*
X132816456Y-50211443D02*
X132724949Y-50552949D01*
X131733924Y-50836443D02*
X132816456Y-50211443D01*
X133157962Y-50302949D02*
X135157962Y-53767051D01*
X131858924Y-51052949D02*
X133157962Y-50302949D01*
X135157962Y-53767051D02*
X133858924Y-54517051D01*
X133858924Y-54517051D02*
X131858924Y-51052949D01*
D10*
X138109881Y-59959488D02*
X138389500Y-59930099D01*
X138216500Y-60973901D02*
X138496119Y-60944512D01*
X31992936Y-92050000D02*
X32447064Y-92050000D01*
X31992936Y-93520000D02*
X32447064Y-93520000D01*
X94960352Y-49167391D02*
X94741849Y-48990452D01*
X95602259Y-48374702D02*
X95383756Y-48197763D01*
X24372936Y-58460000D02*
X24827064Y-58460000D01*
X24372936Y-59930000D02*
X24827064Y-59930000D01*
X138214930Y-66242579D02*
X138492629Y-66286563D01*
X138055367Y-67250021D02*
X138333066Y-67294005D01*
X133639648Y-77832609D02*
X133858151Y-78009548D01*
X132997741Y-78625298D02*
X133216244Y-78802237D01*
D12*
X105250064Y-84174949D02*
X104908557Y-84266456D01*
X104908557Y-84266456D02*
X105250064Y-84174949D01*
X104908557Y-84266456D02*
X104817051Y-83924949D01*
X105533557Y-83183924D02*
X104908557Y-84266456D01*
X104567051Y-84357962D02*
X101102949Y-82357962D01*
X105317051Y-83058924D02*
X104567051Y-84357962D01*
X101102949Y-82357962D02*
X101852949Y-81058924D01*
X101852949Y-81058924D02*
X105317051Y-83058924D01*
D10*
X104717678Y-41417773D02*
X104616920Y-41155288D01*
X105669930Y-41052238D02*
X105569172Y-40789753D01*
X99967391Y-82839648D02*
X99790452Y-83058151D01*
X99174702Y-82197741D02*
X98997763Y-82416244D01*
D12*
X134974949Y-72549936D02*
X135066456Y-72891443D01*
X135066456Y-72891443D02*
X134974949Y-72549936D01*
X135066456Y-72891443D02*
X134724949Y-72982949D01*
X133983924Y-72266443D02*
X135066456Y-72891443D01*
X135157962Y-73232949D02*
X133157962Y-76697051D01*
X133858924Y-72482949D02*
X135157962Y-73232949D01*
X133157962Y-76697051D02*
X131858924Y-75947051D01*
X131858924Y-75947051D02*
X133858924Y-72482949D01*
M02*
