G04 #@! TF.GenerationSoftware,KiCad,Pcbnew,(5.1.4-0)*
G04 #@! TF.CreationDate,2020-03-10T11:39:59-04:00*
G04 #@! TF.ProjectId,joystick,6a6f7973-7469-4636-9b2e-6b696361645f,rev?*
G04 #@! TF.SameCoordinates,Original*
G04 #@! TF.FileFunction,Copper,L1,Top*
G04 #@! TF.FilePolarity,Positive*
%FSLAX46Y46*%
G04 Gerber Fmt 4.6, Leading zero omitted, Abs format (unit mm)*
G04 Created by KiCad (PCBNEW (5.1.4-0)) date 2020-03-10 11:39:59*
%MOMM*%
%LPD*%
G04 APERTURE LIST*
%ADD10O,1.700000X1.700000*%
%ADD11R,1.700000X1.700000*%
%ADD12C,0.100000*%
%ADD13C,0.975000*%
%ADD14R,4.400000X2.000000*%
%ADD15C,2.000000*%
%ADD16R,2.000000X1.900000*%
%ADD17C,2.900000*%
%ADD18R,2.900000X2.000000*%
%ADD19R,1.600000X1.600000*%
%ADD20C,1.600000*%
%ADD21C,0.800000*%
%ADD22C,0.250000*%
%ADD23C,0.254000*%
G04 APERTURE END LIST*
D10*
X107200000Y-86300000D03*
X104660000Y-86300000D03*
X102120000Y-86300000D03*
X99580000Y-86300000D03*
X97040000Y-86300000D03*
D11*
X94500000Y-86300000D03*
D12*
G36*
X147930142Y-116101174D02*
G01*
X147953803Y-116104684D01*
X147977007Y-116110496D01*
X147999529Y-116118554D01*
X148021153Y-116128782D01*
X148041670Y-116141079D01*
X148060883Y-116155329D01*
X148078607Y-116171393D01*
X148094671Y-116189117D01*
X148108921Y-116208330D01*
X148121218Y-116228847D01*
X148131446Y-116250471D01*
X148139504Y-116272993D01*
X148145316Y-116296197D01*
X148148826Y-116319858D01*
X148150000Y-116343750D01*
X148150000Y-117256250D01*
X148148826Y-117280142D01*
X148145316Y-117303803D01*
X148139504Y-117327007D01*
X148131446Y-117349529D01*
X148121218Y-117371153D01*
X148108921Y-117391670D01*
X148094671Y-117410883D01*
X148078607Y-117428607D01*
X148060883Y-117444671D01*
X148041670Y-117458921D01*
X148021153Y-117471218D01*
X147999529Y-117481446D01*
X147977007Y-117489504D01*
X147953803Y-117495316D01*
X147930142Y-117498826D01*
X147906250Y-117500000D01*
X147418750Y-117500000D01*
X147394858Y-117498826D01*
X147371197Y-117495316D01*
X147347993Y-117489504D01*
X147325471Y-117481446D01*
X147303847Y-117471218D01*
X147283330Y-117458921D01*
X147264117Y-117444671D01*
X147246393Y-117428607D01*
X147230329Y-117410883D01*
X147216079Y-117391670D01*
X147203782Y-117371153D01*
X147193554Y-117349529D01*
X147185496Y-117327007D01*
X147179684Y-117303803D01*
X147176174Y-117280142D01*
X147175000Y-117256250D01*
X147175000Y-116343750D01*
X147176174Y-116319858D01*
X147179684Y-116296197D01*
X147185496Y-116272993D01*
X147193554Y-116250471D01*
X147203782Y-116228847D01*
X147216079Y-116208330D01*
X147230329Y-116189117D01*
X147246393Y-116171393D01*
X147264117Y-116155329D01*
X147283330Y-116141079D01*
X147303847Y-116128782D01*
X147325471Y-116118554D01*
X147347993Y-116110496D01*
X147371197Y-116104684D01*
X147394858Y-116101174D01*
X147418750Y-116100000D01*
X147906250Y-116100000D01*
X147930142Y-116101174D01*
X147930142Y-116101174D01*
G37*
D13*
X147662500Y-116800000D03*
D12*
G36*
X149805142Y-116101174D02*
G01*
X149828803Y-116104684D01*
X149852007Y-116110496D01*
X149874529Y-116118554D01*
X149896153Y-116128782D01*
X149916670Y-116141079D01*
X149935883Y-116155329D01*
X149953607Y-116171393D01*
X149969671Y-116189117D01*
X149983921Y-116208330D01*
X149996218Y-116228847D01*
X150006446Y-116250471D01*
X150014504Y-116272993D01*
X150020316Y-116296197D01*
X150023826Y-116319858D01*
X150025000Y-116343750D01*
X150025000Y-117256250D01*
X150023826Y-117280142D01*
X150020316Y-117303803D01*
X150014504Y-117327007D01*
X150006446Y-117349529D01*
X149996218Y-117371153D01*
X149983921Y-117391670D01*
X149969671Y-117410883D01*
X149953607Y-117428607D01*
X149935883Y-117444671D01*
X149916670Y-117458921D01*
X149896153Y-117471218D01*
X149874529Y-117481446D01*
X149852007Y-117489504D01*
X149828803Y-117495316D01*
X149805142Y-117498826D01*
X149781250Y-117500000D01*
X149293750Y-117500000D01*
X149269858Y-117498826D01*
X149246197Y-117495316D01*
X149222993Y-117489504D01*
X149200471Y-117481446D01*
X149178847Y-117471218D01*
X149158330Y-117458921D01*
X149139117Y-117444671D01*
X149121393Y-117428607D01*
X149105329Y-117410883D01*
X149091079Y-117391670D01*
X149078782Y-117371153D01*
X149068554Y-117349529D01*
X149060496Y-117327007D01*
X149054684Y-117303803D01*
X149051174Y-117280142D01*
X149050000Y-117256250D01*
X149050000Y-116343750D01*
X149051174Y-116319858D01*
X149054684Y-116296197D01*
X149060496Y-116272993D01*
X149068554Y-116250471D01*
X149078782Y-116228847D01*
X149091079Y-116208330D01*
X149105329Y-116189117D01*
X149121393Y-116171393D01*
X149139117Y-116155329D01*
X149158330Y-116141079D01*
X149178847Y-116128782D01*
X149200471Y-116118554D01*
X149222993Y-116110496D01*
X149246197Y-116104684D01*
X149269858Y-116101174D01*
X149293750Y-116100000D01*
X149781250Y-116100000D01*
X149805142Y-116101174D01*
X149805142Y-116101174D01*
G37*
D13*
X149537500Y-116800000D03*
D10*
X128900000Y-67140000D03*
X126360000Y-67140000D03*
X123820000Y-67140000D03*
D11*
X121280000Y-67140000D03*
D14*
X138350000Y-118460000D03*
X131350000Y-118460000D03*
X134850000Y-107400000D03*
D15*
X138350000Y-109930000D03*
X131350000Y-115930000D03*
D16*
X127350000Y-116930000D03*
X127350000Y-112930000D03*
X127350000Y-108930000D03*
X142350000Y-112930000D03*
X142350000Y-108930000D03*
X142350000Y-116930000D03*
D17*
X107950000Y-100900000D03*
X107950000Y-105100000D03*
X95250000Y-105100000D03*
X95250000Y-100900000D03*
D18*
X112400000Y-104200000D03*
X112400000Y-101800000D03*
X90800000Y-104200000D03*
X90800000Y-101700000D03*
D12*
G36*
X141830142Y-72188674D02*
G01*
X141853803Y-72192184D01*
X141877007Y-72197996D01*
X141899529Y-72206054D01*
X141921153Y-72216282D01*
X141941670Y-72228579D01*
X141960883Y-72242829D01*
X141978607Y-72258893D01*
X141994671Y-72276617D01*
X142008921Y-72295830D01*
X142021218Y-72316347D01*
X142031446Y-72337971D01*
X142039504Y-72360493D01*
X142045316Y-72383697D01*
X142048826Y-72407358D01*
X142050000Y-72431250D01*
X142050000Y-72918750D01*
X142048826Y-72942642D01*
X142045316Y-72966303D01*
X142039504Y-72989507D01*
X142031446Y-73012029D01*
X142021218Y-73033653D01*
X142008921Y-73054170D01*
X141994671Y-73073383D01*
X141978607Y-73091107D01*
X141960883Y-73107171D01*
X141941670Y-73121421D01*
X141921153Y-73133718D01*
X141899529Y-73143946D01*
X141877007Y-73152004D01*
X141853803Y-73157816D01*
X141830142Y-73161326D01*
X141806250Y-73162500D01*
X140893750Y-73162500D01*
X140869858Y-73161326D01*
X140846197Y-73157816D01*
X140822993Y-73152004D01*
X140800471Y-73143946D01*
X140778847Y-73133718D01*
X140758330Y-73121421D01*
X140739117Y-73107171D01*
X140721393Y-73091107D01*
X140705329Y-73073383D01*
X140691079Y-73054170D01*
X140678782Y-73033653D01*
X140668554Y-73012029D01*
X140660496Y-72989507D01*
X140654684Y-72966303D01*
X140651174Y-72942642D01*
X140650000Y-72918750D01*
X140650000Y-72431250D01*
X140651174Y-72407358D01*
X140654684Y-72383697D01*
X140660496Y-72360493D01*
X140668554Y-72337971D01*
X140678782Y-72316347D01*
X140691079Y-72295830D01*
X140705329Y-72276617D01*
X140721393Y-72258893D01*
X140739117Y-72242829D01*
X140758330Y-72228579D01*
X140778847Y-72216282D01*
X140800471Y-72206054D01*
X140822993Y-72197996D01*
X140846197Y-72192184D01*
X140869858Y-72188674D01*
X140893750Y-72187500D01*
X141806250Y-72187500D01*
X141830142Y-72188674D01*
X141830142Y-72188674D01*
G37*
D13*
X141350000Y-72675000D03*
D12*
G36*
X141830142Y-70313674D02*
G01*
X141853803Y-70317184D01*
X141877007Y-70322996D01*
X141899529Y-70331054D01*
X141921153Y-70341282D01*
X141941670Y-70353579D01*
X141960883Y-70367829D01*
X141978607Y-70383893D01*
X141994671Y-70401617D01*
X142008921Y-70420830D01*
X142021218Y-70441347D01*
X142031446Y-70462971D01*
X142039504Y-70485493D01*
X142045316Y-70508697D01*
X142048826Y-70532358D01*
X142050000Y-70556250D01*
X142050000Y-71043750D01*
X142048826Y-71067642D01*
X142045316Y-71091303D01*
X142039504Y-71114507D01*
X142031446Y-71137029D01*
X142021218Y-71158653D01*
X142008921Y-71179170D01*
X141994671Y-71198383D01*
X141978607Y-71216107D01*
X141960883Y-71232171D01*
X141941670Y-71246421D01*
X141921153Y-71258718D01*
X141899529Y-71268946D01*
X141877007Y-71277004D01*
X141853803Y-71282816D01*
X141830142Y-71286326D01*
X141806250Y-71287500D01*
X140893750Y-71287500D01*
X140869858Y-71286326D01*
X140846197Y-71282816D01*
X140822993Y-71277004D01*
X140800471Y-71268946D01*
X140778847Y-71258718D01*
X140758330Y-71246421D01*
X140739117Y-71232171D01*
X140721393Y-71216107D01*
X140705329Y-71198383D01*
X140691079Y-71179170D01*
X140678782Y-71158653D01*
X140668554Y-71137029D01*
X140660496Y-71114507D01*
X140654684Y-71091303D01*
X140651174Y-71067642D01*
X140650000Y-71043750D01*
X140650000Y-70556250D01*
X140651174Y-70532358D01*
X140654684Y-70508697D01*
X140660496Y-70485493D01*
X140668554Y-70462971D01*
X140678782Y-70441347D01*
X140691079Y-70420830D01*
X140705329Y-70401617D01*
X140721393Y-70383893D01*
X140739117Y-70367829D01*
X140758330Y-70353579D01*
X140778847Y-70341282D01*
X140800471Y-70331054D01*
X140822993Y-70322996D01*
X140846197Y-70317184D01*
X140869858Y-70313674D01*
X140893750Y-70312500D01*
X141806250Y-70312500D01*
X141830142Y-70313674D01*
X141830142Y-70313674D01*
G37*
D13*
X141350000Y-70800000D03*
D12*
G36*
X142280142Y-65826174D02*
G01*
X142303803Y-65829684D01*
X142327007Y-65835496D01*
X142349529Y-65843554D01*
X142371153Y-65853782D01*
X142391670Y-65866079D01*
X142410883Y-65880329D01*
X142428607Y-65896393D01*
X142444671Y-65914117D01*
X142458921Y-65933330D01*
X142471218Y-65953847D01*
X142481446Y-65975471D01*
X142489504Y-65997993D01*
X142495316Y-66021197D01*
X142498826Y-66044858D01*
X142500000Y-66068750D01*
X142500000Y-66556250D01*
X142498826Y-66580142D01*
X142495316Y-66603803D01*
X142489504Y-66627007D01*
X142481446Y-66649529D01*
X142471218Y-66671153D01*
X142458921Y-66691670D01*
X142444671Y-66710883D01*
X142428607Y-66728607D01*
X142410883Y-66744671D01*
X142391670Y-66758921D01*
X142371153Y-66771218D01*
X142349529Y-66781446D01*
X142327007Y-66789504D01*
X142303803Y-66795316D01*
X142280142Y-66798826D01*
X142256250Y-66800000D01*
X141343750Y-66800000D01*
X141319858Y-66798826D01*
X141296197Y-66795316D01*
X141272993Y-66789504D01*
X141250471Y-66781446D01*
X141228847Y-66771218D01*
X141208330Y-66758921D01*
X141189117Y-66744671D01*
X141171393Y-66728607D01*
X141155329Y-66710883D01*
X141141079Y-66691670D01*
X141128782Y-66671153D01*
X141118554Y-66649529D01*
X141110496Y-66627007D01*
X141104684Y-66603803D01*
X141101174Y-66580142D01*
X141100000Y-66556250D01*
X141100000Y-66068750D01*
X141101174Y-66044858D01*
X141104684Y-66021197D01*
X141110496Y-65997993D01*
X141118554Y-65975471D01*
X141128782Y-65953847D01*
X141141079Y-65933330D01*
X141155329Y-65914117D01*
X141171393Y-65896393D01*
X141189117Y-65880329D01*
X141208330Y-65866079D01*
X141228847Y-65853782D01*
X141250471Y-65843554D01*
X141272993Y-65835496D01*
X141296197Y-65829684D01*
X141319858Y-65826174D01*
X141343750Y-65825000D01*
X142256250Y-65825000D01*
X142280142Y-65826174D01*
X142280142Y-65826174D01*
G37*
D13*
X141800000Y-66312500D03*
D12*
G36*
X142280142Y-67701174D02*
G01*
X142303803Y-67704684D01*
X142327007Y-67710496D01*
X142349529Y-67718554D01*
X142371153Y-67728782D01*
X142391670Y-67741079D01*
X142410883Y-67755329D01*
X142428607Y-67771393D01*
X142444671Y-67789117D01*
X142458921Y-67808330D01*
X142471218Y-67828847D01*
X142481446Y-67850471D01*
X142489504Y-67872993D01*
X142495316Y-67896197D01*
X142498826Y-67919858D01*
X142500000Y-67943750D01*
X142500000Y-68431250D01*
X142498826Y-68455142D01*
X142495316Y-68478803D01*
X142489504Y-68502007D01*
X142481446Y-68524529D01*
X142471218Y-68546153D01*
X142458921Y-68566670D01*
X142444671Y-68585883D01*
X142428607Y-68603607D01*
X142410883Y-68619671D01*
X142391670Y-68633921D01*
X142371153Y-68646218D01*
X142349529Y-68656446D01*
X142327007Y-68664504D01*
X142303803Y-68670316D01*
X142280142Y-68673826D01*
X142256250Y-68675000D01*
X141343750Y-68675000D01*
X141319858Y-68673826D01*
X141296197Y-68670316D01*
X141272993Y-68664504D01*
X141250471Y-68656446D01*
X141228847Y-68646218D01*
X141208330Y-68633921D01*
X141189117Y-68619671D01*
X141171393Y-68603607D01*
X141155329Y-68585883D01*
X141141079Y-68566670D01*
X141128782Y-68546153D01*
X141118554Y-68524529D01*
X141110496Y-68502007D01*
X141104684Y-68478803D01*
X141101174Y-68455142D01*
X141100000Y-68431250D01*
X141100000Y-67943750D01*
X141101174Y-67919858D01*
X141104684Y-67896197D01*
X141110496Y-67872993D01*
X141118554Y-67850471D01*
X141128782Y-67828847D01*
X141141079Y-67808330D01*
X141155329Y-67789117D01*
X141171393Y-67771393D01*
X141189117Y-67755329D01*
X141208330Y-67741079D01*
X141228847Y-67728782D01*
X141250471Y-67718554D01*
X141272993Y-67710496D01*
X141296197Y-67704684D01*
X141319858Y-67701174D01*
X141343750Y-67700000D01*
X142256250Y-67700000D01*
X142280142Y-67701174D01*
X142280142Y-67701174D01*
G37*
D13*
X141800000Y-68187500D03*
D12*
G36*
X147930142Y-112101174D02*
G01*
X147953803Y-112104684D01*
X147977007Y-112110496D01*
X147999529Y-112118554D01*
X148021153Y-112128782D01*
X148041670Y-112141079D01*
X148060883Y-112155329D01*
X148078607Y-112171393D01*
X148094671Y-112189117D01*
X148108921Y-112208330D01*
X148121218Y-112228847D01*
X148131446Y-112250471D01*
X148139504Y-112272993D01*
X148145316Y-112296197D01*
X148148826Y-112319858D01*
X148150000Y-112343750D01*
X148150000Y-113256250D01*
X148148826Y-113280142D01*
X148145316Y-113303803D01*
X148139504Y-113327007D01*
X148131446Y-113349529D01*
X148121218Y-113371153D01*
X148108921Y-113391670D01*
X148094671Y-113410883D01*
X148078607Y-113428607D01*
X148060883Y-113444671D01*
X148041670Y-113458921D01*
X148021153Y-113471218D01*
X147999529Y-113481446D01*
X147977007Y-113489504D01*
X147953803Y-113495316D01*
X147930142Y-113498826D01*
X147906250Y-113500000D01*
X147418750Y-113500000D01*
X147394858Y-113498826D01*
X147371197Y-113495316D01*
X147347993Y-113489504D01*
X147325471Y-113481446D01*
X147303847Y-113471218D01*
X147283330Y-113458921D01*
X147264117Y-113444671D01*
X147246393Y-113428607D01*
X147230329Y-113410883D01*
X147216079Y-113391670D01*
X147203782Y-113371153D01*
X147193554Y-113349529D01*
X147185496Y-113327007D01*
X147179684Y-113303803D01*
X147176174Y-113280142D01*
X147175000Y-113256250D01*
X147175000Y-112343750D01*
X147176174Y-112319858D01*
X147179684Y-112296197D01*
X147185496Y-112272993D01*
X147193554Y-112250471D01*
X147203782Y-112228847D01*
X147216079Y-112208330D01*
X147230329Y-112189117D01*
X147246393Y-112171393D01*
X147264117Y-112155329D01*
X147283330Y-112141079D01*
X147303847Y-112128782D01*
X147325471Y-112118554D01*
X147347993Y-112110496D01*
X147371197Y-112104684D01*
X147394858Y-112101174D01*
X147418750Y-112100000D01*
X147906250Y-112100000D01*
X147930142Y-112101174D01*
X147930142Y-112101174D01*
G37*
D13*
X147662500Y-112800000D03*
D12*
G36*
X149805142Y-112101174D02*
G01*
X149828803Y-112104684D01*
X149852007Y-112110496D01*
X149874529Y-112118554D01*
X149896153Y-112128782D01*
X149916670Y-112141079D01*
X149935883Y-112155329D01*
X149953607Y-112171393D01*
X149969671Y-112189117D01*
X149983921Y-112208330D01*
X149996218Y-112228847D01*
X150006446Y-112250471D01*
X150014504Y-112272993D01*
X150020316Y-112296197D01*
X150023826Y-112319858D01*
X150025000Y-112343750D01*
X150025000Y-113256250D01*
X150023826Y-113280142D01*
X150020316Y-113303803D01*
X150014504Y-113327007D01*
X150006446Y-113349529D01*
X149996218Y-113371153D01*
X149983921Y-113391670D01*
X149969671Y-113410883D01*
X149953607Y-113428607D01*
X149935883Y-113444671D01*
X149916670Y-113458921D01*
X149896153Y-113471218D01*
X149874529Y-113481446D01*
X149852007Y-113489504D01*
X149828803Y-113495316D01*
X149805142Y-113498826D01*
X149781250Y-113500000D01*
X149293750Y-113500000D01*
X149269858Y-113498826D01*
X149246197Y-113495316D01*
X149222993Y-113489504D01*
X149200471Y-113481446D01*
X149178847Y-113471218D01*
X149158330Y-113458921D01*
X149139117Y-113444671D01*
X149121393Y-113428607D01*
X149105329Y-113410883D01*
X149091079Y-113391670D01*
X149078782Y-113371153D01*
X149068554Y-113349529D01*
X149060496Y-113327007D01*
X149054684Y-113303803D01*
X149051174Y-113280142D01*
X149050000Y-113256250D01*
X149050000Y-112343750D01*
X149051174Y-112319858D01*
X149054684Y-112296197D01*
X149060496Y-112272993D01*
X149068554Y-112250471D01*
X149078782Y-112228847D01*
X149091079Y-112208330D01*
X149105329Y-112189117D01*
X149121393Y-112171393D01*
X149139117Y-112155329D01*
X149158330Y-112141079D01*
X149178847Y-112128782D01*
X149200471Y-112118554D01*
X149222993Y-112110496D01*
X149246197Y-112104684D01*
X149269858Y-112101174D01*
X149293750Y-112100000D01*
X149781250Y-112100000D01*
X149805142Y-112101174D01*
X149805142Y-112101174D01*
G37*
D13*
X149537500Y-112800000D03*
D12*
G36*
X148030142Y-108301174D02*
G01*
X148053803Y-108304684D01*
X148077007Y-108310496D01*
X148099529Y-108318554D01*
X148121153Y-108328782D01*
X148141670Y-108341079D01*
X148160883Y-108355329D01*
X148178607Y-108371393D01*
X148194671Y-108389117D01*
X148208921Y-108408330D01*
X148221218Y-108428847D01*
X148231446Y-108450471D01*
X148239504Y-108472993D01*
X148245316Y-108496197D01*
X148248826Y-108519858D01*
X148250000Y-108543750D01*
X148250000Y-109456250D01*
X148248826Y-109480142D01*
X148245316Y-109503803D01*
X148239504Y-109527007D01*
X148231446Y-109549529D01*
X148221218Y-109571153D01*
X148208921Y-109591670D01*
X148194671Y-109610883D01*
X148178607Y-109628607D01*
X148160883Y-109644671D01*
X148141670Y-109658921D01*
X148121153Y-109671218D01*
X148099529Y-109681446D01*
X148077007Y-109689504D01*
X148053803Y-109695316D01*
X148030142Y-109698826D01*
X148006250Y-109700000D01*
X147518750Y-109700000D01*
X147494858Y-109698826D01*
X147471197Y-109695316D01*
X147447993Y-109689504D01*
X147425471Y-109681446D01*
X147403847Y-109671218D01*
X147383330Y-109658921D01*
X147364117Y-109644671D01*
X147346393Y-109628607D01*
X147330329Y-109610883D01*
X147316079Y-109591670D01*
X147303782Y-109571153D01*
X147293554Y-109549529D01*
X147285496Y-109527007D01*
X147279684Y-109503803D01*
X147276174Y-109480142D01*
X147275000Y-109456250D01*
X147275000Y-108543750D01*
X147276174Y-108519858D01*
X147279684Y-108496197D01*
X147285496Y-108472993D01*
X147293554Y-108450471D01*
X147303782Y-108428847D01*
X147316079Y-108408330D01*
X147330329Y-108389117D01*
X147346393Y-108371393D01*
X147364117Y-108355329D01*
X147383330Y-108341079D01*
X147403847Y-108328782D01*
X147425471Y-108318554D01*
X147447993Y-108310496D01*
X147471197Y-108304684D01*
X147494858Y-108301174D01*
X147518750Y-108300000D01*
X148006250Y-108300000D01*
X148030142Y-108301174D01*
X148030142Y-108301174D01*
G37*
D13*
X147762500Y-109000000D03*
D12*
G36*
X149905142Y-108301174D02*
G01*
X149928803Y-108304684D01*
X149952007Y-108310496D01*
X149974529Y-108318554D01*
X149996153Y-108328782D01*
X150016670Y-108341079D01*
X150035883Y-108355329D01*
X150053607Y-108371393D01*
X150069671Y-108389117D01*
X150083921Y-108408330D01*
X150096218Y-108428847D01*
X150106446Y-108450471D01*
X150114504Y-108472993D01*
X150120316Y-108496197D01*
X150123826Y-108519858D01*
X150125000Y-108543750D01*
X150125000Y-109456250D01*
X150123826Y-109480142D01*
X150120316Y-109503803D01*
X150114504Y-109527007D01*
X150106446Y-109549529D01*
X150096218Y-109571153D01*
X150083921Y-109591670D01*
X150069671Y-109610883D01*
X150053607Y-109628607D01*
X150035883Y-109644671D01*
X150016670Y-109658921D01*
X149996153Y-109671218D01*
X149974529Y-109681446D01*
X149952007Y-109689504D01*
X149928803Y-109695316D01*
X149905142Y-109698826D01*
X149881250Y-109700000D01*
X149393750Y-109700000D01*
X149369858Y-109698826D01*
X149346197Y-109695316D01*
X149322993Y-109689504D01*
X149300471Y-109681446D01*
X149278847Y-109671218D01*
X149258330Y-109658921D01*
X149239117Y-109644671D01*
X149221393Y-109628607D01*
X149205329Y-109610883D01*
X149191079Y-109591670D01*
X149178782Y-109571153D01*
X149168554Y-109549529D01*
X149160496Y-109527007D01*
X149154684Y-109503803D01*
X149151174Y-109480142D01*
X149150000Y-109456250D01*
X149150000Y-108543750D01*
X149151174Y-108519858D01*
X149154684Y-108496197D01*
X149160496Y-108472993D01*
X149168554Y-108450471D01*
X149178782Y-108428847D01*
X149191079Y-108408330D01*
X149205329Y-108389117D01*
X149221393Y-108371393D01*
X149239117Y-108355329D01*
X149258330Y-108341079D01*
X149278847Y-108328782D01*
X149300471Y-108318554D01*
X149322993Y-108310496D01*
X149346197Y-108304684D01*
X149369858Y-108301174D01*
X149393750Y-108300000D01*
X149881250Y-108300000D01*
X149905142Y-108301174D01*
X149905142Y-108301174D01*
G37*
D13*
X149637500Y-109000000D03*
D12*
G36*
X122092642Y-116001174D02*
G01*
X122116303Y-116004684D01*
X122139507Y-116010496D01*
X122162029Y-116018554D01*
X122183653Y-116028782D01*
X122204170Y-116041079D01*
X122223383Y-116055329D01*
X122241107Y-116071393D01*
X122257171Y-116089117D01*
X122271421Y-116108330D01*
X122283718Y-116128847D01*
X122293946Y-116150471D01*
X122302004Y-116172993D01*
X122307816Y-116196197D01*
X122311326Y-116219858D01*
X122312500Y-116243750D01*
X122312500Y-117156250D01*
X122311326Y-117180142D01*
X122307816Y-117203803D01*
X122302004Y-117227007D01*
X122293946Y-117249529D01*
X122283718Y-117271153D01*
X122271421Y-117291670D01*
X122257171Y-117310883D01*
X122241107Y-117328607D01*
X122223383Y-117344671D01*
X122204170Y-117358921D01*
X122183653Y-117371218D01*
X122162029Y-117381446D01*
X122139507Y-117389504D01*
X122116303Y-117395316D01*
X122092642Y-117398826D01*
X122068750Y-117400000D01*
X121581250Y-117400000D01*
X121557358Y-117398826D01*
X121533697Y-117395316D01*
X121510493Y-117389504D01*
X121487971Y-117381446D01*
X121466347Y-117371218D01*
X121445830Y-117358921D01*
X121426617Y-117344671D01*
X121408893Y-117328607D01*
X121392829Y-117310883D01*
X121378579Y-117291670D01*
X121366282Y-117271153D01*
X121356054Y-117249529D01*
X121347996Y-117227007D01*
X121342184Y-117203803D01*
X121338674Y-117180142D01*
X121337500Y-117156250D01*
X121337500Y-116243750D01*
X121338674Y-116219858D01*
X121342184Y-116196197D01*
X121347996Y-116172993D01*
X121356054Y-116150471D01*
X121366282Y-116128847D01*
X121378579Y-116108330D01*
X121392829Y-116089117D01*
X121408893Y-116071393D01*
X121426617Y-116055329D01*
X121445830Y-116041079D01*
X121466347Y-116028782D01*
X121487971Y-116018554D01*
X121510493Y-116010496D01*
X121533697Y-116004684D01*
X121557358Y-116001174D01*
X121581250Y-116000000D01*
X122068750Y-116000000D01*
X122092642Y-116001174D01*
X122092642Y-116001174D01*
G37*
D13*
X121825000Y-116700000D03*
D12*
G36*
X120217642Y-116001174D02*
G01*
X120241303Y-116004684D01*
X120264507Y-116010496D01*
X120287029Y-116018554D01*
X120308653Y-116028782D01*
X120329170Y-116041079D01*
X120348383Y-116055329D01*
X120366107Y-116071393D01*
X120382171Y-116089117D01*
X120396421Y-116108330D01*
X120408718Y-116128847D01*
X120418946Y-116150471D01*
X120427004Y-116172993D01*
X120432816Y-116196197D01*
X120436326Y-116219858D01*
X120437500Y-116243750D01*
X120437500Y-117156250D01*
X120436326Y-117180142D01*
X120432816Y-117203803D01*
X120427004Y-117227007D01*
X120418946Y-117249529D01*
X120408718Y-117271153D01*
X120396421Y-117291670D01*
X120382171Y-117310883D01*
X120366107Y-117328607D01*
X120348383Y-117344671D01*
X120329170Y-117358921D01*
X120308653Y-117371218D01*
X120287029Y-117381446D01*
X120264507Y-117389504D01*
X120241303Y-117395316D01*
X120217642Y-117398826D01*
X120193750Y-117400000D01*
X119706250Y-117400000D01*
X119682358Y-117398826D01*
X119658697Y-117395316D01*
X119635493Y-117389504D01*
X119612971Y-117381446D01*
X119591347Y-117371218D01*
X119570830Y-117358921D01*
X119551617Y-117344671D01*
X119533893Y-117328607D01*
X119517829Y-117310883D01*
X119503579Y-117291670D01*
X119491282Y-117271153D01*
X119481054Y-117249529D01*
X119472996Y-117227007D01*
X119467184Y-117203803D01*
X119463674Y-117180142D01*
X119462500Y-117156250D01*
X119462500Y-116243750D01*
X119463674Y-116219858D01*
X119467184Y-116196197D01*
X119472996Y-116172993D01*
X119481054Y-116150471D01*
X119491282Y-116128847D01*
X119503579Y-116108330D01*
X119517829Y-116089117D01*
X119533893Y-116071393D01*
X119551617Y-116055329D01*
X119570830Y-116041079D01*
X119591347Y-116028782D01*
X119612971Y-116018554D01*
X119635493Y-116010496D01*
X119658697Y-116004684D01*
X119682358Y-116001174D01*
X119706250Y-116000000D01*
X120193750Y-116000000D01*
X120217642Y-116001174D01*
X120217642Y-116001174D01*
G37*
D13*
X119950000Y-116700000D03*
D12*
G36*
X122055142Y-112201174D02*
G01*
X122078803Y-112204684D01*
X122102007Y-112210496D01*
X122124529Y-112218554D01*
X122146153Y-112228782D01*
X122166670Y-112241079D01*
X122185883Y-112255329D01*
X122203607Y-112271393D01*
X122219671Y-112289117D01*
X122233921Y-112308330D01*
X122246218Y-112328847D01*
X122256446Y-112350471D01*
X122264504Y-112372993D01*
X122270316Y-112396197D01*
X122273826Y-112419858D01*
X122275000Y-112443750D01*
X122275000Y-113356250D01*
X122273826Y-113380142D01*
X122270316Y-113403803D01*
X122264504Y-113427007D01*
X122256446Y-113449529D01*
X122246218Y-113471153D01*
X122233921Y-113491670D01*
X122219671Y-113510883D01*
X122203607Y-113528607D01*
X122185883Y-113544671D01*
X122166670Y-113558921D01*
X122146153Y-113571218D01*
X122124529Y-113581446D01*
X122102007Y-113589504D01*
X122078803Y-113595316D01*
X122055142Y-113598826D01*
X122031250Y-113600000D01*
X121543750Y-113600000D01*
X121519858Y-113598826D01*
X121496197Y-113595316D01*
X121472993Y-113589504D01*
X121450471Y-113581446D01*
X121428847Y-113571218D01*
X121408330Y-113558921D01*
X121389117Y-113544671D01*
X121371393Y-113528607D01*
X121355329Y-113510883D01*
X121341079Y-113491670D01*
X121328782Y-113471153D01*
X121318554Y-113449529D01*
X121310496Y-113427007D01*
X121304684Y-113403803D01*
X121301174Y-113380142D01*
X121300000Y-113356250D01*
X121300000Y-112443750D01*
X121301174Y-112419858D01*
X121304684Y-112396197D01*
X121310496Y-112372993D01*
X121318554Y-112350471D01*
X121328782Y-112328847D01*
X121341079Y-112308330D01*
X121355329Y-112289117D01*
X121371393Y-112271393D01*
X121389117Y-112255329D01*
X121408330Y-112241079D01*
X121428847Y-112228782D01*
X121450471Y-112218554D01*
X121472993Y-112210496D01*
X121496197Y-112204684D01*
X121519858Y-112201174D01*
X121543750Y-112200000D01*
X122031250Y-112200000D01*
X122055142Y-112201174D01*
X122055142Y-112201174D01*
G37*
D13*
X121787500Y-112900000D03*
D12*
G36*
X120180142Y-112201174D02*
G01*
X120203803Y-112204684D01*
X120227007Y-112210496D01*
X120249529Y-112218554D01*
X120271153Y-112228782D01*
X120291670Y-112241079D01*
X120310883Y-112255329D01*
X120328607Y-112271393D01*
X120344671Y-112289117D01*
X120358921Y-112308330D01*
X120371218Y-112328847D01*
X120381446Y-112350471D01*
X120389504Y-112372993D01*
X120395316Y-112396197D01*
X120398826Y-112419858D01*
X120400000Y-112443750D01*
X120400000Y-113356250D01*
X120398826Y-113380142D01*
X120395316Y-113403803D01*
X120389504Y-113427007D01*
X120381446Y-113449529D01*
X120371218Y-113471153D01*
X120358921Y-113491670D01*
X120344671Y-113510883D01*
X120328607Y-113528607D01*
X120310883Y-113544671D01*
X120291670Y-113558921D01*
X120271153Y-113571218D01*
X120249529Y-113581446D01*
X120227007Y-113589504D01*
X120203803Y-113595316D01*
X120180142Y-113598826D01*
X120156250Y-113600000D01*
X119668750Y-113600000D01*
X119644858Y-113598826D01*
X119621197Y-113595316D01*
X119597993Y-113589504D01*
X119575471Y-113581446D01*
X119553847Y-113571218D01*
X119533330Y-113558921D01*
X119514117Y-113544671D01*
X119496393Y-113528607D01*
X119480329Y-113510883D01*
X119466079Y-113491670D01*
X119453782Y-113471153D01*
X119443554Y-113449529D01*
X119435496Y-113427007D01*
X119429684Y-113403803D01*
X119426174Y-113380142D01*
X119425000Y-113356250D01*
X119425000Y-112443750D01*
X119426174Y-112419858D01*
X119429684Y-112396197D01*
X119435496Y-112372993D01*
X119443554Y-112350471D01*
X119453782Y-112328847D01*
X119466079Y-112308330D01*
X119480329Y-112289117D01*
X119496393Y-112271393D01*
X119514117Y-112255329D01*
X119533330Y-112241079D01*
X119553847Y-112228782D01*
X119575471Y-112218554D01*
X119597993Y-112210496D01*
X119621197Y-112204684D01*
X119644858Y-112201174D01*
X119668750Y-112200000D01*
X120156250Y-112200000D01*
X120180142Y-112201174D01*
X120180142Y-112201174D01*
G37*
D13*
X119912500Y-112900000D03*
D19*
X145600000Y-69970000D03*
D20*
X145600000Y-72510000D03*
X145600000Y-75050000D03*
X145600000Y-77590000D03*
X145600000Y-80130000D03*
X145600000Y-82670000D03*
X145600000Y-85210000D03*
X145600000Y-87750000D03*
X145600000Y-90290000D03*
X145600000Y-92830000D03*
X145600000Y-95370000D03*
X145600000Y-97910000D03*
X145600000Y-100450000D03*
X160840000Y-69970000D03*
X160840000Y-72510000D03*
X160840000Y-75050000D03*
X160840000Y-77590000D03*
X160840000Y-80130000D03*
X160840000Y-82670000D03*
X160840000Y-85210000D03*
X160840000Y-87750000D03*
X160840000Y-90290000D03*
X160840000Y-92830000D03*
X160840000Y-95370000D03*
X160840000Y-97910000D03*
X160840000Y-100450000D03*
X145600000Y-102990000D03*
X160840000Y-102990000D03*
D21*
X112300000Y-106950000D03*
X124050000Y-108900000D03*
X153000000Y-104950000D03*
D22*
X112400000Y-104200000D02*
X112400000Y-106850000D01*
X112400000Y-106850000D02*
X112300000Y-106950000D01*
X112300000Y-106950000D02*
X112200000Y-107050000D01*
X126100000Y-108930000D02*
X126070000Y-108900000D01*
X127350000Y-108930000D02*
X126100000Y-108930000D01*
X126070000Y-108900000D02*
X124050000Y-108900000D01*
X124050000Y-108900000D02*
X124050000Y-108900000D01*
X90800000Y-104200000D02*
X90800000Y-101700000D01*
X129463763Y-70243763D02*
X127209999Y-67989999D01*
X127209999Y-67989999D02*
X126360000Y-67140000D01*
X140793763Y-70243763D02*
X129463763Y-70243763D01*
X141350000Y-70800000D02*
X140793763Y-70243763D01*
X154162500Y-66312500D02*
X141800000Y-66312500D01*
X158050000Y-70200000D02*
X154162500Y-66312500D01*
X158050000Y-89250000D02*
X158050000Y-70200000D01*
X159090000Y-90290000D02*
X158050000Y-89250000D01*
X160840000Y-90290000D02*
X159090000Y-90290000D01*
X130283737Y-65756263D02*
X129749999Y-66290001D01*
X141243763Y-65756263D02*
X130283737Y-65756263D01*
X129749999Y-66290001D02*
X128900000Y-67140000D01*
X141800000Y-66312500D02*
X141243763Y-65756263D01*
X147286447Y-121900022D02*
X151800040Y-117386430D01*
X114100000Y-101800000D02*
X115450000Y-103150000D01*
X123009262Y-121900022D02*
X147286447Y-121900022D01*
X115450000Y-103150000D02*
X115450000Y-114340760D01*
X115450000Y-114340760D02*
X123009262Y-121900022D01*
X112400000Y-101800000D02*
X114100000Y-101800000D01*
X151800040Y-106149960D02*
X151800040Y-106299960D01*
X153000000Y-104950000D02*
X151800040Y-106149960D01*
X151800040Y-117386430D02*
X151800040Y-106299960D01*
X121817500Y-112930000D02*
X121787500Y-112900000D01*
X127350000Y-112930000D02*
X121817500Y-112930000D01*
X119433160Y-111874990D02*
X120762490Y-111874990D01*
X118250000Y-113058150D02*
X119433160Y-111874990D01*
X118250000Y-116504350D02*
X118250000Y-113058150D01*
X123195660Y-121450010D02*
X118250000Y-116504350D01*
X151278230Y-117200030D02*
X147028250Y-121450010D01*
X120762490Y-111874990D02*
X121787500Y-112900000D01*
X147028250Y-121450010D02*
X123195660Y-121450010D01*
X151350030Y-117200030D02*
X151278230Y-117200030D01*
X151350030Y-83340030D02*
X151350030Y-84699970D01*
X145600000Y-77590000D02*
X151350030Y-83340030D01*
X151350030Y-84699970D02*
X151350030Y-117200030D01*
X122055000Y-116930000D02*
X121825000Y-116700000D01*
X127350000Y-116930000D02*
X122055000Y-116930000D01*
X146841850Y-121000000D02*
X150900020Y-116941830D01*
X125325000Y-121000000D02*
X146841850Y-121000000D01*
X121825000Y-117500000D02*
X125325000Y-121000000D01*
X121825000Y-116700000D02*
X121825000Y-117500000D01*
X150900020Y-85430020D02*
X150900020Y-85600020D01*
X145600000Y-80130000D02*
X150900020Y-85430020D01*
X150900020Y-116941830D02*
X150900020Y-85600020D01*
X142420000Y-109000000D02*
X142350000Y-108930000D01*
X147762500Y-109000000D02*
X142420000Y-109000000D01*
X147762500Y-89912500D02*
X147762500Y-90562500D01*
X145600000Y-87750000D02*
X147762500Y-89912500D01*
X147762500Y-90562500D02*
X147762500Y-109000000D01*
X147662500Y-112800000D02*
X143250000Y-112800000D01*
X148575010Y-111887490D02*
X148218737Y-112243763D01*
X148218737Y-112243763D02*
X147662500Y-112800000D01*
X145600000Y-85210000D02*
X148575010Y-88185010D01*
X148575010Y-88725010D02*
X148575010Y-111887490D01*
X148575010Y-88185010D02*
X148575010Y-88725010D01*
X147532500Y-116930000D02*
X147662500Y-116800000D01*
X142350000Y-116930000D02*
X147532500Y-116930000D01*
X147662500Y-116800000D02*
X148456250Y-116006250D01*
X150450010Y-114012490D02*
X148456250Y-116006250D01*
X147170000Y-82670000D02*
X150450010Y-85950010D01*
X145600000Y-82670000D02*
X147170000Y-82670000D01*
X150450010Y-85950010D02*
X150450010Y-114012490D01*
X113370000Y-75050000D02*
X145600000Y-75050000D01*
X102120000Y-86300000D02*
X113370000Y-75050000D01*
D23*
G36*
X164822911Y-64797821D02*
G01*
X164415905Y-65069774D01*
X164069774Y-65415905D01*
X163797821Y-65822911D01*
X163610497Y-66275152D01*
X163515000Y-66755249D01*
X163515000Y-67244751D01*
X163610497Y-67724848D01*
X163797821Y-68177089D01*
X164069774Y-68584095D01*
X164415905Y-68930226D01*
X164822911Y-69202179D01*
X165275152Y-69389503D01*
X165755249Y-69485000D01*
X166244751Y-69485000D01*
X166260092Y-69481949D01*
X163678280Y-71134951D01*
X163642539Y-71154055D01*
X163595548Y-71192620D01*
X163547847Y-71230230D01*
X163543461Y-71235367D01*
X163538234Y-71239656D01*
X163499665Y-71286652D01*
X163460223Y-71332841D01*
X163456923Y-71338735D01*
X163452634Y-71343961D01*
X163423977Y-71397574D01*
X163394301Y-71450574D01*
X163392214Y-71456998D01*
X163389027Y-71462961D01*
X163371387Y-71521111D01*
X163352613Y-71578906D01*
X163351819Y-71585619D01*
X163349858Y-71592084D01*
X163343899Y-71652584D01*
X163336765Y-71712905D01*
X163339946Y-71753287D01*
X163339947Y-117246575D01*
X163336765Y-117286970D01*
X163343905Y-117347337D01*
X163349859Y-117407792D01*
X163351819Y-117414252D01*
X163352613Y-117420969D01*
X163371398Y-117478796D01*
X163389028Y-117536915D01*
X163392213Y-117542874D01*
X163394301Y-117549301D01*
X163423987Y-117602319D01*
X163452635Y-117655915D01*
X163456922Y-117661139D01*
X163460223Y-117667034D01*
X163499670Y-117713228D01*
X163538235Y-117760220D01*
X163543461Y-117764509D01*
X163547847Y-117769645D01*
X163595559Y-117807265D01*
X163642540Y-117845820D01*
X163678274Y-117864921D01*
X166260375Y-119518108D01*
X166244751Y-119515000D01*
X165755249Y-119515000D01*
X165275152Y-119610497D01*
X164822911Y-119797821D01*
X164415905Y-120069774D01*
X164069774Y-120415905D01*
X163797821Y-120822911D01*
X163610497Y-121275152D01*
X163515000Y-121755249D01*
X163515000Y-122244751D01*
X163610497Y-122724848D01*
X163797821Y-123177089D01*
X164069774Y-123584095D01*
X164415905Y-123930226D01*
X164822911Y-124202179D01*
X165155392Y-124339897D01*
X164033573Y-124339897D01*
X163999926Y-124336583D01*
X163999644Y-124336611D01*
X163999376Y-124336584D01*
X163965373Y-124339897D01*
X84844608Y-124339897D01*
X85177089Y-124202179D01*
X85584095Y-123930226D01*
X85930226Y-123584095D01*
X86202179Y-123177089D01*
X86389503Y-122724848D01*
X86485000Y-122244751D01*
X86485000Y-121755249D01*
X86389503Y-121275152D01*
X86202179Y-120822911D01*
X85930226Y-120415905D01*
X85584095Y-120069774D01*
X85177089Y-119797821D01*
X84724848Y-119610497D01*
X84244751Y-119515000D01*
X83755249Y-119515000D01*
X83739268Y-119518179D01*
X86321616Y-117864835D01*
X86357341Y-117845739D01*
X86404290Y-117807209D01*
X86452034Y-117769565D01*
X86456423Y-117764425D01*
X86461646Y-117760139D01*
X86500201Y-117713159D01*
X86539658Y-117666954D01*
X86542958Y-117661060D01*
X86547247Y-117655834D01*
X86575904Y-117602221D01*
X86605580Y-117549221D01*
X86607667Y-117542797D01*
X86610854Y-117536834D01*
X86628494Y-117478684D01*
X86647268Y-117420889D01*
X86648062Y-117414175D01*
X86650023Y-117407711D01*
X86655979Y-117347239D01*
X86663117Y-117286890D01*
X86659935Y-117246498D01*
X86659935Y-104894645D01*
X93165000Y-104894645D01*
X93165000Y-105305355D01*
X93245126Y-105708172D01*
X93402297Y-106087618D01*
X93630475Y-106429110D01*
X93920890Y-106719525D01*
X94262382Y-106947703D01*
X94641828Y-107104874D01*
X95044645Y-107185000D01*
X95455355Y-107185000D01*
X95858172Y-107104874D01*
X96237618Y-106947703D01*
X96579110Y-106719525D01*
X96869525Y-106429110D01*
X97097703Y-106087618D01*
X97254874Y-105708172D01*
X97335000Y-105305355D01*
X97335000Y-104894645D01*
X105865000Y-104894645D01*
X105865000Y-105305355D01*
X105945126Y-105708172D01*
X106102297Y-106087618D01*
X106330475Y-106429110D01*
X106620890Y-106719525D01*
X106962382Y-106947703D01*
X107341828Y-107104874D01*
X107744645Y-107185000D01*
X108155355Y-107185000D01*
X108558172Y-107104874D01*
X108937618Y-106947703D01*
X109279110Y-106719525D01*
X109569525Y-106429110D01*
X109797703Y-106087618D01*
X109954874Y-105708172D01*
X110035000Y-105305355D01*
X110035000Y-104894645D01*
X109954874Y-104491828D01*
X109797703Y-104112382D01*
X109569525Y-103770890D01*
X109279110Y-103480475D01*
X108937618Y-103252297D01*
X108558172Y-103095126D01*
X108155355Y-103015000D01*
X107744645Y-103015000D01*
X107341828Y-103095126D01*
X106962382Y-103252297D01*
X106620890Y-103480475D01*
X106330475Y-103770890D01*
X106102297Y-104112382D01*
X105945126Y-104491828D01*
X105865000Y-104894645D01*
X97335000Y-104894645D01*
X97254874Y-104491828D01*
X97097703Y-104112382D01*
X96869525Y-103770890D01*
X96579110Y-103480475D01*
X96237618Y-103252297D01*
X95858172Y-103095126D01*
X95455355Y-103015000D01*
X95044645Y-103015000D01*
X94641828Y-103095126D01*
X94262382Y-103252297D01*
X93920890Y-103480475D01*
X93630475Y-103770890D01*
X93402297Y-104112382D01*
X93245126Y-104491828D01*
X93165000Y-104894645D01*
X86659935Y-104894645D01*
X86659935Y-100694645D01*
X93165000Y-100694645D01*
X93165000Y-101105355D01*
X93245126Y-101508172D01*
X93402297Y-101887618D01*
X93630475Y-102229110D01*
X93920890Y-102519525D01*
X94262382Y-102747703D01*
X94641828Y-102904874D01*
X95044645Y-102985000D01*
X95455355Y-102985000D01*
X95858172Y-102904874D01*
X96237618Y-102747703D01*
X96579110Y-102519525D01*
X96869525Y-102229110D01*
X97097703Y-101887618D01*
X97254874Y-101508172D01*
X97335000Y-101105355D01*
X97335000Y-100694645D01*
X105865000Y-100694645D01*
X105865000Y-101105355D01*
X105945126Y-101508172D01*
X106102297Y-101887618D01*
X106330475Y-102229110D01*
X106620890Y-102519525D01*
X106962382Y-102747703D01*
X107341828Y-102904874D01*
X107744645Y-102985000D01*
X108155355Y-102985000D01*
X108558172Y-102904874D01*
X108937618Y-102747703D01*
X109279110Y-102519525D01*
X109569525Y-102229110D01*
X109797703Y-101887618D01*
X109954874Y-101508172D01*
X110035000Y-101105355D01*
X110035000Y-100694645D01*
X109954874Y-100291828D01*
X109797703Y-99912382D01*
X109569525Y-99570890D01*
X109279110Y-99280475D01*
X108937618Y-99052297D01*
X108558172Y-98895126D01*
X108155355Y-98815000D01*
X107744645Y-98815000D01*
X107341828Y-98895126D01*
X106962382Y-99052297D01*
X106620890Y-99280475D01*
X106330475Y-99570890D01*
X106102297Y-99912382D01*
X105945126Y-100291828D01*
X105865000Y-100694645D01*
X97335000Y-100694645D01*
X97254874Y-100291828D01*
X97097703Y-99912382D01*
X96869525Y-99570890D01*
X96579110Y-99280475D01*
X96237618Y-99052297D01*
X95858172Y-98895126D01*
X95455355Y-98815000D01*
X95044645Y-98815000D01*
X94641828Y-98895126D01*
X94262382Y-99052297D01*
X93920890Y-99280475D01*
X93630475Y-99570890D01*
X93402297Y-99912382D01*
X93245126Y-100291828D01*
X93165000Y-100694645D01*
X86659935Y-100694645D01*
X86659935Y-85450000D01*
X93011928Y-85450000D01*
X93011928Y-87150000D01*
X93024188Y-87274482D01*
X93060498Y-87394180D01*
X93119463Y-87504494D01*
X93198815Y-87601185D01*
X93295506Y-87680537D01*
X93405820Y-87739502D01*
X93525518Y-87775812D01*
X93650000Y-87788072D01*
X95350000Y-87788072D01*
X95474482Y-87775812D01*
X95594180Y-87739502D01*
X95704494Y-87680537D01*
X95801185Y-87601185D01*
X95880537Y-87504494D01*
X95939502Y-87394180D01*
X95960393Y-87325313D01*
X95984866Y-87355134D01*
X96210986Y-87540706D01*
X96468966Y-87678599D01*
X96748889Y-87763513D01*
X96967050Y-87785000D01*
X97112950Y-87785000D01*
X97331111Y-87763513D01*
X97611034Y-87678599D01*
X97869014Y-87540706D01*
X98095134Y-87355134D01*
X98280706Y-87129014D01*
X98310000Y-87074209D01*
X98339294Y-87129014D01*
X98524866Y-87355134D01*
X98750986Y-87540706D01*
X99008966Y-87678599D01*
X99288889Y-87763513D01*
X99507050Y-87785000D01*
X99652950Y-87785000D01*
X99871111Y-87763513D01*
X100151034Y-87678599D01*
X100409014Y-87540706D01*
X100635134Y-87355134D01*
X100820706Y-87129014D01*
X100850000Y-87074209D01*
X100879294Y-87129014D01*
X101064866Y-87355134D01*
X101290986Y-87540706D01*
X101548966Y-87678599D01*
X101828889Y-87763513D01*
X102047050Y-87785000D01*
X102192950Y-87785000D01*
X102411111Y-87763513D01*
X102691034Y-87678599D01*
X102949014Y-87540706D01*
X103175134Y-87355134D01*
X103360706Y-87129014D01*
X103390000Y-87074209D01*
X103419294Y-87129014D01*
X103604866Y-87355134D01*
X103830986Y-87540706D01*
X104088966Y-87678599D01*
X104368889Y-87763513D01*
X104587050Y-87785000D01*
X104732950Y-87785000D01*
X104951111Y-87763513D01*
X105231034Y-87678599D01*
X105489014Y-87540706D01*
X105715134Y-87355134D01*
X105900706Y-87129014D01*
X106038599Y-86871034D01*
X106123513Y-86591111D01*
X106152185Y-86300000D01*
X106123513Y-86008889D01*
X106038599Y-85728966D01*
X105900706Y-85470986D01*
X105715134Y-85244866D01*
X105489014Y-85059294D01*
X105231034Y-84921401D01*
X104951111Y-84836487D01*
X104732950Y-84815000D01*
X104679801Y-84815000D01*
X113684802Y-75810000D01*
X144381957Y-75810000D01*
X144485363Y-75964759D01*
X144685241Y-76164637D01*
X144917759Y-76320000D01*
X144685241Y-76475363D01*
X144485363Y-76675241D01*
X144328320Y-76910273D01*
X144220147Y-77171426D01*
X144165000Y-77448665D01*
X144165000Y-77731335D01*
X144220147Y-78008574D01*
X144328320Y-78269727D01*
X144485363Y-78504759D01*
X144685241Y-78704637D01*
X144917759Y-78860000D01*
X144685241Y-79015363D01*
X144485363Y-79215241D01*
X144328320Y-79450273D01*
X144220147Y-79711426D01*
X144165000Y-79988665D01*
X144165000Y-80271335D01*
X144220147Y-80548574D01*
X144328320Y-80809727D01*
X144485363Y-81044759D01*
X144685241Y-81244637D01*
X144917759Y-81400000D01*
X144685241Y-81555363D01*
X144485363Y-81755241D01*
X144328320Y-81990273D01*
X144220147Y-82251426D01*
X144165000Y-82528665D01*
X144165000Y-82811335D01*
X144220147Y-83088574D01*
X144328320Y-83349727D01*
X144485363Y-83584759D01*
X144685241Y-83784637D01*
X144917759Y-83940000D01*
X144685241Y-84095363D01*
X144485363Y-84295241D01*
X144328320Y-84530273D01*
X144220147Y-84791426D01*
X144165000Y-85068665D01*
X144165000Y-85351335D01*
X144220147Y-85628574D01*
X144328320Y-85889727D01*
X144485363Y-86124759D01*
X144685241Y-86324637D01*
X144917759Y-86480000D01*
X144685241Y-86635363D01*
X144485363Y-86835241D01*
X144328320Y-87070273D01*
X144220147Y-87331426D01*
X144165000Y-87608665D01*
X144165000Y-87891335D01*
X144220147Y-88168574D01*
X144328320Y-88429727D01*
X144485363Y-88664759D01*
X144685241Y-88864637D01*
X144917759Y-89020000D01*
X144685241Y-89175363D01*
X144485363Y-89375241D01*
X144328320Y-89610273D01*
X144220147Y-89871426D01*
X144165000Y-90148665D01*
X144165000Y-90431335D01*
X144220147Y-90708574D01*
X144328320Y-90969727D01*
X144485363Y-91204759D01*
X144685241Y-91404637D01*
X144917759Y-91560000D01*
X144685241Y-91715363D01*
X144485363Y-91915241D01*
X144328320Y-92150273D01*
X144220147Y-92411426D01*
X144165000Y-92688665D01*
X144165000Y-92971335D01*
X144220147Y-93248574D01*
X144328320Y-93509727D01*
X144485363Y-93744759D01*
X144685241Y-93944637D01*
X144917759Y-94100000D01*
X144685241Y-94255363D01*
X144485363Y-94455241D01*
X144328320Y-94690273D01*
X144220147Y-94951426D01*
X144165000Y-95228665D01*
X144165000Y-95511335D01*
X144220147Y-95788574D01*
X144328320Y-96049727D01*
X144485363Y-96284759D01*
X144685241Y-96484637D01*
X144917759Y-96640000D01*
X144685241Y-96795363D01*
X144485363Y-96995241D01*
X144328320Y-97230273D01*
X144220147Y-97491426D01*
X144165000Y-97768665D01*
X144165000Y-98051335D01*
X144220147Y-98328574D01*
X144328320Y-98589727D01*
X144485363Y-98824759D01*
X144685241Y-99024637D01*
X144917759Y-99180000D01*
X144685241Y-99335363D01*
X144485363Y-99535241D01*
X144328320Y-99770273D01*
X144220147Y-100031426D01*
X144165000Y-100308665D01*
X144165000Y-100591335D01*
X144220147Y-100868574D01*
X144328320Y-101129727D01*
X144485363Y-101364759D01*
X144685241Y-101564637D01*
X144917759Y-101720000D01*
X144685241Y-101875363D01*
X144485363Y-102075241D01*
X144328320Y-102310273D01*
X144220147Y-102571426D01*
X144165000Y-102848665D01*
X144165000Y-103131335D01*
X144220147Y-103408574D01*
X144328320Y-103669727D01*
X144485363Y-103904759D01*
X144685241Y-104104637D01*
X144920273Y-104261680D01*
X145181426Y-104369853D01*
X145458665Y-104425000D01*
X145741335Y-104425000D01*
X146018574Y-104369853D01*
X146279727Y-104261680D01*
X146514759Y-104104637D01*
X146714637Y-103904759D01*
X146871680Y-103669727D01*
X146979853Y-103408574D01*
X147002501Y-103294718D01*
X147002501Y-107832155D01*
X146895208Y-107920208D01*
X146785542Y-108053836D01*
X146704053Y-108206291D01*
X146693827Y-108240000D01*
X143988072Y-108240000D01*
X143988072Y-107980000D01*
X143975812Y-107855518D01*
X143939502Y-107735820D01*
X143880537Y-107625506D01*
X143801185Y-107528815D01*
X143704494Y-107449463D01*
X143594180Y-107390498D01*
X143474482Y-107354188D01*
X143350000Y-107341928D01*
X141350000Y-107341928D01*
X141225518Y-107354188D01*
X141105820Y-107390498D01*
X140995506Y-107449463D01*
X140898815Y-107528815D01*
X140819463Y-107625506D01*
X140760498Y-107735820D01*
X140724188Y-107855518D01*
X140711928Y-107980000D01*
X140711928Y-109880000D01*
X140724188Y-110004482D01*
X140760498Y-110124180D01*
X140819463Y-110234494D01*
X140898815Y-110331185D01*
X140995506Y-110410537D01*
X141105820Y-110469502D01*
X141225518Y-110505812D01*
X141350000Y-110518072D01*
X143350000Y-110518072D01*
X143474482Y-110505812D01*
X143594180Y-110469502D01*
X143704494Y-110410537D01*
X143801185Y-110331185D01*
X143880537Y-110234494D01*
X143939502Y-110124180D01*
X143975812Y-110004482D01*
X143988072Y-109880000D01*
X143988072Y-109760000D01*
X146693827Y-109760000D01*
X146704053Y-109793709D01*
X146785542Y-109946164D01*
X146895208Y-110079792D01*
X147028836Y-110189458D01*
X147181291Y-110270947D01*
X147346715Y-110321128D01*
X147518750Y-110338072D01*
X147815011Y-110338072D01*
X147815011Y-111461928D01*
X147418750Y-111461928D01*
X147246715Y-111478872D01*
X147081291Y-111529053D01*
X146928836Y-111610542D01*
X146795208Y-111720208D01*
X146685542Y-111853836D01*
X146604053Y-112006291D01*
X146593827Y-112040000D01*
X143988072Y-112040000D01*
X143988072Y-111980000D01*
X143975812Y-111855518D01*
X143939502Y-111735820D01*
X143880537Y-111625506D01*
X143801185Y-111528815D01*
X143704494Y-111449463D01*
X143594180Y-111390498D01*
X143474482Y-111354188D01*
X143350000Y-111341928D01*
X141350000Y-111341928D01*
X141225518Y-111354188D01*
X141105820Y-111390498D01*
X140995506Y-111449463D01*
X140898815Y-111528815D01*
X140819463Y-111625506D01*
X140760498Y-111735820D01*
X140724188Y-111855518D01*
X140711928Y-111980000D01*
X140711928Y-113880000D01*
X140724188Y-114004482D01*
X140760498Y-114124180D01*
X140819463Y-114234494D01*
X140898815Y-114331185D01*
X140995506Y-114410537D01*
X141105820Y-114469502D01*
X141225518Y-114505812D01*
X141350000Y-114518072D01*
X143350000Y-114518072D01*
X143474482Y-114505812D01*
X143594180Y-114469502D01*
X143704494Y-114410537D01*
X143801185Y-114331185D01*
X143880537Y-114234494D01*
X143939502Y-114124180D01*
X143975812Y-114004482D01*
X143988072Y-113880000D01*
X143988072Y-113560000D01*
X146593827Y-113560000D01*
X146604053Y-113593709D01*
X146685542Y-113746164D01*
X146795208Y-113879792D01*
X146928836Y-113989458D01*
X147081291Y-114070947D01*
X147246715Y-114121128D01*
X147418750Y-114138072D01*
X147906250Y-114138072D01*
X148078285Y-114121128D01*
X148243709Y-114070947D01*
X148396164Y-113989458D01*
X148529792Y-113879792D01*
X148639458Y-113746164D01*
X148720947Y-113593709D01*
X148771128Y-113428285D01*
X148788072Y-113256250D01*
X148788072Y-112749229D01*
X149086007Y-112451294D01*
X149115011Y-112427491D01*
X149209984Y-112311766D01*
X149280556Y-112179737D01*
X149324013Y-112036476D01*
X149335010Y-111924823D01*
X149335010Y-111924814D01*
X149338686Y-111887491D01*
X149335010Y-111850168D01*
X149335010Y-88222332D01*
X149338686Y-88185009D01*
X149335010Y-88147686D01*
X149335010Y-88147677D01*
X149324013Y-88036024D01*
X149280556Y-87892763D01*
X149209984Y-87760734D01*
X149192559Y-87739502D01*
X149138809Y-87674006D01*
X149138805Y-87674002D01*
X149115011Y-87645009D01*
X149086019Y-87621216D01*
X146998688Y-85533886D01*
X147035000Y-85351335D01*
X147035000Y-85068665D01*
X146979853Y-84791426D01*
X146871680Y-84530273D01*
X146714637Y-84295241D01*
X146514759Y-84095363D01*
X146282241Y-83940000D01*
X146514759Y-83784637D01*
X146714637Y-83584759D01*
X146818043Y-83430000D01*
X146855199Y-83430000D01*
X149690010Y-86264812D01*
X149690011Y-113697686D01*
X147945252Y-115442447D01*
X147945247Y-115442451D01*
X147924020Y-115463678D01*
X147906250Y-115461928D01*
X147418750Y-115461928D01*
X147246715Y-115478872D01*
X147081291Y-115529053D01*
X146928836Y-115610542D01*
X146795208Y-115720208D01*
X146685542Y-115853836D01*
X146604053Y-116006291D01*
X146554392Y-116170000D01*
X143988072Y-116170000D01*
X143988072Y-115980000D01*
X143975812Y-115855518D01*
X143939502Y-115735820D01*
X143880537Y-115625506D01*
X143801185Y-115528815D01*
X143704494Y-115449463D01*
X143594180Y-115390498D01*
X143474482Y-115354188D01*
X143350000Y-115341928D01*
X141350000Y-115341928D01*
X141225518Y-115354188D01*
X141105820Y-115390498D01*
X140995506Y-115449463D01*
X140898815Y-115528815D01*
X140819463Y-115625506D01*
X140760498Y-115735820D01*
X140724188Y-115855518D01*
X140711928Y-115980000D01*
X140711928Y-116845547D01*
X140674482Y-116834188D01*
X140550000Y-116821928D01*
X136150000Y-116821928D01*
X136025518Y-116834188D01*
X135905820Y-116870498D01*
X135795506Y-116929463D01*
X135698815Y-117008815D01*
X135619463Y-117105506D01*
X135560498Y-117215820D01*
X135524188Y-117335518D01*
X135511928Y-117460000D01*
X135511928Y-119460000D01*
X135524188Y-119584482D01*
X135560498Y-119704180D01*
X135619463Y-119814494D01*
X135698815Y-119911185D01*
X135795506Y-119990537D01*
X135905820Y-120049502D01*
X136025518Y-120085812D01*
X136150000Y-120098072D01*
X140550000Y-120098072D01*
X140674482Y-120085812D01*
X140794180Y-120049502D01*
X140904494Y-119990537D01*
X141001185Y-119911185D01*
X141080537Y-119814494D01*
X141139502Y-119704180D01*
X141175812Y-119584482D01*
X141188072Y-119460000D01*
X141188072Y-118494453D01*
X141225518Y-118505812D01*
X141350000Y-118518072D01*
X143350000Y-118518072D01*
X143474482Y-118505812D01*
X143594180Y-118469502D01*
X143704494Y-118410537D01*
X143801185Y-118331185D01*
X143880537Y-118234494D01*
X143939502Y-118124180D01*
X143975812Y-118004482D01*
X143988072Y-117880000D01*
X143988072Y-117690000D01*
X146655522Y-117690000D01*
X146685542Y-117746164D01*
X146795208Y-117879792D01*
X146928836Y-117989458D01*
X147081291Y-118070947D01*
X147246715Y-118121128D01*
X147418750Y-118138072D01*
X147906250Y-118138072D01*
X148078285Y-118121128D01*
X148243709Y-118070947D01*
X148396164Y-117989458D01*
X148529792Y-117879792D01*
X148639458Y-117746164D01*
X148720947Y-117593709D01*
X148771128Y-117428285D01*
X148788072Y-117256250D01*
X148788072Y-116749230D01*
X149020049Y-116517253D01*
X149020053Y-116517248D01*
X150140020Y-115397282D01*
X150140020Y-116627028D01*
X146527049Y-120240000D01*
X125639803Y-120240000D01*
X123089801Y-117690000D01*
X125711928Y-117690000D01*
X125711928Y-117880000D01*
X125724188Y-118004482D01*
X125760498Y-118124180D01*
X125819463Y-118234494D01*
X125898815Y-118331185D01*
X125995506Y-118410537D01*
X126105820Y-118469502D01*
X126225518Y-118505812D01*
X126350000Y-118518072D01*
X128350000Y-118518072D01*
X128474482Y-118505812D01*
X128511928Y-118494453D01*
X128511928Y-119460000D01*
X128524188Y-119584482D01*
X128560498Y-119704180D01*
X128619463Y-119814494D01*
X128698815Y-119911185D01*
X128795506Y-119990537D01*
X128905820Y-120049502D01*
X129025518Y-120085812D01*
X129150000Y-120098072D01*
X133550000Y-120098072D01*
X133674482Y-120085812D01*
X133794180Y-120049502D01*
X133904494Y-119990537D01*
X134001185Y-119911185D01*
X134080537Y-119814494D01*
X134139502Y-119704180D01*
X134175812Y-119584482D01*
X134188072Y-119460000D01*
X134188072Y-117460000D01*
X134175812Y-117335518D01*
X134139502Y-117215820D01*
X134080537Y-117105506D01*
X134001185Y-117008815D01*
X133904494Y-116929463D01*
X133794180Y-116870498D01*
X133674482Y-116834188D01*
X133550000Y-116821928D01*
X132720430Y-116821928D01*
X132798918Y-116704463D01*
X132922168Y-116406912D01*
X132985000Y-116091033D01*
X132985000Y-115768967D01*
X132922168Y-115453088D01*
X132798918Y-115155537D01*
X132619987Y-114887748D01*
X132392252Y-114660013D01*
X132124463Y-114481082D01*
X131826912Y-114357832D01*
X131511033Y-114295000D01*
X131188967Y-114295000D01*
X130873088Y-114357832D01*
X130575537Y-114481082D01*
X130307748Y-114660013D01*
X130080013Y-114887748D01*
X129901082Y-115155537D01*
X129777832Y-115453088D01*
X129715000Y-115768967D01*
X129715000Y-116091033D01*
X129777832Y-116406912D01*
X129901082Y-116704463D01*
X129979570Y-116821928D01*
X129150000Y-116821928D01*
X129025518Y-116834188D01*
X128988072Y-116845547D01*
X128988072Y-115980000D01*
X128975812Y-115855518D01*
X128939502Y-115735820D01*
X128880537Y-115625506D01*
X128801185Y-115528815D01*
X128704494Y-115449463D01*
X128594180Y-115390498D01*
X128474482Y-115354188D01*
X128350000Y-115341928D01*
X126350000Y-115341928D01*
X126225518Y-115354188D01*
X126105820Y-115390498D01*
X125995506Y-115449463D01*
X125898815Y-115528815D01*
X125819463Y-115625506D01*
X125760498Y-115735820D01*
X125724188Y-115855518D01*
X125711928Y-115980000D01*
X125711928Y-116170000D01*
X122943308Y-116170000D01*
X122933628Y-116071715D01*
X122883447Y-115906291D01*
X122801958Y-115753836D01*
X122692292Y-115620208D01*
X122558664Y-115510542D01*
X122406209Y-115429053D01*
X122240785Y-115378872D01*
X122068750Y-115361928D01*
X121581250Y-115361928D01*
X121409215Y-115378872D01*
X121243791Y-115429053D01*
X121091336Y-115510542D01*
X120957708Y-115620208D01*
X120848042Y-115753836D01*
X120766553Y-115906291D01*
X120716372Y-116071715D01*
X120699428Y-116243750D01*
X120699428Y-117156250D01*
X120716372Y-117328285D01*
X120766553Y-117493709D01*
X120848042Y-117646164D01*
X120957708Y-117779792D01*
X121091336Y-117889458D01*
X121216245Y-117956223D01*
X121243520Y-117989458D01*
X121285000Y-118040001D01*
X121313998Y-118063799D01*
X123940207Y-120690010D01*
X123510463Y-120690010D01*
X119010000Y-116189549D01*
X119010000Y-113372951D01*
X119747962Y-112634990D01*
X120447689Y-112634990D01*
X120661928Y-112849229D01*
X120661928Y-113356250D01*
X120678872Y-113528285D01*
X120729053Y-113693709D01*
X120810542Y-113846164D01*
X120920208Y-113979792D01*
X121053836Y-114089458D01*
X121206291Y-114170947D01*
X121371715Y-114221128D01*
X121543750Y-114238072D01*
X122031250Y-114238072D01*
X122203285Y-114221128D01*
X122368709Y-114170947D01*
X122521164Y-114089458D01*
X122654792Y-113979792D01*
X122764458Y-113846164D01*
X122845947Y-113693709D01*
X122847072Y-113690000D01*
X125711928Y-113690000D01*
X125711928Y-113880000D01*
X125724188Y-114004482D01*
X125760498Y-114124180D01*
X125819463Y-114234494D01*
X125898815Y-114331185D01*
X125995506Y-114410537D01*
X126105820Y-114469502D01*
X126225518Y-114505812D01*
X126350000Y-114518072D01*
X128350000Y-114518072D01*
X128474482Y-114505812D01*
X128594180Y-114469502D01*
X128704494Y-114410537D01*
X128801185Y-114331185D01*
X128880537Y-114234494D01*
X128939502Y-114124180D01*
X128975812Y-114004482D01*
X128988072Y-113880000D01*
X128988072Y-111980000D01*
X128975812Y-111855518D01*
X128939502Y-111735820D01*
X128880537Y-111625506D01*
X128801185Y-111528815D01*
X128704494Y-111449463D01*
X128594180Y-111390498D01*
X128474482Y-111354188D01*
X128350000Y-111341928D01*
X126350000Y-111341928D01*
X126225518Y-111354188D01*
X126105820Y-111390498D01*
X125995506Y-111449463D01*
X125898815Y-111528815D01*
X125819463Y-111625506D01*
X125760498Y-111735820D01*
X125724188Y-111855518D01*
X125711928Y-111980000D01*
X125711928Y-112170000D01*
X122865273Y-112170000D01*
X122845947Y-112106291D01*
X122764458Y-111953836D01*
X122654792Y-111820208D01*
X122521164Y-111710542D01*
X122368709Y-111629053D01*
X122203285Y-111578872D01*
X122031250Y-111561928D01*
X121543750Y-111561928D01*
X121525979Y-111563678D01*
X121326294Y-111363992D01*
X121302491Y-111334989D01*
X121186766Y-111240016D01*
X121054737Y-111169444D01*
X120911476Y-111125987D01*
X120799823Y-111114990D01*
X120799812Y-111114990D01*
X120762490Y-111111314D01*
X120725168Y-111114990D01*
X119470483Y-111114990D01*
X119433160Y-111111314D01*
X119395837Y-111114990D01*
X119395827Y-111114990D01*
X119284174Y-111125987D01*
X119140913Y-111169444D01*
X119008883Y-111240016D01*
X118925243Y-111308658D01*
X118893159Y-111334989D01*
X118869361Y-111363987D01*
X117738998Y-112494351D01*
X117710000Y-112518149D01*
X117686202Y-112547147D01*
X117686201Y-112547148D01*
X117615026Y-112633874D01*
X117544454Y-112765904D01*
X117500998Y-112909165D01*
X117486324Y-113058150D01*
X117490001Y-113095482D01*
X117490000Y-115305959D01*
X116210000Y-114025959D01*
X116210000Y-108798061D01*
X123015000Y-108798061D01*
X123015000Y-109001939D01*
X123054774Y-109201898D01*
X123132795Y-109390256D01*
X123246063Y-109559774D01*
X123390226Y-109703937D01*
X123559744Y-109817205D01*
X123748102Y-109895226D01*
X123948061Y-109935000D01*
X124151939Y-109935000D01*
X124351898Y-109895226D01*
X124540256Y-109817205D01*
X124709774Y-109703937D01*
X124753711Y-109660000D01*
X125711928Y-109660000D01*
X125711928Y-109880000D01*
X125724188Y-110004482D01*
X125760498Y-110124180D01*
X125819463Y-110234494D01*
X125898815Y-110331185D01*
X125995506Y-110410537D01*
X126105820Y-110469502D01*
X126225518Y-110505812D01*
X126350000Y-110518072D01*
X128350000Y-110518072D01*
X128474482Y-110505812D01*
X128594180Y-110469502D01*
X128704494Y-110410537D01*
X128801185Y-110331185D01*
X128880537Y-110234494D01*
X128939502Y-110124180D01*
X128975812Y-110004482D01*
X128988072Y-109880000D01*
X128988072Y-107980000D01*
X128975812Y-107855518D01*
X128939502Y-107735820D01*
X128880537Y-107625506D01*
X128801185Y-107528815D01*
X128704494Y-107449463D01*
X128594180Y-107390498D01*
X128474482Y-107354188D01*
X128350000Y-107341928D01*
X126350000Y-107341928D01*
X126225518Y-107354188D01*
X126105820Y-107390498D01*
X125995506Y-107449463D01*
X125898815Y-107528815D01*
X125819463Y-107625506D01*
X125760498Y-107735820D01*
X125724188Y-107855518D01*
X125711928Y-107980000D01*
X125711928Y-108140000D01*
X124753711Y-108140000D01*
X124709774Y-108096063D01*
X124540256Y-107982795D01*
X124351898Y-107904774D01*
X124151939Y-107865000D01*
X123948061Y-107865000D01*
X123748102Y-107904774D01*
X123559744Y-107982795D01*
X123390226Y-108096063D01*
X123246063Y-108240226D01*
X123132795Y-108409744D01*
X123054774Y-108598102D01*
X123015000Y-108798061D01*
X116210000Y-108798061D01*
X116210000Y-106400000D01*
X132011928Y-106400000D01*
X132011928Y-108400000D01*
X132024188Y-108524482D01*
X132060498Y-108644180D01*
X132119463Y-108754494D01*
X132198815Y-108851185D01*
X132295506Y-108930537D01*
X132405820Y-108989502D01*
X132525518Y-109025812D01*
X132650000Y-109038072D01*
X136979570Y-109038072D01*
X136901082Y-109155537D01*
X136777832Y-109453088D01*
X136715000Y-109768967D01*
X136715000Y-110091033D01*
X136777832Y-110406912D01*
X136901082Y-110704463D01*
X137080013Y-110972252D01*
X137307748Y-111199987D01*
X137575537Y-111378918D01*
X137873088Y-111502168D01*
X138188967Y-111565000D01*
X138511033Y-111565000D01*
X138826912Y-111502168D01*
X139124463Y-111378918D01*
X139392252Y-111199987D01*
X139619987Y-110972252D01*
X139798918Y-110704463D01*
X139922168Y-110406912D01*
X139985000Y-110091033D01*
X139985000Y-109768967D01*
X139922168Y-109453088D01*
X139798918Y-109155537D01*
X139619987Y-108887748D01*
X139392252Y-108660013D01*
X139124463Y-108481082D01*
X138826912Y-108357832D01*
X138511033Y-108295000D01*
X138188967Y-108295000D01*
X137873088Y-108357832D01*
X137684533Y-108435934D01*
X137688072Y-108400000D01*
X137688072Y-106400000D01*
X137675812Y-106275518D01*
X137639502Y-106155820D01*
X137580537Y-106045506D01*
X137501185Y-105948815D01*
X137404494Y-105869463D01*
X137294180Y-105810498D01*
X137174482Y-105774188D01*
X137050000Y-105761928D01*
X132650000Y-105761928D01*
X132525518Y-105774188D01*
X132405820Y-105810498D01*
X132295506Y-105869463D01*
X132198815Y-105948815D01*
X132119463Y-106045506D01*
X132060498Y-106155820D01*
X132024188Y-106275518D01*
X132011928Y-106400000D01*
X116210000Y-106400000D01*
X116210000Y-103187322D01*
X116213676Y-103149999D01*
X116210000Y-103112676D01*
X116210000Y-103112667D01*
X116199003Y-103001014D01*
X116155546Y-102857753D01*
X116084974Y-102725724D01*
X115990001Y-102609999D01*
X115961004Y-102586202D01*
X114663804Y-101289003D01*
X114640001Y-101259999D01*
X114524276Y-101165026D01*
X114488072Y-101145674D01*
X114488072Y-100800000D01*
X114475812Y-100675518D01*
X114439502Y-100555820D01*
X114380537Y-100445506D01*
X114301185Y-100348815D01*
X114204494Y-100269463D01*
X114094180Y-100210498D01*
X113974482Y-100174188D01*
X113850000Y-100161928D01*
X110950000Y-100161928D01*
X110825518Y-100174188D01*
X110705820Y-100210498D01*
X110595506Y-100269463D01*
X110498815Y-100348815D01*
X110419463Y-100445506D01*
X110360498Y-100555820D01*
X110324188Y-100675518D01*
X110311928Y-100800000D01*
X110311928Y-102800000D01*
X110324188Y-102924482D01*
X110347096Y-103000000D01*
X110324188Y-103075518D01*
X110311928Y-103200000D01*
X110311928Y-105200000D01*
X110324188Y-105324482D01*
X110360498Y-105444180D01*
X110419463Y-105554494D01*
X110498815Y-105651185D01*
X110595506Y-105730537D01*
X110705820Y-105789502D01*
X110825518Y-105825812D01*
X110950000Y-105838072D01*
X111640001Y-105838072D01*
X111640001Y-106146288D01*
X111496063Y-106290226D01*
X111382795Y-106459744D01*
X111304774Y-106648102D01*
X111265000Y-106848061D01*
X111265000Y-107051939D01*
X111304774Y-107251898D01*
X111382795Y-107440256D01*
X111496063Y-107609774D01*
X111640226Y-107753937D01*
X111809744Y-107867205D01*
X111998102Y-107945226D01*
X112198061Y-107985000D01*
X112401939Y-107985000D01*
X112601898Y-107945226D01*
X112790256Y-107867205D01*
X112959774Y-107753937D01*
X113103937Y-107609774D01*
X113217205Y-107440256D01*
X113295226Y-107251898D01*
X113335000Y-107051939D01*
X113335000Y-106848061D01*
X113295226Y-106648102D01*
X113217205Y-106459744D01*
X113160000Y-106374130D01*
X113160000Y-105838072D01*
X113850000Y-105838072D01*
X113974482Y-105825812D01*
X114094180Y-105789502D01*
X114204494Y-105730537D01*
X114301185Y-105651185D01*
X114380537Y-105554494D01*
X114439502Y-105444180D01*
X114475812Y-105324482D01*
X114488072Y-105200000D01*
X114488072Y-103262874D01*
X114690000Y-103464802D01*
X114690001Y-114303428D01*
X114686324Y-114340760D01*
X114690001Y-114378093D01*
X114700998Y-114489746D01*
X114711235Y-114523494D01*
X114744454Y-114633006D01*
X114815026Y-114765036D01*
X114886201Y-114851762D01*
X114910000Y-114880761D01*
X114938998Y-114904559D01*
X122445463Y-122411025D01*
X122469261Y-122440023D01*
X122584986Y-122534996D01*
X122717015Y-122605568D01*
X122860276Y-122649025D01*
X122971929Y-122660022D01*
X122971939Y-122660022D01*
X123009262Y-122663698D01*
X123046585Y-122660022D01*
X147249124Y-122660022D01*
X147286447Y-122663698D01*
X147323769Y-122660022D01*
X147323780Y-122660022D01*
X147435433Y-122649025D01*
X147578694Y-122605568D01*
X147710723Y-122534996D01*
X147826448Y-122440023D01*
X147850251Y-122411019D01*
X152311044Y-117950228D01*
X152340041Y-117926431D01*
X152435014Y-117810706D01*
X152505586Y-117678677D01*
X152549043Y-117535416D01*
X152560040Y-117423763D01*
X152560040Y-117423755D01*
X152563716Y-117386430D01*
X152560040Y-117349105D01*
X152560040Y-106464761D01*
X153039802Y-105985000D01*
X153101939Y-105985000D01*
X153301898Y-105945226D01*
X153490256Y-105867205D01*
X153659774Y-105753937D01*
X153803937Y-105609774D01*
X153917205Y-105440256D01*
X153995226Y-105251898D01*
X154035000Y-105051939D01*
X154035000Y-104848061D01*
X153995226Y-104648102D01*
X153917205Y-104459744D01*
X153803937Y-104290226D01*
X153659774Y-104146063D01*
X153490256Y-104032795D01*
X153301898Y-103954774D01*
X153101939Y-103915000D01*
X152898061Y-103915000D01*
X152698102Y-103954774D01*
X152509744Y-104032795D01*
X152340226Y-104146063D01*
X152196063Y-104290226D01*
X152110030Y-104418984D01*
X152110030Y-83377352D01*
X152113706Y-83340029D01*
X152110030Y-83302706D01*
X152110030Y-83302697D01*
X152099033Y-83191044D01*
X152055576Y-83047783D01*
X151985004Y-82915754D01*
X151971841Y-82899715D01*
X151913829Y-82829026D01*
X151913825Y-82829022D01*
X151890031Y-82800029D01*
X151861039Y-82776236D01*
X146998688Y-77913886D01*
X147035000Y-77731335D01*
X147035000Y-77448665D01*
X146979853Y-77171426D01*
X146871680Y-76910273D01*
X146714637Y-76675241D01*
X146514759Y-76475363D01*
X146282241Y-76320000D01*
X146514759Y-76164637D01*
X146714637Y-75964759D01*
X146871680Y-75729727D01*
X146979853Y-75468574D01*
X147035000Y-75191335D01*
X147035000Y-74908665D01*
X146979853Y-74631426D01*
X146871680Y-74370273D01*
X146714637Y-74135241D01*
X146514759Y-73935363D01*
X146282241Y-73780000D01*
X146514759Y-73624637D01*
X146714637Y-73424759D01*
X146871680Y-73189727D01*
X146979853Y-72928574D01*
X147035000Y-72651335D01*
X147035000Y-72368665D01*
X146979853Y-72091426D01*
X146871680Y-71830273D01*
X146714637Y-71595241D01*
X146516039Y-71396643D01*
X146524482Y-71395812D01*
X146644180Y-71359502D01*
X146754494Y-71300537D01*
X146851185Y-71221185D01*
X146930537Y-71124494D01*
X146989502Y-71014180D01*
X147025812Y-70894482D01*
X147038072Y-70770000D01*
X147038072Y-69170000D01*
X147025812Y-69045518D01*
X146989502Y-68925820D01*
X146930537Y-68815506D01*
X146851185Y-68718815D01*
X146754494Y-68639463D01*
X146644180Y-68580498D01*
X146524482Y-68544188D01*
X146400000Y-68531928D01*
X144800000Y-68531928D01*
X144675518Y-68544188D01*
X144555820Y-68580498D01*
X144445506Y-68639463D01*
X144348815Y-68718815D01*
X144269463Y-68815506D01*
X144210498Y-68925820D01*
X144174188Y-69045518D01*
X144161928Y-69170000D01*
X144161928Y-70770000D01*
X144174188Y-70894482D01*
X144210498Y-71014180D01*
X144269463Y-71124494D01*
X144348815Y-71221185D01*
X144445506Y-71300537D01*
X144555820Y-71359502D01*
X144675518Y-71395812D01*
X144683961Y-71396643D01*
X144485363Y-71595241D01*
X144328320Y-71830273D01*
X144220147Y-72091426D01*
X144165000Y-72368665D01*
X144165000Y-72651335D01*
X144220147Y-72928574D01*
X144328320Y-73189727D01*
X144485363Y-73424759D01*
X144685241Y-73624637D01*
X144917759Y-73780000D01*
X144685241Y-73935363D01*
X144485363Y-74135241D01*
X144381957Y-74290000D01*
X113407333Y-74290000D01*
X113370000Y-74286323D01*
X113332667Y-74290000D01*
X113221014Y-74300997D01*
X113077753Y-74344454D01*
X112945724Y-74415026D01*
X112829999Y-74509999D01*
X112806201Y-74538997D01*
X102485996Y-84859203D01*
X102411111Y-84836487D01*
X102192950Y-84815000D01*
X102047050Y-84815000D01*
X101828889Y-84836487D01*
X101548966Y-84921401D01*
X101290986Y-85059294D01*
X101064866Y-85244866D01*
X100879294Y-85470986D01*
X100850000Y-85525791D01*
X100820706Y-85470986D01*
X100635134Y-85244866D01*
X100409014Y-85059294D01*
X100151034Y-84921401D01*
X99871111Y-84836487D01*
X99652950Y-84815000D01*
X99507050Y-84815000D01*
X99288889Y-84836487D01*
X99008966Y-84921401D01*
X98750986Y-85059294D01*
X98524866Y-85244866D01*
X98339294Y-85470986D01*
X98310000Y-85525791D01*
X98280706Y-85470986D01*
X98095134Y-85244866D01*
X97869014Y-85059294D01*
X97611034Y-84921401D01*
X97331111Y-84836487D01*
X97112950Y-84815000D01*
X96967050Y-84815000D01*
X96748889Y-84836487D01*
X96468966Y-84921401D01*
X96210986Y-85059294D01*
X95984866Y-85244866D01*
X95960393Y-85274687D01*
X95939502Y-85205820D01*
X95880537Y-85095506D01*
X95801185Y-84998815D01*
X95704494Y-84919463D01*
X95594180Y-84860498D01*
X95474482Y-84824188D01*
X95350000Y-84811928D01*
X93650000Y-84811928D01*
X93525518Y-84824188D01*
X93405820Y-84860498D01*
X93295506Y-84919463D01*
X93198815Y-84998815D01*
X93119463Y-85095506D01*
X93060498Y-85205820D01*
X93024188Y-85325518D01*
X93011928Y-85450000D01*
X86659935Y-85450000D01*
X86659935Y-71753377D01*
X86663117Y-71712985D01*
X86655979Y-71652636D01*
X86650023Y-71592164D01*
X86648062Y-71585700D01*
X86647268Y-71578986D01*
X86628494Y-71521191D01*
X86610854Y-71463041D01*
X86607667Y-71457078D01*
X86605580Y-71450654D01*
X86575904Y-71397654D01*
X86547247Y-71344041D01*
X86542958Y-71338815D01*
X86539658Y-71332921D01*
X86500216Y-71286732D01*
X86461647Y-71239736D01*
X86456421Y-71235447D01*
X86452034Y-71230310D01*
X86404316Y-71192686D01*
X86357342Y-71154136D01*
X86321611Y-71135037D01*
X83739551Y-69481878D01*
X83755249Y-69485000D01*
X84244751Y-69485000D01*
X84724848Y-69389503D01*
X85177089Y-69202179D01*
X85584095Y-68930226D01*
X85930226Y-68584095D01*
X86202179Y-68177089D01*
X86389503Y-67724848D01*
X86485000Y-67244751D01*
X86485000Y-66755249D01*
X86392457Y-66290000D01*
X119791928Y-66290000D01*
X119791928Y-67990000D01*
X119804188Y-68114482D01*
X119840498Y-68234180D01*
X119899463Y-68344494D01*
X119978815Y-68441185D01*
X120075506Y-68520537D01*
X120185820Y-68579502D01*
X120305518Y-68615812D01*
X120430000Y-68628072D01*
X122130000Y-68628072D01*
X122254482Y-68615812D01*
X122374180Y-68579502D01*
X122484494Y-68520537D01*
X122581185Y-68441185D01*
X122660537Y-68344494D01*
X122719502Y-68234180D01*
X122755812Y-68114482D01*
X122768072Y-67990000D01*
X122768072Y-67140000D01*
X124867815Y-67140000D01*
X124896487Y-67431111D01*
X124981401Y-67711034D01*
X125119294Y-67969014D01*
X125304866Y-68195134D01*
X125530986Y-68380706D01*
X125788966Y-68518599D01*
X126068889Y-68603513D01*
X126287050Y-68625000D01*
X126432950Y-68625000D01*
X126651111Y-68603513D01*
X126725996Y-68580797D01*
X128899963Y-70754765D01*
X128923762Y-70783764D01*
X128952760Y-70807562D01*
X129039487Y-70878737D01*
X129171516Y-70949309D01*
X129314777Y-70992766D01*
X129463763Y-71007440D01*
X129501096Y-71003763D01*
X140011928Y-71003763D01*
X140011928Y-71043750D01*
X140028872Y-71215785D01*
X140079053Y-71381209D01*
X140160542Y-71533664D01*
X140270208Y-71667292D01*
X140403836Y-71776958D01*
X140556291Y-71858447D01*
X140721715Y-71908628D01*
X140893750Y-71925572D01*
X141806250Y-71925572D01*
X141978285Y-71908628D01*
X142143709Y-71858447D01*
X142296164Y-71776958D01*
X142429792Y-71667292D01*
X142539458Y-71533664D01*
X142620947Y-71381209D01*
X142671128Y-71215785D01*
X142688072Y-71043750D01*
X142688072Y-70556250D01*
X142671128Y-70384215D01*
X142620947Y-70218791D01*
X142539458Y-70066336D01*
X142429792Y-69932708D01*
X142296164Y-69823042D01*
X142143709Y-69741553D01*
X141978285Y-69691372D01*
X141806250Y-69674428D01*
X141298020Y-69674428D01*
X141218039Y-69608789D01*
X141086010Y-69538217D01*
X140942749Y-69494760D01*
X140831096Y-69483763D01*
X140831085Y-69483763D01*
X140793763Y-69480087D01*
X140756441Y-69483763D01*
X129778565Y-69483763D01*
X128919802Y-68625000D01*
X128972950Y-68625000D01*
X129191111Y-68603513D01*
X129471034Y-68518599D01*
X129729014Y-68380706D01*
X129955134Y-68195134D01*
X130140706Y-67969014D01*
X130278599Y-67711034D01*
X130363513Y-67431111D01*
X130392185Y-67140000D01*
X130363513Y-66848889D01*
X130340797Y-66774004D01*
X130598539Y-66516263D01*
X140461928Y-66516263D01*
X140461928Y-66556250D01*
X140478872Y-66728285D01*
X140529053Y-66893709D01*
X140610542Y-67046164D01*
X140720208Y-67179792D01*
X140853836Y-67289458D01*
X141006291Y-67370947D01*
X141171715Y-67421128D01*
X141343750Y-67438072D01*
X142256250Y-67438072D01*
X142428285Y-67421128D01*
X142593709Y-67370947D01*
X142746164Y-67289458D01*
X142879792Y-67179792D01*
X142967845Y-67072500D01*
X153847699Y-67072500D01*
X157290001Y-70514803D01*
X157290000Y-89212678D01*
X157286324Y-89250000D01*
X157290000Y-89287322D01*
X157290000Y-89287332D01*
X157300997Y-89398985D01*
X157340739Y-89530000D01*
X157344454Y-89542246D01*
X157415026Y-89674276D01*
X157454871Y-89722826D01*
X157509999Y-89790001D01*
X157539002Y-89813804D01*
X158526201Y-90801003D01*
X158549999Y-90830001D01*
X158578997Y-90853799D01*
X158665723Y-90924974D01*
X158781346Y-90986776D01*
X158797753Y-90995546D01*
X158941014Y-91039003D01*
X159052667Y-91050000D01*
X159052676Y-91050000D01*
X159089999Y-91053676D01*
X159127322Y-91050000D01*
X159621957Y-91050000D01*
X159725363Y-91204759D01*
X159925241Y-91404637D01*
X160157759Y-91560000D01*
X159925241Y-91715363D01*
X159725363Y-91915241D01*
X159568320Y-92150273D01*
X159460147Y-92411426D01*
X159405000Y-92688665D01*
X159405000Y-92971335D01*
X159460147Y-93248574D01*
X159568320Y-93509727D01*
X159725363Y-93744759D01*
X159925241Y-93944637D01*
X160157759Y-94100000D01*
X159925241Y-94255363D01*
X159725363Y-94455241D01*
X159568320Y-94690273D01*
X159460147Y-94951426D01*
X159405000Y-95228665D01*
X159405000Y-95511335D01*
X159460147Y-95788574D01*
X159568320Y-96049727D01*
X159725363Y-96284759D01*
X159925241Y-96484637D01*
X160157759Y-96640000D01*
X159925241Y-96795363D01*
X159725363Y-96995241D01*
X159568320Y-97230273D01*
X159460147Y-97491426D01*
X159405000Y-97768665D01*
X159405000Y-98051335D01*
X159460147Y-98328574D01*
X159568320Y-98589727D01*
X159725363Y-98824759D01*
X159925241Y-99024637D01*
X160157759Y-99180000D01*
X159925241Y-99335363D01*
X159725363Y-99535241D01*
X159568320Y-99770273D01*
X159460147Y-100031426D01*
X159405000Y-100308665D01*
X159405000Y-100591335D01*
X159460147Y-100868574D01*
X159568320Y-101129727D01*
X159725363Y-101364759D01*
X159925241Y-101564637D01*
X160157759Y-101720000D01*
X159925241Y-101875363D01*
X159725363Y-102075241D01*
X159568320Y-102310273D01*
X159460147Y-102571426D01*
X159405000Y-102848665D01*
X159405000Y-103131335D01*
X159460147Y-103408574D01*
X159568320Y-103669727D01*
X159725363Y-103904759D01*
X159925241Y-104104637D01*
X160160273Y-104261680D01*
X160421426Y-104369853D01*
X160698665Y-104425000D01*
X160981335Y-104425000D01*
X161258574Y-104369853D01*
X161519727Y-104261680D01*
X161754759Y-104104637D01*
X161954637Y-103904759D01*
X162111680Y-103669727D01*
X162219853Y-103408574D01*
X162275000Y-103131335D01*
X162275000Y-102848665D01*
X162219853Y-102571426D01*
X162111680Y-102310273D01*
X161954637Y-102075241D01*
X161754759Y-101875363D01*
X161522241Y-101720000D01*
X161754759Y-101564637D01*
X161954637Y-101364759D01*
X162111680Y-101129727D01*
X162219853Y-100868574D01*
X162275000Y-100591335D01*
X162275000Y-100308665D01*
X162219853Y-100031426D01*
X162111680Y-99770273D01*
X161954637Y-99535241D01*
X161754759Y-99335363D01*
X161522241Y-99180000D01*
X161754759Y-99024637D01*
X161954637Y-98824759D01*
X162111680Y-98589727D01*
X162219853Y-98328574D01*
X162275000Y-98051335D01*
X162275000Y-97768665D01*
X162219853Y-97491426D01*
X162111680Y-97230273D01*
X161954637Y-96995241D01*
X161754759Y-96795363D01*
X161522241Y-96640000D01*
X161754759Y-96484637D01*
X161954637Y-96284759D01*
X162111680Y-96049727D01*
X162219853Y-95788574D01*
X162275000Y-95511335D01*
X162275000Y-95228665D01*
X162219853Y-94951426D01*
X162111680Y-94690273D01*
X161954637Y-94455241D01*
X161754759Y-94255363D01*
X161522241Y-94100000D01*
X161754759Y-93944637D01*
X161954637Y-93744759D01*
X162111680Y-93509727D01*
X162219853Y-93248574D01*
X162275000Y-92971335D01*
X162275000Y-92688665D01*
X162219853Y-92411426D01*
X162111680Y-92150273D01*
X161954637Y-91915241D01*
X161754759Y-91715363D01*
X161522241Y-91560000D01*
X161754759Y-91404637D01*
X161954637Y-91204759D01*
X162111680Y-90969727D01*
X162219853Y-90708574D01*
X162275000Y-90431335D01*
X162275000Y-90148665D01*
X162219853Y-89871426D01*
X162111680Y-89610273D01*
X161954637Y-89375241D01*
X161754759Y-89175363D01*
X161522241Y-89020000D01*
X161754759Y-88864637D01*
X161954637Y-88664759D01*
X162111680Y-88429727D01*
X162219853Y-88168574D01*
X162275000Y-87891335D01*
X162275000Y-87608665D01*
X162219853Y-87331426D01*
X162111680Y-87070273D01*
X161954637Y-86835241D01*
X161754759Y-86635363D01*
X161522241Y-86480000D01*
X161754759Y-86324637D01*
X161954637Y-86124759D01*
X162111680Y-85889727D01*
X162219853Y-85628574D01*
X162275000Y-85351335D01*
X162275000Y-85068665D01*
X162219853Y-84791426D01*
X162111680Y-84530273D01*
X161954637Y-84295241D01*
X161754759Y-84095363D01*
X161522241Y-83940000D01*
X161754759Y-83784637D01*
X161954637Y-83584759D01*
X162111680Y-83349727D01*
X162219853Y-83088574D01*
X162275000Y-82811335D01*
X162275000Y-82528665D01*
X162219853Y-82251426D01*
X162111680Y-81990273D01*
X161954637Y-81755241D01*
X161754759Y-81555363D01*
X161522241Y-81400000D01*
X161754759Y-81244637D01*
X161954637Y-81044759D01*
X162111680Y-80809727D01*
X162219853Y-80548574D01*
X162275000Y-80271335D01*
X162275000Y-79988665D01*
X162219853Y-79711426D01*
X162111680Y-79450273D01*
X161954637Y-79215241D01*
X161754759Y-79015363D01*
X161522241Y-78860000D01*
X161754759Y-78704637D01*
X161954637Y-78504759D01*
X162111680Y-78269727D01*
X162219853Y-78008574D01*
X162275000Y-77731335D01*
X162275000Y-77448665D01*
X162219853Y-77171426D01*
X162111680Y-76910273D01*
X161954637Y-76675241D01*
X161754759Y-76475363D01*
X161519727Y-76318320D01*
X161258574Y-76210147D01*
X160981335Y-76155000D01*
X160698665Y-76155000D01*
X160421426Y-76210147D01*
X160160273Y-76318320D01*
X159925241Y-76475363D01*
X159725363Y-76675241D01*
X159568320Y-76910273D01*
X159460147Y-77171426D01*
X159405000Y-77448665D01*
X159405000Y-77731335D01*
X159460147Y-78008574D01*
X159568320Y-78269727D01*
X159725363Y-78504759D01*
X159925241Y-78704637D01*
X160157759Y-78860000D01*
X159925241Y-79015363D01*
X159725363Y-79215241D01*
X159568320Y-79450273D01*
X159460147Y-79711426D01*
X159405000Y-79988665D01*
X159405000Y-80271335D01*
X159460147Y-80548574D01*
X159568320Y-80809727D01*
X159725363Y-81044759D01*
X159925241Y-81244637D01*
X160157759Y-81400000D01*
X159925241Y-81555363D01*
X159725363Y-81755241D01*
X159568320Y-81990273D01*
X159460147Y-82251426D01*
X159405000Y-82528665D01*
X159405000Y-82811335D01*
X159460147Y-83088574D01*
X159568320Y-83349727D01*
X159725363Y-83584759D01*
X159925241Y-83784637D01*
X160157759Y-83940000D01*
X159925241Y-84095363D01*
X159725363Y-84295241D01*
X159568320Y-84530273D01*
X159460147Y-84791426D01*
X159405000Y-85068665D01*
X159405000Y-85351335D01*
X159460147Y-85628574D01*
X159568320Y-85889727D01*
X159725363Y-86124759D01*
X159925241Y-86324637D01*
X160157759Y-86480000D01*
X159925241Y-86635363D01*
X159725363Y-86835241D01*
X159568320Y-87070273D01*
X159460147Y-87331426D01*
X159405000Y-87608665D01*
X159405000Y-87891335D01*
X159460147Y-88168574D01*
X159568320Y-88429727D01*
X159725363Y-88664759D01*
X159925241Y-88864637D01*
X160157759Y-89020000D01*
X159925241Y-89175363D01*
X159725363Y-89375241D01*
X159621957Y-89530000D01*
X159404802Y-89530000D01*
X158810000Y-88935199D01*
X158810000Y-70237322D01*
X158813676Y-70199999D01*
X158810000Y-70162676D01*
X158810000Y-70162667D01*
X158799003Y-70051014D01*
X158755546Y-69907753D01*
X158713272Y-69828665D01*
X159405000Y-69828665D01*
X159405000Y-70111335D01*
X159460147Y-70388574D01*
X159568320Y-70649727D01*
X159725363Y-70884759D01*
X159925241Y-71084637D01*
X160157759Y-71240000D01*
X159925241Y-71395363D01*
X159725363Y-71595241D01*
X159568320Y-71830273D01*
X159460147Y-72091426D01*
X159405000Y-72368665D01*
X159405000Y-72651335D01*
X159460147Y-72928574D01*
X159568320Y-73189727D01*
X159725363Y-73424759D01*
X159925241Y-73624637D01*
X160160273Y-73781680D01*
X160421426Y-73889853D01*
X160698665Y-73945000D01*
X160981335Y-73945000D01*
X161258574Y-73889853D01*
X161519727Y-73781680D01*
X161754759Y-73624637D01*
X161954637Y-73424759D01*
X162111680Y-73189727D01*
X162219853Y-72928574D01*
X162275000Y-72651335D01*
X162275000Y-72368665D01*
X162219853Y-72091426D01*
X162111680Y-71830273D01*
X161954637Y-71595241D01*
X161754759Y-71395363D01*
X161522241Y-71240000D01*
X161754759Y-71084637D01*
X161954637Y-70884759D01*
X162111680Y-70649727D01*
X162219853Y-70388574D01*
X162275000Y-70111335D01*
X162275000Y-69828665D01*
X162219853Y-69551426D01*
X162111680Y-69290273D01*
X161954637Y-69055241D01*
X161754759Y-68855363D01*
X161519727Y-68698320D01*
X161258574Y-68590147D01*
X160981335Y-68535000D01*
X160698665Y-68535000D01*
X160421426Y-68590147D01*
X160160273Y-68698320D01*
X159925241Y-68855363D01*
X159725363Y-69055241D01*
X159568320Y-69290273D01*
X159460147Y-69551426D01*
X159405000Y-69828665D01*
X158713272Y-69828665D01*
X158684974Y-69775724D01*
X158590001Y-69659999D01*
X158561003Y-69636201D01*
X154726304Y-65801503D01*
X154702501Y-65772499D01*
X154586776Y-65677526D01*
X154454747Y-65606954D01*
X154311486Y-65563497D01*
X154199833Y-65552500D01*
X154199822Y-65552500D01*
X154162500Y-65548824D01*
X154125178Y-65552500D01*
X142967845Y-65552500D01*
X142879792Y-65445208D01*
X142746164Y-65335542D01*
X142593709Y-65254053D01*
X142428285Y-65203872D01*
X142256250Y-65186928D01*
X141748020Y-65186928D01*
X141668039Y-65121289D01*
X141536010Y-65050717D01*
X141392749Y-65007260D01*
X141281096Y-64996263D01*
X141281085Y-64996263D01*
X141243763Y-64992587D01*
X141206441Y-64996263D01*
X130321070Y-64996263D01*
X130283737Y-64992586D01*
X130246404Y-64996263D01*
X130134751Y-65007260D01*
X129991490Y-65050717D01*
X129859461Y-65121289D01*
X129743736Y-65216262D01*
X129719937Y-65245261D01*
X129265996Y-65699203D01*
X129191111Y-65676487D01*
X128972950Y-65655000D01*
X128827050Y-65655000D01*
X128608889Y-65676487D01*
X128328966Y-65761401D01*
X128070986Y-65899294D01*
X127844866Y-66084866D01*
X127659294Y-66310986D01*
X127630000Y-66365791D01*
X127600706Y-66310986D01*
X127415134Y-66084866D01*
X127189014Y-65899294D01*
X126931034Y-65761401D01*
X126651111Y-65676487D01*
X126432950Y-65655000D01*
X126287050Y-65655000D01*
X126068889Y-65676487D01*
X125788966Y-65761401D01*
X125530986Y-65899294D01*
X125304866Y-66084866D01*
X125119294Y-66310986D01*
X124981401Y-66568966D01*
X124896487Y-66848889D01*
X124867815Y-67140000D01*
X122768072Y-67140000D01*
X122768072Y-66290000D01*
X122755812Y-66165518D01*
X122719502Y-66045820D01*
X122660537Y-65935506D01*
X122581185Y-65838815D01*
X122484494Y-65759463D01*
X122374180Y-65700498D01*
X122254482Y-65664188D01*
X122130000Y-65651928D01*
X120430000Y-65651928D01*
X120305518Y-65664188D01*
X120185820Y-65700498D01*
X120075506Y-65759463D01*
X119978815Y-65838815D01*
X119899463Y-65935506D01*
X119840498Y-66045820D01*
X119804188Y-66165518D01*
X119791928Y-66290000D01*
X86392457Y-66290000D01*
X86389503Y-66275152D01*
X86202179Y-65822911D01*
X85930226Y-65415905D01*
X85584095Y-65069774D01*
X85177089Y-64797821D01*
X84844308Y-64659979D01*
X165155692Y-64659979D01*
X164822911Y-64797821D01*
X164822911Y-64797821D01*
G37*
X164822911Y-64797821D02*
X164415905Y-65069774D01*
X164069774Y-65415905D01*
X163797821Y-65822911D01*
X163610497Y-66275152D01*
X163515000Y-66755249D01*
X163515000Y-67244751D01*
X163610497Y-67724848D01*
X163797821Y-68177089D01*
X164069774Y-68584095D01*
X164415905Y-68930226D01*
X164822911Y-69202179D01*
X165275152Y-69389503D01*
X165755249Y-69485000D01*
X166244751Y-69485000D01*
X166260092Y-69481949D01*
X163678280Y-71134951D01*
X163642539Y-71154055D01*
X163595548Y-71192620D01*
X163547847Y-71230230D01*
X163543461Y-71235367D01*
X163538234Y-71239656D01*
X163499665Y-71286652D01*
X163460223Y-71332841D01*
X163456923Y-71338735D01*
X163452634Y-71343961D01*
X163423977Y-71397574D01*
X163394301Y-71450574D01*
X163392214Y-71456998D01*
X163389027Y-71462961D01*
X163371387Y-71521111D01*
X163352613Y-71578906D01*
X163351819Y-71585619D01*
X163349858Y-71592084D01*
X163343899Y-71652584D01*
X163336765Y-71712905D01*
X163339946Y-71753287D01*
X163339947Y-117246575D01*
X163336765Y-117286970D01*
X163343905Y-117347337D01*
X163349859Y-117407792D01*
X163351819Y-117414252D01*
X163352613Y-117420969D01*
X163371398Y-117478796D01*
X163389028Y-117536915D01*
X163392213Y-117542874D01*
X163394301Y-117549301D01*
X163423987Y-117602319D01*
X163452635Y-117655915D01*
X163456922Y-117661139D01*
X163460223Y-117667034D01*
X163499670Y-117713228D01*
X163538235Y-117760220D01*
X163543461Y-117764509D01*
X163547847Y-117769645D01*
X163595559Y-117807265D01*
X163642540Y-117845820D01*
X163678274Y-117864921D01*
X166260375Y-119518108D01*
X166244751Y-119515000D01*
X165755249Y-119515000D01*
X165275152Y-119610497D01*
X164822911Y-119797821D01*
X164415905Y-120069774D01*
X164069774Y-120415905D01*
X163797821Y-120822911D01*
X163610497Y-121275152D01*
X163515000Y-121755249D01*
X163515000Y-122244751D01*
X163610497Y-122724848D01*
X163797821Y-123177089D01*
X164069774Y-123584095D01*
X164415905Y-123930226D01*
X164822911Y-124202179D01*
X165155392Y-124339897D01*
X164033573Y-124339897D01*
X163999926Y-124336583D01*
X163999644Y-124336611D01*
X163999376Y-124336584D01*
X163965373Y-124339897D01*
X84844608Y-124339897D01*
X85177089Y-124202179D01*
X85584095Y-123930226D01*
X85930226Y-123584095D01*
X86202179Y-123177089D01*
X86389503Y-122724848D01*
X86485000Y-122244751D01*
X86485000Y-121755249D01*
X86389503Y-121275152D01*
X86202179Y-120822911D01*
X85930226Y-120415905D01*
X85584095Y-120069774D01*
X85177089Y-119797821D01*
X84724848Y-119610497D01*
X84244751Y-119515000D01*
X83755249Y-119515000D01*
X83739268Y-119518179D01*
X86321616Y-117864835D01*
X86357341Y-117845739D01*
X86404290Y-117807209D01*
X86452034Y-117769565D01*
X86456423Y-117764425D01*
X86461646Y-117760139D01*
X86500201Y-117713159D01*
X86539658Y-117666954D01*
X86542958Y-117661060D01*
X86547247Y-117655834D01*
X86575904Y-117602221D01*
X86605580Y-117549221D01*
X86607667Y-117542797D01*
X86610854Y-117536834D01*
X86628494Y-117478684D01*
X86647268Y-117420889D01*
X86648062Y-117414175D01*
X86650023Y-117407711D01*
X86655979Y-117347239D01*
X86663117Y-117286890D01*
X86659935Y-117246498D01*
X86659935Y-104894645D01*
X93165000Y-104894645D01*
X93165000Y-105305355D01*
X93245126Y-105708172D01*
X93402297Y-106087618D01*
X93630475Y-106429110D01*
X93920890Y-106719525D01*
X94262382Y-106947703D01*
X94641828Y-107104874D01*
X95044645Y-107185000D01*
X95455355Y-107185000D01*
X95858172Y-107104874D01*
X96237618Y-106947703D01*
X96579110Y-106719525D01*
X96869525Y-106429110D01*
X97097703Y-106087618D01*
X97254874Y-105708172D01*
X97335000Y-105305355D01*
X97335000Y-104894645D01*
X105865000Y-104894645D01*
X105865000Y-105305355D01*
X105945126Y-105708172D01*
X106102297Y-106087618D01*
X106330475Y-106429110D01*
X106620890Y-106719525D01*
X106962382Y-106947703D01*
X107341828Y-107104874D01*
X107744645Y-107185000D01*
X108155355Y-107185000D01*
X108558172Y-107104874D01*
X108937618Y-106947703D01*
X109279110Y-106719525D01*
X109569525Y-106429110D01*
X109797703Y-106087618D01*
X109954874Y-105708172D01*
X110035000Y-105305355D01*
X110035000Y-104894645D01*
X109954874Y-104491828D01*
X109797703Y-104112382D01*
X109569525Y-103770890D01*
X109279110Y-103480475D01*
X108937618Y-103252297D01*
X108558172Y-103095126D01*
X108155355Y-103015000D01*
X107744645Y-103015000D01*
X107341828Y-103095126D01*
X106962382Y-103252297D01*
X106620890Y-103480475D01*
X106330475Y-103770890D01*
X106102297Y-104112382D01*
X105945126Y-104491828D01*
X105865000Y-104894645D01*
X97335000Y-104894645D01*
X97254874Y-104491828D01*
X97097703Y-104112382D01*
X96869525Y-103770890D01*
X96579110Y-103480475D01*
X96237618Y-103252297D01*
X95858172Y-103095126D01*
X95455355Y-103015000D01*
X95044645Y-103015000D01*
X94641828Y-103095126D01*
X94262382Y-103252297D01*
X93920890Y-103480475D01*
X93630475Y-103770890D01*
X93402297Y-104112382D01*
X93245126Y-104491828D01*
X93165000Y-104894645D01*
X86659935Y-104894645D01*
X86659935Y-100694645D01*
X93165000Y-100694645D01*
X93165000Y-101105355D01*
X93245126Y-101508172D01*
X93402297Y-101887618D01*
X93630475Y-102229110D01*
X93920890Y-102519525D01*
X94262382Y-102747703D01*
X94641828Y-102904874D01*
X95044645Y-102985000D01*
X95455355Y-102985000D01*
X95858172Y-102904874D01*
X96237618Y-102747703D01*
X96579110Y-102519525D01*
X96869525Y-102229110D01*
X97097703Y-101887618D01*
X97254874Y-101508172D01*
X97335000Y-101105355D01*
X97335000Y-100694645D01*
X105865000Y-100694645D01*
X105865000Y-101105355D01*
X105945126Y-101508172D01*
X106102297Y-101887618D01*
X106330475Y-102229110D01*
X106620890Y-102519525D01*
X106962382Y-102747703D01*
X107341828Y-102904874D01*
X107744645Y-102985000D01*
X108155355Y-102985000D01*
X108558172Y-102904874D01*
X108937618Y-102747703D01*
X109279110Y-102519525D01*
X109569525Y-102229110D01*
X109797703Y-101887618D01*
X109954874Y-101508172D01*
X110035000Y-101105355D01*
X110035000Y-100694645D01*
X109954874Y-100291828D01*
X109797703Y-99912382D01*
X109569525Y-99570890D01*
X109279110Y-99280475D01*
X108937618Y-99052297D01*
X108558172Y-98895126D01*
X108155355Y-98815000D01*
X107744645Y-98815000D01*
X107341828Y-98895126D01*
X106962382Y-99052297D01*
X106620890Y-99280475D01*
X106330475Y-99570890D01*
X106102297Y-99912382D01*
X105945126Y-100291828D01*
X105865000Y-100694645D01*
X97335000Y-100694645D01*
X97254874Y-100291828D01*
X97097703Y-99912382D01*
X96869525Y-99570890D01*
X96579110Y-99280475D01*
X96237618Y-99052297D01*
X95858172Y-98895126D01*
X95455355Y-98815000D01*
X95044645Y-98815000D01*
X94641828Y-98895126D01*
X94262382Y-99052297D01*
X93920890Y-99280475D01*
X93630475Y-99570890D01*
X93402297Y-99912382D01*
X93245126Y-100291828D01*
X93165000Y-100694645D01*
X86659935Y-100694645D01*
X86659935Y-85450000D01*
X93011928Y-85450000D01*
X93011928Y-87150000D01*
X93024188Y-87274482D01*
X93060498Y-87394180D01*
X93119463Y-87504494D01*
X93198815Y-87601185D01*
X93295506Y-87680537D01*
X93405820Y-87739502D01*
X93525518Y-87775812D01*
X93650000Y-87788072D01*
X95350000Y-87788072D01*
X95474482Y-87775812D01*
X95594180Y-87739502D01*
X95704494Y-87680537D01*
X95801185Y-87601185D01*
X95880537Y-87504494D01*
X95939502Y-87394180D01*
X95960393Y-87325313D01*
X95984866Y-87355134D01*
X96210986Y-87540706D01*
X96468966Y-87678599D01*
X96748889Y-87763513D01*
X96967050Y-87785000D01*
X97112950Y-87785000D01*
X97331111Y-87763513D01*
X97611034Y-87678599D01*
X97869014Y-87540706D01*
X98095134Y-87355134D01*
X98280706Y-87129014D01*
X98310000Y-87074209D01*
X98339294Y-87129014D01*
X98524866Y-87355134D01*
X98750986Y-87540706D01*
X99008966Y-87678599D01*
X99288889Y-87763513D01*
X99507050Y-87785000D01*
X99652950Y-87785000D01*
X99871111Y-87763513D01*
X100151034Y-87678599D01*
X100409014Y-87540706D01*
X100635134Y-87355134D01*
X100820706Y-87129014D01*
X100850000Y-87074209D01*
X100879294Y-87129014D01*
X101064866Y-87355134D01*
X101290986Y-87540706D01*
X101548966Y-87678599D01*
X101828889Y-87763513D01*
X102047050Y-87785000D01*
X102192950Y-87785000D01*
X102411111Y-87763513D01*
X102691034Y-87678599D01*
X102949014Y-87540706D01*
X103175134Y-87355134D01*
X103360706Y-87129014D01*
X103390000Y-87074209D01*
X103419294Y-87129014D01*
X103604866Y-87355134D01*
X103830986Y-87540706D01*
X104088966Y-87678599D01*
X104368889Y-87763513D01*
X104587050Y-87785000D01*
X104732950Y-87785000D01*
X104951111Y-87763513D01*
X105231034Y-87678599D01*
X105489014Y-87540706D01*
X105715134Y-87355134D01*
X105900706Y-87129014D01*
X106038599Y-86871034D01*
X106123513Y-86591111D01*
X106152185Y-86300000D01*
X106123513Y-86008889D01*
X106038599Y-85728966D01*
X105900706Y-85470986D01*
X105715134Y-85244866D01*
X105489014Y-85059294D01*
X105231034Y-84921401D01*
X104951111Y-84836487D01*
X104732950Y-84815000D01*
X104679801Y-84815000D01*
X113684802Y-75810000D01*
X144381957Y-75810000D01*
X144485363Y-75964759D01*
X144685241Y-76164637D01*
X144917759Y-76320000D01*
X144685241Y-76475363D01*
X144485363Y-76675241D01*
X144328320Y-76910273D01*
X144220147Y-77171426D01*
X144165000Y-77448665D01*
X144165000Y-77731335D01*
X144220147Y-78008574D01*
X144328320Y-78269727D01*
X144485363Y-78504759D01*
X144685241Y-78704637D01*
X144917759Y-78860000D01*
X144685241Y-79015363D01*
X144485363Y-79215241D01*
X144328320Y-79450273D01*
X144220147Y-79711426D01*
X144165000Y-79988665D01*
X144165000Y-80271335D01*
X144220147Y-80548574D01*
X144328320Y-80809727D01*
X144485363Y-81044759D01*
X144685241Y-81244637D01*
X144917759Y-81400000D01*
X144685241Y-81555363D01*
X144485363Y-81755241D01*
X144328320Y-81990273D01*
X144220147Y-82251426D01*
X144165000Y-82528665D01*
X144165000Y-82811335D01*
X144220147Y-83088574D01*
X144328320Y-83349727D01*
X144485363Y-83584759D01*
X144685241Y-83784637D01*
X144917759Y-83940000D01*
X144685241Y-84095363D01*
X144485363Y-84295241D01*
X144328320Y-84530273D01*
X144220147Y-84791426D01*
X144165000Y-85068665D01*
X144165000Y-85351335D01*
X144220147Y-85628574D01*
X144328320Y-85889727D01*
X144485363Y-86124759D01*
X144685241Y-86324637D01*
X144917759Y-86480000D01*
X144685241Y-86635363D01*
X144485363Y-86835241D01*
X144328320Y-87070273D01*
X144220147Y-87331426D01*
X144165000Y-87608665D01*
X144165000Y-87891335D01*
X144220147Y-88168574D01*
X144328320Y-88429727D01*
X144485363Y-88664759D01*
X144685241Y-88864637D01*
X144917759Y-89020000D01*
X144685241Y-89175363D01*
X144485363Y-89375241D01*
X144328320Y-89610273D01*
X144220147Y-89871426D01*
X144165000Y-90148665D01*
X144165000Y-90431335D01*
X144220147Y-90708574D01*
X144328320Y-90969727D01*
X144485363Y-91204759D01*
X144685241Y-91404637D01*
X144917759Y-91560000D01*
X144685241Y-91715363D01*
X144485363Y-91915241D01*
X144328320Y-92150273D01*
X144220147Y-92411426D01*
X144165000Y-92688665D01*
X144165000Y-92971335D01*
X144220147Y-93248574D01*
X144328320Y-93509727D01*
X144485363Y-93744759D01*
X144685241Y-93944637D01*
X144917759Y-94100000D01*
X144685241Y-94255363D01*
X144485363Y-94455241D01*
X144328320Y-94690273D01*
X144220147Y-94951426D01*
X144165000Y-95228665D01*
X144165000Y-95511335D01*
X144220147Y-95788574D01*
X144328320Y-96049727D01*
X144485363Y-96284759D01*
X144685241Y-96484637D01*
X144917759Y-96640000D01*
X144685241Y-96795363D01*
X144485363Y-96995241D01*
X144328320Y-97230273D01*
X144220147Y-97491426D01*
X144165000Y-97768665D01*
X144165000Y-98051335D01*
X144220147Y-98328574D01*
X144328320Y-98589727D01*
X144485363Y-98824759D01*
X144685241Y-99024637D01*
X144917759Y-99180000D01*
X144685241Y-99335363D01*
X144485363Y-99535241D01*
X144328320Y-99770273D01*
X144220147Y-100031426D01*
X144165000Y-100308665D01*
X144165000Y-100591335D01*
X144220147Y-100868574D01*
X144328320Y-101129727D01*
X144485363Y-101364759D01*
X144685241Y-101564637D01*
X144917759Y-101720000D01*
X144685241Y-101875363D01*
X144485363Y-102075241D01*
X144328320Y-102310273D01*
X144220147Y-102571426D01*
X144165000Y-102848665D01*
X144165000Y-103131335D01*
X144220147Y-103408574D01*
X144328320Y-103669727D01*
X144485363Y-103904759D01*
X144685241Y-104104637D01*
X144920273Y-104261680D01*
X145181426Y-104369853D01*
X145458665Y-104425000D01*
X145741335Y-104425000D01*
X146018574Y-104369853D01*
X146279727Y-104261680D01*
X146514759Y-104104637D01*
X146714637Y-103904759D01*
X146871680Y-103669727D01*
X146979853Y-103408574D01*
X147002501Y-103294718D01*
X147002501Y-107832155D01*
X146895208Y-107920208D01*
X146785542Y-108053836D01*
X146704053Y-108206291D01*
X146693827Y-108240000D01*
X143988072Y-108240000D01*
X143988072Y-107980000D01*
X143975812Y-107855518D01*
X143939502Y-107735820D01*
X143880537Y-107625506D01*
X143801185Y-107528815D01*
X143704494Y-107449463D01*
X143594180Y-107390498D01*
X143474482Y-107354188D01*
X143350000Y-107341928D01*
X141350000Y-107341928D01*
X141225518Y-107354188D01*
X141105820Y-107390498D01*
X140995506Y-107449463D01*
X140898815Y-107528815D01*
X140819463Y-107625506D01*
X140760498Y-107735820D01*
X140724188Y-107855518D01*
X140711928Y-107980000D01*
X140711928Y-109880000D01*
X140724188Y-110004482D01*
X140760498Y-110124180D01*
X140819463Y-110234494D01*
X140898815Y-110331185D01*
X140995506Y-110410537D01*
X141105820Y-110469502D01*
X141225518Y-110505812D01*
X141350000Y-110518072D01*
X143350000Y-110518072D01*
X143474482Y-110505812D01*
X143594180Y-110469502D01*
X143704494Y-110410537D01*
X143801185Y-110331185D01*
X143880537Y-110234494D01*
X143939502Y-110124180D01*
X143975812Y-110004482D01*
X143988072Y-109880000D01*
X143988072Y-109760000D01*
X146693827Y-109760000D01*
X146704053Y-109793709D01*
X146785542Y-109946164D01*
X146895208Y-110079792D01*
X147028836Y-110189458D01*
X147181291Y-110270947D01*
X147346715Y-110321128D01*
X147518750Y-110338072D01*
X147815011Y-110338072D01*
X147815011Y-111461928D01*
X147418750Y-111461928D01*
X147246715Y-111478872D01*
X147081291Y-111529053D01*
X146928836Y-111610542D01*
X146795208Y-111720208D01*
X146685542Y-111853836D01*
X146604053Y-112006291D01*
X146593827Y-112040000D01*
X143988072Y-112040000D01*
X143988072Y-111980000D01*
X143975812Y-111855518D01*
X143939502Y-111735820D01*
X143880537Y-111625506D01*
X143801185Y-111528815D01*
X143704494Y-111449463D01*
X143594180Y-111390498D01*
X143474482Y-111354188D01*
X143350000Y-111341928D01*
X141350000Y-111341928D01*
X141225518Y-111354188D01*
X141105820Y-111390498D01*
X140995506Y-111449463D01*
X140898815Y-111528815D01*
X140819463Y-111625506D01*
X140760498Y-111735820D01*
X140724188Y-111855518D01*
X140711928Y-111980000D01*
X140711928Y-113880000D01*
X140724188Y-114004482D01*
X140760498Y-114124180D01*
X140819463Y-114234494D01*
X140898815Y-114331185D01*
X140995506Y-114410537D01*
X141105820Y-114469502D01*
X141225518Y-114505812D01*
X141350000Y-114518072D01*
X143350000Y-114518072D01*
X143474482Y-114505812D01*
X143594180Y-114469502D01*
X143704494Y-114410537D01*
X143801185Y-114331185D01*
X143880537Y-114234494D01*
X143939502Y-114124180D01*
X143975812Y-114004482D01*
X143988072Y-113880000D01*
X143988072Y-113560000D01*
X146593827Y-113560000D01*
X146604053Y-113593709D01*
X146685542Y-113746164D01*
X146795208Y-113879792D01*
X146928836Y-113989458D01*
X147081291Y-114070947D01*
X147246715Y-114121128D01*
X147418750Y-114138072D01*
X147906250Y-114138072D01*
X148078285Y-114121128D01*
X148243709Y-114070947D01*
X148396164Y-113989458D01*
X148529792Y-113879792D01*
X148639458Y-113746164D01*
X148720947Y-113593709D01*
X148771128Y-113428285D01*
X148788072Y-113256250D01*
X148788072Y-112749229D01*
X149086007Y-112451294D01*
X149115011Y-112427491D01*
X149209984Y-112311766D01*
X149280556Y-112179737D01*
X149324013Y-112036476D01*
X149335010Y-111924823D01*
X149335010Y-111924814D01*
X149338686Y-111887491D01*
X149335010Y-111850168D01*
X149335010Y-88222332D01*
X149338686Y-88185009D01*
X149335010Y-88147686D01*
X149335010Y-88147677D01*
X149324013Y-88036024D01*
X149280556Y-87892763D01*
X149209984Y-87760734D01*
X149192559Y-87739502D01*
X149138809Y-87674006D01*
X149138805Y-87674002D01*
X149115011Y-87645009D01*
X149086019Y-87621216D01*
X146998688Y-85533886D01*
X147035000Y-85351335D01*
X147035000Y-85068665D01*
X146979853Y-84791426D01*
X146871680Y-84530273D01*
X146714637Y-84295241D01*
X146514759Y-84095363D01*
X146282241Y-83940000D01*
X146514759Y-83784637D01*
X146714637Y-83584759D01*
X146818043Y-83430000D01*
X146855199Y-83430000D01*
X149690010Y-86264812D01*
X149690011Y-113697686D01*
X147945252Y-115442447D01*
X147945247Y-115442451D01*
X147924020Y-115463678D01*
X147906250Y-115461928D01*
X147418750Y-115461928D01*
X147246715Y-115478872D01*
X147081291Y-115529053D01*
X146928836Y-115610542D01*
X146795208Y-115720208D01*
X146685542Y-115853836D01*
X146604053Y-116006291D01*
X146554392Y-116170000D01*
X143988072Y-116170000D01*
X143988072Y-115980000D01*
X143975812Y-115855518D01*
X143939502Y-115735820D01*
X143880537Y-115625506D01*
X143801185Y-115528815D01*
X143704494Y-115449463D01*
X143594180Y-115390498D01*
X143474482Y-115354188D01*
X143350000Y-115341928D01*
X141350000Y-115341928D01*
X141225518Y-115354188D01*
X141105820Y-115390498D01*
X140995506Y-115449463D01*
X140898815Y-115528815D01*
X140819463Y-115625506D01*
X140760498Y-115735820D01*
X140724188Y-115855518D01*
X140711928Y-115980000D01*
X140711928Y-116845547D01*
X140674482Y-116834188D01*
X140550000Y-116821928D01*
X136150000Y-116821928D01*
X136025518Y-116834188D01*
X135905820Y-116870498D01*
X135795506Y-116929463D01*
X135698815Y-117008815D01*
X135619463Y-117105506D01*
X135560498Y-117215820D01*
X135524188Y-117335518D01*
X135511928Y-117460000D01*
X135511928Y-119460000D01*
X135524188Y-119584482D01*
X135560498Y-119704180D01*
X135619463Y-119814494D01*
X135698815Y-119911185D01*
X135795506Y-119990537D01*
X135905820Y-120049502D01*
X136025518Y-120085812D01*
X136150000Y-120098072D01*
X140550000Y-120098072D01*
X140674482Y-120085812D01*
X140794180Y-120049502D01*
X140904494Y-119990537D01*
X141001185Y-119911185D01*
X141080537Y-119814494D01*
X141139502Y-119704180D01*
X141175812Y-119584482D01*
X141188072Y-119460000D01*
X141188072Y-118494453D01*
X141225518Y-118505812D01*
X141350000Y-118518072D01*
X143350000Y-118518072D01*
X143474482Y-118505812D01*
X143594180Y-118469502D01*
X143704494Y-118410537D01*
X143801185Y-118331185D01*
X143880537Y-118234494D01*
X143939502Y-118124180D01*
X143975812Y-118004482D01*
X143988072Y-117880000D01*
X143988072Y-117690000D01*
X146655522Y-117690000D01*
X146685542Y-117746164D01*
X146795208Y-117879792D01*
X146928836Y-117989458D01*
X147081291Y-118070947D01*
X147246715Y-118121128D01*
X147418750Y-118138072D01*
X147906250Y-118138072D01*
X148078285Y-118121128D01*
X148243709Y-118070947D01*
X148396164Y-117989458D01*
X148529792Y-117879792D01*
X148639458Y-117746164D01*
X148720947Y-117593709D01*
X148771128Y-117428285D01*
X148788072Y-117256250D01*
X148788072Y-116749230D01*
X149020049Y-116517253D01*
X149020053Y-116517248D01*
X150140020Y-115397282D01*
X150140020Y-116627028D01*
X146527049Y-120240000D01*
X125639803Y-120240000D01*
X123089801Y-117690000D01*
X125711928Y-117690000D01*
X125711928Y-117880000D01*
X125724188Y-118004482D01*
X125760498Y-118124180D01*
X125819463Y-118234494D01*
X125898815Y-118331185D01*
X125995506Y-118410537D01*
X126105820Y-118469502D01*
X126225518Y-118505812D01*
X126350000Y-118518072D01*
X128350000Y-118518072D01*
X128474482Y-118505812D01*
X128511928Y-118494453D01*
X128511928Y-119460000D01*
X128524188Y-119584482D01*
X128560498Y-119704180D01*
X128619463Y-119814494D01*
X128698815Y-119911185D01*
X128795506Y-119990537D01*
X128905820Y-120049502D01*
X129025518Y-120085812D01*
X129150000Y-120098072D01*
X133550000Y-120098072D01*
X133674482Y-120085812D01*
X133794180Y-120049502D01*
X133904494Y-119990537D01*
X134001185Y-119911185D01*
X134080537Y-119814494D01*
X134139502Y-119704180D01*
X134175812Y-119584482D01*
X134188072Y-119460000D01*
X134188072Y-117460000D01*
X134175812Y-117335518D01*
X134139502Y-117215820D01*
X134080537Y-117105506D01*
X134001185Y-117008815D01*
X133904494Y-116929463D01*
X133794180Y-116870498D01*
X133674482Y-116834188D01*
X133550000Y-116821928D01*
X132720430Y-116821928D01*
X132798918Y-116704463D01*
X132922168Y-116406912D01*
X132985000Y-116091033D01*
X132985000Y-115768967D01*
X132922168Y-115453088D01*
X132798918Y-115155537D01*
X132619987Y-114887748D01*
X132392252Y-114660013D01*
X132124463Y-114481082D01*
X131826912Y-114357832D01*
X131511033Y-114295000D01*
X131188967Y-114295000D01*
X130873088Y-114357832D01*
X130575537Y-114481082D01*
X130307748Y-114660013D01*
X130080013Y-114887748D01*
X129901082Y-115155537D01*
X129777832Y-115453088D01*
X129715000Y-115768967D01*
X129715000Y-116091033D01*
X129777832Y-116406912D01*
X129901082Y-116704463D01*
X129979570Y-116821928D01*
X129150000Y-116821928D01*
X129025518Y-116834188D01*
X128988072Y-116845547D01*
X128988072Y-115980000D01*
X128975812Y-115855518D01*
X128939502Y-115735820D01*
X128880537Y-115625506D01*
X128801185Y-115528815D01*
X128704494Y-115449463D01*
X128594180Y-115390498D01*
X128474482Y-115354188D01*
X128350000Y-115341928D01*
X126350000Y-115341928D01*
X126225518Y-115354188D01*
X126105820Y-115390498D01*
X125995506Y-115449463D01*
X125898815Y-115528815D01*
X125819463Y-115625506D01*
X125760498Y-115735820D01*
X125724188Y-115855518D01*
X125711928Y-115980000D01*
X125711928Y-116170000D01*
X122943308Y-116170000D01*
X122933628Y-116071715D01*
X122883447Y-115906291D01*
X122801958Y-115753836D01*
X122692292Y-115620208D01*
X122558664Y-115510542D01*
X122406209Y-115429053D01*
X122240785Y-115378872D01*
X122068750Y-115361928D01*
X121581250Y-115361928D01*
X121409215Y-115378872D01*
X121243791Y-115429053D01*
X121091336Y-115510542D01*
X120957708Y-115620208D01*
X120848042Y-115753836D01*
X120766553Y-115906291D01*
X120716372Y-116071715D01*
X120699428Y-116243750D01*
X120699428Y-117156250D01*
X120716372Y-117328285D01*
X120766553Y-117493709D01*
X120848042Y-117646164D01*
X120957708Y-117779792D01*
X121091336Y-117889458D01*
X121216245Y-117956223D01*
X121243520Y-117989458D01*
X121285000Y-118040001D01*
X121313998Y-118063799D01*
X123940207Y-120690010D01*
X123510463Y-120690010D01*
X119010000Y-116189549D01*
X119010000Y-113372951D01*
X119747962Y-112634990D01*
X120447689Y-112634990D01*
X120661928Y-112849229D01*
X120661928Y-113356250D01*
X120678872Y-113528285D01*
X120729053Y-113693709D01*
X120810542Y-113846164D01*
X120920208Y-113979792D01*
X121053836Y-114089458D01*
X121206291Y-114170947D01*
X121371715Y-114221128D01*
X121543750Y-114238072D01*
X122031250Y-114238072D01*
X122203285Y-114221128D01*
X122368709Y-114170947D01*
X122521164Y-114089458D01*
X122654792Y-113979792D01*
X122764458Y-113846164D01*
X122845947Y-113693709D01*
X122847072Y-113690000D01*
X125711928Y-113690000D01*
X125711928Y-113880000D01*
X125724188Y-114004482D01*
X125760498Y-114124180D01*
X125819463Y-114234494D01*
X125898815Y-114331185D01*
X125995506Y-114410537D01*
X126105820Y-114469502D01*
X126225518Y-114505812D01*
X126350000Y-114518072D01*
X128350000Y-114518072D01*
X128474482Y-114505812D01*
X128594180Y-114469502D01*
X128704494Y-114410537D01*
X128801185Y-114331185D01*
X128880537Y-114234494D01*
X128939502Y-114124180D01*
X128975812Y-114004482D01*
X128988072Y-113880000D01*
X128988072Y-111980000D01*
X128975812Y-111855518D01*
X128939502Y-111735820D01*
X128880537Y-111625506D01*
X128801185Y-111528815D01*
X128704494Y-111449463D01*
X128594180Y-111390498D01*
X128474482Y-111354188D01*
X128350000Y-111341928D01*
X126350000Y-111341928D01*
X126225518Y-111354188D01*
X126105820Y-111390498D01*
X125995506Y-111449463D01*
X125898815Y-111528815D01*
X125819463Y-111625506D01*
X125760498Y-111735820D01*
X125724188Y-111855518D01*
X125711928Y-111980000D01*
X125711928Y-112170000D01*
X122865273Y-112170000D01*
X122845947Y-112106291D01*
X122764458Y-111953836D01*
X122654792Y-111820208D01*
X122521164Y-111710542D01*
X122368709Y-111629053D01*
X122203285Y-111578872D01*
X122031250Y-111561928D01*
X121543750Y-111561928D01*
X121525979Y-111563678D01*
X121326294Y-111363992D01*
X121302491Y-111334989D01*
X121186766Y-111240016D01*
X121054737Y-111169444D01*
X120911476Y-111125987D01*
X120799823Y-111114990D01*
X120799812Y-111114990D01*
X120762490Y-111111314D01*
X120725168Y-111114990D01*
X119470483Y-111114990D01*
X119433160Y-111111314D01*
X119395837Y-111114990D01*
X119395827Y-111114990D01*
X119284174Y-111125987D01*
X119140913Y-111169444D01*
X119008883Y-111240016D01*
X118925243Y-111308658D01*
X118893159Y-111334989D01*
X118869361Y-111363987D01*
X117738998Y-112494351D01*
X117710000Y-112518149D01*
X117686202Y-112547147D01*
X117686201Y-112547148D01*
X117615026Y-112633874D01*
X117544454Y-112765904D01*
X117500998Y-112909165D01*
X117486324Y-113058150D01*
X117490001Y-113095482D01*
X117490000Y-115305959D01*
X116210000Y-114025959D01*
X116210000Y-108798061D01*
X123015000Y-108798061D01*
X123015000Y-109001939D01*
X123054774Y-109201898D01*
X123132795Y-109390256D01*
X123246063Y-109559774D01*
X123390226Y-109703937D01*
X123559744Y-109817205D01*
X123748102Y-109895226D01*
X123948061Y-109935000D01*
X124151939Y-109935000D01*
X124351898Y-109895226D01*
X124540256Y-109817205D01*
X124709774Y-109703937D01*
X124753711Y-109660000D01*
X125711928Y-109660000D01*
X125711928Y-109880000D01*
X125724188Y-110004482D01*
X125760498Y-110124180D01*
X125819463Y-110234494D01*
X125898815Y-110331185D01*
X125995506Y-110410537D01*
X126105820Y-110469502D01*
X126225518Y-110505812D01*
X126350000Y-110518072D01*
X128350000Y-110518072D01*
X128474482Y-110505812D01*
X128594180Y-110469502D01*
X128704494Y-110410537D01*
X128801185Y-110331185D01*
X128880537Y-110234494D01*
X128939502Y-110124180D01*
X128975812Y-110004482D01*
X128988072Y-109880000D01*
X128988072Y-107980000D01*
X128975812Y-107855518D01*
X128939502Y-107735820D01*
X128880537Y-107625506D01*
X128801185Y-107528815D01*
X128704494Y-107449463D01*
X128594180Y-107390498D01*
X128474482Y-107354188D01*
X128350000Y-107341928D01*
X126350000Y-107341928D01*
X126225518Y-107354188D01*
X126105820Y-107390498D01*
X125995506Y-107449463D01*
X125898815Y-107528815D01*
X125819463Y-107625506D01*
X125760498Y-107735820D01*
X125724188Y-107855518D01*
X125711928Y-107980000D01*
X125711928Y-108140000D01*
X124753711Y-108140000D01*
X124709774Y-108096063D01*
X124540256Y-107982795D01*
X124351898Y-107904774D01*
X124151939Y-107865000D01*
X123948061Y-107865000D01*
X123748102Y-107904774D01*
X123559744Y-107982795D01*
X123390226Y-108096063D01*
X123246063Y-108240226D01*
X123132795Y-108409744D01*
X123054774Y-108598102D01*
X123015000Y-108798061D01*
X116210000Y-108798061D01*
X116210000Y-106400000D01*
X132011928Y-106400000D01*
X132011928Y-108400000D01*
X132024188Y-108524482D01*
X132060498Y-108644180D01*
X132119463Y-108754494D01*
X132198815Y-108851185D01*
X132295506Y-108930537D01*
X132405820Y-108989502D01*
X132525518Y-109025812D01*
X132650000Y-109038072D01*
X136979570Y-109038072D01*
X136901082Y-109155537D01*
X136777832Y-109453088D01*
X136715000Y-109768967D01*
X136715000Y-110091033D01*
X136777832Y-110406912D01*
X136901082Y-110704463D01*
X137080013Y-110972252D01*
X137307748Y-111199987D01*
X137575537Y-111378918D01*
X137873088Y-111502168D01*
X138188967Y-111565000D01*
X138511033Y-111565000D01*
X138826912Y-111502168D01*
X139124463Y-111378918D01*
X139392252Y-111199987D01*
X139619987Y-110972252D01*
X139798918Y-110704463D01*
X139922168Y-110406912D01*
X139985000Y-110091033D01*
X139985000Y-109768967D01*
X139922168Y-109453088D01*
X139798918Y-109155537D01*
X139619987Y-108887748D01*
X139392252Y-108660013D01*
X139124463Y-108481082D01*
X138826912Y-108357832D01*
X138511033Y-108295000D01*
X138188967Y-108295000D01*
X137873088Y-108357832D01*
X137684533Y-108435934D01*
X137688072Y-108400000D01*
X137688072Y-106400000D01*
X137675812Y-106275518D01*
X137639502Y-106155820D01*
X137580537Y-106045506D01*
X137501185Y-105948815D01*
X137404494Y-105869463D01*
X137294180Y-105810498D01*
X137174482Y-105774188D01*
X137050000Y-105761928D01*
X132650000Y-105761928D01*
X132525518Y-105774188D01*
X132405820Y-105810498D01*
X132295506Y-105869463D01*
X132198815Y-105948815D01*
X132119463Y-106045506D01*
X132060498Y-106155820D01*
X132024188Y-106275518D01*
X132011928Y-106400000D01*
X116210000Y-106400000D01*
X116210000Y-103187322D01*
X116213676Y-103149999D01*
X116210000Y-103112676D01*
X116210000Y-103112667D01*
X116199003Y-103001014D01*
X116155546Y-102857753D01*
X116084974Y-102725724D01*
X115990001Y-102609999D01*
X115961004Y-102586202D01*
X114663804Y-101289003D01*
X114640001Y-101259999D01*
X114524276Y-101165026D01*
X114488072Y-101145674D01*
X114488072Y-100800000D01*
X114475812Y-100675518D01*
X114439502Y-100555820D01*
X114380537Y-100445506D01*
X114301185Y-100348815D01*
X114204494Y-100269463D01*
X114094180Y-100210498D01*
X113974482Y-100174188D01*
X113850000Y-100161928D01*
X110950000Y-100161928D01*
X110825518Y-100174188D01*
X110705820Y-100210498D01*
X110595506Y-100269463D01*
X110498815Y-100348815D01*
X110419463Y-100445506D01*
X110360498Y-100555820D01*
X110324188Y-100675518D01*
X110311928Y-100800000D01*
X110311928Y-102800000D01*
X110324188Y-102924482D01*
X110347096Y-103000000D01*
X110324188Y-103075518D01*
X110311928Y-103200000D01*
X110311928Y-105200000D01*
X110324188Y-105324482D01*
X110360498Y-105444180D01*
X110419463Y-105554494D01*
X110498815Y-105651185D01*
X110595506Y-105730537D01*
X110705820Y-105789502D01*
X110825518Y-105825812D01*
X110950000Y-105838072D01*
X111640001Y-105838072D01*
X111640001Y-106146288D01*
X111496063Y-106290226D01*
X111382795Y-106459744D01*
X111304774Y-106648102D01*
X111265000Y-106848061D01*
X111265000Y-107051939D01*
X111304774Y-107251898D01*
X111382795Y-107440256D01*
X111496063Y-107609774D01*
X111640226Y-107753937D01*
X111809744Y-107867205D01*
X111998102Y-107945226D01*
X112198061Y-107985000D01*
X112401939Y-107985000D01*
X112601898Y-107945226D01*
X112790256Y-107867205D01*
X112959774Y-107753937D01*
X113103937Y-107609774D01*
X113217205Y-107440256D01*
X113295226Y-107251898D01*
X113335000Y-107051939D01*
X113335000Y-106848061D01*
X113295226Y-106648102D01*
X113217205Y-106459744D01*
X113160000Y-106374130D01*
X113160000Y-105838072D01*
X113850000Y-105838072D01*
X113974482Y-105825812D01*
X114094180Y-105789502D01*
X114204494Y-105730537D01*
X114301185Y-105651185D01*
X114380537Y-105554494D01*
X114439502Y-105444180D01*
X114475812Y-105324482D01*
X114488072Y-105200000D01*
X114488072Y-103262874D01*
X114690000Y-103464802D01*
X114690001Y-114303428D01*
X114686324Y-114340760D01*
X114690001Y-114378093D01*
X114700998Y-114489746D01*
X114711235Y-114523494D01*
X114744454Y-114633006D01*
X114815026Y-114765036D01*
X114886201Y-114851762D01*
X114910000Y-114880761D01*
X114938998Y-114904559D01*
X122445463Y-122411025D01*
X122469261Y-122440023D01*
X122584986Y-122534996D01*
X122717015Y-122605568D01*
X122860276Y-122649025D01*
X122971929Y-122660022D01*
X122971939Y-122660022D01*
X123009262Y-122663698D01*
X123046585Y-122660022D01*
X147249124Y-122660022D01*
X147286447Y-122663698D01*
X147323769Y-122660022D01*
X147323780Y-122660022D01*
X147435433Y-122649025D01*
X147578694Y-122605568D01*
X147710723Y-122534996D01*
X147826448Y-122440023D01*
X147850251Y-122411019D01*
X152311044Y-117950228D01*
X152340041Y-117926431D01*
X152435014Y-117810706D01*
X152505586Y-117678677D01*
X152549043Y-117535416D01*
X152560040Y-117423763D01*
X152560040Y-117423755D01*
X152563716Y-117386430D01*
X152560040Y-117349105D01*
X152560040Y-106464761D01*
X153039802Y-105985000D01*
X153101939Y-105985000D01*
X153301898Y-105945226D01*
X153490256Y-105867205D01*
X153659774Y-105753937D01*
X153803937Y-105609774D01*
X153917205Y-105440256D01*
X153995226Y-105251898D01*
X154035000Y-105051939D01*
X154035000Y-104848061D01*
X153995226Y-104648102D01*
X153917205Y-104459744D01*
X153803937Y-104290226D01*
X153659774Y-104146063D01*
X153490256Y-104032795D01*
X153301898Y-103954774D01*
X153101939Y-103915000D01*
X152898061Y-103915000D01*
X152698102Y-103954774D01*
X152509744Y-104032795D01*
X152340226Y-104146063D01*
X152196063Y-104290226D01*
X152110030Y-104418984D01*
X152110030Y-83377352D01*
X152113706Y-83340029D01*
X152110030Y-83302706D01*
X152110030Y-83302697D01*
X152099033Y-83191044D01*
X152055576Y-83047783D01*
X151985004Y-82915754D01*
X151971841Y-82899715D01*
X151913829Y-82829026D01*
X151913825Y-82829022D01*
X151890031Y-82800029D01*
X151861039Y-82776236D01*
X146998688Y-77913886D01*
X147035000Y-77731335D01*
X147035000Y-77448665D01*
X146979853Y-77171426D01*
X146871680Y-76910273D01*
X146714637Y-76675241D01*
X146514759Y-76475363D01*
X146282241Y-76320000D01*
X146514759Y-76164637D01*
X146714637Y-75964759D01*
X146871680Y-75729727D01*
X146979853Y-75468574D01*
X147035000Y-75191335D01*
X147035000Y-74908665D01*
X146979853Y-74631426D01*
X146871680Y-74370273D01*
X146714637Y-74135241D01*
X146514759Y-73935363D01*
X146282241Y-73780000D01*
X146514759Y-73624637D01*
X146714637Y-73424759D01*
X146871680Y-73189727D01*
X146979853Y-72928574D01*
X147035000Y-72651335D01*
X147035000Y-72368665D01*
X146979853Y-72091426D01*
X146871680Y-71830273D01*
X146714637Y-71595241D01*
X146516039Y-71396643D01*
X146524482Y-71395812D01*
X146644180Y-71359502D01*
X146754494Y-71300537D01*
X146851185Y-71221185D01*
X146930537Y-71124494D01*
X146989502Y-71014180D01*
X147025812Y-70894482D01*
X147038072Y-70770000D01*
X147038072Y-69170000D01*
X147025812Y-69045518D01*
X146989502Y-68925820D01*
X146930537Y-68815506D01*
X146851185Y-68718815D01*
X146754494Y-68639463D01*
X146644180Y-68580498D01*
X146524482Y-68544188D01*
X146400000Y-68531928D01*
X144800000Y-68531928D01*
X144675518Y-68544188D01*
X144555820Y-68580498D01*
X144445506Y-68639463D01*
X144348815Y-68718815D01*
X144269463Y-68815506D01*
X144210498Y-68925820D01*
X144174188Y-69045518D01*
X144161928Y-69170000D01*
X144161928Y-70770000D01*
X144174188Y-70894482D01*
X144210498Y-71014180D01*
X144269463Y-71124494D01*
X144348815Y-71221185D01*
X144445506Y-71300537D01*
X144555820Y-71359502D01*
X144675518Y-71395812D01*
X144683961Y-71396643D01*
X144485363Y-71595241D01*
X144328320Y-71830273D01*
X144220147Y-72091426D01*
X144165000Y-72368665D01*
X144165000Y-72651335D01*
X144220147Y-72928574D01*
X144328320Y-73189727D01*
X144485363Y-73424759D01*
X144685241Y-73624637D01*
X144917759Y-73780000D01*
X144685241Y-73935363D01*
X144485363Y-74135241D01*
X144381957Y-74290000D01*
X113407333Y-74290000D01*
X113370000Y-74286323D01*
X113332667Y-74290000D01*
X113221014Y-74300997D01*
X113077753Y-74344454D01*
X112945724Y-74415026D01*
X112829999Y-74509999D01*
X112806201Y-74538997D01*
X102485996Y-84859203D01*
X102411111Y-84836487D01*
X102192950Y-84815000D01*
X102047050Y-84815000D01*
X101828889Y-84836487D01*
X101548966Y-84921401D01*
X101290986Y-85059294D01*
X101064866Y-85244866D01*
X100879294Y-85470986D01*
X100850000Y-85525791D01*
X100820706Y-85470986D01*
X100635134Y-85244866D01*
X100409014Y-85059294D01*
X100151034Y-84921401D01*
X99871111Y-84836487D01*
X99652950Y-84815000D01*
X99507050Y-84815000D01*
X99288889Y-84836487D01*
X99008966Y-84921401D01*
X98750986Y-85059294D01*
X98524866Y-85244866D01*
X98339294Y-85470986D01*
X98310000Y-85525791D01*
X98280706Y-85470986D01*
X98095134Y-85244866D01*
X97869014Y-85059294D01*
X97611034Y-84921401D01*
X97331111Y-84836487D01*
X97112950Y-84815000D01*
X96967050Y-84815000D01*
X96748889Y-84836487D01*
X96468966Y-84921401D01*
X96210986Y-85059294D01*
X95984866Y-85244866D01*
X95960393Y-85274687D01*
X95939502Y-85205820D01*
X95880537Y-85095506D01*
X95801185Y-84998815D01*
X95704494Y-84919463D01*
X95594180Y-84860498D01*
X95474482Y-84824188D01*
X95350000Y-84811928D01*
X93650000Y-84811928D01*
X93525518Y-84824188D01*
X93405820Y-84860498D01*
X93295506Y-84919463D01*
X93198815Y-84998815D01*
X93119463Y-85095506D01*
X93060498Y-85205820D01*
X93024188Y-85325518D01*
X93011928Y-85450000D01*
X86659935Y-85450000D01*
X86659935Y-71753377D01*
X86663117Y-71712985D01*
X86655979Y-71652636D01*
X86650023Y-71592164D01*
X86648062Y-71585700D01*
X86647268Y-71578986D01*
X86628494Y-71521191D01*
X86610854Y-71463041D01*
X86607667Y-71457078D01*
X86605580Y-71450654D01*
X86575904Y-71397654D01*
X86547247Y-71344041D01*
X86542958Y-71338815D01*
X86539658Y-71332921D01*
X86500216Y-71286732D01*
X86461647Y-71239736D01*
X86456421Y-71235447D01*
X86452034Y-71230310D01*
X86404316Y-71192686D01*
X86357342Y-71154136D01*
X86321611Y-71135037D01*
X83739551Y-69481878D01*
X83755249Y-69485000D01*
X84244751Y-69485000D01*
X84724848Y-69389503D01*
X85177089Y-69202179D01*
X85584095Y-68930226D01*
X85930226Y-68584095D01*
X86202179Y-68177089D01*
X86389503Y-67724848D01*
X86485000Y-67244751D01*
X86485000Y-66755249D01*
X86392457Y-66290000D01*
X119791928Y-66290000D01*
X119791928Y-67990000D01*
X119804188Y-68114482D01*
X119840498Y-68234180D01*
X119899463Y-68344494D01*
X119978815Y-68441185D01*
X120075506Y-68520537D01*
X120185820Y-68579502D01*
X120305518Y-68615812D01*
X120430000Y-68628072D01*
X122130000Y-68628072D01*
X122254482Y-68615812D01*
X122374180Y-68579502D01*
X122484494Y-68520537D01*
X122581185Y-68441185D01*
X122660537Y-68344494D01*
X122719502Y-68234180D01*
X122755812Y-68114482D01*
X122768072Y-67990000D01*
X122768072Y-67140000D01*
X124867815Y-67140000D01*
X124896487Y-67431111D01*
X124981401Y-67711034D01*
X125119294Y-67969014D01*
X125304866Y-68195134D01*
X125530986Y-68380706D01*
X125788966Y-68518599D01*
X126068889Y-68603513D01*
X126287050Y-68625000D01*
X126432950Y-68625000D01*
X126651111Y-68603513D01*
X126725996Y-68580797D01*
X128899963Y-70754765D01*
X128923762Y-70783764D01*
X128952760Y-70807562D01*
X129039487Y-70878737D01*
X129171516Y-70949309D01*
X129314777Y-70992766D01*
X129463763Y-71007440D01*
X129501096Y-71003763D01*
X140011928Y-71003763D01*
X140011928Y-71043750D01*
X140028872Y-71215785D01*
X140079053Y-71381209D01*
X140160542Y-71533664D01*
X140270208Y-71667292D01*
X140403836Y-71776958D01*
X140556291Y-71858447D01*
X140721715Y-71908628D01*
X140893750Y-71925572D01*
X141806250Y-71925572D01*
X141978285Y-71908628D01*
X142143709Y-71858447D01*
X142296164Y-71776958D01*
X142429792Y-71667292D01*
X142539458Y-71533664D01*
X142620947Y-71381209D01*
X142671128Y-71215785D01*
X142688072Y-71043750D01*
X142688072Y-70556250D01*
X142671128Y-70384215D01*
X142620947Y-70218791D01*
X142539458Y-70066336D01*
X142429792Y-69932708D01*
X142296164Y-69823042D01*
X142143709Y-69741553D01*
X141978285Y-69691372D01*
X141806250Y-69674428D01*
X141298020Y-69674428D01*
X141218039Y-69608789D01*
X141086010Y-69538217D01*
X140942749Y-69494760D01*
X140831096Y-69483763D01*
X140831085Y-69483763D01*
X140793763Y-69480087D01*
X140756441Y-69483763D01*
X129778565Y-69483763D01*
X128919802Y-68625000D01*
X128972950Y-68625000D01*
X129191111Y-68603513D01*
X129471034Y-68518599D01*
X129729014Y-68380706D01*
X129955134Y-68195134D01*
X130140706Y-67969014D01*
X130278599Y-67711034D01*
X130363513Y-67431111D01*
X130392185Y-67140000D01*
X130363513Y-66848889D01*
X130340797Y-66774004D01*
X130598539Y-66516263D01*
X140461928Y-66516263D01*
X140461928Y-66556250D01*
X140478872Y-66728285D01*
X140529053Y-66893709D01*
X140610542Y-67046164D01*
X140720208Y-67179792D01*
X140853836Y-67289458D01*
X141006291Y-67370947D01*
X141171715Y-67421128D01*
X141343750Y-67438072D01*
X142256250Y-67438072D01*
X142428285Y-67421128D01*
X142593709Y-67370947D01*
X142746164Y-67289458D01*
X142879792Y-67179792D01*
X142967845Y-67072500D01*
X153847699Y-67072500D01*
X157290001Y-70514803D01*
X157290000Y-89212678D01*
X157286324Y-89250000D01*
X157290000Y-89287322D01*
X157290000Y-89287332D01*
X157300997Y-89398985D01*
X157340739Y-89530000D01*
X157344454Y-89542246D01*
X157415026Y-89674276D01*
X157454871Y-89722826D01*
X157509999Y-89790001D01*
X157539002Y-89813804D01*
X158526201Y-90801003D01*
X158549999Y-90830001D01*
X158578997Y-90853799D01*
X158665723Y-90924974D01*
X158781346Y-90986776D01*
X158797753Y-90995546D01*
X158941014Y-91039003D01*
X159052667Y-91050000D01*
X159052676Y-91050000D01*
X159089999Y-91053676D01*
X159127322Y-91050000D01*
X159621957Y-91050000D01*
X159725363Y-91204759D01*
X159925241Y-91404637D01*
X160157759Y-91560000D01*
X159925241Y-91715363D01*
X159725363Y-91915241D01*
X159568320Y-92150273D01*
X159460147Y-92411426D01*
X159405000Y-92688665D01*
X159405000Y-92971335D01*
X159460147Y-93248574D01*
X159568320Y-93509727D01*
X159725363Y-93744759D01*
X159925241Y-93944637D01*
X160157759Y-94100000D01*
X159925241Y-94255363D01*
X159725363Y-94455241D01*
X159568320Y-94690273D01*
X159460147Y-94951426D01*
X159405000Y-95228665D01*
X159405000Y-95511335D01*
X159460147Y-95788574D01*
X159568320Y-96049727D01*
X159725363Y-96284759D01*
X159925241Y-96484637D01*
X160157759Y-96640000D01*
X159925241Y-96795363D01*
X159725363Y-96995241D01*
X159568320Y-97230273D01*
X159460147Y-97491426D01*
X159405000Y-97768665D01*
X159405000Y-98051335D01*
X159460147Y-98328574D01*
X159568320Y-98589727D01*
X159725363Y-98824759D01*
X159925241Y-99024637D01*
X160157759Y-99180000D01*
X159925241Y-99335363D01*
X159725363Y-99535241D01*
X159568320Y-99770273D01*
X159460147Y-100031426D01*
X159405000Y-100308665D01*
X159405000Y-100591335D01*
X159460147Y-100868574D01*
X159568320Y-101129727D01*
X159725363Y-101364759D01*
X159925241Y-101564637D01*
X160157759Y-101720000D01*
X159925241Y-101875363D01*
X159725363Y-102075241D01*
X159568320Y-102310273D01*
X159460147Y-102571426D01*
X159405000Y-102848665D01*
X159405000Y-103131335D01*
X159460147Y-103408574D01*
X159568320Y-103669727D01*
X159725363Y-103904759D01*
X159925241Y-104104637D01*
X160160273Y-104261680D01*
X160421426Y-104369853D01*
X160698665Y-104425000D01*
X160981335Y-104425000D01*
X161258574Y-104369853D01*
X161519727Y-104261680D01*
X161754759Y-104104637D01*
X161954637Y-103904759D01*
X162111680Y-103669727D01*
X162219853Y-103408574D01*
X162275000Y-103131335D01*
X162275000Y-102848665D01*
X162219853Y-102571426D01*
X162111680Y-102310273D01*
X161954637Y-102075241D01*
X161754759Y-101875363D01*
X161522241Y-101720000D01*
X161754759Y-101564637D01*
X161954637Y-101364759D01*
X162111680Y-101129727D01*
X162219853Y-100868574D01*
X162275000Y-100591335D01*
X162275000Y-100308665D01*
X162219853Y-100031426D01*
X162111680Y-99770273D01*
X161954637Y-99535241D01*
X161754759Y-99335363D01*
X161522241Y-99180000D01*
X161754759Y-99024637D01*
X161954637Y-98824759D01*
X162111680Y-98589727D01*
X162219853Y-98328574D01*
X162275000Y-98051335D01*
X162275000Y-97768665D01*
X162219853Y-97491426D01*
X162111680Y-97230273D01*
X161954637Y-96995241D01*
X161754759Y-96795363D01*
X161522241Y-96640000D01*
X161754759Y-96484637D01*
X161954637Y-96284759D01*
X162111680Y-96049727D01*
X162219853Y-95788574D01*
X162275000Y-95511335D01*
X162275000Y-95228665D01*
X162219853Y-94951426D01*
X162111680Y-94690273D01*
X161954637Y-94455241D01*
X161754759Y-94255363D01*
X161522241Y-94100000D01*
X161754759Y-93944637D01*
X161954637Y-93744759D01*
X162111680Y-93509727D01*
X162219853Y-93248574D01*
X162275000Y-92971335D01*
X162275000Y-92688665D01*
X162219853Y-92411426D01*
X162111680Y-92150273D01*
X161954637Y-91915241D01*
X161754759Y-91715363D01*
X161522241Y-91560000D01*
X161754759Y-91404637D01*
X161954637Y-91204759D01*
X162111680Y-90969727D01*
X162219853Y-90708574D01*
X162275000Y-90431335D01*
X162275000Y-90148665D01*
X162219853Y-89871426D01*
X162111680Y-89610273D01*
X161954637Y-89375241D01*
X161754759Y-89175363D01*
X161522241Y-89020000D01*
X161754759Y-88864637D01*
X161954637Y-88664759D01*
X162111680Y-88429727D01*
X162219853Y-88168574D01*
X162275000Y-87891335D01*
X162275000Y-87608665D01*
X162219853Y-87331426D01*
X162111680Y-87070273D01*
X161954637Y-86835241D01*
X161754759Y-86635363D01*
X161522241Y-86480000D01*
X161754759Y-86324637D01*
X161954637Y-86124759D01*
X162111680Y-85889727D01*
X162219853Y-85628574D01*
X162275000Y-85351335D01*
X162275000Y-85068665D01*
X162219853Y-84791426D01*
X162111680Y-84530273D01*
X161954637Y-84295241D01*
X161754759Y-84095363D01*
X161522241Y-83940000D01*
X161754759Y-83784637D01*
X161954637Y-83584759D01*
X162111680Y-83349727D01*
X162219853Y-83088574D01*
X162275000Y-82811335D01*
X162275000Y-82528665D01*
X162219853Y-82251426D01*
X162111680Y-81990273D01*
X161954637Y-81755241D01*
X161754759Y-81555363D01*
X161522241Y-81400000D01*
X161754759Y-81244637D01*
X161954637Y-81044759D01*
X162111680Y-80809727D01*
X162219853Y-80548574D01*
X162275000Y-80271335D01*
X162275000Y-79988665D01*
X162219853Y-79711426D01*
X162111680Y-79450273D01*
X161954637Y-79215241D01*
X161754759Y-79015363D01*
X161522241Y-78860000D01*
X161754759Y-78704637D01*
X161954637Y-78504759D01*
X162111680Y-78269727D01*
X162219853Y-78008574D01*
X162275000Y-77731335D01*
X162275000Y-77448665D01*
X162219853Y-77171426D01*
X162111680Y-76910273D01*
X161954637Y-76675241D01*
X161754759Y-76475363D01*
X161519727Y-76318320D01*
X161258574Y-76210147D01*
X160981335Y-76155000D01*
X160698665Y-76155000D01*
X160421426Y-76210147D01*
X160160273Y-76318320D01*
X159925241Y-76475363D01*
X159725363Y-76675241D01*
X159568320Y-76910273D01*
X159460147Y-77171426D01*
X159405000Y-77448665D01*
X159405000Y-77731335D01*
X159460147Y-78008574D01*
X159568320Y-78269727D01*
X159725363Y-78504759D01*
X159925241Y-78704637D01*
X160157759Y-78860000D01*
X159925241Y-79015363D01*
X159725363Y-79215241D01*
X159568320Y-79450273D01*
X159460147Y-79711426D01*
X159405000Y-79988665D01*
X159405000Y-80271335D01*
X159460147Y-80548574D01*
X159568320Y-80809727D01*
X159725363Y-81044759D01*
X159925241Y-81244637D01*
X160157759Y-81400000D01*
X159925241Y-81555363D01*
X159725363Y-81755241D01*
X159568320Y-81990273D01*
X159460147Y-82251426D01*
X159405000Y-82528665D01*
X159405000Y-82811335D01*
X159460147Y-83088574D01*
X159568320Y-83349727D01*
X159725363Y-83584759D01*
X159925241Y-83784637D01*
X160157759Y-83940000D01*
X159925241Y-84095363D01*
X159725363Y-84295241D01*
X159568320Y-84530273D01*
X159460147Y-84791426D01*
X159405000Y-85068665D01*
X159405000Y-85351335D01*
X159460147Y-85628574D01*
X159568320Y-85889727D01*
X159725363Y-86124759D01*
X159925241Y-86324637D01*
X160157759Y-86480000D01*
X159925241Y-86635363D01*
X159725363Y-86835241D01*
X159568320Y-87070273D01*
X159460147Y-87331426D01*
X159405000Y-87608665D01*
X159405000Y-87891335D01*
X159460147Y-88168574D01*
X159568320Y-88429727D01*
X159725363Y-88664759D01*
X159925241Y-88864637D01*
X160157759Y-89020000D01*
X159925241Y-89175363D01*
X159725363Y-89375241D01*
X159621957Y-89530000D01*
X159404802Y-89530000D01*
X158810000Y-88935199D01*
X158810000Y-70237322D01*
X158813676Y-70199999D01*
X158810000Y-70162676D01*
X158810000Y-70162667D01*
X158799003Y-70051014D01*
X158755546Y-69907753D01*
X158713272Y-69828665D01*
X159405000Y-69828665D01*
X159405000Y-70111335D01*
X159460147Y-70388574D01*
X159568320Y-70649727D01*
X159725363Y-70884759D01*
X159925241Y-71084637D01*
X160157759Y-71240000D01*
X159925241Y-71395363D01*
X159725363Y-71595241D01*
X159568320Y-71830273D01*
X159460147Y-72091426D01*
X159405000Y-72368665D01*
X159405000Y-72651335D01*
X159460147Y-72928574D01*
X159568320Y-73189727D01*
X159725363Y-73424759D01*
X159925241Y-73624637D01*
X160160273Y-73781680D01*
X160421426Y-73889853D01*
X160698665Y-73945000D01*
X160981335Y-73945000D01*
X161258574Y-73889853D01*
X161519727Y-73781680D01*
X161754759Y-73624637D01*
X161954637Y-73424759D01*
X162111680Y-73189727D01*
X162219853Y-72928574D01*
X162275000Y-72651335D01*
X162275000Y-72368665D01*
X162219853Y-72091426D01*
X162111680Y-71830273D01*
X161954637Y-71595241D01*
X161754759Y-71395363D01*
X161522241Y-71240000D01*
X161754759Y-71084637D01*
X161954637Y-70884759D01*
X162111680Y-70649727D01*
X162219853Y-70388574D01*
X162275000Y-70111335D01*
X162275000Y-69828665D01*
X162219853Y-69551426D01*
X162111680Y-69290273D01*
X161954637Y-69055241D01*
X161754759Y-68855363D01*
X161519727Y-68698320D01*
X161258574Y-68590147D01*
X160981335Y-68535000D01*
X160698665Y-68535000D01*
X160421426Y-68590147D01*
X160160273Y-68698320D01*
X159925241Y-68855363D01*
X159725363Y-69055241D01*
X159568320Y-69290273D01*
X159460147Y-69551426D01*
X159405000Y-69828665D01*
X158713272Y-69828665D01*
X158684974Y-69775724D01*
X158590001Y-69659999D01*
X158561003Y-69636201D01*
X154726304Y-65801503D01*
X154702501Y-65772499D01*
X154586776Y-65677526D01*
X154454747Y-65606954D01*
X154311486Y-65563497D01*
X154199833Y-65552500D01*
X154199822Y-65552500D01*
X154162500Y-65548824D01*
X154125178Y-65552500D01*
X142967845Y-65552500D01*
X142879792Y-65445208D01*
X142746164Y-65335542D01*
X142593709Y-65254053D01*
X142428285Y-65203872D01*
X142256250Y-65186928D01*
X141748020Y-65186928D01*
X141668039Y-65121289D01*
X141536010Y-65050717D01*
X141392749Y-65007260D01*
X141281096Y-64996263D01*
X141281085Y-64996263D01*
X141243763Y-64992587D01*
X141206441Y-64996263D01*
X130321070Y-64996263D01*
X130283737Y-64992586D01*
X130246404Y-64996263D01*
X130134751Y-65007260D01*
X129991490Y-65050717D01*
X129859461Y-65121289D01*
X129743736Y-65216262D01*
X129719937Y-65245261D01*
X129265996Y-65699203D01*
X129191111Y-65676487D01*
X128972950Y-65655000D01*
X128827050Y-65655000D01*
X128608889Y-65676487D01*
X128328966Y-65761401D01*
X128070986Y-65899294D01*
X127844866Y-66084866D01*
X127659294Y-66310986D01*
X127630000Y-66365791D01*
X127600706Y-66310986D01*
X127415134Y-66084866D01*
X127189014Y-65899294D01*
X126931034Y-65761401D01*
X126651111Y-65676487D01*
X126432950Y-65655000D01*
X126287050Y-65655000D01*
X126068889Y-65676487D01*
X125788966Y-65761401D01*
X125530986Y-65899294D01*
X125304866Y-66084866D01*
X125119294Y-66310986D01*
X124981401Y-66568966D01*
X124896487Y-66848889D01*
X124867815Y-67140000D01*
X122768072Y-67140000D01*
X122768072Y-66290000D01*
X122755812Y-66165518D01*
X122719502Y-66045820D01*
X122660537Y-65935506D01*
X122581185Y-65838815D01*
X122484494Y-65759463D01*
X122374180Y-65700498D01*
X122254482Y-65664188D01*
X122130000Y-65651928D01*
X120430000Y-65651928D01*
X120305518Y-65664188D01*
X120185820Y-65700498D01*
X120075506Y-65759463D01*
X119978815Y-65838815D01*
X119899463Y-65935506D01*
X119840498Y-66045820D01*
X119804188Y-66165518D01*
X119791928Y-66290000D01*
X86392457Y-66290000D01*
X86389503Y-66275152D01*
X86202179Y-65822911D01*
X85930226Y-65415905D01*
X85584095Y-65069774D01*
X85177089Y-64797821D01*
X84844308Y-64659979D01*
X165155692Y-64659979D01*
X164822911Y-64797821D01*
M02*
