G04 #@! TF.GenerationSoftware,KiCad,Pcbnew,7.0.2-0*
G04 #@! TF.CreationDate,2023-05-22T20:56:43-04:00*
G04 #@! TF.ProjectId,speed_joystick,73706565-645f-46a6-9f79-737469636b2e,rev?*
G04 #@! TF.SameCoordinates,Original*
G04 #@! TF.FileFunction,Paste,Top*
G04 #@! TF.FilePolarity,Positive*
%FSLAX46Y46*%
G04 Gerber Fmt 4.6, Leading zero omitted, Abs format (unit mm)*
G04 Created by KiCad (PCBNEW 7.0.2-0) date 2023-05-22 20:56:43*
%MOMM*%
%LPD*%
G01*
G04 APERTURE LIST*
G04 Aperture macros list*
%AMRoundRect*
0 Rectangle with rounded corners*
0 $1 Rounding radius*
0 $2 $3 $4 $5 $6 $7 $8 $9 X,Y pos of 4 corners*
0 Add a 4 corners polygon primitive as box body*
4,1,4,$2,$3,$4,$5,$6,$7,$8,$9,$2,$3,0*
0 Add four circle primitives for the rounded corners*
1,1,$1+$1,$2,$3*
1,1,$1+$1,$4,$5*
1,1,$1+$1,$6,$7*
1,1,$1+$1,$8,$9*
0 Add four rect primitives between the rounded corners*
20,1,$1+$1,$2,$3,$4,$5,0*
20,1,$1+$1,$4,$5,$6,$7,0*
20,1,$1+$1,$6,$7,$8,$9,0*
20,1,$1+$1,$8,$9,$2,$3,0*%
%AMRotRect*
0 Rectangle, with rotation*
0 The origin of the aperture is its center*
0 $1 length*
0 $2 width*
0 $3 Rotation angle, in degrees counterclockwise*
0 Add horizontal line*
21,1,$1,$2,0,0,$3*%
G04 Aperture macros list end*
%ADD10RoundRect,0.100000X0.100000X-0.637500X0.100000X0.637500X-0.100000X0.637500X-0.100000X-0.637500X0*%
%ADD11RoundRect,0.150000X-0.587500X-0.150000X0.587500X-0.150000X0.587500X0.150000X-0.587500X0.150000X0*%
%ADD12RoundRect,0.225000X0.225000X0.250000X-0.225000X0.250000X-0.225000X-0.250000X0.225000X-0.250000X0*%
%ADD13RoundRect,0.225000X0.250000X-0.225000X0.250000X0.225000X-0.250000X0.225000X-0.250000X-0.225000X0*%
%ADD14RoundRect,0.250000X0.450000X-0.262500X0.450000X0.262500X-0.450000X0.262500X-0.450000X-0.262500X0*%
%ADD15RoundRect,0.225000X-0.225000X-0.250000X0.225000X-0.250000X0.225000X0.250000X-0.225000X0.250000X0*%
%ADD16RoundRect,0.225000X-0.334506X0.035083X-0.070003X-0.328975X0.334506X-0.035083X0.070003X0.328975X0*%
%ADD17RoundRect,0.225000X-0.035083X-0.334506X0.328975X-0.070003X0.035083X0.334506X-0.328975X0.070003X0*%
%ADD18RotRect,0.750000X0.800000X165.000000*%
%ADD19RotRect,0.600000X0.800000X165.000000*%
%ADD20RotRect,0.400000X0.800000X165.000000*%
%ADD21RotRect,0.800000X0.800000X165.000000*%
%ADD22RoundRect,0.225000X0.035083X0.334506X-0.328975X0.070003X-0.035083X-0.334506X0.328975X-0.070003X0*%
%ADD23R,0.800000X0.750000*%
%ADD24R,0.800000X0.600000*%
%ADD25R,0.800000X0.400000*%
%ADD26R,0.800000X0.800000*%
%ADD27RoundRect,0.225000X0.334506X-0.035083X0.070003X0.328975X-0.334506X0.035083X-0.070003X-0.328975X0*%
%ADD28RoundRect,0.225000X-0.314028X0.120464X-0.152762X-0.299648X0.314028X-0.120464X0.152762X0.299648X0*%
%ADD29RoundRect,0.225000X-0.272149X0.197635X-0.225112X-0.249900X0.272149X-0.197635X0.225112X0.249900X0*%
%ADD30RotRect,0.750000X0.800000X45.000000*%
%ADD31RotRect,0.600000X0.800000X45.000000*%
%ADD32RotRect,0.400000X0.800000X45.000000*%
%ADD33RotRect,0.800000X0.800000X45.000000*%
%ADD34RotRect,0.750000X0.800000X345.000000*%
%ADD35RotRect,0.600000X0.800000X345.000000*%
%ADD36RotRect,0.400000X0.800000X345.000000*%
%ADD37RotRect,0.800000X0.800000X345.000000*%
%ADD38RotRect,0.750000X0.800000X315.000000*%
%ADD39RotRect,0.600000X0.800000X315.000000*%
%ADD40RotRect,0.400000X0.800000X315.000000*%
%ADD41RotRect,0.800000X0.800000X315.000000*%
%ADD42RotRect,0.750000X0.800000X195.000000*%
%ADD43RotRect,0.600000X0.800000X195.000000*%
%ADD44RotRect,0.400000X0.800000X195.000000*%
%ADD45RotRect,0.800000X0.800000X195.000000*%
%ADD46RotRect,0.750000X0.800000X150.000000*%
%ADD47RotRect,0.600000X0.800000X150.000000*%
%ADD48RotRect,0.400000X0.800000X150.000000*%
%ADD49RotRect,0.800000X0.800000X150.000000*%
%ADD50RotRect,0.750000X0.800000X75.000000*%
%ADD51RotRect,0.600000X0.800000X75.000000*%
%ADD52RotRect,0.400000X0.800000X75.000000*%
%ADD53RotRect,0.800000X0.800000X75.000000*%
%ADD54RotRect,0.750000X0.800000X285.000000*%
%ADD55RotRect,0.600000X0.800000X285.000000*%
%ADD56RotRect,0.400000X0.800000X285.000000*%
%ADD57RotRect,0.800000X0.800000X285.000000*%
%ADD58RotRect,0.750000X0.800000X30.000000*%
%ADD59RotRect,0.600000X0.800000X30.000000*%
%ADD60RotRect,0.400000X0.800000X30.000000*%
%ADD61RotRect,0.800000X0.800000X30.000000*%
%ADD62RoundRect,0.225000X-0.136871X0.307232X-0.319902X-0.103864X0.136871X-0.307232X0.319902X0.103864X0*%
%ADD63RotRect,0.750000X0.800000X300.000000*%
%ADD64RotRect,0.600000X0.800000X300.000000*%
%ADD65RotRect,0.400000X0.800000X300.000000*%
%ADD66RotRect,0.800000X0.800000X300.000000*%
%ADD67RotRect,0.750000X0.800000X255.000000*%
%ADD68RotRect,0.600000X0.800000X255.000000*%
%ADD69RotRect,0.400000X0.800000X255.000000*%
%ADD70RotRect,0.800000X0.800000X255.000000*%
%ADD71RotRect,0.750000X0.800000X105.000000*%
%ADD72RotRect,0.600000X0.800000X105.000000*%
%ADD73RotRect,0.400000X0.800000X105.000000*%
%ADD74RotRect,0.800000X0.800000X105.000000*%
%ADD75RoundRect,0.150000X-0.150000X0.825000X-0.150000X-0.825000X0.150000X-0.825000X0.150000X0.825000X0*%
%ADD76RotRect,0.750000X0.800000X15.000000*%
%ADD77RotRect,0.600000X0.800000X15.000000*%
%ADD78RotRect,0.400000X0.800000X15.000000*%
%ADD79RotRect,0.800000X0.800000X15.000000*%
%ADD80RoundRect,0.225000X0.197635X0.272149X-0.249900X0.225112X-0.197635X-0.272149X0.249900X-0.225112X0*%
%ADD81RoundRect,0.225000X0.272149X-0.197635X0.225112X0.249900X-0.272149X0.197635X-0.225112X-0.249900X0*%
%ADD82RoundRect,0.250000X-0.262500X-0.450000X0.262500X-0.450000X0.262500X0.450000X-0.262500X0.450000X0*%
%ADD83RoundRect,0.250000X0.262500X0.450000X-0.262500X0.450000X-0.262500X-0.450000X0.262500X-0.450000X0*%
%ADD84RotRect,0.750000X0.800000X210.000000*%
%ADD85RotRect,0.600000X0.800000X210.000000*%
%ADD86RotRect,0.400000X0.800000X210.000000*%
%ADD87RotRect,0.800000X0.800000X210.000000*%
%ADD88RoundRect,0.225000X0.136871X-0.307232X0.319902X0.103864X-0.136871X0.307232X-0.319902X-0.103864X0*%
%ADD89RoundRect,0.225000X-0.120464X-0.314028X0.299648X-0.152762X0.120464X0.314028X-0.299648X0.152762X0*%
%ADD90RotRect,0.750000X0.800000X240.000000*%
%ADD91RotRect,0.600000X0.800000X240.000000*%
%ADD92RotRect,0.400000X0.800000X240.000000*%
%ADD93RotRect,0.800000X0.800000X240.000000*%
%ADD94RoundRect,0.225000X0.211724X-0.261338X0.282120X0.183121X-0.211724X0.261338X-0.282120X-0.183121X0*%
%ADD95RoundRect,0.225000X-0.307232X-0.136871X0.103864X-0.319902X0.307232X0.136871X-0.103864X0.319902X0*%
%ADD96R,2.000000X1.900000*%
%ADD97RotRect,0.750000X0.800000X225.000000*%
%ADD98RotRect,0.600000X0.800000X225.000000*%
%ADD99RotRect,0.400000X0.800000X225.000000*%
%ADD100RotRect,0.800000X0.800000X225.000000*%
%ADD101RoundRect,0.225000X0.120464X0.314028X-0.299648X0.152762X-0.120464X-0.314028X0.299648X-0.152762X0*%
%ADD102R,0.750000X0.800000*%
%ADD103R,0.600000X0.800000*%
%ADD104R,0.400000X0.800000*%
%ADD105RoundRect,0.225000X-0.211724X0.261338X-0.282120X-0.183121X0.211724X-0.261338X0.282120X0.183121X0*%
%ADD106RoundRect,0.225000X0.261338X0.211724X-0.183121X0.282120X-0.261338X-0.211724X0.183121X-0.282120X0*%
%ADD107RoundRect,0.225000X0.052689X-0.332188X0.335884X0.017528X-0.052689X0.332188X-0.335884X-0.017528X0*%
%ADD108RoundRect,0.225000X0.307232X0.136871X-0.103864X0.319902X-0.307232X-0.136871X0.103864X-0.319902X0*%
%ADD109RotRect,0.750000X0.800000X135.000000*%
%ADD110RotRect,0.600000X0.800000X135.000000*%
%ADD111RotRect,0.400000X0.800000X135.000000*%
%ADD112RotRect,0.800000X0.800000X135.000000*%
%ADD113RotRect,0.750000X0.800000X120.000000*%
%ADD114RotRect,0.600000X0.800000X120.000000*%
%ADD115RotRect,0.400000X0.800000X120.000000*%
%ADD116RotRect,0.800000X0.800000X120.000000*%
%ADD117RoundRect,0.225000X-0.197635X-0.272149X0.249900X-0.225112X0.197635X0.272149X-0.249900X0.225112X0*%
%ADD118RoundRect,0.225000X0.332188X0.052689X-0.017528X0.335884X-0.332188X-0.052689X0.017528X-0.335884X0*%
%ADD119RoundRect,0.225000X-0.261338X-0.211724X0.183121X-0.282120X0.261338X0.211724X-0.183121X0.282120X0*%
%ADD120RoundRect,0.225000X-0.332188X-0.052689X0.017528X-0.335884X0.332188X0.052689X-0.017528X0.335884X0*%
%ADD121RotRect,0.750000X0.800000X330.000000*%
%ADD122RotRect,0.600000X0.800000X330.000000*%
%ADD123RotRect,0.400000X0.800000X330.000000*%
%ADD124RotRect,0.800000X0.800000X330.000000*%
%ADD125RoundRect,0.225000X0.314028X-0.120464X0.152762X0.299648X-0.314028X0.120464X-0.152762X-0.299648X0*%
%ADD126RoundRect,0.225000X-0.052689X0.332188X-0.335884X-0.017528X0.052689X-0.332188X0.335884X0.017528X0*%
%ADD127RotRect,0.750000X0.800000X60.000000*%
%ADD128RotRect,0.600000X0.800000X60.000000*%
%ADD129RotRect,0.400000X0.800000X60.000000*%
%ADD130RotRect,0.800000X0.800000X60.000000*%
G04 APERTURE END LIST*
D10*
X116730400Y-71409400D03*
X117380400Y-71409400D03*
X118030400Y-71409400D03*
X118680400Y-71409400D03*
X119330400Y-71409400D03*
X119980400Y-71409400D03*
X120630400Y-71409400D03*
X121280400Y-71409400D03*
X121930400Y-71409400D03*
X122580400Y-71409400D03*
X122580400Y-65684400D03*
X121930400Y-65684400D03*
X121280400Y-65684400D03*
X120630400Y-65684400D03*
X119980400Y-65684400D03*
X119330400Y-65684400D03*
X118680400Y-65684400D03*
X118030400Y-65684400D03*
X117380400Y-65684400D03*
X116730400Y-65684400D03*
D11*
X127332500Y-67376000D03*
X127332500Y-69276000D03*
X129207500Y-68326000D03*
D12*
X128791000Y-65532000D03*
X127241000Y-65532000D03*
D13*
X112522000Y-72149000D03*
X112522000Y-70599000D03*
X113017000Y-65532000D03*
X113017000Y-63982000D03*
D14*
X124460000Y-75842500D03*
X124460000Y-74017500D03*
D15*
X126946500Y-71076000D03*
X128496500Y-71076000D03*
D13*
X114554000Y-65532000D03*
X114554000Y-63982000D03*
X114300000Y-72149000D03*
X114300000Y-70599000D03*
D16*
X128485611Y-82136220D03*
X129396679Y-83390196D03*
D17*
X132936220Y-49314389D03*
X134190196Y-48403321D03*
D18*
X121434449Y-42708063D03*
D19*
X120342953Y-42415598D03*
D20*
X119492938Y-42187837D03*
D21*
X118546331Y-41934194D03*
D22*
X95663780Y-77685611D03*
X94409804Y-78596679D03*
D23*
X92370000Y-61990000D03*
D24*
X92370000Y-63120000D03*
D25*
X92370000Y-64000000D03*
D26*
X92370000Y-64980000D03*
D27*
X100114389Y-44863780D03*
X99203321Y-43609804D03*
D28*
X123178840Y-85172712D03*
X123734310Y-86619762D03*
D29*
X117266990Y-86732246D03*
X117429010Y-88273754D03*
D30*
X128739120Y-80074583D03*
D31*
X129538151Y-79275552D03*
D32*
X130160405Y-78653298D03*
D33*
X130853369Y-77960333D03*
D23*
X136230000Y-65010000D03*
D24*
X136230000Y-63880000D03*
D25*
X136230000Y-63000000D03*
D26*
X136230000Y-62020000D03*
D34*
X107165551Y-84291937D03*
D35*
X108257047Y-84584402D03*
D36*
X109107062Y-84812163D03*
D37*
X110053669Y-85065806D03*
D38*
X97725417Y-77939120D03*
D39*
X98524448Y-78738151D03*
D40*
X99146702Y-79360405D03*
D41*
X99839667Y-80053369D03*
D42*
X110082647Y-41926430D03*
D43*
X108991151Y-42218895D03*
D44*
X108141136Y-42446656D03*
D45*
X107194529Y-42700299D03*
D46*
X126572698Y-45263063D03*
D47*
X125594090Y-44698063D03*
D48*
X124831987Y-44258063D03*
D49*
X123983282Y-43768063D03*
D50*
X135091937Y-70634449D03*
D51*
X135384402Y-69542953D03*
D52*
X135612163Y-68692938D03*
D53*
X135865806Y-67746331D03*
D54*
X92726430Y-67717353D03*
D55*
X93018895Y-68808849D03*
D56*
X93246656Y-69658864D03*
D57*
X93500299Y-70605471D03*
D58*
X123957302Y-83246937D03*
D59*
X124935910Y-82681937D03*
D60*
X125698013Y-82241937D03*
D61*
X126546718Y-81751937D03*
D62*
X105253366Y-85103210D03*
X104622924Y-86519206D03*
D63*
X94553063Y-73157302D03*
D64*
X95118063Y-74135910D03*
D65*
X95558063Y-74898013D03*
D66*
X96048063Y-75746718D03*
D67*
X93508063Y-56365551D03*
D68*
X93215598Y-57457047D03*
D69*
X92987837Y-58307062D03*
D70*
X92734194Y-59253669D03*
D71*
X135873570Y-59282647D03*
D72*
X135581105Y-58191151D03*
D73*
X135353344Y-57341136D03*
D74*
X135099701Y-56394529D03*
D75*
X32220000Y-84025000D03*
X30950000Y-84025000D03*
X29680000Y-84025000D03*
X28410000Y-84025000D03*
X28410000Y-88975000D03*
X29680000Y-88975000D03*
X30950000Y-88975000D03*
X32220000Y-88975000D03*
D76*
X118517353Y-85073570D03*
D77*
X119608849Y-84781105D03*
D78*
X120458864Y-84553344D03*
D79*
X121405471Y-84299701D03*
D80*
X91067754Y-66466990D03*
X89526246Y-66629010D03*
D81*
X111333010Y-40267754D03*
X111170990Y-38726246D03*
D82*
X23687500Y-56655000D03*
X25512500Y-56655000D03*
D83*
X25512500Y-54115000D03*
X23687500Y-54115000D03*
D84*
X104642698Y-43753063D03*
D85*
X103664090Y-44318063D03*
D86*
X102901987Y-44758063D03*
D87*
X102053282Y-45248063D03*
D88*
X123346634Y-41896790D03*
X123977076Y-40480794D03*
D89*
X135972712Y-54621160D03*
X137419762Y-54065690D03*
D90*
X96063063Y-51227302D03*
D91*
X95498063Y-52205910D03*
D92*
X95058063Y-52968013D03*
D93*
X94568063Y-53816718D03*
D94*
X117447055Y-40291460D03*
X117689529Y-38760544D03*
D95*
X135903210Y-72546634D03*
X137319206Y-73177076D03*
D96*
X23450000Y-37415000D03*
X23450000Y-41415000D03*
X23450000Y-45415000D03*
X38450000Y-37415000D03*
X38450000Y-41415000D03*
X38450000Y-45415000D03*
D97*
X99860880Y-46925417D03*
D98*
X99061849Y-47724448D03*
D99*
X98439595Y-48346702D03*
D100*
X97746631Y-49039667D03*
D14*
X35395000Y-87412500D03*
X35395000Y-85587500D03*
D101*
X92627288Y-72378840D03*
X91180238Y-72934310D03*
D102*
X112790000Y-85430000D03*
D103*
X113920000Y-85430000D03*
D104*
X114800000Y-85430000D03*
D26*
X115780000Y-85430000D03*
D82*
X23687500Y-61735000D03*
X25512500Y-61735000D03*
D105*
X111152945Y-86708540D03*
X110910471Y-88239456D03*
D106*
X91091460Y-60352945D03*
X89560544Y-60110471D03*
D82*
X23687500Y-51575000D03*
X25512500Y-51575000D03*
D107*
X128629700Y-44974342D03*
X129605146Y-43769766D03*
D102*
X115810000Y-41570000D03*
D103*
X114680000Y-41570000D03*
D104*
X113800000Y-41570000D03*
D26*
X112820000Y-41570000D03*
D108*
X92696790Y-54453366D03*
X91280794Y-53822924D03*
D109*
X130874583Y-49060880D03*
D110*
X130075552Y-48261849D03*
D111*
X129453298Y-47639595D03*
D112*
X128760333Y-46946631D03*
D113*
X134046937Y-53842698D03*
D114*
X133481937Y-52864090D03*
D115*
X133041937Y-52101987D03*
D116*
X132551937Y-51253282D03*
D117*
X137532246Y-60533010D03*
X139073754Y-60370990D03*
D82*
X31307500Y-92785000D03*
X33132500Y-92785000D03*
D118*
X95774342Y-49170300D03*
X94569766Y-48194854D03*
D82*
X23687500Y-59195000D03*
X25512500Y-59195000D03*
D119*
X137508540Y-66647055D03*
X139039456Y-66889529D03*
D120*
X132825658Y-77829700D03*
X134030234Y-78805146D03*
D121*
X102027302Y-81736937D03*
D122*
X103005910Y-82301937D03*
D123*
X103768013Y-82741937D03*
D124*
X104616718Y-83231937D03*
D125*
X105421160Y-41827288D03*
X104865690Y-40380238D03*
D126*
X99970300Y-82025658D03*
X98994854Y-83230234D03*
D127*
X132536937Y-75772698D03*
D128*
X133101937Y-74794090D03*
D129*
X133541937Y-74031987D03*
D130*
X134031937Y-73183282D03*
M02*
