G04 #@! TF.GenerationSoftware,KiCad,Pcbnew,(5.1.4-0)*
G04 #@! TF.CreationDate,2020-03-10T11:39:59-04:00*
G04 #@! TF.ProjectId,joystick,6a6f7973-7469-4636-9b2e-6b696361645f,rev?*
G04 #@! TF.SameCoordinates,Original*
G04 #@! TF.FileFunction,Profile,NP*
%FSLAX46Y46*%
G04 Gerber Fmt 4.6, Leading zero omitted, Abs format (unit mm)*
G04 Created by KiCad (PCBNEW (5.1.4-0)) date 2020-03-10 11:39:59*
%MOMM*%
%LPD*%
G04 APERTURE LIST*
%ADD10C,0.099999*%
G04 APERTURE END LIST*
D10*
X163998656Y-125024896D02*
X86001098Y-125024896D01*
X163999926Y-125025150D02*
X163998656Y-125024896D01*
X163999926Y-125024896D02*
X163999926Y-125025150D01*
X83468738Y-63974980D02*
X86001098Y-63974980D01*
X82331219Y-64075788D02*
X83468738Y-63974980D01*
X81333046Y-64630552D02*
X82331219Y-64075788D01*
X80646812Y-65543347D02*
X81333046Y-64630552D01*
X80391174Y-66656343D02*
X80646812Y-65543347D01*
X80610333Y-67777094D02*
X80391174Y-66656343D01*
X81266395Y-68711810D02*
X80610333Y-67777094D01*
X85974936Y-71726447D02*
X81266395Y-68711810D01*
X85974936Y-117273428D02*
X85974936Y-71726447D01*
X81266395Y-120288065D02*
X85974936Y-117273428D01*
X80610333Y-121222781D02*
X81266395Y-120288065D01*
X80391174Y-122343532D02*
X80610333Y-121222781D01*
X80646812Y-123456528D02*
X80391174Y-122343532D01*
X81333046Y-124369323D02*
X80646812Y-123456528D01*
X82331219Y-124924087D02*
X81333046Y-124369323D01*
X83468738Y-125024896D02*
X82331219Y-124924087D01*
X86001098Y-125024896D02*
X83468738Y-125024896D01*
X166531015Y-125024896D02*
X163999926Y-125024896D01*
X167668534Y-124924087D02*
X166531015Y-125024896D01*
X168666707Y-124369323D02*
X167668534Y-124924087D01*
X169352941Y-123456528D02*
X168666707Y-124369323D01*
X169608579Y-122343532D02*
X169352941Y-123456528D01*
X169389420Y-121222781D02*
X169608579Y-122343532D01*
X168733358Y-120288065D02*
X169389420Y-121222781D01*
X164024945Y-117273509D02*
X168733358Y-120288065D01*
X164024945Y-71726366D02*
X164024945Y-117273509D01*
X168733358Y-68711810D02*
X164024945Y-71726366D01*
X169389420Y-67777094D02*
X168733358Y-68711810D01*
X169608579Y-66656343D02*
X169389420Y-67777094D01*
X169352941Y-65543347D02*
X169608579Y-66656343D01*
X168666707Y-64630552D02*
X169352941Y-65543347D01*
X167668534Y-64075788D02*
X168666707Y-64630552D01*
X166531015Y-63974980D02*
X167668534Y-64075788D01*
X163999926Y-63974980D02*
X166531015Y-63974980D01*
X163998656Y-63974980D02*
X163999926Y-63974980D01*
X86001098Y-63974980D02*
X163998656Y-63974980D01*
M02*
