M48
; DRILL file {KiCad 7.0.2-0} date 2023 May 22, Monday 20:56:37
; FORMAT={-:-/ absolute / inch / decimal}
; #@! TF.CreationDate,2023-05-22T20:56:37-04:00
; #@! TF.GenerationSoftware,Kicad,Pcbnew,7.0.2-0
; #@! TF.FileFunction,Plated,1,2,PTH
FMAT,2
INCH
; #@! TA.AperFunction,Plated,PTH,ViaDrill
T1C0.0157
; #@! TA.AperFunction,Plated,PTH,ComponentDrill
T2C0.0236
; #@! TA.AperFunction,Plated,PTH,ComponentDrill
T3C0.0394
; #@! TA.AperFunction,Plated,PTH,ComponentDrill
T4C0.0433
%
G90
G05
T1
X0.8685Y-2.1055
X1.0185Y-1.6305
X1.0435Y-1.4555
X1.0685Y-2.2055
X1.0685Y-2.3055
X1.0685Y-2.4305
X1.2185Y-3.2055
X1.3935Y-3.2805
X1.4185Y-1.6305
X1.4185Y-1.9055
X1.4435Y-1.5305
X1.4435Y-3.7305
X1.8Y-2.6
X1.95Y-2.15
X2.1Y-2.2
X2.2Y-2.6
X3.51Y-2.52
X3.525Y-2.575
X3.5386Y-2.2631
X3.5388Y-2.3201
X3.5489Y-2.7755
X3.5776Y-2.8248
X3.59Y-2.44
X3.5991Y-2.5563
X3.6055Y-2.6776
X3.6152Y-2.3212
X3.6181Y-2.0775
X3.6326Y-2.0223
X3.6365Y-2.2065
X3.6443Y-2.7875
X3.6526Y-3.0123
X3.6819Y-2.903
X3.6916Y-2.0983
X3.6931Y-3.0525
X3.7419Y-1.993
X3.7479Y-2.9992
X3.7575Y-1.8636
X3.7858Y-1.8141
X3.8141Y-3.101
X3.8141Y-3.2142
X3.8232Y-1.9027
X3.8636Y-3.2425
X3.899Y-1.8141
X3.9027Y-3.1768
X3.9475Y-1.6931
X3.9877Y-1.6526
X3.993Y-3.2581
X4.0008Y-1.7479
X4.0223Y-3.3674
X4.0775Y-3.3819
X4.097Y-1.6819
X4.0983Y-3.3084
X4.1752Y-1.5776
X4.2065Y-3.3635
X4.2125Y-1.6443
X4.2245Y-1.5489
X4.3201Y-3.4612
X4.3212Y-3.3848
X4.3224Y-1.6055
X4.38Y-2.78
X4.4Y-2.52
X4.425Y-1.525
X4.44Y-3.41
X4.4437Y-1.5991
X4.48Y-1.51
X4.52Y-3.49
X4.56Y-1.59
X4.575Y-3.475
X4.6776Y-3.3945
X4.6788Y-1.6152
X4.6799Y-1.5388
X4.7369Y-1.5386
X4.7755Y-3.4511
X4.7875Y-3.3557
X4.7935Y-1.6365
X4.8248Y-3.4224
X4.86Y-2.59
X4.9017Y-1.6916
X4.903Y-3.3181
X4.9225Y-1.6181
X4.94Y-2.66
X4.9777Y-1.6326
X4.9992Y-3.2521
X5.007Y-1.7419
X5.0123Y-3.3474
X5.0525Y-3.3069
X5.0973Y-1.8232
X5.101Y-3.1859
X5.11Y-2.81
X5.1364Y-1.7575
X5.1768Y-3.0973
X5.1859Y-1.7858
X5.1859Y-1.899
X5.2142Y-3.1859
X5.2425Y-3.1364
X5.2521Y-2.0008
X5.2581Y-3.007
X5.3069Y-1.9475
X5.3084Y-2.9017
X5.3181Y-2.097
X5.3474Y-1.9877
X5.3557Y-2.2125
X5.3635Y-2.7935
X5.3674Y-2.9777
X5.3819Y-2.9225
X5.3848Y-2.6788
X5.3945Y-2.3224
X5.4009Y-2.4437
X5.41Y-2.56
X5.4224Y-2.1752
X5.4511Y-2.2245
X5.4612Y-2.6799
X5.4614Y-2.7369
X5.475Y-2.425
X5.49Y-2.48
T2
X4.2244Y-2.3642
X4.3031Y-2.3642
X4.3819Y-2.3642
X4.4606Y-2.3642
X4.5394Y-2.3642
X4.6181Y-2.3642
X4.6969Y-2.3642
X4.7756Y-2.3642
T3
X2.499Y-2.1
X2.499Y-2.2
X2.499Y-2.3
X2.499Y-2.4
X2.499Y-2.5
X2.499Y-2.6
X2.499Y-2.7
X2.499Y-2.8
X2.499Y-2.9
X4.0Y-2.1
X4.0Y-2.2
X4.0Y-2.3
X4.0Y-2.4
X4.0Y-2.5
X4.0Y-2.6
X4.0Y-2.7
X4.0Y-2.8
X4.0Y-2.9
T4
X1.6935Y-1.45
X1.6935Y-1.55
X1.6935Y-1.65
X1.6935Y-1.75
X1.6935Y-1.85
X1.6935Y-1.95
X1.6935Y-2.05
X1.6935Y-2.15
X1.6935Y-2.25
X1.6935Y-2.35
X1.6935Y-2.45
X1.6935Y-2.55
X1.6935Y-2.65
X1.6935Y-2.75
X2.2935Y-1.45
X2.2935Y-1.55
X2.2935Y-1.65
X2.2935Y-1.75
X2.2935Y-1.85
X2.2935Y-1.95
X2.2935Y-2.05
X2.2935Y-2.15
X2.2935Y-2.25
X2.2935Y-2.35
X2.2935Y-2.45
X2.2935Y-2.55
X2.2935Y-2.65
X2.2935Y-2.75
T0
M30
