M48
; DRILL file {KiCad (6.0.7-1)-1} date Monday, November 28, 2022 at 10:58:14 AM
; FORMAT={-:-/ absolute / metric / decimal}
; #@! TF.CreationDate,2022-11-28T10:58:14-05:00
; #@! TF.GenerationSoftware,Kicad,Pcbnew,(6.0.7-1)-1
; #@! TF.FileFunction,Plated,1,2,PTH
FMAT,2
METRIC
; #@! TA.AperFunction,Plated,PTH,ViaDrill
T1C0.400
; #@! TA.AperFunction,Plated,PTH,ComponentDrill
T2C0.800
; #@! TA.AperFunction,Plated,PTH,ComponentDrill
T3C1.000
; #@! TA.AperFunction,Plated,PTH,ComponentDrill
T4C1.300
%
G90
G05
T1
X77.47Y-44.196
X89.154Y-59.69
T2
X52.324Y-41.605
X52.324Y-61.925
X54.864Y-41.605
X54.864Y-61.925
X57.404Y-41.605
X57.404Y-61.925
X59.944Y-41.605
X59.944Y-61.925
X62.484Y-41.605
X62.484Y-61.925
X65.024Y-41.605
X65.024Y-61.925
X67.564Y-41.605
X67.564Y-61.925
X70.104Y-41.605
X70.104Y-61.925
X72.644Y-41.605
X72.644Y-61.925
X75.184Y-41.605
X75.184Y-61.925
X77.724Y-41.605
X77.724Y-61.925
X80.264Y-41.605
X80.264Y-61.925
X82.804Y-61.925
X85.344Y-61.925
X87.884Y-61.925
X90.424Y-61.925
T3
X52.172Y-66.726
X54.712Y-66.726
X57.252Y-66.726
X59.792Y-66.726
X65.619Y-38.021
X68.159Y-38.021
X70.699Y-38.021
X73.239Y-38.021
X75.779Y-38.021
T4
X101.76Y-52.07
X101.76Y-57.07
X101.79Y-30.35
X101.79Y-35.35
X114.26Y-52.07
X114.26Y-57.07
X114.29Y-30.35
X114.29Y-35.35
T0
M30
