G04 #@! TF.GenerationSoftware,KiCad,Pcbnew,(6.0.7-1)-1*
G04 #@! TF.CreationDate,2022-11-28T10:58:20-05:00*
G04 #@! TF.ProjectId,ebike_LED,6562696b-655f-44c4-9544-2e6b69636164,rev?*
G04 #@! TF.SameCoordinates,Original*
G04 #@! TF.FileFunction,Copper,L1,Top*
G04 #@! TF.FilePolarity,Positive*
%FSLAX46Y46*%
G04 Gerber Fmt 4.6, Leading zero omitted, Abs format (unit mm)*
G04 Created by KiCad (PCBNEW (6.0.7-1)-1) date 2022-11-28 10:58:20*
%MOMM*%
%LPD*%
G01*
G04 APERTURE LIST*
G04 Aperture macros list*
%AMRoundRect*
0 Rectangle with rounded corners*
0 $1 Rounding radius*
0 $2 $3 $4 $5 $6 $7 $8 $9 X,Y pos of 4 corners*
0 Add a 4 corners polygon primitive as box body*
4,1,4,$2,$3,$4,$5,$6,$7,$8,$9,$2,$3,0*
0 Add four circle primitives for the rounded corners*
1,1,$1+$1,$2,$3*
1,1,$1+$1,$4,$5*
1,1,$1+$1,$6,$7*
1,1,$1+$1,$8,$9*
0 Add four rect primitives between the rounded corners*
20,1,$1+$1,$2,$3,$4,$5,0*
20,1,$1+$1,$4,$5,$6,$7,0*
20,1,$1+$1,$6,$7,$8,$9,0*
20,1,$1+$1,$8,$9,$2,$3,0*%
G04 Aperture macros list end*
G04 #@! TA.AperFunction,ComponentPad*
%ADD10R,1.700000X1.700000*%
G04 #@! TD*
G04 #@! TA.AperFunction,ComponentPad*
%ADD11O,1.700000X1.700000*%
G04 #@! TD*
G04 #@! TA.AperFunction,SMDPad,CuDef*
%ADD12RoundRect,0.250000X0.450000X-0.262500X0.450000X0.262500X-0.450000X0.262500X-0.450000X-0.262500X0*%
G04 #@! TD*
G04 #@! TA.AperFunction,ComponentPad*
%ADD13O,3.048000X1.850000*%
G04 #@! TD*
G04 #@! TA.AperFunction,ComponentPad*
%ADD14R,1.600000X1.600000*%
G04 #@! TD*
G04 #@! TA.AperFunction,ComponentPad*
%ADD15C,1.600000*%
G04 #@! TD*
G04 #@! TA.AperFunction,ViaPad*
%ADD16C,0.800000*%
G04 #@! TD*
G04 #@! TA.AperFunction,Conductor*
%ADD17C,0.250000*%
G04 #@! TD*
G04 #@! TA.AperFunction,Conductor*
%ADD18C,0.800000*%
G04 #@! TD*
G04 APERTURE END LIST*
D10*
X59791600Y-66725800D03*
D11*
X57251600Y-66725800D03*
X54711600Y-66725800D03*
X52171600Y-66725800D03*
D12*
X68580000Y-47902500D03*
X68580000Y-46077500D03*
D10*
X65619321Y-38021200D03*
D11*
X68159321Y-38021200D03*
X70699321Y-38021200D03*
X73239321Y-38021200D03*
X75779321Y-38021200D03*
D13*
X114260000Y-52070000D03*
X101760000Y-52070000D03*
X101760000Y-57070000D03*
X114260000Y-57070000D03*
X101790000Y-30350000D03*
X114290000Y-30350000D03*
X114290000Y-35350000D03*
X101790000Y-35350000D03*
D12*
X72390000Y-47902500D03*
X72390000Y-46077500D03*
D14*
X90424000Y-61925200D03*
D15*
X87884000Y-61925200D03*
X85344000Y-61925200D03*
X82804000Y-61925200D03*
X80264000Y-61925200D03*
X77724000Y-61925200D03*
X75184000Y-61925200D03*
X72644000Y-61925200D03*
X70104000Y-61925200D03*
X67564000Y-61925200D03*
X65024000Y-61925200D03*
X62484000Y-61925200D03*
X59944000Y-61925200D03*
X57404000Y-61925200D03*
X54864000Y-61925200D03*
X52324000Y-61925200D03*
X52324000Y-41605200D03*
X54864000Y-41605200D03*
X57404000Y-41605200D03*
X59944000Y-41605200D03*
X62484000Y-41605200D03*
X65024000Y-41605200D03*
X67564000Y-41605200D03*
X70104000Y-41605200D03*
X72644000Y-41605200D03*
X75184000Y-41605200D03*
X77724000Y-41605200D03*
X80264000Y-41605200D03*
D16*
X77470000Y-44196000D03*
X89154000Y-59690000D03*
D17*
X68580000Y-47902500D02*
X68580000Y-47603173D01*
X108842000Y-30350000D02*
X114290000Y-30350000D01*
X114290000Y-30350000D02*
X113668000Y-30350000D01*
X70104000Y-44553500D02*
X68580000Y-46077500D01*
X113668000Y-30350000D02*
X105918000Y-38100000D01*
X101092000Y-40386000D02*
X101600000Y-40386000D01*
X71323200Y-40386000D02*
X100584000Y-40386000D01*
X70104000Y-41605200D02*
X70104000Y-44553500D01*
X70104000Y-41605200D02*
X71323200Y-40386000D01*
X103632000Y-40386000D02*
X100584000Y-40386000D01*
X105918000Y-38100000D02*
X103632000Y-40386000D01*
X100584000Y-40386000D02*
X101092000Y-40386000D01*
X114290000Y-30350000D02*
X101790000Y-30350000D01*
X57251600Y-66725800D02*
X57251600Y-62077600D01*
X57251600Y-62077600D02*
X57404000Y-61925200D01*
X57125201Y-66852199D02*
X57251600Y-66725800D01*
X54864000Y-41605200D02*
X56649200Y-39820000D01*
X56649200Y-39820000D02*
X73980521Y-39820000D01*
X73980521Y-39820000D02*
X75779321Y-38021200D01*
X53086000Y-39370000D02*
X52324000Y-40132000D01*
X52324000Y-40132000D02*
X52324000Y-41605200D01*
X71890521Y-39370000D02*
X53086000Y-39370000D01*
X73239321Y-38021200D02*
X71890521Y-39370000D01*
D18*
X80264000Y-41605200D02*
X77673200Y-44196000D01*
X77673200Y-44196000D02*
X77470000Y-44196000D01*
D17*
X54875199Y-66889399D02*
X54711600Y-66725800D01*
X54711600Y-62077600D02*
X54864000Y-61925200D01*
X54711600Y-66725800D02*
X54711600Y-62077600D01*
X107950000Y-52070000D02*
X101760000Y-52070000D01*
X72644000Y-41605200D02*
X72644000Y-45823500D01*
X73302500Y-46990000D02*
X72390000Y-46077500D01*
X89154000Y-59690000D02*
X89154000Y-55626000D01*
X72644000Y-45823500D02*
X72390000Y-46077500D01*
X114260000Y-52070000D02*
X107950000Y-52070000D01*
X80518000Y-46990000D02*
X73302500Y-46990000D01*
X89154000Y-55626000D02*
X80518000Y-46990000D01*
G04 #@! TA.AperFunction,Conductor*
G36*
X99777012Y-30696164D02*
G01*
X99814265Y-30752243D01*
X99864980Y-30907407D01*
X99867370Y-30911998D01*
X99942936Y-31057158D01*
X99973825Y-31116496D01*
X99976928Y-31120629D01*
X99976930Y-31120632D01*
X100112253Y-31300865D01*
X100115358Y-31305000D01*
X100285777Y-31467857D01*
X100480508Y-31600693D01*
X100485192Y-31602867D01*
X100485195Y-31602869D01*
X100689628Y-31697764D01*
X100689633Y-31697766D01*
X100694319Y-31699941D01*
X100921468Y-31762935D01*
X100926605Y-31763484D01*
X101110563Y-31783144D01*
X101110571Y-31783144D01*
X101113898Y-31783500D01*
X102448757Y-31783500D01*
X102451330Y-31783288D01*
X102451341Y-31783288D01*
X102618779Y-31769522D01*
X102618785Y-31769521D01*
X102623930Y-31769098D01*
X102852551Y-31711673D01*
X103068723Y-31617678D01*
X103266641Y-31489640D01*
X103290581Y-31467857D01*
X103437167Y-31334473D01*
X103437168Y-31334471D01*
X103440989Y-31330995D01*
X103444188Y-31326944D01*
X103444192Y-31326940D01*
X103558142Y-31182655D01*
X103587085Y-31146006D01*
X103589580Y-31141487D01*
X103589586Y-31141478D01*
X103640854Y-31048606D01*
X103691286Y-30998636D01*
X103751162Y-30983500D01*
X111834406Y-30983500D01*
X111902527Y-31003502D01*
X111949020Y-31057158D01*
X111959124Y-31127432D01*
X111929630Y-31192012D01*
X111923501Y-31198595D01*
X108722960Y-34399135D01*
X103406500Y-39715595D01*
X103344188Y-39749621D01*
X103317405Y-39752500D01*
X75248115Y-39752500D01*
X75179994Y-39732498D01*
X75133501Y-39678842D01*
X75123397Y-39608568D01*
X75152891Y-39543988D01*
X75159020Y-39537405D01*
X75323870Y-39372555D01*
X75386182Y-39338529D01*
X75438083Y-39338179D01*
X75617918Y-39374767D01*
X75623093Y-39374957D01*
X75623095Y-39374957D01*
X75835994Y-39382764D01*
X75835998Y-39382764D01*
X75841158Y-39382953D01*
X75846278Y-39382297D01*
X75846280Y-39382297D01*
X76057609Y-39355225D01*
X76057610Y-39355225D01*
X76062737Y-39354568D01*
X76067687Y-39353083D01*
X76271750Y-39291861D01*
X76271755Y-39291859D01*
X76276705Y-39290374D01*
X76477315Y-39192096D01*
X76659181Y-39062373D01*
X76817417Y-38904689D01*
X76826090Y-38892620D01*
X76944756Y-38727477D01*
X76947774Y-38723277D01*
X76951125Y-38716498D01*
X77044457Y-38527653D01*
X77044458Y-38527651D01*
X77046751Y-38523011D01*
X77111691Y-38309269D01*
X77140850Y-38087790D01*
X77142477Y-38021200D01*
X77124173Y-37798561D01*
X77069752Y-37581902D01*
X76980675Y-37377040D01*
X76859335Y-37189477D01*
X76708991Y-37024251D01*
X76704940Y-37021052D01*
X76704936Y-37021048D01*
X76537735Y-36889000D01*
X76537731Y-36888998D01*
X76533680Y-36885798D01*
X76495898Y-36864941D01*
X76481457Y-36856969D01*
X76338110Y-36777838D01*
X76333241Y-36776114D01*
X76333237Y-36776112D01*
X76132408Y-36704995D01*
X76132404Y-36704994D01*
X76127533Y-36703269D01*
X76122440Y-36702362D01*
X76122437Y-36702361D01*
X75912694Y-36665000D01*
X75912688Y-36664999D01*
X75907605Y-36664094D01*
X75833773Y-36663192D01*
X75689402Y-36661428D01*
X75689400Y-36661428D01*
X75684232Y-36661365D01*
X75463412Y-36695155D01*
X75251077Y-36764557D01*
X75052928Y-36867707D01*
X75048795Y-36870810D01*
X75048792Y-36870812D01*
X74878421Y-36998730D01*
X74874286Y-37001835D01*
X74719950Y-37163338D01*
X74612522Y-37320821D01*
X74557614Y-37365821D01*
X74487089Y-37373992D01*
X74423342Y-37342738D01*
X74402645Y-37318254D01*
X74322143Y-37193817D01*
X74322141Y-37193814D01*
X74319335Y-37189477D01*
X74168991Y-37024251D01*
X74164940Y-37021052D01*
X74164936Y-37021048D01*
X73997735Y-36889000D01*
X73997731Y-36888998D01*
X73993680Y-36885798D01*
X73955898Y-36864941D01*
X73941457Y-36856969D01*
X73798110Y-36777838D01*
X73793241Y-36776114D01*
X73793237Y-36776112D01*
X73592408Y-36704995D01*
X73592404Y-36704994D01*
X73587533Y-36703269D01*
X73582440Y-36702362D01*
X73582437Y-36702361D01*
X73372694Y-36665000D01*
X73372688Y-36664999D01*
X73367605Y-36664094D01*
X73293773Y-36663192D01*
X73149402Y-36661428D01*
X73149400Y-36661428D01*
X73144232Y-36661365D01*
X72923412Y-36695155D01*
X72711077Y-36764557D01*
X72512928Y-36867707D01*
X72508795Y-36870810D01*
X72508792Y-36870812D01*
X72338421Y-36998730D01*
X72334286Y-37001835D01*
X72179950Y-37163338D01*
X72072522Y-37320821D01*
X72017614Y-37365821D01*
X71947089Y-37373992D01*
X71883342Y-37342738D01*
X71862645Y-37318254D01*
X71782143Y-37193817D01*
X71782141Y-37193814D01*
X71779335Y-37189477D01*
X71628991Y-37024251D01*
X71624940Y-37021052D01*
X71624936Y-37021048D01*
X71457735Y-36889000D01*
X71457731Y-36888998D01*
X71453680Y-36885798D01*
X71415898Y-36864941D01*
X71401457Y-36856969D01*
X71258110Y-36777838D01*
X71253241Y-36776114D01*
X71253237Y-36776112D01*
X71052408Y-36704995D01*
X71052404Y-36704994D01*
X71047533Y-36703269D01*
X71042440Y-36702362D01*
X71042437Y-36702361D01*
X70832694Y-36665000D01*
X70832688Y-36664999D01*
X70827605Y-36664094D01*
X70753773Y-36663192D01*
X70609402Y-36661428D01*
X70609400Y-36661428D01*
X70604232Y-36661365D01*
X70383412Y-36695155D01*
X70171077Y-36764557D01*
X69972928Y-36867707D01*
X69968795Y-36870810D01*
X69968792Y-36870812D01*
X69798421Y-36998730D01*
X69794286Y-37001835D01*
X69639950Y-37163338D01*
X69514064Y-37347880D01*
X69420009Y-37550505D01*
X69360310Y-37765770D01*
X69336572Y-37987895D01*
X69336869Y-37993048D01*
X69336869Y-37993051D01*
X69342332Y-38087790D01*
X69349431Y-38210915D01*
X69350568Y-38215961D01*
X69350569Y-38215967D01*
X69370440Y-38304139D01*
X69398543Y-38428839D01*
X69400485Y-38433621D01*
X69400486Y-38433625D01*
X69453059Y-38563096D01*
X69460155Y-38633737D01*
X69427933Y-38697000D01*
X69366623Y-38732801D01*
X69336316Y-38736500D01*
X67103821Y-38736500D01*
X67035700Y-38716498D01*
X66989207Y-38662842D01*
X66977821Y-38610500D01*
X66977821Y-37123066D01*
X66971066Y-37060884D01*
X66919936Y-36924495D01*
X66832582Y-36807939D01*
X66716026Y-36720585D01*
X66579637Y-36669455D01*
X66517455Y-36662700D01*
X64721187Y-36662700D01*
X64659005Y-36669455D01*
X64522616Y-36720585D01*
X64406060Y-36807939D01*
X64318706Y-36924495D01*
X64267576Y-37060884D01*
X64260821Y-37123066D01*
X64260821Y-38610500D01*
X64240819Y-38678621D01*
X64187163Y-38725114D01*
X64134821Y-38736500D01*
X53164768Y-38736500D01*
X53153585Y-38735973D01*
X53146092Y-38734298D01*
X53138166Y-38734547D01*
X53138165Y-38734547D01*
X53078002Y-38736438D01*
X53074044Y-38736500D01*
X53046144Y-38736500D01*
X53042154Y-38737004D01*
X53030320Y-38737936D01*
X52986111Y-38739326D01*
X52978497Y-38741538D01*
X52978492Y-38741539D01*
X52966659Y-38744977D01*
X52947296Y-38748988D01*
X52927203Y-38751526D01*
X52919836Y-38754443D01*
X52919831Y-38754444D01*
X52886092Y-38767802D01*
X52874865Y-38771646D01*
X52832407Y-38783982D01*
X52825581Y-38788019D01*
X52814972Y-38794293D01*
X52797224Y-38802988D01*
X52778383Y-38810448D01*
X52771967Y-38815110D01*
X52771966Y-38815110D01*
X52742613Y-38836436D01*
X52732693Y-38842952D01*
X52701465Y-38861420D01*
X52701462Y-38861422D01*
X52694638Y-38865458D01*
X52680317Y-38879779D01*
X52665284Y-38892619D01*
X52648893Y-38904528D01*
X52622516Y-38936413D01*
X52620712Y-38938593D01*
X52612722Y-38947374D01*
X51931742Y-39628353D01*
X51923463Y-39635887D01*
X51916982Y-39640000D01*
X51880507Y-39678842D01*
X51870357Y-39689651D01*
X51867602Y-39692493D01*
X51847865Y-39712230D01*
X51845385Y-39715427D01*
X51837682Y-39724447D01*
X51807414Y-39756679D01*
X51803595Y-39763625D01*
X51803593Y-39763628D01*
X51797652Y-39774434D01*
X51786801Y-39790953D01*
X51774386Y-39806959D01*
X51771241Y-39814228D01*
X51771238Y-39814232D01*
X51756826Y-39847537D01*
X51751609Y-39858187D01*
X51730305Y-39896940D01*
X51728334Y-39904615D01*
X51728334Y-39904616D01*
X51725267Y-39916562D01*
X51718863Y-39935266D01*
X51710819Y-39953855D01*
X51709580Y-39961678D01*
X51709577Y-39961688D01*
X51703901Y-39997524D01*
X51701495Y-40009144D01*
X51692472Y-40044289D01*
X51690500Y-40051970D01*
X51690500Y-40072224D01*
X51688949Y-40091934D01*
X51685780Y-40111943D01*
X51686526Y-40119835D01*
X51689941Y-40155961D01*
X51690500Y-40167819D01*
X51690500Y-40385806D01*
X51670498Y-40453927D01*
X51636771Y-40489019D01*
X51484211Y-40595843D01*
X51484208Y-40595845D01*
X51479700Y-40599002D01*
X51317802Y-40760900D01*
X51186477Y-40948451D01*
X51184154Y-40953433D01*
X51184151Y-40953438D01*
X51134273Y-41060403D01*
X51089716Y-41155957D01*
X51088294Y-41161265D01*
X51088293Y-41161267D01*
X51075283Y-41209821D01*
X51030457Y-41377113D01*
X51010502Y-41605200D01*
X51030457Y-41833287D01*
X51089716Y-42054443D01*
X51092039Y-42059424D01*
X51092039Y-42059425D01*
X51184151Y-42256962D01*
X51184154Y-42256967D01*
X51186477Y-42261949D01*
X51317802Y-42449500D01*
X51479700Y-42611398D01*
X51484208Y-42614555D01*
X51484211Y-42614557D01*
X51562389Y-42669298D01*
X51667251Y-42742723D01*
X51672233Y-42745046D01*
X51672238Y-42745049D01*
X51842825Y-42824594D01*
X51874757Y-42839484D01*
X51880065Y-42840906D01*
X51880067Y-42840907D01*
X52090598Y-42897319D01*
X52090600Y-42897319D01*
X52095913Y-42898743D01*
X52324000Y-42918698D01*
X52552087Y-42898743D01*
X52557400Y-42897319D01*
X52557402Y-42897319D01*
X52767933Y-42840907D01*
X52767935Y-42840906D01*
X52773243Y-42839484D01*
X52805175Y-42824594D01*
X52975762Y-42745049D01*
X52975767Y-42745046D01*
X52980749Y-42742723D01*
X53085611Y-42669298D01*
X53163789Y-42614557D01*
X53163792Y-42614555D01*
X53168300Y-42611398D01*
X53330198Y-42449500D01*
X53461523Y-42261949D01*
X53463846Y-42256967D01*
X53463849Y-42256962D01*
X53479805Y-42222743D01*
X53526722Y-42169458D01*
X53594999Y-42149997D01*
X53662959Y-42170539D01*
X53708195Y-42222743D01*
X53724151Y-42256962D01*
X53724154Y-42256967D01*
X53726477Y-42261949D01*
X53857802Y-42449500D01*
X54019700Y-42611398D01*
X54024208Y-42614555D01*
X54024211Y-42614557D01*
X54102389Y-42669298D01*
X54207251Y-42742723D01*
X54212233Y-42745046D01*
X54212238Y-42745049D01*
X54382825Y-42824594D01*
X54414757Y-42839484D01*
X54420065Y-42840906D01*
X54420067Y-42840907D01*
X54630598Y-42897319D01*
X54630600Y-42897319D01*
X54635913Y-42898743D01*
X54864000Y-42918698D01*
X55092087Y-42898743D01*
X55097400Y-42897319D01*
X55097402Y-42897319D01*
X55307933Y-42840907D01*
X55307935Y-42840906D01*
X55313243Y-42839484D01*
X55345175Y-42824594D01*
X55515762Y-42745049D01*
X55515767Y-42745046D01*
X55520749Y-42742723D01*
X55625611Y-42669298D01*
X55703789Y-42614557D01*
X55703792Y-42614555D01*
X55708300Y-42611398D01*
X55870198Y-42449500D01*
X56001523Y-42261949D01*
X56003846Y-42256967D01*
X56003849Y-42256962D01*
X56019805Y-42222743D01*
X56066722Y-42169458D01*
X56134999Y-42149997D01*
X56202959Y-42170539D01*
X56248195Y-42222743D01*
X56264151Y-42256962D01*
X56264154Y-42256967D01*
X56266477Y-42261949D01*
X56397802Y-42449500D01*
X56559700Y-42611398D01*
X56564208Y-42614555D01*
X56564211Y-42614557D01*
X56642389Y-42669298D01*
X56747251Y-42742723D01*
X56752233Y-42745046D01*
X56752238Y-42745049D01*
X56922825Y-42824594D01*
X56954757Y-42839484D01*
X56960065Y-42840906D01*
X56960067Y-42840907D01*
X57170598Y-42897319D01*
X57170600Y-42897319D01*
X57175913Y-42898743D01*
X57404000Y-42918698D01*
X57632087Y-42898743D01*
X57637400Y-42897319D01*
X57637402Y-42897319D01*
X57847933Y-42840907D01*
X57847935Y-42840906D01*
X57853243Y-42839484D01*
X57885175Y-42824594D01*
X58055762Y-42745049D01*
X58055767Y-42745046D01*
X58060749Y-42742723D01*
X58165611Y-42669298D01*
X58243789Y-42614557D01*
X58243792Y-42614555D01*
X58248300Y-42611398D01*
X58410198Y-42449500D01*
X58541523Y-42261949D01*
X58543846Y-42256967D01*
X58543849Y-42256962D01*
X58559805Y-42222743D01*
X58606722Y-42169458D01*
X58674999Y-42149997D01*
X58742959Y-42170539D01*
X58788195Y-42222743D01*
X58804151Y-42256962D01*
X58804154Y-42256967D01*
X58806477Y-42261949D01*
X58937802Y-42449500D01*
X59099700Y-42611398D01*
X59104208Y-42614555D01*
X59104211Y-42614557D01*
X59182389Y-42669298D01*
X59287251Y-42742723D01*
X59292233Y-42745046D01*
X59292238Y-42745049D01*
X59462825Y-42824594D01*
X59494757Y-42839484D01*
X59500065Y-42840906D01*
X59500067Y-42840907D01*
X59710598Y-42897319D01*
X59710600Y-42897319D01*
X59715913Y-42898743D01*
X59944000Y-42918698D01*
X60172087Y-42898743D01*
X60177400Y-42897319D01*
X60177402Y-42897319D01*
X60387933Y-42840907D01*
X60387935Y-42840906D01*
X60393243Y-42839484D01*
X60425175Y-42824594D01*
X60595762Y-42745049D01*
X60595767Y-42745046D01*
X60600749Y-42742723D01*
X60705611Y-42669298D01*
X60783789Y-42614557D01*
X60783792Y-42614555D01*
X60788300Y-42611398D01*
X60950198Y-42449500D01*
X61081523Y-42261949D01*
X61083846Y-42256967D01*
X61083849Y-42256962D01*
X61099805Y-42222743D01*
X61146722Y-42169458D01*
X61214999Y-42149997D01*
X61282959Y-42170539D01*
X61328195Y-42222743D01*
X61344151Y-42256962D01*
X61344154Y-42256967D01*
X61346477Y-42261949D01*
X61477802Y-42449500D01*
X61639700Y-42611398D01*
X61644208Y-42614555D01*
X61644211Y-42614557D01*
X61722389Y-42669298D01*
X61827251Y-42742723D01*
X61832233Y-42745046D01*
X61832238Y-42745049D01*
X62002825Y-42824594D01*
X62034757Y-42839484D01*
X62040065Y-42840906D01*
X62040067Y-42840907D01*
X62250598Y-42897319D01*
X62250600Y-42897319D01*
X62255913Y-42898743D01*
X62484000Y-42918698D01*
X62712087Y-42898743D01*
X62717400Y-42897319D01*
X62717402Y-42897319D01*
X62927933Y-42840907D01*
X62927935Y-42840906D01*
X62933243Y-42839484D01*
X62965175Y-42824594D01*
X63135762Y-42745049D01*
X63135767Y-42745046D01*
X63140749Y-42742723D01*
X63245611Y-42669298D01*
X63323789Y-42614557D01*
X63323792Y-42614555D01*
X63328300Y-42611398D01*
X63490198Y-42449500D01*
X63621523Y-42261949D01*
X63623846Y-42256967D01*
X63623849Y-42256962D01*
X63639805Y-42222743D01*
X63686722Y-42169458D01*
X63754999Y-42149997D01*
X63822959Y-42170539D01*
X63868195Y-42222743D01*
X63884151Y-42256962D01*
X63884154Y-42256967D01*
X63886477Y-42261949D01*
X64017802Y-42449500D01*
X64179700Y-42611398D01*
X64184208Y-42614555D01*
X64184211Y-42614557D01*
X64262389Y-42669298D01*
X64367251Y-42742723D01*
X64372233Y-42745046D01*
X64372238Y-42745049D01*
X64542825Y-42824594D01*
X64574757Y-42839484D01*
X64580065Y-42840906D01*
X64580067Y-42840907D01*
X64790598Y-42897319D01*
X64790600Y-42897319D01*
X64795913Y-42898743D01*
X65024000Y-42918698D01*
X65252087Y-42898743D01*
X65257400Y-42897319D01*
X65257402Y-42897319D01*
X65467933Y-42840907D01*
X65467935Y-42840906D01*
X65473243Y-42839484D01*
X65505175Y-42824594D01*
X65675762Y-42745049D01*
X65675767Y-42745046D01*
X65680749Y-42742723D01*
X65785611Y-42669298D01*
X65863789Y-42614557D01*
X65863792Y-42614555D01*
X65868300Y-42611398D01*
X66030198Y-42449500D01*
X66161523Y-42261949D01*
X66163846Y-42256967D01*
X66163849Y-42256962D01*
X66179805Y-42222743D01*
X66226722Y-42169458D01*
X66294999Y-42149997D01*
X66362959Y-42170539D01*
X66408195Y-42222743D01*
X66424151Y-42256962D01*
X66424154Y-42256967D01*
X66426477Y-42261949D01*
X66557802Y-42449500D01*
X66719700Y-42611398D01*
X66724208Y-42614555D01*
X66724211Y-42614557D01*
X66802389Y-42669298D01*
X66907251Y-42742723D01*
X66912233Y-42745046D01*
X66912238Y-42745049D01*
X67082825Y-42824594D01*
X67114757Y-42839484D01*
X67120065Y-42840906D01*
X67120067Y-42840907D01*
X67330598Y-42897319D01*
X67330600Y-42897319D01*
X67335913Y-42898743D01*
X67564000Y-42918698D01*
X67792087Y-42898743D01*
X67797400Y-42897319D01*
X67797402Y-42897319D01*
X68007933Y-42840907D01*
X68007935Y-42840906D01*
X68013243Y-42839484D01*
X68045175Y-42824594D01*
X68215762Y-42745049D01*
X68215767Y-42745046D01*
X68220749Y-42742723D01*
X68325611Y-42669298D01*
X68403789Y-42614557D01*
X68403792Y-42614555D01*
X68408300Y-42611398D01*
X68570198Y-42449500D01*
X68701523Y-42261949D01*
X68703846Y-42256967D01*
X68703849Y-42256962D01*
X68719805Y-42222743D01*
X68766722Y-42169458D01*
X68834999Y-42149997D01*
X68902959Y-42170539D01*
X68948195Y-42222743D01*
X68964151Y-42256962D01*
X68964154Y-42256967D01*
X68966477Y-42261949D01*
X69097802Y-42449500D01*
X69259700Y-42611398D01*
X69264208Y-42614555D01*
X69264211Y-42614557D01*
X69416771Y-42721381D01*
X69461099Y-42776838D01*
X69470500Y-42824594D01*
X69470500Y-44238905D01*
X69450498Y-44307026D01*
X69433595Y-44328000D01*
X68742000Y-45019595D01*
X68679688Y-45053621D01*
X68652905Y-45056500D01*
X68079600Y-45056500D01*
X68076354Y-45056837D01*
X68076350Y-45056837D01*
X67980692Y-45066762D01*
X67980688Y-45066763D01*
X67973834Y-45067474D01*
X67967298Y-45069655D01*
X67967296Y-45069655D01*
X67888571Y-45095920D01*
X67806054Y-45123450D01*
X67655652Y-45216522D01*
X67530695Y-45341697D01*
X67437885Y-45492262D01*
X67382203Y-45660139D01*
X67371500Y-45764600D01*
X67371500Y-46390400D01*
X67371837Y-46393646D01*
X67371837Y-46393650D01*
X67379717Y-46469593D01*
X67382474Y-46496166D01*
X67384655Y-46502702D01*
X67384655Y-46502704D01*
X67395435Y-46535016D01*
X67438450Y-46663946D01*
X67531522Y-46814348D01*
X67656697Y-46939305D01*
X67662927Y-46943145D01*
X67662928Y-46943146D01*
X67800090Y-47027694D01*
X67807262Y-47032115D01*
X67887005Y-47058564D01*
X67968611Y-47085632D01*
X67968613Y-47085632D01*
X67975139Y-47087797D01*
X67981975Y-47088497D01*
X67981978Y-47088498D01*
X68025031Y-47092909D01*
X68079600Y-47098500D01*
X69080400Y-47098500D01*
X69083646Y-47098163D01*
X69083650Y-47098163D01*
X69179308Y-47088238D01*
X69179312Y-47088237D01*
X69186166Y-47087526D01*
X69192702Y-47085345D01*
X69192704Y-47085345D01*
X69324806Y-47041272D01*
X69353946Y-47031550D01*
X69504348Y-46938478D01*
X69629305Y-46813303D01*
X69722115Y-46662738D01*
X69750368Y-46577557D01*
X69775632Y-46501389D01*
X69775632Y-46501387D01*
X69777797Y-46494861D01*
X69779439Y-46478841D01*
X69788172Y-46393598D01*
X69788500Y-46390400D01*
X69788500Y-45817094D01*
X69808502Y-45748973D01*
X69825405Y-45727999D01*
X70496247Y-45057157D01*
X70504537Y-45049613D01*
X70511018Y-45045500D01*
X70520996Y-45034875D01*
X70554792Y-44998885D01*
X70557659Y-44995832D01*
X70560413Y-44992991D01*
X70580134Y-44973270D01*
X70582612Y-44970075D01*
X70590318Y-44961053D01*
X70615158Y-44934601D01*
X70620586Y-44928821D01*
X70630346Y-44911068D01*
X70641199Y-44894545D01*
X70646998Y-44887069D01*
X70653613Y-44878541D01*
X70671176Y-44837957D01*
X70676383Y-44827327D01*
X70697695Y-44788560D01*
X70699666Y-44780883D01*
X70699668Y-44780878D01*
X70702732Y-44768942D01*
X70709138Y-44750230D01*
X70714034Y-44738917D01*
X70717181Y-44731645D01*
X70723542Y-44691487D01*
X70724097Y-44687981D01*
X70726504Y-44676360D01*
X70735528Y-44641211D01*
X70735528Y-44641210D01*
X70737500Y-44633530D01*
X70737500Y-44613269D01*
X70739051Y-44593558D01*
X70740979Y-44581385D01*
X70742219Y-44573557D01*
X70738059Y-44529546D01*
X70737500Y-44517689D01*
X70737500Y-42824594D01*
X70757502Y-42756473D01*
X70791229Y-42721381D01*
X70943789Y-42614557D01*
X70943792Y-42614555D01*
X70948300Y-42611398D01*
X71110198Y-42449500D01*
X71241523Y-42261949D01*
X71243846Y-42256967D01*
X71243849Y-42256962D01*
X71259805Y-42222743D01*
X71306722Y-42169458D01*
X71374999Y-42149997D01*
X71442959Y-42170539D01*
X71488195Y-42222743D01*
X71504151Y-42256962D01*
X71504154Y-42256967D01*
X71506477Y-42261949D01*
X71637802Y-42449500D01*
X71799700Y-42611398D01*
X71804208Y-42614555D01*
X71804211Y-42614557D01*
X71956771Y-42721381D01*
X72001099Y-42776838D01*
X72010500Y-42824594D01*
X72010500Y-44930764D01*
X71990498Y-44998885D01*
X71936842Y-45045378D01*
X71891403Y-45056500D01*
X71889600Y-45056500D01*
X71886354Y-45056837D01*
X71886350Y-45056837D01*
X71790692Y-45066762D01*
X71790688Y-45066763D01*
X71783834Y-45067474D01*
X71777298Y-45069655D01*
X71777296Y-45069655D01*
X71698571Y-45095920D01*
X71616054Y-45123450D01*
X71465652Y-45216522D01*
X71340695Y-45341697D01*
X71247885Y-45492262D01*
X71192203Y-45660139D01*
X71181500Y-45764600D01*
X71181500Y-46390400D01*
X71181837Y-46393646D01*
X71181837Y-46393650D01*
X71189717Y-46469593D01*
X71192474Y-46496166D01*
X71194655Y-46502702D01*
X71194655Y-46502704D01*
X71205435Y-46535016D01*
X71248450Y-46663946D01*
X71341522Y-46814348D01*
X71466697Y-46939305D01*
X71472927Y-46943145D01*
X71472928Y-46943146D01*
X71610090Y-47027694D01*
X71617262Y-47032115D01*
X71697005Y-47058564D01*
X71778611Y-47085632D01*
X71778613Y-47085632D01*
X71785139Y-47087797D01*
X71791975Y-47088497D01*
X71791978Y-47088498D01*
X71835031Y-47092909D01*
X71889600Y-47098500D01*
X72462905Y-47098500D01*
X72531026Y-47118502D01*
X72552000Y-47135405D01*
X72798848Y-47382253D01*
X72806388Y-47390539D01*
X72810500Y-47397018D01*
X72816277Y-47402443D01*
X72860151Y-47443643D01*
X72862993Y-47446398D01*
X72882730Y-47466135D01*
X72885927Y-47468615D01*
X72894947Y-47476318D01*
X72927179Y-47506586D01*
X72934125Y-47510405D01*
X72934128Y-47510407D01*
X72944934Y-47516348D01*
X72961453Y-47527199D01*
X72977459Y-47539614D01*
X72984728Y-47542759D01*
X72984732Y-47542762D01*
X73018037Y-47557174D01*
X73028687Y-47562391D01*
X73067440Y-47583695D01*
X73075115Y-47585666D01*
X73075116Y-47585666D01*
X73087062Y-47588733D01*
X73105767Y-47595137D01*
X73124355Y-47603181D01*
X73132178Y-47604420D01*
X73132188Y-47604423D01*
X73168024Y-47610099D01*
X73179644Y-47612505D01*
X73214789Y-47621528D01*
X73222470Y-47623500D01*
X73242724Y-47623500D01*
X73262434Y-47625051D01*
X73282443Y-47628220D01*
X73290335Y-47627474D01*
X73326461Y-47624059D01*
X73338319Y-47623500D01*
X80203406Y-47623500D01*
X80271527Y-47643502D01*
X80292501Y-47660405D01*
X88483595Y-55851499D01*
X88517621Y-55913811D01*
X88520500Y-55940594D01*
X88520500Y-58987476D01*
X88500498Y-59055597D01*
X88488142Y-59071779D01*
X88414960Y-59153056D01*
X88319473Y-59318444D01*
X88260458Y-59500072D01*
X88240496Y-59690000D01*
X88260458Y-59879928D01*
X88319473Y-60061556D01*
X88414960Y-60226944D01*
X88542747Y-60368866D01*
X88697248Y-60481118D01*
X88703276Y-60483802D01*
X88703278Y-60483803D01*
X88836332Y-60543042D01*
X88871712Y-60558794D01*
X88965113Y-60578647D01*
X89052056Y-60597128D01*
X89052061Y-60597128D01*
X89058513Y-60598500D01*
X89131339Y-60598500D01*
X89199460Y-60618502D01*
X89245953Y-60672158D01*
X89256057Y-60742432D01*
X89232165Y-60800065D01*
X89173385Y-60878495D01*
X89122255Y-61014884D01*
X89115500Y-61077066D01*
X89115500Y-62773334D01*
X89122255Y-62835516D01*
X89173385Y-62971905D01*
X89260739Y-63088461D01*
X89377295Y-63175815D01*
X89513684Y-63226945D01*
X89575866Y-63233700D01*
X91272134Y-63233700D01*
X91334316Y-63226945D01*
X91470705Y-63175815D01*
X91587261Y-63088461D01*
X91674615Y-62971905D01*
X91725745Y-62835516D01*
X91732500Y-62773334D01*
X91732500Y-61077066D01*
X91725745Y-61014884D01*
X91674615Y-60878495D01*
X91587261Y-60761939D01*
X91470705Y-60674585D01*
X91334316Y-60623455D01*
X91272134Y-60616700D01*
X89811927Y-60616700D01*
X89743806Y-60596698D01*
X89697313Y-60543042D01*
X89687209Y-60472768D01*
X89716703Y-60408188D01*
X89737866Y-60388764D01*
X89742388Y-60385478D01*
X89765253Y-60368866D01*
X89893040Y-60226944D01*
X89988527Y-60061556D01*
X90047542Y-59879928D01*
X90067504Y-59690000D01*
X90047542Y-59500072D01*
X89988527Y-59318444D01*
X89893040Y-59153056D01*
X89819863Y-59071785D01*
X89789147Y-59007779D01*
X89787500Y-58987476D01*
X89787500Y-57170339D01*
X99726091Y-57170339D01*
X99761747Y-57403349D01*
X99834980Y-57627407D01*
X99943825Y-57836496D01*
X99946928Y-57840629D01*
X99946930Y-57840632D01*
X99969026Y-57870061D01*
X100085358Y-58025000D01*
X100255777Y-58187857D01*
X100450508Y-58320693D01*
X100455192Y-58322867D01*
X100455195Y-58322869D01*
X100659628Y-58417764D01*
X100659633Y-58417766D01*
X100664319Y-58419941D01*
X100891468Y-58482935D01*
X100896605Y-58483484D01*
X101080563Y-58503144D01*
X101080571Y-58503144D01*
X101083898Y-58503500D01*
X102418757Y-58503500D01*
X102421330Y-58503288D01*
X102421341Y-58503288D01*
X102588779Y-58489522D01*
X102588785Y-58489521D01*
X102593930Y-58489098D01*
X102822551Y-58431673D01*
X103038723Y-58337678D01*
X103236641Y-58209640D01*
X103260581Y-58187857D01*
X103407167Y-58054473D01*
X103407168Y-58054471D01*
X103410989Y-58050995D01*
X103414188Y-58046944D01*
X103414192Y-58046940D01*
X103553883Y-57870061D01*
X103553885Y-57870057D01*
X103557085Y-57866006D01*
X103671005Y-57659639D01*
X103680794Y-57631998D01*
X103747965Y-57442311D01*
X103747966Y-57442307D01*
X103749691Y-57437436D01*
X103750599Y-57432340D01*
X103790123Y-57210456D01*
X103790124Y-57210450D01*
X103791029Y-57205367D01*
X103793909Y-56969661D01*
X103758253Y-56736651D01*
X103685020Y-56512593D01*
X103576175Y-56303504D01*
X103557415Y-56278517D01*
X103437747Y-56119135D01*
X103437745Y-56119132D01*
X103434642Y-56115000D01*
X103264223Y-55952143D01*
X103069492Y-55819307D01*
X103064808Y-55817133D01*
X103064805Y-55817131D01*
X102860372Y-55722236D01*
X102860367Y-55722234D01*
X102855681Y-55720059D01*
X102628532Y-55657065D01*
X102623395Y-55656516D01*
X102439437Y-55636856D01*
X102439429Y-55636856D01*
X102436102Y-55636500D01*
X101101243Y-55636500D01*
X101098670Y-55636712D01*
X101098659Y-55636712D01*
X100931221Y-55650478D01*
X100931215Y-55650479D01*
X100926070Y-55650902D01*
X100697449Y-55708327D01*
X100481277Y-55802322D01*
X100283359Y-55930360D01*
X100279536Y-55933839D01*
X100279533Y-55933841D01*
X100255495Y-55955714D01*
X100109011Y-56089005D01*
X100105812Y-56093056D01*
X100105808Y-56093060D01*
X99966117Y-56269939D01*
X99962915Y-56273994D01*
X99848995Y-56480361D01*
X99847271Y-56485230D01*
X99847269Y-56485234D01*
X99772035Y-56697689D01*
X99770309Y-56702564D01*
X99769402Y-56707657D01*
X99769401Y-56707660D01*
X99765113Y-56731736D01*
X99728971Y-56934633D01*
X99726091Y-57170339D01*
X89787500Y-57170339D01*
X89787500Y-55704763D01*
X89788027Y-55693579D01*
X89789701Y-55686091D01*
X89787562Y-55618032D01*
X89787500Y-55614075D01*
X89787500Y-55586144D01*
X89786994Y-55582138D01*
X89786061Y-55570292D01*
X89784922Y-55534037D01*
X89784673Y-55526110D01*
X89779022Y-55506658D01*
X89775014Y-55487306D01*
X89773467Y-55475063D01*
X89772474Y-55467203D01*
X89769556Y-55459832D01*
X89756200Y-55426097D01*
X89752355Y-55414870D01*
X89751721Y-55412687D01*
X89740018Y-55372407D01*
X89735984Y-55365585D01*
X89735981Y-55365579D01*
X89729706Y-55354968D01*
X89721010Y-55337218D01*
X89716472Y-55325756D01*
X89716469Y-55325751D01*
X89713552Y-55318383D01*
X89687573Y-55282625D01*
X89681057Y-55272707D01*
X89662575Y-55241457D01*
X89658542Y-55234637D01*
X89644218Y-55220313D01*
X89631376Y-55205278D01*
X89619472Y-55188893D01*
X89585406Y-55160711D01*
X89576627Y-55152722D01*
X81021652Y-46597747D01*
X81014112Y-46589461D01*
X81010000Y-46582982D01*
X80960348Y-46536356D01*
X80957507Y-46533602D01*
X80937770Y-46513865D01*
X80934573Y-46511385D01*
X80925551Y-46503680D01*
X80924512Y-46502704D01*
X80893321Y-46473414D01*
X80886375Y-46469595D01*
X80886372Y-46469593D01*
X80875566Y-46463652D01*
X80859047Y-46452801D01*
X80858583Y-46452441D01*
X80843041Y-46440386D01*
X80835772Y-46437241D01*
X80835768Y-46437238D01*
X80802463Y-46422826D01*
X80791813Y-46417609D01*
X80753060Y-46396305D01*
X80733437Y-46391267D01*
X80714734Y-46384863D01*
X80703420Y-46379967D01*
X80703419Y-46379967D01*
X80696145Y-46376819D01*
X80688322Y-46375580D01*
X80688312Y-46375577D01*
X80652476Y-46369901D01*
X80640856Y-46367495D01*
X80605711Y-46358472D01*
X80605710Y-46358472D01*
X80598030Y-46356500D01*
X80577776Y-46356500D01*
X80558065Y-46354949D01*
X80545886Y-46353020D01*
X80538057Y-46351780D01*
X80530165Y-46352526D01*
X80494039Y-46355941D01*
X80482181Y-46356500D01*
X73724500Y-46356500D01*
X73656379Y-46336498D01*
X73609886Y-46282842D01*
X73598500Y-46230500D01*
X73598500Y-45764600D01*
X73596879Y-45748973D01*
X73588238Y-45665692D01*
X73588237Y-45665688D01*
X73587526Y-45658834D01*
X73531550Y-45491054D01*
X73438478Y-45340652D01*
X73314482Y-45216872D01*
X73280403Y-45154590D01*
X73277500Y-45127699D01*
X73277500Y-42824594D01*
X73297502Y-42756473D01*
X73331229Y-42721381D01*
X73483789Y-42614557D01*
X73483792Y-42614555D01*
X73488300Y-42611398D01*
X73650198Y-42449500D01*
X73781523Y-42261949D01*
X73783846Y-42256967D01*
X73783849Y-42256962D01*
X73799805Y-42222743D01*
X73846722Y-42169458D01*
X73914999Y-42149997D01*
X73982959Y-42170539D01*
X74028195Y-42222743D01*
X74044151Y-42256962D01*
X74044154Y-42256967D01*
X74046477Y-42261949D01*
X74177802Y-42449500D01*
X74339700Y-42611398D01*
X74344208Y-42614555D01*
X74344211Y-42614557D01*
X74422389Y-42669298D01*
X74527251Y-42742723D01*
X74532233Y-42745046D01*
X74532238Y-42745049D01*
X74702825Y-42824594D01*
X74734757Y-42839484D01*
X74740065Y-42840906D01*
X74740067Y-42840907D01*
X74950598Y-42897319D01*
X74950600Y-42897319D01*
X74955913Y-42898743D01*
X75184000Y-42918698D01*
X75412087Y-42898743D01*
X75417400Y-42897319D01*
X75417402Y-42897319D01*
X75627933Y-42840907D01*
X75627935Y-42840906D01*
X75633243Y-42839484D01*
X75665175Y-42824594D01*
X75835762Y-42745049D01*
X75835767Y-42745046D01*
X75840749Y-42742723D01*
X75945611Y-42669298D01*
X76023789Y-42614557D01*
X76023792Y-42614555D01*
X76028300Y-42611398D01*
X76190198Y-42449500D01*
X76321523Y-42261949D01*
X76323846Y-42256967D01*
X76323849Y-42256962D01*
X76339805Y-42222743D01*
X76386722Y-42169458D01*
X76454999Y-42149997D01*
X76522959Y-42170539D01*
X76568195Y-42222743D01*
X76584151Y-42256962D01*
X76584154Y-42256967D01*
X76586477Y-42261949D01*
X76717802Y-42449500D01*
X76879700Y-42611398D01*
X76884208Y-42614555D01*
X76884211Y-42614557D01*
X76962389Y-42669298D01*
X77067251Y-42742723D01*
X77072233Y-42745046D01*
X77072238Y-42745049D01*
X77242825Y-42824594D01*
X77274757Y-42839484D01*
X77280064Y-42840906D01*
X77434748Y-42882354D01*
X77495370Y-42919306D01*
X77526392Y-42983167D01*
X77517963Y-43053661D01*
X77491231Y-43093156D01*
X77304214Y-43280173D01*
X77254055Y-43310911D01*
X77240818Y-43315212D01*
X77228080Y-43318625D01*
X77194169Y-43325833D01*
X77194165Y-43325834D01*
X77187712Y-43327206D01*
X77149994Y-43343999D01*
X77137698Y-43348718D01*
X77098444Y-43361473D01*
X77092723Y-43364776D01*
X77062710Y-43382104D01*
X77050961Y-43388091D01*
X77013248Y-43404882D01*
X77007909Y-43408761D01*
X77007904Y-43408764D01*
X76979851Y-43429146D01*
X76968798Y-43436325D01*
X76933056Y-43456960D01*
X76928147Y-43461380D01*
X76928143Y-43461383D01*
X76902386Y-43484575D01*
X76892143Y-43492871D01*
X76858747Y-43517134D01*
X76854333Y-43522036D01*
X76854331Y-43522038D01*
X76831129Y-43547806D01*
X76821806Y-43557129D01*
X76791134Y-43584747D01*
X76766871Y-43618143D01*
X76758575Y-43628386D01*
X76735383Y-43654143D01*
X76735380Y-43654147D01*
X76730960Y-43659056D01*
X76710325Y-43694798D01*
X76703146Y-43705851D01*
X76682764Y-43733904D01*
X76682761Y-43733909D01*
X76678882Y-43739248D01*
X76676199Y-43745275D01*
X76676198Y-43745276D01*
X76662092Y-43776959D01*
X76656105Y-43788708D01*
X76635473Y-43824444D01*
X76633432Y-43830727D01*
X76633431Y-43830728D01*
X76622719Y-43863696D01*
X76617999Y-43875994D01*
X76601206Y-43913712D01*
X76599834Y-43920165D01*
X76599833Y-43920169D01*
X76592625Y-43954080D01*
X76589212Y-43966817D01*
X76578498Y-43999791D01*
X76578497Y-43999798D01*
X76576458Y-44006072D01*
X76575768Y-44012633D01*
X76575768Y-44012635D01*
X76572144Y-44047122D01*
X76570082Y-44060136D01*
X76561500Y-44100513D01*
X76561500Y-44141784D01*
X76560810Y-44154955D01*
X76556496Y-44196000D01*
X76557186Y-44202565D01*
X76560810Y-44237045D01*
X76561500Y-44250216D01*
X76561500Y-44291487D01*
X76570082Y-44331864D01*
X76572143Y-44344872D01*
X76576458Y-44385928D01*
X76578497Y-44392202D01*
X76578498Y-44392209D01*
X76589212Y-44425183D01*
X76592625Y-44437920D01*
X76601206Y-44478288D01*
X76617999Y-44516006D01*
X76622718Y-44528302D01*
X76635473Y-44567556D01*
X76638776Y-44573277D01*
X76656104Y-44603290D01*
X76662092Y-44615041D01*
X76673744Y-44641211D01*
X76678882Y-44652752D01*
X76682761Y-44658091D01*
X76682764Y-44658096D01*
X76703146Y-44686149D01*
X76710325Y-44697202D01*
X76730960Y-44732944D01*
X76735380Y-44737853D01*
X76735383Y-44737857D01*
X76758575Y-44763614D01*
X76766871Y-44773857D01*
X76791134Y-44807253D01*
X76796036Y-44811667D01*
X76796038Y-44811669D01*
X76821806Y-44834871D01*
X76831129Y-44844194D01*
X76854128Y-44869736D01*
X76858747Y-44874866D01*
X76892143Y-44899129D01*
X76902386Y-44907425D01*
X76928143Y-44930617D01*
X76928146Y-44930619D01*
X76933056Y-44935040D01*
X76968798Y-44955675D01*
X76979851Y-44962854D01*
X77007904Y-44983236D01*
X77007909Y-44983239D01*
X77013248Y-44987118D01*
X77019275Y-44989801D01*
X77019276Y-44989802D01*
X77050959Y-45003908D01*
X77062708Y-45009895D01*
X77098444Y-45030527D01*
X77104727Y-45032568D01*
X77104728Y-45032569D01*
X77137696Y-45043281D01*
X77149994Y-45048001D01*
X77187712Y-45064794D01*
X77194165Y-45066166D01*
X77194169Y-45066167D01*
X77228080Y-45073375D01*
X77240817Y-45076788D01*
X77273791Y-45087502D01*
X77273798Y-45087503D01*
X77280072Y-45089542D01*
X77286633Y-45090232D01*
X77286635Y-45090232D01*
X77300690Y-45091709D01*
X77321128Y-45093857D01*
X77334136Y-45095918D01*
X77374513Y-45104500D01*
X77591783Y-45104500D01*
X77611492Y-45106051D01*
X77625390Y-45108252D01*
X77631977Y-45107907D01*
X77631982Y-45107907D01*
X77693680Y-45104673D01*
X77700274Y-45104500D01*
X77720810Y-45104500D01*
X77724082Y-45104156D01*
X77724084Y-45104156D01*
X77741242Y-45102353D01*
X77747816Y-45101836D01*
X77809508Y-45098603D01*
X77809512Y-45098602D01*
X77816103Y-45098257D01*
X77822484Y-45096547D01*
X77822486Y-45096547D01*
X77829691Y-45094617D01*
X77849125Y-45091015D01*
X77856554Y-45090234D01*
X77856563Y-45090232D01*
X77863128Y-45089542D01*
X77928197Y-45068400D01*
X77934499Y-45066533D01*
X77982686Y-45053621D01*
X77994196Y-45050537D01*
X77994197Y-45050537D01*
X78000570Y-45048829D01*
X78013108Y-45042440D01*
X78031374Y-45034875D01*
X78038472Y-45032569D01*
X78038474Y-45032568D01*
X78044756Y-45030527D01*
X78103985Y-44996331D01*
X78109779Y-44993185D01*
X78110160Y-44992991D01*
X78170730Y-44962129D01*
X78181667Y-44953273D01*
X78197963Y-44942073D01*
X78204424Y-44938343D01*
X78204428Y-44938340D01*
X78210144Y-44935040D01*
X78215050Y-44930623D01*
X78215055Y-44930619D01*
X78260969Y-44889278D01*
X78265984Y-44884994D01*
X78274482Y-44878112D01*
X78281941Y-44872072D01*
X78296456Y-44857557D01*
X78301241Y-44853016D01*
X78311039Y-44844194D01*
X78352066Y-44807253D01*
X78360339Y-44795867D01*
X78373178Y-44780836D01*
X79284040Y-43869974D01*
X80200136Y-42953877D01*
X80262448Y-42919852D01*
X80278246Y-42917452D01*
X80356904Y-42910570D01*
X80486606Y-42899223D01*
X80486611Y-42899222D01*
X80492087Y-42898743D01*
X80497400Y-42897319D01*
X80497402Y-42897319D01*
X80707933Y-42840907D01*
X80707935Y-42840906D01*
X80713243Y-42839484D01*
X80745175Y-42824594D01*
X80915762Y-42745049D01*
X80915767Y-42745046D01*
X80920749Y-42742723D01*
X81025611Y-42669298D01*
X81103789Y-42614557D01*
X81103792Y-42614555D01*
X81108300Y-42611398D01*
X81270198Y-42449500D01*
X81401523Y-42261949D01*
X81403846Y-42256967D01*
X81403849Y-42256962D01*
X81495961Y-42059425D01*
X81495961Y-42059424D01*
X81498284Y-42054443D01*
X81557543Y-41833287D01*
X81577498Y-41605200D01*
X81557543Y-41377113D01*
X81504220Y-41178110D01*
X81505910Y-41107135D01*
X81545704Y-41048339D01*
X81610968Y-41020391D01*
X81625927Y-41019500D01*
X103553233Y-41019500D01*
X103564416Y-41020027D01*
X103571909Y-41021702D01*
X103579835Y-41021453D01*
X103579836Y-41021453D01*
X103639986Y-41019562D01*
X103643945Y-41019500D01*
X103671856Y-41019500D01*
X103675791Y-41019003D01*
X103675856Y-41018995D01*
X103687693Y-41018062D01*
X103719951Y-41017048D01*
X103723970Y-41016922D01*
X103731889Y-41016673D01*
X103751343Y-41011021D01*
X103770700Y-41007013D01*
X103782930Y-41005468D01*
X103782931Y-41005468D01*
X103790797Y-41004474D01*
X103798168Y-41001555D01*
X103798170Y-41001555D01*
X103831912Y-40988196D01*
X103843142Y-40984351D01*
X103877983Y-40974229D01*
X103877984Y-40974229D01*
X103885593Y-40972018D01*
X103892412Y-40967985D01*
X103892417Y-40967983D01*
X103903028Y-40961707D01*
X103920776Y-40953012D01*
X103939617Y-40945552D01*
X103975387Y-40919564D01*
X103985307Y-40913048D01*
X104016535Y-40894580D01*
X104016538Y-40894578D01*
X104023362Y-40890542D01*
X104037683Y-40876221D01*
X104052717Y-40863380D01*
X104062694Y-40856131D01*
X104069107Y-40851472D01*
X104097298Y-40817395D01*
X104105288Y-40808616D01*
X106394134Y-38519770D01*
X113157740Y-31756165D01*
X113220052Y-31722139D01*
X113280507Y-31723843D01*
X113421468Y-31762935D01*
X113426605Y-31763484D01*
X113610563Y-31783144D01*
X113610571Y-31783144D01*
X113613898Y-31783500D01*
X114948757Y-31783500D01*
X114951330Y-31783288D01*
X114951341Y-31783288D01*
X115118779Y-31769522D01*
X115118785Y-31769521D01*
X115123930Y-31769098D01*
X115352551Y-31711673D01*
X115568723Y-31617678D01*
X115766641Y-31489640D01*
X115790581Y-31467857D01*
X115937167Y-31334473D01*
X115937168Y-31334471D01*
X115940989Y-31330995D01*
X115944188Y-31326944D01*
X115944192Y-31326940D01*
X116083883Y-31150061D01*
X116083885Y-31150057D01*
X116087085Y-31146006D01*
X116095192Y-31131320D01*
X116145624Y-31081351D01*
X116215067Y-31066579D01*
X116281472Y-31091695D01*
X116323757Y-31148726D01*
X116331500Y-31192215D01*
X116331500Y-34505940D01*
X116311498Y-34574061D01*
X116257842Y-34620554D01*
X116187568Y-34630658D01*
X116122988Y-34601164D01*
X116104740Y-34581593D01*
X116103070Y-34579368D01*
X115964642Y-34395000D01*
X115794223Y-34232143D01*
X115599492Y-34099307D01*
X115594808Y-34097133D01*
X115594805Y-34097131D01*
X115390372Y-34002236D01*
X115390367Y-34002234D01*
X115385681Y-34000059D01*
X115158532Y-33937065D01*
X115153395Y-33936516D01*
X114969437Y-33916856D01*
X114969429Y-33916856D01*
X114966102Y-33916500D01*
X113631243Y-33916500D01*
X113628670Y-33916712D01*
X113628659Y-33916712D01*
X113461221Y-33930478D01*
X113461215Y-33930479D01*
X113456070Y-33930902D01*
X113227449Y-33988327D01*
X113011277Y-34082322D01*
X112813359Y-34210360D01*
X112809536Y-34213839D01*
X112809533Y-34213841D01*
X112785495Y-34235714D01*
X112639011Y-34369005D01*
X112635812Y-34373056D01*
X112635808Y-34373060D01*
X112496117Y-34549939D01*
X112492915Y-34553994D01*
X112378995Y-34760361D01*
X112377271Y-34765230D01*
X112377269Y-34765234D01*
X112328167Y-34903895D01*
X112300309Y-34982564D01*
X112299402Y-34987657D01*
X112299401Y-34987660D01*
X112263945Y-35186712D01*
X112258971Y-35214633D01*
X112256091Y-35450339D01*
X112291747Y-35683349D01*
X112364980Y-35907407D01*
X112367370Y-35911998D01*
X112450339Y-36071379D01*
X112473825Y-36116496D01*
X112476928Y-36120629D01*
X112476930Y-36120632D01*
X112612253Y-36300865D01*
X112615358Y-36305000D01*
X112785777Y-36467857D01*
X112980508Y-36600693D01*
X112985192Y-36602867D01*
X112985195Y-36602869D01*
X113189628Y-36697764D01*
X113189633Y-36697766D01*
X113194319Y-36699941D01*
X113421468Y-36762935D01*
X113426605Y-36763484D01*
X113610563Y-36783144D01*
X113610571Y-36783144D01*
X113613898Y-36783500D01*
X114948757Y-36783500D01*
X114951330Y-36783288D01*
X114951341Y-36783288D01*
X115118779Y-36769522D01*
X115118785Y-36769521D01*
X115123930Y-36769098D01*
X115352551Y-36711673D01*
X115568723Y-36617678D01*
X115766641Y-36489640D01*
X115790581Y-36467857D01*
X115937167Y-36334473D01*
X115937168Y-36334471D01*
X115940989Y-36330995D01*
X115944188Y-36326944D01*
X115944192Y-36326940D01*
X116083883Y-36150061D01*
X116083885Y-36150057D01*
X116087085Y-36146006D01*
X116095192Y-36131320D01*
X116145624Y-36081351D01*
X116215067Y-36066579D01*
X116281472Y-36091695D01*
X116323757Y-36148726D01*
X116331500Y-36192215D01*
X116331500Y-51279060D01*
X116311498Y-51347181D01*
X116257842Y-51393674D01*
X116187568Y-51403778D01*
X116122988Y-51374284D01*
X116093737Y-51337241D01*
X116078561Y-51308088D01*
X116076175Y-51303504D01*
X116057415Y-51278517D01*
X115937747Y-51119135D01*
X115937745Y-51119132D01*
X115934642Y-51115000D01*
X115764223Y-50952143D01*
X115569492Y-50819307D01*
X115564808Y-50817133D01*
X115564805Y-50817131D01*
X115360372Y-50722236D01*
X115360367Y-50722234D01*
X115355681Y-50720059D01*
X115128532Y-50657065D01*
X115123395Y-50656516D01*
X114939437Y-50636856D01*
X114939429Y-50636856D01*
X114936102Y-50636500D01*
X113601243Y-50636500D01*
X113598670Y-50636712D01*
X113598659Y-50636712D01*
X113431221Y-50650478D01*
X113431215Y-50650479D01*
X113426070Y-50650902D01*
X113197449Y-50708327D01*
X112981277Y-50802322D01*
X112783359Y-50930360D01*
X112779536Y-50933839D01*
X112779533Y-50933841D01*
X112755495Y-50955714D01*
X112609011Y-51089005D01*
X112605812Y-51093056D01*
X112605808Y-51093060D01*
X112491858Y-51237345D01*
X112462915Y-51273994D01*
X112460422Y-51278509D01*
X112460414Y-51278522D01*
X112409146Y-51371394D01*
X112358714Y-51421364D01*
X112298838Y-51436500D01*
X103721866Y-51436500D01*
X103653745Y-51416498D01*
X103610105Y-51368683D01*
X103576175Y-51303504D01*
X103557415Y-51278517D01*
X103437747Y-51119135D01*
X103437745Y-51119132D01*
X103434642Y-51115000D01*
X103264223Y-50952143D01*
X103069492Y-50819307D01*
X103064808Y-50817133D01*
X103064805Y-50817131D01*
X102860372Y-50722236D01*
X102860367Y-50722234D01*
X102855681Y-50720059D01*
X102628532Y-50657065D01*
X102623395Y-50656516D01*
X102439437Y-50636856D01*
X102439429Y-50636856D01*
X102436102Y-50636500D01*
X101101243Y-50636500D01*
X101098670Y-50636712D01*
X101098659Y-50636712D01*
X100931221Y-50650478D01*
X100931215Y-50650479D01*
X100926070Y-50650902D01*
X100697449Y-50708327D01*
X100481277Y-50802322D01*
X100283359Y-50930360D01*
X100279536Y-50933839D01*
X100279533Y-50933841D01*
X100255495Y-50955714D01*
X100109011Y-51089005D01*
X100105812Y-51093056D01*
X100105808Y-51093060D01*
X99966117Y-51269939D01*
X99962915Y-51273994D01*
X99848995Y-51480361D01*
X99770309Y-51702564D01*
X99728971Y-51934633D01*
X99726091Y-52170339D01*
X99761747Y-52403349D01*
X99834980Y-52627407D01*
X99943825Y-52836496D01*
X99946928Y-52840629D01*
X99946930Y-52840632D01*
X99969026Y-52870061D01*
X100085358Y-53025000D01*
X100255777Y-53187857D01*
X100450508Y-53320693D01*
X100455192Y-53322867D01*
X100455195Y-53322869D01*
X100659628Y-53417764D01*
X100659633Y-53417766D01*
X100664319Y-53419941D01*
X100891468Y-53482935D01*
X100896605Y-53483484D01*
X101080563Y-53503144D01*
X101080571Y-53503144D01*
X101083898Y-53503500D01*
X102418757Y-53503500D01*
X102421330Y-53503288D01*
X102421341Y-53503288D01*
X102588779Y-53489522D01*
X102588785Y-53489521D01*
X102593930Y-53489098D01*
X102822551Y-53431673D01*
X103038723Y-53337678D01*
X103236641Y-53209640D01*
X103260581Y-53187857D01*
X103407167Y-53054473D01*
X103407168Y-53054471D01*
X103410989Y-53050995D01*
X103414188Y-53046944D01*
X103414192Y-53046940D01*
X103528142Y-52902655D01*
X103557085Y-52866006D01*
X103559580Y-52861487D01*
X103559586Y-52861478D01*
X103610854Y-52768606D01*
X103661286Y-52718636D01*
X103721162Y-52703500D01*
X112298134Y-52703500D01*
X112366255Y-52723502D01*
X112409895Y-52771317D01*
X112443825Y-52836496D01*
X112446928Y-52840629D01*
X112446930Y-52840632D01*
X112469026Y-52870061D01*
X112585358Y-53025000D01*
X112755777Y-53187857D01*
X112950508Y-53320693D01*
X112955192Y-53322867D01*
X112955195Y-53322869D01*
X113159628Y-53417764D01*
X113159633Y-53417766D01*
X113164319Y-53419941D01*
X113391468Y-53482935D01*
X113396605Y-53483484D01*
X113580563Y-53503144D01*
X113580571Y-53503144D01*
X113583898Y-53503500D01*
X114918757Y-53503500D01*
X114921330Y-53503288D01*
X114921341Y-53503288D01*
X115088779Y-53489522D01*
X115088785Y-53489521D01*
X115093930Y-53489098D01*
X115322551Y-53431673D01*
X115538723Y-53337678D01*
X115736641Y-53209640D01*
X115760581Y-53187857D01*
X115907167Y-53054473D01*
X115907168Y-53054471D01*
X115910989Y-53050995D01*
X115914188Y-53046944D01*
X115914192Y-53046940D01*
X116053883Y-52870061D01*
X116053885Y-52870057D01*
X116057085Y-52866006D01*
X116095192Y-52796975D01*
X116145624Y-52747006D01*
X116215067Y-52732234D01*
X116281472Y-52757350D01*
X116323757Y-52814381D01*
X116331500Y-52857870D01*
X116331500Y-56279060D01*
X116311498Y-56347181D01*
X116257842Y-56393674D01*
X116187568Y-56403778D01*
X116122988Y-56374284D01*
X116093737Y-56337241D01*
X116078561Y-56308088D01*
X116076175Y-56303504D01*
X116057415Y-56278517D01*
X115937747Y-56119135D01*
X115937745Y-56119132D01*
X115934642Y-56115000D01*
X115764223Y-55952143D01*
X115569492Y-55819307D01*
X115564808Y-55817133D01*
X115564805Y-55817131D01*
X115360372Y-55722236D01*
X115360367Y-55722234D01*
X115355681Y-55720059D01*
X115128532Y-55657065D01*
X115123395Y-55656516D01*
X114939437Y-55636856D01*
X114939429Y-55636856D01*
X114936102Y-55636500D01*
X113601243Y-55636500D01*
X113598670Y-55636712D01*
X113598659Y-55636712D01*
X113431221Y-55650478D01*
X113431215Y-55650479D01*
X113426070Y-55650902D01*
X113197449Y-55708327D01*
X112981277Y-55802322D01*
X112783359Y-55930360D01*
X112779536Y-55933839D01*
X112779533Y-55933841D01*
X112755495Y-55955714D01*
X112609011Y-56089005D01*
X112605812Y-56093056D01*
X112605808Y-56093060D01*
X112466117Y-56269939D01*
X112462915Y-56273994D01*
X112348995Y-56480361D01*
X112347271Y-56485230D01*
X112347269Y-56485234D01*
X112272035Y-56697689D01*
X112270309Y-56702564D01*
X112269402Y-56707657D01*
X112269401Y-56707660D01*
X112265113Y-56731736D01*
X112228971Y-56934633D01*
X112226091Y-57170339D01*
X112261747Y-57403349D01*
X112334980Y-57627407D01*
X112443825Y-57836496D01*
X112446928Y-57840629D01*
X112446930Y-57840632D01*
X112469026Y-57870061D01*
X112585358Y-58025000D01*
X112755777Y-58187857D01*
X112950508Y-58320693D01*
X112955192Y-58322867D01*
X112955195Y-58322869D01*
X113159628Y-58417764D01*
X113159633Y-58417766D01*
X113164319Y-58419941D01*
X113391468Y-58482935D01*
X113396605Y-58483484D01*
X113580563Y-58503144D01*
X113580571Y-58503144D01*
X113583898Y-58503500D01*
X114918757Y-58503500D01*
X114921330Y-58503288D01*
X114921341Y-58503288D01*
X115088779Y-58489522D01*
X115088785Y-58489521D01*
X115093930Y-58489098D01*
X115322551Y-58431673D01*
X115538723Y-58337678D01*
X115736641Y-58209640D01*
X115760581Y-58187857D01*
X115907167Y-58054473D01*
X115907168Y-58054471D01*
X115910989Y-58050995D01*
X115914188Y-58046944D01*
X115914192Y-58046940D01*
X116053883Y-57870061D01*
X116053885Y-57870057D01*
X116057085Y-57866006D01*
X116095192Y-57796975D01*
X116145624Y-57747006D01*
X116215067Y-57732234D01*
X116281472Y-57757350D01*
X116323757Y-57814381D01*
X116331500Y-57857870D01*
X116331500Y-61967182D01*
X116311498Y-62035303D01*
X116294595Y-62056277D01*
X114126278Y-64224595D01*
X114063966Y-64258620D01*
X114037183Y-64261500D01*
X62238623Y-64261500D01*
X62237853Y-64261498D01*
X62237037Y-64261493D01*
X62160279Y-64261024D01*
X62137918Y-64267415D01*
X62131847Y-64269150D01*
X62115085Y-64272728D01*
X62085813Y-64276920D01*
X62077645Y-64280634D01*
X62077644Y-64280634D01*
X62062438Y-64287548D01*
X62044914Y-64293996D01*
X62020229Y-64301051D01*
X62012635Y-64305843D01*
X62012632Y-64305844D01*
X61995220Y-64316830D01*
X61980137Y-64324969D01*
X61953218Y-64337208D01*
X61946416Y-64343069D01*
X61933765Y-64353970D01*
X61918761Y-64365073D01*
X61897042Y-64378776D01*
X61891103Y-64385501D01*
X61891099Y-64385504D01*
X61877468Y-64400938D01*
X61865276Y-64412982D01*
X61849673Y-64426427D01*
X61849671Y-64426430D01*
X61842873Y-64432287D01*
X61837993Y-64439816D01*
X61837992Y-64439817D01*
X61828906Y-64453835D01*
X61817615Y-64468709D01*
X61806569Y-64481217D01*
X61800622Y-64487951D01*
X61794312Y-64501391D01*
X61788058Y-64514711D01*
X61779737Y-64529691D01*
X61768529Y-64546983D01*
X61768527Y-64546988D01*
X61763648Y-64554515D01*
X61761078Y-64563108D01*
X61761076Y-64563113D01*
X61756289Y-64579120D01*
X61749628Y-64596564D01*
X61742533Y-64611676D01*
X61738719Y-64619800D01*
X61737338Y-64628667D01*
X61737338Y-64628668D01*
X61734170Y-64649015D01*
X61730387Y-64665732D01*
X61724485Y-64685466D01*
X61724484Y-64685472D01*
X61721914Y-64694066D01*
X61721859Y-64703037D01*
X61721859Y-64703038D01*
X61721704Y-64728497D01*
X61721671Y-64729289D01*
X61721500Y-64730386D01*
X61721500Y-64761377D01*
X61721498Y-64762147D01*
X61721024Y-64839721D01*
X61721408Y-64841065D01*
X61721500Y-64842410D01*
X61721500Y-67945500D01*
X61701498Y-68013621D01*
X61647842Y-68060114D01*
X61595500Y-68071500D01*
X61157494Y-68071500D01*
X61089373Y-68051498D01*
X61042880Y-67997842D01*
X61032776Y-67927568D01*
X61056668Y-67869935D01*
X61092215Y-67822505D01*
X61143345Y-67686116D01*
X61150100Y-67623934D01*
X61150100Y-65827666D01*
X61143345Y-65765484D01*
X61092215Y-65629095D01*
X61004861Y-65512539D01*
X60888305Y-65425185D01*
X60751916Y-65374055D01*
X60689734Y-65367300D01*
X58893466Y-65367300D01*
X58831284Y-65374055D01*
X58694895Y-65425185D01*
X58578339Y-65512539D01*
X58490985Y-65629095D01*
X58487833Y-65637503D01*
X58446519Y-65747707D01*
X58403877Y-65804471D01*
X58337316Y-65829171D01*
X58267967Y-65813963D01*
X58235343Y-65788276D01*
X58184751Y-65732675D01*
X58184742Y-65732666D01*
X58181270Y-65728851D01*
X58177219Y-65725652D01*
X58177215Y-65725648D01*
X58010014Y-65593600D01*
X58010010Y-65593598D01*
X58005959Y-65590398D01*
X58001435Y-65587901D01*
X58001431Y-65587898D01*
X57950208Y-65559622D01*
X57900236Y-65509190D01*
X57885100Y-65449313D01*
X57885100Y-63224900D01*
X57905102Y-63156779D01*
X57957851Y-63110705D01*
X58055758Y-63065051D01*
X58055764Y-63065048D01*
X58060749Y-63062723D01*
X58202458Y-62963497D01*
X58243789Y-62934557D01*
X58243794Y-62934553D01*
X58248300Y-62931398D01*
X58410198Y-62769500D01*
X58541523Y-62581949D01*
X58543846Y-62576967D01*
X58543849Y-62576962D01*
X58559805Y-62542743D01*
X58606722Y-62489458D01*
X58674999Y-62469997D01*
X58742959Y-62490539D01*
X58788195Y-62542743D01*
X58804151Y-62576962D01*
X58804154Y-62576967D01*
X58806477Y-62581949D01*
X58937802Y-62769500D01*
X59099700Y-62931398D01*
X59104206Y-62934553D01*
X59104211Y-62934557D01*
X59145542Y-62963497D01*
X59287251Y-63062723D01*
X59292233Y-63065046D01*
X59292238Y-63065049D01*
X59390149Y-63110705D01*
X59494757Y-63159484D01*
X59500065Y-63160906D01*
X59500067Y-63160907D01*
X59710598Y-63217319D01*
X59710600Y-63217319D01*
X59715913Y-63218743D01*
X59944000Y-63238698D01*
X60172087Y-63218743D01*
X60177400Y-63217319D01*
X60177402Y-63217319D01*
X60387933Y-63160907D01*
X60387935Y-63160906D01*
X60393243Y-63159484D01*
X60497851Y-63110705D01*
X60595762Y-63065049D01*
X60595767Y-63065046D01*
X60600749Y-63062723D01*
X60742458Y-62963497D01*
X60783789Y-62934557D01*
X60783794Y-62934553D01*
X60788300Y-62931398D01*
X60950198Y-62769500D01*
X61081523Y-62581949D01*
X61083846Y-62576967D01*
X61083849Y-62576962D01*
X61099805Y-62542743D01*
X61146722Y-62489458D01*
X61214999Y-62469997D01*
X61282959Y-62490539D01*
X61328195Y-62542743D01*
X61344151Y-62576962D01*
X61344154Y-62576967D01*
X61346477Y-62581949D01*
X61477802Y-62769500D01*
X61639700Y-62931398D01*
X61644206Y-62934553D01*
X61644211Y-62934557D01*
X61685542Y-62963497D01*
X61827251Y-63062723D01*
X61832233Y-63065046D01*
X61832238Y-63065049D01*
X61930149Y-63110705D01*
X62034757Y-63159484D01*
X62040065Y-63160906D01*
X62040067Y-63160907D01*
X62250598Y-63217319D01*
X62250600Y-63217319D01*
X62255913Y-63218743D01*
X62484000Y-63238698D01*
X62712087Y-63218743D01*
X62717400Y-63217319D01*
X62717402Y-63217319D01*
X62927933Y-63160907D01*
X62927935Y-63160906D01*
X62933243Y-63159484D01*
X63037851Y-63110705D01*
X63135762Y-63065049D01*
X63135767Y-63065046D01*
X63140749Y-63062723D01*
X63282458Y-62963497D01*
X63323789Y-62934557D01*
X63323794Y-62934553D01*
X63328300Y-62931398D01*
X63490198Y-62769500D01*
X63621523Y-62581949D01*
X63623846Y-62576967D01*
X63623849Y-62576962D01*
X63639805Y-62542743D01*
X63686722Y-62489458D01*
X63754999Y-62469997D01*
X63822959Y-62490539D01*
X63868195Y-62542743D01*
X63884151Y-62576962D01*
X63884154Y-62576967D01*
X63886477Y-62581949D01*
X64017802Y-62769500D01*
X64179700Y-62931398D01*
X64184206Y-62934553D01*
X64184211Y-62934557D01*
X64225542Y-62963497D01*
X64367251Y-63062723D01*
X64372233Y-63065046D01*
X64372238Y-63065049D01*
X64470149Y-63110705D01*
X64574757Y-63159484D01*
X64580065Y-63160906D01*
X64580067Y-63160907D01*
X64790598Y-63217319D01*
X64790600Y-63217319D01*
X64795913Y-63218743D01*
X65024000Y-63238698D01*
X65252087Y-63218743D01*
X65257400Y-63217319D01*
X65257402Y-63217319D01*
X65467933Y-63160907D01*
X65467935Y-63160906D01*
X65473243Y-63159484D01*
X65577851Y-63110705D01*
X65675762Y-63065049D01*
X65675767Y-63065046D01*
X65680749Y-63062723D01*
X65822458Y-62963497D01*
X65863789Y-62934557D01*
X65863794Y-62934553D01*
X65868300Y-62931398D01*
X66030198Y-62769500D01*
X66161523Y-62581949D01*
X66163846Y-62576967D01*
X66163849Y-62576962D01*
X66179805Y-62542743D01*
X66226722Y-62489458D01*
X66294999Y-62469997D01*
X66362959Y-62490539D01*
X66408195Y-62542743D01*
X66424151Y-62576962D01*
X66424154Y-62576967D01*
X66426477Y-62581949D01*
X66557802Y-62769500D01*
X66719700Y-62931398D01*
X66724206Y-62934553D01*
X66724211Y-62934557D01*
X66765542Y-62963497D01*
X66907251Y-63062723D01*
X66912233Y-63065046D01*
X66912238Y-63065049D01*
X67010149Y-63110705D01*
X67114757Y-63159484D01*
X67120065Y-63160906D01*
X67120067Y-63160907D01*
X67330598Y-63217319D01*
X67330600Y-63217319D01*
X67335913Y-63218743D01*
X67564000Y-63238698D01*
X67792087Y-63218743D01*
X67797400Y-63217319D01*
X67797402Y-63217319D01*
X68007933Y-63160907D01*
X68007935Y-63160906D01*
X68013243Y-63159484D01*
X68117851Y-63110705D01*
X68215762Y-63065049D01*
X68215767Y-63065046D01*
X68220749Y-63062723D01*
X68362458Y-62963497D01*
X68403789Y-62934557D01*
X68403794Y-62934553D01*
X68408300Y-62931398D01*
X68570198Y-62769500D01*
X68701523Y-62581949D01*
X68703846Y-62576967D01*
X68703849Y-62576962D01*
X68719805Y-62542743D01*
X68766722Y-62489458D01*
X68834999Y-62469997D01*
X68902959Y-62490539D01*
X68948195Y-62542743D01*
X68964151Y-62576962D01*
X68964154Y-62576967D01*
X68966477Y-62581949D01*
X69097802Y-62769500D01*
X69259700Y-62931398D01*
X69264206Y-62934553D01*
X69264211Y-62934557D01*
X69305542Y-62963497D01*
X69447251Y-63062723D01*
X69452233Y-63065046D01*
X69452238Y-63065049D01*
X69550149Y-63110705D01*
X69654757Y-63159484D01*
X69660065Y-63160906D01*
X69660067Y-63160907D01*
X69870598Y-63217319D01*
X69870600Y-63217319D01*
X69875913Y-63218743D01*
X70104000Y-63238698D01*
X70332087Y-63218743D01*
X70337400Y-63217319D01*
X70337402Y-63217319D01*
X70547933Y-63160907D01*
X70547935Y-63160906D01*
X70553243Y-63159484D01*
X70657851Y-63110705D01*
X70755762Y-63065049D01*
X70755767Y-63065046D01*
X70760749Y-63062723D01*
X70902458Y-62963497D01*
X70943789Y-62934557D01*
X70943794Y-62934553D01*
X70948300Y-62931398D01*
X71110198Y-62769500D01*
X71241523Y-62581949D01*
X71243846Y-62576967D01*
X71243849Y-62576962D01*
X71259805Y-62542743D01*
X71306722Y-62489458D01*
X71374999Y-62469997D01*
X71442959Y-62490539D01*
X71488195Y-62542743D01*
X71504151Y-62576962D01*
X71504154Y-62576967D01*
X71506477Y-62581949D01*
X71637802Y-62769500D01*
X71799700Y-62931398D01*
X71804206Y-62934553D01*
X71804211Y-62934557D01*
X71845542Y-62963497D01*
X71987251Y-63062723D01*
X71992233Y-63065046D01*
X71992238Y-63065049D01*
X72090149Y-63110705D01*
X72194757Y-63159484D01*
X72200065Y-63160906D01*
X72200067Y-63160907D01*
X72410598Y-63217319D01*
X72410600Y-63217319D01*
X72415913Y-63218743D01*
X72644000Y-63238698D01*
X72872087Y-63218743D01*
X72877400Y-63217319D01*
X72877402Y-63217319D01*
X73087933Y-63160907D01*
X73087935Y-63160906D01*
X73093243Y-63159484D01*
X73197851Y-63110705D01*
X73295762Y-63065049D01*
X73295767Y-63065046D01*
X73300749Y-63062723D01*
X73442458Y-62963497D01*
X73483789Y-62934557D01*
X73483794Y-62934553D01*
X73488300Y-62931398D01*
X73650198Y-62769500D01*
X73781523Y-62581949D01*
X73783846Y-62576967D01*
X73783849Y-62576962D01*
X73799805Y-62542743D01*
X73846722Y-62489458D01*
X73914999Y-62469997D01*
X73982959Y-62490539D01*
X74028195Y-62542743D01*
X74044151Y-62576962D01*
X74044154Y-62576967D01*
X74046477Y-62581949D01*
X74177802Y-62769500D01*
X74339700Y-62931398D01*
X74344206Y-62934553D01*
X74344211Y-62934557D01*
X74385542Y-62963497D01*
X74527251Y-63062723D01*
X74532233Y-63065046D01*
X74532238Y-63065049D01*
X74630149Y-63110705D01*
X74734757Y-63159484D01*
X74740065Y-63160906D01*
X74740067Y-63160907D01*
X74950598Y-63217319D01*
X74950600Y-63217319D01*
X74955913Y-63218743D01*
X75184000Y-63238698D01*
X75412087Y-63218743D01*
X75417400Y-63217319D01*
X75417402Y-63217319D01*
X75627933Y-63160907D01*
X75627935Y-63160906D01*
X75633243Y-63159484D01*
X75737851Y-63110705D01*
X75835762Y-63065049D01*
X75835767Y-63065046D01*
X75840749Y-63062723D01*
X75982458Y-62963497D01*
X76023789Y-62934557D01*
X76023794Y-62934553D01*
X76028300Y-62931398D01*
X76190198Y-62769500D01*
X76321523Y-62581949D01*
X76323846Y-62576967D01*
X76323849Y-62576962D01*
X76339805Y-62542743D01*
X76386722Y-62489458D01*
X76454999Y-62469997D01*
X76522959Y-62490539D01*
X76568195Y-62542743D01*
X76584151Y-62576962D01*
X76584154Y-62576967D01*
X76586477Y-62581949D01*
X76717802Y-62769500D01*
X76879700Y-62931398D01*
X76884206Y-62934553D01*
X76884211Y-62934557D01*
X76925542Y-62963497D01*
X77067251Y-63062723D01*
X77072233Y-63065046D01*
X77072238Y-63065049D01*
X77170149Y-63110705D01*
X77274757Y-63159484D01*
X77280065Y-63160906D01*
X77280067Y-63160907D01*
X77490598Y-63217319D01*
X77490600Y-63217319D01*
X77495913Y-63218743D01*
X77724000Y-63238698D01*
X77952087Y-63218743D01*
X77957400Y-63217319D01*
X77957402Y-63217319D01*
X78167933Y-63160907D01*
X78167935Y-63160906D01*
X78173243Y-63159484D01*
X78277851Y-63110705D01*
X78375762Y-63065049D01*
X78375767Y-63065046D01*
X78380749Y-63062723D01*
X78522458Y-62963497D01*
X78563789Y-62934557D01*
X78563794Y-62934553D01*
X78568300Y-62931398D01*
X78730198Y-62769500D01*
X78861523Y-62581949D01*
X78863846Y-62576967D01*
X78863849Y-62576962D01*
X78879805Y-62542743D01*
X78926722Y-62489458D01*
X78994999Y-62469997D01*
X79062959Y-62490539D01*
X79108195Y-62542743D01*
X79124151Y-62576962D01*
X79124154Y-62576967D01*
X79126477Y-62581949D01*
X79257802Y-62769500D01*
X79419700Y-62931398D01*
X79424206Y-62934553D01*
X79424211Y-62934557D01*
X79465542Y-62963497D01*
X79607251Y-63062723D01*
X79612233Y-63065046D01*
X79612238Y-63065049D01*
X79710149Y-63110705D01*
X79814757Y-63159484D01*
X79820065Y-63160906D01*
X79820067Y-63160907D01*
X80030598Y-63217319D01*
X80030600Y-63217319D01*
X80035913Y-63218743D01*
X80264000Y-63238698D01*
X80492087Y-63218743D01*
X80497400Y-63217319D01*
X80497402Y-63217319D01*
X80707933Y-63160907D01*
X80707935Y-63160906D01*
X80713243Y-63159484D01*
X80817851Y-63110705D01*
X80915762Y-63065049D01*
X80915767Y-63065046D01*
X80920749Y-63062723D01*
X81062458Y-62963497D01*
X81103789Y-62934557D01*
X81103794Y-62934553D01*
X81108300Y-62931398D01*
X81270198Y-62769500D01*
X81401523Y-62581949D01*
X81403846Y-62576967D01*
X81403849Y-62576962D01*
X81419805Y-62542743D01*
X81466722Y-62489458D01*
X81534999Y-62469997D01*
X81602959Y-62490539D01*
X81648195Y-62542743D01*
X81664151Y-62576962D01*
X81664154Y-62576967D01*
X81666477Y-62581949D01*
X81797802Y-62769500D01*
X81959700Y-62931398D01*
X81964206Y-62934553D01*
X81964211Y-62934557D01*
X82005542Y-62963497D01*
X82147251Y-63062723D01*
X82152233Y-63065046D01*
X82152238Y-63065049D01*
X82250149Y-63110705D01*
X82354757Y-63159484D01*
X82360065Y-63160906D01*
X82360067Y-63160907D01*
X82570598Y-63217319D01*
X82570600Y-63217319D01*
X82575913Y-63218743D01*
X82804000Y-63238698D01*
X83032087Y-63218743D01*
X83037400Y-63217319D01*
X83037402Y-63217319D01*
X83247933Y-63160907D01*
X83247935Y-63160906D01*
X83253243Y-63159484D01*
X83357851Y-63110705D01*
X83455762Y-63065049D01*
X83455767Y-63065046D01*
X83460749Y-63062723D01*
X83602458Y-62963497D01*
X83643789Y-62934557D01*
X83643794Y-62934553D01*
X83648300Y-62931398D01*
X83810198Y-62769500D01*
X83941523Y-62581949D01*
X83943846Y-62576967D01*
X83943849Y-62576962D01*
X83959805Y-62542743D01*
X84006722Y-62489458D01*
X84074999Y-62469997D01*
X84142959Y-62490539D01*
X84188195Y-62542743D01*
X84204151Y-62576962D01*
X84204154Y-62576967D01*
X84206477Y-62581949D01*
X84337802Y-62769500D01*
X84499700Y-62931398D01*
X84504206Y-62934553D01*
X84504211Y-62934557D01*
X84545542Y-62963497D01*
X84687251Y-63062723D01*
X84692233Y-63065046D01*
X84692238Y-63065049D01*
X84790149Y-63110705D01*
X84894757Y-63159484D01*
X84900065Y-63160906D01*
X84900067Y-63160907D01*
X85110598Y-63217319D01*
X85110600Y-63217319D01*
X85115913Y-63218743D01*
X85344000Y-63238698D01*
X85572087Y-63218743D01*
X85577400Y-63217319D01*
X85577402Y-63217319D01*
X85787933Y-63160907D01*
X85787935Y-63160906D01*
X85793243Y-63159484D01*
X85897851Y-63110705D01*
X85995762Y-63065049D01*
X85995767Y-63065046D01*
X86000749Y-63062723D01*
X86142458Y-62963497D01*
X86183789Y-62934557D01*
X86183794Y-62934553D01*
X86188300Y-62931398D01*
X86350198Y-62769500D01*
X86481523Y-62581949D01*
X86483846Y-62576967D01*
X86483849Y-62576962D01*
X86575961Y-62379425D01*
X86575961Y-62379424D01*
X86578284Y-62374443D01*
X86587429Y-62340316D01*
X86636119Y-62158602D01*
X86636119Y-62158600D01*
X86637543Y-62153287D01*
X86657498Y-61925200D01*
X86637543Y-61697113D01*
X86578284Y-61475957D01*
X86499805Y-61307657D01*
X86483849Y-61273438D01*
X86483846Y-61273433D01*
X86481523Y-61268451D01*
X86350198Y-61080900D01*
X86188300Y-60919002D01*
X86183792Y-60915845D01*
X86183789Y-60915843D01*
X86105611Y-60861102D01*
X86000749Y-60787677D01*
X85995767Y-60785354D01*
X85995762Y-60785351D01*
X85798225Y-60693239D01*
X85798224Y-60693239D01*
X85793243Y-60690916D01*
X85787935Y-60689494D01*
X85787933Y-60689493D01*
X85577402Y-60633081D01*
X85577400Y-60633081D01*
X85572087Y-60631657D01*
X85344000Y-60611702D01*
X85115913Y-60631657D01*
X85110600Y-60633081D01*
X85110598Y-60633081D01*
X84900067Y-60689493D01*
X84900065Y-60689494D01*
X84894757Y-60690916D01*
X84889776Y-60693239D01*
X84889775Y-60693239D01*
X84692238Y-60785351D01*
X84692233Y-60785354D01*
X84687251Y-60787677D01*
X84582389Y-60861102D01*
X84504211Y-60915843D01*
X84504208Y-60915845D01*
X84499700Y-60919002D01*
X84337802Y-61080900D01*
X84206477Y-61268451D01*
X84204154Y-61273433D01*
X84204151Y-61273438D01*
X84188195Y-61307657D01*
X84141278Y-61360942D01*
X84073001Y-61380403D01*
X84005041Y-61359861D01*
X83959805Y-61307657D01*
X83943849Y-61273438D01*
X83943846Y-61273433D01*
X83941523Y-61268451D01*
X83810198Y-61080900D01*
X83648300Y-60919002D01*
X83643792Y-60915845D01*
X83643789Y-60915843D01*
X83565611Y-60861102D01*
X83460749Y-60787677D01*
X83455767Y-60785354D01*
X83455762Y-60785351D01*
X83258225Y-60693239D01*
X83258224Y-60693239D01*
X83253243Y-60690916D01*
X83247935Y-60689494D01*
X83247933Y-60689493D01*
X83037402Y-60633081D01*
X83037400Y-60633081D01*
X83032087Y-60631657D01*
X82804000Y-60611702D01*
X82575913Y-60631657D01*
X82570600Y-60633081D01*
X82570598Y-60633081D01*
X82360067Y-60689493D01*
X82360065Y-60689494D01*
X82354757Y-60690916D01*
X82349776Y-60693239D01*
X82349775Y-60693239D01*
X82152238Y-60785351D01*
X82152233Y-60785354D01*
X82147251Y-60787677D01*
X82042389Y-60861102D01*
X81964211Y-60915843D01*
X81964208Y-60915845D01*
X81959700Y-60919002D01*
X81797802Y-61080900D01*
X81666477Y-61268451D01*
X81664154Y-61273433D01*
X81664151Y-61273438D01*
X81648195Y-61307657D01*
X81601278Y-61360942D01*
X81533001Y-61380403D01*
X81465041Y-61359861D01*
X81419805Y-61307657D01*
X81403849Y-61273438D01*
X81403846Y-61273433D01*
X81401523Y-61268451D01*
X81270198Y-61080900D01*
X81108300Y-60919002D01*
X81103792Y-60915845D01*
X81103789Y-60915843D01*
X81025611Y-60861102D01*
X80920749Y-60787677D01*
X80915767Y-60785354D01*
X80915762Y-60785351D01*
X80718225Y-60693239D01*
X80718224Y-60693239D01*
X80713243Y-60690916D01*
X80707935Y-60689494D01*
X80707933Y-60689493D01*
X80497402Y-60633081D01*
X80497400Y-60633081D01*
X80492087Y-60631657D01*
X80264000Y-60611702D01*
X80035913Y-60631657D01*
X80030600Y-60633081D01*
X80030598Y-60633081D01*
X79820067Y-60689493D01*
X79820065Y-60689494D01*
X79814757Y-60690916D01*
X79809776Y-60693239D01*
X79809775Y-60693239D01*
X79612238Y-60785351D01*
X79612233Y-60785354D01*
X79607251Y-60787677D01*
X79502389Y-60861102D01*
X79424211Y-60915843D01*
X79424208Y-60915845D01*
X79419700Y-60919002D01*
X79257802Y-61080900D01*
X79126477Y-61268451D01*
X79124154Y-61273433D01*
X79124151Y-61273438D01*
X79108195Y-61307657D01*
X79061278Y-61360942D01*
X78993001Y-61380403D01*
X78925041Y-61359861D01*
X78879805Y-61307657D01*
X78863849Y-61273438D01*
X78863846Y-61273433D01*
X78861523Y-61268451D01*
X78730198Y-61080900D01*
X78568300Y-60919002D01*
X78563792Y-60915845D01*
X78563789Y-60915843D01*
X78485611Y-60861102D01*
X78380749Y-60787677D01*
X78375767Y-60785354D01*
X78375762Y-60785351D01*
X78178225Y-60693239D01*
X78178224Y-60693239D01*
X78173243Y-60690916D01*
X78167935Y-60689494D01*
X78167933Y-60689493D01*
X77957402Y-60633081D01*
X77957400Y-60633081D01*
X77952087Y-60631657D01*
X77724000Y-60611702D01*
X77495913Y-60631657D01*
X77490600Y-60633081D01*
X77490598Y-60633081D01*
X77280067Y-60689493D01*
X77280065Y-60689494D01*
X77274757Y-60690916D01*
X77269776Y-60693239D01*
X77269775Y-60693239D01*
X77072238Y-60785351D01*
X77072233Y-60785354D01*
X77067251Y-60787677D01*
X76962389Y-60861102D01*
X76884211Y-60915843D01*
X76884208Y-60915845D01*
X76879700Y-60919002D01*
X76717802Y-61080900D01*
X76586477Y-61268451D01*
X76584154Y-61273433D01*
X76584151Y-61273438D01*
X76568195Y-61307657D01*
X76521278Y-61360942D01*
X76453001Y-61380403D01*
X76385041Y-61359861D01*
X76339805Y-61307657D01*
X76323849Y-61273438D01*
X76323846Y-61273433D01*
X76321523Y-61268451D01*
X76190198Y-61080900D01*
X76028300Y-60919002D01*
X76023792Y-60915845D01*
X76023789Y-60915843D01*
X75945611Y-60861102D01*
X75840749Y-60787677D01*
X75835767Y-60785354D01*
X75835762Y-60785351D01*
X75638225Y-60693239D01*
X75638224Y-60693239D01*
X75633243Y-60690916D01*
X75627935Y-60689494D01*
X75627933Y-60689493D01*
X75417402Y-60633081D01*
X75417400Y-60633081D01*
X75412087Y-60631657D01*
X75184000Y-60611702D01*
X74955913Y-60631657D01*
X74950600Y-60633081D01*
X74950598Y-60633081D01*
X74740067Y-60689493D01*
X74740065Y-60689494D01*
X74734757Y-60690916D01*
X74729776Y-60693239D01*
X74729775Y-60693239D01*
X74532238Y-60785351D01*
X74532233Y-60785354D01*
X74527251Y-60787677D01*
X74422389Y-60861102D01*
X74344211Y-60915843D01*
X74344208Y-60915845D01*
X74339700Y-60919002D01*
X74177802Y-61080900D01*
X74046477Y-61268451D01*
X74044154Y-61273433D01*
X74044151Y-61273438D01*
X74028195Y-61307657D01*
X73981278Y-61360942D01*
X73913001Y-61380403D01*
X73845041Y-61359861D01*
X73799805Y-61307657D01*
X73783849Y-61273438D01*
X73783846Y-61273433D01*
X73781523Y-61268451D01*
X73650198Y-61080900D01*
X73488300Y-60919002D01*
X73483792Y-60915845D01*
X73483789Y-60915843D01*
X73405611Y-60861102D01*
X73300749Y-60787677D01*
X73295767Y-60785354D01*
X73295762Y-60785351D01*
X73098225Y-60693239D01*
X73098224Y-60693239D01*
X73093243Y-60690916D01*
X73087935Y-60689494D01*
X73087933Y-60689493D01*
X72877402Y-60633081D01*
X72877400Y-60633081D01*
X72872087Y-60631657D01*
X72644000Y-60611702D01*
X72415913Y-60631657D01*
X72410600Y-60633081D01*
X72410598Y-60633081D01*
X72200067Y-60689493D01*
X72200065Y-60689494D01*
X72194757Y-60690916D01*
X72189776Y-60693239D01*
X72189775Y-60693239D01*
X71992238Y-60785351D01*
X71992233Y-60785354D01*
X71987251Y-60787677D01*
X71882389Y-60861102D01*
X71804211Y-60915843D01*
X71804208Y-60915845D01*
X71799700Y-60919002D01*
X71637802Y-61080900D01*
X71506477Y-61268451D01*
X71504154Y-61273433D01*
X71504151Y-61273438D01*
X71488195Y-61307657D01*
X71441278Y-61360942D01*
X71373001Y-61380403D01*
X71305041Y-61359861D01*
X71259805Y-61307657D01*
X71243849Y-61273438D01*
X71243846Y-61273433D01*
X71241523Y-61268451D01*
X71110198Y-61080900D01*
X70948300Y-60919002D01*
X70943792Y-60915845D01*
X70943789Y-60915843D01*
X70865611Y-60861102D01*
X70760749Y-60787677D01*
X70755767Y-60785354D01*
X70755762Y-60785351D01*
X70558225Y-60693239D01*
X70558224Y-60693239D01*
X70553243Y-60690916D01*
X70547935Y-60689494D01*
X70547933Y-60689493D01*
X70337402Y-60633081D01*
X70337400Y-60633081D01*
X70332087Y-60631657D01*
X70104000Y-60611702D01*
X69875913Y-60631657D01*
X69870600Y-60633081D01*
X69870598Y-60633081D01*
X69660067Y-60689493D01*
X69660065Y-60689494D01*
X69654757Y-60690916D01*
X69649776Y-60693239D01*
X69649775Y-60693239D01*
X69452238Y-60785351D01*
X69452233Y-60785354D01*
X69447251Y-60787677D01*
X69342389Y-60861102D01*
X69264211Y-60915843D01*
X69264208Y-60915845D01*
X69259700Y-60919002D01*
X69097802Y-61080900D01*
X68966477Y-61268451D01*
X68964154Y-61273433D01*
X68964151Y-61273438D01*
X68948195Y-61307657D01*
X68901278Y-61360942D01*
X68833001Y-61380403D01*
X68765041Y-61359861D01*
X68719805Y-61307657D01*
X68703849Y-61273438D01*
X68703846Y-61273433D01*
X68701523Y-61268451D01*
X68570198Y-61080900D01*
X68408300Y-60919002D01*
X68403792Y-60915845D01*
X68403789Y-60915843D01*
X68325611Y-60861102D01*
X68220749Y-60787677D01*
X68215767Y-60785354D01*
X68215762Y-60785351D01*
X68018225Y-60693239D01*
X68018224Y-60693239D01*
X68013243Y-60690916D01*
X68007935Y-60689494D01*
X68007933Y-60689493D01*
X67797402Y-60633081D01*
X67797400Y-60633081D01*
X67792087Y-60631657D01*
X67564000Y-60611702D01*
X67335913Y-60631657D01*
X67330600Y-60633081D01*
X67330598Y-60633081D01*
X67120067Y-60689493D01*
X67120065Y-60689494D01*
X67114757Y-60690916D01*
X67109776Y-60693239D01*
X67109775Y-60693239D01*
X66912238Y-60785351D01*
X66912233Y-60785354D01*
X66907251Y-60787677D01*
X66802389Y-60861102D01*
X66724211Y-60915843D01*
X66724208Y-60915845D01*
X66719700Y-60919002D01*
X66557802Y-61080900D01*
X66426477Y-61268451D01*
X66424154Y-61273433D01*
X66424151Y-61273438D01*
X66408195Y-61307657D01*
X66361278Y-61360942D01*
X66293001Y-61380403D01*
X66225041Y-61359861D01*
X66179805Y-61307657D01*
X66163849Y-61273438D01*
X66163846Y-61273433D01*
X66161523Y-61268451D01*
X66030198Y-61080900D01*
X65868300Y-60919002D01*
X65863792Y-60915845D01*
X65863789Y-60915843D01*
X65785611Y-60861102D01*
X65680749Y-60787677D01*
X65675767Y-60785354D01*
X65675762Y-60785351D01*
X65478225Y-60693239D01*
X65478224Y-60693239D01*
X65473243Y-60690916D01*
X65467935Y-60689494D01*
X65467933Y-60689493D01*
X65257402Y-60633081D01*
X65257400Y-60633081D01*
X65252087Y-60631657D01*
X65024000Y-60611702D01*
X64795913Y-60631657D01*
X64790600Y-60633081D01*
X64790598Y-60633081D01*
X64580067Y-60689493D01*
X64580065Y-60689494D01*
X64574757Y-60690916D01*
X64569776Y-60693239D01*
X64569775Y-60693239D01*
X64372238Y-60785351D01*
X64372233Y-60785354D01*
X64367251Y-60787677D01*
X64262389Y-60861102D01*
X64184211Y-60915843D01*
X64184208Y-60915845D01*
X64179700Y-60919002D01*
X64017802Y-61080900D01*
X63886477Y-61268451D01*
X63884154Y-61273433D01*
X63884151Y-61273438D01*
X63868195Y-61307657D01*
X63821278Y-61360942D01*
X63753001Y-61380403D01*
X63685041Y-61359861D01*
X63639805Y-61307657D01*
X63623849Y-61273438D01*
X63623846Y-61273433D01*
X63621523Y-61268451D01*
X63490198Y-61080900D01*
X63328300Y-60919002D01*
X63323792Y-60915845D01*
X63323789Y-60915843D01*
X63245611Y-60861102D01*
X63140749Y-60787677D01*
X63135767Y-60785354D01*
X63135762Y-60785351D01*
X62938225Y-60693239D01*
X62938224Y-60693239D01*
X62933243Y-60690916D01*
X62927935Y-60689494D01*
X62927933Y-60689493D01*
X62717402Y-60633081D01*
X62717400Y-60633081D01*
X62712087Y-60631657D01*
X62484000Y-60611702D01*
X62255913Y-60631657D01*
X62250600Y-60633081D01*
X62250598Y-60633081D01*
X62040067Y-60689493D01*
X62040065Y-60689494D01*
X62034757Y-60690916D01*
X62029776Y-60693239D01*
X62029775Y-60693239D01*
X61832238Y-60785351D01*
X61832233Y-60785354D01*
X61827251Y-60787677D01*
X61722389Y-60861102D01*
X61644211Y-60915843D01*
X61644208Y-60915845D01*
X61639700Y-60919002D01*
X61477802Y-61080900D01*
X61346477Y-61268451D01*
X61344154Y-61273433D01*
X61344151Y-61273438D01*
X61328195Y-61307657D01*
X61281278Y-61360942D01*
X61213001Y-61380403D01*
X61145041Y-61359861D01*
X61099805Y-61307657D01*
X61083849Y-61273438D01*
X61083846Y-61273433D01*
X61081523Y-61268451D01*
X60950198Y-61080900D01*
X60788300Y-60919002D01*
X60783792Y-60915845D01*
X60783789Y-60915843D01*
X60705611Y-60861102D01*
X60600749Y-60787677D01*
X60595767Y-60785354D01*
X60595762Y-60785351D01*
X60398225Y-60693239D01*
X60398224Y-60693239D01*
X60393243Y-60690916D01*
X60387935Y-60689494D01*
X60387933Y-60689493D01*
X60177402Y-60633081D01*
X60177400Y-60633081D01*
X60172087Y-60631657D01*
X59944000Y-60611702D01*
X59715913Y-60631657D01*
X59710600Y-60633081D01*
X59710598Y-60633081D01*
X59500067Y-60689493D01*
X59500065Y-60689494D01*
X59494757Y-60690916D01*
X59489776Y-60693239D01*
X59489775Y-60693239D01*
X59292238Y-60785351D01*
X59292233Y-60785354D01*
X59287251Y-60787677D01*
X59182389Y-60861102D01*
X59104211Y-60915843D01*
X59104208Y-60915845D01*
X59099700Y-60919002D01*
X58937802Y-61080900D01*
X58806477Y-61268451D01*
X58804154Y-61273433D01*
X58804151Y-61273438D01*
X58788195Y-61307657D01*
X58741278Y-61360942D01*
X58673001Y-61380403D01*
X58605041Y-61359861D01*
X58559805Y-61307657D01*
X58543849Y-61273438D01*
X58543846Y-61273433D01*
X58541523Y-61268451D01*
X58410198Y-61080900D01*
X58248300Y-60919002D01*
X58243792Y-60915845D01*
X58243789Y-60915843D01*
X58165611Y-60861102D01*
X58060749Y-60787677D01*
X58055767Y-60785354D01*
X58055762Y-60785351D01*
X57858225Y-60693239D01*
X57858224Y-60693239D01*
X57853243Y-60690916D01*
X57847935Y-60689494D01*
X57847933Y-60689493D01*
X57637402Y-60633081D01*
X57637400Y-60633081D01*
X57632087Y-60631657D01*
X57404000Y-60611702D01*
X57175913Y-60631657D01*
X57170600Y-60633081D01*
X57170598Y-60633081D01*
X56960067Y-60689493D01*
X56960065Y-60689494D01*
X56954757Y-60690916D01*
X56949776Y-60693239D01*
X56949775Y-60693239D01*
X56752238Y-60785351D01*
X56752233Y-60785354D01*
X56747251Y-60787677D01*
X56642389Y-60861102D01*
X56564211Y-60915843D01*
X56564208Y-60915845D01*
X56559700Y-60919002D01*
X56397802Y-61080900D01*
X56266477Y-61268451D01*
X56264154Y-61273433D01*
X56264151Y-61273438D01*
X56248195Y-61307657D01*
X56201278Y-61360942D01*
X56133001Y-61380403D01*
X56065041Y-61359861D01*
X56019805Y-61307657D01*
X56003849Y-61273438D01*
X56003846Y-61273433D01*
X56001523Y-61268451D01*
X55870198Y-61080900D01*
X55708300Y-60919002D01*
X55703792Y-60915845D01*
X55703789Y-60915843D01*
X55625611Y-60861102D01*
X55520749Y-60787677D01*
X55515767Y-60785354D01*
X55515762Y-60785351D01*
X55318225Y-60693239D01*
X55318224Y-60693239D01*
X55313243Y-60690916D01*
X55307935Y-60689494D01*
X55307933Y-60689493D01*
X55097402Y-60633081D01*
X55097400Y-60633081D01*
X55092087Y-60631657D01*
X54864000Y-60611702D01*
X54635913Y-60631657D01*
X54630600Y-60633081D01*
X54630598Y-60633081D01*
X54420067Y-60689493D01*
X54420065Y-60689494D01*
X54414757Y-60690916D01*
X54409776Y-60693239D01*
X54409775Y-60693239D01*
X54212238Y-60785351D01*
X54212233Y-60785354D01*
X54207251Y-60787677D01*
X54102389Y-60861102D01*
X54024211Y-60915843D01*
X54024208Y-60915845D01*
X54019700Y-60919002D01*
X53857802Y-61080900D01*
X53726477Y-61268451D01*
X53724154Y-61273433D01*
X53724151Y-61273438D01*
X53708195Y-61307657D01*
X53661278Y-61360942D01*
X53593001Y-61380403D01*
X53525041Y-61359861D01*
X53479805Y-61307657D01*
X53463849Y-61273438D01*
X53463846Y-61273433D01*
X53461523Y-61268451D01*
X53330198Y-61080900D01*
X53168300Y-60919002D01*
X53163792Y-60915845D01*
X53163789Y-60915843D01*
X53085611Y-60861102D01*
X52980749Y-60787677D01*
X52975767Y-60785354D01*
X52975762Y-60785351D01*
X52778225Y-60693239D01*
X52778224Y-60693239D01*
X52773243Y-60690916D01*
X52767935Y-60689494D01*
X52767933Y-60689493D01*
X52557402Y-60633081D01*
X52557400Y-60633081D01*
X52552087Y-60631657D01*
X52324000Y-60611702D01*
X52095913Y-60631657D01*
X52090600Y-60633081D01*
X52090598Y-60633081D01*
X51880067Y-60689493D01*
X51880065Y-60689494D01*
X51874757Y-60690916D01*
X51869776Y-60693239D01*
X51869775Y-60693239D01*
X51672238Y-60785351D01*
X51672233Y-60785354D01*
X51667251Y-60787677D01*
X51562389Y-60861102D01*
X51484211Y-60915843D01*
X51484208Y-60915845D01*
X51479700Y-60919002D01*
X51317802Y-61080900D01*
X51186477Y-61268451D01*
X51184154Y-61273433D01*
X51184151Y-61273438D01*
X51168195Y-61307657D01*
X51089716Y-61475957D01*
X51030457Y-61697113D01*
X51010502Y-61925200D01*
X51030457Y-62153287D01*
X51031881Y-62158600D01*
X51031881Y-62158602D01*
X51080572Y-62340316D01*
X51089716Y-62374443D01*
X51092039Y-62379424D01*
X51092039Y-62379425D01*
X51184151Y-62576962D01*
X51184154Y-62576967D01*
X51186477Y-62581949D01*
X51317802Y-62769500D01*
X51479700Y-62931398D01*
X51484206Y-62934553D01*
X51484211Y-62934557D01*
X51525542Y-62963497D01*
X51667251Y-63062723D01*
X51672233Y-63065046D01*
X51672238Y-63065049D01*
X51770149Y-63110705D01*
X51874757Y-63159484D01*
X51880065Y-63160906D01*
X51880067Y-63160907D01*
X52090598Y-63217319D01*
X52090600Y-63217319D01*
X52095913Y-63218743D01*
X52324000Y-63238698D01*
X52552087Y-63218743D01*
X52557400Y-63217319D01*
X52557402Y-63217319D01*
X52767933Y-63160907D01*
X52767935Y-63160906D01*
X52773243Y-63159484D01*
X52877851Y-63110705D01*
X52975762Y-63065049D01*
X52975767Y-63065046D01*
X52980749Y-63062723D01*
X53122458Y-62963497D01*
X53163789Y-62934557D01*
X53163794Y-62934553D01*
X53168300Y-62931398D01*
X53330198Y-62769500D01*
X53461523Y-62581949D01*
X53463846Y-62576967D01*
X53463849Y-62576962D01*
X53479805Y-62542743D01*
X53526722Y-62489458D01*
X53594999Y-62469997D01*
X53662959Y-62490539D01*
X53708195Y-62542743D01*
X53724151Y-62576962D01*
X53724154Y-62576967D01*
X53726477Y-62581949D01*
X53857802Y-62769500D01*
X54019700Y-62931398D01*
X54024372Y-62934669D01*
X54024426Y-62934737D01*
X54028422Y-62938090D01*
X54027748Y-62938893D01*
X54068699Y-62990126D01*
X54078100Y-63037881D01*
X54078100Y-65447492D01*
X54058098Y-65515613D01*
X54010283Y-65559253D01*
X53985207Y-65572307D01*
X53981074Y-65575410D01*
X53981071Y-65575412D01*
X53810700Y-65703330D01*
X53806565Y-65706435D01*
X53767125Y-65747707D01*
X53712880Y-65804471D01*
X53652229Y-65867938D01*
X53544801Y-66025421D01*
X53489893Y-66070421D01*
X53419368Y-66078592D01*
X53355621Y-66047338D01*
X53334924Y-66022854D01*
X53254422Y-65898417D01*
X53254420Y-65898414D01*
X53251614Y-65894077D01*
X53101270Y-65728851D01*
X53097219Y-65725652D01*
X53097215Y-65725648D01*
X52930014Y-65593600D01*
X52930010Y-65593598D01*
X52925959Y-65590398D01*
X52921431Y-65587898D01*
X52805588Y-65523950D01*
X52730389Y-65482438D01*
X52725520Y-65480714D01*
X52725516Y-65480712D01*
X52524687Y-65409595D01*
X52524683Y-65409594D01*
X52519812Y-65407869D01*
X52514719Y-65406962D01*
X52514716Y-65406961D01*
X52304973Y-65369600D01*
X52304967Y-65369599D01*
X52299884Y-65368694D01*
X52226052Y-65367792D01*
X52081681Y-65366028D01*
X52081679Y-65366028D01*
X52076511Y-65365965D01*
X51855691Y-65399755D01*
X51643356Y-65469157D01*
X51613043Y-65484937D01*
X51469575Y-65559622D01*
X51445207Y-65572307D01*
X51441074Y-65575410D01*
X51441071Y-65575412D01*
X51270700Y-65703330D01*
X51266565Y-65706435D01*
X51227125Y-65747707D01*
X51172880Y-65804471D01*
X51112229Y-65867938D01*
X50986343Y-66052480D01*
X50892288Y-66255105D01*
X50832589Y-66470370D01*
X50808851Y-66692495D01*
X50821710Y-66915515D01*
X50822847Y-66920561D01*
X50822848Y-66920567D01*
X50846904Y-67027308D01*
X50870822Y-67133439D01*
X50954866Y-67340416D01*
X50992285Y-67401478D01*
X51068891Y-67526488D01*
X51071587Y-67530888D01*
X51217850Y-67699738D01*
X51389726Y-67842432D01*
X51390942Y-67843142D01*
X51434586Y-67897744D01*
X51441895Y-67968363D01*
X51409865Y-68031724D01*
X51348663Y-68067709D01*
X51317987Y-68071500D01*
X50164500Y-68071500D01*
X50096379Y-68051498D01*
X50049886Y-67997842D01*
X50038500Y-67945500D01*
X50038500Y-64778623D01*
X50038502Y-64777853D01*
X50038800Y-64729102D01*
X50038976Y-64700279D01*
X50030850Y-64671847D01*
X50027272Y-64655085D01*
X50024352Y-64634698D01*
X50023080Y-64625813D01*
X50012451Y-64602436D01*
X50006004Y-64584913D01*
X50001416Y-64568862D01*
X49998949Y-64560229D01*
X49994156Y-64552632D01*
X49983170Y-64535220D01*
X49975030Y-64520135D01*
X49972564Y-64514711D01*
X49962792Y-64493218D01*
X49946030Y-64473765D01*
X49934927Y-64458761D01*
X49921224Y-64437042D01*
X49914499Y-64431103D01*
X49914496Y-64431099D01*
X49899062Y-64417468D01*
X49887018Y-64405276D01*
X49873573Y-64389673D01*
X49873570Y-64389671D01*
X49867713Y-64382873D01*
X49854009Y-64373990D01*
X49846165Y-64368906D01*
X49831291Y-64357615D01*
X49818783Y-64346569D01*
X49818782Y-64346568D01*
X49812049Y-64340622D01*
X49785287Y-64328057D01*
X49770309Y-64319737D01*
X49753017Y-64308529D01*
X49753012Y-64308527D01*
X49745485Y-64303648D01*
X49736892Y-64301078D01*
X49736887Y-64301076D01*
X49720880Y-64296289D01*
X49703436Y-64289628D01*
X49688324Y-64282533D01*
X49688322Y-64282532D01*
X49680200Y-64278719D01*
X49671333Y-64277338D01*
X49671332Y-64277338D01*
X49660478Y-64275648D01*
X49650983Y-64274170D01*
X49634268Y-64270387D01*
X49614534Y-64264485D01*
X49614528Y-64264484D01*
X49605934Y-64261914D01*
X49596963Y-64261859D01*
X49596962Y-64261859D01*
X49586903Y-64261798D01*
X49571494Y-64261704D01*
X49570711Y-64261671D01*
X49569614Y-64261500D01*
X49538623Y-64261500D01*
X49537853Y-64261498D01*
X49464215Y-64261048D01*
X49464214Y-64261048D01*
X49460279Y-64261024D01*
X49458935Y-64261408D01*
X49457590Y-64261500D01*
X48894500Y-64261500D01*
X48826379Y-64241498D01*
X48779886Y-64187842D01*
X48768500Y-64135500D01*
X48768500Y-37092817D01*
X48788502Y-37024696D01*
X48805405Y-37003722D01*
X49703722Y-36105405D01*
X49766034Y-36071379D01*
X49792817Y-36068500D01*
X99051377Y-36068500D01*
X99052148Y-36068502D01*
X99129721Y-36068976D01*
X99158152Y-36060850D01*
X99174915Y-36057272D01*
X99204187Y-36053080D01*
X99227564Y-36042451D01*
X99245087Y-36036004D01*
X99269771Y-36028949D01*
X99277365Y-36024157D01*
X99277368Y-36024156D01*
X99294780Y-36013170D01*
X99309865Y-36005030D01*
X99336782Y-35992792D01*
X99356235Y-35976030D01*
X99371239Y-35964927D01*
X99392958Y-35951224D01*
X99398897Y-35944499D01*
X99398901Y-35944496D01*
X99412532Y-35929062D01*
X99424724Y-35917018D01*
X99440327Y-35903573D01*
X99440329Y-35903570D01*
X99447127Y-35897713D01*
X99461094Y-35876165D01*
X99472385Y-35861291D01*
X99483431Y-35848783D01*
X99483432Y-35848782D01*
X99489378Y-35842049D01*
X99501943Y-35815287D01*
X99510263Y-35800309D01*
X99521471Y-35783017D01*
X99521473Y-35783012D01*
X99526352Y-35775485D01*
X99528922Y-35766892D01*
X99528924Y-35766887D01*
X99533711Y-35750880D01*
X99540372Y-35733436D01*
X99547467Y-35718323D01*
X99551281Y-35710200D01*
X99552662Y-35701332D01*
X99554571Y-35695088D01*
X99593615Y-35635792D01*
X99658520Y-35607018D01*
X99728677Y-35617902D01*
X99781813Y-35664988D01*
X99794830Y-35692782D01*
X99864980Y-35907407D01*
X99867370Y-35911998D01*
X99950339Y-36071379D01*
X99973825Y-36116496D01*
X99976928Y-36120629D01*
X99976930Y-36120632D01*
X100112253Y-36300865D01*
X100115358Y-36305000D01*
X100285777Y-36467857D01*
X100480508Y-36600693D01*
X100485192Y-36602867D01*
X100485195Y-36602869D01*
X100689628Y-36697764D01*
X100689633Y-36697766D01*
X100694319Y-36699941D01*
X100921468Y-36762935D01*
X100926605Y-36763484D01*
X101110563Y-36783144D01*
X101110571Y-36783144D01*
X101113898Y-36783500D01*
X102448757Y-36783500D01*
X102451330Y-36783288D01*
X102451341Y-36783288D01*
X102618779Y-36769522D01*
X102618785Y-36769521D01*
X102623930Y-36769098D01*
X102852551Y-36711673D01*
X103068723Y-36617678D01*
X103266641Y-36489640D01*
X103290581Y-36467857D01*
X103437167Y-36334473D01*
X103437168Y-36334471D01*
X103440989Y-36330995D01*
X103444188Y-36326944D01*
X103444192Y-36326940D01*
X103583883Y-36150061D01*
X103583885Y-36150057D01*
X103587085Y-36146006D01*
X103701005Y-35939639D01*
X103709016Y-35917018D01*
X103777965Y-35722311D01*
X103777966Y-35722307D01*
X103779691Y-35717436D01*
X103784083Y-35692782D01*
X103820123Y-35490456D01*
X103820124Y-35490450D01*
X103821029Y-35485367D01*
X103823909Y-35249661D01*
X103788253Y-35016651D01*
X103715020Y-34792593D01*
X103606175Y-34583504D01*
X103587415Y-34558517D01*
X103467747Y-34399135D01*
X103467745Y-34399132D01*
X103464642Y-34395000D01*
X103294223Y-34232143D01*
X103099492Y-34099307D01*
X103094808Y-34097133D01*
X103094805Y-34097131D01*
X102890372Y-34002236D01*
X102890367Y-34002234D01*
X102885681Y-34000059D01*
X102658532Y-33937065D01*
X102653395Y-33936516D01*
X102469437Y-33916856D01*
X102469429Y-33916856D01*
X102466102Y-33916500D01*
X101131243Y-33916500D01*
X101128670Y-33916712D01*
X101128659Y-33916712D01*
X100961221Y-33930478D01*
X100961215Y-33930479D01*
X100956070Y-33930902D01*
X100727449Y-33988327D01*
X100511277Y-34082322D01*
X100313359Y-34210360D01*
X100309536Y-34213839D01*
X100309533Y-34213841D01*
X100285495Y-34235714D01*
X100139011Y-34369005D01*
X100135812Y-34373056D01*
X100135808Y-34373060D01*
X99996117Y-34549939D01*
X99992915Y-34553994D01*
X99878995Y-34760361D01*
X99877271Y-34765230D01*
X99877269Y-34765234D01*
X99813273Y-34945955D01*
X99771679Y-35003491D01*
X99705581Y-35029407D01*
X99635965Y-35015473D01*
X99584934Y-34966114D01*
X99568500Y-34903895D01*
X99568500Y-30791388D01*
X99588502Y-30723267D01*
X99642158Y-30676774D01*
X99712432Y-30666670D01*
X99777012Y-30696164D01*
G37*
G04 #@! TD.AperFunction*
M02*
