M48
; DRILL file {KiCad 7.0.2-0} date 2023 June 19, Monday 13:03:09
; FORMAT={-:-/ absolute / inch / decimal}
; #@! TF.CreationDate,2023-06-19T13:03:09-04:00
; #@! TF.GenerationSoftware,Kicad,Pcbnew,7.0.2-0
; #@! TF.FileFunction,Plated,1,2,PTH
FMAT,2
INCH
; #@! TA.AperFunction,Plated,PTH,ViaDrill
T1C0.0157
; #@! TA.AperFunction,Plated,PTH,ComponentDrill
T2C0.0394
%
G90
G05
T1
X-1.0Y-0.12
X-0.997Y0.1429
X-0.94Y0.095
X-0.9349Y-0.3747
X-0.9326Y-0.1515
X-0.926Y0.3961
X-0.925Y-0.06
X-0.909Y0.1815
X-0.8834Y0.3351
X-0.878Y-0.2974
X-0.865Y0.07
X-0.8616Y-0.3877
X-0.8536Y-0.1563
X-0.8311Y0.4105
X-0.8174Y0.2915
X-0.806Y-0.6039
X-0.792Y0.6223
X-0.7841Y-0.3719
X-0.7711Y-0.5145
X-0.7666Y0.5523
X-0.7319Y-0.5975
X-0.7141Y0.4931
X-0.6965Y0.6116
X-0.6611Y-0.5621
X-0.6223Y-0.792
X-0.6116Y-0.6965
X-0.6039Y0.806
X-0.5975Y0.7319
X-0.5621Y0.6611
X-0.5523Y-0.7666
X-0.5145Y0.7711
X-0.4931Y-0.7141
X-0.4105Y-0.8311
X-0.3961Y-0.926
X-0.3877Y0.8616
X-0.3747Y0.9349
X-0.3719Y0.7841
X-0.3351Y-0.8834
X-0.2974Y0.878
X-0.2915Y-0.8174
X-0.1815Y-0.909
X-0.1563Y0.8536
X-0.1515Y0.9326
X-0.12Y1.0
X-0.12Y-0.28
X-0.1Y-0.02
X-0.095Y-0.94
X-0.07Y-0.865
X-0.06Y0.925
X0.06Y-0.925
X0.07Y0.865
X0.095Y0.94
X0.12Y-1.0
X0.1429Y0.997
X0.1515Y-0.9326
X0.1563Y-0.8536
X0.1815Y0.909
X0.275Y-0.25
X0.28Y-0.145
X0.2915Y0.8174
X0.2974Y-0.878
X0.3351Y0.8834
X0.36Y-0.09
X0.3719Y-0.7841
X0.3747Y-0.9349
X0.3877Y-0.8616
X0.3961Y0.926
X0.4105Y0.8311
X0.44Y-0.16
X0.4931Y0.7141
X0.5145Y-0.7711
X0.5523Y0.7666
X0.5621Y-0.6611
X0.5975Y-0.7319
X0.6039Y-0.806
X0.61Y-0.31
X0.6116Y0.6965
X0.6223Y0.792
X0.6611Y0.5621
X0.6965Y-0.6116
X0.7141Y-0.4931
X0.7319Y0.5975
X0.7666Y-0.5523
X0.7711Y0.5145
X0.7841Y0.3719
X0.792Y-0.6223
X0.806Y0.6039
X0.8174Y-0.2915
X0.8311Y-0.4105
X0.8536Y0.1563
X0.8616Y0.3877
X0.865Y-0.07
X0.878Y0.2974
X0.8834Y-0.3351
X0.909Y-0.1815
X0.925Y0.06
X0.926Y-0.3961
X0.9326Y0.1515
X0.9349Y0.3747
X0.94Y-0.095
X0.997Y-0.1429
X1.0Y0.12
T2
X-0.5Y0.4
X-0.5Y0.3
X-0.5Y0.2
X-0.5Y0.1
X-0.5Y0.0
X-0.5Y-0.1
X-0.5Y-0.2
X-0.5Y-0.3
X-0.5Y-0.4
X-0.2756Y0.1358
X-0.1969Y0.1358
X-0.1181Y0.1358
X-0.0394Y0.1358
X0.0394Y0.1358
X0.1181Y0.1358
X0.1969Y0.1358
X0.2756Y0.1358
X0.55Y0.1
T0
M30
