G04 #@! TF.GenerationSoftware,KiCad,Pcbnew,7.0.2-0*
G04 #@! TF.CreationDate,2023-06-19T13:03:14-04:00*
G04 #@! TF.ProjectId,speed_joystick,73706565-645f-46a6-9f79-737469636b2e,rev?*
G04 #@! TF.SameCoordinates,Original*
G04 #@! TF.FileFunction,Legend,Top*
G04 #@! TF.FilePolarity,Positive*
%FSLAX46Y46*%
G04 Gerber Fmt 4.6, Leading zero omitted, Abs format (unit mm)*
G04 Created by KiCad (PCBNEW 7.0.2-0) date 2023-06-19 13:03:14*
%MOMM*%
%LPD*%
G01*
G04 APERTURE LIST*
%ADD10C,0.150000*%
%ADD11C,0.152000*%
%ADD12C,0.120000*%
G04 APERTURE END LIST*
D10*
X-18811904Y-29642619D02*
X-18811904Y-30452142D01*
X-18811904Y-30452142D02*
X-18764285Y-30547380D01*
X-18764285Y-30547380D02*
X-18716666Y-30595000D01*
X-18716666Y-30595000D02*
X-18621428Y-30642619D01*
X-18621428Y-30642619D02*
X-18430952Y-30642619D01*
X-18430952Y-30642619D02*
X-18335714Y-30595000D01*
X-18335714Y-30595000D02*
X-18288095Y-30547380D01*
X-18288095Y-30547380D02*
X-18240476Y-30452142D01*
X-18240476Y-30452142D02*
X-18240476Y-29642619D01*
X-17859523Y-29642619D02*
X-17240476Y-29642619D01*
X-17240476Y-29642619D02*
X-17573809Y-30023571D01*
X-17573809Y-30023571D02*
X-17430952Y-30023571D01*
X-17430952Y-30023571D02*
X-17335714Y-30071190D01*
X-17335714Y-30071190D02*
X-17288095Y-30118809D01*
X-17288095Y-30118809D02*
X-17240476Y-30214047D01*
X-17240476Y-30214047D02*
X-17240476Y-30452142D01*
X-17240476Y-30452142D02*
X-17288095Y-30547380D01*
X-17288095Y-30547380D02*
X-17335714Y-30595000D01*
X-17335714Y-30595000D02*
X-17430952Y-30642619D01*
X-17430952Y-30642619D02*
X-17716666Y-30642619D01*
X-17716666Y-30642619D02*
X-17811904Y-30595000D01*
X-17811904Y-30595000D02*
X-17859523Y-30547380D01*
X-16192856Y-29642619D02*
X-15621428Y-29642619D01*
X-15907142Y-30642619D02*
X-15907142Y-29642619D01*
X-15383332Y-29642619D02*
X-14716666Y-30642619D01*
X-14716666Y-29642619D02*
X-15383332Y-30642619D01*
X-14383332Y-30595000D02*
X-14240475Y-30642619D01*
X-14240475Y-30642619D02*
X-14002380Y-30642619D01*
X-14002380Y-30642619D02*
X-13907142Y-30595000D01*
X-13907142Y-30595000D02*
X-13859523Y-30547380D01*
X-13859523Y-30547380D02*
X-13811904Y-30452142D01*
X-13811904Y-30452142D02*
X-13811904Y-30356904D01*
X-13811904Y-30356904D02*
X-13859523Y-30261666D01*
X-13859523Y-30261666D02*
X-13907142Y-30214047D01*
X-13907142Y-30214047D02*
X-14002380Y-30166428D01*
X-14002380Y-30166428D02*
X-14192856Y-30118809D01*
X-14192856Y-30118809D02*
X-14288094Y-30071190D01*
X-14288094Y-30071190D02*
X-14335713Y-30023571D01*
X-14335713Y-30023571D02*
X-14383332Y-29928333D01*
X-14383332Y-29928333D02*
X-14383332Y-29833095D01*
X-14383332Y-29833095D02*
X-14335713Y-29737857D01*
X-14335713Y-29737857D02*
X-14288094Y-29690238D01*
X-14288094Y-29690238D02*
X-14192856Y-29642619D01*
X-14192856Y-29642619D02*
X-13954761Y-29642619D01*
X-13954761Y-29642619D02*
X-13811904Y-29690238D01*
X-13192856Y-29642619D02*
X-13097618Y-29642619D01*
X-13097618Y-29642619D02*
X-13002380Y-29690238D01*
X-13002380Y-29690238D02*
X-12954761Y-29737857D01*
X-12954761Y-29737857D02*
X-12907142Y-29833095D01*
X-12907142Y-29833095D02*
X-12859523Y-30023571D01*
X-12859523Y-30023571D02*
X-12859523Y-30261666D01*
X-12859523Y-30261666D02*
X-12907142Y-30452142D01*
X-12907142Y-30452142D02*
X-12954761Y-30547380D01*
X-12954761Y-30547380D02*
X-13002380Y-30595000D01*
X-13002380Y-30595000D02*
X-13097618Y-30642619D01*
X-13097618Y-30642619D02*
X-13192856Y-30642619D01*
X-13192856Y-30642619D02*
X-13288094Y-30595000D01*
X-13288094Y-30595000D02*
X-13335713Y-30547380D01*
X-13335713Y-30547380D02*
X-13383332Y-30452142D01*
X-13383332Y-30452142D02*
X-13430951Y-30261666D01*
X-13430951Y-30261666D02*
X-13430951Y-30023571D01*
X-13430951Y-30023571D02*
X-13383332Y-29833095D01*
X-13383332Y-29833095D02*
X-13335713Y-29737857D01*
X-13335713Y-29737857D02*
X-13288094Y-29690238D01*
X-13288094Y-29690238D02*
X-13192856Y-29642619D01*
X-11907142Y-30642619D02*
X-12478570Y-30642619D01*
X-12192856Y-30642619D02*
X-12192856Y-29642619D01*
X-12192856Y-29642619D02*
X-12288094Y-29785476D01*
X-12288094Y-29785476D02*
X-12383332Y-29880714D01*
X-12383332Y-29880714D02*
X-12478570Y-29928333D01*
X-11288094Y-29642619D02*
X-11192856Y-29642619D01*
X-11192856Y-29642619D02*
X-11097618Y-29690238D01*
X-11097618Y-29690238D02*
X-11049999Y-29737857D01*
X-11049999Y-29737857D02*
X-11002380Y-29833095D01*
X-11002380Y-29833095D02*
X-10954761Y-30023571D01*
X-10954761Y-30023571D02*
X-10954761Y-30261666D01*
X-10954761Y-30261666D02*
X-11002380Y-30452142D01*
X-11002380Y-30452142D02*
X-11049999Y-30547380D01*
X-11049999Y-30547380D02*
X-11097618Y-30595000D01*
X-11097618Y-30595000D02*
X-11192856Y-30642619D01*
X-11192856Y-30642619D02*
X-11288094Y-30642619D01*
X-11288094Y-30642619D02*
X-11383332Y-30595000D01*
X-11383332Y-30595000D02*
X-11430951Y-30547380D01*
X-11430951Y-30547380D02*
X-11478570Y-30452142D01*
X-11478570Y-30452142D02*
X-11526189Y-30261666D01*
X-11526189Y-30261666D02*
X-11526189Y-30023571D01*
X-11526189Y-30023571D02*
X-11478570Y-29833095D01*
X-11478570Y-29833095D02*
X-11430951Y-29737857D01*
X-11430951Y-29737857D02*
X-11383332Y-29690238D01*
X-11383332Y-29690238D02*
X-11288094Y-29642619D01*
X-10383332Y-30071190D02*
X-10478570Y-30023571D01*
X-10478570Y-30023571D02*
X-10526189Y-29975952D01*
X-10526189Y-29975952D02*
X-10573808Y-29880714D01*
X-10573808Y-29880714D02*
X-10573808Y-29833095D01*
X-10573808Y-29833095D02*
X-10526189Y-29737857D01*
X-10526189Y-29737857D02*
X-10478570Y-29690238D01*
X-10478570Y-29690238D02*
X-10383332Y-29642619D01*
X-10383332Y-29642619D02*
X-10192856Y-29642619D01*
X-10192856Y-29642619D02*
X-10097618Y-29690238D01*
X-10097618Y-29690238D02*
X-10049999Y-29737857D01*
X-10049999Y-29737857D02*
X-10002380Y-29833095D01*
X-10002380Y-29833095D02*
X-10002380Y-29880714D01*
X-10002380Y-29880714D02*
X-10049999Y-29975952D01*
X-10049999Y-29975952D02*
X-10097618Y-30023571D01*
X-10097618Y-30023571D02*
X-10192856Y-30071190D01*
X-10192856Y-30071190D02*
X-10383332Y-30071190D01*
X-10383332Y-30071190D02*
X-10478570Y-30118809D01*
X-10478570Y-30118809D02*
X-10526189Y-30166428D01*
X-10526189Y-30166428D02*
X-10573808Y-30261666D01*
X-10573808Y-30261666D02*
X-10573808Y-30452142D01*
X-10573808Y-30452142D02*
X-10526189Y-30547380D01*
X-10526189Y-30547380D02*
X-10478570Y-30595000D01*
X-10478570Y-30595000D02*
X-10383332Y-30642619D01*
X-10383332Y-30642619D02*
X-10192856Y-30642619D01*
X-10192856Y-30642619D02*
X-10097618Y-30595000D01*
X-10097618Y-30595000D02*
X-10049999Y-30547380D01*
X-10049999Y-30547380D02*
X-10002380Y-30452142D01*
X-10002380Y-30452142D02*
X-10002380Y-30261666D01*
X-10002380Y-30261666D02*
X-10049999Y-30166428D01*
X-10049999Y-30166428D02*
X-10097618Y-30118809D01*
X-10097618Y-30118809D02*
X-10192856Y-30071190D01*
X-9573808Y-30118809D02*
X-9240475Y-30118809D01*
X-9097618Y-30642619D02*
X-9573808Y-30642619D01*
X-9573808Y-30642619D02*
X-9573808Y-29642619D01*
X-9573808Y-29642619D02*
X-9097618Y-29642619D01*
X-7954760Y-30356904D02*
X-7478570Y-30356904D01*
X-8049998Y-30642619D02*
X-7716665Y-29642619D01*
X-7716665Y-29642619D02*
X-7383332Y-30642619D01*
X-7049998Y-30642619D02*
X-7049998Y-29642619D01*
X-7049998Y-29642619D02*
X-6478570Y-30642619D01*
X-6478570Y-30642619D02*
X-6478570Y-29642619D01*
X-5478570Y-29690238D02*
X-5573808Y-29642619D01*
X-5573808Y-29642619D02*
X-5716665Y-29642619D01*
X-5716665Y-29642619D02*
X-5859522Y-29690238D01*
X-5859522Y-29690238D02*
X-5954760Y-29785476D01*
X-5954760Y-29785476D02*
X-6002379Y-29880714D01*
X-6002379Y-29880714D02*
X-6049998Y-30071190D01*
X-6049998Y-30071190D02*
X-6049998Y-30214047D01*
X-6049998Y-30214047D02*
X-6002379Y-30404523D01*
X-6002379Y-30404523D02*
X-5954760Y-30499761D01*
X-5954760Y-30499761D02*
X-5859522Y-30595000D01*
X-5859522Y-30595000D02*
X-5716665Y-30642619D01*
X-5716665Y-30642619D02*
X-5621427Y-30642619D01*
X-5621427Y-30642619D02*
X-5478570Y-30595000D01*
X-5478570Y-30595000D02*
X-5430951Y-30547380D01*
X-5430951Y-30547380D02*
X-5430951Y-30214047D01*
X-5430951Y-30214047D02*
X-5621427Y-30214047D01*
X-4526189Y-30642619D02*
X-5002379Y-30642619D01*
X-5002379Y-30642619D02*
X-5002379Y-29642619D01*
X-4192855Y-30118809D02*
X-3859522Y-30118809D01*
X-3716665Y-30642619D02*
X-4192855Y-30642619D01*
X-4192855Y-30642619D02*
X-4192855Y-29642619D01*
X-4192855Y-29642619D02*
X-3716665Y-29642619D01*
X-2526188Y-30118809D02*
X-1764284Y-30118809D01*
X-1764284Y-30404523D02*
X-2526188Y-30404523D01*
X-335712Y-29642619D02*
X-240474Y-29642619D01*
X-240474Y-29642619D02*
X-145236Y-29690238D01*
X-145236Y-29690238D02*
X-97617Y-29737857D01*
X-97617Y-29737857D02*
X-49998Y-29833095D01*
X-49998Y-29833095D02*
X-2379Y-30023571D01*
X-2379Y-30023571D02*
X-2379Y-30261666D01*
X-2379Y-30261666D02*
X-49998Y-30452142D01*
X-49998Y-30452142D02*
X-97617Y-30547380D01*
X-97617Y-30547380D02*
X-145236Y-30595000D01*
X-145236Y-30595000D02*
X-240474Y-30642619D01*
X-240474Y-30642619D02*
X-335712Y-30642619D01*
X-335712Y-30642619D02*
X-430950Y-30595000D01*
X-430950Y-30595000D02*
X-478569Y-30547380D01*
X-478569Y-30547380D02*
X-526188Y-30452142D01*
X-526188Y-30452142D02*
X-573807Y-30261666D01*
X-573807Y-30261666D02*
X-573807Y-30023571D01*
X-573807Y-30023571D02*
X-526188Y-29833095D01*
X-526188Y-29833095D02*
X-478569Y-29737857D01*
X-478569Y-29737857D02*
X-430950Y-29690238D01*
X-430950Y-29690238D02*
X-335712Y-29642619D01*
X-18811904Y-31262619D02*
X-18811904Y-32072142D01*
X-18811904Y-32072142D02*
X-18764285Y-32167380D01*
X-18764285Y-32167380D02*
X-18716666Y-32215000D01*
X-18716666Y-32215000D02*
X-18621428Y-32262619D01*
X-18621428Y-32262619D02*
X-18430952Y-32262619D01*
X-18430952Y-32262619D02*
X-18335714Y-32215000D01*
X-18335714Y-32215000D02*
X-18288095Y-32167380D01*
X-18288095Y-32167380D02*
X-18240476Y-32072142D01*
X-18240476Y-32072142D02*
X-18240476Y-31262619D01*
X-17335714Y-31595952D02*
X-17335714Y-32262619D01*
X-17573809Y-31215000D02*
X-17811904Y-31929285D01*
X-17811904Y-31929285D02*
X-17192857Y-31929285D01*
X-16192856Y-31262619D02*
X-15859523Y-32262619D01*
X-15859523Y-32262619D02*
X-15526190Y-31262619D01*
X-15049999Y-32262619D02*
X-15145237Y-32215000D01*
X-15145237Y-32215000D02*
X-15192856Y-32167380D01*
X-15192856Y-32167380D02*
X-15240475Y-32072142D01*
X-15240475Y-32072142D02*
X-15240475Y-31786428D01*
X-15240475Y-31786428D02*
X-15192856Y-31691190D01*
X-15192856Y-31691190D02*
X-15145237Y-31643571D01*
X-15145237Y-31643571D02*
X-15049999Y-31595952D01*
X-15049999Y-31595952D02*
X-14907142Y-31595952D01*
X-14907142Y-31595952D02*
X-14811904Y-31643571D01*
X-14811904Y-31643571D02*
X-14764285Y-31691190D01*
X-14764285Y-31691190D02*
X-14716666Y-31786428D01*
X-14716666Y-31786428D02*
X-14716666Y-32072142D01*
X-14716666Y-32072142D02*
X-14764285Y-32167380D01*
X-14764285Y-32167380D02*
X-14811904Y-32215000D01*
X-14811904Y-32215000D02*
X-14907142Y-32262619D01*
X-14907142Y-32262619D02*
X-15049999Y-32262619D01*
X-14145237Y-32262619D02*
X-14240475Y-32215000D01*
X-14240475Y-32215000D02*
X-14288094Y-32119761D01*
X-14288094Y-32119761D02*
X-14288094Y-31262619D01*
X-13907141Y-31595952D02*
X-13526189Y-31595952D01*
X-13764284Y-31262619D02*
X-13764284Y-32119761D01*
X-13764284Y-32119761D02*
X-13716665Y-32215000D01*
X-13716665Y-32215000D02*
X-13621427Y-32262619D01*
X-13621427Y-32262619D02*
X-13526189Y-32262619D01*
X-12764284Y-32262619D02*
X-12764284Y-31738809D01*
X-12764284Y-31738809D02*
X-12811903Y-31643571D01*
X-12811903Y-31643571D02*
X-12907141Y-31595952D01*
X-12907141Y-31595952D02*
X-13097617Y-31595952D01*
X-13097617Y-31595952D02*
X-13192855Y-31643571D01*
X-12764284Y-32215000D02*
X-12859522Y-32262619D01*
X-12859522Y-32262619D02*
X-13097617Y-32262619D01*
X-13097617Y-32262619D02*
X-13192855Y-32215000D01*
X-13192855Y-32215000D02*
X-13240474Y-32119761D01*
X-13240474Y-32119761D02*
X-13240474Y-32024523D01*
X-13240474Y-32024523D02*
X-13192855Y-31929285D01*
X-13192855Y-31929285D02*
X-13097617Y-31881666D01*
X-13097617Y-31881666D02*
X-12859522Y-31881666D01*
X-12859522Y-31881666D02*
X-12764284Y-31834047D01*
X-11859522Y-31595952D02*
X-11859522Y-32405476D01*
X-11859522Y-32405476D02*
X-11907141Y-32500714D01*
X-11907141Y-32500714D02*
X-11954760Y-32548333D01*
X-11954760Y-32548333D02*
X-12049998Y-32595952D01*
X-12049998Y-32595952D02*
X-12192855Y-32595952D01*
X-12192855Y-32595952D02*
X-12288093Y-32548333D01*
X-11859522Y-32215000D02*
X-11954760Y-32262619D01*
X-11954760Y-32262619D02*
X-12145236Y-32262619D01*
X-12145236Y-32262619D02*
X-12240474Y-32215000D01*
X-12240474Y-32215000D02*
X-12288093Y-32167380D01*
X-12288093Y-32167380D02*
X-12335712Y-32072142D01*
X-12335712Y-32072142D02*
X-12335712Y-31786428D01*
X-12335712Y-31786428D02*
X-12288093Y-31691190D01*
X-12288093Y-31691190D02*
X-12240474Y-31643571D01*
X-12240474Y-31643571D02*
X-12145236Y-31595952D01*
X-12145236Y-31595952D02*
X-11954760Y-31595952D01*
X-11954760Y-31595952D02*
X-11859522Y-31643571D01*
X-11002379Y-32215000D02*
X-11097617Y-32262619D01*
X-11097617Y-32262619D02*
X-11288093Y-32262619D01*
X-11288093Y-32262619D02*
X-11383331Y-32215000D01*
X-11383331Y-32215000D02*
X-11430950Y-32119761D01*
X-11430950Y-32119761D02*
X-11430950Y-31738809D01*
X-11430950Y-31738809D02*
X-11383331Y-31643571D01*
X-11383331Y-31643571D02*
X-11288093Y-31595952D01*
X-11288093Y-31595952D02*
X-11097617Y-31595952D01*
X-11097617Y-31595952D02*
X-11002379Y-31643571D01*
X-11002379Y-31643571D02*
X-10954760Y-31738809D01*
X-10954760Y-31738809D02*
X-10954760Y-31834047D01*
X-10954760Y-31834047D02*
X-11430950Y-31929285D01*
X-9192855Y-32262619D02*
X-9526188Y-31786428D01*
X-9764283Y-32262619D02*
X-9764283Y-31262619D01*
X-9764283Y-31262619D02*
X-9383331Y-31262619D01*
X-9383331Y-31262619D02*
X-9288093Y-31310238D01*
X-9288093Y-31310238D02*
X-9240474Y-31357857D01*
X-9240474Y-31357857D02*
X-9192855Y-31453095D01*
X-9192855Y-31453095D02*
X-9192855Y-31595952D01*
X-9192855Y-31595952D02*
X-9240474Y-31691190D01*
X-9240474Y-31691190D02*
X-9288093Y-31738809D01*
X-9288093Y-31738809D02*
X-9383331Y-31786428D01*
X-9383331Y-31786428D02*
X-9764283Y-31786428D01*
X-8383331Y-32215000D02*
X-8478569Y-32262619D01*
X-8478569Y-32262619D02*
X-8669045Y-32262619D01*
X-8669045Y-32262619D02*
X-8764283Y-32215000D01*
X-8764283Y-32215000D02*
X-8811902Y-32119761D01*
X-8811902Y-32119761D02*
X-8811902Y-31738809D01*
X-8811902Y-31738809D02*
X-8764283Y-31643571D01*
X-8764283Y-31643571D02*
X-8669045Y-31595952D01*
X-8669045Y-31595952D02*
X-8478569Y-31595952D01*
X-8478569Y-31595952D02*
X-8383331Y-31643571D01*
X-8383331Y-31643571D02*
X-8335712Y-31738809D01*
X-8335712Y-31738809D02*
X-8335712Y-31834047D01*
X-8335712Y-31834047D02*
X-8811902Y-31929285D01*
X-7478569Y-31595952D02*
X-7478569Y-32405476D01*
X-7478569Y-32405476D02*
X-7526188Y-32500714D01*
X-7526188Y-32500714D02*
X-7573807Y-32548333D01*
X-7573807Y-32548333D02*
X-7669045Y-32595952D01*
X-7669045Y-32595952D02*
X-7811902Y-32595952D01*
X-7811902Y-32595952D02*
X-7907140Y-32548333D01*
X-7478569Y-32215000D02*
X-7573807Y-32262619D01*
X-7573807Y-32262619D02*
X-7764283Y-32262619D01*
X-7764283Y-32262619D02*
X-7859521Y-32215000D01*
X-7859521Y-32215000D02*
X-7907140Y-32167380D01*
X-7907140Y-32167380D02*
X-7954759Y-32072142D01*
X-7954759Y-32072142D02*
X-7954759Y-31786428D01*
X-7954759Y-31786428D02*
X-7907140Y-31691190D01*
X-7907140Y-31691190D02*
X-7859521Y-31643571D01*
X-7859521Y-31643571D02*
X-7764283Y-31595952D01*
X-7764283Y-31595952D02*
X-7573807Y-31595952D01*
X-7573807Y-31595952D02*
X-7478569Y-31643571D01*
X-6240473Y-31738809D02*
X-5478569Y-31738809D01*
X-5478569Y-32024523D02*
X-6240473Y-32024523D01*
X-3716664Y-32262619D02*
X-4288092Y-32262619D01*
X-4002378Y-32262619D02*
X-4002378Y-31262619D01*
X-4002378Y-31262619D02*
X-4097616Y-31405476D01*
X-4097616Y-31405476D02*
X-4192854Y-31500714D01*
X-4192854Y-31500714D02*
X-4288092Y-31548333D01*
X-3145235Y-31691190D02*
X-3240473Y-31643571D01*
X-3240473Y-31643571D02*
X-3288092Y-31595952D01*
X-3288092Y-31595952D02*
X-3335711Y-31500714D01*
X-3335711Y-31500714D02*
X-3335711Y-31453095D01*
X-3335711Y-31453095D02*
X-3288092Y-31357857D01*
X-3288092Y-31357857D02*
X-3240473Y-31310238D01*
X-3240473Y-31310238D02*
X-3145235Y-31262619D01*
X-3145235Y-31262619D02*
X-2954759Y-31262619D01*
X-2954759Y-31262619D02*
X-2859521Y-31310238D01*
X-2859521Y-31310238D02*
X-2811902Y-31357857D01*
X-2811902Y-31357857D02*
X-2764283Y-31453095D01*
X-2764283Y-31453095D02*
X-2764283Y-31500714D01*
X-2764283Y-31500714D02*
X-2811902Y-31595952D01*
X-2811902Y-31595952D02*
X-2859521Y-31643571D01*
X-2859521Y-31643571D02*
X-2954759Y-31691190D01*
X-2954759Y-31691190D02*
X-3145235Y-31691190D01*
X-3145235Y-31691190D02*
X-3240473Y-31738809D01*
X-3240473Y-31738809D02*
X-3288092Y-31786428D01*
X-3288092Y-31786428D02*
X-3335711Y-31881666D01*
X-3335711Y-31881666D02*
X-3335711Y-32072142D01*
X-3335711Y-32072142D02*
X-3288092Y-32167380D01*
X-3288092Y-32167380D02*
X-3240473Y-32215000D01*
X-3240473Y-32215000D02*
X-3145235Y-32262619D01*
X-3145235Y-32262619D02*
X-2954759Y-32262619D01*
X-2954759Y-32262619D02*
X-2859521Y-32215000D01*
X-2859521Y-32215000D02*
X-2811902Y-32167380D01*
X-2811902Y-32167380D02*
X-2764283Y-32072142D01*
X-2764283Y-32072142D02*
X-2764283Y-31881666D01*
X-2764283Y-31881666D02*
X-2811902Y-31786428D01*
X-2811902Y-31786428D02*
X-2859521Y-31738809D01*
X-2859521Y-31738809D02*
X-2954759Y-31691190D01*
X-2145235Y-31262619D02*
X-2049997Y-31262619D01*
X-2049997Y-31262619D02*
X-1954759Y-31310238D01*
X-1954759Y-31310238D02*
X-1907140Y-31357857D01*
X-1907140Y-31357857D02*
X-1859521Y-31453095D01*
X-1859521Y-31453095D02*
X-1811902Y-31643571D01*
X-1811902Y-31643571D02*
X-1811902Y-31881666D01*
X-1811902Y-31881666D02*
X-1859521Y-32072142D01*
X-1859521Y-32072142D02*
X-1907140Y-32167380D01*
X-1907140Y-32167380D02*
X-1954759Y-32215000D01*
X-1954759Y-32215000D02*
X-2049997Y-32262619D01*
X-2049997Y-32262619D02*
X-2145235Y-32262619D01*
X-2145235Y-32262619D02*
X-2240473Y-32215000D01*
X-2240473Y-32215000D02*
X-2288092Y-32167380D01*
X-2288092Y-32167380D02*
X-2335711Y-32072142D01*
X-2335711Y-32072142D02*
X-2383330Y-31881666D01*
X-2383330Y-31881666D02*
X-2383330Y-31643571D01*
X-2383330Y-31643571D02*
X-2335711Y-31453095D01*
X-2335711Y-31453095D02*
X-2288092Y-31357857D01*
X-2288092Y-31357857D02*
X-2240473Y-31310238D01*
X-2240473Y-31310238D02*
X-2145235Y-31262619D01*
X12826261Y-9468619D02*
X12254833Y-9468619D01*
X12540547Y-9468619D02*
X12540547Y-8468619D01*
X12540547Y-8468619D02*
X12445309Y-8611476D01*
X12445309Y-8611476D02*
X12350071Y-8706714D01*
X12350071Y-8706714D02*
X12254833Y-8754333D01*
X13683404Y-8801952D02*
X13683404Y-9468619D01*
X13254833Y-8801952D02*
X13254833Y-9325761D01*
X13254833Y-9325761D02*
X13302452Y-9421000D01*
X13302452Y-9421000D02*
X13397690Y-9468619D01*
X13397690Y-9468619D02*
X13540547Y-9468619D01*
X13540547Y-9468619D02*
X13635785Y-9421000D01*
X13635785Y-9421000D02*
X13683404Y-9373380D01*
X14492928Y-8944809D02*
X14159595Y-8944809D01*
X14159595Y-9468619D02*
X14159595Y-8468619D01*
X14159595Y-8468619D02*
X14635785Y-8468619D01*
D11*
X12023040Y-19772229D02*
X11451540Y-18782362D01*
X11451540Y-18782362D02*
X11687223Y-18646291D01*
X11687223Y-18646291D02*
X11855846Y-18611785D01*
X11855846Y-18611785D02*
X12004548Y-18651629D01*
X12004548Y-18651629D02*
X12106113Y-18718688D01*
X12106113Y-18718688D02*
X12262107Y-18880020D01*
X12262107Y-18880020D02*
X12343750Y-19021429D01*
X12343750Y-19021429D02*
X12405470Y-19237190D01*
X12405470Y-19237190D02*
X12412762Y-19358677D01*
X12412762Y-19358677D02*
X12372918Y-19507379D01*
X12372918Y-19507379D02*
X12258723Y-19636158D01*
X12258723Y-19636158D02*
X12023040Y-19772229D01*
X12347134Y-18265291D02*
X12959909Y-17911505D01*
X12959909Y-17911505D02*
X12847667Y-18479097D01*
X12847667Y-18479097D02*
X12989077Y-18397455D01*
X12989077Y-18397455D02*
X13110564Y-18390163D01*
X13110564Y-18390163D02*
X13184915Y-18410085D01*
X13184915Y-18410085D02*
X13286480Y-18477144D01*
X13286480Y-18477144D02*
X13422552Y-18712826D01*
X13422552Y-18712826D02*
X13429844Y-18834314D01*
X13429844Y-18834314D02*
X13409921Y-18908664D01*
X13409921Y-18908664D02*
X13342863Y-19010229D01*
X13342863Y-19010229D02*
X13060043Y-19173515D01*
X13060043Y-19173515D02*
X12938556Y-19180807D01*
X12938556Y-19180807D02*
X12864205Y-19160885D01*
D10*
X-118856Y1553380D02*
X-23618Y1553380D01*
X-23618Y1553380D02*
X71619Y1505761D01*
X71619Y1505761D02*
X119238Y1458142D01*
X119238Y1458142D02*
X166857Y1362904D01*
X166857Y1362904D02*
X214476Y1172428D01*
X214476Y1172428D02*
X214476Y934333D01*
X214476Y934333D02*
X166857Y743857D01*
X166857Y743857D02*
X119238Y648619D01*
X119238Y648619D02*
X71619Y601000D01*
X71619Y601000D02*
X-23618Y553380D01*
X-23618Y553380D02*
X-118856Y553380D01*
X-118856Y553380D02*
X-214094Y601000D01*
X-214094Y601000D02*
X-261713Y648619D01*
X-261713Y648619D02*
X-309332Y743857D01*
X-309332Y743857D02*
X-356951Y934333D01*
X-356951Y934333D02*
X-356951Y1172428D01*
X-356951Y1172428D02*
X-309332Y1362904D01*
X-309332Y1362904D02*
X-261713Y1458142D01*
X-261713Y1458142D02*
X-214094Y1505761D01*
X-214094Y1505761D02*
X-118856Y1553380D01*
X643048Y648619D02*
X690667Y601000D01*
X690667Y601000D02*
X643048Y553380D01*
X643048Y553380D02*
X595429Y601000D01*
X595429Y601000D02*
X643048Y648619D01*
X643048Y648619D02*
X643048Y553380D01*
X1643047Y553380D02*
X1071619Y553380D01*
X1357333Y553380D02*
X1357333Y1553380D01*
X1357333Y1553380D02*
X1262095Y1410523D01*
X1262095Y1410523D02*
X1166857Y1315285D01*
X1166857Y1315285D02*
X1071619Y1267666D01*
X2500190Y1220047D02*
X2500190Y553380D01*
X2071619Y1220047D02*
X2071619Y696238D01*
X2071619Y696238D02*
X2119238Y601000D01*
X2119238Y601000D02*
X2214476Y553380D01*
X2214476Y553380D02*
X2357333Y553380D01*
X2357333Y553380D02*
X2452571Y601000D01*
X2452571Y601000D02*
X2500190Y648619D01*
X3309714Y1077190D02*
X2976381Y1077190D01*
X2976381Y553380D02*
X2976381Y1553380D01*
X2976381Y1553380D02*
X3452571Y1553380D01*
X15494095Y-5558619D02*
X15494095Y-6368142D01*
X15494095Y-6368142D02*
X15541714Y-6463380D01*
X15541714Y-6463380D02*
X15589333Y-6511000D01*
X15589333Y-6511000D02*
X15684571Y-6558619D01*
X15684571Y-6558619D02*
X15875047Y-6558619D01*
X15875047Y-6558619D02*
X15970285Y-6511000D01*
X15970285Y-6511000D02*
X16017904Y-6463380D01*
X16017904Y-6463380D02*
X16065523Y-6368142D01*
X16065523Y-6368142D02*
X16065523Y-5558619D01*
X16970285Y-5891952D02*
X16970285Y-6558619D01*
X16732190Y-5511000D02*
X16494095Y-6225285D01*
X16494095Y-6225285D02*
X17113142Y-6225285D01*
X-537380Y-13326856D02*
X-537380Y-13231618D01*
X-537380Y-13231618D02*
X-489761Y-13136380D01*
X-489761Y-13136380D02*
X-442142Y-13088761D01*
X-442142Y-13088761D02*
X-346904Y-13041142D01*
X-346904Y-13041142D02*
X-156428Y-12993523D01*
X-156428Y-12993523D02*
X81666Y-12993523D01*
X81666Y-12993523D02*
X272142Y-13041142D01*
X272142Y-13041142D02*
X367380Y-13088761D01*
X367380Y-13088761D02*
X415000Y-13136380D01*
X415000Y-13136380D02*
X462619Y-13231618D01*
X462619Y-13231618D02*
X462619Y-13326856D01*
X462619Y-13326856D02*
X415000Y-13422094D01*
X415000Y-13422094D02*
X367380Y-13469713D01*
X367380Y-13469713D02*
X272142Y-13517332D01*
X272142Y-13517332D02*
X81666Y-13564951D01*
X81666Y-13564951D02*
X-156428Y-13564951D01*
X-156428Y-13564951D02*
X-346904Y-13517332D01*
X-346904Y-13517332D02*
X-442142Y-13469713D01*
X-442142Y-13469713D02*
X-489761Y-13422094D01*
X-489761Y-13422094D02*
X-537380Y-13326856D01*
X367380Y-12564951D02*
X415000Y-12517332D01*
X415000Y-12517332D02*
X462619Y-12564951D01*
X462619Y-12564951D02*
X415000Y-12612570D01*
X415000Y-12612570D02*
X367380Y-12564951D01*
X367380Y-12564951D02*
X462619Y-12564951D01*
X462619Y-11564952D02*
X462619Y-12136380D01*
X462619Y-11850666D02*
X-537380Y-11850666D01*
X-537380Y-11850666D02*
X-394523Y-11945904D01*
X-394523Y-11945904D02*
X-299285Y-12041142D01*
X-299285Y-12041142D02*
X-251666Y-12136380D01*
X-204047Y-10707809D02*
X462619Y-10707809D01*
X-204047Y-11136380D02*
X319761Y-11136380D01*
X319761Y-11136380D02*
X415000Y-11088761D01*
X415000Y-11088761D02*
X462619Y-10993523D01*
X462619Y-10993523D02*
X462619Y-10850666D01*
X462619Y-10850666D02*
X415000Y-10755428D01*
X415000Y-10755428D02*
X367380Y-10707809D01*
X-61190Y-9898285D02*
X-61190Y-10231618D01*
X462619Y-10231618D02*
X-537380Y-10231618D01*
X-537380Y-10231618D02*
X-537380Y-9755428D01*
X-4119428Y553380D02*
X-4690856Y553380D01*
X-4405142Y553380D02*
X-4405142Y1553380D01*
X-4405142Y1553380D02*
X-4500380Y1410523D01*
X-4500380Y1410523D02*
X-4595618Y1315285D01*
X-4595618Y1315285D02*
X-4690856Y1267666D01*
X-3500380Y1553380D02*
X-3405142Y1553380D01*
X-3405142Y1553380D02*
X-3309904Y1505761D01*
X-3309904Y1505761D02*
X-3262285Y1458142D01*
X-3262285Y1458142D02*
X-3214666Y1362904D01*
X-3214666Y1362904D02*
X-3167047Y1172428D01*
X-3167047Y1172428D02*
X-3167047Y934333D01*
X-3167047Y934333D02*
X-3214666Y743857D01*
X-3214666Y743857D02*
X-3262285Y648619D01*
X-3262285Y648619D02*
X-3309904Y601000D01*
X-3309904Y601000D02*
X-3405142Y553380D01*
X-3405142Y553380D02*
X-3500380Y553380D01*
X-3500380Y553380D02*
X-3595618Y601000D01*
X-3595618Y601000D02*
X-3643237Y648619D01*
X-3643237Y648619D02*
X-3690856Y743857D01*
X-3690856Y743857D02*
X-3738475Y934333D01*
X-3738475Y934333D02*
X-3738475Y1172428D01*
X-3738475Y1172428D02*
X-3690856Y1362904D01*
X-3690856Y1362904D02*
X-3643237Y1458142D01*
X-3643237Y1458142D02*
X-3595618Y1505761D01*
X-3595618Y1505761D02*
X-3500380Y1553380D01*
X-2309904Y1220047D02*
X-2309904Y553380D01*
X-2738475Y1220047D02*
X-2738475Y696238D01*
X-2738475Y696238D02*
X-2690856Y601000D01*
X-2690856Y601000D02*
X-2595618Y553380D01*
X-2595618Y553380D02*
X-2452761Y553380D01*
X-2452761Y553380D02*
X-2357523Y601000D01*
X-2357523Y601000D02*
X-2309904Y648619D01*
X-1500380Y1077190D02*
X-1833713Y1077190D01*
X-1833713Y553380D02*
X-1833713Y1553380D01*
X-1833713Y1553380D02*
X-1357523Y1553380D01*
X618019Y-5808804D02*
X1427542Y-5808804D01*
X1427542Y-5808804D02*
X1522780Y-5761185D01*
X1522780Y-5761185D02*
X1570400Y-5713566D01*
X1570400Y-5713566D02*
X1618019Y-5618328D01*
X1618019Y-5618328D02*
X1618019Y-5427852D01*
X1618019Y-5427852D02*
X1570400Y-5332614D01*
X1570400Y-5332614D02*
X1522780Y-5284995D01*
X1522780Y-5284995D02*
X1427542Y-5237376D01*
X1427542Y-5237376D02*
X618019Y-5237376D01*
X618019Y-4856423D02*
X618019Y-4237376D01*
X618019Y-4237376D02*
X998971Y-4570709D01*
X998971Y-4570709D02*
X998971Y-4427852D01*
X998971Y-4427852D02*
X1046590Y-4332614D01*
X1046590Y-4332614D02*
X1094209Y-4284995D01*
X1094209Y-4284995D02*
X1189447Y-4237376D01*
X1189447Y-4237376D02*
X1427542Y-4237376D01*
X1427542Y-4237376D02*
X1522780Y-4284995D01*
X1522780Y-4284995D02*
X1570400Y-4332614D01*
X1570400Y-4332614D02*
X1618019Y-4427852D01*
X1618019Y-4427852D02*
X1618019Y-4713566D01*
X1618019Y-4713566D02*
X1570400Y-4808804D01*
X1570400Y-4808804D02*
X1522780Y-4856423D01*
X-1569380Y-12247428D02*
X-1569380Y-12818856D01*
X-1569380Y-12533142D02*
X-2569380Y-12533142D01*
X-2569380Y-12533142D02*
X-2426523Y-12628380D01*
X-2426523Y-12628380D02*
X-2331285Y-12723618D01*
X-2331285Y-12723618D02*
X-2283666Y-12818856D01*
X-2569380Y-11628380D02*
X-2569380Y-11533142D01*
X-2569380Y-11533142D02*
X-2521761Y-11437904D01*
X-2521761Y-11437904D02*
X-2474142Y-11390285D01*
X-2474142Y-11390285D02*
X-2378904Y-11342666D01*
X-2378904Y-11342666D02*
X-2188428Y-11295047D01*
X-2188428Y-11295047D02*
X-1950333Y-11295047D01*
X-1950333Y-11295047D02*
X-1759857Y-11342666D01*
X-1759857Y-11342666D02*
X-1664619Y-11390285D01*
X-1664619Y-11390285D02*
X-1617000Y-11437904D01*
X-1617000Y-11437904D02*
X-1569380Y-11533142D01*
X-1569380Y-11533142D02*
X-1569380Y-11628380D01*
X-1569380Y-11628380D02*
X-1617000Y-11723618D01*
X-1617000Y-11723618D02*
X-1664619Y-11771237D01*
X-1664619Y-11771237D02*
X-1759857Y-11818856D01*
X-1759857Y-11818856D02*
X-1950333Y-11866475D01*
X-1950333Y-11866475D02*
X-2188428Y-11866475D01*
X-2188428Y-11866475D02*
X-2378904Y-11818856D01*
X-2378904Y-11818856D02*
X-2474142Y-11771237D01*
X-2474142Y-11771237D02*
X-2521761Y-11723618D01*
X-2521761Y-11723618D02*
X-2569380Y-11628380D01*
X-2236047Y-10437904D02*
X-1569380Y-10437904D01*
X-2236047Y-10866475D02*
X-1712238Y-10866475D01*
X-1712238Y-10866475D02*
X-1617000Y-10818856D01*
X-1617000Y-10818856D02*
X-1569380Y-10723618D01*
X-1569380Y-10723618D02*
X-1569380Y-10580761D01*
X-1569380Y-10580761D02*
X-1617000Y-10485523D01*
X-1617000Y-10485523D02*
X-1664619Y-10437904D01*
X-2093190Y-9628380D02*
X-2093190Y-9961713D01*
X-1569380Y-9961713D02*
X-2569380Y-9961713D01*
X-2569380Y-9961713D02*
X-2569380Y-9485523D01*
X8590619Y-13263428D02*
X8590619Y-13834856D01*
X8590619Y-13549142D02*
X7590619Y-13549142D01*
X7590619Y-13549142D02*
X7733476Y-13644380D01*
X7733476Y-13644380D02*
X7828714Y-13739618D01*
X7828714Y-13739618D02*
X7876333Y-13834856D01*
X7590619Y-12644380D02*
X7590619Y-12549142D01*
X7590619Y-12549142D02*
X7638238Y-12453904D01*
X7638238Y-12453904D02*
X7685857Y-12406285D01*
X7685857Y-12406285D02*
X7781095Y-12358666D01*
X7781095Y-12358666D02*
X7971571Y-12311047D01*
X7971571Y-12311047D02*
X8209666Y-12311047D01*
X8209666Y-12311047D02*
X8400142Y-12358666D01*
X8400142Y-12358666D02*
X8495380Y-12406285D01*
X8495380Y-12406285D02*
X8543000Y-12453904D01*
X8543000Y-12453904D02*
X8590619Y-12549142D01*
X8590619Y-12549142D02*
X8590619Y-12644380D01*
X8590619Y-12644380D02*
X8543000Y-12739618D01*
X8543000Y-12739618D02*
X8495380Y-12787237D01*
X8495380Y-12787237D02*
X8400142Y-12834856D01*
X8400142Y-12834856D02*
X8209666Y-12882475D01*
X8209666Y-12882475D02*
X7971571Y-12882475D01*
X7971571Y-12882475D02*
X7781095Y-12834856D01*
X7781095Y-12834856D02*
X7685857Y-12787237D01*
X7685857Y-12787237D02*
X7638238Y-12739618D01*
X7638238Y-12739618D02*
X7590619Y-12644380D01*
X7590619Y-11691999D02*
X7590619Y-11596761D01*
X7590619Y-11596761D02*
X7638238Y-11501523D01*
X7638238Y-11501523D02*
X7685857Y-11453904D01*
X7685857Y-11453904D02*
X7781095Y-11406285D01*
X7781095Y-11406285D02*
X7971571Y-11358666D01*
X7971571Y-11358666D02*
X8209666Y-11358666D01*
X8209666Y-11358666D02*
X8400142Y-11406285D01*
X8400142Y-11406285D02*
X8495380Y-11453904D01*
X8495380Y-11453904D02*
X8543000Y-11501523D01*
X8543000Y-11501523D02*
X8590619Y-11596761D01*
X8590619Y-11596761D02*
X8590619Y-11691999D01*
X8590619Y-11691999D02*
X8543000Y-11787237D01*
X8543000Y-11787237D02*
X8495380Y-11834856D01*
X8495380Y-11834856D02*
X8400142Y-11882475D01*
X8400142Y-11882475D02*
X8209666Y-11930094D01*
X8209666Y-11930094D02*
X7971571Y-11930094D01*
X7971571Y-11930094D02*
X7781095Y-11882475D01*
X7781095Y-11882475D02*
X7685857Y-11834856D01*
X7685857Y-11834856D02*
X7638238Y-11787237D01*
X7638238Y-11787237D02*
X7590619Y-11691999D01*
X8590619Y-10930094D02*
X7590619Y-10930094D01*
X8209666Y-10834856D02*
X8590619Y-10549142D01*
X7923952Y-10549142D02*
X8304904Y-10930094D01*
X12636666Y4407380D02*
X12303333Y4883571D01*
X12065238Y4407380D02*
X12065238Y5407380D01*
X12065238Y5407380D02*
X12446190Y5407380D01*
X12446190Y5407380D02*
X12541428Y5359761D01*
X12541428Y5359761D02*
X12589047Y5312142D01*
X12589047Y5312142D02*
X12636666Y5216904D01*
X12636666Y5216904D02*
X12636666Y5074047D01*
X12636666Y5074047D02*
X12589047Y4978809D01*
X12589047Y4978809D02*
X12541428Y4931190D01*
X12541428Y4931190D02*
X12446190Y4883571D01*
X12446190Y4883571D02*
X12065238Y4883571D01*
X13065238Y4931190D02*
X13398571Y4931190D01*
X13541428Y4407380D02*
X13065238Y4407380D01*
X13065238Y4407380D02*
X13065238Y5407380D01*
X13065238Y5407380D02*
X13541428Y5407380D01*
X14303333Y4931190D02*
X13970000Y4931190D01*
X13970000Y4407380D02*
X13970000Y5407380D01*
X13970000Y5407380D02*
X14446190Y5407380D01*
X14970000Y5407380D02*
X14970000Y5169285D01*
X14731905Y5264523D02*
X14970000Y5169285D01*
X14970000Y5169285D02*
X15208095Y5264523D01*
X14827143Y4978809D02*
X14970000Y5169285D01*
X14970000Y5169285D02*
X15112857Y4978809D01*
X15731905Y5407380D02*
X15731905Y5169285D01*
X15493810Y5264523D02*
X15731905Y5169285D01*
X15731905Y5169285D02*
X15970000Y5264523D01*
X15589048Y4978809D02*
X15731905Y5169285D01*
X15731905Y5169285D02*
X15874762Y4978809D01*
X13120761Y-1064619D02*
X12549333Y-1064619D01*
X12835047Y-1064619D02*
X12835047Y-64619D01*
X12835047Y-64619D02*
X12739809Y-207476D01*
X12739809Y-207476D02*
X12644571Y-302714D01*
X12644571Y-302714D02*
X12549333Y-350333D01*
X13977904Y-397952D02*
X13977904Y-1064619D01*
X13549333Y-397952D02*
X13549333Y-921761D01*
X13549333Y-921761D02*
X13596952Y-1017000D01*
X13596952Y-1017000D02*
X13692190Y-1064619D01*
X13692190Y-1064619D02*
X13835047Y-1064619D01*
X13835047Y-1064619D02*
X13930285Y-1017000D01*
X13930285Y-1017000D02*
X13977904Y-969380D01*
X14787428Y-540809D02*
X14454095Y-540809D01*
X14454095Y-1064619D02*
X14454095Y-64619D01*
X14454095Y-64619D02*
X14930285Y-64619D01*
D11*
X-24814210Y8779546D02*
X-24184426Y8610796D01*
X-25028512Y7979760D02*
X-25040677Y7934361D01*
X-25040677Y7934361D02*
X-24863900Y7628175D01*
X-24863900Y7628175D02*
X-25320198Y5925248D01*
X-25320198Y5925248D02*
X-25626384Y5748471D01*
X-25195554Y4740622D02*
X-25849486Y4915843D01*
X-25849486Y4915843D02*
X-24814210Y8779546D01*
D10*
X-23862638Y8674079D02*
G75*
G03*
X-23862638Y8674079I-75000J0D01*
G01*
D11*
X8779546Y24814210D02*
X8610796Y24184426D01*
X7979760Y25028512D02*
X7934361Y25040677D01*
X7934361Y25040677D02*
X7628175Y24863900D01*
X7628175Y24863900D02*
X5925248Y25320198D01*
X5925248Y25320198D02*
X5748471Y25626384D01*
X4740622Y25195554D02*
X4915843Y25849486D01*
X4915843Y25849486D02*
X8779546Y24814210D01*
D10*
X8749079Y23937638D02*
G75*
G03*
X8749079Y23937638I-75000J0D01*
G01*
D12*
X13280920Y-7066000D02*
X13562080Y-7066000D01*
X13280920Y-8086000D02*
X13562080Y-8086000D01*
D11*
X11338220Y-23754373D02*
X11012220Y-23189724D01*
X12055289Y-23340373D02*
X12095992Y-23316873D01*
X12095992Y-23316873D02*
X12187499Y-22975366D01*
X12187499Y-22975366D02*
X13714302Y-22093866D01*
X13714302Y-22093866D02*
X14055808Y-22185373D01*
X14463822Y-21168073D02*
X14802322Y-21754373D01*
X14802322Y-21754373D02*
X11338220Y-23754373D01*
D10*
X10867967Y-23059966D02*
G75*
G03*
X10867967Y-23059966I-75000J0D01*
G01*
D12*
X-256000Y-1397580D02*
X-256000Y-1116420D01*
X764000Y-1397580D02*
X764000Y-1116420D01*
X22479580Y-1018000D02*
X22198420Y-1018000D01*
X22479580Y2000D02*
X22198420Y2000D01*
X13970000Y-3266000D02*
X12295000Y-3266000D01*
X13970000Y-3266000D02*
X14620000Y-3266000D01*
X13970000Y-6386000D02*
X13320000Y-6386000D01*
X13970000Y-6386000D02*
X14620000Y-6386000D01*
X-510000Y-8014580D02*
X-510000Y-7733420D01*
X510000Y-8014580D02*
X510000Y-7733420D01*
D11*
X-23754373Y-11338220D02*
X-23189724Y-11012220D01*
X-23340373Y-12055289D02*
X-23316873Y-12095992D01*
X-23316873Y-12095992D02*
X-22975366Y-12187499D01*
X-22975366Y-12187499D02*
X-22093866Y-13714302D01*
X-22093866Y-13714302D02*
X-22185373Y-14055808D01*
X-21168073Y-14463822D02*
X-21754373Y-14802322D01*
X-21754373Y-14802322D02*
X-23754373Y-11338220D01*
D10*
X-22984966Y-10792967D02*
G75*
G03*
X-22984966Y-10792967I-75000J0D01*
G01*
D11*
X14902780Y21696373D02*
X14576780Y21131724D01*
X14185711Y22110373D02*
X14145008Y22133873D01*
X14145008Y22133873D02*
X13803501Y22042366D01*
X13803501Y22042366D02*
X12276698Y22923866D01*
X12276698Y22923866D02*
X12185192Y23265373D01*
X11100178Y23110073D02*
X11438678Y23696373D01*
X11438678Y23696373D02*
X14902780Y21696373D01*
D10*
X14649033Y20876966D02*
G75*
G03*
X14649033Y20876966I-75000J0D01*
G01*
D12*
X21977085Y4834831D02*
X21705505Y4762061D01*
X21713089Y5820075D02*
X21441509Y5747305D01*
X-6801456Y-21450129D02*
X-6728686Y-21178549D01*
X-5816212Y-21714125D02*
X-5743442Y-21442545D01*
X-1793000Y-1397580D02*
X-1793000Y-1116420D01*
X-773000Y-1397580D02*
X-773000Y-1116420D01*
X-21977085Y-4834831D02*
X-21705505Y-4762061D01*
X-21713089Y-5820075D02*
X-21441509Y-5747305D01*
X1970400Y-5046900D02*
X1970400Y-8646900D01*
X1970400Y-5046900D02*
X1970400Y-2846900D01*
X8740400Y-5046900D02*
X8740400Y-7246900D01*
X8740400Y-5046900D02*
X8740400Y-2846900D01*
D11*
X-20010415Y-17099963D02*
X-19549381Y-16638929D01*
X-19424931Y-17685447D02*
X-19391697Y-17718681D01*
X-19391697Y-17718681D02*
X-19038143Y-17718681D01*
X-19038143Y-17718681D02*
X-17791514Y-18965311D01*
X-17791514Y-18965311D02*
X-17791514Y-19318864D01*
X-16703277Y-19449679D02*
X-17181988Y-19928390D01*
X-17181988Y-19928390D02*
X-20010415Y-17099963D01*
D10*
X-19405792Y-16393563D02*
G75*
G03*
X-19405792Y-16393563I-75000J0D01*
G01*
D11*
X25879509Y4803795D02*
X25249725Y4635045D01*
X25665207Y5603581D02*
X25653042Y5648980D01*
X25653042Y5648980D02*
X25346856Y5825757D01*
X25346856Y5825757D02*
X24890558Y7528684D01*
X24890558Y7528684D02*
X25067335Y7834870D01*
X24190301Y8492278D02*
X24844233Y8667498D01*
X24844233Y8667498D02*
X25879509Y4803795D01*
D10*
X25142642Y4456846D02*
G75*
G03*
X25142642Y4456846I-75000J0D01*
G01*
D11*
X20010415Y17099963D02*
X19549381Y16638929D01*
X19424931Y17685447D02*
X19391697Y17718681D01*
X19391697Y17718681D02*
X19038143Y17718681D01*
X19038143Y17718681D02*
X17791514Y18965311D01*
X17791514Y18965311D02*
X17791514Y19318864D01*
X16703277Y19449679D02*
X17181988Y19928390D01*
X17181988Y19928390D02*
X20010415Y17099963D01*
D10*
X19555792Y16393563D02*
G75*
G03*
X19555792Y16393563I-75000J0D01*
G01*
D12*
X-1018000Y-22479580D02*
X-1018000Y-22198420D01*
X2000Y-22479580D02*
X2000Y-22198420D01*
D11*
X-14902780Y-21696373D02*
X-14576780Y-21131724D01*
X-14185711Y-22110373D02*
X-14145008Y-22133873D01*
X-14145008Y-22133873D02*
X-13803501Y-22042366D01*
X-13803501Y-22042366D02*
X-12276698Y-22923866D01*
X-12276698Y-22923866D02*
X-12185192Y-23265373D01*
X-11100178Y-23110073D02*
X-11438678Y-23696373D01*
X-11438678Y-23696373D02*
X-14902780Y-21696373D01*
D10*
X-14499033Y-20876966D02*
G75*
G03*
X-14499033Y-20876966I-75000J0D01*
G01*
D11*
X-4803795Y25879509D02*
X-4635045Y25249725D01*
X-5603581Y25665207D02*
X-5648980Y25653042D01*
X-5648980Y25653042D02*
X-5825757Y25346856D01*
X-5825757Y25346856D02*
X-7528684Y24890558D01*
X-7528684Y24890558D02*
X-7834870Y25067335D01*
X-8492278Y24190301D02*
X-8667498Y24844233D01*
X-8667498Y24844233D02*
X-4803795Y25879509D01*
D10*
X-4381846Y25067642D02*
G75*
G03*
X-4381846Y25067642I-75000J0D01*
G01*
D11*
X-2058000Y-26241000D02*
X-2058000Y-25589000D01*
X-1230000Y-26241000D02*
X-1183000Y-26241000D01*
X-1183000Y-26241000D02*
X-933000Y-25991000D01*
X-933000Y-25991000D02*
X830000Y-25991000D01*
X830000Y-25991000D02*
X1080000Y-26241000D01*
X1942000Y-25564000D02*
X1942000Y-26241000D01*
X1942000Y-26241000D02*
X-2058000Y-26241000D01*
D10*
X-2108000Y-25367000D02*
G75*
G03*
X-2108000Y-25367000I-75000J0D01*
G01*
D12*
X6801456Y21450129D02*
X6728686Y21178549D01*
X5816212Y21714125D02*
X5743442Y21442545D01*
D11*
X26241000Y-2058000D02*
X25589000Y-2058000D01*
X26241000Y-1230000D02*
X26241000Y-1183000D01*
X26241000Y-1183000D02*
X25991000Y-933000D01*
X25991000Y-933000D02*
X25991000Y830000D01*
X25991000Y830000D02*
X26241000Y1080000D01*
X25564000Y1942000D02*
X26241000Y1942000D01*
X26241000Y1942000D02*
X26241000Y-2058000D01*
D10*
X25442000Y-2183000D02*
G75*
G03*
X25442000Y-2183000I-75000J0D01*
G01*
D12*
X-10358176Y19976887D02*
X-10217596Y19733395D01*
X-11241522Y19466887D02*
X-11100942Y19223395D01*
X-22479580Y1018000D02*
X-22198420Y1018000D01*
X-22479580Y-2000D02*
X-22198420Y-2000D01*
X-4834831Y21977085D02*
X-4762061Y21705505D01*
X-5820075Y21713089D02*
X-5747305Y21441509D01*
X-18958887Y12121404D02*
X-18715395Y11980824D01*
X-19468887Y11238058D02*
X-19225395Y11097478D01*
D11*
X-11338220Y23754373D02*
X-11012220Y23189724D01*
X-12055289Y23340373D02*
X-12095992Y23316873D01*
X-12095992Y23316873D02*
X-12187499Y22975366D01*
X-12187499Y22975366D02*
X-13714302Y22093866D01*
X-13714302Y22093866D02*
X-14055808Y22185373D01*
X-14463822Y21168073D02*
X-14802322Y21754373D01*
X-14802322Y21754373D02*
X-11338220Y23754373D01*
D10*
X-10717967Y23059966D02*
G75*
G03*
X-10717967Y23059966I-75000J0D01*
G01*
D11*
X-21696373Y14902780D02*
X-21131724Y14576780D01*
X-22110373Y14185711D02*
X-22133873Y14145008D01*
X-22133873Y14145008D02*
X-22042366Y13803501D01*
X-22042366Y13803501D02*
X-22923866Y12276698D01*
X-22923866Y12276698D02*
X-23265373Y12185192D01*
X-23110073Y11100178D02*
X-23696373Y11438678D01*
X-23696373Y11438678D02*
X-21696373Y14902780D01*
D10*
X-20801966Y14574033D02*
G75*
G03*
X-20801966Y14574033I-75000J0D01*
G01*
D11*
X-8779546Y-24814210D02*
X-8610796Y-24184426D01*
X-7979760Y-25028512D02*
X-7934361Y-25040677D01*
X-7934361Y-25040677D02*
X-7628175Y-24863900D01*
X-7628175Y-24863900D02*
X-5925248Y-25320198D01*
X-5925248Y-25320198D02*
X-5748471Y-25626384D01*
X-4740622Y-25195554D02*
X-4915843Y-25849486D01*
X-4915843Y-25849486D02*
X-8779546Y-24814210D01*
D10*
X-8599079Y-23937638D02*
G75*
G03*
X-8599079Y-23937638I-75000J0D01*
G01*
D12*
X19976887Y10358176D02*
X19733395Y10217596D01*
X19466887Y11241522D02*
X19223395Y11100942D01*
X-2288000Y-8014580D02*
X-2288000Y-7733420D01*
X-1268000Y-8014580D02*
X-1268000Y-7733420D01*
X-12121404Y-18958887D02*
X-11980824Y-18715395D01*
X-11238058Y-19468887D02*
X-11097478Y-19225395D01*
X-7760000Y3390000D02*
X-7760000Y2000000D01*
D11*
X4803795Y-25879509D02*
X4635045Y-25249725D01*
X5603581Y-25665207D02*
X5648980Y-25653042D01*
X5648980Y-25653042D02*
X5825757Y-25346856D01*
X5825757Y-25346856D02*
X7528684Y-24890558D01*
X7528684Y-24890558D02*
X7834870Y-25067335D01*
X8492278Y-24190301D02*
X8667498Y-24844233D01*
X8667498Y-24844233D02*
X4803795Y-25879509D01*
D10*
X4531846Y-25067642D02*
G75*
G03*
X4531846Y-25067642I-75000J0D01*
G01*
D11*
X-25879509Y-4803795D02*
X-25249725Y-4635045D01*
X-25665207Y-5603581D02*
X-25653042Y-5648980D01*
X-25653042Y-5648980D02*
X-25346856Y-5825757D01*
X-25346856Y-5825757D02*
X-24890558Y-7528684D01*
X-24890558Y-7528684D02*
X-25067335Y-7834870D01*
X-24190301Y-8492278D02*
X-24844233Y-8667498D01*
X-24844233Y-8667498D02*
X-25879509Y-4803795D01*
D10*
X-24992642Y-4456846D02*
G75*
G03*
X-24992642Y-4456846I-75000J0D01*
G01*
D12*
X1018000Y22479580D02*
X1018000Y22198420D01*
X-2000Y22479580D02*
X-2000Y22198420D01*
D11*
X23754373Y11338220D02*
X23189724Y11012220D01*
X23340373Y12055289D02*
X23316873Y12095992D01*
X23316873Y12095992D02*
X22975366Y12187499D01*
X22975366Y12187499D02*
X22093866Y13714302D01*
X22093866Y13714302D02*
X22185373Y14055808D01*
X21168073Y14463822D02*
X21754373Y14802322D01*
X21754373Y14802322D02*
X23754373Y11338220D01*
D10*
X23134966Y10792967D02*
G75*
G03*
X23134966Y10792967I-75000J0D01*
G01*
D12*
X15175629Y-16615299D02*
X14976818Y-16416488D01*
X15896878Y-15894050D02*
X15698067Y-15695239D01*
D11*
X17099963Y-20010415D02*
X16638929Y-19549381D01*
X17685447Y-19424931D02*
X17718681Y-19391697D01*
X17718681Y-19391697D02*
X17718681Y-19038143D01*
X17718681Y-19038143D02*
X18965311Y-17791514D01*
X18965311Y-17791514D02*
X19318864Y-17791514D01*
X19449679Y-16703277D02*
X19928390Y-17181988D01*
X19928390Y-17181988D02*
X17099963Y-20010415D01*
D10*
X16468563Y-19480792D02*
G75*
G03*
X16468563Y-19480792I-75000J0D01*
G01*
D12*
X-11370000Y-8890000D02*
X-11370000Y11490000D01*
X-11370000Y-8890000D02*
X-14030000Y-8890000D01*
X-11370000Y11490000D02*
X-14030000Y11490000D01*
X-12700000Y-11490000D02*
X-14030000Y-11490000D01*
X-14030000Y-11490000D02*
X-14030000Y-10160000D01*
X-14030000Y-8890000D02*
X-14030000Y11490000D01*
X12121404Y18958887D02*
X11980824Y18715395D01*
X11238058Y19468887D02*
X11097478Y19225395D01*
D11*
X-17099963Y20010415D02*
X-16638929Y19549381D01*
X-17685447Y19424931D02*
X-17718681Y19391697D01*
X-17718681Y19391697D02*
X-17718681Y19038143D01*
X-17718681Y19038143D02*
X-18965311Y17791514D01*
X-18965311Y17791514D02*
X-19318864Y17791514D01*
X-19449679Y16703277D02*
X-19928390Y17181988D01*
X-19928390Y17181988D02*
X-17099963Y20010415D01*
D10*
X-16318563Y19480792D02*
G75*
G03*
X-16318563Y19480792I-75000J0D01*
G01*
D12*
X21450129Y-6801456D02*
X21178549Y-6728686D01*
X21714125Y-5816212D02*
X21442545Y-5743442D01*
D11*
X2058000Y26241000D02*
X2058000Y25589000D01*
X1230000Y26241000D02*
X1183000Y26241000D01*
X1183000Y26241000D02*
X933000Y25991000D01*
X933000Y25991000D02*
X-830000Y25991000D01*
X-830000Y25991000D02*
X-1080000Y26241000D01*
X-1942000Y25564000D02*
X-1942000Y26241000D01*
X-1942000Y26241000D02*
X2058000Y26241000D01*
D10*
X2258000Y25367000D02*
G75*
G03*
X2258000Y25367000I-75000J0D01*
G01*
D12*
X-15175629Y16615299D02*
X-14976818Y16416488D01*
X-15896878Y15894050D02*
X-15698067Y15695239D01*
X9425000Y-11657064D02*
X9425000Y-11202936D01*
X10895000Y-11657064D02*
X10895000Y-11202936D01*
X10358176Y-19976887D02*
X10217596Y-19733395D01*
X11241522Y-19466887D02*
X11100942Y-19223395D01*
X12640000Y3870000D02*
X13970000Y3870000D01*
X12640000Y2540000D02*
X12640000Y3870000D01*
X12640000Y1270000D02*
X12640000Y1210000D01*
X12640000Y1270000D02*
X15300000Y1270000D01*
X12640000Y1210000D02*
X15300000Y1210000D01*
X15300000Y1270000D02*
X15300000Y1210000D01*
X-21450129Y6801456D02*
X-21178549Y6728686D01*
X-21714125Y5816212D02*
X-21442545Y5743442D01*
D11*
X24814210Y-8779546D02*
X24184426Y-8610796D01*
X25028512Y-7979760D02*
X25040677Y-7934361D01*
X25040677Y-7934361D02*
X24863900Y-7628175D01*
X24863900Y-7628175D02*
X25320198Y-5925248D01*
X25320198Y-5925248D02*
X25626384Y-5748471D01*
X25195554Y-4740622D02*
X25849486Y-4915843D01*
X25849486Y-4915843D02*
X24814210Y-8779546D01*
D10*
X24012638Y-8674079D02*
G75*
G03*
X24012638Y-8674079I-75000J0D01*
G01*
D12*
X13856580Y-2542000D02*
X13575420Y-2542000D01*
X13856580Y-1522000D02*
X13575420Y-1522000D01*
X18958887Y-12121404D02*
X18715395Y-11980824D01*
X19468887Y-11238058D02*
X19225395Y-11097478D01*
X-16615299Y-15175629D02*
X-16416488Y-14976818D01*
X-15894050Y-15896878D02*
X-15695239Y-15698067D01*
D11*
X-26241000Y2058000D02*
X-25589000Y2058000D01*
X-26241000Y1230000D02*
X-26241000Y1183000D01*
X-26241000Y1183000D02*
X-25991000Y933000D01*
X-25991000Y933000D02*
X-25991000Y-830000D01*
X-25991000Y-830000D02*
X-26241000Y-1080000D01*
X-25564000Y-1942000D02*
X-26241000Y-1942000D01*
X-26241000Y-1942000D02*
X-26241000Y2058000D01*
D10*
X-25292000Y2183000D02*
G75*
G03*
X-25292000Y2183000I-75000J0D01*
G01*
D12*
X4834831Y-21977085D02*
X4762061Y-21705505D01*
X5820075Y-21713089D02*
X5747305Y-21441509D01*
X-19976887Y-10358176D02*
X-19733395Y-10217596D01*
X-19466887Y-11241522D02*
X-19223395Y-11100942D01*
X16615299Y15175629D02*
X16416488Y14976818D01*
X15894050Y15896878D02*
X15695239Y15698067D01*
D11*
X21696373Y-14902780D02*
X21131724Y-14576780D01*
X22110373Y-14185711D02*
X22133873Y-14145008D01*
X22133873Y-14145008D02*
X22042366Y-13803501D01*
X22042366Y-13803501D02*
X22923866Y-12276698D01*
X22923866Y-12276698D02*
X23265373Y-12185192D01*
X23110073Y-11100178D02*
X23696373Y-11438678D01*
X23696373Y-11438678D02*
X21696373Y-14902780D01*
D10*
X20951966Y-14574033D02*
G75*
G03*
X20951966Y-14574033I-75000J0D01*
G01*
M02*
