M48
; DRILL file {KiCad (5.1.9-0-10_14)} date Thursday, July 01, 2021 at 12:37:02 PM
; FORMAT={-:-/ absolute / inch / decimal}
; #@! TF.CreationDate,2021-07-01T12:37:02-04:00
; #@! TF.GenerationSoftware,Kicad,Pcbnew,(5.1.9-0-10_14)
; #@! TF.FileFunction,Plated,1,2,PTH
FMAT,2
INCH
T1C0.0157
T2C0.0394
T3C0.0433
T4C0.0450
%
G90
G05
T1
X1.53Y-1.46
X1.64Y-1.69
X2.05Y-1.7
X2.841Y-1.809
X2.941Y-1.889
T2
X2.025Y-1.4189
X2.125Y-1.4189
X2.225Y-1.4189
X2.325Y-1.4189
X2.425Y-1.4189
X2.741Y-1.429
X2.841Y-1.429
X2.941Y-1.429
X3.041Y-1.429
T3
X1.7917Y-1.5768
X1.7917Y-2.1768
X1.8917Y-1.5768
X1.8917Y-2.1768
X1.9917Y-1.5768
X1.9917Y-2.1768
X2.0917Y-1.5768
X2.0917Y-2.1768
X2.1917Y-1.5768
X2.1917Y-2.1768
X2.2917Y-1.5768
X2.2917Y-2.1768
X2.3917Y-1.5768
X2.3917Y-2.1768
X2.4917Y-1.5768
X2.4917Y-2.1768
X2.5917Y-1.5768
X2.5917Y-2.1768
X2.6917Y-1.5768
X2.6917Y-2.1768
X2.7917Y-1.5768
X2.7917Y-2.1768
X2.8917Y-1.5768
X2.8917Y-2.1768
X2.9917Y-1.5768
X2.9917Y-2.1768
X3.0917Y-1.5768
X3.0917Y-2.1768
T4
X1.3907Y-1.8401
X1.3907Y-2.0401
X1.4907Y-1.8401
X1.5907Y-1.8401
X1.5907Y-2.0401
T0
M30
