G04 #@! TF.GenerationSoftware,KiCad,Pcbnew,(5.1.9-0-10_14)*
G04 #@! TF.CreationDate,2021-07-01T12:37:05-04:00*
G04 #@! TF.ProjectId,ebike_LED,6562696b-655f-44c4-9544-2e6b69636164,rev?*
G04 #@! TF.SameCoordinates,Original*
G04 #@! TF.FileFunction,Soldermask,Top*
G04 #@! TF.FilePolarity,Negative*
%FSLAX46Y46*%
G04 Gerber Fmt 4.6, Leading zero omitted, Abs format (unit mm)*
G04 Created by KiCad (PCBNEW (5.1.9-0-10_14)) date 2021-07-01 12:37:05*
%MOMM*%
%LPD*%
G01*
G04 APERTURE LIST*
%ADD10C,1.880000*%
%ADD11O,1.802000X1.802000*%
%ADD12C,1.702000*%
G04 APERTURE END LIST*
D10*
X35325000Y-51818000D03*
X40405000Y-51818000D03*
X35325000Y-46738000D03*
X37865000Y-46738000D03*
X40405000Y-46738000D03*
D11*
X61595000Y-36040000D03*
X59055000Y-36040000D03*
X56515000Y-36040000D03*
X53975000Y-36040000D03*
G36*
G01*
X52285000Y-36941000D02*
X50585000Y-36941000D01*
G75*
G02*
X50534000Y-36890000I0J51000D01*
G01*
X50534000Y-35190000D01*
G75*
G02*
X50585000Y-35139000I51000J0D01*
G01*
X52285000Y-35139000D01*
G75*
G02*
X52336000Y-35190000I0J-51000D01*
G01*
X52336000Y-36890000D01*
G75*
G02*
X52285000Y-36941000I-51000J0D01*
G01*
G37*
G36*
G01*
X79381000Y-54490000D02*
X79381000Y-56090000D01*
G75*
G02*
X79330000Y-56141000I-51000J0D01*
G01*
X77730000Y-56141000D01*
G75*
G02*
X77679000Y-56090000I0J51000D01*
G01*
X77679000Y-54490000D01*
G75*
G02*
X77730000Y-54439000I51000J0D01*
G01*
X79330000Y-54439000D01*
G75*
G02*
X79381000Y-54490000I0J-51000D01*
G01*
G37*
D12*
X75990000Y-55290000D03*
X73450000Y-55290000D03*
X70910000Y-55290000D03*
X68370000Y-55290000D03*
X65830000Y-55290000D03*
X63290000Y-55290000D03*
X60750000Y-55290000D03*
X58210000Y-55290000D03*
X55670000Y-55290000D03*
X53130000Y-55290000D03*
X50590000Y-55290000D03*
X48050000Y-55290000D03*
X78530000Y-40050000D03*
X75990000Y-40050000D03*
X73450000Y-40050000D03*
X70910000Y-40050000D03*
X68370000Y-40050000D03*
X65830000Y-40050000D03*
X63290000Y-40050000D03*
X60750000Y-40050000D03*
X58210000Y-40050000D03*
X55670000Y-40050000D03*
X53130000Y-40050000D03*
X50590000Y-40050000D03*
X48050000Y-40050000D03*
X45510000Y-55290000D03*
X45510000Y-40050000D03*
D11*
X69621400Y-36296600D03*
X72161400Y-36296600D03*
X74701400Y-36296600D03*
G36*
G01*
X76391400Y-35395600D02*
X78091400Y-35395600D01*
G75*
G02*
X78142400Y-35446600I0J-51000D01*
G01*
X78142400Y-37146600D01*
G75*
G02*
X78091400Y-37197600I-51000J0D01*
G01*
X76391400Y-37197600D01*
G75*
G02*
X76340400Y-37146600I0J51000D01*
G01*
X76340400Y-35446600D01*
G75*
G02*
X76391400Y-35395600I51000J0D01*
G01*
G37*
M02*
