G04 #@! TF.GenerationSoftware,KiCad,Pcbnew,7.0.2-0*
G04 #@! TF.CreationDate,2023-06-19T13:03:14-04:00*
G04 #@! TF.ProjectId,speed_joystick,73706565-645f-46a6-9f79-737469636b2e,rev?*
G04 #@! TF.SameCoordinates,Original*
G04 #@! TF.FileFunction,Copper,L2,Bot*
G04 #@! TF.FilePolarity,Positive*
%FSLAX46Y46*%
G04 Gerber Fmt 4.6, Leading zero omitted, Abs format (unit mm)*
G04 Created by KiCad (PCBNEW 7.0.2-0) date 2023-06-19 13:03:14*
%MOMM*%
%LPD*%
G01*
G04 APERTURE LIST*
G04 Aperture macros list*
%AMRoundRect*
0 Rectangle with rounded corners*
0 $1 Rounding radius*
0 $2 $3 $4 $5 $6 $7 $8 $9 X,Y pos of 4 corners*
0 Add a 4 corners polygon primitive as box body*
4,1,4,$2,$3,$4,$5,$6,$7,$8,$9,$2,$3,0*
0 Add four circle primitives for the rounded corners*
1,1,$1+$1,$2,$3*
1,1,$1+$1,$4,$5*
1,1,$1+$1,$6,$7*
1,1,$1+$1,$8,$9*
0 Add four rect primitives between the rounded corners*
20,1,$1+$1,$2,$3,$4,$5,0*
20,1,$1+$1,$4,$5,$6,$7,0*
20,1,$1+$1,$6,$7,$8,$9,0*
20,1,$1+$1,$8,$9,$2,$3,0*%
G04 Aperture macros list end*
G04 #@! TA.AperFunction,ComponentPad*
%ADD10RoundRect,0.350000X-0.350000X-0.650000X0.350000X-0.650000X0.350000X0.650000X-0.350000X0.650000X0*%
G04 #@! TD*
G04 #@! TA.AperFunction,ComponentPad*
%ADD11R,1.700000X1.700000*%
G04 #@! TD*
G04 #@! TA.AperFunction,ComponentPad*
%ADD12O,1.700000X1.700000*%
G04 #@! TD*
G04 #@! TA.AperFunction,ViaPad*
%ADD13C,0.800000*%
G04 #@! TD*
G04 #@! TA.AperFunction,Conductor*
%ADD14C,0.250000*%
G04 #@! TD*
G04 APERTURE END LIST*
D10*
X-7000000Y3450000D03*
X-5000000Y3450000D03*
X-3000000Y3450000D03*
X-1000000Y3450000D03*
X1000000Y3450000D03*
X3000000Y3450000D03*
X5000000Y3450000D03*
X7000000Y3450000D03*
D11*
X-12700000Y-10160000D03*
D12*
X-12700000Y-7620000D03*
X-12700000Y-5080000D03*
X-12700000Y-2540000D03*
X-12700000Y0D03*
X-12700000Y2540000D03*
X-12700000Y5080000D03*
X-12700000Y7620000D03*
X-12700000Y10160000D03*
D11*
X13970000Y2540000D03*
D13*
X15805251Y20115774D03*
X18589130Y15176633D03*
X21883723Y9848281D03*
X20473045Y15339645D03*
X3048000Y-25400000D03*
X-2413000Y-23876000D03*
X3848785Y-23686975D03*
X9518146Y-23745636D03*
X9848281Y-21883723D03*
X15339645Y-20473045D03*
X20115774Y-15805251D03*
X15176633Y-18589130D03*
X23521045Y-10060355D03*
X19470723Y-14027719D03*
X22437915Y-8510343D03*
X25323396Y-3629862D03*
X25400000Y3048000D03*
X23876000Y-2413000D03*
X23745636Y9518146D03*
X23686975Y3848785D03*
X10060355Y23521045D03*
X14027719Y19470723D03*
X3629862Y25323396D03*
X8510343Y22437915D03*
X-3048000Y25400000D03*
X2413000Y23876000D03*
X-9518146Y23745636D03*
X-3848785Y23686975D03*
X-9848281Y21883723D03*
X-15339645Y20473045D03*
X-20115774Y15805251D03*
X-15176633Y18589130D03*
X-19470723Y14027719D03*
X-23521045Y10060355D03*
X-22437915Y8510343D03*
X-25323396Y3629862D03*
X-23876000Y2413000D03*
X-25400000Y-3048000D03*
X-23745636Y-9518146D03*
X-23686975Y-3848785D03*
X-20473045Y-15339645D03*
X-21883723Y-9848281D03*
X-18589130Y-15176633D03*
X-15805251Y-20115774D03*
X-14027719Y-19470723D03*
X-10060355Y-23521045D03*
X7112000Y-3683000D03*
X-8510343Y-22437915D03*
X6985000Y-6350000D03*
X21971000Y-1778000D03*
X1778000Y21971000D03*
X-9445707Y19916444D03*
X14278607Y-16793079D03*
X-16793079Y-14278607D03*
X-15535843Y-17691105D03*
X22299987Y7553024D03*
X4608883Y23088868D03*
X23495000Y1524000D03*
X-19916444Y-9445707D03*
X16793079Y14278607D03*
X-14278607Y16793079D03*
X11176000Y-4064000D03*
X-21109267Y10427677D03*
X-17691105Y15535843D03*
X-1778000Y-21971000D03*
X-22299987Y-7553024D03*
X21682537Y3969097D03*
X-1524000Y23495000D03*
X-7553024Y22299987D03*
X-20762176Y7403929D03*
X-23495000Y-1524000D03*
X-12525293Y-18138444D03*
X13067323Y-19585267D03*
X23088868Y-4608883D03*
X-21682537Y-3969097D03*
X-23088868Y4608883D03*
X-4608883Y-23088868D03*
X-7403929Y-20762176D03*
X17691105Y-15535843D03*
X20762176Y-7403929D03*
X19916444Y9445707D03*
X15535843Y17691105D03*
X-3969097Y21682537D03*
X-10427677Y-21109267D03*
X7403929Y20762176D03*
X15494000Y-7874000D03*
X3969097Y-21682537D03*
X12525293Y18138444D03*
X-2540000Y-508000D03*
X18138444Y-12525293D03*
X-13067323Y19585267D03*
X19585267Y13067323D03*
X-21971000Y1778000D03*
X21109267Y-10427677D03*
X1524000Y-23495000D03*
X9445707Y-19916444D03*
X7553024Y-22299987D03*
X10427677Y21109267D03*
X-18138444Y12525293D03*
X-3048000Y-7112000D03*
X-19585267Y-13067323D03*
X9144000Y-2286000D03*
D14*
X18589130Y15606554D02*
X15805251Y18390433D01*
X18589130Y15176633D02*
X18589130Y15606554D01*
X15805251Y18390433D02*
X15805251Y20115774D01*
X21994994Y10263552D02*
X20026494Y13673094D01*
X21883723Y9848281D02*
X21994995Y10263553D01*
X20026494Y13673094D02*
X20473045Y15339645D01*
X1828000Y-24180000D02*
X3048000Y-25400000D01*
X-2413000Y-23876000D02*
X-2109000Y-24180000D01*
X-2109000Y-24180000D02*
X1828000Y-24180000D01*
X4221107Y-23901936D02*
X8023957Y-22882965D01*
X8023957Y-22882965D02*
X9518146Y-23745635D01*
X3848785Y-23686975D02*
X4221107Y-23901935D01*
X10263552Y-21994994D02*
X13673094Y-20026494D01*
X9848281Y-21883723D02*
X10263553Y-21994995D01*
X13673094Y-20026494D02*
X15339645Y-20473045D01*
X15606554Y-18589130D02*
X18390433Y-15805251D01*
X18390433Y-15805251D02*
X20115774Y-15805251D01*
X15176633Y-18589130D02*
X15606554Y-18589130D01*
X19470723Y-14027719D02*
X19885995Y-13916447D01*
X19885994Y-13916448D02*
X21854494Y-10506906D01*
X21854494Y-10506906D02*
X23521045Y-10060355D01*
X23829208Y-4492532D02*
X25323397Y-3629862D01*
X22810237Y-8295382D02*
X23829208Y-4492532D01*
X22437915Y-8510343D02*
X22810237Y-8295383D01*
X24180000Y1828000D02*
X25400000Y3048000D01*
X24180000Y-2109000D02*
X24180000Y1828000D01*
X23876000Y-2413000D02*
X24180000Y-2109000D01*
X22882965Y8023957D02*
X23745635Y9518146D01*
X23686975Y3848785D02*
X23901935Y4221107D01*
X23901936Y4221107D02*
X22882965Y8023957D01*
X13916448Y19885994D02*
X10506906Y21854494D01*
X10506906Y21854494D02*
X10060355Y23521045D01*
X14027719Y19470723D02*
X13916447Y19885995D01*
X8295382Y22810237D02*
X4492532Y23829208D01*
X8510343Y22437915D02*
X8295383Y22810237D01*
X4492532Y23829208D02*
X3629862Y25323397D01*
X-1828000Y24180000D02*
X-3048000Y25400000D01*
X2413000Y23876000D02*
X2109000Y24180000D01*
X2109000Y24180000D02*
X-1828000Y24180000D01*
X-8023957Y22882965D02*
X-9518146Y23745635D01*
X-4221107Y23901936D02*
X-8023957Y22882965D01*
X-3848785Y23686975D02*
X-4221107Y23901935D01*
X-9848281Y21883723D02*
X-10263553Y21994995D01*
X-10263552Y21994994D02*
X-13673094Y20026494D01*
X-13673094Y20026494D02*
X-15339645Y20473045D01*
X-15606554Y18589130D02*
X-18390433Y15805251D01*
X-15176633Y18589130D02*
X-15606554Y18589130D01*
X-18390433Y15805251D02*
X-20115774Y15805251D01*
X-19470723Y14027719D02*
X-19885995Y13916447D01*
X-21854494Y10506906D02*
X-23521045Y10060355D01*
X-19885994Y13916448D02*
X-21854494Y10506906D01*
X-22437915Y8510343D02*
X-22810237Y8295383D01*
X-23829208Y4492532D02*
X-25323397Y3629862D01*
X-22810237Y8295382D02*
X-23829208Y4492532D01*
X-24180000Y-1828000D02*
X-25400000Y-3048000D01*
X-23876000Y2413000D02*
X-24180000Y2109000D01*
X-24180000Y2109000D02*
X-24180000Y-1828000D01*
X-23901936Y-4221107D02*
X-22882965Y-8023957D01*
X-23686975Y-3848785D02*
X-23901935Y-4221107D01*
X-22882965Y-8023957D02*
X-23745635Y-9518146D01*
X-20026494Y-13673094D02*
X-20473045Y-15339645D01*
X-21883723Y-9848281D02*
X-21994995Y-10263553D01*
X-21994994Y-10263552D02*
X-20026494Y-13673094D01*
X-15805251Y-18390433D02*
X-15805251Y-20115774D01*
X-18589130Y-15606554D02*
X-15805251Y-18390433D01*
X-18589130Y-15176633D02*
X-18589130Y-15606554D01*
X-10506906Y-21854494D02*
X-10060355Y-23521045D01*
X-14027719Y-19470723D02*
X-13916447Y-19885995D01*
X-13916448Y-19885994D02*
X-10506906Y-21854494D01*
X-3556000Y-20955000D02*
X8572500Y-8826500D01*
X-4380486Y-23829208D02*
X-3556000Y-23004722D01*
X-4492532Y-23829208D02*
X-4380486Y-23829208D01*
X-8510343Y-22437915D02*
X-8295383Y-22810237D01*
X-8295382Y-22810237D02*
X-4492532Y-23829208D01*
X-3556000Y-23004722D02*
X-3556000Y-20955000D01*
X8572500Y-5143500D02*
X7112000Y-3683000D01*
X8572500Y-8826500D02*
X8572500Y-5143500D01*
X2540000Y-4445000D02*
X1905000Y-3810000D01*
X6985000Y-6350000D02*
X5080000Y-4445000D01*
X-11430000Y8890000D02*
X-12700000Y10160000D01*
X5080000Y-4445000D02*
X2540000Y-4445000D01*
X-7620000Y-3810000D02*
X-11430000Y0D01*
X-11430000Y0D02*
X-11430000Y8890000D01*
X1905000Y-3810000D02*
X-7620000Y-3810000D01*
G04 #@! TA.AperFunction,Conductor*
G36*
X507672Y26126272D02*
G01*
X1518432Y26087049D01*
X1520329Y26086939D01*
X2528837Y26008551D01*
X2530729Y26008367D01*
X3283248Y25920410D01*
X3315995Y25902133D01*
X3326228Y25866052D01*
X3307951Y25833305D01*
X3307388Y25832867D01*
X3201579Y25751678D01*
X3164106Y25702841D01*
X3105326Y25626237D01*
X3069069Y25538704D01*
X3044818Y25480158D01*
X3024180Y25323396D01*
X3044818Y25166633D01*
X3073596Y25097157D01*
X3103064Y25026015D01*
X3105327Y25020553D01*
X3201579Y24895113D01*
X3327019Y24798861D01*
X3327020Y24798860D01*
X3327021Y24798860D01*
X3337986Y24794318D01*
X3473099Y24738351D01*
X3577588Y24724595D01*
X3610067Y24705843D01*
X3613627Y24700514D01*
X4202464Y23680618D01*
X4204438Y23676827D01*
X4221784Y23639629D01*
X4250817Y23610596D01*
X4253692Y23607457D01*
X4269024Y23589186D01*
X4280079Y23576012D01*
X4287088Y23571965D01*
X4297226Y23564186D01*
X4302953Y23558460D01*
X4340147Y23541115D01*
X4343935Y23539143D01*
X4379486Y23518618D01*
X4419924Y23511487D01*
X4424095Y23510562D01*
X7880960Y22584297D01*
X7910713Y22561467D01*
X7916859Y22530571D01*
X7904661Y22437915D01*
X7925299Y22281152D01*
X7985808Y22135072D01*
X8082060Y22009632D01*
X8207500Y21913380D01*
X8353580Y21852871D01*
X8510343Y21832233D01*
X8667105Y21852871D01*
X8813184Y21913379D01*
X8836862Y21931548D01*
X8938625Y22009632D01*
X9034877Y22135072D01*
X9034879Y22135074D01*
X9095387Y22281153D01*
X9116025Y22437915D01*
X9095387Y22594677D01*
X9034879Y22740756D01*
X8938625Y22866197D01*
X8813184Y22962451D01*
X8667105Y23022959D01*
X8545127Y23039017D01*
X8513987Y23056102D01*
X8507838Y23063431D01*
X8500826Y23067478D01*
X8490676Y23075268D01*
X8484961Y23080984D01*
X8447735Y23098341D01*
X8444002Y23100285D01*
X8408428Y23120825D01*
X8367989Y23127955D01*
X8363827Y23128878D01*
X4726613Y24103468D01*
X4696862Y24126297D01*
X4681909Y24152196D01*
X4177409Y25026015D01*
X4172515Y25063197D01*
X4174575Y25069267D01*
X4214906Y25166634D01*
X4235544Y25323396D01*
X4214906Y25480158D01*
X4154398Y25626237D01*
X4082523Y25719905D01*
X4072818Y25756126D01*
X4091569Y25788605D01*
X4127794Y25798312D01*
X4128970Y25798143D01*
X4536697Y25734377D01*
X4538569Y25734047D01*
X5531167Y25539107D01*
X5533024Y25538704D01*
X6517278Y25305431D01*
X6519118Y25304957D01*
X7493599Y25033693D01*
X7495420Y25033148D01*
X8458654Y24724299D01*
X8460452Y24723684D01*
X9411001Y24377712D01*
X9412774Y24377027D01*
X9878914Y24186587D01*
X9905561Y24160198D01*
X9905742Y24122695D01*
X9879353Y24096048D01*
X9757514Y24045581D01*
X9710156Y24009242D01*
X9632072Y23949327D01*
X9564999Y23861914D01*
X9535819Y23823886D01*
X9515136Y23773952D01*
X9475311Y23677807D01*
X9454673Y23521045D01*
X9475311Y23364282D01*
X9494750Y23317353D01*
X9534619Y23221100D01*
X9535820Y23218202D01*
X9632072Y23092762D01*
X9757511Y22996510D01*
X9854881Y22956177D01*
X9881399Y22929658D01*
X9883459Y22923589D01*
X10188266Y21786034D01*
X10189191Y21781862D01*
X10196317Y21741448D01*
X10216837Y21705905D01*
X10218809Y21702117D01*
X10236158Y21664914D01*
X10241886Y21659185D01*
X10249667Y21649043D01*
X10253711Y21642039D01*
X10285147Y21615660D01*
X10288296Y21612774D01*
X10317325Y21583746D01*
X10354534Y21566395D01*
X10358325Y21564421D01*
X13457669Y19775014D01*
X13480499Y19745261D01*
X13478439Y19713827D01*
X13442675Y19627485D01*
X13422037Y19470723D01*
X13442675Y19313960D01*
X13503184Y19167880D01*
X13599436Y19042440D01*
X13724876Y18946188D01*
X13870956Y18885679D01*
X14027719Y18865041D01*
X14184481Y18885679D01*
X14330560Y18946187D01*
X14354238Y18964356D01*
X14456001Y19042440D01*
X14552253Y19167880D01*
X14552255Y19167882D01*
X14612763Y19313961D01*
X14633401Y19470723D01*
X14612763Y19627485D01*
X14552255Y19773564D01*
X14456001Y19899005D01*
X14330560Y19995259D01*
X14216895Y20042339D01*
X14191237Y20066903D01*
X14187194Y20075573D01*
X14187194Y20075574D01*
X14181474Y20081292D01*
X14173687Y20091440D01*
X14169642Y20098449D01*
X14138187Y20124841D01*
X14135047Y20127720D01*
X14106027Y20156741D01*
X14106026Y20156741D01*
X14106026Y20156742D01*
X14068813Y20174094D01*
X14065043Y20176057D01*
X10803994Y22058824D01*
X10781166Y22088575D01*
X10512277Y23092080D01*
X10517172Y23129262D01*
X10520733Y23134591D01*
X10549290Y23171808D01*
X10584891Y23218204D01*
X10645399Y23364283D01*
X10666037Y23521045D01*
X10645399Y23677807D01*
X10600037Y23787320D01*
X10600037Y23824822D01*
X10626555Y23851341D01*
X10664058Y23851341D01*
X10665584Y23850679D01*
X11271788Y23575126D01*
X11273502Y23574306D01*
X12177437Y23120333D01*
X12179119Y23119447D01*
X13064784Y22630758D01*
X13066429Y22629808D01*
X13932460Y22107155D01*
X13934068Y22106142D01*
X14779209Y21550285D01*
X14780776Y21549210D01*
X15603705Y20961015D01*
X15605229Y20959880D01*
X15804363Y20805539D01*
X15822957Y20772970D01*
X15813075Y20736793D01*
X15780742Y20718229D01*
X15648489Y20700818D01*
X15502410Y20640310D01*
X15455052Y20603971D01*
X15376968Y20544056D01*
X15322480Y20473045D01*
X15280715Y20418615D01*
X15223839Y20281305D01*
X15220207Y20272536D01*
X15199569Y20115774D01*
X15220207Y19959011D01*
X15280716Y19812931D01*
X15376967Y19687493D01*
X15460581Y19623334D01*
X15479332Y19590855D01*
X15479751Y19584460D01*
X15479751Y18406791D01*
X15479565Y18402520D01*
X15475986Y18361625D01*
X15486614Y18321961D01*
X15487538Y18317790D01*
X15494662Y18277388D01*
X15498710Y18270377D01*
X15503602Y18258566D01*
X15505697Y18250747D01*
X15529233Y18217134D01*
X15531528Y18213532D01*
X15552056Y18177978D01*
X15583505Y18151588D01*
X15586655Y18148701D01*
X18117260Y15618095D01*
X18131612Y15583447D01*
X18121487Y15553619D01*
X18064594Y15479474D01*
X18022135Y15376969D01*
X18004086Y15333395D01*
X17983448Y15176633D01*
X18004086Y15019870D01*
X18064595Y14873790D01*
X18160847Y14748350D01*
X18286287Y14652098D01*
X18432367Y14591589D01*
X18589129Y14570951D01*
X18589130Y14570951D01*
X18745892Y14591589D01*
X18891971Y14652097D01*
X18915649Y14670266D01*
X19017412Y14748350D01*
X19113664Y14873790D01*
X19113666Y14873792D01*
X19174174Y15019871D01*
X19194812Y15176633D01*
X19174174Y15333395D01*
X19113666Y15479474D01*
X19017412Y15604915D01*
X18919803Y15679811D01*
X18901379Y15710175D01*
X18899718Y15719599D01*
X18895669Y15726611D01*
X18890777Y15738422D01*
X18888683Y15746238D01*
X18865136Y15779865D01*
X18862855Y15783445D01*
X18842324Y15819009D01*
X18810880Y15845393D01*
X18807739Y15848270D01*
X16145103Y18510907D01*
X16130751Y18545555D01*
X16130751Y19584460D01*
X16145103Y19619108D01*
X16149921Y19623334D01*
X16233534Y19687493D01*
X16281868Y19750484D01*
X16329787Y19812933D01*
X16390295Y19959012D01*
X16410933Y20115774D01*
X16394924Y20237373D01*
X16404631Y20273598D01*
X16437109Y20292350D01*
X16473334Y20282643D01*
X16475002Y20281305D01*
X17181111Y19688809D01*
X17182542Y19687560D01*
X17931618Y19007810D01*
X17933001Y19006506D01*
X18655189Y18298188D01*
X18656519Y18296831D01*
X19350665Y17561081D01*
X19351942Y17559674D01*
X20017048Y16797546D01*
X20018270Y16796090D01*
X20653331Y16008738D01*
X20654500Y16007229D01*
X20656100Y16005079D01*
X20665272Y15968714D01*
X20646045Y15936516D01*
X20610396Y15927244D01*
X20473045Y15945327D01*
X20316283Y15924689D01*
X20170204Y15864181D01*
X20137502Y15839088D01*
X20044762Y15767927D01*
X19977148Y15679809D01*
X19948509Y15642486D01*
X19901598Y15529233D01*
X19888001Y15496407D01*
X19867363Y15339645D01*
X19888001Y15182882D01*
X19918255Y15109843D01*
X19948509Y15036804D01*
X19961503Y15019870D01*
X20012666Y14953192D01*
X20022372Y14916967D01*
X20021121Y14910681D01*
X19716316Y13773130D01*
X19715031Y13769053D01*
X19700994Y13730487D01*
X19700994Y13689444D01*
X19700808Y13685174D01*
X19697230Y13644285D01*
X19699324Y13636475D01*
X19700994Y13623792D01*
X19700994Y13615698D01*
X19715034Y13577123D01*
X19716319Y13573047D01*
X19726939Y13533410D01*
X19750479Y13499791D01*
X19752775Y13496187D01*
X21542190Y10396829D01*
X21547085Y10359647D01*
X21529584Y10333455D01*
X21455440Y10276563D01*
X21377356Y10174800D01*
X21359187Y10151122D01*
X21329450Y10079331D01*
X21298679Y10005043D01*
X21278041Y9848281D01*
X21298679Y9691518D01*
X21359188Y9545438D01*
X21455440Y9419998D01*
X21580880Y9323746D01*
X21726960Y9263237D01*
X21883722Y9242599D01*
X21883723Y9242599D01*
X22040485Y9263237D01*
X22186564Y9323745D01*
X22235614Y9361382D01*
X22312005Y9419998D01*
X22371920Y9498082D01*
X22408259Y9545440D01*
X22468767Y9691519D01*
X22489405Y9848281D01*
X22468767Y10005043D01*
X22408259Y10151122D01*
X22333361Y10248729D01*
X22323424Y10282828D01*
X22324258Y10292359D01*
X22322164Y10300175D01*
X22320494Y10312858D01*
X22320494Y10320944D01*
X22320494Y10320946D01*
X22306452Y10359522D01*
X22305179Y10363561D01*
X22294549Y10403237D01*
X22270987Y10436886D01*
X22268711Y10440457D01*
X20385945Y13701504D01*
X20381051Y13738685D01*
X20468993Y14066890D01*
X20649939Y14742190D01*
X20672768Y14771942D01*
X20678510Y14774774D01*
X20775886Y14815109D01*
X20852361Y14873790D01*
X20901327Y14911362D01*
X20997579Y15036802D01*
X20997581Y15036804D01*
X21058089Y15182883D01*
X21073898Y15302965D01*
X21092650Y15335443D01*
X21128875Y15345150D01*
X21161353Y15326398D01*
X21161783Y15325830D01*
X21258542Y15195859D01*
X21259647Y15194313D01*
X21831784Y14360116D01*
X21832828Y14358528D01*
X22372179Y13502791D01*
X22373161Y13501164D01*
X22878933Y12625142D01*
X22879851Y12623478D01*
X23351267Y11728516D01*
X23352120Y11726818D01*
X23788479Y10814250D01*
X23789266Y10812520D01*
X24089357Y10116830D01*
X24089902Y10079331D01*
X24063772Y10052429D01*
X24026273Y10051884D01*
X24025726Y10052105D01*
X23902398Y10103190D01*
X23745636Y10123828D01*
X23588874Y10103190D01*
X23442795Y10042682D01*
X23395437Y10006343D01*
X23317353Y9946428D01*
X23264237Y9877205D01*
X23221100Y9820987D01*
X23194201Y9756047D01*
X23160592Y9674908D01*
X23139954Y9518146D01*
X23160592Y9361382D01*
X23200922Y9264017D01*
X23200922Y9226514D01*
X23198088Y9220768D01*
X22883325Y8675582D01*
X22609247Y8200865D01*
X22606951Y8197260D01*
X22583410Y8163640D01*
X22572789Y8124001D01*
X22571504Y8119926D01*
X22557465Y8081352D01*
X22557465Y8073258D01*
X22555795Y8060574D01*
X22553701Y8052763D01*
X22557279Y8011875D01*
X22557465Y8007605D01*
X22557465Y7966560D01*
X22571502Y7927990D01*
X22572787Y7923915D01*
X23499056Y4467037D01*
X23494161Y4429855D01*
X23470477Y4409085D01*
X23384134Y4373321D01*
X23382858Y4372342D01*
X23258692Y4277067D01*
X23201448Y4202464D01*
X23162439Y4151626D01*
X23115276Y4037765D01*
X23101931Y4005547D01*
X23081293Y3848785D01*
X23101931Y3692022D01*
X23162440Y3545942D01*
X23258692Y3420502D01*
X23384132Y3324250D01*
X23384133Y3324249D01*
X23384134Y3324249D01*
X23424784Y3307411D01*
X23530212Y3263741D01*
X23686975Y3243103D01*
X23843737Y3263741D01*
X23989816Y3324249D01*
X24013494Y3342418D01*
X24115257Y3420502D01*
X24187945Y3515232D01*
X24211511Y3545944D01*
X24272019Y3692023D01*
X24292657Y3848785D01*
X24272019Y4005547D01*
X24224936Y4119212D01*
X24224162Y4154723D01*
X24227434Y4163712D01*
X24227434Y4171798D01*
X24229104Y4184481D01*
X24231199Y4192301D01*
X24227621Y4233190D01*
X24227434Y4237463D01*
X24227434Y4253704D01*
X24227435Y4278501D01*
X24213394Y4317072D01*
X24212120Y4321114D01*
X23237522Y7958364D01*
X23242417Y7995546D01*
X23287284Y8073258D01*
X23761870Y8895265D01*
X23791622Y8918094D01*
X23797908Y8919345D01*
X23902398Y8933101D01*
X24000253Y8973635D01*
X24048477Y8993610D01*
X24077183Y9015637D01*
X24173918Y9089863D01*
X24263250Y9206284D01*
X24270172Y9215305D01*
X24315352Y9324380D01*
X24341871Y9350898D01*
X24379374Y9350898D01*
X24405892Y9324379D01*
X24406333Y9323277D01*
X24554974Y8938289D01*
X24555624Y8936503D01*
X24883096Y7979432D01*
X24883676Y7977622D01*
X25173781Y7008602D01*
X25174291Y7006772D01*
X25426617Y6027184D01*
X25427055Y6025334D01*
X25641193Y5036758D01*
X25641560Y5034894D01*
X25817220Y4038683D01*
X25817513Y4036805D01*
X25885656Y3537903D01*
X25876125Y3501631D01*
X25843738Y3482723D01*
X25807467Y3492253D01*
X25702841Y3572536D01*
X25556762Y3633044D01*
X25400000Y3653682D01*
X25243238Y3633044D01*
X25097159Y3572536D01*
X25062504Y3545944D01*
X24971717Y3476282D01*
X24893633Y3374519D01*
X24875464Y3350841D01*
X24814956Y3204762D01*
X24794318Y3048000D01*
X24808074Y2943511D01*
X24798367Y2907286D01*
X24794141Y2902467D01*
X23961398Y2069724D01*
X23958259Y2066847D01*
X23926806Y2040455D01*
X23926805Y2040453D01*
X23906284Y2004911D01*
X23903988Y2001306D01*
X23892373Y1984717D01*
X23880445Y1967682D01*
X23878351Y1959867D01*
X23873456Y1948050D01*
X23869411Y1941044D01*
X23862285Y1900632D01*
X23861360Y1896460D01*
X23850735Y1856809D01*
X23854314Y1815911D01*
X23854500Y1811640D01*
X23854500Y-1767176D01*
X23840148Y-1801824D01*
X23811896Y-1815757D01*
X23719237Y-1827956D01*
X23573157Y-1888465D01*
X23447717Y-1984717D01*
X23351465Y-2110157D01*
X23290956Y-2256237D01*
X23286377Y-2291022D01*
X23270318Y-2413000D01*
X23290956Y-2569762D01*
X23351464Y-2715841D01*
X23364256Y-2732512D01*
X23447717Y-2841282D01*
X23470373Y-2858666D01*
X23573159Y-2937536D01*
X23719238Y-2998044D01*
X23876000Y-3018682D01*
X24032762Y-2998044D01*
X24178841Y-2937536D01*
X24304282Y-2841282D01*
X24400536Y-2715841D01*
X24461044Y-2569762D01*
X24481682Y-2413000D01*
X24465623Y-2291021D01*
X24474066Y-2256520D01*
X24479554Y-2248684D01*
X24481648Y-2240865D01*
X24486541Y-2229052D01*
X24490588Y-2222045D01*
X24497715Y-2181623D01*
X24498640Y-2177452D01*
X24509264Y-2137807D01*
X24505686Y-2096911D01*
X24505500Y-2092640D01*
X24505500Y1672877D01*
X24519852Y1707525D01*
X25254467Y2442141D01*
X25289115Y2456493D01*
X25295511Y2456074D01*
X25399999Y2442318D01*
X25400000Y2442318D01*
X25556762Y2462956D01*
X25702841Y2523464D01*
X25763178Y2569762D01*
X25828279Y2619715D01*
X25828280Y2619716D01*
X25828282Y2619718D01*
X25900444Y2713761D01*
X25932920Y2732512D01*
X25969145Y2722806D01*
X25987897Y2690327D01*
X25988086Y2688675D01*
X26052552Y2025910D01*
X26052699Y2024015D01*
X26111514Y1014204D01*
X26111588Y1012305D01*
X26131203Y950D01*
X26131203Y-950D01*
X26111588Y-1012305D01*
X26111514Y-1014204D01*
X26052699Y-2024015D01*
X26052552Y-2025910D01*
X25954622Y-3032715D01*
X25954401Y-3034602D01*
X25920307Y-3284213D01*
X25901398Y-3316600D01*
X25865127Y-3326131D01*
X25832886Y-3307412D01*
X25751678Y-3201580D01*
X25751676Y-3201578D01*
X25751675Y-3201577D01*
X25626238Y-3105327D01*
X25626237Y-3105326D01*
X25480158Y-3044818D01*
X25323396Y-3024180D01*
X25166633Y-3044818D01*
X25020553Y-3105327D01*
X24895113Y-3201579D01*
X24798861Y-3327019D01*
X24738351Y-3473099D01*
X24724595Y-3577588D01*
X24705843Y-3610067D01*
X24700514Y-3613627D01*
X23680618Y-4202464D01*
X23676827Y-4204438D01*
X23639627Y-4221785D01*
X23610604Y-4250807D01*
X23607455Y-4253693D01*
X23576014Y-4280077D01*
X23571966Y-4287087D01*
X23564184Y-4297228D01*
X23558462Y-4302950D01*
X23541115Y-4340150D01*
X23539142Y-4343939D01*
X23518619Y-4379487D01*
X23511491Y-4419907D01*
X23510566Y-4424079D01*
X22584297Y-7880960D01*
X22561467Y-7910713D01*
X22530571Y-7916859D01*
X22437915Y-7904661D01*
X22281152Y-7925299D01*
X22201327Y-7958364D01*
X22154835Y-7977622D01*
X22135072Y-7985808D01*
X22009632Y-8082060D01*
X21913380Y-8207500D01*
X21852871Y-8353580D01*
X21845650Y-8408428D01*
X21832233Y-8510343D01*
X21852871Y-8667105D01*
X21913379Y-8813184D01*
X21913380Y-8813185D01*
X22009632Y-8938625D01*
X22055259Y-8973635D01*
X22135074Y-9034879D01*
X22281153Y-9095387D01*
X22437915Y-9116025D01*
X22594677Y-9095387D01*
X22740756Y-9034879D01*
X22866197Y-8938625D01*
X22962451Y-8813184D01*
X23022959Y-8667105D01*
X23039017Y-8545126D01*
X23056102Y-8513986D01*
X23063430Y-8507838D01*
X23067475Y-8500829D01*
X23075264Y-8490680D01*
X23080984Y-8484961D01*
X23098336Y-8447746D01*
X23100294Y-8443985D01*
X23120825Y-8408428D01*
X23127955Y-8367984D01*
X23128874Y-8363842D01*
X24103468Y-4726613D01*
X24126296Y-4696862D01*
X25026015Y-4177409D01*
X25063197Y-4172515D01*
X25069262Y-4174573D01*
X25166634Y-4214906D01*
X25323396Y-4235544D01*
X25480158Y-4214906D01*
X25626237Y-4154398D01*
X25723543Y-4079731D01*
X25759766Y-4070026D01*
X25792244Y-4088777D01*
X25801951Y-4125003D01*
X25801626Y-4127116D01*
X25641560Y-5034894D01*
X25641193Y-5036758D01*
X25427055Y-6025334D01*
X25426617Y-6027184D01*
X25174291Y-7006772D01*
X25173781Y-7008602D01*
X24883676Y-7977622D01*
X24883096Y-7979432D01*
X24555624Y-8936503D01*
X24554974Y-8938289D01*
X24190646Y-9881923D01*
X24189927Y-9883683D01*
X24188858Y-9886161D01*
X24161956Y-9912291D01*
X24124457Y-9911744D01*
X24098596Y-9885504D01*
X24097842Y-9883683D01*
X24045581Y-9757514D01*
X24009242Y-9710156D01*
X23949327Y-9632072D01*
X23823887Y-9535820D01*
X23823886Y-9535819D01*
X23677807Y-9475311D01*
X23521045Y-9454673D01*
X23521044Y-9454673D01*
X23364282Y-9475311D01*
X23218202Y-9535820D01*
X23092762Y-9632072D01*
X22996510Y-9757511D01*
X22956177Y-9854882D01*
X22929658Y-9881400D01*
X22923589Y-9883460D01*
X21786046Y-10188263D01*
X21781875Y-10189188D01*
X21741448Y-10196317D01*
X21705900Y-10216840D01*
X21702112Y-10218813D01*
X21664912Y-10236160D01*
X21659190Y-10241882D01*
X21649049Y-10249664D01*
X21642039Y-10253712D01*
X21615655Y-10285153D01*
X21612770Y-10288302D01*
X21583746Y-10317328D01*
X21566399Y-10354526D01*
X21564426Y-10358316D01*
X19775014Y-13457669D01*
X19745261Y-13480499D01*
X19713827Y-13478439D01*
X19627485Y-13442675D01*
X19470723Y-13422037D01*
X19313960Y-13442675D01*
X19277762Y-13457669D01*
X19168829Y-13502791D01*
X19167880Y-13503184D01*
X19042440Y-13599436D01*
X18946188Y-13724876D01*
X18891000Y-13858112D01*
X18885679Y-13870957D01*
X18865041Y-14027719D01*
X18885679Y-14184481D01*
X18946187Y-14330560D01*
X18946188Y-14330561D01*
X19042440Y-14456001D01*
X19118457Y-14514330D01*
X19167882Y-14552255D01*
X19313961Y-14612763D01*
X19470723Y-14633401D01*
X19627485Y-14612763D01*
X19773564Y-14552255D01*
X19899005Y-14456001D01*
X19995259Y-14330560D01*
X20042339Y-14216895D01*
X20066903Y-14191237D01*
X20075574Y-14187194D01*
X20081292Y-14181474D01*
X20091440Y-14173687D01*
X20098449Y-14169642D01*
X20124841Y-14138187D01*
X20127720Y-14135047D01*
X20156741Y-14106027D01*
X20156741Y-14106026D01*
X20156742Y-14106026D01*
X20174094Y-14068813D01*
X20176061Y-14065036D01*
X20182941Y-14053120D01*
X22058824Y-10803994D01*
X22088575Y-10781166D01*
X23092081Y-10512277D01*
X23129263Y-10517172D01*
X23134587Y-10520729D01*
X23218204Y-10584891D01*
X23364283Y-10645399D01*
X23521045Y-10666037D01*
X23677807Y-10645399D01*
X23789708Y-10599048D01*
X23827208Y-10599048D01*
X23853727Y-10625566D01*
X23853727Y-10663069D01*
X23853450Y-10663726D01*
X23789266Y-10812520D01*
X23788479Y-10814250D01*
X23352120Y-11726818D01*
X23351267Y-11728516D01*
X22879851Y-12623478D01*
X22878933Y-12625142D01*
X22373161Y-13501164D01*
X22372179Y-13502791D01*
X21832828Y-14358528D01*
X21831784Y-14360116D01*
X21259647Y-15194314D01*
X21258542Y-15195860D01*
X20806110Y-15803580D01*
X20773908Y-15822802D01*
X20737545Y-15813623D01*
X20718323Y-15781421D01*
X20718238Y-15780808D01*
X20700818Y-15648489D01*
X20698331Y-15642486D01*
X20673898Y-15583499D01*
X20640310Y-15502410D01*
X20594670Y-15442930D01*
X20544056Y-15376968D01*
X20418616Y-15280716D01*
X20418615Y-15280715D01*
X20272536Y-15220207D01*
X20115774Y-15199569D01*
X19959011Y-15220207D01*
X19812931Y-15280716D01*
X19687491Y-15376968D01*
X19623335Y-15460580D01*
X19590857Y-15479332D01*
X19584461Y-15479751D01*
X18406780Y-15479751D01*
X18402509Y-15479565D01*
X18361625Y-15475987D01*
X18321975Y-15486611D01*
X18317804Y-15487535D01*
X18277388Y-15494662D01*
X18270373Y-15498712D01*
X18258564Y-15503603D01*
X18250748Y-15505697D01*
X18217131Y-15529236D01*
X18213532Y-15531528D01*
X18177978Y-15552057D01*
X18177977Y-15552057D01*
X18177977Y-15552058D01*
X18151593Y-15583499D01*
X18148706Y-15586649D01*
X15618095Y-18117260D01*
X15583447Y-18131612D01*
X15553619Y-18121487D01*
X15479474Y-18064594D01*
X15333395Y-18004086D01*
X15176633Y-17983448D01*
X15176632Y-17983448D01*
X15019870Y-18004086D01*
X14873790Y-18064595D01*
X14748350Y-18160847D01*
X14652098Y-18286287D01*
X14652097Y-18286288D01*
X14652097Y-18286289D01*
X14591589Y-18432368D01*
X14570951Y-18589130D01*
X14591589Y-18745892D01*
X14652097Y-18891971D01*
X14659316Y-18901379D01*
X14748350Y-19017412D01*
X14826434Y-19077327D01*
X14873792Y-19113666D01*
X15019871Y-19174174D01*
X15176633Y-19194812D01*
X15333395Y-19174174D01*
X15479474Y-19113666D01*
X15604915Y-19017412D01*
X15613283Y-19006506D01*
X15679810Y-18919806D01*
X15710175Y-18901379D01*
X15719599Y-18899718D01*
X15726606Y-18895671D01*
X15738419Y-18890778D01*
X15746238Y-18888684D01*
X15779884Y-18865123D01*
X15783439Y-18862859D01*
X15819009Y-18842324D01*
X15845408Y-18810861D01*
X15848275Y-18807733D01*
X18510907Y-16145103D01*
X18545556Y-16130751D01*
X19584461Y-16130751D01*
X19619109Y-16145103D01*
X19623335Y-16149922D01*
X19687491Y-16233533D01*
X19765575Y-16293448D01*
X19812933Y-16329787D01*
X19959012Y-16390295D01*
X20115774Y-16410933D01*
X20232825Y-16395523D01*
X20269050Y-16405230D01*
X20287802Y-16437708D01*
X20278095Y-16473933D01*
X20277361Y-16474867D01*
X20018270Y-16796090D01*
X20017048Y-16797546D01*
X19351942Y-17559674D01*
X19350665Y-17561081D01*
X18656519Y-18296831D01*
X18655189Y-18298188D01*
X17933001Y-19006506D01*
X17931618Y-19007810D01*
X17182542Y-19687560D01*
X17181111Y-19688809D01*
X16406214Y-20339024D01*
X16404734Y-20340217D01*
X16006742Y-20648684D01*
X15970565Y-20658566D01*
X15937996Y-20639972D01*
X15928114Y-20603795D01*
X15928127Y-20603690D01*
X15945327Y-20473045D01*
X15924689Y-20316283D01*
X15864181Y-20170204D01*
X15803749Y-20091447D01*
X15767927Y-20044762D01*
X15656174Y-19959012D01*
X15642486Y-19948509D01*
X15496407Y-19888001D01*
X15339645Y-19867363D01*
X15182882Y-19888001D01*
X15109843Y-19918255D01*
X15036804Y-19948509D01*
X14982618Y-19990086D01*
X14953192Y-20012666D01*
X14916967Y-20022372D01*
X14910681Y-20021121D01*
X13873510Y-19743212D01*
X13773128Y-19716315D01*
X13769053Y-19715031D01*
X13765745Y-19713827D01*
X13730488Y-19700994D01*
X13689445Y-19700994D01*
X13685175Y-19700808D01*
X13644286Y-19697230D01*
X13638205Y-19698860D01*
X13636474Y-19699324D01*
X13623793Y-19700994D01*
X13615699Y-19700994D01*
X13577123Y-19715034D01*
X13573047Y-19716319D01*
X13533410Y-19726939D01*
X13499791Y-19750479D01*
X13496187Y-19752775D01*
X10396829Y-21542190D01*
X10359647Y-21547085D01*
X10333455Y-21529584D01*
X10276563Y-21455440D01*
X10151123Y-21359188D01*
X10151122Y-21359187D01*
X10005043Y-21298679D01*
X9848281Y-21278041D01*
X9691518Y-21298679D01*
X9545438Y-21359188D01*
X9419998Y-21455440D01*
X9323746Y-21580880D01*
X9263237Y-21726960D01*
X9255732Y-21783971D01*
X9242599Y-21883723D01*
X9263237Y-22040485D01*
X9323745Y-22186564D01*
X9341914Y-22210242D01*
X9419998Y-22312005D01*
X9435967Y-22324258D01*
X9545440Y-22408259D01*
X9691519Y-22468767D01*
X9848281Y-22489405D01*
X10005043Y-22468767D01*
X10151122Y-22408259D01*
X10248729Y-22333361D01*
X10282828Y-22323424D01*
X10292359Y-22324258D01*
X10292359Y-22324257D01*
X10292360Y-22324258D01*
X10300175Y-22322163D01*
X10312858Y-22320494D01*
X10320944Y-22320494D01*
X10320946Y-22320494D01*
X10359522Y-22306452D01*
X10363561Y-22305179D01*
X10403237Y-22294549D01*
X10436886Y-22270987D01*
X10440457Y-22268711D01*
X13701504Y-20385945D01*
X13738685Y-20381051D01*
X13767243Y-20388703D01*
X14742190Y-20649939D01*
X14771942Y-20672768D01*
X14774774Y-20678510D01*
X14815109Y-20775886D01*
X14815110Y-20775887D01*
X14911362Y-20901327D01*
X14943766Y-20926191D01*
X15036804Y-20997581D01*
X15182883Y-21058089D01*
X15300406Y-21073561D01*
X15332884Y-21092313D01*
X15342591Y-21128538D01*
X15323839Y-21161016D01*
X15322503Y-21162006D01*
X14780776Y-21549210D01*
X14779209Y-21550285D01*
X13934068Y-22106142D01*
X13932460Y-22107155D01*
X13066429Y-22629808D01*
X13064784Y-22630758D01*
X12179119Y-23119447D01*
X12177437Y-23120333D01*
X11273502Y-23574306D01*
X11271788Y-23575126D01*
X10350919Y-23993712D01*
X10349174Y-23994464D01*
X10115944Y-24089749D01*
X10078441Y-24089568D01*
X10052052Y-24062921D01*
X10052141Y-24025638D01*
X10103190Y-23902398D01*
X10123828Y-23745636D01*
X10103190Y-23588874D01*
X10042682Y-23442795D01*
X9997669Y-23384133D01*
X9946428Y-23317353D01*
X9820988Y-23221101D01*
X9820987Y-23221100D01*
X9674908Y-23160592D01*
X9518146Y-23139954D01*
X9361382Y-23160592D01*
X9264017Y-23200922D01*
X9226514Y-23200922D01*
X9220766Y-23198087D01*
X9127784Y-23144404D01*
X8237333Y-22630302D01*
X8200865Y-22609247D01*
X8197260Y-22606951D01*
X8163640Y-22583410D01*
X8124001Y-22572789D01*
X8119926Y-22571504D01*
X8081352Y-22557465D01*
X8081351Y-22557465D01*
X8073258Y-22557465D01*
X8060576Y-22555795D01*
X8058504Y-22555240D01*
X8052764Y-22553701D01*
X8011876Y-22557279D01*
X8007606Y-22557465D01*
X7966560Y-22557465D01*
X7927990Y-22571502D01*
X7923915Y-22572787D01*
X4467037Y-23499056D01*
X4429855Y-23494161D01*
X4409085Y-23470477D01*
X4399658Y-23447718D01*
X4373321Y-23384134D01*
X4348253Y-23351465D01*
X4277067Y-23258692D01*
X4151627Y-23162440D01*
X4151626Y-23162439D01*
X4005547Y-23101931D01*
X3848785Y-23081293D01*
X3848784Y-23081293D01*
X3692022Y-23101931D01*
X3545942Y-23162440D01*
X3420502Y-23258692D01*
X3324250Y-23384132D01*
X3267539Y-23521045D01*
X3263741Y-23530213D01*
X3243103Y-23686975D01*
X3263741Y-23843737D01*
X3324249Y-23989816D01*
X3327543Y-23994109D01*
X3420502Y-24115257D01*
X3476822Y-24158472D01*
X3545944Y-24211511D01*
X3692023Y-24272019D01*
X3848785Y-24292657D01*
X4005547Y-24272019D01*
X4119212Y-24224936D01*
X4154723Y-24224162D01*
X4163713Y-24227434D01*
X4171799Y-24227434D01*
X4184479Y-24229103D01*
X4192300Y-24231199D01*
X4192301Y-24231198D01*
X4192302Y-24231199D01*
X4216243Y-24229104D01*
X4233193Y-24227620D01*
X4237461Y-24227434D01*
X4278501Y-24227435D01*
X4317072Y-24213394D01*
X4321114Y-24212120D01*
X7958364Y-23237522D01*
X7995545Y-23242416D01*
X8895265Y-23761870D01*
X8918094Y-23791622D01*
X8919345Y-23797908D01*
X8933101Y-23902398D01*
X8969312Y-23989816D01*
X8993610Y-24048477D01*
X8995509Y-24050952D01*
X9089863Y-24173918D01*
X9159609Y-24227435D01*
X9215305Y-24270172D01*
X9328617Y-24317107D01*
X9355135Y-24343626D01*
X9355135Y-24381129D01*
X9328616Y-24407647D01*
X9326624Y-24408422D01*
X8460452Y-24723684D01*
X8458654Y-24724299D01*
X7495420Y-25033148D01*
X7493599Y-25033693D01*
X6519118Y-25304957D01*
X6517278Y-25305431D01*
X5533024Y-25538704D01*
X5531167Y-25539107D01*
X4538569Y-25734047D01*
X4536697Y-25734377D01*
X3537306Y-25890678D01*
X3535425Y-25890934D01*
X3532765Y-25891245D01*
X3496685Y-25881014D01*
X3478407Y-25848267D01*
X3488200Y-25812749D01*
X3572536Y-25702841D01*
X3633044Y-25556762D01*
X3653682Y-25400000D01*
X3633044Y-25243238D01*
X3572536Y-25097159D01*
X3523419Y-25033148D01*
X3476282Y-24971717D01*
X3350842Y-24875465D01*
X3350841Y-24875464D01*
X3204762Y-24814956D01*
X3048000Y-24794318D01*
X3047999Y-24794318D01*
X2943511Y-24808074D01*
X2907286Y-24798367D01*
X2902467Y-24794141D01*
X2069724Y-23961398D01*
X2066847Y-23958259D01*
X2040455Y-23926806D01*
X2004911Y-23906284D01*
X2001306Y-23903988D01*
X1997306Y-23901187D01*
X1967684Y-23880446D01*
X1967683Y-23880445D01*
X1967682Y-23880445D01*
X1959867Y-23878351D01*
X1948050Y-23873456D01*
X1941044Y-23869411D01*
X1900632Y-23862285D01*
X1896460Y-23861360D01*
X1856809Y-23850735D01*
X1815912Y-23854314D01*
X1811641Y-23854500D01*
X-1767177Y-23854500D01*
X-1801825Y-23840148D01*
X-1815758Y-23811896D01*
X-1827956Y-23719238D01*
X-1887649Y-23575126D01*
X-1888464Y-23573159D01*
X-1888464Y-23573158D01*
X-1888465Y-23573157D01*
X-1984717Y-23447717D01*
X-2110157Y-23351465D01*
X-2256237Y-23290956D01*
X-2412999Y-23270318D01*
X-2413000Y-23270318D01*
X-2569762Y-23290956D01*
X-2715841Y-23351464D01*
X-2715842Y-23351465D01*
X-2841282Y-23447717D01*
X-2869265Y-23484186D01*
X-2937536Y-23573159D01*
X-2998044Y-23719238D01*
X-3018682Y-23876000D01*
X-2998044Y-24032762D01*
X-2937536Y-24178841D01*
X-2841282Y-24304282D01*
X-2715841Y-24400536D01*
X-2569762Y-24461044D01*
X-2413000Y-24481682D01*
X-2291021Y-24465623D01*
X-2256520Y-24474066D01*
X-2248684Y-24479554D01*
X-2240865Y-24481648D01*
X-2229052Y-24486541D01*
X-2222045Y-24490588D01*
X-2181623Y-24497715D01*
X-2177462Y-24498637D01*
X-2137807Y-24509264D01*
X-2096911Y-24505685D01*
X-2092641Y-24505500D01*
X1672878Y-24505500D01*
X1707526Y-24519852D01*
X2442141Y-25254467D01*
X2456493Y-25289115D01*
X2456073Y-25295511D01*
X2442318Y-25400000D01*
X2462956Y-25556762D01*
X2523464Y-25702841D01*
X2523465Y-25702842D01*
X2619717Y-25828282D01*
X2715806Y-25902013D01*
X2734558Y-25934491D01*
X2724851Y-25970716D01*
X2692373Y-25989468D01*
X2691666Y-25989556D01*
X2530729Y-26008367D01*
X2528837Y-26008551D01*
X1520329Y-26086939D01*
X1518432Y-26087049D01*
X507672Y-26126272D01*
X505772Y-26126309D01*
X-505772Y-26126309D01*
X-507672Y-26126272D01*
X-1518432Y-26087049D01*
X-1520329Y-26086939D01*
X-2528837Y-26008551D01*
X-2530729Y-26008367D01*
X-3535427Y-25890935D01*
X-3537309Y-25890678D01*
X-4536697Y-25734377D01*
X-4538569Y-25734047D01*
X-5531167Y-25539107D01*
X-5533024Y-25538704D01*
X-6517278Y-25305431D01*
X-6519118Y-25304957D01*
X-7493599Y-25033693D01*
X-7495420Y-25033148D01*
X-8458654Y-24724299D01*
X-8460452Y-24723684D01*
X-9411001Y-24377712D01*
X-9412774Y-24377027D01*
X-9878914Y-24186587D01*
X-9905561Y-24160198D01*
X-9905742Y-24122695D01*
X-9879353Y-24096048D01*
X-9757514Y-24045581D01*
X-9689917Y-23993712D01*
X-9632072Y-23949327D01*
X-9535820Y-23823887D01*
X-9535819Y-23823886D01*
X-9475311Y-23677807D01*
X-9454673Y-23521045D01*
X-9459525Y-23484186D01*
X-9475311Y-23364282D01*
X-9524749Y-23244930D01*
X-9535819Y-23218204D01*
X-9535819Y-23218203D01*
X-9535820Y-23218202D01*
X-9632072Y-23092762D01*
X-9757511Y-22996510D01*
X-9854882Y-22956177D01*
X-9881400Y-22929658D01*
X-9883460Y-22923589D01*
X-10013596Y-22437915D01*
X-9116025Y-22437915D01*
X-9095387Y-22594677D01*
X-9034879Y-22740756D01*
X-8938625Y-22866197D01*
X-8813184Y-22962451D01*
X-8667105Y-23022959D01*
X-8545126Y-23039017D01*
X-8513986Y-23056102D01*
X-8507838Y-23063430D01*
X-8500829Y-23067475D01*
X-8490681Y-23075262D01*
X-8484961Y-23080984D01*
X-8447746Y-23098336D01*
X-8443985Y-23100294D01*
X-8408428Y-23120825D01*
X-8367984Y-23127955D01*
X-8363842Y-23128874D01*
X-4624396Y-24130857D01*
X-4612581Y-24135751D01*
X-4605577Y-24139796D01*
X-4565151Y-24146923D01*
X-4560991Y-24147846D01*
X-4549273Y-24150987D01*
X-4537168Y-24152045D01*
X-4532970Y-24152597D01*
X-4521007Y-24154708D01*
X-4508883Y-24154708D01*
X-4504612Y-24154894D01*
X-4463725Y-24158471D01*
X-4463724Y-24158470D01*
X-4463724Y-24158471D01*
X-4460394Y-24157578D01*
X-4455912Y-24156377D01*
X-4443231Y-24154708D01*
X-4396845Y-24154708D01*
X-4392574Y-24154893D01*
X-4351679Y-24158472D01*
X-4351678Y-24158471D01*
X-4351677Y-24158472D01*
X-4312031Y-24147848D01*
X-4307861Y-24146922D01*
X-4267441Y-24139796D01*
X-4267439Y-24139795D01*
X-4260433Y-24135750D01*
X-4248614Y-24130855D01*
X-4240802Y-24128762D01*
X-4232930Y-24123250D01*
X-4207172Y-24105214D01*
X-4203585Y-24102929D01*
X-4168031Y-24082402D01*
X-4141641Y-24050952D01*
X-4138753Y-24047801D01*
X-3337392Y-23246441D01*
X-3334253Y-23243564D01*
X-3302806Y-23217177D01*
X-3300758Y-23213631D01*
X-3282286Y-23181636D01*
X-3279990Y-23178031D01*
X-3269073Y-23162439D01*
X-3256446Y-23144406D01*
X-3254351Y-23136589D01*
X-3249456Y-23124772D01*
X-3245411Y-23117766D01*
X-3238281Y-23077336D01*
X-3237356Y-23073164D01*
X-3226736Y-23033530D01*
X-3230314Y-22992641D01*
X-3230500Y-22988371D01*
X-3230500Y-21110122D01*
X-3216148Y-21075474D01*
X2687091Y-15172235D01*
X8791111Y-9068214D01*
X8794253Y-9065336D01*
X8825694Y-9038955D01*
X8846217Y-9003406D01*
X8848513Y-8999803D01*
X8852849Y-8993611D01*
X8872054Y-8966184D01*
X8874148Y-8958365D01*
X8879041Y-8946552D01*
X8883088Y-8939545D01*
X8890216Y-8899116D01*
X8891141Y-8894946D01*
X8901763Y-8855308D01*
X8898186Y-8814419D01*
X8898000Y-8810149D01*
X8898000Y-5159858D01*
X8898186Y-5155587D01*
X8901764Y-5114691D01*
X8891140Y-5075045D01*
X8890214Y-5070871D01*
X8884199Y-5036758D01*
X8883088Y-5030455D01*
X8879042Y-5023447D01*
X8874147Y-5011628D01*
X8872054Y-5003816D01*
X8848506Y-4970186D01*
X8846218Y-4966594D01*
X8825694Y-4931045D01*
X8794244Y-4904655D01*
X8791093Y-4901767D01*
X7717858Y-3828532D01*
X7703506Y-3793884D01*
X7703925Y-3787488D01*
X7717682Y-3683000D01*
X7697044Y-3526238D01*
X7636536Y-3380159D01*
X7580715Y-3307411D01*
X7540282Y-3254717D01*
X7414842Y-3158465D01*
X7414841Y-3158464D01*
X7268762Y-3097956D01*
X7112000Y-3077318D01*
X6955237Y-3097956D01*
X6809157Y-3158465D01*
X6683717Y-3254717D01*
X6587465Y-3380157D01*
X6526956Y-3526237D01*
X6517827Y-3595582D01*
X6506318Y-3683000D01*
X6526956Y-3839762D01*
X6587464Y-3985841D01*
X6587465Y-3985842D01*
X6683717Y-4111282D01*
X6754152Y-4165328D01*
X6809159Y-4207536D01*
X6955238Y-4268044D01*
X7112000Y-4288682D01*
X7216488Y-4274925D01*
X7252713Y-4284631D01*
X7257532Y-4288858D01*
X8232648Y-5263974D01*
X8247000Y-5298622D01*
X8247000Y-8671377D01*
X8232648Y-8706025D01*
X-3774595Y-20713269D01*
X-3777747Y-20716157D01*
X-3809192Y-20742542D01*
X-3809193Y-20742544D01*
X-3809194Y-20742545D01*
X-3829731Y-20778116D01*
X-3831999Y-20781676D01*
X-3848708Y-20805539D01*
X-3855554Y-20815316D01*
X-3857647Y-20823128D01*
X-3862542Y-20834947D01*
X-3866588Y-20841955D01*
X-3873714Y-20882371D01*
X-3874640Y-20886545D01*
X-3885264Y-20926191D01*
X-3881686Y-20967087D01*
X-3881500Y-20971358D01*
X-3881500Y-22849599D01*
X-3895852Y-22884247D01*
X-4191383Y-23179779D01*
X-4481438Y-23469834D01*
X-4516086Y-23484186D01*
X-4528768Y-23482516D01*
X-7880960Y-22584297D01*
X-7910713Y-22561467D01*
X-7916859Y-22530571D01*
X-7904661Y-22437915D01*
X-7925299Y-22281152D01*
X-7985808Y-22135072D01*
X-8082060Y-22009632D01*
X-8207500Y-21913380D01*
X-8353580Y-21852871D01*
X-8510343Y-21832233D01*
X-8667105Y-21852871D01*
X-8813184Y-21913379D01*
X-8813185Y-21913380D01*
X-8938625Y-22009632D01*
X-8984157Y-22068972D01*
X-9034879Y-22135074D01*
X-9095387Y-22281153D01*
X-9116025Y-22437915D01*
X-10013596Y-22437915D01*
X-10188263Y-21786046D01*
X-10189188Y-21781875D01*
X-10196317Y-21741448D01*
X-10216840Y-21705900D01*
X-10218813Y-21702112D01*
X-10236160Y-21664912D01*
X-10241882Y-21659190D01*
X-10249664Y-21649049D01*
X-10253712Y-21642039D01*
X-10285153Y-21615655D01*
X-10288302Y-21612770D01*
X-10317328Y-21583746D01*
X-10354526Y-21566399D01*
X-10358316Y-21564426D01*
X-13457669Y-19775014D01*
X-13480499Y-19745261D01*
X-13478439Y-19713827D01*
X-13442675Y-19627485D01*
X-13422037Y-19470723D01*
X-13442675Y-19313960D01*
X-13503184Y-19167880D01*
X-13599436Y-19042440D01*
X-13724876Y-18946188D01*
X-13870956Y-18885679D01*
X-14027719Y-18865041D01*
X-14184481Y-18885679D01*
X-14330560Y-18946187D01*
X-14330561Y-18946188D01*
X-14456001Y-19042440D01*
X-14510652Y-19113664D01*
X-14552255Y-19167882D01*
X-14612763Y-19313961D01*
X-14633401Y-19470723D01*
X-14612763Y-19627485D01*
X-14552255Y-19773564D01*
X-14456001Y-19899005D01*
X-14330560Y-19995259D01*
X-14216895Y-20042339D01*
X-14191237Y-20066902D01*
X-14187194Y-20075574D01*
X-14181476Y-20081291D01*
X-14173687Y-20091440D01*
X-14169642Y-20098449D01*
X-14138187Y-20124841D01*
X-14135047Y-20127719D01*
X-14106026Y-20156742D01*
X-14068813Y-20174094D01*
X-14065043Y-20176057D01*
X-10803994Y-22058824D01*
X-10781166Y-22088575D01*
X-10515168Y-23081293D01*
X-10512277Y-23092081D01*
X-10517172Y-23129263D01*
X-10520729Y-23134587D01*
X-10584891Y-23218204D01*
X-10645399Y-23364283D01*
X-10666037Y-23521045D01*
X-10645399Y-23677807D01*
X-10600037Y-23787320D01*
X-10600037Y-23824822D01*
X-10626555Y-23851341D01*
X-10664058Y-23851341D01*
X-10665584Y-23850679D01*
X-11271788Y-23575126D01*
X-11273502Y-23574306D01*
X-12177437Y-23120333D01*
X-12179119Y-23119447D01*
X-13064784Y-22630758D01*
X-13066429Y-22629808D01*
X-13932460Y-22107155D01*
X-13934068Y-22106142D01*
X-14779209Y-21550285D01*
X-14780776Y-21549210D01*
X-15603705Y-20961015D01*
X-15605229Y-20959880D01*
X-15804363Y-20805539D01*
X-15822957Y-20772970D01*
X-15813075Y-20736793D01*
X-15780742Y-20718229D01*
X-15648489Y-20700818D01*
X-15502410Y-20640310D01*
X-15454515Y-20603559D01*
X-15376968Y-20544056D01*
X-15280716Y-20418616D01*
X-15280715Y-20418615D01*
X-15220207Y-20272536D01*
X-15199569Y-20115774D01*
X-15211207Y-20027376D01*
X-15220207Y-19959011D01*
X-15280716Y-19812931D01*
X-15376967Y-19687493D01*
X-15460581Y-19623334D01*
X-15479332Y-19590855D01*
X-15479751Y-19584460D01*
X-15479751Y-18406780D01*
X-15479565Y-18402509D01*
X-15475987Y-18361625D01*
X-15486611Y-18321975D01*
X-15487535Y-18317804D01*
X-15494662Y-18277388D01*
X-15498712Y-18270373D01*
X-15503603Y-18258564D01*
X-15505697Y-18250748D01*
X-15529236Y-18217131D01*
X-15531532Y-18213528D01*
X-15552058Y-18177977D01*
X-15583499Y-18151593D01*
X-15586649Y-18148706D01*
X-18117260Y-15618095D01*
X-18131612Y-15583447D01*
X-18121487Y-15553619D01*
X-18064594Y-15479474D01*
X-18004086Y-15333395D01*
X-18000712Y-15307765D01*
X-12014212Y-15307765D01*
X-11984586Y-15577018D01*
X-11916072Y-15839088D01*
X-11810130Y-16088390D01*
X-11669018Y-16319610D01*
X-11495745Y-16527820D01*
X-11294002Y-16708582D01*
X-11068090Y-16858044D01*
X-10822824Y-16973020D01*
X-10563431Y-17051060D01*
X-10295439Y-17090500D01*
X-10093261Y-17090500D01*
X-10092369Y-17090500D01*
X-9889844Y-17075677D01*
X-9625447Y-17016780D01*
X-9372442Y-16920014D01*
X-9136223Y-16787441D01*
X-8921823Y-16621888D01*
X-8733814Y-16426881D01*
X-8576201Y-16206579D01*
X-8452344Y-15965675D01*
X-8452343Y-15965674D01*
X-8452341Y-15965669D01*
X-8364882Y-15709309D01*
X-8315680Y-15442930D01*
X-8305788Y-15172236D01*
X-8335413Y-14902984D01*
X-8403928Y-14640910D01*
X-8509870Y-14391609D01*
X-8650980Y-14160392D01*
X-8824254Y-13952180D01*
X-9025998Y-13771418D01*
X-9251912Y-13621954D01*
X-9497177Y-13506979D01*
X-9756565Y-13428940D01*
X-9970962Y-13397388D01*
X-10024561Y-13389500D01*
X-10024562Y-13389500D01*
X-10226739Y-13389500D01*
X-10227631Y-13389500D01*
X-10228514Y-13389564D01*
X-10228524Y-13389565D01*
X-10430152Y-13404322D01*
X-10694554Y-13463220D01*
X-10947559Y-13559986D01*
X-11183779Y-13692560D01*
X-11282845Y-13769056D01*
X-11398177Y-13858112D01*
X-11586186Y-14053119D01*
X-11743799Y-14273421D01*
X-11867656Y-14514325D01*
X-11867657Y-14514328D01*
X-11867658Y-14514330D01*
X-11955117Y-14770690D01*
X-11955117Y-14770694D01*
X-11955118Y-14770695D01*
X-12004319Y-15037067D01*
X-12014212Y-15307765D01*
X-18000712Y-15307765D01*
X-17983448Y-15176633D01*
X-18004086Y-15019871D01*
X-18031707Y-14953189D01*
X-18064595Y-14873790D01*
X-18160847Y-14748350D01*
X-18286287Y-14652098D01*
X-18432367Y-14591589D01*
X-18589129Y-14570951D01*
X-18589130Y-14570951D01*
X-18745892Y-14591589D01*
X-18891971Y-14652097D01*
X-18891972Y-14652098D01*
X-19017412Y-14748350D01*
X-19068637Y-14815109D01*
X-19113666Y-14873792D01*
X-19174174Y-15019871D01*
X-19194812Y-15176633D01*
X-19174174Y-15333395D01*
X-19113666Y-15479474D01*
X-19057971Y-15552057D01*
X-19017412Y-15604915D01*
X-18919806Y-15679810D01*
X-18901379Y-15710175D01*
X-18899718Y-15719599D01*
X-18895671Y-15726606D01*
X-18890778Y-15738419D01*
X-18888684Y-15746238D01*
X-18865123Y-15779884D01*
X-18862859Y-15783439D01*
X-18842324Y-15819009D01*
X-18810861Y-15845408D01*
X-18807733Y-15848275D01*
X-16145101Y-18510907D01*
X-16130750Y-18545553D01*
X-16130750Y-19584462D01*
X-16145102Y-19619108D01*
X-16149921Y-19623334D01*
X-16233533Y-19687491D01*
X-16282806Y-19751706D01*
X-16329787Y-19812933D01*
X-16390295Y-19959012D01*
X-16410933Y-20115774D01*
X-16394924Y-20237373D01*
X-16404631Y-20273598D01*
X-16437109Y-20292350D01*
X-16473334Y-20282643D01*
X-16475002Y-20281305D01*
X-17181111Y-19688809D01*
X-17182542Y-19687560D01*
X-17931618Y-19007810D01*
X-17933001Y-19006506D01*
X-18655189Y-18298188D01*
X-18656519Y-18296831D01*
X-19350665Y-17561081D01*
X-19351942Y-17559674D01*
X-20017048Y-16797546D01*
X-20018270Y-16796090D01*
X-20653331Y-16008738D01*
X-20654500Y-16007229D01*
X-20656100Y-16005079D01*
X-20665272Y-15968714D01*
X-20646045Y-15936516D01*
X-20610396Y-15927244D01*
X-20473045Y-15945327D01*
X-20316283Y-15924689D01*
X-20170204Y-15864181D01*
X-20116278Y-15822802D01*
X-20044762Y-15767927D01*
X-19953115Y-15648489D01*
X-19948509Y-15642486D01*
X-19888001Y-15496407D01*
X-19867363Y-15339645D01*
X-19885804Y-15199569D01*
X-19888001Y-15182882D01*
X-19948510Y-15036802D01*
X-20012666Y-14953189D01*
X-20022372Y-14916964D01*
X-20021121Y-14910679D01*
X-19716317Y-13773133D01*
X-19715032Y-13769056D01*
X-19700994Y-13730487D01*
X-19700994Y-13689443D01*
X-19700808Y-13685173D01*
X-19697231Y-13644284D01*
X-19699325Y-13636470D01*
X-19700994Y-13623791D01*
X-19700994Y-13615700D01*
X-19715032Y-13577130D01*
X-19716317Y-13573053D01*
X-19726939Y-13533408D01*
X-19750484Y-13499782D01*
X-19752780Y-13496178D01*
X-21176774Y-11029748D01*
X-13750500Y-11029748D01*
X-13738867Y-11088231D01*
X-13694552Y-11154552D01*
X-13628231Y-11198867D01*
X-13604837Y-11203520D01*
X-13569751Y-11210500D01*
X-11830252Y-11210500D01*
X-11830249Y-11210500D01*
X-11786389Y-11201775D01*
X-11771769Y-11198867D01*
X-11738608Y-11176709D01*
X-11705447Y-11154552D01*
X-11661132Y-11088229D01*
X-11649500Y-11029750D01*
X-11649500Y-9290249D01*
X-11661132Y-9231770D01*
X-11705447Y-9165447D01*
X-11771770Y-9121132D01*
X-11830249Y-9109500D01*
X-11830252Y-9109500D01*
X-13569748Y-9109500D01*
X-13569751Y-9109500D01*
X-13628229Y-9121132D01*
X-13628230Y-9121132D01*
X-13628231Y-9121133D01*
X-13644923Y-9132286D01*
X-13694552Y-9165447D01*
X-13716709Y-9198608D01*
X-13738867Y-9231769D01*
X-13738867Y-9231770D01*
X-13750500Y-9290249D01*
X-13750500Y-9290251D01*
X-13750500Y-9290252D01*
X-13750500Y-11029748D01*
X-21176774Y-11029748D01*
X-21542190Y-10396829D01*
X-21547085Y-10359647D01*
X-21529584Y-10333455D01*
X-21455440Y-10276563D01*
X-21359188Y-10151123D01*
X-21359187Y-10151122D01*
X-21298679Y-10005043D01*
X-21278041Y-9848281D01*
X-21298679Y-9691519D01*
X-21305560Y-9674908D01*
X-21359188Y-9545438D01*
X-21455440Y-9419998D01*
X-21580880Y-9323746D01*
X-21726960Y-9263237D01*
X-21883722Y-9242599D01*
X-21883723Y-9242599D01*
X-22040485Y-9263237D01*
X-22186564Y-9323745D01*
X-22210242Y-9341914D01*
X-22312005Y-9419998D01*
X-22354447Y-9475311D01*
X-22408259Y-9545440D01*
X-22468767Y-9691519D01*
X-22489405Y-9848281D01*
X-22468767Y-10005043D01*
X-22408259Y-10151122D01*
X-22333361Y-10248729D01*
X-22323424Y-10282828D01*
X-22324258Y-10292359D01*
X-22322164Y-10300175D01*
X-22320494Y-10312858D01*
X-22320494Y-10320946D01*
X-22306452Y-10359522D01*
X-22305179Y-10363561D01*
X-22294549Y-10403237D01*
X-22270987Y-10436886D01*
X-22268711Y-10440457D01*
X-20385945Y-13701503D01*
X-20381051Y-13738684D01*
X-20413051Y-13858109D01*
X-20649940Y-14742190D01*
X-20672769Y-14771942D01*
X-20678512Y-14774774D01*
X-20775886Y-14815109D01*
X-20775888Y-14815110D01*
X-20901327Y-14911362D01*
X-20933421Y-14953189D01*
X-20997581Y-15036804D01*
X-21058089Y-15182883D01*
X-21070969Y-15280715D01*
X-21073898Y-15302965D01*
X-21092650Y-15335443D01*
X-21128875Y-15345150D01*
X-21161353Y-15326398D01*
X-21161783Y-15325830D01*
X-21258542Y-15195859D01*
X-21259647Y-15194313D01*
X-21831784Y-14360116D01*
X-21832828Y-14358528D01*
X-22372179Y-13502791D01*
X-22373161Y-13501164D01*
X-22878933Y-12625142D01*
X-22879851Y-12623478D01*
X-23351267Y-11728516D01*
X-23352120Y-11726818D01*
X-23788479Y-10814250D01*
X-23789266Y-10812520D01*
X-24089357Y-10116830D01*
X-24089902Y-10079331D01*
X-24063772Y-10052429D01*
X-24026273Y-10051884D01*
X-24025726Y-10052105D01*
X-23902398Y-10103190D01*
X-23745636Y-10123828D01*
X-23588874Y-10103190D01*
X-23442795Y-10042682D01*
X-23393743Y-10005043D01*
X-23317353Y-9946428D01*
X-23221101Y-9820988D01*
X-23221100Y-9820987D01*
X-23160592Y-9674908D01*
X-23139954Y-9518146D01*
X-23160592Y-9361384D01*
X-23160591Y-9361384D01*
X-23160592Y-9361382D01*
X-23200922Y-9264017D01*
X-23200922Y-9226514D01*
X-23198087Y-9220766D01*
X-23166148Y-9165447D01*
X-22609247Y-8200865D01*
X-22606951Y-8197260D01*
X-22583410Y-8163640D01*
X-22572789Y-8124001D01*
X-22571504Y-8119926D01*
X-22557465Y-8081352D01*
X-22557465Y-8073258D01*
X-22555795Y-8060574D01*
X-22553701Y-8052763D01*
X-22557279Y-8011875D01*
X-22557465Y-8007605D01*
X-22557465Y-7966562D01*
X-22571502Y-7927991D01*
X-22572786Y-7923916D01*
X-23334813Y-5080000D01*
X-13755583Y-5080000D01*
X-13735300Y-5285934D01*
X-13675232Y-5483954D01*
X-13577685Y-5666450D01*
X-13446410Y-5826410D01*
X-13286450Y-5957685D01*
X-13103954Y-6055232D01*
X-12905934Y-6115300D01*
X-12700000Y-6135583D01*
X-12514347Y-6117297D01*
X-12494065Y-6115300D01*
X-12395056Y-6085266D01*
X-12296046Y-6055232D01*
X-12113550Y-5957685D01*
X-11953590Y-5826410D01*
X-11822315Y-5666450D01*
X-11724768Y-5483954D01*
X-11724767Y-5483952D01*
X-11664699Y-5285934D01*
X-11644417Y-5080000D01*
X-11664699Y-4874065D01*
X-11724767Y-4676047D01*
X-11822315Y-4493550D01*
X-11953590Y-4333590D01*
X-12113550Y-4202315D01*
X-12296047Y-4104767D01*
X-12494065Y-4044699D01*
X-12699999Y-4024417D01*
X-12700000Y-4024417D01*
X-12718463Y-4026235D01*
X-12905934Y-4044699D01*
X-13103952Y-4104767D01*
X-13103953Y-4104767D01*
X-13103954Y-4104768D01*
X-13286450Y-4202315D01*
X-13446410Y-4333590D01*
X-13577685Y-4493550D01*
X-13675232Y-4676046D01*
X-13735300Y-4874066D01*
X-13755583Y-5080000D01*
X-23334813Y-5080000D01*
X-23499056Y-4467037D01*
X-23494161Y-4429855D01*
X-23470477Y-4409085D01*
X-23384134Y-4373321D01*
X-23354945Y-4350924D01*
X-23258692Y-4277067D01*
X-23162440Y-4151627D01*
X-23162439Y-4151626D01*
X-23101931Y-4005547D01*
X-23081293Y-3848785D01*
X-23101931Y-3692023D01*
X-23105669Y-3682999D01*
X-23162440Y-3545942D01*
X-23258692Y-3420502D01*
X-23384132Y-3324250D01*
X-23402601Y-3316600D01*
X-23475485Y-3286410D01*
X-23530212Y-3263741D01*
X-23686975Y-3243103D01*
X-23843737Y-3263741D01*
X-23989816Y-3324249D01*
X-24013494Y-3342418D01*
X-24115257Y-3420502D01*
X-24170313Y-3492254D01*
X-24211511Y-3545944D01*
X-24272019Y-3692023D01*
X-24292657Y-3848785D01*
X-24272019Y-4005547D01*
X-24224936Y-4119211D01*
X-24224162Y-4154721D01*
X-24227435Y-4163713D01*
X-24227435Y-4171801D01*
X-24229105Y-4184484D01*
X-24231199Y-4192298D01*
X-24231198Y-4192299D01*
X-24231199Y-4192300D01*
X-24228492Y-4223246D01*
X-24227621Y-4233197D01*
X-24227435Y-4237468D01*
X-24227435Y-4278502D01*
X-24213398Y-4317064D01*
X-24212118Y-4321121D01*
X-23237522Y-7958364D01*
X-23242416Y-7995545D01*
X-23761870Y-8895265D01*
X-23791622Y-8918094D01*
X-23797908Y-8919345D01*
X-23902398Y-8933101D01*
X-23994516Y-8971258D01*
X-24048477Y-8993610D01*
X-24048478Y-8993611D01*
X-24173918Y-9089863D01*
X-24233833Y-9167947D01*
X-24270172Y-9215305D01*
X-24315352Y-9324379D01*
X-24315352Y-9324380D01*
X-24341871Y-9350898D01*
X-24379374Y-9350898D01*
X-24405892Y-9324379D01*
X-24406333Y-9323277D01*
X-24554974Y-8938289D01*
X-24555624Y-8936503D01*
X-24883096Y-7979432D01*
X-24883676Y-7977622D01*
X-25173781Y-7008602D01*
X-25174291Y-7006772D01*
X-25426617Y-6027184D01*
X-25427055Y-6025334D01*
X-25641193Y-5036758D01*
X-25641560Y-5034894D01*
X-25817220Y-4038683D01*
X-25817513Y-4036805D01*
X-25885656Y-3537903D01*
X-25876125Y-3501631D01*
X-25843738Y-3482723D01*
X-25807467Y-3492253D01*
X-25702841Y-3572536D01*
X-25556762Y-3633044D01*
X-25400000Y-3653682D01*
X-25243238Y-3633044D01*
X-25097159Y-3572536D01*
X-25036821Y-3526237D01*
X-24971717Y-3476282D01*
X-24875465Y-3350842D01*
X-24875464Y-3350841D01*
X-24814956Y-3204762D01*
X-24794318Y-3048000D01*
X-24808074Y-2943511D01*
X-24798367Y-2907286D01*
X-24794141Y-2902467D01*
X-24431674Y-2540000D01*
X-13755583Y-2540000D01*
X-13735300Y-2745934D01*
X-13675232Y-2943954D01*
X-13577685Y-3126450D01*
X-13446410Y-3286410D01*
X-13286450Y-3417685D01*
X-13103954Y-3515232D01*
X-12905934Y-3575300D01*
X-12700000Y-3595583D01*
X-12512529Y-3577118D01*
X-12494065Y-3575300D01*
X-12357877Y-3533988D01*
X-12296046Y-3515232D01*
X-12113550Y-3417685D01*
X-11953590Y-3286410D01*
X-11822315Y-3126450D01*
X-11724768Y-2943954D01*
X-11724767Y-2943952D01*
X-11664699Y-2745934D01*
X-11644417Y-2540000D01*
X-11664699Y-2334065D01*
X-11724767Y-2136047D01*
X-11822315Y-1953550D01*
X-11953590Y-1793590D01*
X-12113550Y-1662315D01*
X-12296047Y-1564767D01*
X-12494065Y-1504699D01*
X-12700000Y-1484417D01*
X-12905934Y-1504699D01*
X-13103952Y-1564767D01*
X-13103953Y-1564767D01*
X-13103954Y-1564768D01*
X-13286450Y-1662315D01*
X-13446410Y-1793590D01*
X-13577685Y-1953550D01*
X-13675232Y-2136046D01*
X-13735300Y-2334066D01*
X-13755583Y-2540000D01*
X-24431674Y-2540000D01*
X-23961398Y-2069724D01*
X-23958259Y-2066847D01*
X-23926806Y-2040455D01*
X-23906284Y-2004911D01*
X-23903988Y-2001306D01*
X-23892373Y-1984718D01*
X-23880446Y-1967684D01*
X-23878351Y-1959867D01*
X-23873456Y-1948050D01*
X-23869411Y-1941044D01*
X-23862285Y-1900632D01*
X-23861360Y-1896460D01*
X-23850735Y-1856809D01*
X-23854314Y-1815909D01*
X-23854500Y-1811638D01*
X-23854500Y0D01*
X-13755583Y0D01*
X-13735300Y-205934D01*
X-13675232Y-403954D01*
X-13577685Y-586450D01*
X-13446410Y-746410D01*
X-13286450Y-877685D01*
X-13103954Y-975232D01*
X-12905934Y-1035300D01*
X-12700000Y-1055583D01*
X-12512529Y-1037118D01*
X-12494065Y-1035300D01*
X-12395056Y-1005266D01*
X-12296046Y-975232D01*
X-12113550Y-877685D01*
X-11953590Y-746410D01*
X-11822315Y-586450D01*
X-11724768Y-403954D01*
X-11704463Y-337018D01*
X-11693013Y-299273D01*
X-11669221Y-270283D01*
X-11631899Y-266607D01*
X-11611477Y-278847D01*
X-7861719Y-4028605D01*
X-7858842Y-4031745D01*
X-7832455Y-4063194D01*
X-7796885Y-4083729D01*
X-7793330Y-4085993D01*
X-7759684Y-4109554D01*
X-7751865Y-4111648D01*
X-7740052Y-4116541D01*
X-7733045Y-4120588D01*
X-7692623Y-4127715D01*
X-7688462Y-4128637D01*
X-7648807Y-4139264D01*
X-7607908Y-4135686D01*
X-7603638Y-4135500D01*
X1749878Y-4135500D01*
X1784526Y-4149852D01*
X2298269Y-4663595D01*
X2301157Y-4666747D01*
X2327542Y-4698192D01*
X2327544Y-4698193D01*
X2327545Y-4698194D01*
X2363116Y-4718731D01*
X2366676Y-4720999D01*
X2400316Y-4744554D01*
X2408128Y-4746647D01*
X2419947Y-4751542D01*
X2426953Y-4755587D01*
X2426955Y-4755588D01*
X2467375Y-4762714D01*
X2471545Y-4763640D01*
X2511191Y-4774264D01*
X2511192Y-4774263D01*
X2511193Y-4774264D01*
X2552091Y-4770686D01*
X2556362Y-4770500D01*
X4924878Y-4770500D01*
X4959526Y-4784852D01*
X6379141Y-6204467D01*
X6393493Y-6239115D01*
X6393073Y-6245511D01*
X6379318Y-6350000D01*
X6399956Y-6506762D01*
X6460464Y-6652841D01*
X6460465Y-6652842D01*
X6556717Y-6778282D01*
X6634801Y-6838197D01*
X6682159Y-6874536D01*
X6828238Y-6935044D01*
X6985000Y-6955682D01*
X7141762Y-6935044D01*
X7287841Y-6874536D01*
X7413282Y-6778282D01*
X7509536Y-6652841D01*
X7570044Y-6506762D01*
X7590682Y-6350000D01*
X7570044Y-6193238D01*
X7509536Y-6047159D01*
X7473197Y-5999801D01*
X7413282Y-5921717D01*
X7289074Y-5826410D01*
X7287841Y-5825464D01*
X7141762Y-5764956D01*
X6985000Y-5744318D01*
X6984999Y-5744318D01*
X6880511Y-5758074D01*
X6844286Y-5748367D01*
X6839467Y-5744141D01*
X5321724Y-4226398D01*
X5318847Y-4223259D01*
X5292455Y-4191806D01*
X5256911Y-4171284D01*
X5253306Y-4168988D01*
X5232469Y-4154398D01*
X5219684Y-4145446D01*
X5219683Y-4145445D01*
X5219682Y-4145445D01*
X5211867Y-4143351D01*
X5200050Y-4138456D01*
X5193044Y-4134411D01*
X5152632Y-4127285D01*
X5148460Y-4126360D01*
X5108809Y-4115735D01*
X5067912Y-4119314D01*
X5063641Y-4119500D01*
X2695122Y-4119500D01*
X2660474Y-4105148D01*
X2146724Y-3591398D01*
X2143847Y-3588259D01*
X2117455Y-3556806D01*
X2081911Y-3536284D01*
X2078306Y-3533988D01*
X2074306Y-3531187D01*
X2044684Y-3510446D01*
X2044683Y-3510445D01*
X2044682Y-3510445D01*
X2036867Y-3508351D01*
X2025050Y-3503456D01*
X2018044Y-3499411D01*
X1977632Y-3492285D01*
X1973460Y-3491360D01*
X1933809Y-3480735D01*
X1892912Y-3484314D01*
X1888641Y-3484500D01*
X-7464878Y-3484500D01*
X-7499526Y-3470148D01*
X-9289661Y-1680013D01*
X-10901911Y-67763D01*
X15925788Y-67763D01*
X15955413Y-337015D01*
X16020623Y-586449D01*
X16023928Y-599088D01*
X16129870Y-848390D01*
X16270982Y-1079610D01*
X16444255Y-1287820D01*
X16645998Y-1468582D01*
X16871910Y-1618044D01*
X17117176Y-1733020D01*
X17262624Y-1776779D01*
X17376565Y-1811059D01*
X17376566Y-1811059D01*
X17376569Y-1811060D01*
X17644561Y-1850500D01*
X17846739Y-1850500D01*
X17847631Y-1850500D01*
X18050156Y-1835677D01*
X18314553Y-1776780D01*
X18567558Y-1680014D01*
X18803777Y-1547441D01*
X19018177Y-1381888D01*
X19206186Y-1186881D01*
X19363799Y-966579D01*
X19487656Y-725675D01*
X19497631Y-696434D01*
X19575117Y-469309D01*
X19606524Y-299273D01*
X19624319Y-202933D01*
X19634212Y67765D01*
X19604586Y337018D01*
X19536072Y599088D01*
X19430130Y848390D01*
X19289018Y1079610D01*
X19115745Y1287820D01*
X18914002Y1468582D01*
X18688090Y1618044D01*
X18442824Y1733020D01*
X18183431Y1811060D01*
X17915439Y1850500D01*
X17915438Y1850500D01*
X17713261Y1850500D01*
X17712369Y1850500D01*
X17509844Y1835677D01*
X17245447Y1776780D01*
X16992442Y1680014D01*
X16756223Y1547441D01*
X16756221Y1547439D01*
X16756220Y1547439D01*
X16654096Y1468582D01*
X16541823Y1381888D01*
X16353814Y1186881D01*
X16353813Y1186879D01*
X16196202Y966581D01*
X16072341Y725669D01*
X15984882Y469309D01*
X15935680Y202930D01*
X15925788Y-67763D01*
X-10901911Y-67763D01*
X-11090148Y120474D01*
X-11104500Y155121D01*
X-11104500Y1670249D01*
X12919500Y1670249D01*
X12931132Y1611770D01*
X12975447Y1545447D01*
X13041770Y1501132D01*
X13100249Y1489500D01*
X14839748Y1489500D01*
X14839751Y1489500D01*
X14898229Y1501132D01*
X14898230Y1501132D01*
X14898231Y1501133D01*
X14914923Y1512286D01*
X14964552Y1545447D01*
X14986709Y1578608D01*
X15008867Y1611769D01*
X15011775Y1626389D01*
X15020500Y1670249D01*
X15020500Y3409750D01*
X15008867Y3468229D01*
X15008867Y3468231D01*
X14964552Y3534552D01*
X14898231Y3578867D01*
X14874837Y3583520D01*
X14839751Y3590500D01*
X14839748Y3590500D01*
X13100252Y3590500D01*
X13100249Y3590500D01*
X13056389Y3581775D01*
X13041769Y3578867D01*
X13008608Y3556709D01*
X12975447Y3534552D01*
X12947281Y3492398D01*
X12934387Y3473100D01*
X12931132Y3468229D01*
X12919500Y3409750D01*
X12919500Y1670249D01*
X-11104500Y1670249D01*
X-11104500Y2756898D01*
X-7900500Y2756898D01*
X-7889877Y2668436D01*
X-7839228Y2540000D01*
X-7834360Y2527656D01*
X-7742922Y2407077D01*
X-7622343Y2315639D01*
X-7481561Y2260122D01*
X-7394556Y2249674D01*
X-7394545Y2249673D01*
X-7393102Y2249500D01*
X-6608359Y2249500D01*
X-6606898Y2249500D01*
X-6605454Y2249673D01*
X-6605443Y2249674D01*
X-6518438Y2260122D01*
X-6377656Y2315639D01*
X-6257077Y2407077D01*
X-6165639Y2527656D01*
X-6110122Y2668438D01*
X-6099674Y2755443D01*
X-6099673Y2755454D01*
X-6099500Y2756898D01*
X-3900500Y2756898D01*
X-3889877Y2668436D01*
X-3839228Y2540000D01*
X-3834360Y2527656D01*
X-3742922Y2407077D01*
X-3622343Y2315639D01*
X-3481561Y2260122D01*
X-3394556Y2249674D01*
X-3394545Y2249673D01*
X-3393102Y2249500D01*
X-2608359Y2249500D01*
X-2606898Y2249500D01*
X-2605454Y2249673D01*
X-2605443Y2249674D01*
X-2518438Y2260122D01*
X-2377656Y2315639D01*
X-2257077Y2407077D01*
X-2165639Y2527656D01*
X-2110122Y2668438D01*
X-2099674Y2755443D01*
X-2099673Y2755454D01*
X-2099500Y2756898D01*
X-1900500Y2756898D01*
X-1889877Y2668436D01*
X-1839228Y2540000D01*
X-1834360Y2527656D01*
X-1742922Y2407077D01*
X-1622343Y2315639D01*
X-1481561Y2260122D01*
X-1394556Y2249674D01*
X-1394545Y2249673D01*
X-1393102Y2249500D01*
X-608359Y2249500D01*
X-606898Y2249500D01*
X-605454Y2249673D01*
X-605443Y2249674D01*
X-518438Y2260122D01*
X-377656Y2315639D01*
X-257077Y2407077D01*
X-165639Y2527656D01*
X-110122Y2668438D01*
X-99674Y2755443D01*
X-99673Y2755454D01*
X-99500Y2756898D01*
X99500Y2756898D01*
X99673Y2755454D01*
X99674Y2755443D01*
X110122Y2668438D01*
X165639Y2527656D01*
X257077Y2407077D01*
X377656Y2315639D01*
X518438Y2260122D01*
X605443Y2249674D01*
X605454Y2249673D01*
X606898Y2249500D01*
X1391641Y2249500D01*
X1393102Y2249500D01*
X1394545Y2249673D01*
X1394556Y2249674D01*
X1481561Y2260122D01*
X1622343Y2315639D01*
X1742922Y2407077D01*
X1834360Y2527656D01*
X1839228Y2540000D01*
X1889877Y2668436D01*
X1900500Y2756898D01*
X2099500Y2756898D01*
X2099673Y2755454D01*
X2099674Y2755443D01*
X2110122Y2668438D01*
X2165639Y2527656D01*
X2257077Y2407077D01*
X2377656Y2315639D01*
X2518438Y2260122D01*
X2605443Y2249674D01*
X2605454Y2249673D01*
X2606898Y2249500D01*
X3391641Y2249500D01*
X3393102Y2249500D01*
X3394545Y2249673D01*
X3394556Y2249674D01*
X3481561Y2260122D01*
X3622343Y2315639D01*
X3742922Y2407077D01*
X3834360Y2527656D01*
X3839228Y2540000D01*
X3889877Y2668436D01*
X3900500Y2756898D01*
X4099500Y2756898D01*
X4099673Y2755454D01*
X4099674Y2755443D01*
X4110122Y2668438D01*
X4165639Y2527656D01*
X4257077Y2407077D01*
X4377656Y2315639D01*
X4518438Y2260122D01*
X4605443Y2249674D01*
X4605454Y2249673D01*
X4606898Y2249500D01*
X5391641Y2249500D01*
X5393102Y2249500D01*
X5394545Y2249673D01*
X5394556Y2249674D01*
X5481561Y2260122D01*
X5622343Y2315639D01*
X5742922Y2407077D01*
X5834360Y2527656D01*
X5839228Y2540000D01*
X5889877Y2668436D01*
X5900500Y2756898D01*
X6099500Y2756898D01*
X6099673Y2755454D01*
X6099674Y2755443D01*
X6110122Y2668438D01*
X6165639Y2527656D01*
X6257077Y2407077D01*
X6377656Y2315639D01*
X6518438Y2260122D01*
X6605443Y2249674D01*
X6605454Y2249673D01*
X6606898Y2249500D01*
X7391641Y2249500D01*
X7393102Y2249500D01*
X7394545Y2249673D01*
X7394556Y2249674D01*
X7481561Y2260122D01*
X7622343Y2315639D01*
X7742922Y2407077D01*
X7834360Y2527656D01*
X7839228Y2540000D01*
X7889877Y2668436D01*
X7900500Y2756898D01*
X7900500Y4143102D01*
X7889877Y4231564D01*
X7834361Y4372342D01*
X7742922Y4492922D01*
X7622342Y4584361D01*
X7481564Y4639877D01*
X7393102Y4650500D01*
X7391641Y4650500D01*
X6608359Y4650500D01*
X6606898Y4650500D01*
X6518436Y4639877D01*
X6377658Y4584361D01*
X6377657Y4584360D01*
X6377656Y4584360D01*
X6257077Y4492922D01*
X6165639Y4372343D01*
X6138275Y4302953D01*
X6117716Y4250817D01*
X6110122Y4231561D01*
X6099674Y4144556D01*
X6099673Y4144545D01*
X6099500Y4143102D01*
X6099500Y2756898D01*
X5900500Y2756898D01*
X5900500Y4143102D01*
X5889877Y4231564D01*
X5834361Y4372342D01*
X5742922Y4492922D01*
X5622342Y4584361D01*
X5481564Y4639877D01*
X5393102Y4650500D01*
X5391641Y4650500D01*
X4608359Y4650500D01*
X4606898Y4650500D01*
X4518436Y4639877D01*
X4377658Y4584361D01*
X4377657Y4584360D01*
X4377656Y4584360D01*
X4257077Y4492922D01*
X4165639Y4372343D01*
X4138275Y4302953D01*
X4117716Y4250817D01*
X4110122Y4231561D01*
X4099674Y4144556D01*
X4099673Y4144545D01*
X4099500Y4143102D01*
X4099500Y2756898D01*
X3900500Y2756898D01*
X3900500Y4143102D01*
X3889877Y4231564D01*
X3834361Y4372342D01*
X3742922Y4492922D01*
X3622342Y4584361D01*
X3481564Y4639877D01*
X3393102Y4650500D01*
X3391641Y4650500D01*
X2608359Y4650500D01*
X2606898Y4650500D01*
X2518436Y4639877D01*
X2377658Y4584361D01*
X2377657Y4584360D01*
X2377656Y4584360D01*
X2257077Y4492922D01*
X2165639Y4372343D01*
X2138275Y4302953D01*
X2117716Y4250817D01*
X2110122Y4231561D01*
X2099674Y4144556D01*
X2099673Y4144545D01*
X2099500Y4143102D01*
X2099500Y2756898D01*
X1900500Y2756898D01*
X1900500Y4143102D01*
X1889877Y4231564D01*
X1834361Y4372342D01*
X1742922Y4492922D01*
X1622342Y4584361D01*
X1481564Y4639877D01*
X1393102Y4650500D01*
X1391641Y4650500D01*
X608359Y4650500D01*
X606898Y4650500D01*
X518436Y4639877D01*
X377658Y4584361D01*
X377657Y4584360D01*
X377656Y4584360D01*
X257077Y4492922D01*
X165639Y4372343D01*
X138275Y4302953D01*
X117716Y4250817D01*
X110122Y4231561D01*
X99674Y4144556D01*
X99673Y4144545D01*
X99500Y4143102D01*
X99500Y2756898D01*
X-99500Y2756898D01*
X-99500Y4143102D01*
X-99673Y4144545D01*
X-99674Y4144556D01*
X-110122Y4231561D01*
X-117716Y4250817D01*
X-138275Y4302953D01*
X-165639Y4372343D01*
X-257077Y4492922D01*
X-377656Y4584360D01*
X-377657Y4584360D01*
X-377658Y4584361D01*
X-518436Y4639877D01*
X-606898Y4650500D01*
X-608359Y4650500D01*
X-1391641Y4650500D01*
X-1393102Y4650500D01*
X-1481564Y4639877D01*
X-1622342Y4584361D01*
X-1742922Y4492922D01*
X-1834361Y4372342D01*
X-1889877Y4231564D01*
X-1900500Y4143102D01*
X-1900500Y2756898D01*
X-2099500Y2756898D01*
X-2099500Y4143102D01*
X-2099673Y4144545D01*
X-2099674Y4144556D01*
X-2110122Y4231561D01*
X-2117716Y4250817D01*
X-2138275Y4302953D01*
X-2165639Y4372343D01*
X-2257077Y4492922D01*
X-2377656Y4584360D01*
X-2377657Y4584360D01*
X-2377658Y4584361D01*
X-2518436Y4639877D01*
X-2606898Y4650500D01*
X-2608359Y4650500D01*
X-3391641Y4650500D01*
X-3393102Y4650500D01*
X-3481564Y4639877D01*
X-3622342Y4584361D01*
X-3742922Y4492922D01*
X-3834361Y4372342D01*
X-3889877Y4231564D01*
X-3900500Y4143102D01*
X-3900500Y2756898D01*
X-6099500Y2756898D01*
X-6099500Y4143102D01*
X-6099673Y4144545D01*
X-6099674Y4144556D01*
X-6110122Y4231561D01*
X-6117716Y4250817D01*
X-6138275Y4302953D01*
X-6165639Y4372343D01*
X-6257077Y4492922D01*
X-6377656Y4584360D01*
X-6377657Y4584360D01*
X-6377658Y4584361D01*
X-6518436Y4639877D01*
X-6606898Y4650500D01*
X-6608359Y4650500D01*
X-7391641Y4650500D01*
X-7393102Y4650500D01*
X-7481564Y4639877D01*
X-7622342Y4584361D01*
X-7742922Y4492922D01*
X-7834361Y4372342D01*
X-7889877Y4231564D01*
X-7900500Y4143102D01*
X-7900500Y2756898D01*
X-11104500Y2756898D01*
X-11104500Y8873649D01*
X-11104314Y8877919D01*
X-11100736Y8918808D01*
X-11111356Y8958442D01*
X-11112281Y8962614D01*
X-11119411Y9003044D01*
X-11123456Y9010050D01*
X-11128351Y9021867D01*
X-11130445Y9029682D01*
X-11153990Y9063309D01*
X-11156286Y9066914D01*
X-11176805Y9102454D01*
X-11203317Y9124700D01*
X-11208248Y9128838D01*
X-11211399Y9131726D01*
X-11737718Y9658045D01*
X-11752070Y9692693D01*
X-11746284Y9715791D01*
X-11724768Y9756044D01*
X-11664699Y9954065D01*
X-11644417Y10160000D01*
X-11664699Y10365934D01*
X-11724767Y10563952D01*
X-11778098Y10663726D01*
X-11822315Y10746450D01*
X-11953590Y10906410D01*
X-12113550Y11037685D01*
X-12296046Y11135232D01*
X-12395056Y11165266D01*
X-12494065Y11195300D01*
X-12512529Y11197118D01*
X-12700000Y11215583D01*
X-12905934Y11195300D01*
X-13103954Y11135232D01*
X-13286450Y11037685D01*
X-13446410Y10906410D01*
X-13577685Y10746450D01*
X-13675232Y10563954D01*
X-13735300Y10365934D01*
X-13755583Y10160000D01*
X-13743493Y10037251D01*
X-13735300Y9954065D01*
X-13714502Y9885504D01*
X-13675232Y9756046D01*
X-13577685Y9573550D01*
X-13446410Y9413590D01*
X-13286450Y9282315D01*
X-13103954Y9184768D01*
X-13103952Y9184767D01*
X-12905934Y9124699D01*
X-12700000Y9104417D01*
X-12494065Y9124699D01*
X-12296044Y9184768D01*
X-12255791Y9206284D01*
X-12218469Y9209960D01*
X-12198045Y9197718D01*
X-11769852Y8769524D01*
X-11755500Y8734876D01*
X-11755500Y8261981D01*
X-11769852Y8227333D01*
X-11804500Y8212981D01*
X-11839148Y8227333D01*
X-11842369Y8230886D01*
X-11953590Y8366410D01*
X-12113550Y8497685D01*
X-12296046Y8595232D01*
X-12395056Y8625266D01*
X-12494065Y8655300D01*
X-12512529Y8657118D01*
X-12700000Y8675583D01*
X-12905934Y8655300D01*
X-13103954Y8595232D01*
X-13286450Y8497685D01*
X-13446410Y8366410D01*
X-13577685Y8206450D01*
X-13675232Y8023954D01*
X-13735300Y7825934D01*
X-13755583Y7620000D01*
X-13735300Y7414066D01*
X-13675232Y7216046D01*
X-13577685Y7033550D01*
X-13446410Y6873590D01*
X-13286450Y6742315D01*
X-13103954Y6644768D01*
X-13103952Y6644767D01*
X-12905934Y6584699D01*
X-12700000Y6564417D01*
X-12494065Y6584699D01*
X-12296047Y6644767D01*
X-12113550Y6742315D01*
X-11953590Y6873590D01*
X-11842378Y7009103D01*
X-11809303Y7026782D01*
X-11773415Y7015896D01*
X-11755736Y6982821D01*
X-11755500Y6978018D01*
X-11755500Y5721981D01*
X-11769852Y5687333D01*
X-11804500Y5672981D01*
X-11839148Y5687333D01*
X-11842369Y5690886D01*
X-11953590Y5826410D01*
X-12113550Y5957685D01*
X-12296046Y6055232D01*
X-12395056Y6085266D01*
X-12494065Y6115300D01*
X-12514347Y6117297D01*
X-12700000Y6135583D01*
X-12905934Y6115300D01*
X-13103954Y6055232D01*
X-13286450Y5957685D01*
X-13446410Y5826410D01*
X-13577685Y5666450D01*
X-13675232Y5483954D01*
X-13735300Y5285934D01*
X-13755583Y5080000D01*
X-13735300Y4874066D01*
X-13675232Y4676046D01*
X-13577685Y4493550D01*
X-13446410Y4333590D01*
X-13286450Y4202315D01*
X-13103954Y4104768D01*
X-13103952Y4104767D01*
X-12905934Y4044699D01*
X-12718463Y4026235D01*
X-12700000Y4024417D01*
X-12699999Y4024417D01*
X-12494065Y4044699D01*
X-12296047Y4104767D01*
X-12113550Y4202315D01*
X-11953590Y4333590D01*
X-11842378Y4469103D01*
X-11809303Y4486782D01*
X-11773415Y4475896D01*
X-11755736Y4442821D01*
X-11755500Y4438018D01*
X-11755500Y3181981D01*
X-11769852Y3147333D01*
X-11804500Y3132981D01*
X-11839148Y3147333D01*
X-11842369Y3150886D01*
X-11953590Y3286410D01*
X-12113550Y3417685D01*
X-12296046Y3515232D01*
X-12397291Y3545944D01*
X-12494065Y3575300D01*
X-12517296Y3577588D01*
X-12700000Y3595583D01*
X-12905934Y3575300D01*
X-13103954Y3515232D01*
X-13286450Y3417685D01*
X-13446410Y3286410D01*
X-13577685Y3126450D01*
X-13675232Y2943954D01*
X-13735300Y2745934D01*
X-13755583Y2540000D01*
X-13743074Y2413000D01*
X-13735300Y2334065D01*
X-13709400Y2248684D01*
X-13675232Y2136046D01*
X-13577685Y1953550D01*
X-13446410Y1793590D01*
X-13286450Y1662315D01*
X-13103954Y1564768D01*
X-13103952Y1564767D01*
X-12905934Y1504699D01*
X-12700000Y1484417D01*
X-12494065Y1504699D01*
X-12296047Y1564767D01*
X-12113550Y1662315D01*
X-11953590Y1793590D01*
X-11842378Y1929103D01*
X-11809303Y1946782D01*
X-11773415Y1935896D01*
X-11755736Y1902821D01*
X-11755500Y1898018D01*
X-11755500Y641981D01*
X-11769852Y607333D01*
X-11804500Y592981D01*
X-11839148Y607333D01*
X-11842369Y610886D01*
X-11953590Y746410D01*
X-12113550Y877685D01*
X-12296046Y975232D01*
X-12424521Y1014204D01*
X-12494065Y1035300D01*
X-12512529Y1037118D01*
X-12700000Y1055583D01*
X-12905934Y1035300D01*
X-13103954Y975232D01*
X-13286450Y877685D01*
X-13446410Y746410D01*
X-13577685Y586450D01*
X-13675232Y403954D01*
X-13735300Y205934D01*
X-13755583Y0D01*
X-23854500Y0D01*
X-23854500Y1767176D01*
X-23840148Y1801824D01*
X-23811896Y1815757D01*
X-23719237Y1827956D01*
X-23573157Y1888465D01*
X-23447717Y1984717D01*
X-23351465Y2110157D01*
X-23290956Y2256237D01*
X-23270318Y2413000D01*
X-23290956Y2569762D01*
X-23311647Y2619715D01*
X-23351464Y2715841D01*
X-23374555Y2745934D01*
X-23447717Y2841282D01*
X-23533736Y2907286D01*
X-23573159Y2937536D01*
X-23719238Y2998044D01*
X-23876000Y3018682D01*
X-24032762Y2998044D01*
X-24178841Y2937536D01*
X-24304282Y2841282D01*
X-24400536Y2715841D01*
X-24461044Y2569762D01*
X-24481682Y2413000D01*
X-24468864Y2315639D01*
X-24465623Y2291022D01*
X-24474066Y2256520D01*
X-24479554Y2248684D01*
X-24481648Y2240865D01*
X-24486541Y2229052D01*
X-24490588Y2222045D01*
X-24497714Y2181628D01*
X-24498637Y2177462D01*
X-24509264Y2137807D01*
X-24506845Y2110159D01*
X-24505686Y2096911D01*
X-24505500Y2092640D01*
X-24505500Y-1672877D01*
X-24519852Y-1707525D01*
X-25254467Y-2442141D01*
X-25289115Y-2456493D01*
X-25295511Y-2456074D01*
X-25399999Y-2442318D01*
X-25400000Y-2442318D01*
X-25556762Y-2462956D01*
X-25702841Y-2523464D01*
X-25702842Y-2523465D01*
X-25828279Y-2619715D01*
X-25828280Y-2619716D01*
X-25828282Y-2619718D01*
X-25900444Y-2713761D01*
X-25932920Y-2732512D01*
X-25969145Y-2722806D01*
X-25987897Y-2690327D01*
X-25988086Y-2688675D01*
X-26052552Y-2025910D01*
X-26052699Y-2024015D01*
X-26111514Y-1014204D01*
X-26111588Y-1012305D01*
X-26131203Y-950D01*
X-26131203Y950D01*
X-26111588Y1012305D01*
X-26111514Y1014204D01*
X-26052699Y2024015D01*
X-26052552Y2025910D01*
X-25954622Y3032715D01*
X-25954401Y3034602D01*
X-25920307Y3284213D01*
X-25901398Y3316600D01*
X-25865127Y3326131D01*
X-25832886Y3307412D01*
X-25751678Y3201580D01*
X-25751677Y3201579D01*
X-25751675Y3201577D01*
X-25685625Y3150896D01*
X-25626237Y3105326D01*
X-25487840Y3048000D01*
X-25480158Y3044818D01*
X-25323396Y3024180D01*
X-25166633Y3044818D01*
X-25020553Y3105327D01*
X-24895113Y3201579D01*
X-24798861Y3327019D01*
X-24738351Y3473099D01*
X-24724595Y3577588D01*
X-24705843Y3610067D01*
X-24700514Y3613627D01*
X-23680618Y4202464D01*
X-23676827Y4204438D01*
X-23639629Y4221784D01*
X-23610596Y4250817D01*
X-23607457Y4253692D01*
X-23579602Y4277067D01*
X-23576012Y4280079D01*
X-23571965Y4287088D01*
X-23564186Y4297226D01*
X-23558460Y4302953D01*
X-23541115Y4340147D01*
X-23539143Y4343935D01*
X-23518618Y4379486D01*
X-23511487Y4419924D01*
X-23510562Y4424095D01*
X-22584297Y7880960D01*
X-22561467Y7910713D01*
X-22530571Y7916859D01*
X-22437915Y7904661D01*
X-22281152Y7925299D01*
X-22177857Y7968085D01*
X-22135074Y7985807D01*
X-22135073Y7985807D01*
X-22135072Y7985808D01*
X-22009632Y8082060D01*
X-21913380Y8207500D01*
X-21852871Y8353580D01*
X-21832233Y8510343D01*
X-21852871Y8667105D01*
X-21889350Y8755173D01*
X-21913379Y8813184D01*
X-21961420Y8875793D01*
X-22009632Y8938625D01*
X-22102716Y9010050D01*
X-22135074Y9034879D01*
X-22281153Y9095387D01*
X-22437915Y9116025D01*
X-22594677Y9095387D01*
X-22740756Y9034879D01*
X-22866197Y8938625D01*
X-22962451Y8813184D01*
X-23022959Y8667105D01*
X-23039017Y8545127D01*
X-23056102Y8513987D01*
X-23063431Y8507838D01*
X-23067478Y8500826D01*
X-23075266Y8490677D01*
X-23080984Y8484961D01*
X-23098341Y8447735D01*
X-23100285Y8444002D01*
X-23120825Y8408428D01*
X-23127954Y8367995D01*
X-23128878Y8363827D01*
X-24103468Y4726613D01*
X-24126296Y4696862D01*
X-25000223Y4192301D01*
X-25026015Y4177410D01*
X-25063197Y4172515D01*
X-25069262Y4174573D01*
X-25166634Y4214906D01*
X-25323396Y4235544D01*
X-25480158Y4214906D01*
X-25626237Y4154398D01*
X-25723543Y4079731D01*
X-25759766Y4070026D01*
X-25792244Y4088777D01*
X-25801951Y4125003D01*
X-25801626Y4127116D01*
X-25641560Y5034894D01*
X-25641193Y5036758D01*
X-25427055Y6025334D01*
X-25426617Y6027184D01*
X-25174291Y7006772D01*
X-25173781Y7008602D01*
X-24883676Y7977622D01*
X-24883096Y7979432D01*
X-24555624Y8936503D01*
X-24554974Y8938289D01*
X-24190646Y9881923D01*
X-24189927Y9883683D01*
X-24188858Y9886161D01*
X-24161956Y9912291D01*
X-24124457Y9911744D01*
X-24098596Y9885504D01*
X-24045581Y9757514D01*
X-24044453Y9756044D01*
X-23949327Y9632072D01*
X-23873058Y9573550D01*
X-23823886Y9535819D01*
X-23677807Y9475311D01*
X-23521045Y9454673D01*
X-23521044Y9454673D01*
X-23364282Y9475311D01*
X-23218202Y9535820D01*
X-23092762Y9632072D01*
X-22996510Y9757511D01*
X-22956177Y9854881D01*
X-22929658Y9881399D01*
X-22923589Y9883459D01*
X-21786034Y10188266D01*
X-21781862Y10189191D01*
X-21741448Y10196317D01*
X-21705905Y10216837D01*
X-21702117Y10218809D01*
X-21664914Y10236158D01*
X-21659185Y10241886D01*
X-21649043Y10249667D01*
X-21642039Y10253711D01*
X-21615660Y10285147D01*
X-21612774Y10288296D01*
X-21583746Y10317325D01*
X-21566395Y10354534D01*
X-21564421Y10358325D01*
X-19775014Y13457669D01*
X-19745261Y13480499D01*
X-19713827Y13478439D01*
X-19627485Y13442675D01*
X-19470723Y13422037D01*
X-19313960Y13442675D01*
X-19176071Y13499791D01*
X-19167882Y13503183D01*
X-19167881Y13503183D01*
X-19167880Y13503184D01*
X-19042440Y13599436D01*
X-18946188Y13724876D01*
X-18885679Y13870956D01*
X-18865041Y14027719D01*
X-18885679Y14184481D01*
X-18922518Y14273418D01*
X-18946187Y14330560D01*
X-19012937Y14417551D01*
X-19042440Y14456001D01*
X-19120524Y14515916D01*
X-19167882Y14552255D01*
X-19313961Y14612763D01*
X-19470723Y14633401D01*
X-19627485Y14612763D01*
X-19773564Y14552255D01*
X-19899005Y14456001D01*
X-19995259Y14330560D01*
X-20018927Y14273418D01*
X-20042339Y14216896D01*
X-20066902Y14191237D01*
X-20075574Y14187194D01*
X-20081291Y14181476D01*
X-20091440Y14173687D01*
X-20098449Y14169642D01*
X-20124841Y14138187D01*
X-20127719Y14135047D01*
X-20156742Y14106026D01*
X-20174094Y14068813D01*
X-20176057Y14065043D01*
X-22053902Y10812520D01*
X-22058824Y10803995D01*
X-22088575Y10781166D01*
X-23092080Y10512277D01*
X-23129262Y10517172D01*
X-23134591Y10520733D01*
X-23190916Y10563952D01*
X-23218204Y10584891D01*
X-23364283Y10645399D01*
X-23521045Y10666037D01*
X-23677807Y10645399D01*
X-23789708Y10599048D01*
X-23827208Y10599048D01*
X-23853727Y10625566D01*
X-23853727Y10663069D01*
X-23853450Y10663726D01*
X-23789266Y10812520D01*
X-23788479Y10814250D01*
X-23352120Y11726818D01*
X-23351267Y11728516D01*
X-22879851Y12623478D01*
X-22878933Y12625142D01*
X-22373161Y13501164D01*
X-22372179Y13502791D01*
X-21832828Y14358528D01*
X-21831784Y14360116D01*
X-21274790Y15172235D01*
X-12014212Y15172235D01*
X-11984586Y14902982D01*
X-11916072Y14640912D01*
X-11810130Y14391610D01*
X-11669018Y14160390D01*
X-11495745Y13952180D01*
X-11294002Y13771418D01*
X-11170098Y13689444D01*
X-11068087Y13621954D01*
X-10822822Y13506979D01*
X-10563434Y13428940D01*
X-10362437Y13399360D01*
X-10295439Y13389500D01*
X-10093261Y13389500D01*
X-10092369Y13389500D01*
X-10091486Y13389564D01*
X-10091475Y13389565D01*
X-9889847Y13404322D01*
X-9625445Y13463220D01*
X-9372440Y13559986D01*
X-9136220Y13692560D01*
X-8921826Y13858109D01*
X-8733813Y14053120D01*
X-8576202Y14273418D01*
X-8452341Y14514330D01*
X-8364882Y14770690D01*
X-8315680Y15037069D01*
X-8305788Y15307763D01*
X-8308834Y15335443D01*
X-8320660Y15442930D01*
X-8335413Y15577015D01*
X-8403928Y15839089D01*
X-8509870Y16088390D01*
X-8650980Y16319607D01*
X-8659452Y16329787D01*
X-8824255Y16527820D01*
X-9025998Y16708582D01*
X-9251910Y16858044D01*
X-9497176Y16973020D01*
X-9651928Y17019578D01*
X-9756565Y17051059D01*
X-9756566Y17051059D01*
X-9756569Y17051060D01*
X-10024561Y17090500D01*
X-10024562Y17090500D01*
X-10226739Y17090500D01*
X-10227631Y17090500D01*
X-10430156Y17075677D01*
X-10694553Y17016780D01*
X-10947558Y16920014D01*
X-11183777Y16787441D01*
X-11398177Y16621888D01*
X-11586186Y16426881D01*
X-11743799Y16206579D01*
X-11867656Y15965675D01*
X-11867658Y15965669D01*
X-11954820Y15710178D01*
X-11955118Y15709305D01*
X-12004319Y15442933D01*
X-12014212Y15172235D01*
X-21274790Y15172235D01*
X-21259647Y15194314D01*
X-21258542Y15195860D01*
X-20806110Y15803580D01*
X-20773908Y15822802D01*
X-20737545Y15813623D01*
X-20718323Y15781421D01*
X-20718238Y15780808D01*
X-20706469Y15691410D01*
X-20700818Y15648488D01*
X-20688228Y15618095D01*
X-20640310Y15502410D01*
X-20620035Y15475987D01*
X-20544056Y15376968D01*
X-20453867Y15307765D01*
X-20418615Y15280715D01*
X-20272535Y15220207D01*
X-20272536Y15220207D01*
X-20115774Y15199569D01*
X-19959011Y15220207D01*
X-19812931Y15280716D01*
X-19687491Y15376968D01*
X-19623335Y15460580D01*
X-19590857Y15479332D01*
X-19584461Y15479751D01*
X-18406792Y15479751D01*
X-18402521Y15479565D01*
X-18361625Y15475986D01*
X-18321961Y15486614D01*
X-18317790Y15487538D01*
X-18277388Y15494662D01*
X-18270377Y15498710D01*
X-18258566Y15503602D01*
X-18250747Y15505697D01*
X-18217134Y15529233D01*
X-18213532Y15531528D01*
X-18177978Y15552056D01*
X-18151588Y15583505D01*
X-18148701Y15586655D01*
X-15618095Y18117260D01*
X-15583447Y18131612D01*
X-15553619Y18121487D01*
X-15479474Y18064594D01*
X-15333395Y18004086D01*
X-15176633Y17983448D01*
X-15176632Y17983448D01*
X-15019870Y18004086D01*
X-14873790Y18064595D01*
X-14748350Y18160847D01*
X-14652098Y18286287D01*
X-14591589Y18432367D01*
X-14570951Y18589130D01*
X-14591589Y18745892D01*
X-14652097Y18891971D01*
X-14693699Y18946188D01*
X-14748350Y19017412D01*
X-14835409Y19084214D01*
X-14873792Y19113666D01*
X-15019871Y19174174D01*
X-15176633Y19194812D01*
X-15333395Y19174174D01*
X-15479474Y19113666D01*
X-15604915Y19017412D01*
X-15679811Y18919803D01*
X-15710175Y18901379D01*
X-15719599Y18899718D01*
X-15726611Y18895669D01*
X-15738422Y18890777D01*
X-15746238Y18888683D01*
X-15779865Y18865136D01*
X-15783445Y18862855D01*
X-15819009Y18842324D01*
X-15843501Y18813133D01*
X-15845393Y18810880D01*
X-15848270Y18807739D01*
X-17565510Y17090500D01*
X-18510907Y16145103D01*
X-18545555Y16130751D01*
X-19584461Y16130751D01*
X-19619109Y16145103D01*
X-19623335Y16149922D01*
X-19687491Y16233533D01*
X-19765575Y16293448D01*
X-19812933Y16329787D01*
X-19959012Y16390295D01*
X-20115774Y16410933D01*
X-20232825Y16395523D01*
X-20269050Y16405230D01*
X-20287802Y16437708D01*
X-20278095Y16473933D01*
X-20277361Y16474867D01*
X-20018270Y16796090D01*
X-20017048Y16797546D01*
X-19351942Y17559674D01*
X-19350665Y17561081D01*
X-18656519Y18296831D01*
X-18655189Y18298188D01*
X-17933001Y19006506D01*
X-17931618Y19007810D01*
X-17182542Y19687560D01*
X-17181111Y19688809D01*
X-16406214Y20339024D01*
X-16404734Y20340217D01*
X-16006742Y20648684D01*
X-15970565Y20658566D01*
X-15937996Y20639972D01*
X-15928114Y20603795D01*
X-15945327Y20473045D01*
X-15924689Y20316283D01*
X-15864181Y20170204D01*
X-15831582Y20127720D01*
X-15767927Y20044762D01*
X-15703412Y19995259D01*
X-15642486Y19948509D01*
X-15522973Y19899005D01*
X-15496407Y19888001D01*
X-15339645Y19867363D01*
X-15182882Y19888001D01*
X-15036802Y19948510D01*
X-14953189Y20012666D01*
X-14916964Y20022372D01*
X-14910679Y20021121D01*
X-13773133Y19716317D01*
X-13769058Y19715032D01*
X-13730488Y19700994D01*
X-13689445Y19700994D01*
X-13685175Y19700808D01*
X-13644286Y19697230D01*
X-13638205Y19698860D01*
X-13636474Y19699324D01*
X-13623793Y19700994D01*
X-13615700Y19700994D01*
X-13577126Y19715033D01*
X-13573053Y19716317D01*
X-13533408Y19726939D01*
X-13499782Y19750484D01*
X-13496178Y19752780D01*
X-10396829Y21542190D01*
X-10359647Y21547085D01*
X-10333455Y21529584D01*
X-10276563Y21455440D01*
X-10174800Y21377356D01*
X-10151122Y21359187D01*
X-10005043Y21298679D01*
X-9848281Y21278041D01*
X-9691518Y21298679D01*
X-9545438Y21359188D01*
X-9419998Y21455440D01*
X-9323746Y21580880D01*
X-9263237Y21726960D01*
X-9242599Y21883723D01*
X-9263237Y22040485D01*
X-9275037Y22068972D01*
X-9323745Y22186564D01*
X-9341914Y22210242D01*
X-9419998Y22312005D01*
X-9498082Y22371920D01*
X-9545440Y22408259D01*
X-9691519Y22468767D01*
X-9848281Y22489405D01*
X-10005043Y22468767D01*
X-10151122Y22408259D01*
X-10248729Y22333361D01*
X-10282828Y22323424D01*
X-10292359Y22324258D01*
X-10292359Y22324257D01*
X-10292360Y22324258D01*
X-10300175Y22322164D01*
X-10312858Y22320494D01*
X-10320946Y22320494D01*
X-10359522Y22306452D01*
X-10363561Y22305179D01*
X-10403237Y22294549D01*
X-10436886Y22270987D01*
X-10440457Y22268711D01*
X-13701503Y20385945D01*
X-13738684Y20381051D01*
X-13756953Y20385946D01*
X-13891803Y20422079D01*
X-14742190Y20649940D01*
X-14771942Y20672769D01*
X-14774777Y20678517D01*
X-14784015Y20700818D01*
X-14815109Y20775886D01*
X-14815110Y20775888D01*
X-14911362Y20901327D01*
X-14989446Y20961242D01*
X-15036804Y20997581D01*
X-15182883Y21058089D01*
X-15300406Y21073561D01*
X-15332884Y21092313D01*
X-15342591Y21128538D01*
X-15323839Y21161016D01*
X-15322503Y21162006D01*
X-14780776Y21549210D01*
X-14779209Y21550285D01*
X-13934068Y22106142D01*
X-13932460Y22107155D01*
X-13066429Y22629808D01*
X-13064784Y22630758D01*
X-12179119Y23119447D01*
X-12177437Y23120333D01*
X-11273502Y23574306D01*
X-11271788Y23575126D01*
X-10350919Y23993712D01*
X-10349174Y23994464D01*
X-10115944Y24089749D01*
X-10078441Y24089568D01*
X-10052052Y24062921D01*
X-10052141Y24025638D01*
X-10103190Y23902398D01*
X-10123828Y23745636D01*
X-10103190Y23588874D01*
X-10042682Y23442795D01*
X-10042680Y23442793D01*
X-9946428Y23317353D01*
X-9869978Y23258692D01*
X-9820987Y23221100D01*
X-9679369Y23162440D01*
X-9674908Y23160592D01*
X-9518146Y23139954D01*
X-9361382Y23160592D01*
X-9264017Y23200922D01*
X-9226514Y23200922D01*
X-9220768Y23198088D01*
X-8812629Y22962449D01*
X-8200865Y22609247D01*
X-8197260Y22606951D01*
X-8163640Y22583410D01*
X-8124001Y22572789D01*
X-8119926Y22571504D01*
X-8081352Y22557465D01*
X-8081351Y22557465D01*
X-8073258Y22557465D01*
X-8060576Y22555795D01*
X-8058504Y22555240D01*
X-8052764Y22553701D01*
X-8011876Y22557279D01*
X-8007606Y22557465D01*
X-7966563Y22557465D01*
X-7966562Y22557465D01*
X-7951537Y22562933D01*
X-7927991Y22571502D01*
X-7923916Y22572786D01*
X-4467037Y23499056D01*
X-4429855Y23494161D01*
X-4409085Y23470477D01*
X-4373321Y23384134D01*
X-4373320Y23384133D01*
X-4277067Y23258692D01*
X-4201778Y23200922D01*
X-4151626Y23162439D01*
X-4005547Y23101931D01*
X-3848785Y23081293D01*
X-3848784Y23081293D01*
X-3692022Y23101931D01*
X-3545942Y23162440D01*
X-3420502Y23258692D01*
X-3324250Y23384132D01*
X-3263741Y23530212D01*
X-3243103Y23686975D01*
X-3263741Y23843737D01*
X-3324249Y23989816D01*
X-3351735Y24025637D01*
X-3420502Y24115257D01*
X-3503369Y24178842D01*
X-3545944Y24211511D01*
X-3692023Y24272019D01*
X-3848785Y24292657D01*
X-4005547Y24272019D01*
X-4119211Y24224936D01*
X-4154721Y24224162D01*
X-4163713Y24227435D01*
X-4171802Y24227435D01*
X-4184485Y24229105D01*
X-4192299Y24231199D01*
X-4192299Y24231198D01*
X-4192300Y24231199D01*
X-4233199Y24227620D01*
X-4237469Y24227435D01*
X-4278503Y24227435D01*
X-4285365Y24224937D01*
X-4317073Y24213395D01*
X-4321121Y24212118D01*
X-7958364Y23237522D01*
X-7995546Y23242417D01*
X-8125339Y23317353D01*
X-8895265Y23761870D01*
X-8918094Y23791622D01*
X-8919345Y23797908D01*
X-8933101Y23902398D01*
X-8971258Y23994516D01*
X-8993610Y24048477D01*
X-9026527Y24091376D01*
X-9089863Y24173918D01*
X-9167947Y24233833D01*
X-9215305Y24270172D01*
X-9328617Y24317107D01*
X-9355135Y24343626D01*
X-9355135Y24381129D01*
X-9328616Y24407647D01*
X-9326624Y24408422D01*
X-8460452Y24723684D01*
X-8458654Y24724299D01*
X-7495420Y25033148D01*
X-7493599Y25033693D01*
X-6519118Y25304957D01*
X-6517278Y25305431D01*
X-5533024Y25538704D01*
X-5531167Y25539107D01*
X-4538569Y25734047D01*
X-4536697Y25734377D01*
X-3537306Y25890678D01*
X-3535425Y25890934D01*
X-3532765Y25891245D01*
X-3496685Y25881014D01*
X-3478407Y25848267D01*
X-3488200Y25812749D01*
X-3572536Y25702841D01*
X-3633044Y25556762D01*
X-3653682Y25400000D01*
X-3633044Y25243238D01*
X-3572536Y25097159D01*
X-3572534Y25097157D01*
X-3476282Y24971717D01*
X-3376449Y24895114D01*
X-3350841Y24875464D01*
X-3204762Y24814956D01*
X-3048000Y24794318D01*
X-3047999Y24794318D01*
X-2943511Y24808074D01*
X-2907286Y24798367D01*
X-2902467Y24794141D01*
X-2069724Y23961398D01*
X-2066847Y23958259D01*
X-2040455Y23926806D01*
X-2023274Y23916886D01*
X-2004911Y23906284D01*
X-2001306Y23903988D01*
X-1967684Y23880446D01*
X-1967683Y23880445D01*
X-1967682Y23880445D01*
X-1959867Y23878351D01*
X-1948050Y23873456D01*
X-1941044Y23869411D01*
X-1900632Y23862285D01*
X-1896460Y23861360D01*
X-1856809Y23850735D01*
X-1819462Y23854003D01*
X-1815907Y23854314D01*
X-1811638Y23854500D01*
X1767177Y23854500D01*
X1801825Y23840148D01*
X1815757Y23811896D01*
X1827956Y23719238D01*
X1887810Y23574737D01*
X1888465Y23573157D01*
X1984717Y23447717D01*
X2110157Y23351465D01*
X2256237Y23290956D01*
X2412999Y23270318D01*
X2413000Y23270318D01*
X2569762Y23290956D01*
X2715841Y23351464D01*
X2758416Y23384133D01*
X2841282Y23447717D01*
X2926258Y23558461D01*
X2937536Y23573159D01*
X2998044Y23719238D01*
X3018682Y23876000D01*
X2998044Y24032762D01*
X2937536Y24178841D01*
X2841282Y24304282D01*
X2715841Y24400536D01*
X2569762Y24461044D01*
X2413000Y24481682D01*
X2291021Y24465623D01*
X2256520Y24474066D01*
X2248684Y24479554D01*
X2240865Y24481648D01*
X2229052Y24486541D01*
X2222045Y24490588D01*
X2181623Y24497715D01*
X2177462Y24498637D01*
X2137807Y24509264D01*
X2096912Y24505686D01*
X2092641Y24505500D01*
X-1672878Y24505500D01*
X-1707526Y24519852D01*
X-2442141Y25254467D01*
X-2456493Y25289115D01*
X-2456074Y25295511D01*
X-2442318Y25400000D01*
X-2462956Y25556762D01*
X-2498453Y25642458D01*
X-2523464Y25702841D01*
X-2547409Y25734047D01*
X-2619717Y25828282D01*
X-2715806Y25902013D01*
X-2734558Y25934491D01*
X-2724851Y25970716D01*
X-2692373Y25989468D01*
X-2691666Y25989556D01*
X-2530729Y26008367D01*
X-2528837Y26008551D01*
X-1520329Y26086939D01*
X-1518432Y26087049D01*
X-507672Y26126272D01*
X-505772Y26126309D01*
X505772Y26126309D01*
X507672Y26126272D01*
G37*
G04 #@! TD.AperFunction*
M02*
