G04 #@! TF.GenerationSoftware,KiCad,Pcbnew,7.0.2-0*
G04 #@! TF.CreationDate,2023-06-19T13:03:14-04:00*
G04 #@! TF.ProjectId,speed_joystick,73706565-645f-46a6-9f79-737469636b2e,rev?*
G04 #@! TF.SameCoordinates,Original*
G04 #@! TF.FileFunction,Paste,Top*
G04 #@! TF.FilePolarity,Positive*
%FSLAX46Y46*%
G04 Gerber Fmt 4.6, Leading zero omitted, Abs format (unit mm)*
G04 Created by KiCad (PCBNEW 7.0.2-0) date 2023-06-19 13:03:14*
%MOMM*%
%LPD*%
G01*
G04 APERTURE LIST*
G04 Aperture macros list*
%AMRoundRect*
0 Rectangle with rounded corners*
0 $1 Rounding radius*
0 $2 $3 $4 $5 $6 $7 $8 $9 X,Y pos of 4 corners*
0 Add a 4 corners polygon primitive as box body*
4,1,4,$2,$3,$4,$5,$6,$7,$8,$9,$2,$3,0*
0 Add four circle primitives for the rounded corners*
1,1,$1+$1,$2,$3*
1,1,$1+$1,$4,$5*
1,1,$1+$1,$6,$7*
1,1,$1+$1,$8,$9*
0 Add four rect primitives between the rounded corners*
20,1,$1+$1,$2,$3,$4,$5,0*
20,1,$1+$1,$4,$5,$6,$7,0*
20,1,$1+$1,$6,$7,$8,$9,0*
20,1,$1+$1,$8,$9,$2,$3,0*%
%AMRotRect*
0 Rectangle, with rotation*
0 The origin of the aperture is its center*
0 $1 length*
0 $2 width*
0 $3 Rotation angle, in degrees counterclockwise*
0 Add horizontal line*
21,1,$1,$2,0,0,$3*%
%AMFreePoly0*
4,1,27,0.535355,0.635355,0.550000,0.600000,0.550000,-0.600000,0.535355,-0.635355,0.500000,-0.650000,-0.050000,-0.650000,-0.085355,-0.635355,-0.100000,-0.600000,-0.100000,-0.486441,-0.207708,-0.454816,-0.327430,-0.377875,-0.420627,-0.270320,-0.429907,-0.250000,-0.500000,-0.250000,-0.535356,-0.235355,-0.550000,-0.200000,-0.550001,0.350000,-0.535355,0.385355,-0.500000,0.400000,-0.293003,0.400000,
-0.207707,0.454816,-0.100000,0.486441,-0.100000,0.600000,-0.085355,0.635355,-0.050000,0.650000,0.500000,0.650000,0.535355,0.635355,0.535355,0.635355,$1*%
%AMFreePoly1*
4,1,27,0.085355,0.635355,0.100000,0.600000,0.100000,0.486441,0.207708,0.454816,0.293003,0.400000,0.500000,0.400000,0.535355,0.385355,0.550000,0.350000,0.550000,-0.200000,0.535355,-0.235355,0.500000,-0.250000,0.429908,-0.250000,0.420627,-0.270320,0.327430,-0.377875,0.207707,-0.454816,0.100000,-0.486441,0.100000,-0.600000,0.085355,-0.635355,0.050000,-0.650000,-0.500000,-0.650000,
-0.535355,-0.635355,-0.550000,-0.600000,-0.550000,0.600000,-0.535355,0.635355,-0.500000,0.650000,0.050000,0.650000,0.085355,0.635355,0.085355,0.635355,$1*%
G04 Aperture macros list end*
%ADD10FreePoly0,255.000000*%
%ADD11RotRect,0.700000X1.200000X255.000000*%
%ADD12RotRect,0.450000X1.200000X255.000000*%
%ADD13FreePoly1,255.000000*%
%ADD14FreePoly0,165.000000*%
%ADD15RotRect,0.700000X1.200000X165.000000*%
%ADD16RotRect,0.450000X1.200000X165.000000*%
%ADD17FreePoly1,165.000000*%
%ADD18RoundRect,0.225000X-0.225000X-0.250000X0.225000X-0.250000X0.225000X0.250000X-0.225000X0.250000X0*%
%ADD19FreePoly0,30.000000*%
%ADD20RotRect,0.700000X1.200000X30.000000*%
%ADD21RotRect,0.450000X1.200000X30.000000*%
%ADD22FreePoly1,30.000000*%
%ADD23RoundRect,0.225000X0.250000X-0.225000X0.250000X0.225000X-0.250000X0.225000X-0.250000X-0.225000X0*%
%ADD24RoundRect,0.225000X0.225000X0.250000X-0.225000X0.250000X-0.225000X-0.250000X0.225000X-0.250000X0*%
%ADD25RoundRect,0.150000X-0.587500X-0.150000X0.587500X-0.150000X0.587500X0.150000X-0.587500X0.150000X0*%
%ADD26FreePoly0,300.000000*%
%ADD27RotRect,0.700000X1.200000X300.000000*%
%ADD28RotRect,0.450000X1.200000X300.000000*%
%ADD29FreePoly1,300.000000*%
%ADD30FreePoly0,150.000000*%
%ADD31RotRect,0.700000X1.200000X150.000000*%
%ADD32RotRect,0.450000X1.200000X150.000000*%
%ADD33FreePoly1,150.000000*%
%ADD34RoundRect,0.225000X0.152629X0.299716X-0.282038X0.183247X-0.152629X-0.299716X0.282038X-0.183247X0*%
%ADD35RoundRect,0.225000X0.183247X-0.282038X0.299716X0.152629X-0.183247X0.282038X-0.299716X-0.152629X0*%
%ADD36RoundRect,0.225000X-0.152629X-0.299716X0.282038X-0.183247X0.152629X0.299716X-0.282038X0.183247X0*%
%ADD37RoundRect,0.100000X0.100000X-0.637500X0.100000X0.637500X-0.100000X0.637500X-0.100000X-0.637500X0*%
%ADD38FreePoly0,315.000000*%
%ADD39RotRect,0.700000X1.200000X315.000000*%
%ADD40RotRect,0.450000X1.200000X315.000000*%
%ADD41FreePoly1,315.000000*%
%ADD42FreePoly0,105.000000*%
%ADD43RotRect,0.700000X1.200000X105.000000*%
%ADD44RotRect,0.450000X1.200000X105.000000*%
%ADD45FreePoly1,105.000000*%
%ADD46FreePoly0,135.000000*%
%ADD47RotRect,0.700000X1.200000X135.000000*%
%ADD48RotRect,0.450000X1.200000X135.000000*%
%ADD49FreePoly1,135.000000*%
%ADD50FreePoly0,330.000000*%
%ADD51RotRect,0.700000X1.200000X330.000000*%
%ADD52RotRect,0.450000X1.200000X330.000000*%
%ADD53FreePoly1,330.000000*%
%ADD54FreePoly0,195.000000*%
%ADD55RotRect,0.700000X1.200000X195.000000*%
%ADD56RotRect,0.450000X1.200000X195.000000*%
%ADD57FreePoly1,195.000000*%
%ADD58FreePoly0,0.000000*%
%ADD59R,0.700000X1.200000*%
%ADD60R,0.450000X1.200000*%
%ADD61FreePoly1,0.000000*%
%ADD62RoundRect,0.225000X-0.183247X0.282038X-0.299716X-0.152629X0.183247X-0.282038X0.299716X0.152629X0*%
%ADD63FreePoly0,90.000000*%
%ADD64R,1.200000X0.700000*%
%ADD65R,1.200000X0.450000*%
%ADD66FreePoly1,90.000000*%
%ADD67RoundRect,0.225000X-0.329006X0.069856X-0.104006X-0.319856X0.329006X-0.069856X0.104006X0.319856X0*%
%ADD68RoundRect,0.225000X-0.299716X0.152629X-0.183247X-0.282038X0.299716X-0.152629X0.183247X0.282038X0*%
%ADD69RoundRect,0.225000X-0.319856X-0.104006X0.069856X-0.329006X0.319856X0.104006X-0.069856X0.329006X0*%
%ADD70FreePoly0,210.000000*%
%ADD71RotRect,0.700000X1.200000X210.000000*%
%ADD72RotRect,0.450000X1.200000X210.000000*%
%ADD73FreePoly1,210.000000*%
%ADD74FreePoly0,240.000000*%
%ADD75RotRect,0.700000X1.200000X240.000000*%
%ADD76RotRect,0.450000X1.200000X240.000000*%
%ADD77FreePoly1,240.000000*%
%ADD78FreePoly0,345.000000*%
%ADD79RotRect,0.700000X1.200000X345.000000*%
%ADD80RotRect,0.450000X1.200000X345.000000*%
%ADD81FreePoly1,345.000000*%
%ADD82RoundRect,0.225000X0.069856X0.329006X-0.319856X0.104006X-0.069856X-0.329006X0.319856X-0.104006X0*%
%ADD83RoundRect,0.225000X0.104006X-0.319856X0.329006X0.069856X-0.104006X0.319856X-0.329006X-0.069856X0*%
%ADD84FreePoly0,15.000000*%
%ADD85RotRect,0.700000X1.200000X15.000000*%
%ADD86RotRect,0.450000X1.200000X15.000000*%
%ADD87FreePoly1,15.000000*%
%ADD88FreePoly0,285.000000*%
%ADD89RotRect,0.700000X1.200000X285.000000*%
%ADD90RotRect,0.450000X1.200000X285.000000*%
%ADD91FreePoly1,285.000000*%
%ADD92RoundRect,0.225000X-0.250000X0.225000X-0.250000X-0.225000X0.250000X-0.225000X0.250000X0.225000X0*%
%ADD93FreePoly0,120.000000*%
%ADD94RotRect,0.700000X1.200000X120.000000*%
%ADD95RotRect,0.450000X1.200000X120.000000*%
%ADD96FreePoly1,120.000000*%
%ADD97RoundRect,0.225000X0.335876X0.017678X0.017678X0.335876X-0.335876X-0.017678X-0.017678X-0.335876X0*%
%ADD98FreePoly0,45.000000*%
%ADD99RotRect,0.700000X1.200000X45.000000*%
%ADD100RotRect,0.450000X1.200000X45.000000*%
%ADD101FreePoly1,45.000000*%
%ADD102RoundRect,0.225000X-0.104006X0.319856X-0.329006X-0.069856X0.104006X-0.319856X0.329006X0.069856X0*%
%ADD103FreePoly0,225.000000*%
%ADD104RotRect,0.700000X1.200000X225.000000*%
%ADD105RotRect,0.450000X1.200000X225.000000*%
%ADD106FreePoly1,225.000000*%
%ADD107RoundRect,0.225000X0.282038X0.183247X-0.152629X0.299716X-0.282038X-0.183247X0.152629X-0.299716X0*%
%ADD108FreePoly0,180.000000*%
%ADD109FreePoly1,180.000000*%
%ADD110RoundRect,0.225000X-0.335876X-0.017678X-0.017678X-0.335876X0.335876X0.017678X0.017678X0.335876X0*%
%ADD111RoundRect,0.250000X0.450000X-0.262500X0.450000X0.262500X-0.450000X0.262500X-0.450000X-0.262500X0*%
%ADD112RoundRect,0.225000X0.329006X-0.069856X0.104006X0.319856X-0.329006X0.069856X-0.104006X-0.319856X0*%
%ADD113RoundRect,0.225000X-0.282038X-0.183247X0.152629X-0.299716X0.282038X0.183247X-0.152629X0.299716X0*%
%ADD114FreePoly0,75.000000*%
%ADD115RotRect,0.700000X1.200000X75.000000*%
%ADD116RotRect,0.450000X1.200000X75.000000*%
%ADD117FreePoly1,75.000000*%
%ADD118RoundRect,0.225000X0.319856X0.104006X-0.069856X0.329006X-0.319856X-0.104006X0.069856X-0.329006X0*%
%ADD119RoundRect,0.225000X0.017678X-0.335876X0.335876X-0.017678X-0.017678X0.335876X-0.335876X0.017678X0*%
%ADD120FreePoly0,270.000000*%
%ADD121FreePoly1,270.000000*%
%ADD122RoundRect,0.225000X0.299716X-0.152629X0.183247X0.282038X-0.299716X0.152629X-0.183247X-0.282038X0*%
%ADD123RoundRect,0.225000X-0.069856X-0.329006X0.319856X-0.104006X0.069856X0.329006X-0.319856X0.104006X0*%
%ADD124RoundRect,0.225000X-0.017678X0.335876X-0.335876X0.017678X0.017678X-0.335876X0.335876X-0.017678X0*%
%ADD125FreePoly0,60.000000*%
%ADD126RotRect,0.700000X1.200000X60.000000*%
%ADD127RotRect,0.450000X1.200000X60.000000*%
%ADD128FreePoly1,60.000000*%
G04 APERTURE END LIST*
D10*
X-23562940Y8237214D03*
D11*
X-23887231Y6926485D03*
D12*
X-24152521Y5936411D03*
D13*
X-24469574Y4753152D03*
D14*
X8237214Y23562940D03*
D15*
X6926485Y23887231D03*
D16*
X5936411Y24152521D03*
D17*
X4753152Y24469574D03*
D18*
X12646500Y-7576000D03*
X14196500Y-7576000D03*
D19*
X10836925Y-22486104D03*
D20*
X11993060Y-21788588D03*
D21*
X12880736Y-21276088D03*
D22*
X13941617Y-20663588D03*
D23*
X254000Y-2032000D03*
X254000Y-482000D03*
D24*
X23114000Y-508000D03*
X21564000Y-508000D03*
D25*
X13032500Y-3876000D03*
X13032500Y-5776000D03*
X14907500Y-4826000D03*
D23*
X0Y-8649000D03*
X0Y-7099000D03*
D26*
X-22486104Y-10836925D03*
D27*
X-21788588Y-11993060D03*
D28*
X-21276088Y-12880736D03*
D29*
X-20663588Y-13941617D03*
D30*
X14055075Y20628104D03*
D31*
X12872940Y21280588D03*
D32*
X11985264Y21793088D03*
D33*
X10924383Y22405588D03*
D34*
X22457890Y5491653D03*
X20960704Y5090483D03*
D35*
X-6473034Y-22194930D03*
X-6071864Y-20697744D03*
D23*
X-1283000Y-2032000D03*
X-1283000Y-482000D03*
D36*
X-22457890Y-5491653D03*
X-20960704Y-5090483D03*
D37*
X2430400Y-7909400D03*
X3080400Y-7909400D03*
X3730400Y-7909400D03*
X4380400Y-7909400D03*
X5030400Y-7909400D03*
X5680400Y-7909400D03*
X6330400Y-7909400D03*
X6980400Y-7909400D03*
X7630400Y-7909400D03*
X8280400Y-7909400D03*
X8280400Y-2184400D03*
X7630400Y-2184400D03*
X6980400Y-2184400D03*
X6330400Y-2184400D03*
X5680400Y-2184400D03*
X5030400Y-2184400D03*
X4380400Y-2184400D03*
X3730400Y-2184400D03*
X3080400Y-2184400D03*
X2430400Y-2184400D03*
D38*
X-18915107Y-16287497D03*
D39*
X-17942128Y-17223707D03*
D40*
X-17217343Y-17948491D03*
D41*
X-16351137Y-18814697D03*
D42*
X24524711Y4647833D03*
D43*
X24150192Y5945104D03*
D44*
X23884902Y6935178D03*
D45*
X23567849Y8118437D03*
D46*
X18915107Y16287497D03*
D47*
X17942128Y17223707D03*
D48*
X17217343Y17948491D03*
D49*
X16351137Y18814697D03*
D23*
X-508000Y-23114000D03*
X-508000Y-21564000D03*
D50*
X-14055075Y-20628104D03*
D51*
X-12872940Y-21280588D03*
D52*
X-11985264Y-21793088D03*
D53*
X-10924383Y-22405588D03*
D54*
X-4647833Y24524711D03*
D55*
X-5945104Y24150192D03*
D56*
X-6935178Y23884902D03*
D57*
X-8118437Y23567849D03*
D58*
X-1858000Y-24892000D03*
D59*
X-508000Y-24866000D03*
D60*
X517000Y-24866000D03*
D61*
X1742000Y-24866000D03*
D62*
X6473034Y22194930D03*
X6071864Y20697744D03*
D63*
X24892000Y-1858000D03*
D64*
X24866000Y-508000D03*
D65*
X24866000Y517000D03*
D66*
X24866000Y1742000D03*
D67*
X-11117059Y20271311D03*
X-10342059Y18928971D03*
D18*
X-23114000Y508000D03*
X-21564000Y508000D03*
D68*
X-5491653Y22457890D03*
X-5090483Y20960704D03*
D69*
X-19763311Y11996941D03*
X-18420971Y11221941D03*
D70*
X-10836925Y22486104D03*
D71*
X-11993060Y21788588D03*
D72*
X-12880736Y21276088D03*
D73*
X-13941617Y20663588D03*
D74*
X-20628104Y14055075D03*
D75*
X-21280588Y12872940D03*
D76*
X-21793088Y11985264D03*
D77*
X-22405588Y10924383D03*
D78*
X-8237214Y-23562940D03*
D79*
X-6926485Y-23887231D03*
D80*
X-5936411Y-24152521D03*
D81*
X-4753152Y-24469574D03*
D82*
X20271311Y11117059D03*
X18928971Y10342059D03*
D23*
X-1778000Y-8649000D03*
X-1778000Y-7099000D03*
D83*
X-11996941Y-19763311D03*
X-11221941Y-18420971D03*
D84*
X4647833Y-24524711D03*
D85*
X5945104Y-24150192D03*
D86*
X6935178Y-23884902D03*
D87*
X8118437Y-23567849D03*
D88*
X-24524711Y-4647833D03*
D89*
X-24150192Y-5945104D03*
D90*
X-23884902Y-6935178D03*
D91*
X-23567849Y-8118437D03*
D92*
X508000Y23114000D03*
X508000Y21564000D03*
D93*
X22486104Y10836925D03*
D94*
X21788588Y11993060D03*
D95*
X21276088Y12880736D03*
D96*
X20663588Y13941617D03*
D97*
X15984856Y-16703277D03*
X14888840Y-15607261D03*
D98*
X16287497Y-18915107D03*
D99*
X17223707Y-17942128D03*
D100*
X17948491Y-17217343D03*
D101*
X18814697Y-16351137D03*
D102*
X11996941Y19763311D03*
X11221941Y18420971D03*
D103*
X-16287497Y18915107D03*
D104*
X-17223707Y17942128D03*
D105*
X-17948491Y17217343D03*
D106*
X-18814697Y16351137D03*
D107*
X22194930Y-6473034D03*
X20697744Y-6071864D03*
D108*
X1858000Y24892000D03*
D59*
X508000Y24866000D03*
D60*
X-517000Y24866000D03*
D109*
X-1742000Y24866000D03*
D110*
X-15984856Y16703277D03*
X-14888840Y15607261D03*
D111*
X10160000Y-12342500D03*
X10160000Y-10517500D03*
D112*
X11117059Y-20271311D03*
X10342059Y-18928971D03*
D113*
X-22194930Y6473034D03*
X-20697744Y6071864D03*
D114*
X23562940Y-8237214D03*
D115*
X23887231Y-6926485D03*
D116*
X24152521Y-5936411D03*
D117*
X24469574Y-4753152D03*
D24*
X14491000Y-2032000D03*
X12941000Y-2032000D03*
D118*
X19763311Y-11996941D03*
X18420971Y-11221941D03*
D119*
X-16703277Y-15984856D03*
X-15607261Y-14888840D03*
D120*
X-24892000Y1858000D03*
D64*
X-24866000Y508000D03*
D65*
X-24866000Y-517000D03*
D121*
X-24866000Y-1742000D03*
D122*
X5491653Y-22457890D03*
X5090483Y-20960704D03*
D123*
X-20271311Y-11117059D03*
X-18928971Y-10342059D03*
D124*
X16703277Y15984856D03*
X15607261Y14888840D03*
D125*
X20628104Y-14055075D03*
D126*
X21280588Y-12872940D03*
D127*
X21793088Y-11985264D03*
D128*
X22405588Y-10924383D03*
M02*
