G04 #@! TF.GenerationSoftware,KiCad,Pcbnew,(5.1.9-0-10_14)*
G04 #@! TF.CreationDate,2021-07-01T12:37:05-04:00*
G04 #@! TF.ProjectId,ebike_LED,6562696b-655f-44c4-9544-2e6b69636164,rev?*
G04 #@! TF.SameCoordinates,Original*
G04 #@! TF.FileFunction,Legend,Top*
G04 #@! TF.FilePolarity,Positive*
%FSLAX46Y46*%
G04 Gerber Fmt 4.6, Leading zero omitted, Abs format (unit mm)*
G04 Created by KiCad (PCBNEW (5.1.9-0-10_14)) date 2021-07-01 12:37:05*
%MOMM*%
%LPD*%
G01*
G04 APERTURE LIST*
%ADD10C,0.120000*%
%ADD11C,0.150000*%
G04 APERTURE END LIST*
D10*
X50105000Y-37370000D02*
X50105000Y-36040000D01*
X51435000Y-37370000D02*
X50105000Y-37370000D01*
X52705000Y-37370000D02*
X52705000Y-34710000D01*
X52705000Y-34710000D02*
X62925000Y-34710000D01*
X52705000Y-37370000D02*
X62925000Y-37370000D01*
X62925000Y-37370000D02*
X62925000Y-34710000D01*
X78571400Y-34966600D02*
X78571400Y-36296600D01*
X77241400Y-34966600D02*
X78571400Y-34966600D01*
X75971400Y-34966600D02*
X75971400Y-37626600D01*
X75971400Y-37626600D02*
X68291400Y-37626600D01*
X75971400Y-34966600D02*
X68291400Y-34966600D01*
X68291400Y-34966600D02*
X68291400Y-37626600D01*
D11*
X49557380Y-37159047D02*
X49557380Y-37635238D01*
X48557380Y-37635238D01*
X49033571Y-36825714D02*
X49033571Y-36492380D01*
X49557380Y-36349523D02*
X49557380Y-36825714D01*
X48557380Y-36825714D01*
X48557380Y-36349523D01*
X49557380Y-35920952D02*
X48557380Y-35920952D01*
X48557380Y-35682857D01*
X48605000Y-35540000D01*
X48700238Y-35444761D01*
X48795476Y-35397142D01*
X48985952Y-35349523D01*
X49128809Y-35349523D01*
X49319285Y-35397142D01*
X49414523Y-35444761D01*
X49509761Y-35540000D01*
X49557380Y-35682857D01*
X49557380Y-35920952D01*
X49557380Y-34397142D02*
X49557380Y-34968571D01*
X49557380Y-34682857D02*
X48557380Y-34682857D01*
X48700238Y-34778095D01*
X48795476Y-34873333D01*
X48843095Y-34968571D01*
X64503514Y-36701361D02*
X64646371Y-36748980D01*
X64884466Y-36748980D01*
X64979704Y-36701361D01*
X65027323Y-36653742D01*
X65074942Y-36558504D01*
X65074942Y-36463266D01*
X65027323Y-36368028D01*
X64979704Y-36320409D01*
X64884466Y-36272790D01*
X64693990Y-36225171D01*
X64598752Y-36177552D01*
X64551133Y-36129933D01*
X64503514Y-36034695D01*
X64503514Y-35939457D01*
X64551133Y-35844219D01*
X64598752Y-35796600D01*
X64693990Y-35748980D01*
X64932085Y-35748980D01*
X65074942Y-35796600D01*
X65503514Y-36225171D02*
X65836847Y-36225171D01*
X65979704Y-36748980D02*
X65503514Y-36748980D01*
X65503514Y-35748980D01*
X65979704Y-35748980D01*
X66979704Y-36748980D02*
X66646371Y-36272790D01*
X66408276Y-36748980D02*
X66408276Y-35748980D01*
X66789228Y-35748980D01*
X66884466Y-35796600D01*
X66932085Y-35844219D01*
X66979704Y-35939457D01*
X66979704Y-36082314D01*
X66932085Y-36177552D01*
X66884466Y-36225171D01*
X66789228Y-36272790D01*
X66408276Y-36272790D01*
X67932085Y-36748980D02*
X67360657Y-36748980D01*
X67646371Y-36748980D02*
X67646371Y-35748980D01*
X67551133Y-35891838D01*
X67455895Y-35987076D01*
X67360657Y-36034695D01*
M02*
