G04 #@! TF.GenerationSoftware,KiCad,Pcbnew,(5.1.9-0-10_14)*
G04 #@! TF.CreationDate,2021-07-01T12:37:05-04:00*
G04 #@! TF.ProjectId,ebike_LED,6562696b-655f-44c4-9544-2e6b69636164,rev?*
G04 #@! TF.SameCoordinates,Original*
G04 #@! TF.FileFunction,Copper,L2,Bot*
G04 #@! TF.FilePolarity,Positive*
%FSLAX46Y46*%
G04 Gerber Fmt 4.6, Leading zero omitted, Abs format (unit mm)*
G04 Created by KiCad (PCBNEW (5.1.9-0-10_14)) date 2021-07-01 12:37:05*
%MOMM*%
%LPD*%
G01*
G04 APERTURE LIST*
G04 #@! TA.AperFunction,ComponentPad*
%ADD10C,1.778000*%
G04 #@! TD*
G04 #@! TA.AperFunction,ComponentPad*
%ADD11O,1.700000X1.700000*%
G04 #@! TD*
G04 #@! TA.AperFunction,ComponentPad*
%ADD12R,1.700000X1.700000*%
G04 #@! TD*
G04 #@! TA.AperFunction,ComponentPad*
%ADD13R,1.600000X1.600000*%
G04 #@! TD*
G04 #@! TA.AperFunction,ComponentPad*
%ADD14C,1.600000*%
G04 #@! TD*
G04 #@! TA.AperFunction,ViaPad*
%ADD15C,0.800000*%
G04 #@! TD*
G04 #@! TA.AperFunction,Conductor*
%ADD16C,0.250000*%
G04 #@! TD*
G04 #@! TA.AperFunction,Conductor*
%ADD17C,0.254000*%
G04 #@! TD*
G04 #@! TA.AperFunction,Conductor*
%ADD18C,0.100000*%
G04 #@! TD*
G04 APERTURE END LIST*
D10*
X35325000Y-51818000D03*
X40405000Y-51818000D03*
X35325000Y-46738000D03*
X37865000Y-46738000D03*
X40405000Y-46738000D03*
G04 #@! TA.AperFunction,SMDPad,CuDef*
G36*
G01*
X38042800Y-42614001D02*
X38042800Y-41713999D01*
G75*
G02*
X38292799Y-41464000I249999J0D01*
G01*
X38817801Y-41464000D01*
G75*
G02*
X39067800Y-41713999I0J-249999D01*
G01*
X39067800Y-42614001D01*
G75*
G02*
X38817801Y-42864000I-249999J0D01*
G01*
X38292799Y-42864000D01*
G75*
G02*
X38042800Y-42614001I0J249999D01*
G01*
G37*
G04 #@! TD.AperFunction*
G04 #@! TA.AperFunction,SMDPad,CuDef*
G36*
G01*
X36217800Y-42614001D02*
X36217800Y-41713999D01*
G75*
G02*
X36467799Y-41464000I249999J0D01*
G01*
X36992801Y-41464000D01*
G75*
G02*
X37242800Y-41713999I0J-249999D01*
G01*
X37242800Y-42614001D01*
G75*
G02*
X36992801Y-42864000I-249999J0D01*
G01*
X36467799Y-42864000D01*
G75*
G02*
X36217800Y-42614001I0J249999D01*
G01*
G37*
G04 #@! TD.AperFunction*
D11*
X61595000Y-36040000D03*
X59055000Y-36040000D03*
X56515000Y-36040000D03*
X53975000Y-36040000D03*
D12*
X51435000Y-36040000D03*
D13*
X78530000Y-55290000D03*
D14*
X75990000Y-55290000D03*
X73450000Y-55290000D03*
X70910000Y-55290000D03*
X68370000Y-55290000D03*
X65830000Y-55290000D03*
X63290000Y-55290000D03*
X60750000Y-55290000D03*
X58210000Y-55290000D03*
X55670000Y-55290000D03*
X53130000Y-55290000D03*
X50590000Y-55290000D03*
X48050000Y-55290000D03*
X78530000Y-40050000D03*
X75990000Y-40050000D03*
X73450000Y-40050000D03*
X70910000Y-40050000D03*
X68370000Y-40050000D03*
X65830000Y-40050000D03*
X63290000Y-40050000D03*
X60750000Y-40050000D03*
X58210000Y-40050000D03*
X55670000Y-40050000D03*
X53130000Y-40050000D03*
X50590000Y-40050000D03*
X48050000Y-40050000D03*
X45510000Y-55290000D03*
X45510000Y-40050000D03*
D11*
X69621400Y-36296600D03*
X72161400Y-36296600D03*
X74701400Y-36296600D03*
D12*
X77241400Y-36296600D03*
D15*
X38862000Y-37084000D03*
X52070000Y-43180000D03*
X41656000Y-42926000D03*
X72161400Y-45948600D03*
X74701400Y-47980600D03*
D16*
X36730300Y-42164000D02*
X38621650Y-40272650D01*
X38862000Y-40032300D02*
X38621650Y-40272650D01*
X38862000Y-37084000D02*
X38862000Y-40032300D01*
X73450000Y-40050000D02*
X73450000Y-41866000D01*
X73450000Y-41866000D02*
X72898000Y-42418000D01*
X72898000Y-42418000D02*
X52832000Y-42418000D01*
X52832000Y-42418000D02*
X52070000Y-43180000D01*
X41656000Y-42926000D02*
X40816850Y-42086850D01*
X40816850Y-42086850D02*
X40816850Y-41987150D01*
X40816850Y-41987150D02*
X38862000Y-40032300D01*
X41247700Y-42418000D02*
X40816850Y-41987150D01*
X40405000Y-46738000D02*
X45510000Y-51843000D01*
X45510000Y-51843000D02*
X45510000Y-52026000D01*
X45510000Y-55290000D02*
X45510000Y-52026000D01*
X38555300Y-44888300D02*
X40405000Y-46738000D01*
X38555300Y-42164000D02*
X38555300Y-44888300D01*
X72161400Y-54001400D02*
X73450000Y-55290000D01*
X72161400Y-45948600D02*
X72161400Y-54001400D01*
X74701400Y-54001400D02*
X75990000Y-55290000D01*
X74701400Y-47980600D02*
X74701400Y-54001400D01*
D17*
X49959188Y-35065518D02*
X49946928Y-35190000D01*
X49946928Y-36890000D01*
X49959188Y-37014482D01*
X49995498Y-37134180D01*
X50054463Y-37244494D01*
X50133815Y-37341185D01*
X50230506Y-37420537D01*
X50340820Y-37479502D01*
X50460518Y-37515812D01*
X50585000Y-37528072D01*
X52285000Y-37528072D01*
X52409482Y-37515812D01*
X52529180Y-37479502D01*
X52639494Y-37420537D01*
X52736185Y-37341185D01*
X52815537Y-37244494D01*
X52874502Y-37134180D01*
X52896513Y-37061620D01*
X53028368Y-37193475D01*
X53271589Y-37355990D01*
X53541842Y-37467932D01*
X53828740Y-37525000D01*
X54121260Y-37525000D01*
X54408158Y-37467932D01*
X54678411Y-37355990D01*
X54921632Y-37193475D01*
X55128475Y-36986632D01*
X55290990Y-36743411D01*
X55402932Y-36473158D01*
X55460000Y-36186260D01*
X55460000Y-35893740D01*
X55402932Y-35606842D01*
X55290990Y-35336589D01*
X55128475Y-35093368D01*
X54985107Y-34950000D01*
X58044893Y-34950000D01*
X57901525Y-35093368D01*
X57739010Y-35336589D01*
X57627068Y-35606842D01*
X57570000Y-35893740D01*
X57570000Y-36186260D01*
X57627068Y-36473158D01*
X57739010Y-36743411D01*
X57901525Y-36986632D01*
X58108368Y-37193475D01*
X58351589Y-37355990D01*
X58621842Y-37467932D01*
X58908740Y-37525000D01*
X59201260Y-37525000D01*
X59488158Y-37467932D01*
X59758411Y-37355990D01*
X60001632Y-37193475D01*
X60208475Y-36986632D01*
X60325000Y-36812240D01*
X60441525Y-36986632D01*
X60648368Y-37193475D01*
X60891589Y-37355990D01*
X61161842Y-37467932D01*
X61448740Y-37525000D01*
X61741260Y-37525000D01*
X62028158Y-37467932D01*
X62298411Y-37355990D01*
X62541632Y-37193475D01*
X62748475Y-36986632D01*
X62910990Y-36743411D01*
X63022932Y-36473158D01*
X63080000Y-36186260D01*
X63080000Y-35893740D01*
X63022932Y-35606842D01*
X62910990Y-35336589D01*
X62748475Y-35093368D01*
X62605107Y-34950000D01*
X71531888Y-34950000D01*
X71457989Y-34980610D01*
X71214768Y-35143125D01*
X71007925Y-35349968D01*
X70845410Y-35593189D01*
X70733468Y-35863442D01*
X70676400Y-36150340D01*
X70676400Y-36442860D01*
X70733468Y-36729758D01*
X70845410Y-37000011D01*
X71007925Y-37243232D01*
X71214768Y-37450075D01*
X71457989Y-37612590D01*
X71728242Y-37724532D01*
X72015140Y-37781600D01*
X72307660Y-37781600D01*
X72594558Y-37724532D01*
X72864811Y-37612590D01*
X73108032Y-37450075D01*
X73314875Y-37243232D01*
X73431400Y-37068840D01*
X73547925Y-37243232D01*
X73754768Y-37450075D01*
X73997989Y-37612590D01*
X74268242Y-37724532D01*
X74555140Y-37781600D01*
X74847660Y-37781600D01*
X75134558Y-37724532D01*
X75404811Y-37612590D01*
X75648032Y-37450075D01*
X75779887Y-37318220D01*
X75801898Y-37390780D01*
X75860863Y-37501094D01*
X75940215Y-37597785D01*
X76036906Y-37677137D01*
X76147220Y-37736102D01*
X76266918Y-37772412D01*
X76391400Y-37784672D01*
X78091400Y-37784672D01*
X78215882Y-37772412D01*
X78335580Y-37736102D01*
X78445894Y-37677137D01*
X78542585Y-37597785D01*
X78621937Y-37501094D01*
X78680902Y-37390780D01*
X78717212Y-37271082D01*
X78729472Y-37146600D01*
X78729472Y-35446600D01*
X78717212Y-35322118D01*
X78680902Y-35202420D01*
X78621937Y-35092106D01*
X78542585Y-34995415D01*
X78487246Y-34950000D01*
X79610001Y-34950000D01*
X79610001Y-39100605D01*
X79444759Y-38935363D01*
X79209727Y-38778320D01*
X78948574Y-38670147D01*
X78671335Y-38615000D01*
X78388665Y-38615000D01*
X78111426Y-38670147D01*
X77850273Y-38778320D01*
X77615241Y-38935363D01*
X77415363Y-39135241D01*
X77260000Y-39367759D01*
X77104637Y-39135241D01*
X76904759Y-38935363D01*
X76669727Y-38778320D01*
X76408574Y-38670147D01*
X76131335Y-38615000D01*
X75848665Y-38615000D01*
X75571426Y-38670147D01*
X75310273Y-38778320D01*
X75075241Y-38935363D01*
X74875363Y-39135241D01*
X74720000Y-39367759D01*
X74564637Y-39135241D01*
X74364759Y-38935363D01*
X74129727Y-38778320D01*
X73868574Y-38670147D01*
X73591335Y-38615000D01*
X73308665Y-38615000D01*
X73031426Y-38670147D01*
X72770273Y-38778320D01*
X72535241Y-38935363D01*
X72335363Y-39135241D01*
X72180000Y-39367759D01*
X72024637Y-39135241D01*
X71824759Y-38935363D01*
X71589727Y-38778320D01*
X71328574Y-38670147D01*
X71051335Y-38615000D01*
X70768665Y-38615000D01*
X70491426Y-38670147D01*
X70230273Y-38778320D01*
X69995241Y-38935363D01*
X69795363Y-39135241D01*
X69640000Y-39367759D01*
X69484637Y-39135241D01*
X69284759Y-38935363D01*
X69049727Y-38778320D01*
X68788574Y-38670147D01*
X68511335Y-38615000D01*
X68228665Y-38615000D01*
X67951426Y-38670147D01*
X67690273Y-38778320D01*
X67455241Y-38935363D01*
X67255363Y-39135241D01*
X67100000Y-39367759D01*
X66944637Y-39135241D01*
X66744759Y-38935363D01*
X66509727Y-38778320D01*
X66248574Y-38670147D01*
X65971335Y-38615000D01*
X65688665Y-38615000D01*
X65411426Y-38670147D01*
X65150273Y-38778320D01*
X64915241Y-38935363D01*
X64715363Y-39135241D01*
X64560000Y-39367759D01*
X64404637Y-39135241D01*
X64204759Y-38935363D01*
X63969727Y-38778320D01*
X63708574Y-38670147D01*
X63431335Y-38615000D01*
X63148665Y-38615000D01*
X62871426Y-38670147D01*
X62610273Y-38778320D01*
X62375241Y-38935363D01*
X62175363Y-39135241D01*
X62020000Y-39367759D01*
X61864637Y-39135241D01*
X61664759Y-38935363D01*
X61429727Y-38778320D01*
X61168574Y-38670147D01*
X60891335Y-38615000D01*
X60608665Y-38615000D01*
X60331426Y-38670147D01*
X60070273Y-38778320D01*
X59835241Y-38935363D01*
X59635363Y-39135241D01*
X59480000Y-39367759D01*
X59324637Y-39135241D01*
X59124759Y-38935363D01*
X58889727Y-38778320D01*
X58628574Y-38670147D01*
X58351335Y-38615000D01*
X58068665Y-38615000D01*
X57791426Y-38670147D01*
X57530273Y-38778320D01*
X57295241Y-38935363D01*
X57095363Y-39135241D01*
X56940000Y-39367759D01*
X56784637Y-39135241D01*
X56584759Y-38935363D01*
X56349727Y-38778320D01*
X56088574Y-38670147D01*
X55811335Y-38615000D01*
X55528665Y-38615000D01*
X55251426Y-38670147D01*
X54990273Y-38778320D01*
X54755241Y-38935363D01*
X54555363Y-39135241D01*
X54400000Y-39367759D01*
X54244637Y-39135241D01*
X54044759Y-38935363D01*
X53809727Y-38778320D01*
X53548574Y-38670147D01*
X53271335Y-38615000D01*
X52988665Y-38615000D01*
X52711426Y-38670147D01*
X52450273Y-38778320D01*
X52215241Y-38935363D01*
X52015363Y-39135241D01*
X51860000Y-39367759D01*
X51704637Y-39135241D01*
X51504759Y-38935363D01*
X51269727Y-38778320D01*
X51008574Y-38670147D01*
X50731335Y-38615000D01*
X50448665Y-38615000D01*
X50171426Y-38670147D01*
X49910273Y-38778320D01*
X49675241Y-38935363D01*
X49475363Y-39135241D01*
X49320000Y-39367759D01*
X49164637Y-39135241D01*
X48964759Y-38935363D01*
X48729727Y-38778320D01*
X48468574Y-38670147D01*
X48191335Y-38615000D01*
X47908665Y-38615000D01*
X47631426Y-38670147D01*
X47370273Y-38778320D01*
X47135241Y-38935363D01*
X46935363Y-39135241D01*
X46780000Y-39367759D01*
X46624637Y-39135241D01*
X46424759Y-38935363D01*
X46189727Y-38778320D01*
X45928574Y-38670147D01*
X45651335Y-38615000D01*
X45368665Y-38615000D01*
X45091426Y-38670147D01*
X44830273Y-38778320D01*
X44595241Y-38935363D01*
X44395363Y-39135241D01*
X44238320Y-39370273D01*
X44130147Y-39631426D01*
X44075000Y-39908665D01*
X44075000Y-40191335D01*
X44130147Y-40468574D01*
X44238320Y-40729727D01*
X44395363Y-40964759D01*
X44595241Y-41164637D01*
X44830273Y-41321680D01*
X45091426Y-41429853D01*
X45368665Y-41485000D01*
X45651335Y-41485000D01*
X45928574Y-41429853D01*
X46189727Y-41321680D01*
X46424759Y-41164637D01*
X46624637Y-40964759D01*
X46780000Y-40732241D01*
X46935363Y-40964759D01*
X47135241Y-41164637D01*
X47370273Y-41321680D01*
X47631426Y-41429853D01*
X47908665Y-41485000D01*
X48191335Y-41485000D01*
X48468574Y-41429853D01*
X48729727Y-41321680D01*
X48964759Y-41164637D01*
X49164637Y-40964759D01*
X49320000Y-40732241D01*
X49475363Y-40964759D01*
X49675241Y-41164637D01*
X49910273Y-41321680D01*
X50171426Y-41429853D01*
X50448665Y-41485000D01*
X50731335Y-41485000D01*
X51008574Y-41429853D01*
X51269727Y-41321680D01*
X51504759Y-41164637D01*
X51704637Y-40964759D01*
X51860000Y-40732241D01*
X52015363Y-40964759D01*
X52215241Y-41164637D01*
X52450273Y-41321680D01*
X52711426Y-41429853D01*
X52988665Y-41485000D01*
X53271335Y-41485000D01*
X53548574Y-41429853D01*
X53809727Y-41321680D01*
X54044759Y-41164637D01*
X54244637Y-40964759D01*
X54400000Y-40732241D01*
X54555363Y-40964759D01*
X54755241Y-41164637D01*
X54990273Y-41321680D01*
X55251426Y-41429853D01*
X55528665Y-41485000D01*
X55811335Y-41485000D01*
X56088574Y-41429853D01*
X56349727Y-41321680D01*
X56584759Y-41164637D01*
X56784637Y-40964759D01*
X56940000Y-40732241D01*
X57095363Y-40964759D01*
X57295241Y-41164637D01*
X57530273Y-41321680D01*
X57791426Y-41429853D01*
X58068665Y-41485000D01*
X58351335Y-41485000D01*
X58628574Y-41429853D01*
X58889727Y-41321680D01*
X59124759Y-41164637D01*
X59324637Y-40964759D01*
X59480000Y-40732241D01*
X59635363Y-40964759D01*
X59835241Y-41164637D01*
X60070273Y-41321680D01*
X60331426Y-41429853D01*
X60608665Y-41485000D01*
X60891335Y-41485000D01*
X61168574Y-41429853D01*
X61429727Y-41321680D01*
X61664759Y-41164637D01*
X61864637Y-40964759D01*
X62020000Y-40732241D01*
X62175363Y-40964759D01*
X62375241Y-41164637D01*
X62610273Y-41321680D01*
X62871426Y-41429853D01*
X63148665Y-41485000D01*
X63431335Y-41485000D01*
X63708574Y-41429853D01*
X63969727Y-41321680D01*
X64204759Y-41164637D01*
X64404637Y-40964759D01*
X64560000Y-40732241D01*
X64715363Y-40964759D01*
X64915241Y-41164637D01*
X65150273Y-41321680D01*
X65411426Y-41429853D01*
X65688665Y-41485000D01*
X65971335Y-41485000D01*
X66248574Y-41429853D01*
X66509727Y-41321680D01*
X66744759Y-41164637D01*
X66944637Y-40964759D01*
X67100000Y-40732241D01*
X67255363Y-40964759D01*
X67455241Y-41164637D01*
X67690273Y-41321680D01*
X67951426Y-41429853D01*
X68228665Y-41485000D01*
X68511335Y-41485000D01*
X68788574Y-41429853D01*
X69049727Y-41321680D01*
X69284759Y-41164637D01*
X69484637Y-40964759D01*
X69640000Y-40732241D01*
X69795363Y-40964759D01*
X69995241Y-41164637D01*
X70230273Y-41321680D01*
X70491426Y-41429853D01*
X70768665Y-41485000D01*
X71051335Y-41485000D01*
X71328574Y-41429853D01*
X71589727Y-41321680D01*
X71824759Y-41164637D01*
X72024637Y-40964759D01*
X72180000Y-40732241D01*
X72335363Y-40964759D01*
X72535241Y-41164637D01*
X72690001Y-41268044D01*
X72690001Y-41551198D01*
X72583199Y-41658000D01*
X52869325Y-41658000D01*
X52832000Y-41654324D01*
X52794675Y-41658000D01*
X52794667Y-41658000D01*
X52683014Y-41668997D01*
X52539753Y-41712454D01*
X52407724Y-41783026D01*
X52291999Y-41877999D01*
X52268201Y-41906998D01*
X52030198Y-42145000D01*
X51968061Y-42145000D01*
X51768102Y-42184774D01*
X51579744Y-42262795D01*
X51410226Y-42376063D01*
X51266063Y-42520226D01*
X51152795Y-42689744D01*
X51074774Y-42878102D01*
X51035000Y-43078061D01*
X51035000Y-43281939D01*
X51074774Y-43481898D01*
X51152795Y-43670256D01*
X51266063Y-43839774D01*
X51410226Y-43983937D01*
X51579744Y-44097205D01*
X51768102Y-44175226D01*
X51968061Y-44215000D01*
X52171939Y-44215000D01*
X52371898Y-44175226D01*
X52560256Y-44097205D01*
X52729774Y-43983937D01*
X52873937Y-43839774D01*
X52987205Y-43670256D01*
X53065226Y-43481898D01*
X53105000Y-43281939D01*
X53105000Y-43219802D01*
X53146802Y-43178000D01*
X72860678Y-43178000D01*
X72898000Y-43181676D01*
X72935322Y-43178000D01*
X72935333Y-43178000D01*
X73046986Y-43167003D01*
X73190247Y-43123546D01*
X73322276Y-43052974D01*
X73438001Y-42958001D01*
X73461803Y-42928998D01*
X73961002Y-42429800D01*
X73990001Y-42406001D01*
X74016332Y-42373917D01*
X74084974Y-42290277D01*
X74155546Y-42158247D01*
X74165125Y-42126668D01*
X74199003Y-42014986D01*
X74210000Y-41903333D01*
X74210000Y-41903323D01*
X74213676Y-41866000D01*
X74210000Y-41828677D01*
X74210000Y-41268043D01*
X74364759Y-41164637D01*
X74564637Y-40964759D01*
X74720000Y-40732241D01*
X74875363Y-40964759D01*
X75075241Y-41164637D01*
X75310273Y-41321680D01*
X75571426Y-41429853D01*
X75848665Y-41485000D01*
X76131335Y-41485000D01*
X76408574Y-41429853D01*
X76669727Y-41321680D01*
X76904759Y-41164637D01*
X77104637Y-40964759D01*
X77260000Y-40732241D01*
X77415363Y-40964759D01*
X77615241Y-41164637D01*
X77850273Y-41321680D01*
X78111426Y-41429853D01*
X78388665Y-41485000D01*
X78671335Y-41485000D01*
X78948574Y-41429853D01*
X79209727Y-41321680D01*
X79444759Y-41164637D01*
X79610001Y-40999395D01*
X79610000Y-56236000D01*
X77073396Y-56236000D01*
X77104637Y-56204759D01*
X77261680Y-55969727D01*
X77369853Y-55708574D01*
X77425000Y-55431335D01*
X77425000Y-55148665D01*
X77369853Y-54871426D01*
X77261680Y-54610273D01*
X77104637Y-54375241D01*
X76904759Y-54175363D01*
X76669727Y-54018320D01*
X76408574Y-53910147D01*
X76131335Y-53855000D01*
X75848665Y-53855000D01*
X75666114Y-53891312D01*
X75461400Y-53686599D01*
X75461400Y-48684311D01*
X75505337Y-48640374D01*
X75618605Y-48470856D01*
X75696626Y-48282498D01*
X75736400Y-48082539D01*
X75736400Y-47878661D01*
X75696626Y-47678702D01*
X75618605Y-47490344D01*
X75505337Y-47320826D01*
X75361174Y-47176663D01*
X75191656Y-47063395D01*
X75003298Y-46985374D01*
X74803339Y-46945600D01*
X74599461Y-46945600D01*
X74399502Y-46985374D01*
X74211144Y-47063395D01*
X74041626Y-47176663D01*
X73897463Y-47320826D01*
X73784195Y-47490344D01*
X73706174Y-47678702D01*
X73666400Y-47878661D01*
X73666400Y-48082539D01*
X73706174Y-48282498D01*
X73784195Y-48470856D01*
X73897463Y-48640374D01*
X73941400Y-48684311D01*
X73941401Y-53940313D01*
X73868574Y-53910147D01*
X73591335Y-53855000D01*
X73308665Y-53855000D01*
X73126114Y-53891312D01*
X72921400Y-53686599D01*
X72921400Y-46652311D01*
X72965337Y-46608374D01*
X73078605Y-46438856D01*
X73156626Y-46250498D01*
X73196400Y-46050539D01*
X73196400Y-45846661D01*
X73156626Y-45646702D01*
X73078605Y-45458344D01*
X72965337Y-45288826D01*
X72821174Y-45144663D01*
X72651656Y-45031395D01*
X72463298Y-44953374D01*
X72263339Y-44913600D01*
X72059461Y-44913600D01*
X71859502Y-44953374D01*
X71671144Y-45031395D01*
X71501626Y-45144663D01*
X71357463Y-45288826D01*
X71244195Y-45458344D01*
X71166174Y-45646702D01*
X71126400Y-45846661D01*
X71126400Y-46050539D01*
X71166174Y-46250498D01*
X71244195Y-46438856D01*
X71357463Y-46608374D01*
X71401400Y-46652311D01*
X71401401Y-53940313D01*
X71328574Y-53910147D01*
X71051335Y-53855000D01*
X70768665Y-53855000D01*
X70491426Y-53910147D01*
X70230273Y-54018320D01*
X69995241Y-54175363D01*
X69795363Y-54375241D01*
X69640000Y-54607759D01*
X69484637Y-54375241D01*
X69284759Y-54175363D01*
X69049727Y-54018320D01*
X68788574Y-53910147D01*
X68511335Y-53855000D01*
X68228665Y-53855000D01*
X67951426Y-53910147D01*
X67690273Y-54018320D01*
X67455241Y-54175363D01*
X67255363Y-54375241D01*
X67100000Y-54607759D01*
X66944637Y-54375241D01*
X66744759Y-54175363D01*
X66509727Y-54018320D01*
X66248574Y-53910147D01*
X65971335Y-53855000D01*
X65688665Y-53855000D01*
X65411426Y-53910147D01*
X65150273Y-54018320D01*
X64915241Y-54175363D01*
X64715363Y-54375241D01*
X64560000Y-54607759D01*
X64404637Y-54375241D01*
X64204759Y-54175363D01*
X63969727Y-54018320D01*
X63708574Y-53910147D01*
X63431335Y-53855000D01*
X63148665Y-53855000D01*
X62871426Y-53910147D01*
X62610273Y-54018320D01*
X62375241Y-54175363D01*
X62175363Y-54375241D01*
X62020000Y-54607759D01*
X61864637Y-54375241D01*
X61664759Y-54175363D01*
X61429727Y-54018320D01*
X61168574Y-53910147D01*
X60891335Y-53855000D01*
X60608665Y-53855000D01*
X60331426Y-53910147D01*
X60070273Y-54018320D01*
X59835241Y-54175363D01*
X59635363Y-54375241D01*
X59480000Y-54607759D01*
X59324637Y-54375241D01*
X59124759Y-54175363D01*
X58889727Y-54018320D01*
X58628574Y-53910147D01*
X58351335Y-53855000D01*
X58068665Y-53855000D01*
X57791426Y-53910147D01*
X57530273Y-54018320D01*
X57295241Y-54175363D01*
X57095363Y-54375241D01*
X56940000Y-54607759D01*
X56784637Y-54375241D01*
X56584759Y-54175363D01*
X56349727Y-54018320D01*
X56088574Y-53910147D01*
X55811335Y-53855000D01*
X55528665Y-53855000D01*
X55251426Y-53910147D01*
X54990273Y-54018320D01*
X54755241Y-54175363D01*
X54555363Y-54375241D01*
X54400000Y-54607759D01*
X54244637Y-54375241D01*
X54044759Y-54175363D01*
X53809727Y-54018320D01*
X53548574Y-53910147D01*
X53271335Y-53855000D01*
X52988665Y-53855000D01*
X52711426Y-53910147D01*
X52450273Y-54018320D01*
X52215241Y-54175363D01*
X52015363Y-54375241D01*
X51860000Y-54607759D01*
X51704637Y-54375241D01*
X51504759Y-54175363D01*
X51269727Y-54018320D01*
X51008574Y-53910147D01*
X50731335Y-53855000D01*
X50448665Y-53855000D01*
X50171426Y-53910147D01*
X49910273Y-54018320D01*
X49675241Y-54175363D01*
X49475363Y-54375241D01*
X49320000Y-54607759D01*
X49164637Y-54375241D01*
X48964759Y-54175363D01*
X48729727Y-54018320D01*
X48468574Y-53910147D01*
X48191335Y-53855000D01*
X47908665Y-53855000D01*
X47631426Y-53910147D01*
X47370273Y-54018320D01*
X47135241Y-54175363D01*
X46935363Y-54375241D01*
X46780000Y-54607759D01*
X46624637Y-54375241D01*
X46424759Y-54175363D01*
X46270000Y-54071957D01*
X46270000Y-51880322D01*
X46273676Y-51842999D01*
X46270000Y-51805676D01*
X46270000Y-51805667D01*
X46259003Y-51694014D01*
X46215546Y-51550753D01*
X46144974Y-51418724D01*
X46050001Y-51302999D01*
X46021004Y-51279202D01*
X41879377Y-47137576D01*
X41929000Y-46888101D01*
X41929000Y-46587899D01*
X41870434Y-46293466D01*
X41755551Y-46016115D01*
X41588768Y-45766507D01*
X41376493Y-45554232D01*
X41126885Y-45387449D01*
X40849534Y-45272566D01*
X40555101Y-45214000D01*
X40254899Y-45214000D01*
X40005425Y-45263623D01*
X39315300Y-44573499D01*
X39315300Y-43349030D01*
X39445762Y-43241962D01*
X39556205Y-43107387D01*
X39638272Y-42953851D01*
X39688808Y-42787255D01*
X39705872Y-42614001D01*
X39705872Y-41950974D01*
X40101425Y-42346528D01*
X40111304Y-42379096D01*
X40181876Y-42511126D01*
X40195027Y-42527150D01*
X40276849Y-42626851D01*
X40305852Y-42650653D01*
X40621000Y-42965801D01*
X40621000Y-43027939D01*
X40660774Y-43227898D01*
X40738795Y-43416256D01*
X40852063Y-43585774D01*
X40996226Y-43729937D01*
X41165744Y-43843205D01*
X41354102Y-43921226D01*
X41554061Y-43961000D01*
X41757939Y-43961000D01*
X41957898Y-43921226D01*
X42146256Y-43843205D01*
X42315774Y-43729937D01*
X42459937Y-43585774D01*
X42573205Y-43416256D01*
X42651226Y-43227898D01*
X42691000Y-43027939D01*
X42691000Y-42824061D01*
X42651226Y-42624102D01*
X42573205Y-42435744D01*
X42459937Y-42266226D01*
X42315774Y-42122063D01*
X42146256Y-42008795D01*
X41957898Y-41930774D01*
X41804828Y-41900327D01*
X41380658Y-41476157D01*
X41380649Y-41476146D01*
X41380643Y-41476140D01*
X41356851Y-41447149D01*
X41327858Y-41423355D01*
X39622000Y-39717499D01*
X39622000Y-37787711D01*
X39665937Y-37743774D01*
X39779205Y-37574256D01*
X39857226Y-37385898D01*
X39897000Y-37185939D01*
X39897000Y-36982061D01*
X39857226Y-36782102D01*
X39779205Y-36593744D01*
X39665937Y-36424226D01*
X39521774Y-36280063D01*
X39352256Y-36166795D01*
X39163898Y-36088774D01*
X38963939Y-36049000D01*
X38760061Y-36049000D01*
X38560102Y-36088774D01*
X38371744Y-36166795D01*
X38202226Y-36280063D01*
X38058063Y-36424226D01*
X37944795Y-36593744D01*
X37866774Y-36782102D01*
X37827000Y-36982061D01*
X37827000Y-37185939D01*
X37866774Y-37385898D01*
X37944795Y-37574256D01*
X38058063Y-37743774D01*
X38102000Y-37787711D01*
X38102001Y-39717497D01*
X36993502Y-40825997D01*
X36992801Y-40825928D01*
X36467799Y-40825928D01*
X36294545Y-40842992D01*
X36127949Y-40893528D01*
X35974413Y-40975595D01*
X35839838Y-41086038D01*
X35729395Y-41220613D01*
X35647328Y-41374149D01*
X35596792Y-41540745D01*
X35579728Y-41713999D01*
X35579728Y-42614001D01*
X35596792Y-42787255D01*
X35647328Y-42953851D01*
X35729395Y-43107387D01*
X35839838Y-43241962D01*
X35974413Y-43352405D01*
X36127949Y-43434472D01*
X36294545Y-43485008D01*
X36467799Y-43502072D01*
X36992801Y-43502072D01*
X37166055Y-43485008D01*
X37332651Y-43434472D01*
X37486187Y-43352405D01*
X37620762Y-43241962D01*
X37642800Y-43215109D01*
X37664838Y-43241962D01*
X37795300Y-43349030D01*
X37795301Y-44850968D01*
X37791624Y-44888300D01*
X37806298Y-45037285D01*
X37849754Y-45180546D01*
X37920326Y-45312576D01*
X37991501Y-45399302D01*
X38015300Y-45428301D01*
X38044298Y-45452099D01*
X38930623Y-46338425D01*
X38881000Y-46587899D01*
X38881000Y-46888101D01*
X38939566Y-47182534D01*
X39054449Y-47459885D01*
X39221232Y-47709493D01*
X39433507Y-47921768D01*
X39683115Y-48088551D01*
X39960466Y-48203434D01*
X40254899Y-48262000D01*
X40555101Y-48262000D01*
X40804576Y-48212377D01*
X44750001Y-52157803D01*
X44750000Y-54071956D01*
X44595241Y-54175363D01*
X44395363Y-54375241D01*
X44238320Y-54610273D01*
X44130147Y-54871426D01*
X44075000Y-55148665D01*
X44075000Y-55431335D01*
X44130147Y-55708574D01*
X44238320Y-55969727D01*
X44395363Y-56204759D01*
X44426604Y-56236000D01*
X33680000Y-56236000D01*
X33680000Y-51667899D01*
X33801000Y-51667899D01*
X33801000Y-51968101D01*
X33859566Y-52262534D01*
X33974449Y-52539885D01*
X34141232Y-52789493D01*
X34353507Y-53001768D01*
X34603115Y-53168551D01*
X34880466Y-53283434D01*
X35174899Y-53342000D01*
X35475101Y-53342000D01*
X35769534Y-53283434D01*
X36046885Y-53168551D01*
X36296493Y-53001768D01*
X36508768Y-52789493D01*
X36675551Y-52539885D01*
X36790434Y-52262534D01*
X36849000Y-51968101D01*
X36849000Y-51667899D01*
X38881000Y-51667899D01*
X38881000Y-51968101D01*
X38939566Y-52262534D01*
X39054449Y-52539885D01*
X39221232Y-52789493D01*
X39433507Y-53001768D01*
X39683115Y-53168551D01*
X39960466Y-53283434D01*
X40254899Y-53342000D01*
X40555101Y-53342000D01*
X40849534Y-53283434D01*
X41126885Y-53168551D01*
X41376493Y-53001768D01*
X41588768Y-52789493D01*
X41755551Y-52539885D01*
X41870434Y-52262534D01*
X41929000Y-51968101D01*
X41929000Y-51667899D01*
X41870434Y-51373466D01*
X41755551Y-51096115D01*
X41588768Y-50846507D01*
X41376493Y-50634232D01*
X41126885Y-50467449D01*
X40849534Y-50352566D01*
X40555101Y-50294000D01*
X40254899Y-50294000D01*
X39960466Y-50352566D01*
X39683115Y-50467449D01*
X39433507Y-50634232D01*
X39221232Y-50846507D01*
X39054449Y-51096115D01*
X38939566Y-51373466D01*
X38881000Y-51667899D01*
X36849000Y-51667899D01*
X36790434Y-51373466D01*
X36675551Y-51096115D01*
X36508768Y-50846507D01*
X36296493Y-50634232D01*
X36046885Y-50467449D01*
X35769534Y-50352566D01*
X35475101Y-50294000D01*
X35174899Y-50294000D01*
X34880466Y-50352566D01*
X34603115Y-50467449D01*
X34353507Y-50634232D01*
X34141232Y-50846507D01*
X33974449Y-51096115D01*
X33859566Y-51373466D01*
X33801000Y-51667899D01*
X33680000Y-51667899D01*
X33680000Y-46587899D01*
X33801000Y-46587899D01*
X33801000Y-46888101D01*
X33859566Y-47182534D01*
X33974449Y-47459885D01*
X34141232Y-47709493D01*
X34353507Y-47921768D01*
X34603115Y-48088551D01*
X34880466Y-48203434D01*
X35174899Y-48262000D01*
X35475101Y-48262000D01*
X35769534Y-48203434D01*
X36046885Y-48088551D01*
X36296493Y-47921768D01*
X36508768Y-47709493D01*
X36675551Y-47459885D01*
X36790434Y-47182534D01*
X36849000Y-46888101D01*
X36849000Y-46587899D01*
X36790434Y-46293466D01*
X36675551Y-46016115D01*
X36508768Y-45766507D01*
X36296493Y-45554232D01*
X36046885Y-45387449D01*
X35769534Y-45272566D01*
X35475101Y-45214000D01*
X35174899Y-45214000D01*
X34880466Y-45272566D01*
X34603115Y-45387449D01*
X34353507Y-45554232D01*
X34141232Y-45766507D01*
X33974449Y-46016115D01*
X33859566Y-46293466D01*
X33801000Y-46587899D01*
X33680000Y-46587899D01*
X33680000Y-34950000D01*
X49994230Y-34950000D01*
X49959188Y-35065518D01*
G04 #@! TA.AperFunction,Conductor*
D18*
G36*
X49959188Y-35065518D02*
G01*
X49946928Y-35190000D01*
X49946928Y-36890000D01*
X49959188Y-37014482D01*
X49995498Y-37134180D01*
X50054463Y-37244494D01*
X50133815Y-37341185D01*
X50230506Y-37420537D01*
X50340820Y-37479502D01*
X50460518Y-37515812D01*
X50585000Y-37528072D01*
X52285000Y-37528072D01*
X52409482Y-37515812D01*
X52529180Y-37479502D01*
X52639494Y-37420537D01*
X52736185Y-37341185D01*
X52815537Y-37244494D01*
X52874502Y-37134180D01*
X52896513Y-37061620D01*
X53028368Y-37193475D01*
X53271589Y-37355990D01*
X53541842Y-37467932D01*
X53828740Y-37525000D01*
X54121260Y-37525000D01*
X54408158Y-37467932D01*
X54678411Y-37355990D01*
X54921632Y-37193475D01*
X55128475Y-36986632D01*
X55290990Y-36743411D01*
X55402932Y-36473158D01*
X55460000Y-36186260D01*
X55460000Y-35893740D01*
X55402932Y-35606842D01*
X55290990Y-35336589D01*
X55128475Y-35093368D01*
X54985107Y-34950000D01*
X58044893Y-34950000D01*
X57901525Y-35093368D01*
X57739010Y-35336589D01*
X57627068Y-35606842D01*
X57570000Y-35893740D01*
X57570000Y-36186260D01*
X57627068Y-36473158D01*
X57739010Y-36743411D01*
X57901525Y-36986632D01*
X58108368Y-37193475D01*
X58351589Y-37355990D01*
X58621842Y-37467932D01*
X58908740Y-37525000D01*
X59201260Y-37525000D01*
X59488158Y-37467932D01*
X59758411Y-37355990D01*
X60001632Y-37193475D01*
X60208475Y-36986632D01*
X60325000Y-36812240D01*
X60441525Y-36986632D01*
X60648368Y-37193475D01*
X60891589Y-37355990D01*
X61161842Y-37467932D01*
X61448740Y-37525000D01*
X61741260Y-37525000D01*
X62028158Y-37467932D01*
X62298411Y-37355990D01*
X62541632Y-37193475D01*
X62748475Y-36986632D01*
X62910990Y-36743411D01*
X63022932Y-36473158D01*
X63080000Y-36186260D01*
X63080000Y-35893740D01*
X63022932Y-35606842D01*
X62910990Y-35336589D01*
X62748475Y-35093368D01*
X62605107Y-34950000D01*
X71531888Y-34950000D01*
X71457989Y-34980610D01*
X71214768Y-35143125D01*
X71007925Y-35349968D01*
X70845410Y-35593189D01*
X70733468Y-35863442D01*
X70676400Y-36150340D01*
X70676400Y-36442860D01*
X70733468Y-36729758D01*
X70845410Y-37000011D01*
X71007925Y-37243232D01*
X71214768Y-37450075D01*
X71457989Y-37612590D01*
X71728242Y-37724532D01*
X72015140Y-37781600D01*
X72307660Y-37781600D01*
X72594558Y-37724532D01*
X72864811Y-37612590D01*
X73108032Y-37450075D01*
X73314875Y-37243232D01*
X73431400Y-37068840D01*
X73547925Y-37243232D01*
X73754768Y-37450075D01*
X73997989Y-37612590D01*
X74268242Y-37724532D01*
X74555140Y-37781600D01*
X74847660Y-37781600D01*
X75134558Y-37724532D01*
X75404811Y-37612590D01*
X75648032Y-37450075D01*
X75779887Y-37318220D01*
X75801898Y-37390780D01*
X75860863Y-37501094D01*
X75940215Y-37597785D01*
X76036906Y-37677137D01*
X76147220Y-37736102D01*
X76266918Y-37772412D01*
X76391400Y-37784672D01*
X78091400Y-37784672D01*
X78215882Y-37772412D01*
X78335580Y-37736102D01*
X78445894Y-37677137D01*
X78542585Y-37597785D01*
X78621937Y-37501094D01*
X78680902Y-37390780D01*
X78717212Y-37271082D01*
X78729472Y-37146600D01*
X78729472Y-35446600D01*
X78717212Y-35322118D01*
X78680902Y-35202420D01*
X78621937Y-35092106D01*
X78542585Y-34995415D01*
X78487246Y-34950000D01*
X79610001Y-34950000D01*
X79610001Y-39100605D01*
X79444759Y-38935363D01*
X79209727Y-38778320D01*
X78948574Y-38670147D01*
X78671335Y-38615000D01*
X78388665Y-38615000D01*
X78111426Y-38670147D01*
X77850273Y-38778320D01*
X77615241Y-38935363D01*
X77415363Y-39135241D01*
X77260000Y-39367759D01*
X77104637Y-39135241D01*
X76904759Y-38935363D01*
X76669727Y-38778320D01*
X76408574Y-38670147D01*
X76131335Y-38615000D01*
X75848665Y-38615000D01*
X75571426Y-38670147D01*
X75310273Y-38778320D01*
X75075241Y-38935363D01*
X74875363Y-39135241D01*
X74720000Y-39367759D01*
X74564637Y-39135241D01*
X74364759Y-38935363D01*
X74129727Y-38778320D01*
X73868574Y-38670147D01*
X73591335Y-38615000D01*
X73308665Y-38615000D01*
X73031426Y-38670147D01*
X72770273Y-38778320D01*
X72535241Y-38935363D01*
X72335363Y-39135241D01*
X72180000Y-39367759D01*
X72024637Y-39135241D01*
X71824759Y-38935363D01*
X71589727Y-38778320D01*
X71328574Y-38670147D01*
X71051335Y-38615000D01*
X70768665Y-38615000D01*
X70491426Y-38670147D01*
X70230273Y-38778320D01*
X69995241Y-38935363D01*
X69795363Y-39135241D01*
X69640000Y-39367759D01*
X69484637Y-39135241D01*
X69284759Y-38935363D01*
X69049727Y-38778320D01*
X68788574Y-38670147D01*
X68511335Y-38615000D01*
X68228665Y-38615000D01*
X67951426Y-38670147D01*
X67690273Y-38778320D01*
X67455241Y-38935363D01*
X67255363Y-39135241D01*
X67100000Y-39367759D01*
X66944637Y-39135241D01*
X66744759Y-38935363D01*
X66509727Y-38778320D01*
X66248574Y-38670147D01*
X65971335Y-38615000D01*
X65688665Y-38615000D01*
X65411426Y-38670147D01*
X65150273Y-38778320D01*
X64915241Y-38935363D01*
X64715363Y-39135241D01*
X64560000Y-39367759D01*
X64404637Y-39135241D01*
X64204759Y-38935363D01*
X63969727Y-38778320D01*
X63708574Y-38670147D01*
X63431335Y-38615000D01*
X63148665Y-38615000D01*
X62871426Y-38670147D01*
X62610273Y-38778320D01*
X62375241Y-38935363D01*
X62175363Y-39135241D01*
X62020000Y-39367759D01*
X61864637Y-39135241D01*
X61664759Y-38935363D01*
X61429727Y-38778320D01*
X61168574Y-38670147D01*
X60891335Y-38615000D01*
X60608665Y-38615000D01*
X60331426Y-38670147D01*
X60070273Y-38778320D01*
X59835241Y-38935363D01*
X59635363Y-39135241D01*
X59480000Y-39367759D01*
X59324637Y-39135241D01*
X59124759Y-38935363D01*
X58889727Y-38778320D01*
X58628574Y-38670147D01*
X58351335Y-38615000D01*
X58068665Y-38615000D01*
X57791426Y-38670147D01*
X57530273Y-38778320D01*
X57295241Y-38935363D01*
X57095363Y-39135241D01*
X56940000Y-39367759D01*
X56784637Y-39135241D01*
X56584759Y-38935363D01*
X56349727Y-38778320D01*
X56088574Y-38670147D01*
X55811335Y-38615000D01*
X55528665Y-38615000D01*
X55251426Y-38670147D01*
X54990273Y-38778320D01*
X54755241Y-38935363D01*
X54555363Y-39135241D01*
X54400000Y-39367759D01*
X54244637Y-39135241D01*
X54044759Y-38935363D01*
X53809727Y-38778320D01*
X53548574Y-38670147D01*
X53271335Y-38615000D01*
X52988665Y-38615000D01*
X52711426Y-38670147D01*
X52450273Y-38778320D01*
X52215241Y-38935363D01*
X52015363Y-39135241D01*
X51860000Y-39367759D01*
X51704637Y-39135241D01*
X51504759Y-38935363D01*
X51269727Y-38778320D01*
X51008574Y-38670147D01*
X50731335Y-38615000D01*
X50448665Y-38615000D01*
X50171426Y-38670147D01*
X49910273Y-38778320D01*
X49675241Y-38935363D01*
X49475363Y-39135241D01*
X49320000Y-39367759D01*
X49164637Y-39135241D01*
X48964759Y-38935363D01*
X48729727Y-38778320D01*
X48468574Y-38670147D01*
X48191335Y-38615000D01*
X47908665Y-38615000D01*
X47631426Y-38670147D01*
X47370273Y-38778320D01*
X47135241Y-38935363D01*
X46935363Y-39135241D01*
X46780000Y-39367759D01*
X46624637Y-39135241D01*
X46424759Y-38935363D01*
X46189727Y-38778320D01*
X45928574Y-38670147D01*
X45651335Y-38615000D01*
X45368665Y-38615000D01*
X45091426Y-38670147D01*
X44830273Y-38778320D01*
X44595241Y-38935363D01*
X44395363Y-39135241D01*
X44238320Y-39370273D01*
X44130147Y-39631426D01*
X44075000Y-39908665D01*
X44075000Y-40191335D01*
X44130147Y-40468574D01*
X44238320Y-40729727D01*
X44395363Y-40964759D01*
X44595241Y-41164637D01*
X44830273Y-41321680D01*
X45091426Y-41429853D01*
X45368665Y-41485000D01*
X45651335Y-41485000D01*
X45928574Y-41429853D01*
X46189727Y-41321680D01*
X46424759Y-41164637D01*
X46624637Y-40964759D01*
X46780000Y-40732241D01*
X46935363Y-40964759D01*
X47135241Y-41164637D01*
X47370273Y-41321680D01*
X47631426Y-41429853D01*
X47908665Y-41485000D01*
X48191335Y-41485000D01*
X48468574Y-41429853D01*
X48729727Y-41321680D01*
X48964759Y-41164637D01*
X49164637Y-40964759D01*
X49320000Y-40732241D01*
X49475363Y-40964759D01*
X49675241Y-41164637D01*
X49910273Y-41321680D01*
X50171426Y-41429853D01*
X50448665Y-41485000D01*
X50731335Y-41485000D01*
X51008574Y-41429853D01*
X51269727Y-41321680D01*
X51504759Y-41164637D01*
X51704637Y-40964759D01*
X51860000Y-40732241D01*
X52015363Y-40964759D01*
X52215241Y-41164637D01*
X52450273Y-41321680D01*
X52711426Y-41429853D01*
X52988665Y-41485000D01*
X53271335Y-41485000D01*
X53548574Y-41429853D01*
X53809727Y-41321680D01*
X54044759Y-41164637D01*
X54244637Y-40964759D01*
X54400000Y-40732241D01*
X54555363Y-40964759D01*
X54755241Y-41164637D01*
X54990273Y-41321680D01*
X55251426Y-41429853D01*
X55528665Y-41485000D01*
X55811335Y-41485000D01*
X56088574Y-41429853D01*
X56349727Y-41321680D01*
X56584759Y-41164637D01*
X56784637Y-40964759D01*
X56940000Y-40732241D01*
X57095363Y-40964759D01*
X57295241Y-41164637D01*
X57530273Y-41321680D01*
X57791426Y-41429853D01*
X58068665Y-41485000D01*
X58351335Y-41485000D01*
X58628574Y-41429853D01*
X58889727Y-41321680D01*
X59124759Y-41164637D01*
X59324637Y-40964759D01*
X59480000Y-40732241D01*
X59635363Y-40964759D01*
X59835241Y-41164637D01*
X60070273Y-41321680D01*
X60331426Y-41429853D01*
X60608665Y-41485000D01*
X60891335Y-41485000D01*
X61168574Y-41429853D01*
X61429727Y-41321680D01*
X61664759Y-41164637D01*
X61864637Y-40964759D01*
X62020000Y-40732241D01*
X62175363Y-40964759D01*
X62375241Y-41164637D01*
X62610273Y-41321680D01*
X62871426Y-41429853D01*
X63148665Y-41485000D01*
X63431335Y-41485000D01*
X63708574Y-41429853D01*
X63969727Y-41321680D01*
X64204759Y-41164637D01*
X64404637Y-40964759D01*
X64560000Y-40732241D01*
X64715363Y-40964759D01*
X64915241Y-41164637D01*
X65150273Y-41321680D01*
X65411426Y-41429853D01*
X65688665Y-41485000D01*
X65971335Y-41485000D01*
X66248574Y-41429853D01*
X66509727Y-41321680D01*
X66744759Y-41164637D01*
X66944637Y-40964759D01*
X67100000Y-40732241D01*
X67255363Y-40964759D01*
X67455241Y-41164637D01*
X67690273Y-41321680D01*
X67951426Y-41429853D01*
X68228665Y-41485000D01*
X68511335Y-41485000D01*
X68788574Y-41429853D01*
X69049727Y-41321680D01*
X69284759Y-41164637D01*
X69484637Y-40964759D01*
X69640000Y-40732241D01*
X69795363Y-40964759D01*
X69995241Y-41164637D01*
X70230273Y-41321680D01*
X70491426Y-41429853D01*
X70768665Y-41485000D01*
X71051335Y-41485000D01*
X71328574Y-41429853D01*
X71589727Y-41321680D01*
X71824759Y-41164637D01*
X72024637Y-40964759D01*
X72180000Y-40732241D01*
X72335363Y-40964759D01*
X72535241Y-41164637D01*
X72690001Y-41268044D01*
X72690001Y-41551198D01*
X72583199Y-41658000D01*
X52869325Y-41658000D01*
X52832000Y-41654324D01*
X52794675Y-41658000D01*
X52794667Y-41658000D01*
X52683014Y-41668997D01*
X52539753Y-41712454D01*
X52407724Y-41783026D01*
X52291999Y-41877999D01*
X52268201Y-41906998D01*
X52030198Y-42145000D01*
X51968061Y-42145000D01*
X51768102Y-42184774D01*
X51579744Y-42262795D01*
X51410226Y-42376063D01*
X51266063Y-42520226D01*
X51152795Y-42689744D01*
X51074774Y-42878102D01*
X51035000Y-43078061D01*
X51035000Y-43281939D01*
X51074774Y-43481898D01*
X51152795Y-43670256D01*
X51266063Y-43839774D01*
X51410226Y-43983937D01*
X51579744Y-44097205D01*
X51768102Y-44175226D01*
X51968061Y-44215000D01*
X52171939Y-44215000D01*
X52371898Y-44175226D01*
X52560256Y-44097205D01*
X52729774Y-43983937D01*
X52873937Y-43839774D01*
X52987205Y-43670256D01*
X53065226Y-43481898D01*
X53105000Y-43281939D01*
X53105000Y-43219802D01*
X53146802Y-43178000D01*
X72860678Y-43178000D01*
X72898000Y-43181676D01*
X72935322Y-43178000D01*
X72935333Y-43178000D01*
X73046986Y-43167003D01*
X73190247Y-43123546D01*
X73322276Y-43052974D01*
X73438001Y-42958001D01*
X73461803Y-42928998D01*
X73961002Y-42429800D01*
X73990001Y-42406001D01*
X74016332Y-42373917D01*
X74084974Y-42290277D01*
X74155546Y-42158247D01*
X74165125Y-42126668D01*
X74199003Y-42014986D01*
X74210000Y-41903333D01*
X74210000Y-41903323D01*
X74213676Y-41866000D01*
X74210000Y-41828677D01*
X74210000Y-41268043D01*
X74364759Y-41164637D01*
X74564637Y-40964759D01*
X74720000Y-40732241D01*
X74875363Y-40964759D01*
X75075241Y-41164637D01*
X75310273Y-41321680D01*
X75571426Y-41429853D01*
X75848665Y-41485000D01*
X76131335Y-41485000D01*
X76408574Y-41429853D01*
X76669727Y-41321680D01*
X76904759Y-41164637D01*
X77104637Y-40964759D01*
X77260000Y-40732241D01*
X77415363Y-40964759D01*
X77615241Y-41164637D01*
X77850273Y-41321680D01*
X78111426Y-41429853D01*
X78388665Y-41485000D01*
X78671335Y-41485000D01*
X78948574Y-41429853D01*
X79209727Y-41321680D01*
X79444759Y-41164637D01*
X79610001Y-40999395D01*
X79610000Y-56236000D01*
X77073396Y-56236000D01*
X77104637Y-56204759D01*
X77261680Y-55969727D01*
X77369853Y-55708574D01*
X77425000Y-55431335D01*
X77425000Y-55148665D01*
X77369853Y-54871426D01*
X77261680Y-54610273D01*
X77104637Y-54375241D01*
X76904759Y-54175363D01*
X76669727Y-54018320D01*
X76408574Y-53910147D01*
X76131335Y-53855000D01*
X75848665Y-53855000D01*
X75666114Y-53891312D01*
X75461400Y-53686599D01*
X75461400Y-48684311D01*
X75505337Y-48640374D01*
X75618605Y-48470856D01*
X75696626Y-48282498D01*
X75736400Y-48082539D01*
X75736400Y-47878661D01*
X75696626Y-47678702D01*
X75618605Y-47490344D01*
X75505337Y-47320826D01*
X75361174Y-47176663D01*
X75191656Y-47063395D01*
X75003298Y-46985374D01*
X74803339Y-46945600D01*
X74599461Y-46945600D01*
X74399502Y-46985374D01*
X74211144Y-47063395D01*
X74041626Y-47176663D01*
X73897463Y-47320826D01*
X73784195Y-47490344D01*
X73706174Y-47678702D01*
X73666400Y-47878661D01*
X73666400Y-48082539D01*
X73706174Y-48282498D01*
X73784195Y-48470856D01*
X73897463Y-48640374D01*
X73941400Y-48684311D01*
X73941401Y-53940313D01*
X73868574Y-53910147D01*
X73591335Y-53855000D01*
X73308665Y-53855000D01*
X73126114Y-53891312D01*
X72921400Y-53686599D01*
X72921400Y-46652311D01*
X72965337Y-46608374D01*
X73078605Y-46438856D01*
X73156626Y-46250498D01*
X73196400Y-46050539D01*
X73196400Y-45846661D01*
X73156626Y-45646702D01*
X73078605Y-45458344D01*
X72965337Y-45288826D01*
X72821174Y-45144663D01*
X72651656Y-45031395D01*
X72463298Y-44953374D01*
X72263339Y-44913600D01*
X72059461Y-44913600D01*
X71859502Y-44953374D01*
X71671144Y-45031395D01*
X71501626Y-45144663D01*
X71357463Y-45288826D01*
X71244195Y-45458344D01*
X71166174Y-45646702D01*
X71126400Y-45846661D01*
X71126400Y-46050539D01*
X71166174Y-46250498D01*
X71244195Y-46438856D01*
X71357463Y-46608374D01*
X71401400Y-46652311D01*
X71401401Y-53940313D01*
X71328574Y-53910147D01*
X71051335Y-53855000D01*
X70768665Y-53855000D01*
X70491426Y-53910147D01*
X70230273Y-54018320D01*
X69995241Y-54175363D01*
X69795363Y-54375241D01*
X69640000Y-54607759D01*
X69484637Y-54375241D01*
X69284759Y-54175363D01*
X69049727Y-54018320D01*
X68788574Y-53910147D01*
X68511335Y-53855000D01*
X68228665Y-53855000D01*
X67951426Y-53910147D01*
X67690273Y-54018320D01*
X67455241Y-54175363D01*
X67255363Y-54375241D01*
X67100000Y-54607759D01*
X66944637Y-54375241D01*
X66744759Y-54175363D01*
X66509727Y-54018320D01*
X66248574Y-53910147D01*
X65971335Y-53855000D01*
X65688665Y-53855000D01*
X65411426Y-53910147D01*
X65150273Y-54018320D01*
X64915241Y-54175363D01*
X64715363Y-54375241D01*
X64560000Y-54607759D01*
X64404637Y-54375241D01*
X64204759Y-54175363D01*
X63969727Y-54018320D01*
X63708574Y-53910147D01*
X63431335Y-53855000D01*
X63148665Y-53855000D01*
X62871426Y-53910147D01*
X62610273Y-54018320D01*
X62375241Y-54175363D01*
X62175363Y-54375241D01*
X62020000Y-54607759D01*
X61864637Y-54375241D01*
X61664759Y-54175363D01*
X61429727Y-54018320D01*
X61168574Y-53910147D01*
X60891335Y-53855000D01*
X60608665Y-53855000D01*
X60331426Y-53910147D01*
X60070273Y-54018320D01*
X59835241Y-54175363D01*
X59635363Y-54375241D01*
X59480000Y-54607759D01*
X59324637Y-54375241D01*
X59124759Y-54175363D01*
X58889727Y-54018320D01*
X58628574Y-53910147D01*
X58351335Y-53855000D01*
X58068665Y-53855000D01*
X57791426Y-53910147D01*
X57530273Y-54018320D01*
X57295241Y-54175363D01*
X57095363Y-54375241D01*
X56940000Y-54607759D01*
X56784637Y-54375241D01*
X56584759Y-54175363D01*
X56349727Y-54018320D01*
X56088574Y-53910147D01*
X55811335Y-53855000D01*
X55528665Y-53855000D01*
X55251426Y-53910147D01*
X54990273Y-54018320D01*
X54755241Y-54175363D01*
X54555363Y-54375241D01*
X54400000Y-54607759D01*
X54244637Y-54375241D01*
X54044759Y-54175363D01*
X53809727Y-54018320D01*
X53548574Y-53910147D01*
X53271335Y-53855000D01*
X52988665Y-53855000D01*
X52711426Y-53910147D01*
X52450273Y-54018320D01*
X52215241Y-54175363D01*
X52015363Y-54375241D01*
X51860000Y-54607759D01*
X51704637Y-54375241D01*
X51504759Y-54175363D01*
X51269727Y-54018320D01*
X51008574Y-53910147D01*
X50731335Y-53855000D01*
X50448665Y-53855000D01*
X50171426Y-53910147D01*
X49910273Y-54018320D01*
X49675241Y-54175363D01*
X49475363Y-54375241D01*
X49320000Y-54607759D01*
X49164637Y-54375241D01*
X48964759Y-54175363D01*
X48729727Y-54018320D01*
X48468574Y-53910147D01*
X48191335Y-53855000D01*
X47908665Y-53855000D01*
X47631426Y-53910147D01*
X47370273Y-54018320D01*
X47135241Y-54175363D01*
X46935363Y-54375241D01*
X46780000Y-54607759D01*
X46624637Y-54375241D01*
X46424759Y-54175363D01*
X46270000Y-54071957D01*
X46270000Y-51880322D01*
X46273676Y-51842999D01*
X46270000Y-51805676D01*
X46270000Y-51805667D01*
X46259003Y-51694014D01*
X46215546Y-51550753D01*
X46144974Y-51418724D01*
X46050001Y-51302999D01*
X46021004Y-51279202D01*
X41879377Y-47137576D01*
X41929000Y-46888101D01*
X41929000Y-46587899D01*
X41870434Y-46293466D01*
X41755551Y-46016115D01*
X41588768Y-45766507D01*
X41376493Y-45554232D01*
X41126885Y-45387449D01*
X40849534Y-45272566D01*
X40555101Y-45214000D01*
X40254899Y-45214000D01*
X40005425Y-45263623D01*
X39315300Y-44573499D01*
X39315300Y-43349030D01*
X39445762Y-43241962D01*
X39556205Y-43107387D01*
X39638272Y-42953851D01*
X39688808Y-42787255D01*
X39705872Y-42614001D01*
X39705872Y-41950974D01*
X40101425Y-42346528D01*
X40111304Y-42379096D01*
X40181876Y-42511126D01*
X40195027Y-42527150D01*
X40276849Y-42626851D01*
X40305852Y-42650653D01*
X40621000Y-42965801D01*
X40621000Y-43027939D01*
X40660774Y-43227898D01*
X40738795Y-43416256D01*
X40852063Y-43585774D01*
X40996226Y-43729937D01*
X41165744Y-43843205D01*
X41354102Y-43921226D01*
X41554061Y-43961000D01*
X41757939Y-43961000D01*
X41957898Y-43921226D01*
X42146256Y-43843205D01*
X42315774Y-43729937D01*
X42459937Y-43585774D01*
X42573205Y-43416256D01*
X42651226Y-43227898D01*
X42691000Y-43027939D01*
X42691000Y-42824061D01*
X42651226Y-42624102D01*
X42573205Y-42435744D01*
X42459937Y-42266226D01*
X42315774Y-42122063D01*
X42146256Y-42008795D01*
X41957898Y-41930774D01*
X41804828Y-41900327D01*
X41380658Y-41476157D01*
X41380649Y-41476146D01*
X41380643Y-41476140D01*
X41356851Y-41447149D01*
X41327858Y-41423355D01*
X39622000Y-39717499D01*
X39622000Y-37787711D01*
X39665937Y-37743774D01*
X39779205Y-37574256D01*
X39857226Y-37385898D01*
X39897000Y-37185939D01*
X39897000Y-36982061D01*
X39857226Y-36782102D01*
X39779205Y-36593744D01*
X39665937Y-36424226D01*
X39521774Y-36280063D01*
X39352256Y-36166795D01*
X39163898Y-36088774D01*
X38963939Y-36049000D01*
X38760061Y-36049000D01*
X38560102Y-36088774D01*
X38371744Y-36166795D01*
X38202226Y-36280063D01*
X38058063Y-36424226D01*
X37944795Y-36593744D01*
X37866774Y-36782102D01*
X37827000Y-36982061D01*
X37827000Y-37185939D01*
X37866774Y-37385898D01*
X37944795Y-37574256D01*
X38058063Y-37743774D01*
X38102000Y-37787711D01*
X38102001Y-39717497D01*
X36993502Y-40825997D01*
X36992801Y-40825928D01*
X36467799Y-40825928D01*
X36294545Y-40842992D01*
X36127949Y-40893528D01*
X35974413Y-40975595D01*
X35839838Y-41086038D01*
X35729395Y-41220613D01*
X35647328Y-41374149D01*
X35596792Y-41540745D01*
X35579728Y-41713999D01*
X35579728Y-42614001D01*
X35596792Y-42787255D01*
X35647328Y-42953851D01*
X35729395Y-43107387D01*
X35839838Y-43241962D01*
X35974413Y-43352405D01*
X36127949Y-43434472D01*
X36294545Y-43485008D01*
X36467799Y-43502072D01*
X36992801Y-43502072D01*
X37166055Y-43485008D01*
X37332651Y-43434472D01*
X37486187Y-43352405D01*
X37620762Y-43241962D01*
X37642800Y-43215109D01*
X37664838Y-43241962D01*
X37795300Y-43349030D01*
X37795301Y-44850968D01*
X37791624Y-44888300D01*
X37806298Y-45037285D01*
X37849754Y-45180546D01*
X37920326Y-45312576D01*
X37991501Y-45399302D01*
X38015300Y-45428301D01*
X38044298Y-45452099D01*
X38930623Y-46338425D01*
X38881000Y-46587899D01*
X38881000Y-46888101D01*
X38939566Y-47182534D01*
X39054449Y-47459885D01*
X39221232Y-47709493D01*
X39433507Y-47921768D01*
X39683115Y-48088551D01*
X39960466Y-48203434D01*
X40254899Y-48262000D01*
X40555101Y-48262000D01*
X40804576Y-48212377D01*
X44750001Y-52157803D01*
X44750000Y-54071956D01*
X44595241Y-54175363D01*
X44395363Y-54375241D01*
X44238320Y-54610273D01*
X44130147Y-54871426D01*
X44075000Y-55148665D01*
X44075000Y-55431335D01*
X44130147Y-55708574D01*
X44238320Y-55969727D01*
X44395363Y-56204759D01*
X44426604Y-56236000D01*
X33680000Y-56236000D01*
X33680000Y-51667899D01*
X33801000Y-51667899D01*
X33801000Y-51968101D01*
X33859566Y-52262534D01*
X33974449Y-52539885D01*
X34141232Y-52789493D01*
X34353507Y-53001768D01*
X34603115Y-53168551D01*
X34880466Y-53283434D01*
X35174899Y-53342000D01*
X35475101Y-53342000D01*
X35769534Y-53283434D01*
X36046885Y-53168551D01*
X36296493Y-53001768D01*
X36508768Y-52789493D01*
X36675551Y-52539885D01*
X36790434Y-52262534D01*
X36849000Y-51968101D01*
X36849000Y-51667899D01*
X38881000Y-51667899D01*
X38881000Y-51968101D01*
X38939566Y-52262534D01*
X39054449Y-52539885D01*
X39221232Y-52789493D01*
X39433507Y-53001768D01*
X39683115Y-53168551D01*
X39960466Y-53283434D01*
X40254899Y-53342000D01*
X40555101Y-53342000D01*
X40849534Y-53283434D01*
X41126885Y-53168551D01*
X41376493Y-53001768D01*
X41588768Y-52789493D01*
X41755551Y-52539885D01*
X41870434Y-52262534D01*
X41929000Y-51968101D01*
X41929000Y-51667899D01*
X41870434Y-51373466D01*
X41755551Y-51096115D01*
X41588768Y-50846507D01*
X41376493Y-50634232D01*
X41126885Y-50467449D01*
X40849534Y-50352566D01*
X40555101Y-50294000D01*
X40254899Y-50294000D01*
X39960466Y-50352566D01*
X39683115Y-50467449D01*
X39433507Y-50634232D01*
X39221232Y-50846507D01*
X39054449Y-51096115D01*
X38939566Y-51373466D01*
X38881000Y-51667899D01*
X36849000Y-51667899D01*
X36790434Y-51373466D01*
X36675551Y-51096115D01*
X36508768Y-50846507D01*
X36296493Y-50634232D01*
X36046885Y-50467449D01*
X35769534Y-50352566D01*
X35475101Y-50294000D01*
X35174899Y-50294000D01*
X34880466Y-50352566D01*
X34603115Y-50467449D01*
X34353507Y-50634232D01*
X34141232Y-50846507D01*
X33974449Y-51096115D01*
X33859566Y-51373466D01*
X33801000Y-51667899D01*
X33680000Y-51667899D01*
X33680000Y-46587899D01*
X33801000Y-46587899D01*
X33801000Y-46888101D01*
X33859566Y-47182534D01*
X33974449Y-47459885D01*
X34141232Y-47709493D01*
X34353507Y-47921768D01*
X34603115Y-48088551D01*
X34880466Y-48203434D01*
X35174899Y-48262000D01*
X35475101Y-48262000D01*
X35769534Y-48203434D01*
X36046885Y-48088551D01*
X36296493Y-47921768D01*
X36508768Y-47709493D01*
X36675551Y-47459885D01*
X36790434Y-47182534D01*
X36849000Y-46888101D01*
X36849000Y-46587899D01*
X36790434Y-46293466D01*
X36675551Y-46016115D01*
X36508768Y-45766507D01*
X36296493Y-45554232D01*
X36046885Y-45387449D01*
X35769534Y-45272566D01*
X35475101Y-45214000D01*
X35174899Y-45214000D01*
X34880466Y-45272566D01*
X34603115Y-45387449D01*
X34353507Y-45554232D01*
X34141232Y-45766507D01*
X33974449Y-46016115D01*
X33859566Y-46293466D01*
X33801000Y-46587899D01*
X33680000Y-46587899D01*
X33680000Y-34950000D01*
X49994230Y-34950000D01*
X49959188Y-35065518D01*
G37*
G04 #@! TD.AperFunction*
M02*
