G04 #@! TF.GenerationSoftware,KiCad,Pcbnew,7.0.2-0*
G04 #@! TF.CreationDate,2023-06-19T12:30:15-04:00*
G04 #@! TF.ProjectId,speed_joystick,73706565-645f-46a6-9f79-737469636b2e,rev?*
G04 #@! TF.SameCoordinates,Original*
G04 #@! TF.FileFunction,Profile,NP*
%FSLAX46Y46*%
G04 Gerber Fmt 4.6, Leading zero omitted, Abs format (unit mm)*
G04 Created by KiCad (PCBNEW 7.0.2-0) date 2023-06-19 12:30:15*
%MOMM*%
%LPD*%
G01*
G04 APERTURE LIST*
G04 #@! TA.AperFunction,Profile*
%ADD10C,0.200000*%
G04 #@! TD*
G04 #@! TA.AperFunction,Profile*
%ADD11C,0.010000*%
G04 #@! TD*
G04 APERTURE END LIST*
D10*
X-55037543Y24730311D02*
X-54079709Y24381696D01*
X-88242455Y8852796D02*
X-87875425Y9803645D01*
X-84927247Y15146535D02*
X-84318663Y15964110D01*
X-39619997Y10739584D02*
X-39216137Y9803645D01*
X-47045687Y20320693D02*
X-46264891Y19665500D01*
X-53136099Y23996225D02*
X-52208237Y23574433D01*
X-37756653Y-5200897D02*
X-37972553Y-6197059D01*
X-80826671Y19665500D02*
X-80045875Y20320693D01*
X-41587735Y14305948D02*
X-41044175Y13443668D01*
X-100450000Y-25400000D02*
X-89809404Y-1074573D01*
X-45510257Y18980538D02*
X-44782547Y18266824D01*
X-42164315Y15146535D02*
X-41587735Y14305948D01*
X-75794169Y23116979D02*
X-74883325Y23574433D01*
X-83008531Y17525448D02*
X-82309015Y18266824D01*
X-79981562Y-30527366D02*
X-79981562Y-41436655D01*
X-37972553Y5924887D02*
X-37756653Y4928725D01*
X-39160665Y-9932109D02*
X-39160665Y-46644381D01*
X-42772899Y15964110D02*
X-42164315Y15146535D01*
X-54079709Y24381696D02*
X-53136099Y23996225D01*
X-39216137Y9803645D02*
X-38849107Y8852796D01*
X-72054019Y24730311D02*
X-71083485Y25041537D01*
X-64055305Y26140722D02*
X-63036257Y26140722D01*
X-74883325Y23574433D02*
X-73955463Y23996225D01*
X-44083031Y17525448D02*
X-43412725Y16757479D01*
X-73011853Y24381696D02*
X-72054019Y24730311D01*
X-61001463Y26022104D02*
X-59989019Y25903740D01*
X-50404837Y22624549D02*
X-49532347Y22097906D01*
X-37264147Y-136086D02*
X-37283705Y-1155170D01*
X-89334909Y4928725D02*
X-89119009Y5924887D01*
X-49532347Y22097906D02*
X-48680685Y21537785D01*
X-43412725Y16757479D02*
X-42772899Y15964110D01*
X-89748421Y1900547D02*
X-89649869Y2915038D01*
X-87471565Y10739584D02*
X-87031891Y11659141D01*
X-56990041Y25314968D02*
X-56008077Y25041537D01*
X-39160665Y-46644381D02*
X-49830897Y-46644381D01*
X-38226807Y-7184129D02*
X-38519161Y-8160581D01*
X-78410877Y21537785D02*
X-77559215Y22097906D01*
X-68109653Y25746260D02*
X-67102543Y25903740D01*
X-82309015Y18266824D02*
X-81581305Y18980538D01*
X-67102543Y25903740D02*
X-66090099Y26022104D01*
X-49830897Y-46644381D02*
X-49830897Y-30527366D01*
X-76686725Y22624549D02*
X-75794169Y23116979D01*
X-89827415Y-136086D02*
X-89807857Y882998D01*
X-40059671Y11659141D02*
X-39619997Y10739584D01*
X-79981562Y-41436655D02*
X-100450000Y-41436655D01*
X-77559215Y22097906D02*
X-76686725Y22624549D01*
X-46264891Y19665500D02*
X-45510257Y18980538D01*
X-58981909Y25746260D02*
X-57981911Y25549918D01*
X-86047387Y13443668D02*
X-85503827Y14305948D01*
X-80045875Y20320693D02*
X-79240187Y20945101D01*
X-37343141Y-2172719D02*
X-37441693Y-3187210D01*
X-85503827Y14305948D02*
X-84927247Y15146535D01*
X-81581305Y18980538D02*
X-80826671Y19665500D01*
X-89809404Y-1074573D02*
X-89827415Y-136086D01*
X-37343141Y1900547D02*
X-37283705Y882998D01*
X-65073845Y26101098D02*
X-64055305Y26140722D01*
X-38849107Y8852796D02*
X-38519161Y7888409D01*
X-44782547Y18266824D02*
X-44083031Y17525448D01*
X-40534651Y12560942D02*
X-40059671Y11659141D01*
X-100450000Y-41436655D02*
X-100450000Y-25400000D01*
X-62017717Y26101098D02*
X-61001463Y26022104D01*
X-89649869Y2915038D02*
X-89511947Y3924942D01*
X-52208237Y23574433D02*
X-51297393Y23116979D01*
X-70101521Y25314968D02*
X-69109651Y25549918D01*
X-37972553Y-6197059D02*
X-38226807Y-7184129D01*
X-89807857Y882998D02*
X-89748421Y1900547D01*
X-69109651Y25549918D02*
X-68109653Y25746260D01*
X-38226807Y6911957D02*
X-37972553Y5924887D01*
X-88864755Y6911957D02*
X-88572401Y7888409D01*
X-79240187Y20945101D02*
X-78410877Y21537785D01*
X-37441693Y-3187210D02*
X-37579615Y-4197114D01*
X-59989019Y25903740D02*
X-58981909Y25746260D01*
X-56008077Y25041537D02*
X-55037543Y24730311D01*
X-47851375Y20945101D02*
X-47045687Y20320693D01*
X-88572401Y7888409D02*
X-88242455Y8852796D01*
X-37579615Y-4197114D02*
X-37756653Y-5200897D01*
X-49830897Y-30527366D02*
X-79981562Y-30527366D01*
X-37283705Y882998D02*
X-37264147Y-136086D01*
X-57981911Y25549918D02*
X-56990041Y25314968D01*
X-37441693Y2915038D02*
X-37343141Y1900547D01*
X-37283705Y-1155170D02*
X-37343141Y-2172719D01*
X-89119009Y5924887D02*
X-88864755Y6911957D01*
X-41044175Y13443668D02*
X-40534651Y12560942D01*
X-38849107Y-9124968D02*
X-39160665Y-9932109D01*
X-51297393Y23116979D02*
X-50404837Y22624549D01*
X-87031891Y11659141D02*
X-86556911Y12560942D01*
X-89511947Y3924942D02*
X-89334909Y4928725D01*
X-38519161Y7888409D02*
X-38226807Y6911957D01*
X-66090099Y26022104D02*
X-65073845Y26101098D01*
X-37579615Y3924942D02*
X-37441693Y2915038D01*
X-37756653Y4928725D02*
X-37579615Y3924942D01*
X-63036257Y26140722D02*
X-62017717Y26101098D01*
X-71083485Y25041537D02*
X-70101521Y25314968D01*
X-84318663Y15964110D02*
X-83678837Y16757479D01*
X-73955463Y23996225D02*
X-73011853Y24381696D01*
X-83678837Y16757479D02*
X-83008531Y17525448D01*
X-87875425Y9803645D02*
X-87471565Y10739584D01*
X-86556911Y12560942D02*
X-86047387Y13443668D01*
X-38519161Y-8160581D02*
X-38849107Y-9124968D01*
X-48680685Y21537785D02*
X-47851375Y20945101D01*
D11*
X-95270000Y-39090000D02*
X-92070000Y-39090000D01*
X-95270000Y-40540000D02*
X-95270000Y-39090000D01*
X-92070000Y-39090000D02*
X-92070000Y-40540000D01*
X-92070000Y-40540000D02*
X-95270000Y-40540000D01*
X-91770000Y-28040000D02*
X-88570000Y-28040000D01*
X-91770000Y-29490000D02*
X-91770000Y-28040000D01*
X-88570000Y-28040000D02*
X-88570000Y-29490000D01*
X-88570000Y-29490000D02*
X-91770000Y-29490000D01*
X-88270000Y-39090000D02*
X-88270000Y-40540000D01*
X-88270000Y-40540000D02*
X-85070000Y-40540000D01*
X-85070000Y-39090000D02*
X-88270000Y-39090000D01*
X-85070000Y-40540000D02*
X-85070000Y-39090000D01*
M02*
