  0
SECTION
  2
HEADER
  9
$ANGBASE
  50
0.0
  9
$ANGDIR
  70
1
  9
$MEASUREMENT
  70
0
  0
ENDSEC
  0
SECTION
  2
TABLES
  0
TABLE
  2
LTYPE
  70
4
  0
LTYPE
  5
40F
  2
CONTINUOUS
  70
0
  3
Solid line
  72
65
  73
0
  40
0.0
  0
LTYPE
  5
410
  2
DASHDOT
 70
0
  3
Dash Dot ____ _ ____ _
 72
65
 73
4
 40
2.0
 49
1.25
 49
-0.25
 49
0.25
 49
-0.25
  0
LTYPE
  5
411
  2
DASHED
 70
0
  3
Dashed __ __ __ __ __
 72
65
 73
2
 40
0.75
 49
0.5
 49
-0.25
  0
LTYPE
  5
43B
  2
DOTTED
 70
0
  3
Dotted .  .  .  .
 72
65
 73
2
 40
0.2
 49
0.0
 49
-0.2
  0
ENDTAB
  0
TABLE
  2
STYLE
  70
4
  0
STYLE
  2
KICAD
  70
0
  40
0
  41
1
  42
1
  50
0
  71
0
  3
isocp.shx
  0
STYLE
  2
KICADB
  70
0
  40
0
  41
1
  42
1
  50
0
  71
0
  3
isocp.shx
  0
STYLE
  2
KICADI
  70
0
  40
0
  41
1
  42
1
  50
15
  71
0
  3
isocp.shx
  0
STYLE
  2
KICADBI
  70
0
  40
0
  41
1
  42
1
  50
15
  71
0
  3
isocp.shx
  0
ENDTAB
  0
TABLE
  2
LAYER
  70
1
  0
LAYER
  2
BLACK
  70
0
  62
7
  6
CONTINUOUS
  0
ENDTAB
  0
ENDSEC
  0
SECTION
  2
ENTITIES
0
LINE
8
BLACK
6
CONTINUOUS
10
-3.6248
20
-1.53878
11
-3.62466
21
-1.53884
0
LINE
8
BLACK
6
CONTINUOUS
10
-3.62466
20
-1.53884
11
-3.62461
21
-1.53898
0
LINE
8
BLACK
6
CONTINUOUS
10
-3.62461
20
-1.53898
11
-3.62461
21
-1.59606
0
LINE
8
BLACK
6
CONTINUOUS
10
-3.62461
20
-1.59606
11
-3.62466
21
-1.5962
0
LINE
8
BLACK
6
CONTINUOUS
10
-3.62466
20
-1.5962
11
-3.6248
21
-1.59626
0
LINE
8
BLACK
6
CONTINUOUS
10
-3.6248
20
-1.59626
11
-3.75079
21
-1.59626
0
LINE
8
BLACK
6
CONTINUOUS
10
-3.75079
20
-1.59626
11
-3.75093
21
-1.5962
0
LINE
8
BLACK
6
CONTINUOUS
10
-3.75093
20
-1.5962
11
-3.75098
21
-1.59606
0
LINE
8
BLACK
6
CONTINUOUS
10
-3.75098
20
-1.59606
11
-3.75098
21
-1.53898
0
LINE
8
BLACK
6
CONTINUOUS
10
-3.75098
20
-1.53898
11
-3.75093
21
-1.53884
0
LINE
8
BLACK
6
CONTINUOUS
10
-3.75093
20
-1.53884
11
-3.75079
21
-1.53878
0
LINE
8
BLACK
6
CONTINUOUS
10
-3.75079
20
-1.53878
11
-3.6248
21
-1.53878
0
LINE
8
BLACK
6
CONTINUOUS
10
-3.75059
20
-1.53917
11
-3.75059
21
-1.59587
0
LINE
8
BLACK
6
CONTINUOUS
10
-3.75059
20
-1.59587
11
-3.625
21
-1.59587
0
LINE
8
BLACK
6
CONTINUOUS
10
-3.625
20
-1.59587
11
-3.625
21
-1.53917
0
LINE
8
BLACK
6
CONTINUOUS
10
-3.625
20
-1.53917
11
-3.75059
21
-1.53917
0
LINE
8
BLACK
6
CONTINUOUS
10
-3.34921
20
-1.53878
11
-3.34907
21
-1.53884
0
LINE
8
BLACK
6
CONTINUOUS
10
-3.34907
20
-1.53884
11
-3.34902
21
-1.53898
0
LINE
8
BLACK
6
CONTINUOUS
10
-3.34902
20
-1.53898
11
-3.34902
21
-1.59606
0
LINE
8
BLACK
6
CONTINUOUS
10
-3.34902
20
-1.59606
11
-3.34907
21
-1.5962
0
LINE
8
BLACK
6
CONTINUOUS
10
-3.34907
20
-1.5962
11
-3.34921
21
-1.59626
0
LINE
8
BLACK
6
CONTINUOUS
10
-3.34921
20
-1.59626
11
-3.4752
21
-1.59626
0
LINE
8
BLACK
6
CONTINUOUS
10
-3.4752
20
-1.59626
11
-3.47534
21
-1.5962
0
LINE
8
BLACK
6
CONTINUOUS
10
-3.47534
20
-1.5962
11
-3.47539
21
-1.59606
0
LINE
8
BLACK
6
CONTINUOUS
10
-3.47539
20
-1.59606
11
-3.47539
21
-1.53898
0
LINE
8
BLACK
6
CONTINUOUS
10
-3.47539
20
-1.53898
11
-3.47534
21
-1.53884
0
LINE
8
BLACK
6
CONTINUOUS
10
-3.47534
20
-1.53884
11
-3.4752
21
-1.53878
0
LINE
8
BLACK
6
CONTINUOUS
10
-3.4752
20
-1.53878
11
-3.34921
21
-1.53878
0
LINE
8
BLACK
6
CONTINUOUS
10
-3.475
20
-1.53917
11
-3.475
21
-1.59587
0
LINE
8
BLACK
6
CONTINUOUS
10
-3.475
20
-1.59587
11
-3.34941
21
-1.59587
0
LINE
8
BLACK
6
CONTINUOUS
10
-3.34941
20
-1.59587
11
-3.34941
21
-1.53917
0
LINE
8
BLACK
6
CONTINUOUS
10
-3.34941
20
-1.53917
11
-3.475
21
-1.53917
0
LINE
8
BLACK
6
CONTINUOUS
10
-3.48701
20
-1.10374
11
-3.48687
21
-1.1038
0
LINE
8
BLACK
6
CONTINUOUS
10
-3.48687
20
-1.1038
11
-3.48681
21
-1.10394
0
LINE
8
BLACK
6
CONTINUOUS
10
-3.48681
20
-1.10394
11
-3.48681
21
-1.16102
0
LINE
8
BLACK
6
CONTINUOUS
10
-3.48681
20
-1.16102
11
-3.48687
21
-1.16116
0
LINE
8
BLACK
6
CONTINUOUS
10
-3.48687
20
-1.16116
11
-3.48701
21
-1.16122
0
LINE
8
BLACK
6
CONTINUOUS
10
-3.48701
20
-1.16122
11
-3.61299
21
-1.16122
0
LINE
8
BLACK
6
CONTINUOUS
10
-3.61299
20
-1.16122
11
-3.61313
21
-1.16116
0
LINE
8
BLACK
6
CONTINUOUS
10
-3.61313
20
-1.16116
11
-3.61319
21
-1.16102
0
LINE
8
BLACK
6
CONTINUOUS
10
-3.61319
20
-1.16102
11
-3.61319
21
-1.10394
0
LINE
8
BLACK
6
CONTINUOUS
10
-3.61319
20
-1.10394
11
-3.61313
21
-1.1038
0
LINE
8
BLACK
6
CONTINUOUS
10
-3.61313
20
-1.1038
11
-3.61299
21
-1.10374
0
LINE
8
BLACK
6
CONTINUOUS
10
-3.61299
20
-1.10374
11
-3.48701
21
-1.10374
0
LINE
8
BLACK
6
CONTINUOUS
10
-3.6128
20
-1.10413
11
-3.6128
21
-1.16083
0
LINE
8
BLACK
6
CONTINUOUS
10
-3.6128
20
-1.16083
11
-3.4872
21
-1.16083
0
LINE
8
BLACK
6
CONTINUOUS
10
-3.4872
20
-1.16083
11
-3.4872
21
-1.10413
0
LINE
8
BLACK
6
CONTINUOUS
10
-3.4872
20
-1.10413
11
-3.6128
21
-1.10413
0
LINE
8
BLACK
6
CONTINUOUS
10
-2.48167
20
1.03307
11
-2.48159
21
1.0331
0
LINE
8
BLACK
6
CONTINUOUS
10
-2.48159
20
1.0331
11
-2.44149
21
1.03154
0
LINE
8
BLACK
6
CONTINUOUS
10
-2.44149
20
1.03154
11
-2.44141
21
1.03151
0
LINE
8
BLACK
6
CONTINUOUS
10
-2.44141
20
1.03151
11
-2.44134
21
1.03153
0
LINE
8
BLACK
6
CONTINUOUS
10
-2.44134
20
1.03153
11
-2.40133
21
1.02842
0
LINE
8
BLACK
6
CONTINUOUS
10
-2.40133
20
1.02842
11
-2.40125
21
1.02839
0
LINE
8
BLACK
6
CONTINUOUS
10
-2.40125
20
1.02839
11
-2.40118
21
1.0284
0
LINE
8
BLACK
6
CONTINUOUS
10
-2.40118
20
1.0284
11
-2.36132
21
1.02374
0
LINE
8
BLACK
6
CONTINUOUS
10
-2.36132
20
1.02374
11
-2.36124
21
1.02371
0
LINE
8
BLACK
6
CONTINUOUS
10
-2.36124
20
1.02371
11
-2.36116
21
1.02372
0
LINE
8
BLACK
6
CONTINUOUS
10
-2.36116
20
1.02372
11
-2.32151
21
1.01752
0
LINE
8
BLACK
6
CONTINUOUS
10
-2.32151
20
1.01752
11
-2.32144
21
1.01749
0
LINE
8
BLACK
6
CONTINUOUS
10
-2.32144
20
1.01749
11
-2.32136
21
1.0175
0
LINE
8
BLACK
6
CONTINUOUS
10
-2.32136
20
1.0175
11
-2.28199
21
1.00977
0
LINE
8
BLACK
6
CONTINUOUS
10
-2.28199
20
1.00977
11
-2.28192
21
1.00973
0
LINE
8
BLACK
6
CONTINUOUS
10
-2.28192
20
1.00973
11
-2.28184
21
1.00973
0
LINE
8
BLACK
6
CONTINUOUS
10
-2.28184
20
1.00973
11
-2.24279
21
1.00048
0
LINE
8
BLACK
6
CONTINUOUS
10
-2.24279
20
1.00048
11
-2.24273
21
1.00044
0
LINE
8
BLACK
6
CONTINUOUS
10
-2.24273
20
1.00044
11
-2.24265
21
1.00045
0
LINE
8
BLACK
6
CONTINUOUS
10
-2.24265
20
1.00045
11
-2.20399
21
0.98968
0
LINE
8
BLACK
6
CONTINUOUS
10
-2.20399
20
0.98968
11
-2.20392
21
0.989636
0
LINE
8
BLACK
6
CONTINUOUS
10
-2.20392
20
0.989636
11
-2.20384
21
0.989636
0
LINE
8
BLACK
6
CONTINUOUS
10
-2.20384
20
0.989636
11
-2.16563
21
0.977383
0
LINE
8
BLACK
6
CONTINUOUS
10
-2.16563
20
0.977383
11
-2.16557
21
0.977337
0
LINE
8
BLACK
6
CONTINUOUS
10
-2.16557
20
0.977337
11
-2.16549
21
0.977334
0
LINE
8
BLACK
6
CONTINUOUS
10
-2.16549
20
0.977334
11
-2.12778
21
0.963609
0
LINE
8
BLACK
6
CONTINUOUS
10
-2.12778
20
0.963609
11
-2.12771
21
0.96356
0
LINE
8
BLACK
6
CONTINUOUS
10
-2.12771
20
0.96356
11
-2.12763
21
0.963554
0
LINE
8
BLACK
6
CONTINUOUS
10
-2.12763
20
0.963554
11
-2.09048
21
0.948378
0
LINE
8
BLACK
6
CONTINUOUS
10
-2.09048
20
0.948378
11
-2.09042
21
0.948326
0
LINE
8
BLACK
6
CONTINUOUS
10
-2.09042
20
0.948326
11
-2.09034
21
0.948317
0
LINE
8
BLACK
6
CONTINUOUS
10
-2.09034
20
0.948317
11
-2.05381
21
0.931711
0
LINE
8
BLACK
6
CONTINUOUS
10
-2.05381
20
0.931711
11
-2.05375
21
0.931658
0
LINE
8
BLACK
6
CONTINUOUS
10
-2.05375
20
0.931658
11
-2.05368
21
0.931646
0
LINE
8
BLACK
6
CONTINUOUS
10
-2.05368
20
0.931646
11
-2.01782
21
0.913636
0
LINE
8
BLACK
6
CONTINUOUS
10
-2.01782
20
0.913636
11
-2.01776
21
0.913579
0
LINE
8
BLACK
6
CONTINUOUS
10
-2.01776
20
0.913579
11
-2.01768
21
0.913564
0
LINE
8
BLACK
6
CONTINUOUS
10
-2.01768
20
0.913564
11
-1.98254
21
0.894177
0
LINE
8
BLACK
6
CONTINUOUS
10
-1.98254
20
0.894177
11
-1.98249
21
0.894119
0
LINE
8
BLACK
6
CONTINUOUS
10
-1.98249
20
0.894119
11
-1.98241
21
0.894101
0
LINE
8
BLACK
6
CONTINUOUS
10
-1.98241
20
0.894101
11
-1.94806
21
0.873367
0
LINE
8
BLACK
6
CONTINUOUS
10
-1.94806
20
0.873367
11
-1.94801
21
0.873307
0
LINE
8
BLACK
6
CONTINUOUS
10
-1.94801
20
0.873307
11
-1.94793
21
0.873286
0
LINE
8
BLACK
6
CONTINUOUS
10
-1.94793
20
0.873286
11
-1.9144
21
0.851234
0
LINE
8
BLACK
6
CONTINUOUS
10
-1.9144
20
0.851234
11
-1.91435
21
0.851171
0
LINE
8
BLACK
6
CONTINUOUS
10
-1.91435
20
0.851171
11
-1.91427
21
0.851147
0
LINE
8
BLACK
6
CONTINUOUS
10
-1.91427
20
0.851147
11
-1.88162
21
0.827813
0
LINE
8
BLACK
6
CONTINUOUS
10
-1.88162
20
0.827813
11
-1.88158
21
0.827749
0
LINE
8
BLACK
6
CONTINUOUS
10
-1.88158
20
0.827749
11
-1.8815
21
0.827722
0
LINE
8
BLACK
6
CONTINUOUS
10
-1.8815
20
0.827722
11
-1.84978
21
0.803139
0
LINE
8
BLACK
6
CONTINUOUS
10
-1.84978
20
0.803139
11
-1.84974
21
0.803073
0
LINE
8
BLACK
6
CONTINUOUS
10
-1.84974
20
0.803073
11
-1.84966
21
0.803043
0
LINE
8
BLACK
6
CONTINUOUS
10
-1.84966
20
0.803043
11
-1.81892
21
0.777248
0
LINE
8
BLACK
6
CONTINUOUS
10
-1.81892
20
0.777248
11
-1.81888
21
0.77718
0
LINE
8
BLACK
6
CONTINUOUS
10
-1.81888
20
0.77718
11
-1.81881
21
0.777147
0
LINE
8
BLACK
6
CONTINUOUS
10
-1.81881
20
0.777147
11
-1.7891
21
0.75018
0
LINE
8
BLACK
6
CONTINUOUS
10
-1.7891
20
0.75018
11
-1.78906
21
0.750111
0
LINE
8
BLACK
6
CONTINUOUS
10
-1.78906
20
0.750111
11
-1.78899
21
0.750076
0
LINE
8
BLACK
6
CONTINUOUS
10
-1.78899
20
0.750076
11
-1.76034
21
0.721977
0
LINE
8
BLACK
6
CONTINUOUS
10
-1.76034
20
0.721977
11
-1.7603
21
0.721906
0
LINE
8
BLACK
6
CONTINUOUS
10
-1.7603
20
0.721906
11
-1.76023
21
0.721868
0
LINE
8
BLACK
6
CONTINUOUS
10
-1.76023
20
0.721868
11
-1.73269
21
0.69268
0
LINE
8
BLACK
6
CONTINUOUS
10
-1.73269
20
0.69268
11
-1.73265
21
0.692608
0
LINE
8
BLACK
6
CONTINUOUS
10
-1.73265
20
0.692608
11
-1.73259
21
0.692567
0
LINE
8
BLACK
6
CONTINUOUS
10
-1.73259
20
0.692567
11
-1.7062
21
0.662332
0
LINE
8
BLACK
6
CONTINUOUS
10
-1.7062
20
0.662332
11
-1.70616
21
0.662259
0
LINE
8
BLACK
6
CONTINUOUS
10
-1.70616
20
0.662259
11
-1.7061
21
0.662215
0
LINE
8
BLACK
6
CONTINUOUS
10
-1.7061
20
0.662215
11
-1.68091
21
0.63098
0
LINE
8
BLACK
6
CONTINUOUS
10
-1.68091
20
0.63098
11
-1.68088
21
0.630905
0
LINE
8
BLACK
6
CONTINUOUS
10
-1.68088
20
0.630905
11
-1.68081
21
0.630859
0
LINE
8
BLACK
6
CONTINUOUS
10
-1.68081
20
0.630859
11
-1.65685
21
0.598671
0
LINE
8
BLACK
6
CONTINUOUS
10
-1.65685
20
0.598671
11
-1.65683
21
0.598596
0
LINE
8
BLACK
6
CONTINUOUS
10
-1.65683
20
0.598596
11
-1.65677
21
0.598547
0
LINE
8
BLACK
6
CONTINUOUS
10
-1.65677
20
0.598547
11
-1.63407
21
0.565453
0
LINE
8
BLACK
6
CONTINUOUS
10
-1.63407
20
0.565453
11
-1.63404
21
0.565377
0
LINE
8
BLACK
6
CONTINUOUS
10
-1.63404
20
0.565377
11
-1.63398
21
0.565326
0
LINE
8
BLACK
6
CONTINUOUS
10
-1.63398
20
0.565326
11
-1.61258
21
0.531378
0
LINE
8
BLACK
6
CONTINUOUS
10
-1.61258
20
0.531378
11
-1.61256
21
0.5313
0
LINE
8
BLACK
6
CONTINUOUS
10
-1.61256
20
0.5313
11
-1.6125
21
0.531246
0
LINE
8
BLACK
6
CONTINUOUS
10
-1.6125
20
0.531246
11
-1.59244
21
0.496493
0
LINE
8
BLACK
6
CONTINUOUS
10
-1.59244
20
0.496493
11
-1.59243
21
0.496416
0
LINE
8
BLACK
6
CONTINUOUS
10
-1.59243
20
0.496416
11
-1.59237
21
0.49636
0
LINE
8
BLACK
6
CONTINUOUS
10
-1.59237
20
0.49636
11
-1.57367
21
0.460856
0
LINE
8
BLACK
6
CONTINUOUS
10
-1.57367
20
0.460856
11
-1.57366
21
0.460777
0
LINE
8
BLACK
6
CONTINUOUS
10
-1.57366
20
0.460777
11
-1.5736
21
0.46072
0
LINE
8
BLACK
6
CONTINUOUS
10
-1.5736
20
0.46072
11
-1.55629
21
0.424517
0
LINE
8
BLACK
6
CONTINUOUS
10
-1.55629
20
0.424517
11
-1.55628
21
0.424438
0
LINE
8
BLACK
6
CONTINUOUS
10
-1.55628
20
0.424438
11
-1.55623
21
0.424378
0
LINE
8
BLACK
6
CONTINUOUS
10
-1.55623
20
0.424378
11
-1.54033
21
0.38753
0
LINE
8
BLACK
6
CONTINUOUS
10
-1.54033
20
0.38753
11
-1.54032
21
0.38745
0
LINE
8
BLACK
6
CONTINUOUS
10
-1.54032
20
0.38745
11
-1.54027
21
0.387388
0
LINE
8
BLACK
6
CONTINUOUS
10
-1.54027
20
0.387388
11
-1.52582
21
0.349953
0
LINE
8
BLACK
6
CONTINUOUS
10
-1.52582
20
0.349953
11
-1.52582
21
0.349873
0
LINE
8
BLACK
6
CONTINUOUS
10
-1.52582
20
0.349873
11
-1.52577
21
0.34981
0
LINE
8
BLACK
6
CONTINUOUS
10
-1.52577
20
0.34981
11
-1.51278
21
0.311842
0
LINE
8
BLACK
6
CONTINUOUS
10
-1.51278
20
0.311842
11
-1.51278
21
0.311762
0
LINE
8
BLACK
6
CONTINUOUS
10
-1.51278
20
0.311762
11
-1.51273
21
0.311696
0
LINE
8
BLACK
6
CONTINUOUS
10
-1.51273
20
0.311696
11
-1.50122
21
0.273254
0
LINE
8
BLACK
6
CONTINUOUS
10
-1.50122
20
0.273254
11
-1.50122
21
0.273174
0
LINE
8
BLACK
6
CONTINUOUS
10
-1.50122
20
0.273174
11
-1.50118
21
0.273106
0
LINE
8
BLACK
6
CONTINUOUS
10
-1.50118
20
0.273106
11
-1.49117
21
0.234245
0
LINE
8
BLACK
6
CONTINUOUS
10
-1.49117
20
0.234245
11
-1.49117
21
0.234166
0
LINE
8
BLACK
6
CONTINUOUS
10
-1.49117
20
0.234166
11
-1.49113
21
0.234097
0
LINE
8
BLACK
6
CONTINUOUS
10
-1.49113
20
0.234097
11
-1.48263
21
0.194878
0
LINE
8
BLACK
6
CONTINUOUS
10
-1.48263
20
0.194878
11
-1.48264
21
0.194799
0
LINE
8
BLACK
6
CONTINUOUS
10
-1.48264
20
0.194799
11
-1.48261
21
0.194728
0
LINE
8
BLACK
6
CONTINUOUS
10
-1.48261
20
0.194728
11
-1.47564
21
0.155209
0
LINE
8
BLACK
6
CONTINUOUS
10
-1.47564
20
0.155209
11
-1.47565
21
0.15513
0
LINE
8
BLACK
6
CONTINUOUS
10
-1.47565
20
0.15513
11
-1.47561
21
0.155058
0
LINE
8
BLACK
6
CONTINUOUS
10
-1.47561
20
0.155058
11
-1.47018
21
0.115298
0
LINE
8
BLACK
6
CONTINUOUS
10
-1.47018
20
0.115298
11
-1.4702
21
0.115219
0
LINE
8
BLACK
6
CONTINUOUS
10
-1.4702
20
0.115219
11
-1.47016
21
0.115146
0
LINE
8
BLACK
6
CONTINUOUS
10
-1.47016
20
0.115146
11
-1.46628
21
0.0752054
0
LINE
8
BLACK
6
CONTINUOUS
10
-1.46628
20
0.0752054
11
-1.4663
21
0.075128
0
LINE
8
BLACK
6
CONTINUOUS
10
-1.4663
20
0.075128
11
-1.46627
21
0.0750543
0
LINE
8
BLACK
6
CONTINUOUS
10
-1.46627
20
0.0750543
11
-1.46393
21
0.0349933
0
LINE
8
BLACK
6
CONTINUOUS
10
-1.46393
20
0.0349933
11
-1.46395
21
0.0349154
0
LINE
8
BLACK
6
CONTINUOUS
10
-1.46395
20
0.0349154
11
-1.46393
21
0.0348393
0
LINE
8
BLACK
6
CONTINUOUS
10
-1.46393
20
0.0348393
11
-1.46316
21
-0.0052822
0
LINE
8
BLACK
6
CONTINUOUS
10
-1.46316
20
-0.0052822
11
-1.46318
21
-0.00535772
0
LINE
8
BLACK
6
CONTINUOUS
10
-1.46318
20
-0.00535772
11
-1.46316
21
-0.00543323
0
LINE
8
BLACK
6
CONTINUOUS
10
-1.46316
20
-0.00543323
11
-1.46393
21
-0.0455547
0
LINE
8
BLACK
6
CONTINUOUS
10
-1.46393
20
-0.0455547
11
-1.46395
21
-0.0456308
0
LINE
8
BLACK
6
CONTINUOUS
10
-1.46395
20
-0.0456308
11
-1.46393
21
-0.0457087
0
LINE
8
BLACK
6
CONTINUOUS
10
-1.46393
20
-0.0457087
11
-1.46627
21
-0.0857697
0
LINE
8
BLACK
6
CONTINUOUS
10
-1.46627
20
-0.0857697
11
-1.4663
21
-0.0858435
0
LINE
8
BLACK
6
CONTINUOUS
10
-1.4663
20
-0.0858435
11
-1.46628
21
-0.0859208
0
LINE
8
BLACK
6
CONTINUOUS
10
-1.46628
20
-0.0859208
11
-1.47016
21
-0.125861
0
LINE
8
BLACK
6
CONTINUOUS
10
-1.47016
20
-0.125861
11
-1.4702
21
-0.125935
0
LINE
8
BLACK
6
CONTINUOUS
10
-1.4702
20
-0.125935
11
-1.47018
21
-0.126013
0
LINE
8
BLACK
6
CONTINUOUS
10
-1.47018
20
-0.126013
11
-1.47561
21
-0.165773
0
LINE
8
BLACK
6
CONTINUOUS
10
-1.47561
20
-0.165773
11
-1.47565
21
-0.165845
0
LINE
8
BLACK
6
CONTINUOUS
10
-1.47565
20
-0.165845
11
-1.47564
21
-0.165925
0
LINE
8
BLACK
6
CONTINUOUS
10
-1.47564
20
-0.165925
11
-1.48261
21
-0.205444
0
LINE
8
BLACK
6
CONTINUOUS
10
-1.48261
20
-0.205444
11
-1.48264
21
-0.205514
0
LINE
8
BLACK
6
CONTINUOUS
10
-1.48264
20
-0.205514
11
-1.48263
21
-0.205594
0
LINE
8
BLACK
6
CONTINUOUS
10
-1.48263
20
-0.205594
11
-1.49113
21
-0.244813
0
LINE
8
BLACK
6
CONTINUOUS
10
-1.49113
20
-0.244813
11
-1.49117
21
-0.244881
0
LINE
8
BLACK
6
CONTINUOUS
10
-1.49117
20
-0.244881
11
-1.49117
21
-0.244961
0
LINE
8
BLACK
6
CONTINUOUS
10
-1.49117
20
-0.244961
11
-1.50118
21
-0.283822
0
LINE
8
BLACK
6
CONTINUOUS
10
-1.50118
20
-0.283822
11
-1.50122
21
-0.283889
0
LINE
8
BLACK
6
CONTINUOUS
10
-1.50122
20
-0.283889
11
-1.50122
21
-0.283969
0
LINE
8
BLACK
6
CONTINUOUS
10
-1.50122
20
-0.283969
11
-1.51273
21
-0.322412
0
LINE
8
BLACK
6
CONTINUOUS
10
-1.51273
20
-0.322412
11
-1.51278
21
-0.322477
0
LINE
8
BLACK
6
CONTINUOUS
10
-1.51278
20
-0.322477
11
-1.51278
21
-0.322557
0
LINE
8
BLACK
6
CONTINUOUS
10
-1.51278
20
-0.322557
11
-1.52577
21
-0.360525
0
LINE
8
BLACK
6
CONTINUOUS
10
-1.52577
20
-0.360525
11
-1.52582
21
-0.360589
0
LINE
8
BLACK
6
CONTINUOUS
10
-1.52582
20
-0.360589
11
-1.52582
21
-0.360668
0
LINE
8
BLACK
6
CONTINUOUS
10
-1.52582
20
-0.360668
11
-1.53782
21
-0.391761
0
LINE
8
BLACK
6
CONTINUOUS
10
-1.53782
20
-0.391761
11
-1.53782
21
-1.83639
0
LINE
8
BLACK
6
CONTINUOUS
10
-1.53782
20
-1.83639
11
-1.53801
21
-1.83699
0
LINE
8
BLACK
6
CONTINUOUS
10
-1.53801
20
-1.83699
11
-1.53801
21
-1.83761
0
LINE
8
BLACK
6
CONTINUOUS
10
-1.53801
20
-1.83761
11
-1.53838
21
-1.83811
0
LINE
8
BLACK
6
CONTINUOUS
10
-1.53838
20
-1.83811
11
-1.53857
21
-1.83871
0
LINE
8
BLACK
6
CONTINUOUS
10
-1.53857
20
-1.83871
11
-1.53908
21
-1.83907
0
LINE
8
BLACK
6
CONTINUOUS
10
-1.53908
20
-1.83907
11
-1.53944
21
-1.83958
0
LINE
8
BLACK
6
CONTINUOUS
10
-1.53944
20
-1.83958
11
-1.54004
21
-1.83977
0
LINE
8
BLACK
6
CONTINUOUS
10
-1.54004
20
-1.83977
11
-1.54054
21
-1.84014
0
LINE
8
BLACK
6
CONTINUOUS
10
-1.54054
20
-1.84014
11
-1.54117
21
-1.84014
0
LINE
8
BLACK
6
CONTINUOUS
10
-1.54117
20
-1.84014
11
-1.54176
21
-1.84033
0
LINE
8
BLACK
6
CONTINUOUS
10
-1.54176
20
-1.84033
11
-1.96185
21
-1.84033
0
LINE
8
BLACK
6
CONTINUOUS
10
-1.96185
20
-1.84033
11
-1.96244
21
-1.84014
0
LINE
8
BLACK
6
CONTINUOUS
10
-1.96244
20
-1.84014
11
-1.96306
21
-1.84014
0
LINE
8
BLACK
6
CONTINUOUS
10
-1.96306
20
-1.84014
11
-1.96357
21
-1.83977
0
LINE
8
BLACK
6
CONTINUOUS
10
-1.96357
20
-1.83977
11
-1.96416
21
-1.83958
0
LINE
8
BLACK
6
CONTINUOUS
10
-1.96416
20
-1.83958
11
-1.96453
21
-1.83907
0
LINE
8
BLACK
6
CONTINUOUS
10
-1.96453
20
-1.83907
11
-1.96503
21
-1.83871
0
LINE
8
BLACK
6
CONTINUOUS
10
-1.96503
20
-1.83871
11
-1.96522
21
-1.83811
0
LINE
8
BLACK
6
CONTINUOUS
10
-1.96522
20
-1.83811
11
-1.96559
21
-1.83761
0
LINE
8
BLACK
6
CONTINUOUS
10
-1.96559
20
-1.83761
11
-1.96559
21
-1.83699
0
LINE
8
BLACK
6
CONTINUOUS
10
-1.96559
20
-1.83699
11
-1.96578
21
-1.83639
0
LINE
8
BLACK
6
CONTINUOUS
10
-1.96578
20
-1.83639
11
-1.96578
21
-1.2058
0
LINE
8
BLACK
6
CONTINUOUS
10
-1.96578
20
-1.2058
11
-3.14494
21
-1.2058
0
LINE
8
BLACK
6
CONTINUOUS
10
-3.14494
20
-1.2058
11
-3.14494
21
-1.63136
0
LINE
8
BLACK
6
CONTINUOUS
10
-3.14494
20
-1.63136
11
-3.14514
21
-1.63196
0
LINE
8
BLACK
6
CONTINUOUS
10
-3.14514
20
-1.63196
11
-3.14514
21
-1.63258
0
LINE
8
BLACK
6
CONTINUOUS
10
-3.14514
20
-1.63258
11
-3.1455
21
-1.63309
0
LINE
8
BLACK
6
CONTINUOUS
10
-3.1455
20
-1.63309
11
-3.1457
21
-1.63368
0
LINE
8
BLACK
6
CONTINUOUS
10
-3.1457
20
-1.63368
11
-3.1462
21
-1.63404
0
LINE
8
BLACK
6
CONTINUOUS
10
-3.1462
20
-1.63404
11
-3.14657
21
-1.63455
0
LINE
8
BLACK
6
CONTINUOUS
10
-3.14657
20
-1.63455
11
-3.14716
21
-1.63474
0
LINE
8
BLACK
6
CONTINUOUS
10
-3.14716
20
-1.63474
11
-3.14766
21
-1.63511
0
LINE
8
BLACK
6
CONTINUOUS
10
-3.14766
20
-1.63511
11
-3.14829
21
-1.63511
0
LINE
8
BLACK
6
CONTINUOUS
10
-3.14829
20
-1.63511
11
-3.14888
21
-1.6353
0
LINE
8
BLACK
6
CONTINUOUS
10
-3.14888
20
-1.6353
11
-3.95472
21
-1.6353
0
LINE
8
BLACK
6
CONTINUOUS
10
-3.95472
20
-1.6353
11
-3.95532
21
-1.63511
0
LINE
8
BLACK
6
CONTINUOUS
10
-3.95532
20
-1.63511
11
-3.95594
21
-1.63511
0
LINE
8
BLACK
6
CONTINUOUS
10
-3.95594
20
-1.63511
11
-3.95645
21
-1.63474
0
LINE
8
BLACK
6
CONTINUOUS
10
-3.95645
20
-1.63474
11
-3.95704
21
-1.63455
0
LINE
8
BLACK
6
CONTINUOUS
10
-3.95704
20
-1.63455
11
-3.95741
21
-1.63404
0
LINE
8
BLACK
6
CONTINUOUS
10
-3.95741
20
-1.63404
11
-3.95791
21
-1.63368
0
LINE
8
BLACK
6
CONTINUOUS
10
-3.95791
20
-1.63368
11
-3.9581
21
-1.63309
0
LINE
8
BLACK
6
CONTINUOUS
10
-3.9581
20
-1.63309
11
-3.95847
21
-1.63258
0
LINE
8
BLACK
6
CONTINUOUS
10
-3.95847
20
-1.63258
11
-3.95847
21
-1.63196
0
LINE
8
BLACK
6
CONTINUOUS
10
-3.95847
20
-1.63196
11
-3.95866
21
-1.63136
0
LINE
8
BLACK
6
CONTINUOUS
10
-3.95866
20
-1.63136
11
-3.95866
21
-1
0
LINE
8
BLACK
6
CONTINUOUS
10
-3.95866
20
-1
11
-3.95841
21
-0.999229
0
LINE
8
BLACK
6
CONTINUOUS
10
-3.95841
20
-0.999229
11
-3.95833
21
-0.998422
0
LINE
8
BLACK
6
CONTINUOUS
10
-3.95833
20
-0.998422
11
-3.53976
21
-0.0415188
0
LINE
8
BLACK
6
CONTINUOUS
10
-3.53976
20
-0.0415188
11
-3.54045
21
-0.00543327
0
LINE
8
BLACK
6
CONTINUOUS
10
-3.54045
20
-0.00543327
11
-3.54043
21
-0.00535772
0
LINE
8
BLACK
6
CONTINUOUS
10
-3.54043
20
-0.00535772
11
-3.54045
21
-0.00528217
0
LINE
8
BLACK
6
CONTINUOUS
10
-3.54045
20
-0.00528217
11
-3.53968
21
0.0348393
0
LINE
8
BLACK
6
CONTINUOUS
10
-3.53968
20
0.0348393
11
-3.53965
21
0.0349154
0
LINE
8
BLACK
6
CONTINUOUS
10
-3.53965
20
0.0349154
11
-3.53967
21
0.0349933
0
LINE
8
BLACK
6
CONTINUOUS
10
-3.53967
20
0.0349933
11
-3.53733
21
0.0750543
0
LINE
8
BLACK
6
CONTINUOUS
10
-3.53733
20
0.0750543
11
-3.5373
21
0.075128
0
LINE
8
BLACK
6
CONTINUOUS
10
-3.5373
20
0.075128
11
-3.53732
21
0.0752054
0
LINE
8
BLACK
6
CONTINUOUS
10
-3.53732
20
0.0752054
11
-3.53344
21
0.115146
0
LINE
8
BLACK
6
CONTINUOUS
10
-3.53344
20
0.115146
11
-3.53341
21
0.115219
0
LINE
8
BLACK
6
CONTINUOUS
10
-3.53341
20
0.115219
11
-3.53342
21
0.115298
0
LINE
8
BLACK
6
CONTINUOUS
10
-3.53342
20
0.115298
11
-3.52799
21
0.155058
0
LINE
8
BLACK
6
CONTINUOUS
10
-3.52799
20
0.155058
11
-3.52796
21
0.15513
0
LINE
8
BLACK
6
CONTINUOUS
10
-3.52796
20
0.15513
11
-3.52797
21
0.155209
0
LINE
8
BLACK
6
CONTINUOUS
10
-3.52797
20
0.155209
11
-3.521
21
0.194728
0
LINE
8
BLACK
6
CONTINUOUS
10
-3.521
20
0.194728
11
-3.52096
21
0.194799
0
LINE
8
BLACK
6
CONTINUOUS
10
-3.52096
20
0.194799
11
-3.52097
21
0.194878
0
LINE
8
BLACK
6
CONTINUOUS
10
-3.52097
20
0.194878
11
-3.51247
21
0.234097
0
LINE
8
BLACK
6
CONTINUOUS
10
-3.51247
20
0.234097
11
-3.51243
21
0.234166
0
LINE
8
BLACK
6
CONTINUOUS
10
-3.51243
20
0.234166
11
-3.51243
21
0.234245
0
LINE
8
BLACK
6
CONTINUOUS
10
-3.51243
20
0.234245
11
-3.50242
21
0.273106
0
LINE
8
BLACK
6
CONTINUOUS
10
-3.50242
20
0.273106
11
-3.50238
21
0.273174
0
LINE
8
BLACK
6
CONTINUOUS
10
-3.50238
20
0.273174
11
-3.50238
21
0.273254
0
LINE
8
BLACK
6
CONTINUOUS
10
-3.50238
20
0.273254
11
-3.49087
21
0.311697
0
LINE
8
BLACK
6
CONTINUOUS
10
-3.49087
20
0.311697
11
-3.49083
21
0.311762
0
LINE
8
BLACK
6
CONTINUOUS
10
-3.49083
20
0.311762
11
-3.49083
21
0.311842
0
LINE
8
BLACK
6
CONTINUOUS
10
-3.49083
20
0.311842
11
-3.47784
21
0.34981
0
LINE
8
BLACK
6
CONTINUOUS
10
-3.47784
20
0.34981
11
-3.47779
21
0.349873
0
LINE
8
BLACK
6
CONTINUOUS
10
-3.47779
20
0.349873
11
-3.47779
21
0.349953
0
LINE
8
BLACK
6
CONTINUOUS
10
-3.47779
20
0.349953
11
-3.46334
21
0.387388
0
LINE
8
BLACK
6
CONTINUOUS
10
-3.46334
20
0.387388
11
-3.46328
21
0.38745
0
LINE
8
BLACK
6
CONTINUOUS
10
-3.46328
20
0.38745
11
-3.46328
21
0.38753
0
LINE
8
BLACK
6
CONTINUOUS
10
-3.46328
20
0.38753
11
-3.44738
21
0.424378
0
LINE
8
BLACK
6
CONTINUOUS
10
-3.44738
20
0.424378
11
-3.44732
21
0.424438
0
LINE
8
BLACK
6
CONTINUOUS
10
-3.44732
20
0.424438
11
-3.44731
21
0.424517
0
LINE
8
BLACK
6
CONTINUOUS
10
-3.44731
20
0.424517
11
-3.43
21
0.46072
0
LINE
8
BLACK
6
CONTINUOUS
10
-3.43
20
0.46072
11
-3.42995
21
0.460777
0
LINE
8
BLACK
6
CONTINUOUS
10
-3.42995
20
0.460777
11
-3.42994
21
0.460856
0
LINE
8
BLACK
6
CONTINUOUS
10
-3.42994
20
0.460856
11
-3.41124
21
0.49636
0
LINE
8
BLACK
6
CONTINUOUS
10
-3.41124
20
0.49636
11
-3.41118
21
0.496415
0
LINE
8
BLACK
6
CONTINUOUS
10
-3.41118
20
0.496415
11
-3.41116
21
0.496493
0
LINE
8
BLACK
6
CONTINUOUS
10
-3.41116
20
0.496493
11
-3.3911
21
0.531246
0
LINE
8
BLACK
6
CONTINUOUS
10
-3.3911
20
0.531246
11
-3.39104
21
0.5313
0
LINE
8
BLACK
6
CONTINUOUS
10
-3.39104
20
0.5313
11
-3.39102
21
0.531378
0
LINE
8
BLACK
6
CONTINUOUS
10
-3.39102
20
0.531378
11
-3.36962
21
0.565326
0
LINE
8
BLACK
6
CONTINUOUS
10
-3.36962
20
0.565326
11
-3.36956
21
0.565377
0
LINE
8
BLACK
6
CONTINUOUS
10
-3.36956
20
0.565377
11
-3.36954
21
0.565453
0
LINE
8
BLACK
6
CONTINUOUS
10
-3.36954
20
0.565453
11
-3.34684
21
0.598547
0
LINE
8
BLACK
6
CONTINUOUS
10
-3.34684
20
0.598547
11
-3.34678
21
0.598596
0
LINE
8
BLACK
6
CONTINUOUS
10
-3.34678
20
0.598596
11
-3.34675
21
0.598671
0
LINE
8
BLACK
6
CONTINUOUS
10
-3.34675
20
0.598671
11
-3.32279
21
0.630859
0
LINE
8
BLACK
6
CONTINUOUS
10
-3.32279
20
0.630859
11
-3.32273
21
0.630905
0
LINE
8
BLACK
6
CONTINUOUS
10
-3.32273
20
0.630905
11
-3.3227
21
0.63098
0
LINE
8
BLACK
6
CONTINUOUS
10
-3.3227
20
0.63098
11
-3.29751
21
0.662215
0
LINE
8
BLACK
6
CONTINUOUS
10
-3.29751
20
0.662215
11
-3.29744
21
0.662259
0
LINE
8
BLACK
6
CONTINUOUS
10
-3.29744
20
0.662259
11
-3.29741
21
0.662332
0
LINE
8
BLACK
6
CONTINUOUS
10
-3.29741
20
0.662332
11
-3.27102
21
0.692567
0
LINE
8
BLACK
6
CONTINUOUS
10
-3.27102
20
0.692567
11
-3.27095
21
0.692608
0
LINE
8
BLACK
6
CONTINUOUS
10
-3.27095
20
0.692608
11
-3.27092
21
0.69268
0
LINE
8
BLACK
6
CONTINUOUS
10
-3.27092
20
0.69268
11
-3.24338
21
0.721868
0
LINE
8
BLACK
6
CONTINUOUS
10
-3.24338
20
0.721868
11
-3.24331
21
0.721906
0
LINE
8
BLACK
6
CONTINUOUS
10
-3.24331
20
0.721906
11
-3.24327
21
0.721977
0
LINE
8
BLACK
6
CONTINUOUS
10
-3.24327
20
0.721977
11
-3.21462
21
0.750076
0
LINE
8
BLACK
6
CONTINUOUS
10
-3.21462
20
0.750076
11
-3.21455
21
0.750111
0
LINE
8
BLACK
6
CONTINUOUS
10
-3.21455
20
0.750111
11
-3.21451
21
0.75018
0
LINE
8
BLACK
6
CONTINUOUS
10
-3.21451
20
0.75018
11
-3.1848
21
0.777147
0
LINE
8
BLACK
6
CONTINUOUS
10
-3.1848
20
0.777147
11
-3.18473
21
0.77718
0
LINE
8
BLACK
6
CONTINUOUS
10
-3.18473
20
0.77718
11
-3.18468
21
0.777248
0
LINE
8
BLACK
6
CONTINUOUS
10
-3.18468
20
0.777248
11
-3.15394
21
0.803043
0
LINE
8
BLACK
6
CONTINUOUS
10
-3.15394
20
0.803043
11
-3.15387
21
0.803073
0
LINE
8
BLACK
6
CONTINUOUS
10
-3.15387
20
0.803073
11
-3.15382
21
0.803139
0
LINE
8
BLACK
6
CONTINUOUS
10
-3.15382
20
0.803139
11
-3.1221
21
0.827722
0
LINE
8
BLACK
6
CONTINUOUS
10
-3.1221
20
0.827722
11
-3.12203
21
0.827749
0
LINE
8
BLACK
6
CONTINUOUS
10
-3.12203
20
0.827749
11
-3.12198
21
0.827813
0
LINE
8
BLACK
6
CONTINUOUS
10
-3.12198
20
0.827813
11
-3.08933
21
0.851147
0
LINE
8
BLACK
6
CONTINUOUS
10
-3.08933
20
0.851147
11
-3.08926
21
0.851171
0
LINE
8
BLACK
6
CONTINUOUS
10
-3.08926
20
0.851171
11
-3.08921
21
0.851234
0
LINE
8
BLACK
6
CONTINUOUS
10
-3.08921
20
0.851234
11
-3.05568
21
0.873286
0
LINE
8
BLACK
6
CONTINUOUS
10
-3.05568
20
0.873286
11
-3.0556
21
0.873307
0
LINE
8
BLACK
6
CONTINUOUS
10
-3.0556
20
0.873307
11
-3.05555
21
0.873367
0
LINE
8
BLACK
6
CONTINUOUS
10
-3.05555
20
0.873367
11
-3.0212
21
0.894101
0
LINE
8
BLACK
6
CONTINUOUS
10
-3.0212
20
0.894101
11
-3.02112
21
0.894119
0
LINE
8
BLACK
6
CONTINUOUS
10
-3.02112
20
0.894119
11
-3.02106
21
0.894177
0
LINE
8
BLACK
6
CONTINUOUS
10
-3.02106
20
0.894177
11
-2.98592
21
0.913564
0
LINE
8
BLACK
6
CONTINUOUS
10
-2.98592
20
0.913564
11
-2.98585
21
0.913579
0
LINE
8
BLACK
6
CONTINUOUS
10
-2.98585
20
0.913579
11
-2.98579
21
0.913636
0
LINE
8
BLACK
6
CONTINUOUS
10
-2.98579
20
0.913636
11
-2.94993
21
0.931646
0
LINE
8
BLACK
6
CONTINUOUS
10
-2.94993
20
0.931646
11
-2.94985
21
0.931658
0
LINE
8
BLACK
6
CONTINUOUS
10
-2.94985
20
0.931658
11
-2.94979
21
0.931711
0
LINE
8
BLACK
6
CONTINUOUS
10
-2.94979
20
0.931711
11
-2.91326
21
0.948317
0
LINE
8
BLACK
6
CONTINUOUS
10
-2.91326
20
0.948317
11
-2.91318
21
0.948326
0
LINE
8
BLACK
6
CONTINUOUS
10
-2.91318
20
0.948326
11
-2.91312
21
0.948378
0
LINE
8
BLACK
6
CONTINUOUS
10
-2.91312
20
0.948378
11
-2.87597
21
0.963554
0
LINE
8
BLACK
6
CONTINUOUS
10
-2.87597
20
0.963554
11
-2.87589
21
0.96356
0
LINE
8
BLACK
6
CONTINUOUS
10
-2.87589
20
0.96356
11
-2.87583
21
0.963609
0
LINE
8
BLACK
6
CONTINUOUS
10
-2.87583
20
0.963609
11
-2.83812
21
0.977334
0
LINE
8
BLACK
6
CONTINUOUS
10
-2.83812
20
0.977334
11
-2.83804
21
0.977337
0
LINE
8
BLACK
6
CONTINUOUS
10
-2.83804
20
0.977337
11
-2.83797
21
0.977383
0
LINE
8
BLACK
6
CONTINUOUS
10
-2.83797
20
0.977383
11
-2.79976
21
0.989636
0
LINE
8
BLACK
6
CONTINUOUS
10
-2.79976
20
0.989636
11
-2.79968
21
0.989636
0
LINE
8
BLACK
6
CONTINUOUS
10
-2.79968
20
0.989636
11
-2.79962
21
0.98968
0
LINE
8
BLACK
6
CONTINUOUS
10
-2.79962
20
0.98968
11
-2.76096
21
1.00045
0
LINE
8
BLACK
6
CONTINUOUS
10
-2.76096
20
1.00045
11
-2.76088
21
1.00044
0
LINE
8
BLACK
6
CONTINUOUS
10
-2.76088
20
1.00044
11
-2.76081
21
1.00048
0
LINE
8
BLACK
6
CONTINUOUS
10
-2.76081
20
1.00048
11
-2.72176
21
1.00973
0
LINE
8
BLACK
6
CONTINUOUS
10
-2.72176
20
1.00973
11
-2.72168
21
1.00973
0
LINE
8
BLACK
6
CONTINUOUS
10
-2.72168
20
1.00973
11
-2.72161
21
1.00977
0
LINE
8
BLACK
6
CONTINUOUS
10
-2.72161
20
1.00977
11
-2.68224
21
1.0175
0
LINE
8
BLACK
6
CONTINUOUS
10
-2.68224
20
1.0175
11
-2.68216
21
1.01749
0
LINE
8
BLACK
6
CONTINUOUS
10
-2.68216
20
1.01749
11
-2.68209
21
1.01752
0
LINE
8
BLACK
6
CONTINUOUS
10
-2.68209
20
1.01752
11
-2.64244
21
1.02372
0
LINE
8
BLACK
6
CONTINUOUS
10
-2.64244
20
1.02372
11
-2.64236
21
1.02371
0
LINE
8
BLACK
6
CONTINUOUS
10
-2.64236
20
1.02371
11
-2.64229
21
1.02374
0
LINE
8
BLACK
6
CONTINUOUS
10
-2.64229
20
1.02374
11
-2.60243
21
1.0284
0
LINE
8
BLACK
6
CONTINUOUS
10
-2.60243
20
1.0284
11
-2.60235
21
1.02839
0
LINE
8
BLACK
6
CONTINUOUS
10
-2.60235
20
1.02839
11
-2.60228
21
1.02842
0
LINE
8
BLACK
6
CONTINUOUS
10
-2.60228
20
1.02842
11
-2.56227
21
1.03153
0
LINE
8
BLACK
6
CONTINUOUS
10
-2.56227
20
1.03153
11
-2.56219
21
1.03151
0
LINE
8
BLACK
6
CONTINUOUS
10
-2.56219
20
1.03151
11
-2.56212
21
1.03154
0
LINE
8
BLACK
6
CONTINUOUS
10
-2.56212
20
1.03154
11
-2.52202
21
1.0331
0
LINE
8
BLACK
6
CONTINUOUS
10
-2.52202
20
1.0331
11
-2.52194
21
1.03307
0
LINE
8
BLACK
6
CONTINUOUS
10
-2.52194
20
1.03307
11
-2.52186
21
1.0331
0
LINE
8
BLACK
6
CONTINUOUS
10
-2.52186
20
1.0331
11
-2.48174
21
1.0331
0
LINE
8
BLACK
6
CONTINUOUS
10
-2.48174
20
1.0331
11
-2.48167
21
1.03307
0
LINE
8
BLACK
6
CONTINUOUS
10
-2.52179
20
1.02523
11
-2.56173
21
1.02367
0
LINE
8
BLACK
6
CONTINUOUS
10
-2.56173
20
1.02367
11
-2.60159
21
1.02057
0
LINE
8
BLACK
6
CONTINUOUS
10
-2.60159
20
1.02057
11
-2.6413
21
1.01593
0
LINE
8
BLACK
6
CONTINUOUS
10
-2.6413
20
1.01593
11
-2.6808
21
1.00975
0
LINE
8
BLACK
6
CONTINUOUS
10
-2.6808
20
1.00975
11
-2.72002
21
1.00205
0
LINE
8
BLACK
6
CONTINUOUS
10
-2.72002
20
1.00205
11
-2.75892
21
0.992839
0
LINE
8
BLACK
6
CONTINUOUS
10
-2.75892
20
0.992839
11
-2.79743
21
0.982115
0
LINE
8
BLACK
6
CONTINUOUS
10
-2.79743
20
0.982115
11
-2.8355
21
0.969908
0
LINE
8
BLACK
6
CONTINUOUS
10
-2.8355
20
0.969908
11
-2.87306
21
0.956236
0
LINE
8
BLACK
6
CONTINUOUS
10
-2.87306
20
0.956236
11
-2.91007
21
0.941117
0
LINE
8
BLACK
6
CONTINUOUS
10
-2.91007
20
0.941117
11
-2.94646
21
0.924575
0
LINE
8
BLACK
6
CONTINUOUS
10
-2.94646
20
0.924575
11
-2.98219
21
0.906633
0
LINE
8
BLACK
6
CONTINUOUS
10
-2.98219
20
0.906633
11
-3.01719
21
0.88732
0
LINE
8
BLACK
6
CONTINUOUS
10
-3.01719
20
0.88732
11
-3.05141
21
0.866665
0
LINE
8
BLACK
6
CONTINUOUS
10
-3.05141
20
0.866665
11
-3.08482
21
0.844697
0
LINE
8
BLACK
6
CONTINUOUS
10
-3.08482
20
0.844697
11
-3.11734
21
0.821451
0
LINE
8
BLACK
6
CONTINUOUS
10
-3.11734
20
0.821451
11
-3.14894
21
0.796962
0
LINE
8
BLACK
6
CONTINUOUS
10
-3.14894
20
0.796962
11
-3.17956
21
0.771266
0
LINE
8
BLACK
6
CONTINUOUS
10
-3.17956
20
0.771266
11
-3.20916
21
0.744401
0
LINE
8
BLACK
6
CONTINUOUS
10
-3.20916
20
0.744401
11
-3.2377
21
0.716409
0
LINE
8
BLACK
6
CONTINUOUS
10
-3.2377
20
0.716409
11
-3.26514
21
0.687333
0
LINE
8
BLACK
6
CONTINUOUS
10
-3.26514
20
0.687333
11
-3.29143
21
0.657212
0
LINE
8
BLACK
6
CONTINUOUS
10
-3.29143
20
0.657212
11
-3.31652
21
0.626096
0
LINE
8
BLACK
6
CONTINUOUS
10
-3.31652
20
0.626096
11
-3.34039
21
0.59403
0
LINE
8
BLACK
6
CONTINUOUS
10
-3.34039
20
0.59403
11
-3.363
21
0.561062
0
LINE
8
BLACK
6
CONTINUOUS
10
-3.363
20
0.561062
11
-3.38432
21
0.527243
0
LINE
8
BLACK
6
CONTINUOUS
10
-3.38432
20
0.527243
11
-3.4043
21
0.492623
0
LINE
8
BLACK
6
CONTINUOUS
10
-3.4043
20
0.492623
11
-3.42293
21
0.457254
0
LINE
8
BLACK
6
CONTINUOUS
10
-3.42293
20
0.457254
11
-3.44018
21
0.421189
0
LINE
8
BLACK
6
CONTINUOUS
10
-3.44018
20
0.421189
11
-3.45602
21
0.38448
0
LINE
8
BLACK
6
CONTINUOUS
10
-3.45602
20
0.38448
11
-3.47041
21
0.347189
0
LINE
8
BLACK
6
CONTINUOUS
10
-3.47041
20
0.347189
11
-3.48335
21
0.309364
0
LINE
8
BLACK
6
CONTINUOUS
10
-3.48335
20
0.309364
11
-3.49482
21
0.271069
0
LINE
8
BLACK
6
CONTINUOUS
10
-3.49482
20
0.271069
11
-3.50479
21
0.232355
0
LINE
8
BLACK
6
CONTINUOUS
10
-3.50479
20
0.232355
11
-3.51326
21
0.193285
0
LINE
8
BLACK
6
CONTINUOUS
10
-3.51326
20
0.193285
11
-3.5202
21
0.153917
0
LINE
8
BLACK
6
CONTINUOUS
10
-3.5202
20
0.153917
11
-3.52561
21
0.114308
0
LINE
8
BLACK
6
CONTINUOUS
10
-3.52561
20
0.114308
11
-3.52948
21
0.0745201
0
LINE
8
BLACK
6
CONTINUOUS
10
-3.52948
20
0.0745201
11
-3.53181
21
0.0346113
0
LINE
8
BLACK
6
CONTINUOUS
10
-3.53181
20
0.0346113
11
-3.53257
21
-0.00535772
0
LINE
8
BLACK
6
CONTINUOUS
10
-3.53257
20
-0.00535772
11
-3.53187
21
-0.0422305
0
LINE
8
BLACK
6
CONTINUOUS
10
-3.53187
20
-0.0422305
11
-3.53211
21
-0.043041
0
LINE
8
BLACK
6
CONTINUOUS
10
-3.53211
20
-0.043041
11
-3.5322
21
-0.0438838
0
LINE
8
BLACK
6
CONTINUOUS
10
-3.5322
20
-0.0438838
11
-3.95079
21
-1.00082
0
LINE
8
BLACK
6
CONTINUOUS
10
-3.95079
20
-1.00082
11
-3.95079
21
-1.62743
0
LINE
8
BLACK
6
CONTINUOUS
10
-3.95079
20
-1.62743
11
-3.15282
21
-1.62743
0
LINE
8
BLACK
6
CONTINUOUS
10
-3.15282
20
-1.62743
11
-3.15282
21
-1.20186
0
LINE
8
BLACK
6
CONTINUOUS
10
-3.15282
20
-1.20186
11
-3.15262
21
-1.20127
0
LINE
8
BLACK
6
CONTINUOUS
10
-3.15262
20
-1.20127
11
-3.15262
21
-1.20065
0
LINE
8
BLACK
6
CONTINUOUS
10
-3.15262
20
-1.20065
11
-3.15226
21
-1.20014
0
LINE
8
BLACK
6
CONTINUOUS
10
-3.15226
20
-1.20014
11
-3.15207
21
-1.19955
0
LINE
8
BLACK
6
CONTINUOUS
10
-3.15207
20
-1.19955
11
-3.15156
21
-1.19918
0
LINE
8
BLACK
6
CONTINUOUS
10
-3.15156
20
-1.19918
11
-3.15119
21
-1.19868
0
LINE
8
BLACK
6
CONTINUOUS
10
-3.15119
20
-1.19868
11
-3.1506
21
-1.19849
0
LINE
8
BLACK
6
CONTINUOUS
10
-3.1506
20
-1.19849
11
-3.1501
21
-1.19812
0
LINE
8
BLACK
6
CONTINUOUS
10
-3.1501
20
-1.19812
11
-3.14947
21
-1.19812
0
LINE
8
BLACK
6
CONTINUOUS
10
-3.14947
20
-1.19812
11
-3.14888
21
-1.19793
0
LINE
8
BLACK
6
CONTINUOUS
10
-3.14888
20
-1.19793
11
-1.96185
21
-1.19793
0
LINE
8
BLACK
6
CONTINUOUS
10
-1.96185
20
-1.19793
11
-1.96125
21
-1.19812
0
LINE
8
BLACK
6
CONTINUOUS
10
-1.96125
20
-1.19812
11
-1.96063
21
-1.19812
0
LINE
8
BLACK
6
CONTINUOUS
10
-1.96063
20
-1.19812
11
-1.96013
21
-1.19849
0
LINE
8
BLACK
6
CONTINUOUS
10
-1.96013
20
-1.19849
11
-1.95953
21
-1.19868
0
LINE
8
BLACK
6
CONTINUOUS
10
-1.95953
20
-1.19868
11
-1.95917
21
-1.19918
0
LINE
8
BLACK
6
CONTINUOUS
10
-1.95917
20
-1.19918
11
-1.95866
21
-1.19955
0
LINE
8
BLACK
6
CONTINUOUS
10
-1.95866
20
-1.19955
11
-1.95847
21
-1.20014
0
LINE
8
BLACK
6
CONTINUOUS
10
-1.95847
20
-1.20014
11
-1.9581
21
-1.20065
0
LINE
8
BLACK
6
CONTINUOUS
10
-1.9581
20
-1.20065
11
-1.9581
21
-1.20127
0
LINE
8
BLACK
6
CONTINUOUS
10
-1.9581
20
-1.20127
11
-1.95791
21
-1.20186
0
LINE
8
BLACK
6
CONTINUOUS
10
-1.95791
20
-1.20186
11
-1.95791
21
-1.83246
0
LINE
8
BLACK
6
CONTINUOUS
10
-1.95791
20
-1.83246
11
-1.5457
21
-1.83246
0
LINE
8
BLACK
6
CONTINUOUS
10
-1.5457
20
-1.83246
11
-1.5457
21
-0.391028
0
LINE
8
BLACK
6
CONTINUOUS
10
-1.5457
20
-0.391028
11
-1.54547
21
-0.390336
0
LINE
8
BLACK
6
CONTINUOUS
10
-1.54547
20
-0.390336
11
-1.54543
21
-0.38961
0
LINE
8
BLACK
6
CONTINUOUS
10
-1.54543
20
-0.38961
11
-1.53319
21
-0.357904
0
LINE
8
BLACK
6
CONTINUOUS
10
-1.53319
20
-0.357904
11
-1.52025
21
-0.32008
0
LINE
8
BLACK
6
CONTINUOUS
10
-1.52025
20
-0.32008
11
-1.50879
21
-0.281784
0
LINE
8
BLACK
6
CONTINUOUS
10
-1.50879
20
-0.281784
11
-1.49881
21
-0.24307
0
LINE
8
BLACK
6
CONTINUOUS
10
-1.49881
20
-0.24307
11
-1.49035
21
-0.204
0
LINE
8
BLACK
6
CONTINUOUS
10
-1.49035
20
-0.204
11
-1.4834
21
-0.164632
0
LINE
8
BLACK
6
CONTINUOUS
10
-1.4834
20
-0.164632
11
-1.47799
21
-0.125024
0
LINE
8
BLACK
6
CONTINUOUS
10
-1.47799
20
-0.125024
11
-1.47413
21
-0.0852355
0
LINE
8
BLACK
6
CONTINUOUS
10
-1.47413
20
-0.0852355
11
-1.4718
21
-0.0453268
0
LINE
8
BLACK
6
CONTINUOUS
10
-1.4718
20
-0.0453268
11
-1.47103
21
-0.00535768
0
LINE
8
BLACK
6
CONTINUOUS
10
-1.47103
20
-0.00535768
11
-1.4718
21
0.0346113
0
LINE
8
BLACK
6
CONTINUOUS
10
-1.4718
20
0.0346113
11
-1.47413
21
0.07452
0
LINE
8
BLACK
6
CONTINUOUS
10
-1.47413
20
0.07452
11
-1.47799
21
0.114308
0
LINE
8
BLACK
6
CONTINUOUS
10
-1.47799
20
0.114308
11
-1.4834
21
0.153916
0
LINE
8
BLACK
6
CONTINUOUS
10
-1.4834
20
0.153916
11
-1.49035
21
0.193285
0
LINE
8
BLACK
6
CONTINUOUS
10
-1.49035
20
0.193285
11
-1.49881
21
0.232355
0
LINE
8
BLACK
6
CONTINUOUS
10
-1.49881
20
0.232355
11
-1.50879
21
0.271068
0
LINE
8
BLACK
6
CONTINUOUS
10
-1.50879
20
0.271068
11
-1.52025
21
0.309364
0
LINE
8
BLACK
6
CONTINUOUS
10
-1.52025
20
0.309364
11
-1.53319
21
0.347189
0
LINE
8
BLACK
6
CONTINUOUS
10
-1.53319
20
0.347189
11
-1.54759
21
0.384481
0
LINE
8
BLACK
6
CONTINUOUS
10
-1.54759
20
0.384481
11
-1.56343
21
0.421188
0
LINE
8
BLACK
6
CONTINUOUS
10
-1.56343
20
0.421188
11
-1.58067
21
0.457254
0
LINE
8
BLACK
6
CONTINUOUS
10
-1.58067
20
0.457254
11
-1.5993
21
0.492623
0
LINE
8
BLACK
6
CONTINUOUS
10
-1.5993
20
0.492623
11
-1.61928
21
0.527244
0
LINE
8
BLACK
6
CONTINUOUS
10
-1.61928
20
0.527244
11
-1.6406
21
0.561062
0
LINE
8
BLACK
6
CONTINUOUS
10
-1.6406
20
0.561062
11
-1.66322
21
0.594031
0
LINE
8
BLACK
6
CONTINUOUS
10
-1.66322
20
0.594031
11
-1.68708
21
0.626096
0
LINE
8
BLACK
6
CONTINUOUS
10
-1.68708
20
0.626096
11
-1.71218
21
0.657212
0
LINE
8
BLACK
6
CONTINUOUS
10
-1.71218
20
0.657212
11
-1.73847
21
0.687333
0
LINE
8
BLACK
6
CONTINUOUS
10
-1.73847
20
0.687333
11
-1.7659
21
0.716408
0
LINE
8
BLACK
6
CONTINUOUS
10
-1.7659
20
0.716408
11
-1.79445
21
0.744402
0
LINE
8
BLACK
6
CONTINUOUS
10
-1.79445
20
0.744402
11
-1.82404
21
0.771265
0
LINE
8
BLACK
6
CONTINUOUS
10
-1.82404
20
0.771265
11
-1.85466
21
0.796962
0
LINE
8
BLACK
6
CONTINUOUS
10
-1.85466
20
0.796962
11
-1.88626
21
0.821451
0
LINE
8
BLACK
6
CONTINUOUS
10
-1.88626
20
0.821451
11
-1.91879
21
0.844697
0
LINE
8
BLACK
6
CONTINUOUS
10
-1.91879
20
0.844697
11
-1.95219
21
0.866665
0
LINE
8
BLACK
6
CONTINUOUS
10
-1.95219
20
0.866665
11
-1.98641
21
0.88732
0
LINE
8
BLACK
6
CONTINUOUS
10
-1.98641
20
0.88732
11
-2.02142
21
0.906633
0
LINE
8
BLACK
6
CONTINUOUS
10
-2.02142
20
0.906633
11
-2.05714
21
0.924575
0
LINE
8
BLACK
6
CONTINUOUS
10
-2.05714
20
0.924575
11
-2.09353
21
0.941118
0
LINE
8
BLACK
6
CONTINUOUS
10
-2.09353
20
0.941118
11
-2.13054
21
0.956236
0
LINE
8
BLACK
6
CONTINUOUS
10
-2.13054
20
0.956236
11
-2.16811
21
0.969909
0
LINE
8
BLACK
6
CONTINUOUS
10
-2.16811
20
0.969909
11
-2.20617
21
0.982115
0
LINE
8
BLACK
6
CONTINUOUS
10
-2.20617
20
0.982115
11
-2.24468
21
0.992839
0
LINE
8
BLACK
6
CONTINUOUS
10
-2.24468
20
0.992839
11
-2.28359
21
1.00205
0
LINE
8
BLACK
6
CONTINUOUS
10
-2.28359
20
1.00205
11
-2.32281
21
1.00975
0
LINE
8
BLACK
6
CONTINUOUS
10
-2.32281
20
1.00975
11
-2.36231
21
1.01593
0
LINE
8
BLACK
6
CONTINUOUS
10
-2.36231
20
1.01593
11
-2.40201
21
1.02057
0
LINE
8
BLACK
6
CONTINUOUS
10
-2.40201
20
1.02057
11
-2.44187
21
1.02367
0
LINE
8
BLACK
6
CONTINUOUS
10
-2.44187
20
1.02367
11
-2.48182
21
1.02523
0
LINE
8
BLACK
6
CONTINUOUS
10
-2.48182
20
1.02523
11
-2.52179
21
1.02523
0
LINE
8
BLACK
6
CONTINUOUS
10
0.0601632
20
1.03296
11
0.100171
21
1.02985
0
LINE
8
BLACK
6
CONTINUOUS
10
0.100171
20
1.02985
11
0.140029
21
1.02519
0
LINE
8
BLACK
6
CONTINUOUS
10
0.140029
20
1.02519
11
0.179676
21
1.01899
0
LINE
8
BLACK
6
CONTINUOUS
10
0.179676
20
1.01899
11
0.219053
21
1.01126
0
LINE
8
BLACK
6
CONTINUOUS
10
0.219053
20
1.01126
11
0.2581
21
1.00201
0
LINE
8
BLACK
6
CONTINUOUS
10
0.2581
20
1.00201
11
0.296759
21
0.991245
0
LINE
8
BLACK
6
CONTINUOUS
10
0.296759
20
0.991245
11
0.334972
21
0.978992
0
LINE
8
BLACK
6
CONTINUOUS
10
0.334972
20
0.978992
11
0.372681
21
0.965267
0
LINE
8
BLACK
6
CONTINUOUS
10
0.372681
20
0.965267
11
0.409829
21
0.950091
0
LINE
8
BLACK
6
CONTINUOUS
10
0.409829
20
0.950091
11
0.446361
21
0.933485
0
LINE
8
BLACK
6
CONTINUOUS
10
0.446361
20
0.933485
11
0.482221
21
0.915475
0
LINE
8
BLACK
6
CONTINUOUS
10
0.482221
20
0.915475
11
0.517357
21
0.896088
0
LINE
8
BLACK
6
CONTINUOUS
10
0.517357
20
0.896088
11
0.551714
21
0.875354
0
LINE
8
BLACK
6
CONTINUOUS
10
0.551714
20
0.875354
11
0.585241
21
0.853302
0
LINE
8
BLACK
6
CONTINUOUS
10
0.585241
20
0.853302
11
0.617888
21
0.829968
0
LINE
8
BLACK
6
CONTINUOUS
10
0.617888
20
0.829968
11
0.649606
21
0.805385
0
LINE
8
BLACK
6
CONTINUOUS
10
0.649606
20
0.805385
11
0.680346
21
0.77959
0
LINE
8
BLACK
6
CONTINUOUS
10
0.680346
20
0.77959
11
0.710063
21
0.752623
0
LINE
8
BLACK
6
CONTINUOUS
10
0.710063
20
0.752623
11
0.738713
21
0.724524
0
LINE
8
BLACK
6
CONTINUOUS
10
0.738713
20
0.724524
11
0.766251
21
0.695336
0
LINE
8
BLACK
6
CONTINUOUS
10
0.766251
20
0.695336
11
0.792636
21
0.665101
0
LINE
8
BLACK
6
CONTINUOUS
10
0.792636
20
0.665101
11
0.81783
21
0.633866
0
LINE
8
BLACK
6
CONTINUOUS
10
0.81783
20
0.633866
11
0.841793
21
0.601678
0
LINE
8
BLACK
6
CONTINUOUS
10
0.841793
20
0.601678
11
0.86449
21
0.568584
0
LINE
8
BLACK
6
CONTINUOUS
10
0.86449
20
0.568584
11
0.885887
21
0.534636
0
LINE
8
BLACK
6
CONTINUOUS
10
0.885887
20
0.534636
11
0.905952
21
0.499883
0
LINE
8
BLACK
6
CONTINUOUS
10
0.905952
20
0.499883
11
0.924654
21
0.464379
0
LINE
8
BLACK
6
CONTINUOUS
10
0.924654
20
0.464379
11
0.941965
21
0.428176
0
LINE
8
BLACK
6
CONTINUOUS
10
0.941965
20
0.428176
11
0.957859
21
0.391328
0
LINE
8
BLACK
6
CONTINUOUS
10
0.957859
20
0.391328
11
0.972313
21
0.353893
0
LINE
8
BLACK
6
CONTINUOUS
10
0.972313
20
0.353893
11
0.985304
21
0.315925
0
LINE
8
BLACK
6
CONTINUOUS
10
0.985304
20
0.315925
11
0.996813
21
0.277482
0
LINE
8
BLACK
6
CONTINUOUS
10
0.996813
20
0.277482
11
1.00682
21
0.238621
0
LINE
8
BLACK
6
CONTINUOUS
10
1.00682
20
0.238621
11
1.01532
21
0.199402
0
LINE
8
BLACK
6
CONTINUOUS
10
1.01532
20
0.199402
11
1.02229
21
0.159883
0
LINE
8
BLACK
6
CONTINUOUS
10
1.02229
20
0.159883
11
1.02772
21
0.120123
0
LINE
8
BLACK
6
CONTINUOUS
10
1.02772
20
0.120123
11
1.0316
21
0.0801824
0
LINE
8
BLACK
6
CONTINUOUS
10
1.0316
20
0.0801824
11
1.03394
21
0.0401214
0
LINE
8
BLACK
6
CONTINUOUS
10
1.03394
20
0.0401214
11
1.03471
21
0
0
LINE
8
BLACK
6
CONTINUOUS
10
1.03471
20
0
11
1.03394
21
-0.0401214
0
LINE
8
BLACK
6
CONTINUOUS
10
1.03394
20
-0.0401214
11
1.0316
21
-0.0801824
0
LINE
8
BLACK
6
CONTINUOUS
10
1.0316
20
-0.0801824
11
1.02772
21
-0.120123
0
LINE
8
BLACK
6
CONTINUOUS
10
1.02772
20
-0.120123
11
1.02229
21
-0.159883
0
LINE
8
BLACK
6
CONTINUOUS
10
1.02229
20
-0.159883
11
1.01532
21
-0.199402
0
LINE
8
BLACK
6
CONTINUOUS
10
1.01532
20
-0.199402
11
1.00682
21
-0.238621
0
LINE
8
BLACK
6
CONTINUOUS
10
1.00682
20
-0.238621
11
0.996813
21
-0.277482
0
LINE
8
BLACK
6
CONTINUOUS
10
0.996813
20
-0.277482
11
0.985304
21
-0.315925
0
LINE
8
BLACK
6
CONTINUOUS
10
0.985304
20
-0.315925
11
0.972313
21
-0.353893
0
LINE
8
BLACK
6
CONTINUOUS
10
0.972313
20
-0.353893
11
0.957859
21
-0.391328
0
LINE
8
BLACK
6
CONTINUOUS
10
0.957859
20
-0.391328
11
0.941965
21
-0.428176
0
LINE
8
BLACK
6
CONTINUOUS
10
0.941965
20
-0.428176
11
0.924654
21
-0.464379
0
LINE
8
BLACK
6
CONTINUOUS
10
0.924654
20
-0.464379
11
0.905952
21
-0.499883
0
LINE
8
BLACK
6
CONTINUOUS
10
0.905952
20
-0.499883
11
0.885887
21
-0.534636
0
LINE
8
BLACK
6
CONTINUOUS
10
0.885887
20
-0.534636
11
0.86449
21
-0.568584
0
LINE
8
BLACK
6
CONTINUOUS
10
0.86449
20
-0.568584
11
0.841793
21
-0.601678
0
LINE
8
BLACK
6
CONTINUOUS
10
0.841793
20
-0.601678
11
0.81783
21
-0.633866
0
LINE
8
BLACK
6
CONTINUOUS
10
0.81783
20
-0.633866
11
0.792636
21
-0.665101
0
LINE
8
BLACK
6
CONTINUOUS
10
0.792636
20
-0.665101
11
0.766251
21
-0.695336
0
LINE
8
BLACK
6
CONTINUOUS
10
0.766251
20
-0.695336
11
0.738713
21
-0.724524
0
LINE
8
BLACK
6
CONTINUOUS
10
0.738713
20
-0.724524
11
0.710063
21
-0.752623
0
LINE
8
BLACK
6
CONTINUOUS
10
0.710063
20
-0.752623
11
0.680346
21
-0.77959
0
LINE
8
BLACK
6
CONTINUOUS
10
0.680346
20
-0.77959
11
0.649606
21
-0.805385
0
LINE
8
BLACK
6
CONTINUOUS
10
0.649606
20
-0.805385
11
0.617888
21
-0.829968
0
LINE
8
BLACK
6
CONTINUOUS
10
0.617888
20
-0.829968
11
0.585241
21
-0.853302
0
LINE
8
BLACK
6
CONTINUOUS
10
0.585241
20
-0.853302
11
0.551714
21
-0.875354
0
LINE
8
BLACK
6
CONTINUOUS
10
0.551714
20
-0.875354
11
0.517357
21
-0.896088
0
LINE
8
BLACK
6
CONTINUOUS
10
0.517357
20
-0.896088
11
0.482221
21
-0.915475
0
LINE
8
BLACK
6
CONTINUOUS
10
0.482221
20
-0.915475
11
0.446361
21
-0.933485
0
LINE
8
BLACK
6
CONTINUOUS
10
0.446361
20
-0.933485
11
0.409829
21
-0.950091
0
LINE
8
BLACK
6
CONTINUOUS
10
0.409829
20
-0.950091
11
0.372681
21
-0.965267
0
LINE
8
BLACK
6
CONTINUOUS
10
0.372681
20
-0.965267
11
0.334972
21
-0.978992
0
LINE
8
BLACK
6
CONTINUOUS
10
0.334972
20
-0.978992
11
0.296759
21
-0.991245
0
LINE
8
BLACK
6
CONTINUOUS
10
0.296759
20
-0.991245
11
0.2581
21
-1.00201
0
LINE
8
BLACK
6
CONTINUOUS
10
0.2581
20
-1.00201
11
0.219053
21
-1.01126
0
LINE
8
BLACK
6
CONTINUOUS
10
0.219053
20
-1.01126
11
0.179676
21
-1.01899
0
LINE
8
BLACK
6
CONTINUOUS
10
0.179676
20
-1.01899
11
0.140029
21
-1.02519
0
LINE
8
BLACK
6
CONTINUOUS
10
0.140029
20
-1.02519
11
0.100171
21
-1.02985
0
LINE
8
BLACK
6
CONTINUOUS
10
0.100171
20
-1.02985
11
0.0601632
21
-1.03296
0
LINE
8
BLACK
6
CONTINUOUS
10
0.0601632
20
-1.03296
11
0.0200645
21
-1.03452
0
LINE
8
BLACK
6
CONTINUOUS
10
0.0200645
20
-1.03452
11
-0.0200645
21
-1.03452
0
LINE
8
BLACK
6
CONTINUOUS
10
-0.0200645
20
-1.03452
11
-0.0601632
21
-1.03296
0
LINE
8
BLACK
6
CONTINUOUS
10
-0.0601632
20
-1.03296
11
-0.100171
21
-1.02985
0
LINE
8
BLACK
6
CONTINUOUS
10
-0.100171
20
-1.02985
11
-0.140029
21
-1.02519
0
LINE
8
BLACK
6
CONTINUOUS
10
-0.140029
20
-1.02519
11
-0.179676
21
-1.01899
0
LINE
8
BLACK
6
CONTINUOUS
10
-0.179676
20
-1.01899
11
-0.219053
21
-1.01126
0
LINE
8
BLACK
6
CONTINUOUS
10
-0.219053
20
-1.01126
11
-0.2581
21
-1.00201
0
LINE
8
BLACK
6
CONTINUOUS
10
-0.2581
20
-1.00201
11
-0.296759
21
-0.991245
0
LINE
8
BLACK
6
CONTINUOUS
10
-0.296759
20
-0.991245
11
-0.334972
21
-0.978992
0
LINE
8
BLACK
6
CONTINUOUS
10
-0.334972
20
-0.978992
11
-0.372681
21
-0.965267
0
LINE
8
BLACK
6
CONTINUOUS
10
-0.372681
20
-0.965267
11
-0.409829
21
-0.950091
0
LINE
8
BLACK
6
CONTINUOUS
10
-0.409829
20
-0.950091
11
-0.446361
21
-0.933485
0
LINE
8
BLACK
6
CONTINUOUS
10
-0.446361
20
-0.933485
11
-0.482221
21
-0.915475
0
LINE
8
BLACK
6
CONTINUOUS
10
-0.482221
20
-0.915475
11
-0.517357
21
-0.896088
0
LINE
8
BLACK
6
CONTINUOUS
10
-0.517357
20
-0.896088
11
-0.551714
21
-0.875354
0
LINE
8
BLACK
6
CONTINUOUS
10
-0.551714
20
-0.875354
11
-0.585241
21
-0.853302
0
LINE
8
BLACK
6
CONTINUOUS
10
-0.585241
20
-0.853302
11
-0.617888
21
-0.829968
0
LINE
8
BLACK
6
CONTINUOUS
10
-0.617888
20
-0.829968
11
-0.649606
21
-0.805385
0
LINE
8
BLACK
6
CONTINUOUS
10
-0.649606
20
-0.805385
11
-0.680346
21
-0.77959
0
LINE
8
BLACK
6
CONTINUOUS
10
-0.680346
20
-0.77959
11
-0.710063
21
-0.752623
0
LINE
8
BLACK
6
CONTINUOUS
10
-0.710063
20
-0.752623
11
-0.738713
21
-0.724524
0
LINE
8
BLACK
6
CONTINUOUS
10
-0.738713
20
-0.724524
11
-0.766251
21
-0.695336
0
LINE
8
BLACK
6
CONTINUOUS
10
-0.766251
20
-0.695336
11
-0.792636
21
-0.665101
0
LINE
8
BLACK
6
CONTINUOUS
10
-0.792636
20
-0.665101
11
-0.81783
21
-0.633866
0
LINE
8
BLACK
6
CONTINUOUS
10
-0.81783
20
-0.633866
11
-0.841793
21
-0.601678
0
LINE
8
BLACK
6
CONTINUOUS
10
-0.841793
20
-0.601678
11
-0.86449
21
-0.568584
0
LINE
8
BLACK
6
CONTINUOUS
10
-0.86449
20
-0.568584
11
-0.885887
21
-0.534636
0
LINE
8
BLACK
6
CONTINUOUS
10
-0.885887
20
-0.534636
11
-0.905952
21
-0.499883
0
LINE
8
BLACK
6
CONTINUOUS
10
-0.905952
20
-0.499883
11
-0.924654
21
-0.464379
0
LINE
8
BLACK
6
CONTINUOUS
10
-0.924654
20
-0.464379
11
-0.941965
21
-0.428176
0
LINE
8
BLACK
6
CONTINUOUS
10
-0.941965
20
-0.428176
11
-0.957859
21
-0.391328
0
LINE
8
BLACK
6
CONTINUOUS
10
-0.957859
20
-0.391328
11
-0.972313
21
-0.353893
0
LINE
8
BLACK
6
CONTINUOUS
10
-0.972313
20
-0.353893
11
-0.985304
21
-0.315925
0
LINE
8
BLACK
6
CONTINUOUS
10
-0.985304
20
-0.315925
11
-0.996813
21
-0.277482
0
LINE
8
BLACK
6
CONTINUOUS
10
-0.996813
20
-0.277482
11
-1.00682
21
-0.238621
0
LINE
8
BLACK
6
CONTINUOUS
10
-1.00682
20
-0.238621
11
-1.01532
21
-0.199402
0
LINE
8
BLACK
6
CONTINUOUS
10
-1.01532
20
-0.199402
11
-1.02229
21
-0.159883
0
LINE
8
BLACK
6
CONTINUOUS
10
-1.02229
20
-0.159883
11
-1.02772
21
-0.120123
0
LINE
8
BLACK
6
CONTINUOUS
10
-1.02772
20
-0.120123
11
-1.0316
21
-0.0801824
0
LINE
8
BLACK
6
CONTINUOUS
10
-1.0316
20
-0.0801824
11
-1.03394
21
-0.0401214
0
LINE
8
BLACK
6
CONTINUOUS
10
-1.03394
20
-0.0401214
11
-1.03471
21
0
0
LINE
8
BLACK
6
CONTINUOUS
10
-1.03471
20
0
11
-1.03394
21
0.0401214
0
LINE
8
BLACK
6
CONTINUOUS
10
-1.03394
20
0.0401214
11
-1.0316
21
0.0801824
0
LINE
8
BLACK
6
CONTINUOUS
10
-1.0316
20
0.0801824
11
-1.02772
21
0.120123
0
LINE
8
BLACK
6
CONTINUOUS
10
-1.02772
20
0.120123
11
-1.02229
21
0.159883
0
LINE
8
BLACK
6
CONTINUOUS
10
-1.02229
20
0.159883
11
-1.01532
21
0.199402
0
LINE
8
BLACK
6
CONTINUOUS
10
-1.01532
20
0.199402
11
-1.00682
21
0.238621
0
LINE
8
BLACK
6
CONTINUOUS
10
-1.00682
20
0.238621
11
-0.996813
21
0.277482
0
LINE
8
BLACK
6
CONTINUOUS
10
-0.996813
20
0.277482
11
-0.985304
21
0.315925
0
LINE
8
BLACK
6
CONTINUOUS
10
-0.985304
20
0.315925
11
-0.972313
21
0.353893
0
LINE
8
BLACK
6
CONTINUOUS
10
-0.972313
20
0.353893
11
-0.957859
21
0.391328
0
LINE
8
BLACK
6
CONTINUOUS
10
-0.957859
20
0.391328
11
-0.941965
21
0.428176
0
LINE
8
BLACK
6
CONTINUOUS
10
-0.941965
20
0.428176
11
-0.924654
21
0.464379
0
LINE
8
BLACK
6
CONTINUOUS
10
-0.924654
20
0.464379
11
-0.905952
21
0.499883
0
LINE
8
BLACK
6
CONTINUOUS
10
-0.905952
20
0.499883
11
-0.885887
21
0.534636
0
LINE
8
BLACK
6
CONTINUOUS
10
-0.885887
20
0.534636
11
-0.86449
21
0.568584
0
LINE
8
BLACK
6
CONTINUOUS
10
-0.86449
20
0.568584
11
-0.841793
21
0.601678
0
LINE
8
BLACK
6
CONTINUOUS
10
-0.841793
20
0.601678
11
-0.81783
21
0.633866
0
LINE
8
BLACK
6
CONTINUOUS
10
-0.81783
20
0.633866
11
-0.792636
21
0.665101
0
LINE
8
BLACK
6
CONTINUOUS
10
-0.792636
20
0.665101
11
-0.766251
21
0.695336
0
LINE
8
BLACK
6
CONTINUOUS
10
-0.766251
20
0.695336
11
-0.738713
21
0.724524
0
LINE
8
BLACK
6
CONTINUOUS
10
-0.738713
20
0.724524
11
-0.710063
21
0.752623
0
LINE
8
BLACK
6
CONTINUOUS
10
-0.710063
20
0.752623
11
-0.680346
21
0.77959
0
LINE
8
BLACK
6
CONTINUOUS
10
-0.680346
20
0.77959
11
-0.649606
21
0.805385
0
LINE
8
BLACK
6
CONTINUOUS
10
-0.649606
20
0.805385
11
-0.617888
21
0.829968
0
LINE
8
BLACK
6
CONTINUOUS
10
-0.617888
20
0.829968
11
-0.585241
21
0.853302
0
LINE
8
BLACK
6
CONTINUOUS
10
-0.585241
20
0.853302
11
-0.551714
21
0.875354
0
LINE
8
BLACK
6
CONTINUOUS
10
-0.551714
20
0.875354
11
-0.517357
21
0.896088
0
LINE
8
BLACK
6
CONTINUOUS
10
-0.517357
20
0.896088
11
-0.482221
21
0.915475
0
LINE
8
BLACK
6
CONTINUOUS
10
-0.482221
20
0.915475
11
-0.446361
21
0.933485
0
LINE
8
BLACK
6
CONTINUOUS
10
-0.446361
20
0.933485
11
-0.409829
21
0.950091
0
LINE
8
BLACK
6
CONTINUOUS
10
-0.409829
20
0.950091
11
-0.372681
21
0.965267
0
LINE
8
BLACK
6
CONTINUOUS
10
-0.372681
20
0.965267
11
-0.334972
21
0.978992
0
LINE
8
BLACK
6
CONTINUOUS
10
-0.334972
20
0.978992
11
-0.296759
21
0.991245
0
LINE
8
BLACK
6
CONTINUOUS
10
-0.296759
20
0.991245
11
-0.2581
21
1.00201
0
LINE
8
BLACK
6
CONTINUOUS
10
-0.2581
20
1.00201
11
-0.219053
21
1.01126
0
LINE
8
BLACK
6
CONTINUOUS
10
-0.219053
20
1.01126
11
-0.179676
21
1.01899
0
LINE
8
BLACK
6
CONTINUOUS
10
-0.179676
20
1.01899
11
-0.140029
21
1.02519
0
LINE
8
BLACK
6
CONTINUOUS
10
-0.140029
20
1.02519
11
-0.100171
21
1.02985
0
LINE
8
BLACK
6
CONTINUOUS
10
-0.100171
20
1.02985
11
-0.0601632
21
1.03296
0
LINE
8
BLACK
6
CONTINUOUS
10
-0.0601632
20
1.03296
11
-0.0200645
21
1.03452
0
LINE
8
BLACK
6
CONTINUOUS
10
-0.0200645
20
1.03452
11
0.0200645
21
1.03452
0
LINE
8
BLACK
6
CONTINUOUS
10
0.0200645
20
1.03452
11
0.0601632
21
1.03296
0
LINE
8
BLACK
6
CONTINUOUS
10
-1.02625
20
-0.0403213
11
-1.02387
21
-0.0805804
0
LINE
8
BLACK
6
CONTINUOUS
10
-1.02387
20
-0.0805804
11
-1.01992
21
-0.120715
0
LINE
8
BLACK
6
CONTINUOUS
10
-1.01992
20
-0.120715
11
-1.01439
21
-0.160664
0
LINE
8
BLACK
6
CONTINUOUS
10
-1.01439
20
-0.160664
11
-1.0073
21
-0.200365
0
LINE
8
BLACK
6
CONTINUOUS
10
-1.0073
20
-0.200365
11
-0.99866
21
-0.239757
0
LINE
8
BLACK
6
CONTINUOUS
10
-0.99866
20
-0.239757
11
-0.988477
21
-0.278779
0
LINE
8
BLACK
6
CONTINUOUS
10
-0.988477
20
-0.278779
11
-0.976771
21
-0.317372
0
LINE
8
BLACK
6
CONTINUOUS
10
-0.976771
20
-0.317372
11
-0.963558
21
-0.355475
0
LINE
8
BLACK
6
CONTINUOUS
10
-0.963558
20
-0.355475
11
-0.948859
21
-0.39303
0
LINE
8
BLACK
6
CONTINUOUS
10
-0.948859
20
-0.39303
11
-0.932697
21
-0.429979
0
LINE
8
BLACK
6
CONTINUOUS
10
-0.932697
20
-0.429979
11
-0.915097
21
-0.466265
0
LINE
8
BLACK
6
CONTINUOUS
10
-0.915097
20
-0.466265
11
-0.896086
21
-0.501832
0
LINE
8
BLACK
6
CONTINUOUS
10
-0.896086
20
-0.501832
11
-0.875693
21
-0.536626
0
LINE
8
BLACK
6
CONTINUOUS
10
-0.875693
20
-0.536626
11
-0.85395
21
-0.570591
0
LINE
8
BLACK
6
CONTINUOUS
10
-0.85395
20
-0.570591
11
-0.830891
21
-0.603677
0
LINE
8
BLACK
6
CONTINUOUS
10
-0.830891
20
-0.603677
11
-0.80655
21
-0.635833
0
LINE
8
BLACK
6
CONTINUOUS
10
-0.80655
20
-0.635833
11
-0.780965
21
-0.667007
0
LINE
8
BLACK
6
CONTINUOUS
10
-0.780965
20
-0.667007
11
-0.754177
21
-0.697154
0
LINE
8
BLACK
6
CONTINUOUS
10
-0.754177
20
-0.697154
11
-0.726225
21
-0.726225
0
LINE
8
BLACK
6
CONTINUOUS
10
-0.726225
20
-0.726225
11
-0.697154
21
-0.754177
0
LINE
8
BLACK
6
CONTINUOUS
10
-0.697154
20
-0.754177
11
-0.667007
21
-0.780965
0
LINE
8
BLACK
6
CONTINUOUS
10
-0.667007
20
-0.780965
11
-0.635833
21
-0.80655
0
LINE
8
BLACK
6
CONTINUOUS
10
-0.635833
20
-0.80655
11
-0.603677
21
-0.830891
0
LINE
8
BLACK
6
CONTINUOUS
10
-0.603677
20
-0.830891
11
-0.570591
21
-0.85395
0
LINE
8
BLACK
6
CONTINUOUS
10
-0.570591
20
-0.85395
11
-0.536626
21
-0.875693
0
LINE
8
BLACK
6
CONTINUOUS
10
-0.536626
20
-0.875693
11
-0.501832
21
-0.896086
0
LINE
8
BLACK
6
CONTINUOUS
10
-0.501832
20
-0.896086
11
-0.466265
21
-0.915097
0
LINE
8
BLACK
6
CONTINUOUS
10
-0.466265
20
-0.915097
11
-0.429979
21
-0.932697
0
LINE
8
BLACK
6
CONTINUOUS
10
-0.429979
20
-0.932697
11
-0.39303
21
-0.948859
0
LINE
8
BLACK
6
CONTINUOUS
10
-0.39303
20
-0.948859
11
-0.355475
21
-0.963558
0
LINE
8
BLACK
6
CONTINUOUS
10
-0.355475
20
-0.963558
11
-0.317372
21
-0.976771
0
LINE
8
BLACK
6
CONTINUOUS
10
-0.317372
20
-0.976771
11
-0.278779
21
-0.988477
0
LINE
8
BLACK
6
CONTINUOUS
10
-0.278779
20
-0.988477
11
-0.239757
21
-0.99866
0
LINE
8
BLACK
6
CONTINUOUS
10
-0.239757
20
-0.99866
11
-0.200365
21
-1.0073
0
LINE
8
BLACK
6
CONTINUOUS
10
-0.200365
20
-1.0073
11
-0.160664
21
-1.01439
0
LINE
8
BLACK
6
CONTINUOUS
10
-0.160664
20
-1.01439
11
-0.120715
21
-1.01992
0
LINE
8
BLACK
6
CONTINUOUS
10
-0.120715
20
-1.01992
11
-0.0805804
21
-1.02387
0
LINE
8
BLACK
6
CONTINUOUS
10
-0.0805804
20
-1.02387
11
-0.0403213
21
-1.02625
0
LINE
8
BLACK
6
CONTINUOUS
10
-0.0403213
20
-1.02625
11
0
21
-1.02704
0
LINE
8
BLACK
6
CONTINUOUS
10
0
20
-1.02704
11
0.0403213
21
-1.02625
0
LINE
8
BLACK
6
CONTINUOUS
10
0.0403213
20
-1.02625
11
0.0805804
21
-1.02387
0
LINE
8
BLACK
6
CONTINUOUS
10
0.0805804
20
-1.02387
11
0.120715
21
-1.01992
0
LINE
8
BLACK
6
CONTINUOUS
10
0.120715
20
-1.01992
11
0.160664
21
-1.01439
0
LINE
8
BLACK
6
CONTINUOUS
10
0.160664
20
-1.01439
11
0.200365
21
-1.0073
0
LINE
8
BLACK
6
CONTINUOUS
10
0.200365
20
-1.0073
11
0.239757
21
-0.99866
0
LINE
8
BLACK
6
CONTINUOUS
10
0.239757
20
-0.99866
11
0.278779
21
-0.988477
0
LINE
8
BLACK
6
CONTINUOUS
10
0.278779
20
-0.988477
11
0.317372
21
-0.976771
0
LINE
8
BLACK
6
CONTINUOUS
10
0.317372
20
-0.976771
11
0.355475
21
-0.963558
0
LINE
8
BLACK
6
CONTINUOUS
10
0.355475
20
-0.963558
11
0.39303
21
-0.948859
0
LINE
8
BLACK
6
CONTINUOUS
10
0.39303
20
-0.948859
11
0.429979
21
-0.932697
0
LINE
8
BLACK
6
CONTINUOUS
10
0.429979
20
-0.932697
11
0.466265
21
-0.915097
0
LINE
8
BLACK
6
CONTINUOUS
10
0.466265
20
-0.915097
11
0.501832
21
-0.896086
0
LINE
8
BLACK
6
CONTINUOUS
10
0.501832
20
-0.896086
11
0.536626
21
-0.875693
0
LINE
8
BLACK
6
CONTINUOUS
10
0.536626
20
-0.875693
11
0.570591
21
-0.85395
0
LINE
8
BLACK
6
CONTINUOUS
10
0.570591
20
-0.85395
11
0.603677
21
-0.830891
0
LINE
8
BLACK
6
CONTINUOUS
10
0.603677
20
-0.830891
11
0.635833
21
-0.80655
0
LINE
8
BLACK
6
CONTINUOUS
10
0.635833
20
-0.80655
11
0.667007
21
-0.780965
0
LINE
8
BLACK
6
CONTINUOUS
10
0.667007
20
-0.780965
11
0.697154
21
-0.754177
0
LINE
8
BLACK
6
CONTINUOUS
10
0.697154
20
-0.754177
11
0.726225
21
-0.726225
0
LINE
8
BLACK
6
CONTINUOUS
10
0.726225
20
-0.726225
11
0.754177
21
-0.697154
0
LINE
8
BLACK
6
CONTINUOUS
10
0.754177
20
-0.697154
11
0.780965
21
-0.667007
0
LINE
8
BLACK
6
CONTINUOUS
10
0.780965
20
-0.667007
11
0.80655
21
-0.635833
0
LINE
8
BLACK
6
CONTINUOUS
10
0.80655
20
-0.635833
11
0.830891
21
-0.603677
0
LINE
8
BLACK
6
CONTINUOUS
10
0.830891
20
-0.603677
11
0.85395
21
-0.570591
0
LINE
8
BLACK
6
CONTINUOUS
10
0.85395
20
-0.570591
11
0.875693
21
-0.536626
0
LINE
8
BLACK
6
CONTINUOUS
10
0.875693
20
-0.536626
11
0.896086
21
-0.501832
0
LINE
8
BLACK
6
CONTINUOUS
10
0.896086
20
-0.501832
11
0.915097
21
-0.466265
0
LINE
8
BLACK
6
CONTINUOUS
10
0.915097
20
-0.466265
11
0.932697
21
-0.429979
0
LINE
8
BLACK
6
CONTINUOUS
10
0.932697
20
-0.429979
11
0.948859
21
-0.39303
0
LINE
8
BLACK
6
CONTINUOUS
10
0.948859
20
-0.39303
11
0.963558
21
-0.355475
0
LINE
8
BLACK
6
CONTINUOUS
10
0.963558
20
-0.355475
11
0.976771
21
-0.317372
0
LINE
8
BLACK
6
CONTINUOUS
10
0.976771
20
-0.317372
11
0.988477
21
-0.278779
0
LINE
8
BLACK
6
CONTINUOUS
10
0.988477
20
-0.278779
11
0.99866
21
-0.239757
0
LINE
8
BLACK
6
CONTINUOUS
10
0.99866
20
-0.239757
11
1.0073
21
-0.200365
0
LINE
8
BLACK
6
CONTINUOUS
10
1.0073
20
-0.200365
11
1.01439
21
-0.160664
0
LINE
8
BLACK
6
CONTINUOUS
10
1.01439
20
-0.160664
11
1.01992
21
-0.120715
0
LINE
8
BLACK
6
CONTINUOUS
10
1.01992
20
-0.120715
11
1.02387
21
-0.0805804
0
LINE
8
BLACK
6
CONTINUOUS
10
1.02387
20
-0.0805804
11
1.02625
21
-0.0403213
0
LINE
8
BLACK
6
CONTINUOUS
10
1.02625
20
-0.0403213
11
1.02704
21
0
0
LINE
8
BLACK
6
CONTINUOUS
10
1.02704
20
0
11
1.02625
21
0.0403213
0
LINE
8
BLACK
6
CONTINUOUS
10
1.02625
20
0.0403213
11
1.02387
21
0.0805804
0
LINE
8
BLACK
6
CONTINUOUS
10
1.02387
20
0.0805804
11
1.01992
21
0.120715
0
LINE
8
BLACK
6
CONTINUOUS
10
1.01992
20
0.120715
11
1.01439
21
0.160664
0
LINE
8
BLACK
6
CONTINUOUS
10
1.01439
20
0.160664
11
1.0073
21
0.200365
0
LINE
8
BLACK
6
CONTINUOUS
10
1.0073
20
0.200365
11
0.99866
21
0.239757
0
LINE
8
BLACK
6
CONTINUOUS
10
0.99866
20
0.239757
11
0.988477
21
0.278779
0
LINE
8
BLACK
6
CONTINUOUS
10
0.988477
20
0.278779
11
0.976771
21
0.317372
0
LINE
8
BLACK
6
CONTINUOUS
10
0.976771
20
0.317372
11
0.963558
21
0.355475
0
LINE
8
BLACK
6
CONTINUOUS
10
0.963558
20
0.355475
11
0.948859
21
0.39303
0
LINE
8
BLACK
6
CONTINUOUS
10
0.948859
20
0.39303
11
0.932697
21
0.429979
0
LINE
8
BLACK
6
CONTINUOUS
10
0.932697
20
0.429979
11
0.915097
21
0.466265
0
LINE
8
BLACK
6
CONTINUOUS
10
0.915097
20
0.466265
11
0.896086
21
0.501832
0
LINE
8
BLACK
6
CONTINUOUS
10
0.896086
20
0.501832
11
0.875693
21
0.536626
0
LINE
8
BLACK
6
CONTINUOUS
10
0.875693
20
0.536626
11
0.85395
21
0.570591
0
LINE
8
BLACK
6
CONTINUOUS
10
0.85395
20
0.570591
11
0.830891
21
0.603677
0
LINE
8
BLACK
6
CONTINUOUS
10
0.830891
20
0.603677
11
0.80655
21
0.635833
0
LINE
8
BLACK
6
CONTINUOUS
10
0.80655
20
0.635833
11
0.780965
21
0.667007
0
LINE
8
BLACK
6
CONTINUOUS
10
0.780965
20
0.667007
11
0.754177
21
0.697154
0
LINE
8
BLACK
6
CONTINUOUS
10
0.754177
20
0.697154
11
0.726225
21
0.726225
0
LINE
8
BLACK
6
CONTINUOUS
10
0.726225
20
0.726225
11
0.697154
21
0.754177
0
LINE
8
BLACK
6
CONTINUOUS
10
0.697154
20
0.754177
11
0.667007
21
0.780965
0
LINE
8
BLACK
6
CONTINUOUS
10
0.667007
20
0.780965
11
0.635833
21
0.80655
0
LINE
8
BLACK
6
CONTINUOUS
10
0.635833
20
0.80655
11
0.603677
21
0.830891
0
LINE
8
BLACK
6
CONTINUOUS
10
0.603677
20
0.830891
11
0.570591
21
0.85395
0
LINE
8
BLACK
6
CONTINUOUS
10
0.570591
20
0.85395
11
0.536626
21
0.875693
0
LINE
8
BLACK
6
CONTINUOUS
10
0.536626
20
0.875693
11
0.501832
21
0.896086
0
LINE
8
BLACK
6
CONTINUOUS
10
0.501832
20
0.896086
11
0.466265
21
0.915097
0
LINE
8
BLACK
6
CONTINUOUS
10
0.466265
20
0.915097
11
0.429979
21
0.932697
0
LINE
8
BLACK
6
CONTINUOUS
10
0.429979
20
0.932697
11
0.39303
21
0.948859
0
LINE
8
BLACK
6
CONTINUOUS
10
0.39303
20
0.948859
11
0.355475
21
0.963558
0
LINE
8
BLACK
6
CONTINUOUS
10
0.355475
20
0.963558
11
0.317372
21
0.976771
0
LINE
8
BLACK
6
CONTINUOUS
10
0.317372
20
0.976771
11
0.278779
21
0.988477
0
LINE
8
BLACK
6
CONTINUOUS
10
0.278779
20
0.988477
11
0.239757
21
0.99866
0
LINE
8
BLACK
6
CONTINUOUS
10
0.239757
20
0.99866
11
0.200365
21
1.0073
0
LINE
8
BLACK
6
CONTINUOUS
10
0.200365
20
1.0073
11
0.160664
21
1.01439
0
LINE
8
BLACK
6
CONTINUOUS
10
0.160664
20
1.01439
11
0.120715
21
1.01992
0
LINE
8
BLACK
6
CONTINUOUS
10
0.120715
20
1.01992
11
0.0805804
21
1.02387
0
LINE
8
BLACK
6
CONTINUOUS
10
0.0805804
20
1.02387
11
0.0403213
21
1.02625
0
LINE
8
BLACK
6
CONTINUOUS
10
0.0403213
20
1.02625
11
0
21
1.02704
0
LINE
8
BLACK
6
CONTINUOUS
10
0
20
1.02704
11
-0.0403213
21
1.02625
0
LINE
8
BLACK
6
CONTINUOUS
10
-0.0403213
20
1.02625
11
-0.0805804
21
1.02387
0
LINE
8
BLACK
6
CONTINUOUS
10
-0.0805804
20
1.02387
11
-0.120715
21
1.01992
0
LINE
8
BLACK
6
CONTINUOUS
10
-0.120715
20
1.01992
11
-0.160664
21
1.01439
0
LINE
8
BLACK
6
CONTINUOUS
10
-0.160664
20
1.01439
11
-0.200365
21
1.0073
0
LINE
8
BLACK
6
CONTINUOUS
10
-0.200365
20
1.0073
11
-0.239757
21
0.99866
0
LINE
8
BLACK
6
CONTINUOUS
10
-0.239757
20
0.99866
11
-0.278779
21
0.988477
0
LINE
8
BLACK
6
CONTINUOUS
10
-0.278779
20
0.988477
11
-0.317372
21
0.976771
0
LINE
8
BLACK
6
CONTINUOUS
10
-0.317372
20
0.976771
11
-0.355475
21
0.963558
0
LINE
8
BLACK
6
CONTINUOUS
10
-0.355475
20
0.963558
11
-0.39303
21
0.948859
0
LINE
8
BLACK
6
CONTINUOUS
10
-0.39303
20
0.948859
11
-0.429979
21
0.932697
0
LINE
8
BLACK
6
CONTINUOUS
10
-0.429979
20
0.932697
11
-0.466265
21
0.915097
0
LINE
8
BLACK
6
CONTINUOUS
10
-0.466265
20
0.915097
11
-0.501832
21
0.896086
0
LINE
8
BLACK
6
CONTINUOUS
10
-0.501832
20
0.896086
11
-0.536626
21
0.875693
0
LINE
8
BLACK
6
CONTINUOUS
10
-0.536626
20
0.875693
11
-0.570591
21
0.85395
0
LINE
8
BLACK
6
CONTINUOUS
10
-0.570591
20
0.85395
11
-0.603677
21
0.830891
0
LINE
8
BLACK
6
CONTINUOUS
10
-0.603677
20
0.830891
11
-0.635833
21
0.80655
0
LINE
8
BLACK
6
CONTINUOUS
10
-0.635833
20
0.80655
11
-0.667007
21
0.780965
0
LINE
8
BLACK
6
CONTINUOUS
10
-0.667007
20
0.780965
11
-0.697154
21
0.754177
0
LINE
8
BLACK
6
CONTINUOUS
10
-0.697154
20
0.754177
11
-0.726225
21
0.726225
0
LINE
8
BLACK
6
CONTINUOUS
10
-0.726225
20
0.726225
11
-0.754177
21
0.697154
0
LINE
8
BLACK
6
CONTINUOUS
10
-0.754177
20
0.697154
11
-0.780965
21
0.667007
0
LINE
8
BLACK
6
CONTINUOUS
10
-0.780965
20
0.667007
11
-0.80655
21
0.635833
0
LINE
8
BLACK
6
CONTINUOUS
10
-0.80655
20
0.635833
11
-0.830891
21
0.603677
0
LINE
8
BLACK
6
CONTINUOUS
10
-0.830891
20
0.603677
11
-0.85395
21
0.570591
0
LINE
8
BLACK
6
CONTINUOUS
10
-0.85395
20
0.570591
11
-0.875693
21
0.536626
0
LINE
8
BLACK
6
CONTINUOUS
10
-0.875693
20
0.536626
11
-0.896086
21
0.501832
0
LINE
8
BLACK
6
CONTINUOUS
10
-0.896086
20
0.501832
11
-0.915097
21
0.466265
0
LINE
8
BLACK
6
CONTINUOUS
10
-0.915097
20
0.466265
11
-0.932697
21
0.429979
0
LINE
8
BLACK
6
CONTINUOUS
10
-0.932697
20
0.429979
11
-0.948859
21
0.39303
0
LINE
8
BLACK
6
CONTINUOUS
10
-0.948859
20
0.39303
11
-0.963558
21
0.355475
0
LINE
8
BLACK
6
CONTINUOUS
10
-0.963558
20
0.355475
11
-0.976771
21
0.317372
0
LINE
8
BLACK
6
CONTINUOUS
10
-0.976771
20
0.317372
11
-0.988477
21
0.278779
0
LINE
8
BLACK
6
CONTINUOUS
10
-0.988477
20
0.278779
11
-0.99866
21
0.239757
0
LINE
8
BLACK
6
CONTINUOUS
10
-0.99866
20
0.239757
11
-1.0073
21
0.200365
0
LINE
8
BLACK
6
CONTINUOUS
10
-1.0073
20
0.200365
11
-1.01439
21
0.160664
0
LINE
8
BLACK
6
CONTINUOUS
10
-1.01439
20
0.160664
11
-1.01992
21
0.120715
0
LINE
8
BLACK
6
CONTINUOUS
10
-1.01992
20
0.120715
11
-1.02387
21
0.0805804
0
LINE
8
BLACK
6
CONTINUOUS
10
-1.02387
20
0.0805804
11
-1.02625
21
0.0403213
0
LINE
8
BLACK
6
CONTINUOUS
10
-1.02625
20
0.0403213
11
-1.02704
21
0
0
LINE
8
BLACK
6
CONTINUOUS
10
-1.02704
20
0
11
-1.02625
21
-0.0403213
  0
ENDSEC
  0
EOF
