  0
SECTION
  2
HEADER
  9
$ANGBASE
  50
0.0
  9
$ANGDIR
  70
1
  9
$MEASUREMENT
  70
0
  0
ENDSEC
  0
SECTION
  2
TABLES
  0
TABLE
  2
LTYPE
  70
4
  0
LTYPE
  5
40F
  2
CONTINUOUS
  70
0
  3
Solid line
  72
65
  73
0
  40
0.0
  0
LTYPE
  5
410
  2
DASHDOT
 70
0
  3
Dash Dot ____ _ ____ _
 72
65
 73
4
 40
2.0
 49
1.25
 49
-0.25
 49
0.25
 49
-0.25
  0
LTYPE
  5
411
  2
DASHED
 70
0
  3
Dashed __ __ __ __ __
 72
65
 73
2
 40
0.75
 49
0.5
 49
-0.25
  0
LTYPE
  5
43B
  2
DOTTED
 70
0
  3
Dotted .  .  .  .
 72
65
 73
2
 40
0.2
 49
0.0
 49
-0.2
  0
ENDTAB
  0
TABLE
  2
STYLE
  70
4
  0
STYLE
  2
KICAD
  70
0
  40
0
  41
1
  42
1
  50
0
  71
0
  3
isocp.shx
  0
STYLE
  2
KICADB
  70
0
  40
0
  41
1
  42
1
  50
0
  71
0
  3
isocp.shx
  0
STYLE
  2
KICADI
  70
0
  40
0
  41
1
  42
1
  50
15
  71
0
  3
isocp.shx
  0
STYLE
  2
KICADBI
  70
0
  40
0
  41
1
  42
1
  50
15
  71
0
  3
isocp.shx
  0
ENDTAB
  0
TABLE
  2
LAYER
  70
1
  0
LAYER
  2
BLACK
  70
0
  62
7
  6
CONTINUOUS
  0
ENDTAB
  0
ENDSEC
  0
SECTION
  2
ENTITIES
0
LINE
8
BLACK
6
CONTINUOUS
10
1.24668
20
-3.62614
11
1.24987
21
-3.62828
0
LINE
8
BLACK
6
CONTINUOUS
10
1.24987
20
-3.62828
11
1.25201
21
-3.63147
0
LINE
8
BLACK
6
CONTINUOUS
10
1.25201
20
-3.63147
11
1.25276
21
-3.63524
0
LINE
8
BLACK
6
CONTINUOUS
10
1.25276
20
-3.63524
11
1.25276
21
-3.67067
0
LINE
8
BLACK
6
CONTINUOUS
10
1.25276
20
-3.67067
11
1.25201
21
-3.67444
0
LINE
8
BLACK
6
CONTINUOUS
10
1.25201
20
-3.67444
11
1.24987
21
-3.67763
0
LINE
8
BLACK
6
CONTINUOUS
10
1.24987
20
-3.67763
11
1.24668
21
-3.67976
0
LINE
8
BLACK
6
CONTINUOUS
10
1.24668
20
-3.67976
11
1.24291
21
-3.68051
0
LINE
8
BLACK
6
CONTINUOUS
10
1.24291
20
-3.68051
11
1.22224
21
-3.68051
0
LINE
8
BLACK
6
CONTINUOUS
10
1.22224
20
-3.68051
11
1.21848
21
-3.67976
0
LINE
8
BLACK
6
CONTINUOUS
10
1.21848
20
-3.67976
11
1.21528
21
-3.67763
0
LINE
8
BLACK
6
CONTINUOUS
10
1.21528
20
-3.67763
11
1.21315
21
-3.67444
0
LINE
8
BLACK
6
CONTINUOUS
10
1.21315
20
-3.67444
11
1.2124
21
-3.67067
0
LINE
8
BLACK
6
CONTINUOUS
10
1.2124
20
-3.67067
11
1.2124
21
-3.63524
0
LINE
8
BLACK
6
CONTINUOUS
10
1.2124
20
-3.63524
11
1.21315
21
-3.63147
0
LINE
8
BLACK
6
CONTINUOUS
10
1.21315
20
-3.63147
11
1.21528
21
-3.62828
0
LINE
8
BLACK
6
CONTINUOUS
10
1.21528
20
-3.62828
11
1.21848
21
-3.62614
0
LINE
8
BLACK
6
CONTINUOUS
10
1.21848
20
-3.62614
11
1.22224
21
-3.62539
0
LINE
8
BLACK
6
CONTINUOUS
10
1.22224
20
-3.62539
11
1.24291
21
-3.62539
0
LINE
8
BLACK
6
CONTINUOUS
10
1.24291
20
-3.62539
11
1.24668
21
-3.62614
0
LINE
8
BLACK
6
CONTINUOUS
10
1.31853
20
-3.62614
11
1.32172
21
-3.62828
0
LINE
8
BLACK
6
CONTINUOUS
10
1.32172
20
-3.62828
11
1.32386
21
-3.63147
0
LINE
8
BLACK
6
CONTINUOUS
10
1.32386
20
-3.63147
11
1.32461
21
-3.63524
0
LINE
8
BLACK
6
CONTINUOUS
10
1.32461
20
-3.63524
11
1.32461
21
-3.67067
0
LINE
8
BLACK
6
CONTINUOUS
10
1.32461
20
-3.67067
11
1.32386
21
-3.67444
0
LINE
8
BLACK
6
CONTINUOUS
10
1.32386
20
-3.67444
11
1.32172
21
-3.67763
0
LINE
8
BLACK
6
CONTINUOUS
10
1.32172
20
-3.67763
11
1.31853
21
-3.67976
0
LINE
8
BLACK
6
CONTINUOUS
10
1.31853
20
-3.67976
11
1.31476
21
-3.68051
0
LINE
8
BLACK
6
CONTINUOUS
10
1.31476
20
-3.68051
11
1.29409
21
-3.68051
0
LINE
8
BLACK
6
CONTINUOUS
10
1.29409
20
-3.68051
11
1.29033
21
-3.67976
0
LINE
8
BLACK
6
CONTINUOUS
10
1.29033
20
-3.67976
11
1.28713
21
-3.67763
0
LINE
8
BLACK
6
CONTINUOUS
10
1.28713
20
-3.67763
11
1.285
21
-3.67444
0
LINE
8
BLACK
6
CONTINUOUS
10
1.285
20
-3.67444
11
1.28425
21
-3.67067
0
LINE
8
BLACK
6
CONTINUOUS
10
1.28425
20
-3.67067
11
1.28425
21
-3.63524
0
LINE
8
BLACK
6
CONTINUOUS
10
1.28425
20
-3.63524
11
1.285
21
-3.63147
0
LINE
8
BLACK
6
CONTINUOUS
10
1.285
20
-3.63147
11
1.28713
21
-3.62828
0
LINE
8
BLACK
6
CONTINUOUS
10
1.28713
20
-3.62828
11
1.29033
21
-3.62614
0
LINE
8
BLACK
6
CONTINUOUS
10
1.29033
20
-3.62614
11
1.29409
21
-3.62539
0
LINE
8
BLACK
6
CONTINUOUS
10
1.29409
20
-3.62539
11
1.31476
21
-3.62539
0
LINE
8
BLACK
6
CONTINUOUS
10
1.31476
20
-3.62539
11
1.31853
21
-3.62614
0
LINE
8
BLACK
6
CONTINUOUS
10
1.12667
20
-3.46502
11
1.12859
21
-3.4663
0
LINE
8
BLACK
6
CONTINUOUS
10
1.12859
20
-3.4663
11
1.12987
21
-3.46821
0
LINE
8
BLACK
6
CONTINUOUS
10
1.12987
20
-3.46821
11
1.13031
21
-3.47047
0
LINE
8
BLACK
6
CONTINUOUS
10
1.13031
20
-3.47047
11
1.13031
21
-3.53543
0
LINE
8
BLACK
6
CONTINUOUS
10
1.13031
20
-3.53543
11
1.12987
21
-3.53769
0
LINE
8
BLACK
6
CONTINUOUS
10
1.12987
20
-3.53769
11
1.12859
21
-3.53961
0
LINE
8
BLACK
6
CONTINUOUS
10
1.12859
20
-3.53961
11
1.12667
21
-3.54089
0
LINE
8
BLACK
6
CONTINUOUS
10
1.12667
20
-3.54089
11
1.12441
21
-3.54134
0
LINE
8
BLACK
6
CONTINUOUS
10
1.12441
20
-3.54134
11
1.1126
21
-3.54134
0
LINE
8
BLACK
6
CONTINUOUS
10
1.1126
20
-3.54134
11
1.11034
21
-3.54089
0
LINE
8
BLACK
6
CONTINUOUS
10
1.11034
20
-3.54089
11
1.10842
21
-3.53961
0
LINE
8
BLACK
6
CONTINUOUS
10
1.10842
20
-3.53961
11
1.10714
21
-3.53769
0
LINE
8
BLACK
6
CONTINUOUS
10
1.10714
20
-3.53769
11
1.10669
21
-3.53543
0
LINE
8
BLACK
6
CONTINUOUS
10
1.10669
20
-3.53543
11
1.10669
21
-3.47047
0
LINE
8
BLACK
6
CONTINUOUS
10
1.10669
20
-3.47047
11
1.10714
21
-3.46821
0
LINE
8
BLACK
6
CONTINUOUS
10
1.10714
20
-3.46821
11
1.10842
21
-3.4663
0
LINE
8
BLACK
6
CONTINUOUS
10
1.10842
20
-3.4663
11
1.11034
21
-3.46502
0
LINE
8
BLACK
6
CONTINUOUS
10
1.11034
20
-3.46502
11
1.1126
21
-3.46457
0
LINE
8
BLACK
6
CONTINUOUS
10
1.1126
20
-3.46457
11
1.12441
21
-3.46457
0
LINE
8
BLACK
6
CONTINUOUS
10
1.12441
20
-3.46457
11
1.12667
21
-3.46502
0
LINE
8
BLACK
6
CONTINUOUS
10
1.17667
20
-3.46502
11
1.17859
21
-3.4663
0
LINE
8
BLACK
6
CONTINUOUS
10
1.17859
20
-3.4663
11
1.17987
21
-3.46821
0
LINE
8
BLACK
6
CONTINUOUS
10
1.17987
20
-3.46821
11
1.18031
21
-3.47047
0
LINE
8
BLACK
6
CONTINUOUS
10
1.18031
20
-3.47047
11
1.18031
21
-3.53543
0
LINE
8
BLACK
6
CONTINUOUS
10
1.18031
20
-3.53543
11
1.17987
21
-3.53769
0
LINE
8
BLACK
6
CONTINUOUS
10
1.17987
20
-3.53769
11
1.17859
21
-3.53961
0
LINE
8
BLACK
6
CONTINUOUS
10
1.17859
20
-3.53961
11
1.17667
21
-3.54089
0
LINE
8
BLACK
6
CONTINUOUS
10
1.17667
20
-3.54089
11
1.17441
21
-3.54134
0
LINE
8
BLACK
6
CONTINUOUS
10
1.17441
20
-3.54134
11
1.1626
21
-3.54134
0
LINE
8
BLACK
6
CONTINUOUS
10
1.1626
20
-3.54134
11
1.16034
21
-3.54089
0
LINE
8
BLACK
6
CONTINUOUS
10
1.16034
20
-3.54089
11
1.15842
21
-3.53961
0
LINE
8
BLACK
6
CONTINUOUS
10
1.15842
20
-3.53961
11
1.15714
21
-3.53769
0
LINE
8
BLACK
6
CONTINUOUS
10
1.15714
20
-3.53769
11
1.15669
21
-3.53543
0
LINE
8
BLACK
6
CONTINUOUS
10
1.15669
20
-3.53543
11
1.15669
21
-3.47047
0
LINE
8
BLACK
6
CONTINUOUS
10
1.15669
20
-3.47047
11
1.15714
21
-3.46821
0
LINE
8
BLACK
6
CONTINUOUS
10
1.15714
20
-3.46821
11
1.15842
21
-3.4663
0
LINE
8
BLACK
6
CONTINUOUS
10
1.15842
20
-3.4663
11
1.16034
21
-3.46502
0
LINE
8
BLACK
6
CONTINUOUS
10
1.16034
20
-3.46502
11
1.1626
21
-3.46457
0
LINE
8
BLACK
6
CONTINUOUS
10
1.1626
20
-3.46457
11
1.17441
21
-3.46457
0
LINE
8
BLACK
6
CONTINUOUS
10
1.17441
20
-3.46457
11
1.17667
21
-3.46502
0
LINE
8
BLACK
6
CONTINUOUS
10
1.22667
20
-3.46502
11
1.22859
21
-3.4663
0
LINE
8
BLACK
6
CONTINUOUS
10
1.22859
20
-3.4663
11
1.22987
21
-3.46821
0
LINE
8
BLACK
6
CONTINUOUS
10
1.22987
20
-3.46821
11
1.23031
21
-3.47047
0
LINE
8
BLACK
6
CONTINUOUS
10
1.23031
20
-3.47047
11
1.23031
21
-3.53543
0
LINE
8
BLACK
6
CONTINUOUS
10
1.23031
20
-3.53543
11
1.22987
21
-3.53769
0
LINE
8
BLACK
6
CONTINUOUS
10
1.22987
20
-3.53769
11
1.22859
21
-3.53961
0
LINE
8
BLACK
6
CONTINUOUS
10
1.22859
20
-3.53961
11
1.22667
21
-3.54089
0
LINE
8
BLACK
6
CONTINUOUS
10
1.22667
20
-3.54089
11
1.22441
21
-3.54134
0
LINE
8
BLACK
6
CONTINUOUS
10
1.22441
20
-3.54134
11
1.2126
21
-3.54134
0
LINE
8
BLACK
6
CONTINUOUS
10
1.2126
20
-3.54134
11
1.21034
21
-3.54089
0
LINE
8
BLACK
6
CONTINUOUS
10
1.21034
20
-3.54089
11
1.20842
21
-3.53961
0
LINE
8
BLACK
6
CONTINUOUS
10
1.20842
20
-3.53961
11
1.20714
21
-3.53769
0
LINE
8
BLACK
6
CONTINUOUS
10
1.20714
20
-3.53769
11
1.20669
21
-3.53543
0
LINE
8
BLACK
6
CONTINUOUS
10
1.20669
20
-3.53543
11
1.20669
21
-3.47047
0
LINE
8
BLACK
6
CONTINUOUS
10
1.20669
20
-3.47047
11
1.20714
21
-3.46821
0
LINE
8
BLACK
6
CONTINUOUS
10
1.20714
20
-3.46821
11
1.20842
21
-3.4663
0
LINE
8
BLACK
6
CONTINUOUS
10
1.20842
20
-3.4663
11
1.21034
21
-3.46502
0
LINE
8
BLACK
6
CONTINUOUS
10
1.21034
20
-3.46502
11
1.2126
21
-3.46457
0
LINE
8
BLACK
6
CONTINUOUS
10
1.2126
20
-3.46457
11
1.22441
21
-3.46457
0
LINE
8
BLACK
6
CONTINUOUS
10
1.22441
20
-3.46457
11
1.22667
21
-3.46502
0
LINE
8
BLACK
6
CONTINUOUS
10
1.27667
20
-3.46502
11
1.27859
21
-3.4663
0
LINE
8
BLACK
6
CONTINUOUS
10
1.27859
20
-3.4663
11
1.27987
21
-3.46821
0
LINE
8
BLACK
6
CONTINUOUS
10
1.27987
20
-3.46821
11
1.28031
21
-3.47047
0
LINE
8
BLACK
6
CONTINUOUS
10
1.28031
20
-3.47047
11
1.28031
21
-3.53543
0
LINE
8
BLACK
6
CONTINUOUS
10
1.28031
20
-3.53543
11
1.27987
21
-3.53769
0
LINE
8
BLACK
6
CONTINUOUS
10
1.27987
20
-3.53769
11
1.27859
21
-3.53961
0
LINE
8
BLACK
6
CONTINUOUS
10
1.27859
20
-3.53961
11
1.27667
21
-3.54089
0
LINE
8
BLACK
6
CONTINUOUS
10
1.27667
20
-3.54089
11
1.27441
21
-3.54134
0
LINE
8
BLACK
6
CONTINUOUS
10
1.27441
20
-3.54134
11
1.2626
21
-3.54134
0
LINE
8
BLACK
6
CONTINUOUS
10
1.2626
20
-3.54134
11
1.26034
21
-3.54089
0
LINE
8
BLACK
6
CONTINUOUS
10
1.26034
20
-3.54089
11
1.25842
21
-3.53961
0
LINE
8
BLACK
6
CONTINUOUS
10
1.25842
20
-3.53961
11
1.25714
21
-3.53769
0
LINE
8
BLACK
6
CONTINUOUS
10
1.25714
20
-3.53769
11
1.25669
21
-3.53543
0
LINE
8
BLACK
6
CONTINUOUS
10
1.25669
20
-3.53543
11
1.25669
21
-3.47047
0
LINE
8
BLACK
6
CONTINUOUS
10
1.25669
20
-3.47047
11
1.25714
21
-3.46821
0
LINE
8
BLACK
6
CONTINUOUS
10
1.25714
20
-3.46821
11
1.25842
21
-3.4663
0
LINE
8
BLACK
6
CONTINUOUS
10
1.25842
20
-3.4663
11
1.26034
21
-3.46502
0
LINE
8
BLACK
6
CONTINUOUS
10
1.26034
20
-3.46502
11
1.2626
21
-3.46457
0
LINE
8
BLACK
6
CONTINUOUS
10
1.2626
20
-3.46457
11
1.27441
21
-3.46457
0
LINE
8
BLACK
6
CONTINUOUS
10
1.27441
20
-3.46457
11
1.27667
21
-3.46502
0
LINE
8
BLACK
6
CONTINUOUS
10
1.41499
20
-3.42201
11
1.41818
21
-3.42414
0
LINE
8
BLACK
6
CONTINUOUS
10
1.41818
20
-3.42414
11
1.42031
21
-3.42734
0
LINE
8
BLACK
6
CONTINUOUS
10
1.42031
20
-3.42734
11
1.42106
21
-3.4311
0
LINE
8
BLACK
6
CONTINUOUS
10
1.42106
20
-3.4311
11
1.42106
21
-3.45177
0
LINE
8
BLACK
6
CONTINUOUS
10
1.42106
20
-3.45177
11
1.42031
21
-3.45554
0
LINE
8
BLACK
6
CONTINUOUS
10
1.42031
20
-3.45554
11
1.41818
21
-3.45873
0
LINE
8
BLACK
6
CONTINUOUS
10
1.41818
20
-3.45873
11
1.41499
21
-3.46086
0
LINE
8
BLACK
6
CONTINUOUS
10
1.41499
20
-3.46086
11
1.41122
21
-3.46161
0
LINE
8
BLACK
6
CONTINUOUS
10
1.41122
20
-3.46161
11
1.37579
21
-3.46161
0
LINE
8
BLACK
6
CONTINUOUS
10
1.37579
20
-3.46161
11
1.37202
21
-3.46086
0
LINE
8
BLACK
6
CONTINUOUS
10
1.37202
20
-3.46086
11
1.36883
21
-3.45873
0
LINE
8
BLACK
6
CONTINUOUS
10
1.36883
20
-3.45873
11
1.36669
21
-3.45554
0
LINE
8
BLACK
6
CONTINUOUS
10
1.36669
20
-3.45554
11
1.36594
21
-3.45177
0
LINE
8
BLACK
6
CONTINUOUS
10
1.36594
20
-3.45177
11
1.36594
21
-3.4311
0
LINE
8
BLACK
6
CONTINUOUS
10
1.36594
20
-3.4311
11
1.36669
21
-3.42734
0
LINE
8
BLACK
6
CONTINUOUS
10
1.36669
20
-3.42734
11
1.36883
21
-3.42414
0
LINE
8
BLACK
6
CONTINUOUS
10
1.36883
20
-3.42414
11
1.37202
21
-3.42201
0
LINE
8
BLACK
6
CONTINUOUS
10
1.37202
20
-3.42201
11
1.37579
21
-3.42126
0
LINE
8
BLACK
6
CONTINUOUS
10
1.37579
20
-3.42126
11
1.41122
21
-3.42126
0
LINE
8
BLACK
6
CONTINUOUS
10
1.41122
20
-3.42126
11
1.41499
21
-3.42201
0
LINE
8
BLACK
6
CONTINUOUS
10
4.37905
20
-3.45804
11
4.38229
21
-3.45923
0
LINE
8
BLACK
6
CONTINUOUS
10
4.38229
20
-3.45923
11
4.38483
21
-3.46158
0
LINE
8
BLACK
6
CONTINUOUS
10
4.38483
20
-3.46158
11
4.38627
21
-3.46472
0
LINE
8
BLACK
6
CONTINUOUS
10
4.38627
20
-3.46472
11
4.38641
21
-3.46817
0
LINE
8
BLACK
6
CONTINUOUS
10
4.38641
20
-3.46817
11
4.38364
21
-3.48567
0
LINE
8
BLACK
6
CONTINUOUS
10
4.38364
20
-3.48567
11
4.38244
21
-3.48891
0
LINE
8
BLACK
6
CONTINUOUS
10
4.38244
20
-3.48891
11
4.3801
21
-3.49145
0
LINE
8
BLACK
6
CONTINUOUS
10
4.3801
20
-3.49145
11
4.37696
21
-3.4929
0
LINE
8
BLACK
6
CONTINUOUS
10
4.37696
20
-3.4929
11
4.3735
21
-3.49303
0
LINE
8
BLACK
6
CONTINUOUS
10
4.3735
20
-3.49303
11
4.35406
21
-3.48995
0
LINE
8
BLACK
6
CONTINUOUS
10
4.35406
20
-3.48995
11
4.35082
21
-3.48876
0
LINE
8
BLACK
6
CONTINUOUS
10
4.35082
20
-3.48876
11
4.34828
21
-3.48641
0
LINE
8
BLACK
6
CONTINUOUS
10
4.34828
20
-3.48641
11
4.34683
21
-3.48327
0
LINE
8
BLACK
6
CONTINUOUS
10
4.34683
20
-3.48327
11
4.3467
21
-3.47982
0
LINE
8
BLACK
6
CONTINUOUS
10
4.3467
20
-3.47982
11
4.34947
21
-3.46232
0
LINE
8
BLACK
6
CONTINUOUS
10
4.34947
20
-3.46232
11
4.35067
21
-3.45908
0
LINE
8
BLACK
6
CONTINUOUS
10
4.35067
20
-3.45908
11
4.35301
21
-3.45654
0
LINE
8
BLACK
6
CONTINUOUS
10
4.35301
20
-3.45654
11
4.35615
21
-3.45509
0
LINE
8
BLACK
6
CONTINUOUS
10
4.35615
20
-3.45509
11
4.3596
21
-3.45496
0
LINE
8
BLACK
6
CONTINUOUS
10
4.3596
20
-3.45496
11
4.37905
21
-3.45804
0
LINE
8
BLACK
6
CONTINUOUS
10
4.63457
20
-3.45701
11
4.63763
21
-3.45862
0
LINE
8
BLACK
6
CONTINUOUS
10
4.63763
20
-3.45862
11
4.63984
21
-3.46128
0
LINE
8
BLACK
6
CONTINUOUS
10
4.63984
20
-3.46128
11
4.64086
21
-3.46458
0
LINE
8
BLACK
6
CONTINUOUS
10
4.64086
20
-3.46458
11
4.64271
21
-3.4822
0
LINE
8
BLACK
6
CONTINUOUS
10
4.64271
20
-3.4822
11
4.6424
21
-3.48564
0
LINE
8
BLACK
6
CONTINUOUS
10
4.6424
20
-3.48564
11
4.64079
21
-3.4887
0
LINE
8
BLACK
6
CONTINUOUS
10
4.64079
20
-3.4887
11
4.63813
21
-3.49091
0
LINE
8
BLACK
6
CONTINUOUS
10
4.63813
20
-3.49091
11
4.63483
21
-3.49194
0
LINE
8
BLACK
6
CONTINUOUS
10
4.63483
20
-3.49194
11
4.61525
21
-3.49399
0
LINE
8
BLACK
6
CONTINUOUS
10
4.61525
20
-3.49399
11
4.61181
21
-3.49368
0
LINE
8
BLACK
6
CONTINUOUS
10
4.61181
20
-3.49368
11
4.60875
21
-3.49207
0
LINE
8
BLACK
6
CONTINUOUS
10
4.60875
20
-3.49207
11
4.60654
21
-3.48941
0
LINE
8
BLACK
6
CONTINUOUS
10
4.60654
20
-3.48941
11
4.60552
21
-3.48611
0
LINE
8
BLACK
6
CONTINUOUS
10
4.60552
20
-3.48611
11
4.60367
21
-3.46849
0
LINE
8
BLACK
6
CONTINUOUS
10
4.60367
20
-3.46849
11
4.60398
21
-3.46505
0
LINE
8
BLACK
6
CONTINUOUS
10
4.60398
20
-3.46505
11
4.60559
21
-3.46199
0
LINE
8
BLACK
6
CONTINUOUS
10
4.60559
20
-3.46199
11
4.60825
21
-3.45978
0
LINE
8
BLACK
6
CONTINUOUS
10
4.60825
20
-3.45978
11
4.61155
21
-3.45875
0
LINE
8
BLACK
6
CONTINUOUS
10
4.61155
20
-3.45875
11
4.63113
21
-3.4567
0
LINE
8
BLACK
6
CONTINUOUS
10
4.63113
20
-3.4567
11
4.63457
21
-3.45701
0
LINE
8
BLACK
6
CONTINUOUS
10
1.41499
20
-3.35016
11
1.41818
21
-3.35229
0
LINE
8
BLACK
6
CONTINUOUS
10
1.41818
20
-3.35229
11
1.42031
21
-3.35549
0
LINE
8
BLACK
6
CONTINUOUS
10
1.42031
20
-3.35549
11
1.42106
21
-3.35925
0
LINE
8
BLACK
6
CONTINUOUS
10
1.42106
20
-3.35925
11
1.42106
21
-3.37992
0
LINE
8
BLACK
6
CONTINUOUS
10
1.42106
20
-3.37992
11
1.42031
21
-3.38369
0
LINE
8
BLACK
6
CONTINUOUS
10
1.42031
20
-3.38369
11
1.41818
21
-3.38688
0
LINE
8
BLACK
6
CONTINUOUS
10
1.41818
20
-3.38688
11
1.41499
21
-3.38901
0
LINE
8
BLACK
6
CONTINUOUS
10
1.41499
20
-3.38901
11
1.41122
21
-3.38976
0
LINE
8
BLACK
6
CONTINUOUS
10
1.41122
20
-3.38976
11
1.37579
21
-3.38976
0
LINE
8
BLACK
6
CONTINUOUS
10
1.37579
20
-3.38976
11
1.37202
21
-3.38901
0
LINE
8
BLACK
6
CONTINUOUS
10
1.37202
20
-3.38901
11
1.36883
21
-3.38688
0
LINE
8
BLACK
6
CONTINUOUS
10
1.36883
20
-3.38688
11
1.36669
21
-3.38369
0
LINE
8
BLACK
6
CONTINUOUS
10
1.36669
20
-3.38369
11
1.36594
21
-3.37992
0
LINE
8
BLACK
6
CONTINUOUS
10
1.36594
20
-3.37992
11
1.36594
21
-3.35925
0
LINE
8
BLACK
6
CONTINUOUS
10
1.36594
20
-3.35925
11
1.36669
21
-3.35549
0
LINE
8
BLACK
6
CONTINUOUS
10
1.36669
20
-3.35549
11
1.36883
21
-3.35229
0
LINE
8
BLACK
6
CONTINUOUS
10
1.36883
20
-3.35229
11
1.37202
21
-3.35016
0
LINE
8
BLACK
6
CONTINUOUS
10
1.37202
20
-3.35016
11
1.37579
21
-3.34941
0
LINE
8
BLACK
6
CONTINUOUS
10
1.37579
20
-3.34941
11
1.41122
21
-3.34941
0
LINE
8
BLACK
6
CONTINUOUS
10
1.41122
20
-3.34941
11
1.41499
21
-3.35016
0
LINE
8
BLACK
6
CONTINUOUS
10
4.11723
20
-3.38608
11
4.13521
21
-3.39409
0
LINE
8
BLACK
6
CONTINUOUS
10
4.13521
20
-3.39409
11
4.13803
21
-3.39608
0
LINE
8
BLACK
6
CONTINUOUS
10
4.13803
20
-3.39608
11
4.13988
21
-3.399
0
LINE
8
BLACK
6
CONTINUOUS
10
4.13988
20
-3.399
11
4.14046
21
-3.40241
0
LINE
8
BLACK
6
CONTINUOUS
10
4.14046
20
-3.40241
11
4.1397
21
-3.40578
0
LINE
8
BLACK
6
CONTINUOUS
10
4.1397
20
-3.40578
11
4.13249
21
-3.42197
0
LINE
8
BLACK
6
CONTINUOUS
10
4.13249
20
-3.42197
11
4.1305
21
-3.42479
0
LINE
8
BLACK
6
CONTINUOUS
10
4.1305
20
-3.42479
11
4.12758
21
-3.42663
0
LINE
8
BLACK
6
CONTINUOUS
10
4.12758
20
-3.42663
11
4.12417
21
-3.42722
0
LINE
8
BLACK
6
CONTINUOUS
10
4.12417
20
-3.42722
11
4.1208
21
-3.42646
0
LINE
8
BLACK
6
CONTINUOUS
10
4.1208
20
-3.42646
11
4.10282
21
-3.41845
0
LINE
8
BLACK
6
CONTINUOUS
10
4.10282
20
-3.41845
11
4.09999
21
-3.41645
0
LINE
8
BLACK
6
CONTINUOUS
10
4.09999
20
-3.41645
11
4.09815
21
-3.41353
0
LINE
8
BLACK
6
CONTINUOUS
10
4.09815
20
-3.41353
11
4.09756
21
-3.41013
0
LINE
8
BLACK
6
CONTINUOUS
10
4.09756
20
-3.41013
11
4.09833
21
-3.40675
0
LINE
8
BLACK
6
CONTINUOUS
10
4.09833
20
-3.40675
11
4.10553
21
-3.39057
0
LINE
8
BLACK
6
CONTINUOUS
10
4.10553
20
-3.39057
11
4.10753
21
-3.38775
0
LINE
8
BLACK
6
CONTINUOUS
10
4.10753
20
-3.38775
11
4.11045
21
-3.3859
0
LINE
8
BLACK
6
CONTINUOUS
10
4.11045
20
-3.3859
11
4.11386
21
-3.38532
0
LINE
8
BLACK
6
CONTINUOUS
10
4.11386
20
-3.38532
11
4.11723
21
-3.38608
0
LINE
8
BLACK
6
CONTINUOUS
10
4.38859
20
-3.39776
11
4.39184
21
-3.39896
0
LINE
8
BLACK
6
CONTINUOUS
10
4.39184
20
-3.39896
11
4.39437
21
-3.40131
0
LINE
8
BLACK
6
CONTINUOUS
10
4.39437
20
-3.40131
11
4.39582
21
-3.40444
0
LINE
8
BLACK
6
CONTINUOUS
10
4.39582
20
-3.40444
11
4.39596
21
-3.4079
0
LINE
8
BLACK
6
CONTINUOUS
10
4.39596
20
-3.4079
11
4.39318
21
-3.4254
0
LINE
8
BLACK
6
CONTINUOUS
10
4.39318
20
-3.4254
11
4.39199
21
-3.42864
0
LINE
8
BLACK
6
CONTINUOUS
10
4.39199
20
-3.42864
11
4.38964
21
-3.43118
0
LINE
8
BLACK
6
CONTINUOUS
10
4.38964
20
-3.43118
11
4.3865
21
-3.43262
0
LINE
8
BLACK
6
CONTINUOUS
10
4.3865
20
-3.43262
11
4.38305
21
-3.43276
0
LINE
8
BLACK
6
CONTINUOUS
10
4.38305
20
-3.43276
11
4.36361
21
-3.42968
0
LINE
8
BLACK
6
CONTINUOUS
10
4.36361
20
-3.42968
11
4.36036
21
-3.42848
0
LINE
8
BLACK
6
CONTINUOUS
10
4.36036
20
-3.42848
11
4.35783
21
-3.42614
0
LINE
8
BLACK
6
CONTINUOUS
10
4.35783
20
-3.42614
11
4.35638
21
-3.423
0
LINE
8
BLACK
6
CONTINUOUS
10
4.35638
20
-3.423
11
4.35624
21
-3.41955
0
LINE
8
BLACK
6
CONTINUOUS
10
4.35624
20
-3.41955
11
4.35902
21
-3.40205
0
LINE
8
BLACK
6
CONTINUOUS
10
4.35902
20
-3.40205
11
4.36021
21
-3.3988
0
LINE
8
BLACK
6
CONTINUOUS
10
4.36021
20
-3.3988
11
4.36256
21
-3.39627
0
LINE
8
BLACK
6
CONTINUOUS
10
4.36256
20
-3.39627
11
4.3657
21
-3.39482
0
LINE
8
BLACK
6
CONTINUOUS
10
4.3657
20
-3.39482
11
4.36915
21
-3.39468
0
LINE
8
BLACK
6
CONTINUOUS
10
4.36915
20
-3.39468
11
4.38859
21
-3.39776
0
LINE
8
BLACK
6
CONTINUOUS
10
4.62819
20
-3.39632
11
4.63125
21
-3.39793
0
LINE
8
BLACK
6
CONTINUOUS
10
4.63125
20
-3.39793
11
4.63346
21
-3.40059
0
LINE
8
BLACK
6
CONTINUOUS
10
4.63346
20
-3.40059
11
4.63448
21
-3.40389
0
LINE
8
BLACK
6
CONTINUOUS
10
4.63448
20
-3.40389
11
4.63633
21
-3.42151
0
LINE
8
BLACK
6
CONTINUOUS
10
4.63633
20
-3.42151
11
4.63602
21
-3.42495
0
LINE
8
BLACK
6
CONTINUOUS
10
4.63602
20
-3.42495
11
4.63441
21
-3.42801
0
LINE
8
BLACK
6
CONTINUOUS
10
4.63441
20
-3.42801
11
4.63175
21
-3.43022
0
LINE
8
BLACK
6
CONTINUOUS
10
4.63175
20
-3.43022
11
4.62845
21
-3.43125
0
LINE
8
BLACK
6
CONTINUOUS
10
4.62845
20
-3.43125
11
4.60887
21
-3.4333
0
LINE
8
BLACK
6
CONTINUOUS
10
4.60887
20
-3.4333
11
4.60543
21
-3.43299
0
LINE
8
BLACK
6
CONTINUOUS
10
4.60543
20
-3.43299
11
4.60237
21
-3.43138
0
LINE
8
BLACK
6
CONTINUOUS
10
4.60237
20
-3.43138
11
4.60016
21
-3.42872
0
LINE
8
BLACK
6
CONTINUOUS
10
4.60016
20
-3.42872
11
4.59914
21
-3.42542
0
LINE
8
BLACK
6
CONTINUOUS
10
4.59914
20
-3.42542
11
4.59729
21
-3.4078
0
LINE
8
BLACK
6
CONTINUOUS
10
4.59729
20
-3.4078
11
4.5976
21
-3.40436
0
LINE
8
BLACK
6
CONTINUOUS
10
4.5976
20
-3.40436
11
4.59921
21
-3.4013
0
LINE
8
BLACK
6
CONTINUOUS
10
4.59921
20
-3.4013
11
4.60187
21
-3.39909
0
LINE
8
BLACK
6
CONTINUOUS
10
4.60187
20
-3.39909
11
4.60517
21
-3.39806
0
LINE
8
BLACK
6
CONTINUOUS
10
4.60517
20
-3.39806
11
4.62475
21
-3.39601
0
LINE
8
BLACK
6
CONTINUOUS
10
4.62475
20
-3.39601
11
4.62819
21
-3.39632
0
LINE
8
BLACK
6
CONTINUOUS
10
4.88105
20
-3.39034
11
4.88387
21
-3.39233
0
LINE
8
BLACK
6
CONTINUOUS
10
4.88387
20
-3.39233
11
4.88571
21
-3.39526
0
LINE
8
BLACK
6
CONTINUOUS
10
4.88571
20
-3.39526
11
4.89206
21
-3.4118
0
LINE
8
BLACK
6
CONTINUOUS
10
4.89206
20
-3.4118
11
4.89265
21
-3.4152
0
LINE
8
BLACK
6
CONTINUOUS
10
4.89265
20
-3.4152
11
4.89189
21
-3.41857
0
LINE
8
BLACK
6
CONTINUOUS
10
4.89189
20
-3.41857
11
4.88989
21
-3.4214
0
LINE
8
BLACK
6
CONTINUOUS
10
4.88989
20
-3.4214
11
4.88697
21
-3.42324
0
LINE
8
BLACK
6
CONTINUOUS
10
4.88697
20
-3.42324
11
4.86859
21
-3.43029
0
LINE
8
BLACK
6
CONTINUOUS
10
4.86859
20
-3.43029
11
4.86518
21
-3.43088
0
LINE
8
BLACK
6
CONTINUOUS
10
4.86518
20
-3.43088
11
4.86181
21
-3.43012
0
LINE
8
BLACK
6
CONTINUOUS
10
4.86181
20
-3.43012
11
4.85899
21
-3.42812
0
LINE
8
BLACK
6
CONTINUOUS
10
4.85899
20
-3.42812
11
4.85715
21
-3.4252
0
LINE
8
BLACK
6
CONTINUOUS
10
4.85715
20
-3.4252
11
4.8508
21
-3.40866
0
LINE
8
BLACK
6
CONTINUOUS
10
4.8508
20
-3.40866
11
4.85021
21
-3.40525
0
LINE
8
BLACK
6
CONTINUOUS
10
4.85021
20
-3.40525
11
4.85097
21
-3.40188
0
LINE
8
BLACK
6
CONTINUOUS
10
4.85097
20
-3.40188
11
4.85297
21
-3.39906
0
LINE
8
BLACK
6
CONTINUOUS
10
4.85297
20
-3.39906
11
4.85589
21
-3.39721
0
LINE
8
BLACK
6
CONTINUOUS
10
4.85589
20
-3.39721
11
4.87427
21
-3.39016
0
LINE
8
BLACK
6
CONTINUOUS
10
4.87427
20
-3.39016
11
4.87768
21
-3.38957
0
LINE
8
BLACK
6
CONTINUOUS
10
4.87768
20
-3.38957
11
4.88105
21
-3.39034
0
LINE
8
BLACK
6
CONTINUOUS
10
1.12667
20
-3.27013
11
1.12859
21
-3.27141
0
LINE
8
BLACK
6
CONTINUOUS
10
1.12859
20
-3.27141
11
1.12987
21
-3.27333
0
LINE
8
BLACK
6
CONTINUOUS
10
1.12987
20
-3.27333
11
1.13031
21
-3.27559
0
LINE
8
BLACK
6
CONTINUOUS
10
1.13031
20
-3.27559
11
1.13031
21
-3.34055
0
LINE
8
BLACK
6
CONTINUOUS
10
1.13031
20
-3.34055
11
1.12987
21
-3.34281
0
LINE
8
BLACK
6
CONTINUOUS
10
1.12987
20
-3.34281
11
1.12859
21
-3.34473
0
LINE
8
BLACK
6
CONTINUOUS
10
1.12859
20
-3.34473
11
1.12667
21
-3.34601
0
LINE
8
BLACK
6
CONTINUOUS
10
1.12667
20
-3.34601
11
1.12441
21
-3.34646
0
LINE
8
BLACK
6
CONTINUOUS
10
1.12441
20
-3.34646
11
1.1126
21
-3.34646
0
LINE
8
BLACK
6
CONTINUOUS
10
1.1126
20
-3.34646
11
1.11034
21
-3.34601
0
LINE
8
BLACK
6
CONTINUOUS
10
1.11034
20
-3.34601
11
1.10842
21
-3.34473
0
LINE
8
BLACK
6
CONTINUOUS
10
1.10842
20
-3.34473
11
1.10714
21
-3.34281
0
LINE
8
BLACK
6
CONTINUOUS
10
1.10714
20
-3.34281
11
1.10669
21
-3.34055
0
LINE
8
BLACK
6
CONTINUOUS
10
1.10669
20
-3.34055
11
1.10669
21
-3.27559
0
LINE
8
BLACK
6
CONTINUOUS
10
1.10669
20
-3.27559
11
1.10714
21
-3.27333
0
LINE
8
BLACK
6
CONTINUOUS
10
1.10714
20
-3.27333
11
1.10842
21
-3.27141
0
LINE
8
BLACK
6
CONTINUOUS
10
1.10842
20
-3.27141
11
1.11034
21
-3.27013
0
LINE
8
BLACK
6
CONTINUOUS
10
1.11034
20
-3.27013
11
1.1126
21
-3.26969
0
LINE
8
BLACK
6
CONTINUOUS
10
1.1126
20
-3.26969
11
1.12441
21
-3.26969
0
LINE
8
BLACK
6
CONTINUOUS
10
1.12441
20
-3.26969
11
1.12667
21
-3.27013
0
LINE
8
BLACK
6
CONTINUOUS
10
1.17667
20
-3.27013
11
1.17859
21
-3.27141
0
LINE
8
BLACK
6
CONTINUOUS
10
1.17859
20
-3.27141
11
1.17987
21
-3.27333
0
LINE
8
BLACK
6
CONTINUOUS
10
1.17987
20
-3.27333
11
1.18031
21
-3.27559
0
LINE
8
BLACK
6
CONTINUOUS
10
1.18031
20
-3.27559
11
1.18031
21
-3.34055
0
LINE
8
BLACK
6
CONTINUOUS
10
1.18031
20
-3.34055
11
1.17987
21
-3.34281
0
LINE
8
BLACK
6
CONTINUOUS
10
1.17987
20
-3.34281
11
1.17859
21
-3.34473
0
LINE
8
BLACK
6
CONTINUOUS
10
1.17859
20
-3.34473
11
1.17667
21
-3.34601
0
LINE
8
BLACK
6
CONTINUOUS
10
1.17667
20
-3.34601
11
1.17441
21
-3.34646
0
LINE
8
BLACK
6
CONTINUOUS
10
1.17441
20
-3.34646
11
1.1626
21
-3.34646
0
LINE
8
BLACK
6
CONTINUOUS
10
1.1626
20
-3.34646
11
1.16034
21
-3.34601
0
LINE
8
BLACK
6
CONTINUOUS
10
1.16034
20
-3.34601
11
1.15842
21
-3.34473
0
LINE
8
BLACK
6
CONTINUOUS
10
1.15842
20
-3.34473
11
1.15714
21
-3.34281
0
LINE
8
BLACK
6
CONTINUOUS
10
1.15714
20
-3.34281
11
1.15669
21
-3.34055
0
LINE
8
BLACK
6
CONTINUOUS
10
1.15669
20
-3.34055
11
1.15669
21
-3.27559
0
LINE
8
BLACK
6
CONTINUOUS
10
1.15669
20
-3.27559
11
1.15714
21
-3.27333
0
LINE
8
BLACK
6
CONTINUOUS
10
1.15714
20
-3.27333
11
1.15842
21
-3.27141
0
LINE
8
BLACK
6
CONTINUOUS
10
1.15842
20
-3.27141
11
1.16034
21
-3.27013
0
LINE
8
BLACK
6
CONTINUOUS
10
1.16034
20
-3.27013
11
1.1626
21
-3.26969
0
LINE
8
BLACK
6
CONTINUOUS
10
1.1626
20
-3.26969
11
1.17441
21
-3.26969
0
LINE
8
BLACK
6
CONTINUOUS
10
1.17441
20
-3.26969
11
1.17667
21
-3.27013
0
LINE
8
BLACK
6
CONTINUOUS
10
1.22667
20
-3.27013
11
1.22859
21
-3.27141
0
LINE
8
BLACK
6
CONTINUOUS
10
1.22859
20
-3.27141
11
1.22987
21
-3.27333
0
LINE
8
BLACK
6
CONTINUOUS
10
1.22987
20
-3.27333
11
1.23031
21
-3.27559
0
LINE
8
BLACK
6
CONTINUOUS
10
1.23031
20
-3.27559
11
1.23031
21
-3.34055
0
LINE
8
BLACK
6
CONTINUOUS
10
1.23031
20
-3.34055
11
1.22987
21
-3.34281
0
LINE
8
BLACK
6
CONTINUOUS
10
1.22987
20
-3.34281
11
1.22859
21
-3.34473
0
LINE
8
BLACK
6
CONTINUOUS
10
1.22859
20
-3.34473
11
1.22667
21
-3.34601
0
LINE
8
BLACK
6
CONTINUOUS
10
1.22667
20
-3.34601
11
1.22441
21
-3.34646
0
LINE
8
BLACK
6
CONTINUOUS
10
1.22441
20
-3.34646
11
1.2126
21
-3.34646
0
LINE
8
BLACK
6
CONTINUOUS
10
1.2126
20
-3.34646
11
1.21034
21
-3.34601
0
LINE
8
BLACK
6
CONTINUOUS
10
1.21034
20
-3.34601
11
1.20842
21
-3.34473
0
LINE
8
BLACK
6
CONTINUOUS
10
1.20842
20
-3.34473
11
1.20714
21
-3.34281
0
LINE
8
BLACK
6
CONTINUOUS
10
1.20714
20
-3.34281
11
1.20669
21
-3.34055
0
LINE
8
BLACK
6
CONTINUOUS
10
1.20669
20
-3.34055
11
1.20669
21
-3.27559
0
LINE
8
BLACK
6
CONTINUOUS
10
1.20669
20
-3.27559
11
1.20714
21
-3.27333
0
LINE
8
BLACK
6
CONTINUOUS
10
1.20714
20
-3.27333
11
1.20842
21
-3.27141
0
LINE
8
BLACK
6
CONTINUOUS
10
1.20842
20
-3.27141
11
1.21034
21
-3.27013
0
LINE
8
BLACK
6
CONTINUOUS
10
1.21034
20
-3.27013
11
1.2126
21
-3.26969
0
LINE
8
BLACK
6
CONTINUOUS
10
1.2126
20
-3.26969
11
1.22441
21
-3.26969
0
LINE
8
BLACK
6
CONTINUOUS
10
1.22441
20
-3.26969
11
1.22667
21
-3.27013
0
LINE
8
BLACK
6
CONTINUOUS
10
1.27667
20
-3.27013
11
1.27859
21
-3.27141
0
LINE
8
BLACK
6
CONTINUOUS
10
1.27859
20
-3.27141
11
1.27987
21
-3.27333
0
LINE
8
BLACK
6
CONTINUOUS
10
1.27987
20
-3.27333
11
1.28031
21
-3.27559
0
LINE
8
BLACK
6
CONTINUOUS
10
1.28031
20
-3.27559
11
1.28031
21
-3.34055
0
LINE
8
BLACK
6
CONTINUOUS
10
1.28031
20
-3.34055
11
1.27987
21
-3.34281
0
LINE
8
BLACK
6
CONTINUOUS
10
1.27987
20
-3.34281
11
1.27859
21
-3.34473
0
LINE
8
BLACK
6
CONTINUOUS
10
1.27859
20
-3.34473
11
1.27667
21
-3.34601
0
LINE
8
BLACK
6
CONTINUOUS
10
1.27667
20
-3.34601
11
1.27441
21
-3.34646
0
LINE
8
BLACK
6
CONTINUOUS
10
1.27441
20
-3.34646
11
1.2626
21
-3.34646
0
LINE
8
BLACK
6
CONTINUOUS
10
1.2626
20
-3.34646
11
1.26034
21
-3.34601
0
LINE
8
BLACK
6
CONTINUOUS
10
1.26034
20
-3.34601
11
1.25842
21
-3.34473
0
LINE
8
BLACK
6
CONTINUOUS
10
1.25842
20
-3.34473
11
1.25714
21
-3.34281
0
LINE
8
BLACK
6
CONTINUOUS
10
1.25714
20
-3.34281
11
1.25669
21
-3.34055
0
LINE
8
BLACK
6
CONTINUOUS
10
1.25669
20
-3.34055
11
1.25669
21
-3.27559
0
LINE
8
BLACK
6
CONTINUOUS
10
1.25669
20
-3.27559
11
1.25714
21
-3.27333
0
LINE
8
BLACK
6
CONTINUOUS
10
1.25714
20
-3.27333
11
1.25842
21
-3.27141
0
LINE
8
BLACK
6
CONTINUOUS
10
1.25842
20
-3.27141
11
1.26034
21
-3.27013
0
LINE
8
BLACK
6
CONTINUOUS
10
1.26034
20
-3.27013
11
1.2626
21
-3.26969
0
LINE
8
BLACK
6
CONTINUOUS
10
1.2626
20
-3.26969
11
1.27441
21
-3.26969
0
LINE
8
BLACK
6
CONTINUOUS
10
1.27441
20
-3.26969
11
1.27667
21
-3.27013
0
LINE
8
BLACK
6
CONTINUOUS
10
4.23745
20
-3.30719
11
4.2293
21
-3.33761
0
LINE
8
BLACK
6
CONTINUOUS
10
4.2293
20
-3.33761
11
4.20078
21
-3.32997
0
LINE
8
BLACK
6
CONTINUOUS
10
4.20078
20
-3.32997
11
4.20893
21
-3.29955
0
LINE
8
BLACK
6
CONTINUOUS
10
4.20893
20
-3.29955
11
4.23745
21
-3.30719
0
LINE
8
BLACK
6
CONTINUOUS
10
4.27757
20
-3.31794
11
4.26942
21
-3.34836
0
LINE
8
BLACK
6
CONTINUOUS
10
4.26942
20
-3.34836
11
4.2466
21
-3.34225
0
LINE
8
BLACK
6
CONTINUOUS
10
4.2466
20
-3.34225
11
4.25476
21
-3.31183
0
LINE
8
BLACK
6
CONTINUOUS
10
4.25476
20
-3.31183
11
4.27757
21
-3.31794
0
LINE
8
BLACK
6
CONTINUOUS
10
4.30724
20
-3.32589
11
4.29908
21
-3.35631
0
LINE
8
BLACK
6
CONTINUOUS
10
4.29908
20
-3.35631
11
4.28387
21
-3.35224
0
LINE
8
BLACK
6
CONTINUOUS
10
4.28387
20
-3.35224
11
4.29202
21
-3.32181
0
LINE
8
BLACK
6
CONTINUOUS
10
4.29202
20
-3.32181
11
4.30724
21
-3.32589
0
LINE
8
BLACK
6
CONTINUOUS
10
4.35211
20
-3.33791
11
4.34396
21
-3.36833
0
LINE
8
BLACK
6
CONTINUOUS
10
4.34396
20
-3.36833
11
4.31353
21
-3.36018
0
LINE
8
BLACK
6
CONTINUOUS
10
4.31353
20
-3.36018
11
4.32169
21
-3.32976
0
LINE
8
BLACK
6
CONTINUOUS
10
4.32169
20
-3.32976
11
4.35211
21
-3.33791
0
LINE
8
BLACK
6
CONTINUOUS
10
4.45531
20
-3.37913
11
4.42579
21
-3.37913
0
LINE
8
BLACK
6
CONTINUOUS
10
4.42579
20
-3.37913
11
4.42579
21
-3.34764
0
LINE
8
BLACK
6
CONTINUOUS
10
4.42579
20
-3.34764
11
4.45531
21
-3.34764
0
LINE
8
BLACK
6
CONTINUOUS
10
4.45531
20
-3.34764
11
4.45531
21
-3.37913
0
LINE
8
BLACK
6
CONTINUOUS
10
4.49685
20
-3.37913
11
4.47323
21
-3.37913
0
LINE
8
BLACK
6
CONTINUOUS
10
4.47323
20
-3.37913
11
4.47323
21
-3.34764
0
LINE
8
BLACK
6
CONTINUOUS
10
4.47323
20
-3.34764
11
4.49685
21
-3.34764
0
LINE
8
BLACK
6
CONTINUOUS
10
4.49685
20
-3.34764
11
4.49685
21
-3.37913
0
LINE
8
BLACK
6
CONTINUOUS
10
4.52756
20
-3.37913
11
4.51181
21
-3.37913
0
LINE
8
BLACK
6
CONTINUOUS
10
4.51181
20
-3.37913
11
4.51181
21
-3.34764
0
LINE
8
BLACK
6
CONTINUOUS
10
4.51181
20
-3.34764
11
4.52756
21
-3.34764
0
LINE
8
BLACK
6
CONTINUOUS
10
4.52756
20
-3.34764
11
4.52756
21
-3.37913
0
LINE
8
BLACK
6
CONTINUOUS
10
4.57402
20
-3.37913
11
4.54252
21
-3.37913
0
LINE
8
BLACK
6
CONTINUOUS
10
4.54252
20
-3.37913
11
4.54252
21
-3.34764
0
LINE
8
BLACK
6
CONTINUOUS
10
4.54252
20
-3.34764
11
4.57402
21
-3.34764
0
LINE
8
BLACK
6
CONTINUOUS
10
4.57402
20
-3.34764
11
4.57402
21
-3.37913
0
LINE
8
BLACK
6
CONTINUOUS
10
4.79903
20
-3.33002
11
4.76861
21
-3.33817
0
LINE
8
BLACK
6
CONTINUOUS
10
4.76861
20
-3.33817
11
4.76046
21
-3.30775
0
LINE
8
BLACK
6
CONTINUOUS
10
4.76046
20
-3.30775
11
4.79088
21
-3.2996
0
LINE
8
BLACK
6
CONTINUOUS
10
4.79088
20
-3.2996
11
4.79903
21
-3.33002
0
LINE
8
BLACK
6
CONTINUOUS
10
4.85918
20
-3.33337
11
4.862
21
-3.33536
0
LINE
8
BLACK
6
CONTINUOUS
10
4.862
20
-3.33536
11
4.86384
21
-3.33828
0
LINE
8
BLACK
6
CONTINUOUS
10
4.86384
20
-3.33828
11
4.87019
21
-3.35482
0
LINE
8
BLACK
6
CONTINUOUS
10
4.87019
20
-3.35482
11
4.87078
21
-3.35823
0
LINE
8
BLACK
6
CONTINUOUS
10
4.87078
20
-3.35823
11
4.87002
21
-3.3616
0
LINE
8
BLACK
6
CONTINUOUS
10
4.87002
20
-3.3616
11
4.86802
21
-3.36442
0
LINE
8
BLACK
6
CONTINUOUS
10
4.86802
20
-3.36442
11
4.8651
21
-3.36627
0
LINE
8
BLACK
6
CONTINUOUS
10
4.8651
20
-3.36627
11
4.84672
21
-3.37332
0
LINE
8
BLACK
6
CONTINUOUS
10
4.84672
20
-3.37332
11
4.84331
21
-3.37391
0
LINE
8
BLACK
6
CONTINUOUS
10
4.84331
20
-3.37391
11
4.83994
21
-3.37315
0
LINE
8
BLACK
6
CONTINUOUS
10
4.83994
20
-3.37315
11
4.83712
21
-3.37115
0
LINE
8
BLACK
6
CONTINUOUS
10
4.83712
20
-3.37115
11
4.83528
21
-3.36823
0
LINE
8
BLACK
6
CONTINUOUS
10
4.83528
20
-3.36823
11
4.82893
21
-3.35169
0
LINE
8
BLACK
6
CONTINUOUS
10
4.82893
20
-3.35169
11
4.82834
21
-3.34828
0
LINE
8
BLACK
6
CONTINUOUS
10
4.82834
20
-3.34828
11
4.8291
21
-3.34491
0
LINE
8
BLACK
6
CONTINUOUS
10
4.8291
20
-3.34491
11
4.8311
21
-3.34209
0
LINE
8
BLACK
6
CONTINUOUS
10
4.8311
20
-3.34209
11
4.83402
21
-3.34024
0
LINE
8
BLACK
6
CONTINUOUS
10
4.83402
20
-3.34024
11
4.8524
21
-3.33319
0
LINE
8
BLACK
6
CONTINUOUS
10
4.8524
20
-3.33319
11
4.85581
21
-3.3326
0
LINE
8
BLACK
6
CONTINUOUS
10
4.85581
20
-3.3326
11
4.85918
21
-3.33337
0
LINE
8
BLACK
6
CONTINUOUS
10
4.14205
20
-3.33033
11
4.16003
21
-3.33834
0
LINE
8
BLACK
6
CONTINUOUS
10
4.16003
20
-3.33834
11
4.16285
21
-3.34033
0
LINE
8
BLACK
6
CONTINUOUS
10
4.16285
20
-3.34033
11
4.1647
21
-3.34326
0
LINE
8
BLACK
6
CONTINUOUS
10
4.1647
20
-3.34326
11
4.16528
21
-3.34666
0
LINE
8
BLACK
6
CONTINUOUS
10
4.16528
20
-3.34666
11
4.16452
21
-3.35003
0
LINE
8
BLACK
6
CONTINUOUS
10
4.16452
20
-3.35003
11
4.15731
21
-3.36622
0
LINE
8
BLACK
6
CONTINUOUS
10
4.15731
20
-3.36622
11
4.15532
21
-3.36904
0
LINE
8
BLACK
6
CONTINUOUS
10
4.15532
20
-3.36904
11
4.1524
21
-3.37089
0
LINE
8
BLACK
6
CONTINUOUS
10
4.1524
20
-3.37089
11
4.14899
21
-3.37147
0
LINE
8
BLACK
6
CONTINUOUS
10
4.14899
20
-3.37147
11
4.14562
21
-3.37071
0
LINE
8
BLACK
6
CONTINUOUS
10
4.14562
20
-3.37071
11
4.12764
21
-3.3627
0
LINE
8
BLACK
6
CONTINUOUS
10
4.12764
20
-3.3627
11
4.12481
21
-3.36071
0
LINE
8
BLACK
6
CONTINUOUS
10
4.12481
20
-3.36071
11
4.12297
21
-3.35778
0
LINE
8
BLACK
6
CONTINUOUS
10
4.12297
20
-3.35778
11
4.12238
21
-3.35438
0
LINE
8
BLACK
6
CONTINUOUS
10
4.12238
20
-3.35438
11
4.12315
21
-3.35101
0
LINE
8
BLACK
6
CONTINUOUS
10
4.12315
20
-3.35101
11
4.13035
21
-3.33482
0
LINE
8
BLACK
6
CONTINUOUS
10
4.13035
20
-3.33482
11
4.13235
21
-3.332
0
LINE
8
BLACK
6
CONTINUOUS
10
4.13235
20
-3.332
11
4.13527
21
-3.33015
0
LINE
8
BLACK
6
CONTINUOUS
10
4.13527
20
-3.33015
11
4.13868
21
-3.32957
0
LINE
8
BLACK
6
CONTINUOUS
10
4.13868
20
-3.32957
11
4.14205
21
-3.33033
0
LINE
8
BLACK
6
CONTINUOUS
10
4.68437
20
-3.36074
11
4.65585
21
-3.36839
0
LINE
8
BLACK
6
CONTINUOUS
10
4.65585
20
-3.36839
11
4.6477
21
-3.33796
0
LINE
8
BLACK
6
CONTINUOUS
10
4.6477
20
-3.33796
11
4.67622
21
-3.33032
0
LINE
8
BLACK
6
CONTINUOUS
10
4.67622
20
-3.33032
11
4.68437
21
-3.36074
0
LINE
8
BLACK
6
CONTINUOUS
10
4.72449
20
-3.34999
11
4.70168
21
-3.35611
0
LINE
8
BLACK
6
CONTINUOUS
10
4.70168
20
-3.35611
11
4.69353
21
-3.32568
0
LINE
8
BLACK
6
CONTINUOUS
10
4.69353
20
-3.32568
11
4.71634
21
-3.31957
0
LINE
8
BLACK
6
CONTINUOUS
10
4.71634
20
-3.31957
11
4.72449
21
-3.34999
0
LINE
8
BLACK
6
CONTINUOUS
10
4.75416
20
-3.34205
11
4.73895
21
-3.34612
0
LINE
8
BLACK
6
CONTINUOUS
10
4.73895
20
-3.34612
11
4.73079
21
-3.3157
0
LINE
8
BLACK
6
CONTINUOUS
10
4.73079
20
-3.3157
11
4.746
21
-3.31162
0
LINE
8
BLACK
6
CONTINUOUS
10
4.746
20
-3.31162
11
4.75416
21
-3.34205
0
LINE
8
BLACK
6
CONTINUOUS
10
4.03748
20
-3.21173
11
4.02173
21
-3.23901
0
LINE
8
BLACK
6
CONTINUOUS
10
4.02173
20
-3.23901
11
3.99616
21
-3.22425
0
LINE
8
BLACK
6
CONTINUOUS
10
3.99616
20
-3.22425
11
4.01191
21
-3.19697
0
LINE
8
BLACK
6
CONTINUOUS
10
4.01191
20
-3.19697
11
4.03748
21
-3.21173
0
LINE
8
BLACK
6
CONTINUOUS
10
4.07345
20
-3.2325
11
4.05771
21
-3.25978
0
LINE
8
BLACK
6
CONTINUOUS
10
4.05771
20
-3.25978
11
4.03725
21
-3.24797
0
LINE
8
BLACK
6
CONTINUOUS
10
4.03725
20
-3.24797
11
4.053
21
-3.22069
0
LINE
8
BLACK
6
CONTINUOUS
10
4.053
20
-3.22069
11
4.07345
21
-3.2325
0
LINE
8
BLACK
6
CONTINUOUS
10
4.93684
20
-3.26293
11
4.91638
21
-3.27474
0
LINE
8
BLACK
6
CONTINUOUS
10
4.91638
20
-3.27474
11
4.90063
21
-3.24746
0
LINE
8
BLACK
6
CONTINUOUS
10
4.90063
20
-3.24746
11
4.92109
21
-3.23565
0
LINE
8
BLACK
6
CONTINUOUS
10
4.92109
20
-3.23565
11
4.93684
21
-3.26293
0
LINE
8
BLACK
6
CONTINUOUS
10
5.10174
20
-3.26257
11
5.10428
21
-3.26492
0
LINE
8
BLACK
6
CONTINUOUS
10
5.10428
20
-3.26492
11
5.11469
21
-3.27925
0
LINE
8
BLACK
6
CONTINUOUS
10
5.11469
20
-3.27925
11
5.11614
21
-3.28239
0
LINE
8
BLACK
6
CONTINUOUS
10
5.11614
20
-3.28239
11
5.11628
21
-3.28585
0
LINE
8
BLACK
6
CONTINUOUS
10
5.11628
20
-3.28585
11
5.11508
21
-3.28909
0
LINE
8
BLACK
6
CONTINUOUS
10
5.11508
20
-3.28909
11
5.11273
21
-3.29163
0
LINE
8
BLACK
6
CONTINUOUS
10
5.11273
20
-3.29163
11
5.09681
21
-3.3032
0
LINE
8
BLACK
6
CONTINUOUS
10
5.09681
20
-3.3032
11
5.09367
21
-3.30464
0
LINE
8
BLACK
6
CONTINUOUS
10
5.09367
20
-3.30464
11
5.09022
21
-3.30478
0
LINE
8
BLACK
6
CONTINUOUS
10
5.09022
20
-3.30478
11
5.08697
21
-3.30358
0
LINE
8
BLACK
6
CONTINUOUS
10
5.08697
20
-3.30358
11
5.08443
21
-3.30124
0
LINE
8
BLACK
6
CONTINUOUS
10
5.08443
20
-3.30124
11
5.07402
21
-3.2869
0
LINE
8
BLACK
6
CONTINUOUS
10
5.07402
20
-3.2869
11
5.07257
21
-3.28377
0
LINE
8
BLACK
6
CONTINUOUS
10
5.07257
20
-3.28377
11
5.07244
21
-3.28031
0
LINE
8
BLACK
6
CONTINUOUS
10
5.07244
20
-3.28031
11
5.07363
21
-3.27707
0
LINE
8
BLACK
6
CONTINUOUS
10
5.07363
20
-3.27707
11
5.07598
21
-3.27453
0
LINE
8
BLACK
6
CONTINUOUS
10
5.07598
20
-3.27453
11
5.09191
21
-3.26296
0
LINE
8
BLACK
6
CONTINUOUS
10
5.09191
20
-3.26296
11
5.09505
21
-3.26151
0
LINE
8
BLACK
6
CONTINUOUS
10
5.09505
20
-3.26151
11
5.0985
21
-3.26138
0
LINE
8
BLACK
6
CONTINUOUS
10
5.0985
20
-3.26138
11
5.10174
21
-3.26257
0
LINE
8
BLACK
6
CONTINUOUS
10
3.89788
20
-3.25521
11
3.90094
21
-3.25682
0
LINE
8
BLACK
6
CONTINUOUS
10
3.90094
20
-3.25682
11
3.91623
21
-3.26921
0
LINE
8
BLACK
6
CONTINUOUS
10
3.91623
20
-3.26921
11
3.91844
21
-3.27186
0
LINE
8
BLACK
6
CONTINUOUS
10
3.91844
20
-3.27186
11
3.91947
21
-3.27516
0
LINE
8
BLACK
6
CONTINUOUS
10
3.91947
20
-3.27516
11
3.91915
21
-3.27861
0
LINE
8
BLACK
6
CONTINUOUS
10
3.91915
20
-3.27861
11
3.91754
21
-3.28167
0
LINE
8
BLACK
6
CONTINUOUS
10
3.91754
20
-3.28167
11
3.90639
21
-3.29543
0
LINE
8
BLACK
6
CONTINUOUS
10
3.90639
20
-3.29543
11
3.90374
21
-3.29764
0
LINE
8
BLACK
6
CONTINUOUS
10
3.90374
20
-3.29764
11
3.90044
21
-3.29867
0
LINE
8
BLACK
6
CONTINUOUS
10
3.90044
20
-3.29867
11
3.89699
21
-3.29835
0
LINE
8
BLACK
6
CONTINUOUS
10
3.89699
20
-3.29835
11
3.89393
21
-3.29674
0
LINE
8
BLACK
6
CONTINUOUS
10
3.89393
20
-3.29674
11
3.87864
21
-3.28436
0
LINE
8
BLACK
6
CONTINUOUS
10
3.87864
20
-3.28436
11
3.87643
21
-3.2817
0
LINE
8
BLACK
6
CONTINUOUS
10
3.87643
20
-3.2817
11
3.8754
21
-3.2784
0
LINE
8
BLACK
6
CONTINUOUS
10
3.8754
20
-3.2784
11
3.87572
21
-3.27496
0
LINE
8
BLACK
6
CONTINUOUS
10
3.87572
20
-3.27496
11
3.87733
21
-3.2719
0
LINE
8
BLACK
6
CONTINUOUS
10
3.87733
20
-3.2719
11
3.88848
21
-3.25813
0
LINE
8
BLACK
6
CONTINUOUS
10
3.88848
20
-3.25813
11
3.89113
21
-3.25592
0
LINE
8
BLACK
6
CONTINUOUS
10
3.89113
20
-3.25592
11
3.89443
21
-3.25489
0
LINE
8
BLACK
6
CONTINUOUS
10
3.89443
20
-3.25489
11
3.89788
21
-3.25521
0
LINE
8
BLACK
6
CONTINUOUS
10
4.10005
20
-3.24786
11
4.0843
21
-3.27513
0
LINE
8
BLACK
6
CONTINUOUS
10
4.0843
20
-3.27513
11
4.07066
21
-3.26726
0
LINE
8
BLACK
6
CONTINUOUS
10
4.07066
20
-3.26726
11
4.08641
21
-3.23998
0
LINE
8
BLACK
6
CONTINUOUS
10
4.08641
20
-3.23998
11
4.10005
21
-3.24786
0
LINE
8
BLACK
6
CONTINUOUS
10
4.14028
20
-3.27108
11
4.12453
21
-3.29836
0
LINE
8
BLACK
6
CONTINUOUS
10
4.12453
20
-3.29836
11
4.09726
21
-3.28261
0
LINE
8
BLACK
6
CONTINUOUS
10
4.09726
20
-3.28261
11
4.113
21
-3.25534
0
LINE
8
BLACK
6
CONTINUOUS
10
4.113
20
-3.25534
11
4.14028
21
-3.27108
0
LINE
8
BLACK
6
CONTINUOUS
10
4.90087
20
-3.28369
11
4.8753
21
-3.29846
0
LINE
8
BLACK
6
CONTINUOUS
10
4.8753
20
-3.29846
11
4.85955
21
-3.27118
0
LINE
8
BLACK
6
CONTINUOUS
10
4.85955
20
-3.27118
11
4.88512
21
-3.25642
0
LINE
8
BLACK
6
CONTINUOUS
10
4.88512
20
-3.25642
11
4.90087
21
-3.28369
0
LINE
8
BLACK
6
CONTINUOUS
10
4.96343
20
-3.24757
11
4.9498
21
-3.25545
0
LINE
8
BLACK
6
CONTINUOUS
10
4.9498
20
-3.25545
11
4.93405
21
-3.22817
0
LINE
8
BLACK
6
CONTINUOUS
10
4.93405
20
-3.22817
11
4.94769
21
-3.2203
0
LINE
8
BLACK
6
CONTINUOUS
10
4.94769
20
-3.2203
11
4.96343
21
-3.24757
0
LINE
8
BLACK
6
CONTINUOUS
10
5.00367
20
-3.22434
11
4.97639
21
-3.24009
0
LINE
8
BLACK
6
CONTINUOUS
10
4.97639
20
-3.24009
11
4.96064
21
-3.21282
0
LINE
8
BLACK
6
CONTINUOUS
10
4.96064
20
-3.21282
11
4.98792
21
-3.19707
0
LINE
8
BLACK
6
CONTINUOUS
10
4.98792
20
-3.19707
11
5.00367
21
-3.22434
0
LINE
8
BLACK
6
CONTINUOUS
10
5.06587
20
-3.2132
11
5.06841
21
-3.21555
0
LINE
8
BLACK
6
CONTINUOUS
10
5.06841
20
-3.21555
11
5.07882
21
-3.22988
0
LINE
8
BLACK
6
CONTINUOUS
10
5.07882
20
-3.22988
11
5.08027
21
-3.23302
0
LINE
8
BLACK
6
CONTINUOUS
10
5.08027
20
-3.23302
11
5.08041
21
-3.23648
0
LINE
8
BLACK
6
CONTINUOUS
10
5.08041
20
-3.23648
11
5.07921
21
-3.23972
0
LINE
8
BLACK
6
CONTINUOUS
10
5.07921
20
-3.23972
11
5.07686
21
-3.24226
0
LINE
8
BLACK
6
CONTINUOUS
10
5.07686
20
-3.24226
11
5.06094
21
-3.25383
0
LINE
8
BLACK
6
CONTINUOUS
10
5.06094
20
-3.25383
11
5.0578
21
-3.25527
0
LINE
8
BLACK
6
CONTINUOUS
10
5.0578
20
-3.25527
11
5.05435
21
-3.25541
0
LINE
8
BLACK
6
CONTINUOUS
10
5.05435
20
-3.25541
11
5.0511
21
-3.25421
0
LINE
8
BLACK
6
CONTINUOUS
10
5.0511
20
-3.25421
11
5.04857
21
-3.25187
0
LINE
8
BLACK
6
CONTINUOUS
10
5.04857
20
-3.25187
11
5.03815
21
-3.23753
0
LINE
8
BLACK
6
CONTINUOUS
10
5.03815
20
-3.23753
11
5.03671
21
-3.2344
0
LINE
8
BLACK
6
CONTINUOUS
10
5.03671
20
-3.2344
11
5.03657
21
-3.23094
0
LINE
8
BLACK
6
CONTINUOUS
10
5.03657
20
-3.23094
11
5.03777
21
-3.2277
0
LINE
8
BLACK
6
CONTINUOUS
10
5.03777
20
-3.2277
11
5.04011
21
-3.22516
0
LINE
8
BLACK
6
CONTINUOUS
10
5.04011
20
-3.22516
11
5.05604
21
-3.21359
0
LINE
8
BLACK
6
CONTINUOUS
10
5.05604
20
-3.21359
11
5.05918
21
-3.21214
0
LINE
8
BLACK
6
CONTINUOUS
10
5.05918
20
-3.21214
11
5.06263
21
-3.21201
0
LINE
8
BLACK
6
CONTINUOUS
10
5.06263
20
-3.21201
11
5.06587
21
-3.2132
0
LINE
8
BLACK
6
CONTINUOUS
10
3.93628
20
-3.20778
11
3.93934
21
-3.20939
0
LINE
8
BLACK
6
CONTINUOUS
10
3.93934
20
-3.20939
11
3.95464
21
-3.22178
0
LINE
8
BLACK
6
CONTINUOUS
10
3.95464
20
-3.22178
11
3.95685
21
-3.22444
0
LINE
8
BLACK
6
CONTINUOUS
10
3.95685
20
-3.22444
11
3.95787
21
-3.22774
0
LINE
8
BLACK
6
CONTINUOUS
10
3.95787
20
-3.22774
11
3.95756
21
-3.23118
0
LINE
8
BLACK
6
CONTINUOUS
10
3.95756
20
-3.23118
11
3.95595
21
-3.23424
0
LINE
8
BLACK
6
CONTINUOUS
10
3.95595
20
-3.23424
11
3.9448
21
-3.24801
0
LINE
8
BLACK
6
CONTINUOUS
10
3.9448
20
-3.24801
11
3.94214
21
-3.25022
0
LINE
8
BLACK
6
CONTINUOUS
10
3.94214
20
-3.25022
11
3.93884
21
-3.25124
0
LINE
8
BLACK
6
CONTINUOUS
10
3.93884
20
-3.25124
11
3.9354
21
-3.25093
0
LINE
8
BLACK
6
CONTINUOUS
10
3.9354
20
-3.25093
11
3.93234
21
-3.24932
0
LINE
8
BLACK
6
CONTINUOUS
10
3.93234
20
-3.24932
11
3.91704
21
-3.23693
0
LINE
8
BLACK
6
CONTINUOUS
10
3.91704
20
-3.23693
11
3.91483
21
-3.23427
0
LINE
8
BLACK
6
CONTINUOUS
10
3.91483
20
-3.23427
11
3.91381
21
-3.23097
0
LINE
8
BLACK
6
CONTINUOUS
10
3.91381
20
-3.23097
11
3.91412
21
-3.22753
0
LINE
8
BLACK
6
CONTINUOUS
10
3.91412
20
-3.22753
11
3.91573
21
-3.22447
0
LINE
8
BLACK
6
CONTINUOUS
10
3.91573
20
-3.22447
11
3.92688
21
-3.2107
0
LINE
8
BLACK
6
CONTINUOUS
10
3.92688
20
-3.2107
11
3.92954
21
-3.20849
0
LINE
8
BLACK
6
CONTINUOUS
10
3.92954
20
-3.20849
11
3.93284
21
-3.20747
0
LINE
8
BLACK
6
CONTINUOUS
10
3.93284
20
-3.20747
11
3.93628
21
-3.20778
0
LINE
8
BLACK
6
CONTINUOUS
10
3.7723
20
-3.03777
11
3.77484
21
-3.04011
0
LINE
8
BLACK
6
CONTINUOUS
10
3.77484
20
-3.04011
11
3.78641
21
-3.05604
0
LINE
8
BLACK
6
CONTINUOUS
10
3.78641
20
-3.05604
11
3.78786
21
-3.05918
0
LINE
8
BLACK
6
CONTINUOUS
10
3.78786
20
-3.05918
11
3.78799
21
-3.06263
0
LINE
8
BLACK
6
CONTINUOUS
10
3.78799
20
-3.06263
11
3.7868
21
-3.06587
0
LINE
8
BLACK
6
CONTINUOUS
10
3.7868
20
-3.06587
11
3.78445
21
-3.06841
0
LINE
8
BLACK
6
CONTINUOUS
10
3.78445
20
-3.06841
11
3.77012
21
-3.07882
0
LINE
8
BLACK
6
CONTINUOUS
10
3.77012
20
-3.07882
11
3.76698
21
-3.08027
0
LINE
8
BLACK
6
CONTINUOUS
10
3.76698
20
-3.08027
11
3.76352
21
-3.08041
0
LINE
8
BLACK
6
CONTINUOUS
10
3.76352
20
-3.08041
11
3.76028
21
-3.07921
0
LINE
8
BLACK
6
CONTINUOUS
10
3.76028
20
-3.07921
11
3.75774
21
-3.07686
0
LINE
8
BLACK
6
CONTINUOUS
10
3.75774
20
-3.07686
11
3.74617
21
-3.06094
0
LINE
8
BLACK
6
CONTINUOUS
10
3.74617
20
-3.06094
11
3.74473
21
-3.0578
0
LINE
8
BLACK
6
CONTINUOUS
10
3.74473
20
-3.0578
11
3.74459
21
-3.05435
0
LINE
8
BLACK
6
CONTINUOUS
10
3.74459
20
-3.05435
11
3.74579
21
-3.0511
0
LINE
8
BLACK
6
CONTINUOUS
10
3.74579
20
-3.0511
11
3.74813
21
-3.04857
0
LINE
8
BLACK
6
CONTINUOUS
10
3.74813
20
-3.04857
11
3.76246
21
-3.03815
0
LINE
8
BLACK
6
CONTINUOUS
10
3.76246
20
-3.03815
11
3.7656
21
-3.03671
0
LINE
8
BLACK
6
CONTINUOUS
10
3.7656
20
-3.03671
11
3.76906
21
-3.03657
0
LINE
8
BLACK
6
CONTINUOUS
10
3.76906
20
-3.03657
11
3.7723
21
-3.03777
0
LINE
8
BLACK
6
CONTINUOUS
10
3.86903
20
-3.06777
11
3.84676
21
-3.09004
0
LINE
8
BLACK
6
CONTINUOUS
10
3.84676
20
-3.09004
11
3.82588
21
-3.06917
0
LINE
8
BLACK
6
CONTINUOUS
10
3.82588
20
-3.06917
11
3.84815
21
-3.04689
0
LINE
8
BLACK
6
CONTINUOUS
10
3.84815
20
-3.04689
11
3.86903
21
-3.06777
0
LINE
8
BLACK
6
CONTINUOUS
10
3.8984
20
-3.09714
11
3.87613
21
-3.11941
0
LINE
8
BLACK
6
CONTINUOUS
10
3.87613
20
-3.11941
11
3.85943
21
-3.10271
0
LINE
8
BLACK
6
CONTINUOUS
10
3.85943
20
-3.10271
11
3.8817
21
-3.08044
0
LINE
8
BLACK
6
CONTINUOUS
10
3.8817
20
-3.08044
11
3.8984
21
-3.09714
0
LINE
8
BLACK
6
CONTINUOUS
10
3.92012
20
-3.11886
11
3.89785
21
-3.14113
0
LINE
8
BLACK
6
CONTINUOUS
10
3.89785
20
-3.14113
11
3.88671
21
-3.12999
0
LINE
8
BLACK
6
CONTINUOUS
10
3.88671
20
-3.12999
11
3.90898
21
-3.10772
0
LINE
8
BLACK
6
CONTINUOUS
10
3.90898
20
-3.10772
11
3.92012
21
-3.11886
0
LINE
8
BLACK
6
CONTINUOUS
10
3.95297
20
-3.15171
11
3.9307
21
-3.17398
0
LINE
8
BLACK
6
CONTINUOUS
10
3.9307
20
-3.17398
11
3.90842
21
-3.15171
0
LINE
8
BLACK
6
CONTINUOUS
10
3.90842
20
-3.15171
11
3.9307
21
-3.12944
0
LINE
8
BLACK
6
CONTINUOUS
10
3.9307
20
-3.12944
11
3.95297
21
-3.15171
0
LINE
8
BLACK
6
CONTINUOUS
10
5.09004
20
-3.15324
11
5.06917
21
-3.17412
0
LINE
8
BLACK
6
CONTINUOUS
10
5.06917
20
-3.17412
11
5.04689
21
-3.15185
0
LINE
8
BLACK
6
CONTINUOUS
10
5.04689
20
-3.15185
11
5.06777
21
-3.13097
0
LINE
8
BLACK
6
CONTINUOUS
10
5.06777
20
-3.13097
11
5.09004
21
-3.15324
0
LINE
8
BLACK
6
CONTINUOUS
10
5.11941
20
-3.12387
11
5.10271
21
-3.14057
0
LINE
8
BLACK
6
CONTINUOUS
10
5.10271
20
-3.14057
11
5.08044
21
-3.1183
0
LINE
8
BLACK
6
CONTINUOUS
10
5.08044
20
-3.1183
11
5.09714
21
-3.1016
0
LINE
8
BLACK
6
CONTINUOUS
10
5.09714
20
-3.1016
11
5.11941
21
-3.12387
0
LINE
8
BLACK
6
CONTINUOUS
10
5.23118
20
-3.04244
11
5.23424
21
-3.04405
0
LINE
8
BLACK
6
CONTINUOUS
10
5.23424
20
-3.04405
11
5.24801
21
-3.0552
0
LINE
8
BLACK
6
CONTINUOUS
10
5.24801
20
-3.0552
11
5.25022
21
-3.05786
0
LINE
8
BLACK
6
CONTINUOUS
10
5.25022
20
-3.05786
11
5.25124
21
-3.06116
0
LINE
8
BLACK
6
CONTINUOUS
10
5.25124
20
-3.06116
11
5.25093
21
-3.0646
0
LINE
8
BLACK
6
CONTINUOUS
10
5.25093
20
-3.0646
11
5.24932
21
-3.06766
0
LINE
8
BLACK
6
CONTINUOUS
10
5.24932
20
-3.06766
11
5.23693
21
-3.08296
0
LINE
8
BLACK
6
CONTINUOUS
10
5.23693
20
-3.08296
11
5.23427
21
-3.08517
0
LINE
8
BLACK
6
CONTINUOUS
10
5.23427
20
-3.08517
11
5.23097
21
-3.08619
0
LINE
8
BLACK
6
CONTINUOUS
10
5.23097
20
-3.08619
11
5.22753
21
-3.08588
0
LINE
8
BLACK
6
CONTINUOUS
10
5.22753
20
-3.08588
11
5.22447
21
-3.08427
0
LINE
8
BLACK
6
CONTINUOUS
10
5.22447
20
-3.08427
11
5.2107
21
-3.07312
0
LINE
8
BLACK
6
CONTINUOUS
10
5.2107
20
-3.07312
11
5.20849
21
-3.07046
0
LINE
8
BLACK
6
CONTINUOUS
10
5.20849
20
-3.07046
11
5.20747
21
-3.06716
0
LINE
8
BLACK
6
CONTINUOUS
10
5.20747
20
-3.06716
11
5.20778
21
-3.06372
0
LINE
8
BLACK
6
CONTINUOUS
10
5.20778
20
-3.06372
11
5.20939
21
-3.06066
0
LINE
8
BLACK
6
CONTINUOUS
10
5.20939
20
-3.06066
11
5.22178
21
-3.04536
0
LINE
8
BLACK
6
CONTINUOUS
10
5.22178
20
-3.04536
11
5.22444
21
-3.04315
0
LINE
8
BLACK
6
CONTINUOUS
10
5.22444
20
-3.04315
11
5.22774
21
-3.04213
0
LINE
8
BLACK
6
CONTINUOUS
10
5.22774
20
-3.04213
11
5.23118
21
-3.04244
0
LINE
8
BLACK
6
CONTINUOUS
10
5.27861
20
-3.08085
11
5.28167
21
-3.08246
0
LINE
8
BLACK
6
CONTINUOUS
10
5.28167
20
-3.08246
11
5.29543
21
-3.09361
0
LINE
8
BLACK
6
CONTINUOUS
10
5.29543
20
-3.09361
11
5.29764
21
-3.09626
0
LINE
8
BLACK
6
CONTINUOUS
10
5.29764
20
-3.09626
11
5.29867
21
-3.09956
0
LINE
8
BLACK
6
CONTINUOUS
10
5.29867
20
-3.09956
11
5.29835
21
-3.10301
0
LINE
8
BLACK
6
CONTINUOUS
10
5.29835
20
-3.10301
11
5.29674
21
-3.10607
0
LINE
8
BLACK
6
CONTINUOUS
10
5.29674
20
-3.10607
11
5.28436
21
-3.12136
0
LINE
8
BLACK
6
CONTINUOUS
10
5.28436
20
-3.12136
11
5.2817
21
-3.12357
0
LINE
8
BLACK
6
CONTINUOUS
10
5.2817
20
-3.12357
11
5.2784
21
-3.1246
0
LINE
8
BLACK
6
CONTINUOUS
10
5.2784
20
-3.1246
11
5.27496
21
-3.12428
0
LINE
8
BLACK
6
CONTINUOUS
10
5.27496
20
-3.12428
11
5.2719
21
-3.12267
0
LINE
8
BLACK
6
CONTINUOUS
10
5.2719
20
-3.12267
11
5.25813
21
-3.11152
0
LINE
8
BLACK
6
CONTINUOUS
10
5.25813
20
-3.11152
11
5.25592
21
-3.10887
0
LINE
8
BLACK
6
CONTINUOUS
10
5.25592
20
-3.10887
11
5.25489
21
-3.10557
0
LINE
8
BLACK
6
CONTINUOUS
10
5.25489
20
-3.10557
11
5.25521
21
-3.10212
0
LINE
8
BLACK
6
CONTINUOUS
10
5.25521
20
-3.10212
11
5.25682
21
-3.09906
0
LINE
8
BLACK
6
CONTINUOUS
10
5.25682
20
-3.09906
11
5.26921
21
-3.08377
0
LINE
8
BLACK
6
CONTINUOUS
10
5.26921
20
-3.08377
11
5.27186
21
-3.08156
0
LINE
8
BLACK
6
CONTINUOUS
10
5.27186
20
-3.08156
11
5.27516
21
-3.08053
0
LINE
8
BLACK
6
CONTINUOUS
10
5.27516
20
-3.08053
11
5.27861
21
-3.08085
0
LINE
8
BLACK
6
CONTINUOUS
10
3.72293
20
-3.07363
11
3.72547
21
-3.07598
0
LINE
8
BLACK
6
CONTINUOUS
10
3.72547
20
-3.07598
11
3.73704
21
-3.09191
0
LINE
8
BLACK
6
CONTINUOUS
10
3.73704
20
-3.09191
11
3.73849
21
-3.09505
0
LINE
8
BLACK
6
CONTINUOUS
10
3.73849
20
-3.09505
11
3.73862
21
-3.0985
0
LINE
8
BLACK
6
CONTINUOUS
10
3.73862
20
-3.0985
11
3.73743
21
-3.10174
0
LINE
8
BLACK
6
CONTINUOUS
10
3.73743
20
-3.10174
11
3.73508
21
-3.10428
0
LINE
8
BLACK
6
CONTINUOUS
10
3.73508
20
-3.10428
11
3.72075
21
-3.11469
0
LINE
8
BLACK
6
CONTINUOUS
10
3.72075
20
-3.11469
11
3.71761
21
-3.11614
0
LINE
8
BLACK
6
CONTINUOUS
10
3.71761
20
-3.11614
11
3.71415
21
-3.11628
0
LINE
8
BLACK
6
CONTINUOUS
10
3.71415
20
-3.11628
11
3.71091
21
-3.11508
0
LINE
8
BLACK
6
CONTINUOUS
10
3.71091
20
-3.11508
11
3.70837
21
-3.11273
0
LINE
8
BLACK
6
CONTINUOUS
10
3.70837
20
-3.11273
11
3.6968
21
-3.09681
0
LINE
8
BLACK
6
CONTINUOUS
10
3.6968
20
-3.09681
11
3.69536
21
-3.09367
0
LINE
8
BLACK
6
CONTINUOUS
10
3.69536
20
-3.09367
11
3.69522
21
-3.09022
0
LINE
8
BLACK
6
CONTINUOUS
10
3.69522
20
-3.09022
11
3.69642
21
-3.08697
0
LINE
8
BLACK
6
CONTINUOUS
10
3.69642
20
-3.08697
11
3.69876
21
-3.08443
0
LINE
8
BLACK
6
CONTINUOUS
10
3.69876
20
-3.08443
11
3.7131
21
-3.07402
0
LINE
8
BLACK
6
CONTINUOUS
10
3.7131
20
-3.07402
11
3.71623
21
-3.07257
0
LINE
8
BLACK
6
CONTINUOUS
10
3.71623
20
-3.07257
11
3.71969
21
-3.07244
0
LINE
8
BLACK
6
CONTINUOUS
10
3.71969
20
-3.07244
11
3.72293
21
-3.07363
0
LINE
8
BLACK
6
CONTINUOUS
10
5.14113
20
-3.10215
11
5.12999
21
-3.11329
0
LINE
8
BLACK
6
CONTINUOUS
10
5.12999
20
-3.11329
11
5.10772
21
-3.09102
0
LINE
8
BLACK
6
CONTINUOUS
10
5.10772
20
-3.09102
11
5.11886
21
-3.07988
0
LINE
8
BLACK
6
CONTINUOUS
10
5.11886
20
-3.07988
11
5.14113
21
-3.10215
0
LINE
8
BLACK
6
CONTINUOUS
10
5.17398
20
-3.0693
11
5.15171
21
-3.09158
0
LINE
8
BLACK
6
CONTINUOUS
10
5.15171
20
-3.09158
11
5.12944
21
-3.0693
0
LINE
8
BLACK
6
CONTINUOUS
10
5.12944
20
-3.0693
11
5.15171
21
-3.04703
0
LINE
8
BLACK
6
CONTINUOUS
10
5.15171
20
-3.04703
11
5.17398
21
-3.0693
0
LINE
8
BLACK
6
CONTINUOUS
10
3.65509
20
-2.8291
11
3.65791
21
-2.8311
0
LINE
8
BLACK
6
CONTINUOUS
10
3.65791
20
-2.8311
11
3.65976
21
-2.83402
0
LINE
8
BLACK
6
CONTINUOUS
10
3.65976
20
-2.83402
11
3.66681
21
-2.8524
0
LINE
8
BLACK
6
CONTINUOUS
10
3.66681
20
-2.8524
11
3.6674
21
-2.85581
0
LINE
8
BLACK
6
CONTINUOUS
10
3.6674
20
-2.85581
11
3.66663
21
-2.85918
0
LINE
8
BLACK
6
CONTINUOUS
10
3.66663
20
-2.85918
11
3.66464
21
-2.862
0
LINE
8
BLACK
6
CONTINUOUS
10
3.66464
20
-2.862
11
3.66172
21
-2.86384
0
LINE
8
BLACK
6
CONTINUOUS
10
3.66172
20
-2.86384
11
3.64518
21
-2.87019
0
LINE
8
BLACK
6
CONTINUOUS
10
3.64518
20
-2.87019
11
3.64177
21
-2.87078
0
LINE
8
BLACK
6
CONTINUOUS
10
3.64177
20
-2.87078
11
3.6384
21
-2.87002
0
LINE
8
BLACK
6
CONTINUOUS
10
3.6384
20
-2.87002
11
3.63558
21
-2.86802
0
LINE
8
BLACK
6
CONTINUOUS
10
3.63558
20
-2.86802
11
3.63373
21
-2.8651
0
LINE
8
BLACK
6
CONTINUOUS
10
3.63373
20
-2.8651
11
3.62668
21
-2.84672
0
LINE
8
BLACK
6
CONTINUOUS
10
3.62668
20
-2.84672
11
3.62609
21
-2.84331
0
LINE
8
BLACK
6
CONTINUOUS
10
3.62609
20
-2.84331
11
3.62685
21
-2.83994
0
LINE
8
BLACK
6
CONTINUOUS
10
3.62685
20
-2.83994
11
3.62885
21
-2.83712
0
LINE
8
BLACK
6
CONTINUOUS
10
3.62885
20
-2.83712
11
3.63177
21
-2.83528
0
LINE
8
BLACK
6
CONTINUOUS
10
3.63177
20
-2.83528
11
3.64831
21
-2.82893
0
LINE
8
BLACK
6
CONTINUOUS
10
3.64831
20
-2.82893
11
3.65172
21
-2.82834
0
LINE
8
BLACK
6
CONTINUOUS
10
3.65172
20
-2.82834
11
3.65509
21
-2.8291
0
LINE
8
BLACK
6
CONTINUOUS
10
3.74358
20
-2.88512
11
3.71631
21
-2.90087
0
LINE
8
BLACK
6
CONTINUOUS
10
3.71631
20
-2.90087
11
3.70154
21
-2.8753
0
LINE
8
BLACK
6
CONTINUOUS
10
3.70154
20
-2.8753
11
3.72882
21
-2.85955
0
LINE
8
BLACK
6
CONTINUOUS
10
3.72882
20
-2.85955
11
3.74358
21
-2.88512
0
LINE
8
BLACK
6
CONTINUOUS
10
3.76435
20
-2.92109
11
3.73707
21
-2.93684
0
LINE
8
BLACK
6
CONTINUOUS
10
3.73707
20
-2.93684
11
3.72526
21
-2.91638
0
LINE
8
BLACK
6
CONTINUOUS
10
3.72526
20
-2.91638
11
3.75254
21
-2.90063
0
LINE
8
BLACK
6
CONTINUOUS
10
3.75254
20
-2.90063
11
3.76435
21
-2.92109
0
LINE
8
BLACK
6
CONTINUOUS
10
3.7797
20
-2.94769
11
3.75243
21
-2.96343
0
LINE
8
BLACK
6
CONTINUOUS
10
3.75243
20
-2.96343
11
3.74455
21
-2.9498
0
LINE
8
BLACK
6
CONTINUOUS
10
3.74455
20
-2.9498
11
3.77183
21
-2.93405
0
LINE
8
BLACK
6
CONTINUOUS
10
3.77183
20
-2.93405
11
3.7797
21
-2.94769
0
LINE
8
BLACK
6
CONTINUOUS
10
3.80293
20
-2.98792
11
3.77566
21
-3.00367
0
LINE
8
BLACK
6
CONTINUOUS
10
3.77566
20
-3.00367
11
3.75991
21
-2.97639
0
LINE
8
BLACK
6
CONTINUOUS
10
3.75991
20
-2.97639
11
3.78718
21
-2.96064
0
LINE
8
BLACK
6
CONTINUOUS
10
3.78718
20
-2.96064
11
3.80293
21
-2.98792
0
LINE
8
BLACK
6
CONTINUOUS
10
5.23901
20
-2.97827
11
5.22425
21
-3.00384
0
LINE
8
BLACK
6
CONTINUOUS
10
5.22425
20
-3.00384
11
5.19697
21
-2.98809
0
LINE
8
BLACK
6
CONTINUOUS
10
5.19697
20
-2.98809
11
5.21173
21
-2.96252
0
LINE
8
BLACK
6
CONTINUOUS
10
5.21173
20
-2.96252
11
5.23901
21
-2.97827
0
LINE
8
BLACK
6
CONTINUOUS
10
5.25978
20
-2.94229
11
5.24797
21
-2.96275
0
LINE
8
BLACK
6
CONTINUOUS
10
5.24797
20
-2.96275
11
5.22069
21
-2.947
0
LINE
8
BLACK
6
CONTINUOUS
10
5.22069
20
-2.947
11
5.2325
21
-2.92655
0
LINE
8
BLACK
6
CONTINUOUS
10
5.2325
20
-2.92655
11
5.25978
21
-2.94229
0
LINE
8
BLACK
6
CONTINUOUS
10
5.27513
20
-2.9157
11
5.26726
21
-2.92934
0
LINE
8
BLACK
6
CONTINUOUS
10
5.26726
20
-2.92934
11
5.23998
21
-2.91359
0
LINE
8
BLACK
6
CONTINUOUS
10
5.23998
20
-2.91359
11
5.24786
21
-2.89995
0
LINE
8
BLACK
6
CONTINUOUS
10
5.24786
20
-2.89995
11
5.27513
21
-2.9157
0
LINE
8
BLACK
6
CONTINUOUS
10
5.29836
20
-2.87547
11
5.28261
21
-2.90274
0
LINE
8
BLACK
6
CONTINUOUS
10
5.28261
20
-2.90274
11
5.25534
21
-2.887
0
LINE
8
BLACK
6
CONTINUOUS
10
5.25534
20
-2.887
11
5.27108
21
-2.85972
0
LINE
8
BLACK
6
CONTINUOUS
10
5.27108
20
-2.85972
11
5.29836
21
-2.87547
0
LINE
8
BLACK
6
CONTINUOUS
10
5.35003
20
-2.83548
11
5.36622
21
-2.84269
0
LINE
8
BLACK
6
CONTINUOUS
10
5.36622
20
-2.84269
11
5.36904
21
-2.84468
0
LINE
8
BLACK
6
CONTINUOUS
10
5.36904
20
-2.84468
11
5.37089
21
-2.8476
0
LINE
8
BLACK
6
CONTINUOUS
10
5.37089
20
-2.8476
11
5.37147
21
-2.85101
0
LINE
8
BLACK
6
CONTINUOUS
10
5.37147
20
-2.85101
11
5.37071
21
-2.85438
0
LINE
8
BLACK
6
CONTINUOUS
10
5.37071
20
-2.85438
11
5.3627
21
-2.87236
0
LINE
8
BLACK
6
CONTINUOUS
10
5.3627
20
-2.87236
11
5.36071
21
-2.87519
0
LINE
8
BLACK
6
CONTINUOUS
10
5.36071
20
-2.87519
11
5.35778
21
-2.87703
0
LINE
8
BLACK
6
CONTINUOUS
10
5.35778
20
-2.87703
11
5.35438
21
-2.87762
0
LINE
8
BLACK
6
CONTINUOUS
10
5.35438
20
-2.87762
11
5.35101
21
-2.87685
0
LINE
8
BLACK
6
CONTINUOUS
10
5.35101
20
-2.87685
11
5.33482
21
-2.86965
0
LINE
8
BLACK
6
CONTINUOUS
10
5.33482
20
-2.86965
11
5.332
21
-2.86765
0
LINE
8
BLACK
6
CONTINUOUS
10
5.332
20
-2.86765
11
5.33015
21
-2.86473
0
LINE
8
BLACK
6
CONTINUOUS
10
5.33015
20
-2.86473
11
5.32957
21
-2.86132
0
LINE
8
BLACK
6
CONTINUOUS
10
5.32957
20
-2.86132
11
5.33033
21
-2.85795
0
LINE
8
BLACK
6
CONTINUOUS
10
5.33033
20
-2.85795
11
5.33834
21
-2.83997
0
LINE
8
BLACK
6
CONTINUOUS
10
5.33834
20
-2.83997
11
5.34033
21
-2.83715
0
LINE
8
BLACK
6
CONTINUOUS
10
5.34033
20
-2.83715
11
5.34326
21
-2.8353
0
LINE
8
BLACK
6
CONTINUOUS
10
5.34326
20
-2.8353
11
5.34666
21
-2.83472
0
LINE
8
BLACK
6
CONTINUOUS
10
5.34666
20
-2.83472
11
5.35003
21
-2.83548
0
LINE
8
BLACK
6
CONTINUOUS
10
5.40578
20
-2.8603
11
5.42197
21
-2.86751
0
LINE
8
BLACK
6
CONTINUOUS
10
5.42197
20
-2.86751
11
5.42479
21
-2.8695
0
LINE
8
BLACK
6
CONTINUOUS
10
5.42479
20
-2.8695
11
5.42663
21
-2.87242
0
LINE
8
BLACK
6
CONTINUOUS
10
5.42663
20
-2.87242
11
5.42722
21
-2.87583
0
LINE
8
BLACK
6
CONTINUOUS
10
5.42722
20
-2.87583
11
5.42646
21
-2.8792
0
LINE
8
BLACK
6
CONTINUOUS
10
5.42646
20
-2.8792
11
5.41845
21
-2.89718
0
LINE
8
BLACK
6
CONTINUOUS
10
5.41845
20
-2.89718
11
5.41645
21
-2.90001
0
LINE
8
BLACK
6
CONTINUOUS
10
5.41645
20
-2.90001
11
5.41353
21
-2.90185
0
LINE
8
BLACK
6
CONTINUOUS
10
5.41353
20
-2.90185
11
5.41013
21
-2.90244
0
LINE
8
BLACK
6
CONTINUOUS
10
5.41013
20
-2.90244
11
5.40675
21
-2.90167
0
LINE
8
BLACK
6
CONTINUOUS
10
5.40675
20
-2.90167
11
5.39057
21
-2.89447
0
LINE
8
BLACK
6
CONTINUOUS
10
5.39057
20
-2.89447
11
5.38775
21
-2.89247
0
LINE
8
BLACK
6
CONTINUOUS
10
5.38775
20
-2.89247
11
5.3859
21
-2.88955
0
LINE
8
BLACK
6
CONTINUOUS
10
5.3859
20
-2.88955
11
5.38532
21
-2.88614
0
LINE
8
BLACK
6
CONTINUOUS
10
5.38532
20
-2.88614
11
5.38608
21
-2.88277
0
LINE
8
BLACK
6
CONTINUOUS
10
5.38608
20
-2.88277
11
5.39409
21
-2.86479
0
LINE
8
BLACK
6
CONTINUOUS
10
5.39409
20
-2.86479
11
5.39608
21
-2.86197
0
LINE
8
BLACK
6
CONTINUOUS
10
5.39608
20
-2.86197
11
5.399
21
-2.86012
0
LINE
8
BLACK
6
CONTINUOUS
10
5.399
20
-2.86012
11
5.40241
21
-2.85954
0
LINE
8
BLACK
6
CONTINUOUS
10
5.40241
20
-2.85954
11
5.40578
21
-2.8603
0
LINE
8
BLACK
6
CONTINUOUS
10
3.59812
20
-2.85097
11
3.60094
21
-2.85297
0
LINE
8
BLACK
6
CONTINUOUS
10
3.60094
20
-2.85297
11
3.60279
21
-2.85589
0
LINE
8
BLACK
6
CONTINUOUS
10
3.60279
20
-2.85589
11
3.60984
21
-2.87427
0
LINE
8
BLACK
6
CONTINUOUS
10
3.60984
20
-2.87427
11
3.61043
21
-2.87768
0
LINE
8
BLACK
6
CONTINUOUS
10
3.61043
20
-2.87768
11
3.60966
21
-2.88105
0
LINE
8
BLACK
6
CONTINUOUS
10
3.60966
20
-2.88105
11
3.60767
21
-2.88387
0
LINE
8
BLACK
6
CONTINUOUS
10
3.60767
20
-2.88387
11
3.60474
21
-2.88571
0
LINE
8
BLACK
6
CONTINUOUS
10
3.60474
20
-2.88571
11
3.5882
21
-2.89206
0
LINE
8
BLACK
6
CONTINUOUS
10
3.5882
20
-2.89206
11
3.5848
21
-2.89265
0
LINE
8
BLACK
6
CONTINUOUS
10
3.5848
20
-2.89265
11
3.58143
21
-2.89189
0
LINE
8
BLACK
6
CONTINUOUS
10
3.58143
20
-2.89189
11
3.5786
21
-2.88989
0
LINE
8
BLACK
6
CONTINUOUS
10
3.5786
20
-2.88989
11
3.57676
21
-2.88697
0
LINE
8
BLACK
6
CONTINUOUS
10
3.57676
20
-2.88697
11
3.56971
21
-2.86859
0
LINE
8
BLACK
6
CONTINUOUS
10
3.56971
20
-2.86859
11
3.56912
21
-2.86518
0
LINE
8
BLACK
6
CONTINUOUS
10
3.56912
20
-2.86518
11
3.56988
21
-2.86181
0
LINE
8
BLACK
6
CONTINUOUS
10
3.56988
20
-2.86181
11
3.57188
21
-2.85899
0
LINE
8
BLACK
6
CONTINUOUS
10
3.57188
20
-2.85899
11
3.5748
21
-2.85715
0
LINE
8
BLACK
6
CONTINUOUS
10
3.5748
20
-2.85715
11
3.59134
21
-2.8508
0
LINE
8
BLACK
6
CONTINUOUS
10
3.59134
20
-2.8508
11
3.59475
21
-2.85021
0
LINE
8
BLACK
6
CONTINUOUS
10
3.59475
20
-2.85021
11
3.59812
21
-2.85097
0
LINE
8
BLACK
6
CONTINUOUS
10
3.7004
20
-2.79088
11
3.66998
21
-2.79903
0
LINE
8
BLACK
6
CONTINUOUS
10
3.66998
20
-2.79903
11
3.66183
21
-2.76861
0
LINE
8
BLACK
6
CONTINUOUS
10
3.66183
20
-2.76861
11
3.69225
21
-2.76046
0
LINE
8
BLACK
6
CONTINUOUS
10
3.69225
20
-2.76046
11
3.7004
21
-2.79088
0
LINE
8
BLACK
6
CONTINUOUS
10
5.33761
20
-2.7707
11
5.32997
21
-2.79922
0
LINE
8
BLACK
6
CONTINUOUS
10
5.32997
20
-2.79922
11
5.29955
21
-2.79107
0
LINE
8
BLACK
6
CONTINUOUS
10
5.29955
20
-2.79107
11
5.30719
21
-2.76255
0
LINE
8
BLACK
6
CONTINUOUS
10
5.30719
20
-2.76255
11
5.33761
21
-2.7707
0
LINE
8
BLACK
6
CONTINUOUS
10
3.68838
20
-2.746
11
3.65795
21
-2.75416
0
LINE
8
BLACK
6
CONTINUOUS
10
3.65795
20
-2.75416
11
3.65388
21
-2.73895
0
LINE
8
BLACK
6
CONTINUOUS
10
3.65388
20
-2.73895
11
3.6843
21
-2.73079
0
LINE
8
BLACK
6
CONTINUOUS
10
3.6843
20
-2.73079
11
3.68838
21
-2.746
0
LINE
8
BLACK
6
CONTINUOUS
10
3.68043
20
-2.71634
11
3.65001
21
-2.72449
0
LINE
8
BLACK
6
CONTINUOUS
10
3.65001
20
-2.72449
11
3.64389
21
-2.70168
0
LINE
8
BLACK
6
CONTINUOUS
10
3.64389
20
-2.70168
11
3.67432
21
-2.69353
0
LINE
8
BLACK
6
CONTINUOUS
10
3.67432
20
-2.69353
11
3.68043
21
-2.71634
0
LINE
8
BLACK
6
CONTINUOUS
10
5.34836
20
-2.73058
11
5.34225
21
-2.7534
0
LINE
8
BLACK
6
CONTINUOUS
10
5.34225
20
-2.7534
11
5.31183
21
-2.74524
0
LINE
8
BLACK
6
CONTINUOUS
10
5.31183
20
-2.74524
11
5.31794
21
-2.72243
0
LINE
8
BLACK
6
CONTINUOUS
10
5.31794
20
-2.72243
11
5.34836
21
-2.73058
0
LINE
8
BLACK
6
CONTINUOUS
10
5.35631
20
-2.70092
11
5.35224
21
-2.71613
0
LINE
8
BLACK
6
CONTINUOUS
10
5.35224
20
-2.71613
11
5.32181
21
-2.70798
0
LINE
8
BLACK
6
CONTINUOUS
10
5.32181
20
-2.70798
11
5.32589
21
-2.69276
0
LINE
8
BLACK
6
CONTINUOUS
10
5.32589
20
-2.69276
11
5.35631
21
-2.70092
0
LINE
8
BLACK
6
CONTINUOUS
10
3.66968
20
-2.67622
11
3.63926
21
-2.68437
0
LINE
8
BLACK
6
CONTINUOUS
10
3.63926
20
-2.68437
11
3.63161
21
-2.65585
0
LINE
8
BLACK
6
CONTINUOUS
10
3.63161
20
-2.65585
11
3.66204
21
-2.6477
0
LINE
8
BLACK
6
CONTINUOUS
10
3.66204
20
-2.6477
11
3.66968
21
-2.67622
0
LINE
8
BLACK
6
CONTINUOUS
10
5.36833
20
-2.65604
11
5.36018
21
-2.68647
0
LINE
8
BLACK
6
CONTINUOUS
10
5.36018
20
-2.68647
11
5.32976
21
-2.67831
0
LINE
8
BLACK
6
CONTINUOUS
10
5.32976
20
-2.67831
11
5.33791
21
-2.64789
0
LINE
8
BLACK
6
CONTINUOUS
10
5.33791
20
-2.64789
11
5.36833
21
-2.65604
0
LINE
8
BLACK
6
CONTINUOUS
10
3.59564
20
-2.5976
11
3.5987
21
-2.59921
0
LINE
8
BLACK
6
CONTINUOUS
10
3.5987
20
-2.59921
11
3.60091
21
-2.60187
0
LINE
8
BLACK
6
CONTINUOUS
10
3.60091
20
-2.60187
11
3.60194
21
-2.60517
0
LINE
8
BLACK
6
CONTINUOUS
10
3.60194
20
-2.60517
11
3.60399
21
-2.62475
0
LINE
8
BLACK
6
CONTINUOUS
10
3.60399
20
-2.62475
11
3.60368
21
-2.62819
0
LINE
8
BLACK
6
CONTINUOUS
10
3.60368
20
-2.62819
11
3.60207
21
-2.63125
0
LINE
8
BLACK
6
CONTINUOUS
10
3.60207
20
-2.63125
11
3.59941
21
-2.63346
0
LINE
8
BLACK
6
CONTINUOUS
10
3.59941
20
-2.63346
11
3.59611
21
-2.63448
0
LINE
8
BLACK
6
CONTINUOUS
10
3.59611
20
-2.63448
11
3.57849
21
-2.63633
0
LINE
8
BLACK
6
CONTINUOUS
10
3.57849
20
-2.63633
11
3.57505
21
-2.63602
0
LINE
8
BLACK
6
CONTINUOUS
10
3.57505
20
-2.63602
11
3.57199
21
-2.63441
0
LINE
8
BLACK
6
CONTINUOUS
10
3.57199
20
-2.63441
11
3.56978
21
-2.63175
0
LINE
8
BLACK
6
CONTINUOUS
10
3.56978
20
-2.63175
11
3.56875
21
-2.62845
0
LINE
8
BLACK
6
CONTINUOUS
10
3.56875
20
-2.62845
11
3.5667
21
-2.60887
0
LINE
8
BLACK
6
CONTINUOUS
10
3.5667
20
-2.60887
11
3.56701
21
-2.60543
0
LINE
8
BLACK
6
CONTINUOUS
10
3.56701
20
-2.60543
11
3.56862
21
-2.60237
0
LINE
8
BLACK
6
CONTINUOUS
10
3.56862
20
-2.60237
11
3.57128
21
-2.60016
0
LINE
8
BLACK
6
CONTINUOUS
10
3.57128
20
-2.60016
11
3.57458
21
-2.59914
0
LINE
8
BLACK
6
CONTINUOUS
10
3.57458
20
-2.59914
11
3.5922
21
-2.59729
0
LINE
8
BLACK
6
CONTINUOUS
10
3.5922
20
-2.59729
11
3.59564
21
-2.5976
0
LINE
8
BLACK
6
CONTINUOUS
10
5.4254
20
-2.60682
11
5.42864
21
-2.60801
0
LINE
8
BLACK
6
CONTINUOUS
10
5.42864
20
-2.60801
11
5.43118
21
-2.61036
0
LINE
8
BLACK
6
CONTINUOUS
10
5.43118
20
-2.61036
11
5.43262
21
-2.6135
0
LINE
8
BLACK
6
CONTINUOUS
10
5.43262
20
-2.6135
11
5.43276
21
-2.61695
0
LINE
8
BLACK
6
CONTINUOUS
10
5.43276
20
-2.61695
11
5.42968
21
-2.63639
0
LINE
8
BLACK
6
CONTINUOUS
10
5.42968
20
-2.63639
11
5.42848
21
-2.63964
0
LINE
8
BLACK
6
CONTINUOUS
10
5.42848
20
-2.63964
11
5.42614
21
-2.64217
0
LINE
8
BLACK
6
CONTINUOUS
10
5.42614
20
-2.64217
11
5.423
21
-2.64362
0
LINE
8
BLACK
6
CONTINUOUS
10
5.423
20
-2.64362
11
5.41955
21
-2.64376
0
LINE
8
BLACK
6
CONTINUOUS
10
5.41955
20
-2.64376
11
5.40205
21
-2.64098
0
LINE
8
BLACK
6
CONTINUOUS
10
5.40205
20
-2.64098
11
5.3988
21
-2.63979
0
LINE
8
BLACK
6
CONTINUOUS
10
5.3988
20
-2.63979
11
5.39627
21
-2.63744
0
LINE
8
BLACK
6
CONTINUOUS
10
5.39627
20
-2.63744
11
5.39482
21
-2.6343
0
LINE
8
BLACK
6
CONTINUOUS
10
5.39482
20
-2.6343
11
5.39468
21
-2.63085
0
LINE
8
BLACK
6
CONTINUOUS
10
5.39468
20
-2.63085
11
5.39776
21
-2.61141
0
LINE
8
BLACK
6
CONTINUOUS
10
5.39776
20
-2.61141
11
5.39896
21
-2.60816
0
LINE
8
BLACK
6
CONTINUOUS
10
5.39896
20
-2.60816
11
5.40131
21
-2.60563
0
LINE
8
BLACK
6
CONTINUOUS
10
5.40131
20
-2.60563
11
5.40444
21
-2.60418
0
LINE
8
BLACK
6
CONTINUOUS
10
5.40444
20
-2.60418
11
5.4079
21
-2.60404
0
LINE
8
BLACK
6
CONTINUOUS
10
5.4079
20
-2.60404
11
5.4254
21
-2.60682
0
LINE
8
BLACK
6
CONTINUOUS
10
5.48567
20
-2.61636
11
5.48891
21
-2.61756
0
LINE
8
BLACK
6
CONTINUOUS
10
5.48891
20
-2.61756
11
5.49145
21
-2.6199
0
LINE
8
BLACK
6
CONTINUOUS
10
5.49145
20
-2.6199
11
5.4929
21
-2.62304
0
LINE
8
BLACK
6
CONTINUOUS
10
5.4929
20
-2.62304
11
5.49303
21
-2.6265
0
LINE
8
BLACK
6
CONTINUOUS
10
5.49303
20
-2.6265
11
5.48995
21
-2.64594
0
LINE
8
BLACK
6
CONTINUOUS
10
5.48995
20
-2.64594
11
5.48876
21
-2.64918
0
LINE
8
BLACK
6
CONTINUOUS
10
5.48876
20
-2.64918
11
5.48641
21
-2.65172
0
LINE
8
BLACK
6
CONTINUOUS
10
5.48641
20
-2.65172
11
5.48327
21
-2.65317
0
LINE
8
BLACK
6
CONTINUOUS
10
5.48327
20
-2.65317
11
5.47982
21
-2.6533
0
LINE
8
BLACK
6
CONTINUOUS
10
5.47982
20
-2.6533
11
5.46232
21
-2.65053
0
LINE
8
BLACK
6
CONTINUOUS
10
5.46232
20
-2.65053
11
5.45908
21
-2.64933
0
LINE
8
BLACK
6
CONTINUOUS
10
5.45908
20
-2.64933
11
5.45654
21
-2.64699
0
LINE
8
BLACK
6
CONTINUOUS
10
5.45654
20
-2.64699
11
5.45509
21
-2.64385
0
LINE
8
BLACK
6
CONTINUOUS
10
5.45509
20
-2.64385
11
5.45496
21
-2.6404
0
LINE
8
BLACK
6
CONTINUOUS
10
5.45496
20
-2.6404
11
5.45804
21
-2.62095
0
LINE
8
BLACK
6
CONTINUOUS
10
5.45804
20
-2.62095
11
5.45923
21
-2.61771
0
LINE
8
BLACK
6
CONTINUOUS
10
5.45923
20
-2.61771
11
5.46158
21
-2.61517
0
LINE
8
BLACK
6
CONTINUOUS
10
5.46158
20
-2.61517
11
5.46472
21
-2.61373
0
LINE
8
BLACK
6
CONTINUOUS
10
5.46472
20
-2.61373
11
5.46817
21
-2.61359
0
LINE
8
BLACK
6
CONTINUOUS
10
5.46817
20
-2.61359
11
5.48567
21
-2.61636
0
LINE
8
BLACK
6
CONTINUOUS
10
3.53495
20
-2.60398
11
3.53801
21
-2.60559
0
LINE
8
BLACK
6
CONTINUOUS
10
3.53801
20
-2.60559
11
3.54022
21
-2.60825
0
LINE
8
BLACK
6
CONTINUOUS
10
3.54022
20
-2.60825
11
3.54125
21
-2.61155
0
LINE
8
BLACK
6
CONTINUOUS
10
3.54125
20
-2.61155
11
3.5433
21
-2.63113
0
LINE
8
BLACK
6
CONTINUOUS
10
3.5433
20
-2.63113
11
3.54299
21
-2.63457
0
LINE
8
BLACK
6
CONTINUOUS
10
3.54299
20
-2.63457
11
3.54138
21
-2.63763
0
LINE
8
BLACK
6
CONTINUOUS
10
3.54138
20
-2.63763
11
3.53872
21
-2.63984
0
LINE
8
BLACK
6
CONTINUOUS
10
3.53872
20
-2.63984
11
3.53542
21
-2.64086
0
LINE
8
BLACK
6
CONTINUOUS
10
3.53542
20
-2.64086
11
3.5178
21
-2.64271
0
LINE
8
BLACK
6
CONTINUOUS
10
3.5178
20
-2.64271
11
3.51436
21
-2.6424
0
LINE
8
BLACK
6
CONTINUOUS
10
3.51436
20
-2.6424
11
3.5113
21
-2.64079
0
LINE
8
BLACK
6
CONTINUOUS
10
3.5113
20
-2.64079
11
3.50909
21
-2.63813
0
LINE
8
BLACK
6
CONTINUOUS
10
3.50909
20
-2.63813
11
3.50806
21
-2.63483
0
LINE
8
BLACK
6
CONTINUOUS
10
3.50806
20
-2.63483
11
3.50601
21
-2.61525
0
LINE
8
BLACK
6
CONTINUOUS
10
3.50601
20
-2.61525
11
3.50632
21
-2.61181
0
LINE
8
BLACK
6
CONTINUOUS
10
3.50632
20
-2.61181
11
3.50793
21
-2.60875
0
LINE
8
BLACK
6
CONTINUOUS
10
3.50793
20
-2.60875
11
3.51059
21
-2.60654
0
LINE
8
BLACK
6
CONTINUOUS
10
3.51059
20
-2.60654
11
3.51389
21
-2.60552
0
LINE
8
BLACK
6
CONTINUOUS
10
3.51389
20
-2.60552
11
3.53151
21
-2.60367
0
LINE
8
BLACK
6
CONTINUOUS
10
3.53151
20
-2.60367
11
3.53495
21
-2.60398
0
LINE
8
BLACK
6
CONTINUOUS
10
3.65236
20
-2.57402
11
3.62087
21
-2.57402
0
LINE
8
BLACK
6
CONTINUOUS
10
3.62087
20
-2.57402
11
3.62087
21
-2.54252
0
LINE
8
BLACK
6
CONTINUOUS
10
3.62087
20
-2.54252
11
3.65236
21
-2.54252
0
LINE
8
BLACK
6
CONTINUOUS
10
3.65236
20
-2.54252
11
3.65236
21
-2.57402
0
LINE
8
BLACK
6
CONTINUOUS
10
5.37913
20
-2.57421
11
5.34764
21
-2.57421
0
LINE
8
BLACK
6
CONTINUOUS
10
5.34764
20
-2.57421
11
5.34764
21
-2.54469
0
LINE
8
BLACK
6
CONTINUOUS
10
5.34764
20
-2.54469
11
5.37913
21
-2.54469
0
LINE
8
BLACK
6
CONTINUOUS
10
5.37913
20
-2.54469
11
5.37913
21
-2.57421
0
LINE
8
BLACK
6
CONTINUOUS
10
3.65236
20
-2.52756
11
3.62087
21
-2.52756
0
LINE
8
BLACK
6
CONTINUOUS
10
3.62087
20
-2.52756
11
3.62087
21
-2.51181
0
LINE
8
BLACK
6
CONTINUOUS
10
3.62087
20
-2.51181
11
3.65236
21
-2.51181
0
LINE
8
BLACK
6
CONTINUOUS
10
3.65236
20
-2.51181
11
3.65236
21
-2.52756
0
LINE
8
BLACK
6
CONTINUOUS
10
5.37913
20
-2.52677
11
5.34764
21
-2.52677
0
LINE
8
BLACK
6
CONTINUOUS
10
5.34764
20
-2.52677
11
5.34764
21
-2.50315
0
LINE
8
BLACK
6
CONTINUOUS
10
5.34764
20
-2.50315
11
5.37913
21
-2.50315
0
LINE
8
BLACK
6
CONTINUOUS
10
5.37913
20
-2.50315
11
5.37913
21
-2.52677
0
LINE
8
BLACK
6
CONTINUOUS
10
3.65236
20
-2.49685
11
3.62087
21
-2.49685
0
LINE
8
BLACK
6
CONTINUOUS
10
3.62087
20
-2.49685
11
3.62087
21
-2.47323
0
LINE
8
BLACK
6
CONTINUOUS
10
3.62087
20
-2.47323
11
3.65236
21
-2.47323
0
LINE
8
BLACK
6
CONTINUOUS
10
3.65236
20
-2.47323
11
3.65236
21
-2.49685
0
LINE
8
BLACK
6
CONTINUOUS
10
5.37913
20
-2.48819
11
5.34764
21
-2.48819
0
LINE
8
BLACK
6
CONTINUOUS
10
5.34764
20
-2.48819
11
5.34764
21
-2.47244
0
LINE
8
BLACK
6
CONTINUOUS
10
5.34764
20
-2.47244
11
5.37913
21
-2.47244
0
LINE
8
BLACK
6
CONTINUOUS
10
5.37913
20
-2.47244
11
5.37913
21
-2.48819
0
LINE
8
BLACK
6
CONTINUOUS
10
0.94668
20
-2.4037
11
0.949873
21
-2.40584
0
LINE
8
BLACK
6
CONTINUOUS
10
0.949873
20
-2.40584
11
0.952007
21
-2.40903
0
LINE
8
BLACK
6
CONTINUOUS
10
0.952007
20
-2.40903
11
0.952756
21
-2.4128
0
LINE
8
BLACK
6
CONTINUOUS
10
0.952756
20
-2.4128
11
0.952756
21
-2.44823
0
LINE
8
BLACK
6
CONTINUOUS
10
0.952756
20
-2.44823
11
0.952007
21
-2.45199
0
LINE
8
BLACK
6
CONTINUOUS
10
0.952007
20
-2.45199
11
0.949873
21
-2.45519
0
LINE
8
BLACK
6
CONTINUOUS
10
0.949873
20
-2.45519
11
0.94668
21
-2.45732
0
LINE
8
BLACK
6
CONTINUOUS
10
0.94668
20
-2.45732
11
0.942913
21
-2.45807
0
LINE
8
BLACK
6
CONTINUOUS
10
0.942913
20
-2.45807
11
0.922244
21
-2.45807
0
LINE
8
BLACK
6
CONTINUOUS
10
0.922244
20
-2.45807
11
0.918478
21
-2.45732
0
LINE
8
BLACK
6
CONTINUOUS
10
0.918478
20
-2.45732
11
0.915284
21
-2.45519
0
LINE
8
BLACK
6
CONTINUOUS
10
0.915284
20
-2.45519
11
0.913151
21
-2.45199
0
LINE
8
BLACK
6
CONTINUOUS
10
0.913151
20
-2.45199
11
0.912402
21
-2.44823
0
LINE
8
BLACK
6
CONTINUOUS
10
0.912402
20
-2.44823
11
0.912402
21
-2.4128
0
LINE
8
BLACK
6
CONTINUOUS
10
0.912402
20
-2.4128
11
0.913151
21
-2.40903
0
LINE
8
BLACK
6
CONTINUOUS
10
0.913151
20
-2.40903
11
0.915284
21
-2.40584
0
LINE
8
BLACK
6
CONTINUOUS
10
0.915284
20
-2.40584
11
0.918478
21
-2.4037
0
LINE
8
BLACK
6
CONTINUOUS
10
0.918478
20
-2.4037
11
0.922244
21
-2.40295
0
LINE
8
BLACK
6
CONTINUOUS
10
0.922244
20
-2.40295
11
0.942913
21
-2.40295
0
LINE
8
BLACK
6
CONTINUOUS
10
0.942913
20
-2.40295
11
0.94668
21
-2.4037
0
LINE
8
BLACK
6
CONTINUOUS
10
1.01853
20
-2.4037
11
1.02172
21
-2.40584
0
LINE
8
BLACK
6
CONTINUOUS
10
1.02172
20
-2.40584
11
1.02386
21
-2.40903
0
LINE
8
BLACK
6
CONTINUOUS
10
1.02386
20
-2.40903
11
1.02461
21
-2.4128
0
LINE
8
BLACK
6
CONTINUOUS
10
1.02461
20
-2.4128
11
1.02461
21
-2.44823
0
LINE
8
BLACK
6
CONTINUOUS
10
1.02461
20
-2.44823
11
1.02386
21
-2.45199
0
LINE
8
BLACK
6
CONTINUOUS
10
1.02386
20
-2.45199
11
1.02172
21
-2.45519
0
LINE
8
BLACK
6
CONTINUOUS
10
1.02172
20
-2.45519
11
1.01853
21
-2.45732
0
LINE
8
BLACK
6
CONTINUOUS
10
1.01853
20
-2.45732
11
1.01476
21
-2.45807
0
LINE
8
BLACK
6
CONTINUOUS
10
1.01476
20
-2.45807
11
0.994094
21
-2.45807
0
LINE
8
BLACK
6
CONTINUOUS
10
0.994094
20
-2.45807
11
0.990328
21
-2.45732
0
LINE
8
BLACK
6
CONTINUOUS
10
0.990328
20
-2.45732
11
0.987135
21
-2.45519
0
LINE
8
BLACK
6
CONTINUOUS
10
0.987135
20
-2.45519
11
0.985001
21
-2.45199
0
LINE
8
BLACK
6
CONTINUOUS
10
0.985001
20
-2.45199
11
0.984252
21
-2.44823
0
LINE
8
BLACK
6
CONTINUOUS
10
0.984252
20
-2.44823
11
0.984252
21
-2.4128
0
LINE
8
BLACK
6
CONTINUOUS
10
0.984252
20
-2.4128
11
0.985001
21
-2.40903
0
LINE
8
BLACK
6
CONTINUOUS
10
0.985001
20
-2.40903
11
0.987135
21
-2.40584
0
LINE
8
BLACK
6
CONTINUOUS
10
0.987135
20
-2.40584
11
0.990328
21
-2.4037
0
LINE
8
BLACK
6
CONTINUOUS
10
0.990328
20
-2.4037
11
0.994094
21
-2.40295
0
LINE
8
BLACK
6
CONTINUOUS
10
0.994094
20
-2.40295
11
1.01476
21
-2.40295
0
LINE
8
BLACK
6
CONTINUOUS
10
1.01476
20
-2.40295
11
1.01853
21
-2.4037
0
LINE
8
BLACK
6
CONTINUOUS
10
3.65236
20
-2.45531
11
3.62087
21
-2.45531
0
LINE
8
BLACK
6
CONTINUOUS
10
3.62087
20
-2.45531
11
3.62087
21
-2.42579
0
LINE
8
BLACK
6
CONTINUOUS
10
3.62087
20
-2.42579
11
3.65236
21
-2.42579
0
LINE
8
BLACK
6
CONTINUOUS
10
3.65236
20
-2.42579
11
3.65236
21
-2.45531
0
LINE
8
BLACK
6
CONTINUOUS
10
5.37913
20
-2.45748
11
5.34764
21
-2.45748
0
LINE
8
BLACK
6
CONTINUOUS
10
5.34764
20
-2.45748
11
5.34764
21
-2.42598
0
LINE
8
BLACK
6
CONTINUOUS
10
5.34764
20
-2.42598
11
5.37913
21
-2.42598
0
LINE
8
BLACK
6
CONTINUOUS
10
5.37913
20
-2.42598
11
5.37913
21
-2.45748
0
LINE
8
BLACK
6
CONTINUOUS
10
0.94668
20
-2.3037
11
0.949873
21
-2.30584
0
LINE
8
BLACK
6
CONTINUOUS
10
0.949873
20
-2.30584
11
0.952007
21
-2.30903
0
LINE
8
BLACK
6
CONTINUOUS
10
0.952007
20
-2.30903
11
0.952756
21
-2.3128
0
LINE
8
BLACK
6
CONTINUOUS
10
0.952756
20
-2.3128
11
0.952756
21
-2.34823
0
LINE
8
BLACK
6
CONTINUOUS
10
0.952756
20
-2.34823
11
0.952007
21
-2.35199
0
LINE
8
BLACK
6
CONTINUOUS
10
0.952007
20
-2.35199
11
0.949873
21
-2.35519
0
LINE
8
BLACK
6
CONTINUOUS
10
0.949873
20
-2.35519
11
0.94668
21
-2.35732
0
LINE
8
BLACK
6
CONTINUOUS
10
0.94668
20
-2.35732
11
0.942913
21
-2.35807
0
LINE
8
BLACK
6
CONTINUOUS
10
0.942913
20
-2.35807
11
0.922244
21
-2.35807
0
LINE
8
BLACK
6
CONTINUOUS
10
0.922244
20
-2.35807
11
0.918478
21
-2.35732
0
LINE
8
BLACK
6
CONTINUOUS
10
0.918478
20
-2.35732
11
0.915284
21
-2.35519
0
LINE
8
BLACK
6
CONTINUOUS
10
0.915284
20
-2.35519
11
0.913151
21
-2.35199
0
LINE
8
BLACK
6
CONTINUOUS
10
0.913151
20
-2.35199
11
0.912402
21
-2.34823
0
LINE
8
BLACK
6
CONTINUOUS
10
0.912402
20
-2.34823
11
0.912402
21
-2.3128
0
LINE
8
BLACK
6
CONTINUOUS
10
0.912402
20
-2.3128
11
0.913151
21
-2.30903
0
LINE
8
BLACK
6
CONTINUOUS
10
0.913151
20
-2.30903
11
0.915284
21
-2.30584
0
LINE
8
BLACK
6
CONTINUOUS
10
0.915284
20
-2.30584
11
0.918478
21
-2.3037
0
LINE
8
BLACK
6
CONTINUOUS
10
0.918478
20
-2.3037
11
0.922244
21
-2.30295
0
LINE
8
BLACK
6
CONTINUOUS
10
0.922244
20
-2.30295
11
0.942913
21
-2.30295
0
LINE
8
BLACK
6
CONTINUOUS
10
0.942913
20
-2.30295
11
0.94668
21
-2.3037
0
LINE
8
BLACK
6
CONTINUOUS
10
1.01853
20
-2.3037
11
1.02172
21
-2.30584
0
LINE
8
BLACK
6
CONTINUOUS
10
1.02172
20
-2.30584
11
1.02386
21
-2.30903
0
LINE
8
BLACK
6
CONTINUOUS
10
1.02386
20
-2.30903
11
1.02461
21
-2.3128
0
LINE
8
BLACK
6
CONTINUOUS
10
1.02461
20
-2.3128
11
1.02461
21
-2.34823
0
LINE
8
BLACK
6
CONTINUOUS
10
1.02461
20
-2.34823
11
1.02386
21
-2.35199
0
LINE
8
BLACK
6
CONTINUOUS
10
1.02386
20
-2.35199
11
1.02172
21
-2.35519
0
LINE
8
BLACK
6
CONTINUOUS
10
1.02172
20
-2.35519
11
1.01853
21
-2.35732
0
LINE
8
BLACK
6
CONTINUOUS
10
1.01853
20
-2.35732
11
1.01476
21
-2.35807
0
LINE
8
BLACK
6
CONTINUOUS
10
1.01476
20
-2.35807
11
0.994094
21
-2.35807
0
LINE
8
BLACK
6
CONTINUOUS
10
0.994094
20
-2.35807
11
0.990328
21
-2.35732
0
LINE
8
BLACK
6
CONTINUOUS
10
0.990328
20
-2.35732
11
0.987135
21
-2.35519
0
LINE
8
BLACK
6
CONTINUOUS
10
0.987135
20
-2.35519
11
0.985001
21
-2.35199
0
LINE
8
BLACK
6
CONTINUOUS
10
0.985001
20
-2.35199
11
0.984252
21
-2.34823
0
LINE
8
BLACK
6
CONTINUOUS
10
0.984252
20
-2.34823
11
0.984252
21
-2.3128
0
LINE
8
BLACK
6
CONTINUOUS
10
0.984252
20
-2.3128
11
0.985001
21
-2.30903
0
LINE
8
BLACK
6
CONTINUOUS
10
0.985001
20
-2.30903
11
0.987135
21
-2.30584
0
LINE
8
BLACK
6
CONTINUOUS
10
0.987135
20
-2.30584
11
0.990328
21
-2.3037
0
LINE
8
BLACK
6
CONTINUOUS
10
0.990328
20
-2.3037
11
0.994094
21
-2.30295
0
LINE
8
BLACK
6
CONTINUOUS
10
0.994094
20
-2.30295
11
1.01476
21
-2.30295
0
LINE
8
BLACK
6
CONTINUOUS
10
1.01476
20
-2.30295
11
1.01853
21
-2.3037
0
LINE
8
BLACK
6
CONTINUOUS
10
3.53768
20
-2.34947
11
3.54092
21
-2.35067
0
LINE
8
BLACK
6
CONTINUOUS
10
3.54092
20
-2.35067
11
3.54346
21
-2.35301
0
LINE
8
BLACK
6
CONTINUOUS
10
3.54346
20
-2.35301
11
3.54491
21
-2.35615
0
LINE
8
BLACK
6
CONTINUOUS
10
3.54491
20
-2.35615
11
3.54504
21
-2.3596
0
LINE
8
BLACK
6
CONTINUOUS
10
3.54504
20
-2.3596
11
3.54196
21
-2.37905
0
LINE
8
BLACK
6
CONTINUOUS
10
3.54196
20
-2.37905
11
3.54077
21
-2.38229
0
LINE
8
BLACK
6
CONTINUOUS
10
3.54077
20
-2.38229
11
3.53842
21
-2.38483
0
LINE
8
BLACK
6
CONTINUOUS
10
3.53842
20
-2.38483
11
3.53528
21
-2.38627
0
LINE
8
BLACK
6
CONTINUOUS
10
3.53528
20
-2.38627
11
3.53183
21
-2.38641
0
LINE
8
BLACK
6
CONTINUOUS
10
3.53183
20
-2.38641
11
3.51433
21
-2.38364
0
LINE
8
BLACK
6
CONTINUOUS
10
3.51433
20
-2.38364
11
3.51109
21
-2.38244
0
LINE
8
BLACK
6
CONTINUOUS
10
3.51109
20
-2.38244
11
3.50855
21
-2.3801
0
LINE
8
BLACK
6
CONTINUOUS
10
3.50855
20
-2.3801
11
3.5071
21
-2.37696
0
LINE
8
BLACK
6
CONTINUOUS
10
3.5071
20
-2.37696
11
3.50697
21
-2.3735
0
LINE
8
BLACK
6
CONTINUOUS
10
3.50697
20
-2.3735
11
3.51005
21
-2.35406
0
LINE
8
BLACK
6
CONTINUOUS
10
3.51005
20
-2.35406
11
3.51124
21
-2.35082
0
LINE
8
BLACK
6
CONTINUOUS
10
3.51124
20
-2.35082
11
3.51359
21
-2.34828
0
LINE
8
BLACK
6
CONTINUOUS
10
3.51359
20
-2.34828
11
3.51673
21
-2.34683
0
LINE
8
BLACK
6
CONTINUOUS
10
3.51673
20
-2.34683
11
3.52018
21
-2.3467
0
LINE
8
BLACK
6
CONTINUOUS
10
3.52018
20
-2.3467
11
3.53768
21
-2.34947
0
LINE
8
BLACK
6
CONTINUOUS
10
3.59795
20
-2.35902
11
3.6012
21
-2.36021
0
LINE
8
BLACK
6
CONTINUOUS
10
3.6012
20
-2.36021
11
3.60373
21
-2.36256
0
LINE
8
BLACK
6
CONTINUOUS
10
3.60373
20
-2.36256
11
3.60518
21
-2.3657
0
LINE
8
BLACK
6
CONTINUOUS
10
3.60518
20
-2.3657
11
3.60532
21
-2.36915
0
LINE
8
BLACK
6
CONTINUOUS
10
3.60532
20
-2.36915
11
3.60224
21
-2.38859
0
LINE
8
BLACK
6
CONTINUOUS
10
3.60224
20
-2.38859
11
3.60104
21
-2.39184
0
LINE
8
BLACK
6
CONTINUOUS
10
3.60104
20
-2.39184
11
3.59869
21
-2.39437
0
LINE
8
BLACK
6
CONTINUOUS
10
3.59869
20
-2.39437
11
3.59556
21
-2.39582
0
LINE
8
BLACK
6
CONTINUOUS
10
3.59556
20
-2.39582
11
3.5921
21
-2.39596
0
LINE
8
BLACK
6
CONTINUOUS
10
3.5921
20
-2.39596
11
3.5746
21
-2.39318
0
LINE
8
BLACK
6
CONTINUOUS
10
3.5746
20
-2.39318
11
3.57136
21
-2.39199
0
LINE
8
BLACK
6
CONTINUOUS
10
3.57136
20
-2.39199
11
3.56882
21
-2.38964
0
LINE
8
BLACK
6
CONTINUOUS
10
3.56882
20
-2.38964
11
3.56738
21
-2.3865
0
LINE
8
BLACK
6
CONTINUOUS
10
3.56738
20
-2.3865
11
3.56724
21
-2.38305
0
LINE
8
BLACK
6
CONTINUOUS
10
3.56724
20
-2.38305
11
3.57032
21
-2.36361
0
LINE
8
BLACK
6
CONTINUOUS
10
3.57032
20
-2.36361
11
3.57152
21
-2.36036
0
LINE
8
BLACK
6
CONTINUOUS
10
3.57152
20
-2.36036
11
3.57386
21
-2.35783
0
LINE
8
BLACK
6
CONTINUOUS
10
3.57386
20
-2.35783
11
3.577
21
-2.35638
0
LINE
8
BLACK
6
CONTINUOUS
10
3.577
20
-2.35638
11
3.58045
21
-2.35624
0
LINE
8
BLACK
6
CONTINUOUS
10
3.58045
20
-2.35624
11
3.59795
21
-2.35902
0
LINE
8
BLACK
6
CONTINUOUS
10
5.42495
20
-2.36398
11
5.42801
21
-2.36559
0
LINE
8
BLACK
6
CONTINUOUS
10
5.42801
20
-2.36559
11
5.43022
21
-2.36825
0
LINE
8
BLACK
6
CONTINUOUS
10
5.43022
20
-2.36825
11
5.43125
21
-2.37155
0
LINE
8
BLACK
6
CONTINUOUS
10
5.43125
20
-2.37155
11
5.4333
21
-2.39113
0
LINE
8
BLACK
6
CONTINUOUS
10
5.4333
20
-2.39113
11
5.43299
21
-2.39457
0
LINE
8
BLACK
6
CONTINUOUS
10
5.43299
20
-2.39457
11
5.43138
21
-2.39763
0
LINE
8
BLACK
6
CONTINUOUS
10
5.43138
20
-2.39763
11
5.42872
21
-2.39984
0
LINE
8
BLACK
6
CONTINUOUS
10
5.42872
20
-2.39984
11
5.42542
21
-2.40086
0
LINE
8
BLACK
6
CONTINUOUS
10
5.42542
20
-2.40086
11
5.4078
21
-2.40271
0
LINE
8
BLACK
6
CONTINUOUS
10
5.4078
20
-2.40271
11
5.40436
21
-2.4024
0
LINE
8
BLACK
6
CONTINUOUS
10
5.40436
20
-2.4024
11
5.4013
21
-2.40079
0
LINE
8
BLACK
6
CONTINUOUS
10
5.4013
20
-2.40079
11
5.39909
21
-2.39813
0
LINE
8
BLACK
6
CONTINUOUS
10
5.39909
20
-2.39813
11
5.39806
21
-2.39483
0
LINE
8
BLACK
6
CONTINUOUS
10
5.39806
20
-2.39483
11
5.39601
21
-2.37525
0
LINE
8
BLACK
6
CONTINUOUS
10
5.39601
20
-2.37525
11
5.39632
21
-2.37181
0
LINE
8
BLACK
6
CONTINUOUS
10
5.39632
20
-2.37181
11
5.39793
21
-2.36875
0
LINE
8
BLACK
6
CONTINUOUS
10
5.39793
20
-2.36875
11
5.40059
21
-2.36654
0
LINE
8
BLACK
6
CONTINUOUS
10
5.40059
20
-2.36654
11
5.40389
21
-2.36552
0
LINE
8
BLACK
6
CONTINUOUS
10
5.40389
20
-2.36552
11
5.42151
21
-2.36367
0
LINE
8
BLACK
6
CONTINUOUS
10
5.42151
20
-2.36367
11
5.42495
21
-2.36398
0
LINE
8
BLACK
6
CONTINUOUS
10
5.48564
20
-2.3576
11
5.4887
21
-2.35921
0
LINE
8
BLACK
6
CONTINUOUS
10
5.4887
20
-2.35921
11
5.49091
21
-2.36187
0
LINE
8
BLACK
6
CONTINUOUS
10
5.49091
20
-2.36187
11
5.49194
21
-2.36517
0
LINE
8
BLACK
6
CONTINUOUS
10
5.49194
20
-2.36517
11
5.49399
21
-2.38475
0
LINE
8
BLACK
6
CONTINUOUS
10
5.49399
20
-2.38475
11
5.49368
21
-2.38819
0
LINE
8
BLACK
6
CONTINUOUS
10
5.49368
20
-2.38819
11
5.49207
21
-2.39125
0
LINE
8
BLACK
6
CONTINUOUS
10
5.49207
20
-2.39125
11
5.48941
21
-2.39346
0
LINE
8
BLACK
6
CONTINUOUS
10
5.48941
20
-2.39346
11
5.48611
21
-2.39448
0
LINE
8
BLACK
6
CONTINUOUS
10
5.48611
20
-2.39448
11
5.46849
21
-2.39633
0
LINE
8
BLACK
6
CONTINUOUS
10
5.46849
20
-2.39633
11
5.46505
21
-2.39602
0
LINE
8
BLACK
6
CONTINUOUS
10
5.46505
20
-2.39602
11
5.46199
21
-2.39441
0
LINE
8
BLACK
6
CONTINUOUS
10
5.46199
20
-2.39441
11
5.45978
21
-2.39175
0
LINE
8
BLACK
6
CONTINUOUS
10
5.45978
20
-2.39175
11
5.45875
21
-2.38845
0
LINE
8
BLACK
6
CONTINUOUS
10
5.45875
20
-2.38845
11
5.4567
21
-2.36887
0
LINE
8
BLACK
6
CONTINUOUS
10
5.4567
20
-2.36887
11
5.45701
21
-2.36543
0
LINE
8
BLACK
6
CONTINUOUS
10
5.45701
20
-2.36543
11
5.45862
21
-2.36237
0
LINE
8
BLACK
6
CONTINUOUS
10
5.45862
20
-2.36237
11
5.46128
21
-2.36016
0
LINE
8
BLACK
6
CONTINUOUS
10
5.46128
20
-2.36016
11
5.46458
21
-2.35914
0
LINE
8
BLACK
6
CONTINUOUS
10
5.46458
20
-2.35914
11
5.4822
21
-2.35729
0
LINE
8
BLACK
6
CONTINUOUS
10
5.4822
20
-2.35729
11
5.48564
21
-2.3576
0
LINE
8
BLACK
6
CONTINUOUS
10
3.67024
20
-2.32169
11
3.66209
21
-2.35211
0
LINE
8
BLACK
6
CONTINUOUS
10
3.66209
20
-2.35211
11
3.63167
21
-2.34396
0
LINE
8
BLACK
6
CONTINUOUS
10
3.63167
20
-2.34396
11
3.63982
21
-2.31353
0
LINE
8
BLACK
6
CONTINUOUS
10
3.63982
20
-2.31353
11
3.67024
21
-2.32169
0
LINE
8
BLACK
6
CONTINUOUS
10
5.36839
20
-2.34415
11
5.33796
21
-2.3523
0
LINE
8
BLACK
6
CONTINUOUS
10
5.33796
20
-2.3523
11
5.33032
21
-2.32378
0
LINE
8
BLACK
6
CONTINUOUS
10
5.33032
20
-2.32378
11
5.36074
21
-2.31563
0
LINE
8
BLACK
6
CONTINUOUS
10
5.36074
20
-2.31563
11
5.36839
21
-2.34415
0
LINE
8
BLACK
6
CONTINUOUS
10
3.67819
20
-2.29202
11
3.67411
21
-2.30724
0
LINE
8
BLACK
6
CONTINUOUS
10
3.67411
20
-2.30724
11
3.64369
21
-2.29908
0
LINE
8
BLACK
6
CONTINUOUS
10
3.64369
20
-2.29908
11
3.64776
21
-2.28387
0
LINE
8
BLACK
6
CONTINUOUS
10
3.64776
20
-2.28387
11
3.67819
21
-2.29202
0
LINE
8
BLACK
6
CONTINUOUS
10
0.94668
20
-2.2037
11
0.949873
21
-2.20584
0
LINE
8
BLACK
6
CONTINUOUS
10
0.949873
20
-2.20584
11
0.952007
21
-2.20903
0
LINE
8
BLACK
6
CONTINUOUS
10
0.952007
20
-2.20903
11
0.952756
21
-2.2128
0
LINE
8
BLACK
6
CONTINUOUS
10
0.952756
20
-2.2128
11
0.952756
21
-2.24823
0
LINE
8
BLACK
6
CONTINUOUS
10
0.952756
20
-2.24823
11
0.952007
21
-2.25199
0
LINE
8
BLACK
6
CONTINUOUS
10
0.952007
20
-2.25199
11
0.949873
21
-2.25519
0
LINE
8
BLACK
6
CONTINUOUS
10
0.949873
20
-2.25519
11
0.94668
21
-2.25732
0
LINE
8
BLACK
6
CONTINUOUS
10
0.94668
20
-2.25732
11
0.942913
21
-2.25807
0
LINE
8
BLACK
6
CONTINUOUS
10
0.942913
20
-2.25807
11
0.922244
21
-2.25807
0
LINE
8
BLACK
6
CONTINUOUS
10
0.922244
20
-2.25807
11
0.918478
21
-2.25732
0
LINE
8
BLACK
6
CONTINUOUS
10
0.918478
20
-2.25732
11
0.915284
21
-2.25519
0
LINE
8
BLACK
6
CONTINUOUS
10
0.915284
20
-2.25519
11
0.913151
21
-2.25199
0
LINE
8
BLACK
6
CONTINUOUS
10
0.913151
20
-2.25199
11
0.912402
21
-2.24823
0
LINE
8
BLACK
6
CONTINUOUS
10
0.912402
20
-2.24823
11
0.912402
21
-2.2128
0
LINE
8
BLACK
6
CONTINUOUS
10
0.912402
20
-2.2128
11
0.913151
21
-2.20903
0
LINE
8
BLACK
6
CONTINUOUS
10
0.913151
20
-2.20903
11
0.915284
21
-2.20584
0
LINE
8
BLACK
6
CONTINUOUS
10
0.915284
20
-2.20584
11
0.918478
21
-2.2037
0
LINE
8
BLACK
6
CONTINUOUS
10
0.918478
20
-2.2037
11
0.922244
21
-2.20295
0
LINE
8
BLACK
6
CONTINUOUS
10
0.922244
20
-2.20295
11
0.942913
21
-2.20295
0
LINE
8
BLACK
6
CONTINUOUS
10
0.942913
20
-2.20295
11
0.94668
21
-2.2037
0
LINE
8
BLACK
6
CONTINUOUS
10
1.01853
20
-2.2037
11
1.02172
21
-2.20584
0
LINE
8
BLACK
6
CONTINUOUS
10
1.02172
20
-2.20584
11
1.02386
21
-2.20903
0
LINE
8
BLACK
6
CONTINUOUS
10
1.02386
20
-2.20903
11
1.02461
21
-2.2128
0
LINE
8
BLACK
6
CONTINUOUS
10
1.02461
20
-2.2128
11
1.02461
21
-2.24823
0
LINE
8
BLACK
6
CONTINUOUS
10
1.02461
20
-2.24823
11
1.02386
21
-2.25199
0
LINE
8
BLACK
6
CONTINUOUS
10
1.02386
20
-2.25199
11
1.02172
21
-2.25519
0
LINE
8
BLACK
6
CONTINUOUS
10
1.02172
20
-2.25519
11
1.01853
21
-2.25732
0
LINE
8
BLACK
6
CONTINUOUS
10
1.01853
20
-2.25732
11
1.01476
21
-2.25807
0
LINE
8
BLACK
6
CONTINUOUS
10
1.01476
20
-2.25807
11
0.994094
21
-2.25807
0
LINE
8
BLACK
6
CONTINUOUS
10
0.994094
20
-2.25807
11
0.990328
21
-2.25732
0
LINE
8
BLACK
6
CONTINUOUS
10
0.990328
20
-2.25732
11
0.987135
21
-2.25519
0
LINE
8
BLACK
6
CONTINUOUS
10
0.987135
20
-2.25519
11
0.985001
21
-2.25199
0
LINE
8
BLACK
6
CONTINUOUS
10
0.985001
20
-2.25199
11
0.984252
21
-2.24823
0
LINE
8
BLACK
6
CONTINUOUS
10
0.984252
20
-2.24823
11
0.984252
21
-2.2128
0
LINE
8
BLACK
6
CONTINUOUS
10
0.984252
20
-2.2128
11
0.985001
21
-2.20903
0
LINE
8
BLACK
6
CONTINUOUS
10
0.985001
20
-2.20903
11
0.987135
21
-2.20584
0
LINE
8
BLACK
6
CONTINUOUS
10
0.987135
20
-2.20584
11
0.990328
21
-2.2037
0
LINE
8
BLACK
6
CONTINUOUS
10
0.990328
20
-2.2037
11
0.994094
21
-2.20295
0
LINE
8
BLACK
6
CONTINUOUS
10
0.994094
20
-2.20295
11
1.01476
21
-2.20295
0
LINE
8
BLACK
6
CONTINUOUS
10
1.01476
20
-2.20295
11
1.01853
21
-2.2037
0
LINE
8
BLACK
6
CONTINUOUS
10
3.68817
20
-2.25476
11
3.68206
21
-2.27757
0
LINE
8
BLACK
6
CONTINUOUS
10
3.68206
20
-2.27757
11
3.65164
21
-2.26942
0
LINE
8
BLACK
6
CONTINUOUS
10
3.65164
20
-2.26942
11
3.65775
21
-2.2466
0
LINE
8
BLACK
6
CONTINUOUS
10
3.65775
20
-2.2466
11
3.68817
21
-2.25476
0
LINE
8
BLACK
6
CONTINUOUS
10
5.35611
20
-2.29832
11
5.32568
21
-2.30647
0
LINE
8
BLACK
6
CONTINUOUS
10
5.32568
20
-2.30647
11
5.31957
21
-2.28366
0
LINE
8
BLACK
6
CONTINUOUS
10
5.31957
20
-2.28366
11
5.34999
21
-2.27551
0
LINE
8
BLACK
6
CONTINUOUS
10
5.34999
20
-2.27551
11
5.35611
21
-2.29832
0
LINE
8
BLACK
6
CONTINUOUS
10
5.34612
20
-2.26105
11
5.3157
21
-2.26921
0
LINE
8
BLACK
6
CONTINUOUS
10
5.3157
20
-2.26921
11
5.31162
21
-2.254
0
LINE
8
BLACK
6
CONTINUOUS
10
5.31162
20
-2.254
11
5.34205
21
-2.24584
0
LINE
8
BLACK
6
CONTINUOUS
10
5.34205
20
-2.24584
11
5.34612
21
-2.26105
0
LINE
8
BLACK
6
CONTINUOUS
10
3.70045
20
-2.20893
11
3.69281
21
-2.23745
0
LINE
8
BLACK
6
CONTINUOUS
10
3.69281
20
-2.23745
11
3.66239
21
-2.2293
0
LINE
8
BLACK
6
CONTINUOUS
10
3.66239
20
-2.2293
11
3.67003
21
-2.20078
0
LINE
8
BLACK
6
CONTINUOUS
10
3.67003
20
-2.20078
11
3.70045
21
-2.20893
0
LINE
8
BLACK
6
CONTINUOUS
10
5.33817
20
-2.23139
11
5.30775
21
-2.23954
0
LINE
8
BLACK
6
CONTINUOUS
10
5.30775
20
-2.23954
11
5.2996
21
-2.20912
0
LINE
8
BLACK
6
CONTINUOUS
10
5.2996
20
-2.20912
11
5.33002
21
-2.20097
0
LINE
8
BLACK
6
CONTINUOUS
10
5.33002
20
-2.20097
11
5.33817
21
-2.23139
0
LINE
8
BLACK
6
CONTINUOUS
10
3.80303
20
-2.01191
11
3.78827
21
-2.03748
0
LINE
8
BLACK
6
CONTINUOUS
10
3.78827
20
-2.03748
11
3.76099
21
-2.02173
0
LINE
8
BLACK
6
CONTINUOUS
10
3.76099
20
-2.02173
11
3.77575
21
-1.99616
0
LINE
8
BLACK
6
CONTINUOUS
10
3.77575
20
-1.99616
11
3.80303
21
-2.01191
0
LINE
8
BLACK
6
CONTINUOUS
10
5.24009
20
-2.02361
11
5.21282
21
-2.03936
0
LINE
8
BLACK
6
CONTINUOUS
10
5.21282
20
-2.03936
11
5.19707
21
-2.01208
0
LINE
8
BLACK
6
CONTINUOUS
10
5.19707
20
-2.01208
11
5.22434
21
-1.99633
0
LINE
8
BLACK
6
CONTINUOUS
10
5.22434
20
-1.99633
11
5.24009
21
-2.02361
0
LINE
8
BLACK
6
CONTINUOUS
10
5.25545
20
-2.0502
11
5.22817
21
-2.06595
0
LINE
8
BLACK
6
CONTINUOUS
10
5.22817
20
-2.06595
11
5.2203
21
-2.05231
0
LINE
8
BLACK
6
CONTINUOUS
10
5.2203
20
-2.05231
11
5.24757
21
-2.03657
0
LINE
8
BLACK
6
CONTINUOUS
10
5.24757
20
-2.03657
11
5.25545
21
-2.0502
0
LINE
8
BLACK
6
CONTINUOUS
10
5.27474
20
-2.08362
11
5.24746
21
-2.09937
0
LINE
8
BLACK
6
CONTINUOUS
10
5.24746
20
-2.09937
11
5.23565
21
-2.07891
0
LINE
8
BLACK
6
CONTINUOUS
10
5.23565
20
-2.07891
11
5.26293
21
-2.06316
0
LINE
8
BLACK
6
CONTINUOUS
10
5.26293
20
-2.06316
11
5.27474
21
-2.08362
0
LINE
8
BLACK
6
CONTINUOUS
10
5.29846
20
-2.1247
11
5.27118
21
-2.14045
0
LINE
8
BLACK
6
CONTINUOUS
10
5.27118
20
-2.14045
11
5.25642
21
-2.11488
0
LINE
8
BLACK
6
CONTINUOUS
10
5.25642
20
-2.11488
11
5.28369
21
-2.09913
0
LINE
8
BLACK
6
CONTINUOUS
10
5.28369
20
-2.09913
11
5.29846
21
-2.1247
0
LINE
8
BLACK
6
CONTINUOUS
10
5.3616
20
-2.12998
11
5.36442
21
-2.13198
0
LINE
8
BLACK
6
CONTINUOUS
10
5.36442
20
-2.13198
11
5.36627
21
-2.1349
0
LINE
8
BLACK
6
CONTINUOUS
10
5.36627
20
-2.1349
11
5.37332
21
-2.15328
0
LINE
8
BLACK
6
CONTINUOUS
10
5.37332
20
-2.15328
11
5.37391
21
-2.15669
0
LINE
8
BLACK
6
CONTINUOUS
10
5.37391
20
-2.15669
11
5.37315
21
-2.16006
0
LINE
8
BLACK
6
CONTINUOUS
10
5.37315
20
-2.16006
11
5.37115
21
-2.16288
0
LINE
8
BLACK
6
CONTINUOUS
10
5.37115
20
-2.16288
11
5.36823
21
-2.16472
0
LINE
8
BLACK
6
CONTINUOUS
10
5.36823
20
-2.16472
11
5.35169
21
-2.17107
0
LINE
8
BLACK
6
CONTINUOUS
10
5.35169
20
-2.17107
11
5.34828
21
-2.17166
0
LINE
8
BLACK
6
CONTINUOUS
10
5.34828
20
-2.17166
11
5.34491
21
-2.1709
0
LINE
8
BLACK
6
CONTINUOUS
10
5.34491
20
-2.1709
11
5.34209
21
-2.1689
0
LINE
8
BLACK
6
CONTINUOUS
10
5.34209
20
-2.1689
11
5.34024
21
-2.16598
0
LINE
8
BLACK
6
CONTINUOUS
10
5.34024
20
-2.16598
11
5.33319
21
-2.1476
0
LINE
8
BLACK
6
CONTINUOUS
10
5.33319
20
-2.1476
11
5.3326
21
-2.14419
0
LINE
8
BLACK
6
CONTINUOUS
10
5.3326
20
-2.14419
11
5.33337
21
-2.14082
0
LINE
8
BLACK
6
CONTINUOUS
10
5.33337
20
-2.14082
11
5.33536
21
-2.138
0
LINE
8
BLACK
6
CONTINUOUS
10
5.33536
20
-2.138
11
5.33828
21
-2.13616
0
LINE
8
BLACK
6
CONTINUOUS
10
5.33828
20
-2.13616
11
5.35482
21
-2.12981
0
LINE
8
BLACK
6
CONTINUOUS
10
5.35482
20
-2.12981
11
5.35823
21
-2.12922
0
LINE
8
BLACK
6
CONTINUOUS
10
5.35823
20
-2.12922
11
5.3616
21
-2.12998
0
LINE
8
BLACK
6
CONTINUOUS
10
3.59325
20
-2.09833
11
3.60943
21
-2.10553
0
LINE
8
BLACK
6
CONTINUOUS
10
3.60943
20
-2.10553
11
3.61225
21
-2.10753
0
LINE
8
BLACK
6
CONTINUOUS
10
3.61225
20
-2.10753
11
3.6141
21
-2.11045
0
LINE
8
BLACK
6
CONTINUOUS
10
3.6141
20
-2.11045
11
3.61468
21
-2.11386
0
LINE
8
BLACK
6
CONTINUOUS
10
3.61468
20
-2.11386
11
3.61392
21
-2.11723
0
LINE
8
BLACK
6
CONTINUOUS
10
3.61392
20
-2.11723
11
3.60591
21
-2.13521
0
LINE
8
BLACK
6
CONTINUOUS
10
3.60591
20
-2.13521
11
3.60392
21
-2.13803
0
LINE
8
BLACK
6
CONTINUOUS
10
3.60392
20
-2.13803
11
3.601
21
-2.13988
0
LINE
8
BLACK
6
CONTINUOUS
10
3.601
20
-2.13988
11
3.59759
21
-2.14046
0
LINE
8
BLACK
6
CONTINUOUS
10
3.59759
20
-2.14046
11
3.59422
21
-2.1397
0
LINE
8
BLACK
6
CONTINUOUS
10
3.59422
20
-2.1397
11
3.57803
21
-2.13249
0
LINE
8
BLACK
6
CONTINUOUS
10
3.57803
20
-2.13249
11
3.57521
21
-2.1305
0
LINE
8
BLACK
6
CONTINUOUS
10
3.57521
20
-2.1305
11
3.57337
21
-2.12758
0
LINE
8
BLACK
6
CONTINUOUS
10
3.57337
20
-2.12758
11
3.57278
21
-2.12417
0
LINE
8
BLACK
6
CONTINUOUS
10
3.57278
20
-2.12417
11
3.57354
21
-2.1208
0
LINE
8
BLACK
6
CONTINUOUS
10
3.57354
20
-2.1208
11
3.58155
21
-2.10282
0
LINE
8
BLACK
6
CONTINUOUS
10
3.58155
20
-2.10282
11
3.58355
21
-2.09999
0
LINE
8
BLACK
6
CONTINUOUS
10
3.58355
20
-2.09999
11
3.58647
21
-2.09815
0
LINE
8
BLACK
6
CONTINUOUS
10
3.58647
20
-2.09815
11
3.58987
21
-2.09756
0
LINE
8
BLACK
6
CONTINUOUS
10
3.58987
20
-2.09756
11
3.59325
21
-2.09833
0
LINE
8
BLACK
6
CONTINUOUS
10
3.64899
20
-2.12315
11
3.66518
21
-2.13035
0
LINE
8
BLACK
6
CONTINUOUS
10
3.66518
20
-2.13035
11
3.668
21
-2.13235
0
LINE
8
BLACK
6
CONTINUOUS
10
3.668
20
-2.13235
11
3.66985
21
-2.13527
0
LINE
8
BLACK
6
CONTINUOUS
10
3.66985
20
-2.13527
11
3.67043
21
-2.13868
0
LINE
8
BLACK
6
CONTINUOUS
10
3.67043
20
-2.13868
11
3.66967
21
-2.14205
0
LINE
8
BLACK
6
CONTINUOUS
10
3.66967
20
-2.14205
11
3.66166
21
-2.16003
0
LINE
8
BLACK
6
CONTINUOUS
10
3.66166
20
-2.16003
11
3.65967
21
-2.16285
0
LINE
8
BLACK
6
CONTINUOUS
10
3.65967
20
-2.16285
11
3.65674
21
-2.1647
0
LINE
8
BLACK
6
CONTINUOUS
10
3.65674
20
-2.1647
11
3.65334
21
-2.16528
0
LINE
8
BLACK
6
CONTINUOUS
10
3.65334
20
-2.16528
11
3.64997
21
-2.16452
0
LINE
8
BLACK
6
CONTINUOUS
10
3.64997
20
-2.16452
11
3.63378
21
-2.15731
0
LINE
8
BLACK
6
CONTINUOUS
10
3.63378
20
-2.15731
11
3.63096
21
-2.15532
0
LINE
8
BLACK
6
CONTINUOUS
10
3.63096
20
-2.15532
11
3.62911
21
-2.1524
0
LINE
8
BLACK
6
CONTINUOUS
10
3.62911
20
-2.1524
11
3.62853
21
-2.14899
0
LINE
8
BLACK
6
CONTINUOUS
10
3.62853
20
-2.14899
11
3.62929
21
-2.14562
0
LINE
8
BLACK
6
CONTINUOUS
10
3.62929
20
-2.14562
11
3.6373
21
-2.12764
0
LINE
8
BLACK
6
CONTINUOUS
10
3.6373
20
-2.12764
11
3.63929
21
-2.12481
0
LINE
8
BLACK
6
CONTINUOUS
10
3.63929
20
-2.12481
11
3.64222
21
-2.12297
0
LINE
8
BLACK
6
CONTINUOUS
10
3.64222
20
-2.12297
11
3.64562
21
-2.12238
0
LINE
8
BLACK
6
CONTINUOUS
10
3.64562
20
-2.12238
11
3.64899
21
-2.12315
0
LINE
8
BLACK
6
CONTINUOUS
10
0.94668
20
-2.1037
11
0.949873
21
-2.10584
0
LINE
8
BLACK
6
CONTINUOUS
10
0.949873
20
-2.10584
11
0.952007
21
-2.10903
0
LINE
8
BLACK
6
CONTINUOUS
10
0.952007
20
-2.10903
11
0.952756
21
-2.1128
0
LINE
8
BLACK
6
CONTINUOUS
10
0.952756
20
-2.1128
11
0.952756
21
-2.14823
0
LINE
8
BLACK
6
CONTINUOUS
10
0.952756
20
-2.14823
11
0.952007
21
-2.15199
0
LINE
8
BLACK
6
CONTINUOUS
10
0.952007
20
-2.15199
11
0.949873
21
-2.15519
0
LINE
8
BLACK
6
CONTINUOUS
10
0.949873
20
-2.15519
11
0.94668
21
-2.15732
0
LINE
8
BLACK
6
CONTINUOUS
10
0.94668
20
-2.15732
11
0.942913
21
-2.15807
0
LINE
8
BLACK
6
CONTINUOUS
10
0.942913
20
-2.15807
11
0.922244
21
-2.15807
0
LINE
8
BLACK
6
CONTINUOUS
10
0.922244
20
-2.15807
11
0.918478
21
-2.15732
0
LINE
8
BLACK
6
CONTINUOUS
10
0.918478
20
-2.15732
11
0.915284
21
-2.15519
0
LINE
8
BLACK
6
CONTINUOUS
10
0.915284
20
-2.15519
11
0.913151
21
-2.15199
0
LINE
8
BLACK
6
CONTINUOUS
10
0.913151
20
-2.15199
11
0.912402
21
-2.14823
0
LINE
8
BLACK
6
CONTINUOUS
10
0.912402
20
-2.14823
11
0.912402
21
-2.1128
0
LINE
8
BLACK
6
CONTINUOUS
10
0.912402
20
-2.1128
11
0.913151
21
-2.10903
0
LINE
8
BLACK
6
CONTINUOUS
10
0.913151
20
-2.10903
11
0.915284
21
-2.10584
0
LINE
8
BLACK
6
CONTINUOUS
10
0.915284
20
-2.10584
11
0.918478
21
-2.1037
0
LINE
8
BLACK
6
CONTINUOUS
10
0.918478
20
-2.1037
11
0.922244
21
-2.10295
0
LINE
8
BLACK
6
CONTINUOUS
10
0.922244
20
-2.10295
11
0.942913
21
-2.10295
0
LINE
8
BLACK
6
CONTINUOUS
10
0.942913
20
-2.10295
11
0.94668
21
-2.1037
0
LINE
8
BLACK
6
CONTINUOUS
10
1.01853
20
-2.1037
11
1.02172
21
-2.10584
0
LINE
8
BLACK
6
CONTINUOUS
10
1.02172
20
-2.10584
11
1.02386
21
-2.10903
0
LINE
8
BLACK
6
CONTINUOUS
10
1.02386
20
-2.10903
11
1.02461
21
-2.1128
0
LINE
8
BLACK
6
CONTINUOUS
10
1.02461
20
-2.1128
11
1.02461
21
-2.14823
0
LINE
8
BLACK
6
CONTINUOUS
10
1.02461
20
-2.14823
11
1.02386
21
-2.15199
0
LINE
8
BLACK
6
CONTINUOUS
10
1.02386
20
-2.15199
11
1.02172
21
-2.15519
0
LINE
8
BLACK
6
CONTINUOUS
10
1.02172
20
-2.15519
11
1.01853
21
-2.15732
0
LINE
8
BLACK
6
CONTINUOUS
10
1.01853
20
-2.15732
11
1.01476
21
-2.15807
0
LINE
8
BLACK
6
CONTINUOUS
10
1.01476
20
-2.15807
11
0.994094
21
-2.15807
0
LINE
8
BLACK
6
CONTINUOUS
10
0.994094
20
-2.15807
11
0.990328
21
-2.15732
0
LINE
8
BLACK
6
CONTINUOUS
10
0.990328
20
-2.15732
11
0.987135
21
-2.15519
0
LINE
8
BLACK
6
CONTINUOUS
10
0.987135
20
-2.15519
11
0.985001
21
-2.15199
0
LINE
8
BLACK
6
CONTINUOUS
10
0.985001
20
-2.15199
11
0.984252
21
-2.14823
0
LINE
8
BLACK
6
CONTINUOUS
10
0.984252
20
-2.14823
11
0.984252
21
-2.1128
0
LINE
8
BLACK
6
CONTINUOUS
10
0.984252
20
-2.1128
11
0.985001
21
-2.10903
0
LINE
8
BLACK
6
CONTINUOUS
10
0.985001
20
-2.10903
11
0.987135
21
-2.10584
0
LINE
8
BLACK
6
CONTINUOUS
10
0.987135
20
-2.10584
11
0.990328
21
-2.1037
0
LINE
8
BLACK
6
CONTINUOUS
10
0.990328
20
-2.1037
11
0.994094
21
-2.10295
0
LINE
8
BLACK
6
CONTINUOUS
10
0.994094
20
-2.10295
11
1.01476
21
-2.10295
0
LINE
8
BLACK
6
CONTINUOUS
10
1.01476
20
-2.10295
11
1.01853
21
-2.1037
0
LINE
8
BLACK
6
CONTINUOUS
10
5.41857
20
-2.10811
11
5.4214
21
-2.11011
0
LINE
8
BLACK
6
CONTINUOUS
10
5.4214
20
-2.11011
11
5.42324
21
-2.11303
0
LINE
8
BLACK
6
CONTINUOUS
10
5.42324
20
-2.11303
11
5.43029
21
-2.13141
0
LINE
8
BLACK
6
CONTINUOUS
10
5.43029
20
-2.13141
11
5.43088
21
-2.13482
0
LINE
8
BLACK
6
CONTINUOUS
10
5.43088
20
-2.13482
11
5.43012
21
-2.13819
0
LINE
8
BLACK
6
CONTINUOUS
10
5.43012
20
-2.13819
11
5.42812
21
-2.14101
0
LINE
8
BLACK
6
CONTINUOUS
10
5.42812
20
-2.14101
11
5.4252
21
-2.14285
0
LINE
8
BLACK
6
CONTINUOUS
10
5.4252
20
-2.14285
11
5.40866
21
-2.1492
0
LINE
8
BLACK
6
CONTINUOUS
10
5.40866
20
-2.1492
11
5.40525
21
-2.14979
0
LINE
8
BLACK
6
CONTINUOUS
10
5.40525
20
-2.14979
11
5.40188
21
-2.14903
0
LINE
8
BLACK
6
CONTINUOUS
10
5.40188
20
-2.14903
11
5.39906
21
-2.14703
0
LINE
8
BLACK
6
CONTINUOUS
10
5.39906
20
-2.14703
11
5.39721
21
-2.14411
0
LINE
8
BLACK
6
CONTINUOUS
10
5.39721
20
-2.14411
11
5.39016
21
-2.12573
0
LINE
8
BLACK
6
CONTINUOUS
10
5.39016
20
-2.12573
11
5.38957
21
-2.12232
0
LINE
8
BLACK
6
CONTINUOUS
10
5.38957
20
-2.12232
11
5.39034
21
-2.11895
0
LINE
8
BLACK
6
CONTINUOUS
10
5.39034
20
-2.11895
11
5.39233
21
-2.11613
0
LINE
8
BLACK
6
CONTINUOUS
10
5.39233
20
-2.11613
11
5.39526
21
-2.11429
0
LINE
8
BLACK
6
CONTINUOUS
10
5.39526
20
-2.11429
11
5.41179
21
-2.10794
0
LINE
8
BLACK
6
CONTINUOUS
10
5.41179
20
-2.10794
11
5.4152
21
-2.10735
0
LINE
8
BLACK
6
CONTINUOUS
10
5.4152
20
-2.10735
11
5.41857
21
-2.10811
0
LINE
8
BLACK
6
CONTINUOUS
10
3.74466
20
-2.113
11
3.72892
21
-2.14028
0
LINE
8
BLACK
6
CONTINUOUS
10
3.72892
20
-2.14028
11
3.70164
21
-2.12453
0
LINE
8
BLACK
6
CONTINUOUS
10
3.70164
20
-2.12453
11
3.71739
21
-2.09726
0
LINE
8
BLACK
6
CONTINUOUS
10
3.71739
20
-2.09726
11
3.74466
21
-2.113
0
LINE
8
BLACK
6
CONTINUOUS
10
3.76002
20
-2.08641
11
3.75214
21
-2.10005
0
LINE
8
BLACK
6
CONTINUOUS
10
3.75214
20
-2.10005
11
3.72487
21
-2.0843
0
LINE
8
BLACK
6
CONTINUOUS
10
3.72487
20
-2.0843
11
3.73274
21
-2.07066
0
LINE
8
BLACK
6
CONTINUOUS
10
3.73274
20
-2.07066
11
3.76002
21
-2.08641
0
LINE
8
BLACK
6
CONTINUOUS
10
0.94668
20
-2.0037
11
0.949873
21
-2.00584
0
LINE
8
BLACK
6
CONTINUOUS
10
0.949873
20
-2.00584
11
0.952007
21
-2.00903
0
LINE
8
BLACK
6
CONTINUOUS
10
0.952007
20
-2.00903
11
0.952756
21
-2.0128
0
LINE
8
BLACK
6
CONTINUOUS
10
0.952756
20
-2.0128
11
0.952756
21
-2.04823
0
LINE
8
BLACK
6
CONTINUOUS
10
0.952756
20
-2.04823
11
0.952007
21
-2.05199
0
LINE
8
BLACK
6
CONTINUOUS
10
0.952007
20
-2.05199
11
0.949873
21
-2.05519
0
LINE
8
BLACK
6
CONTINUOUS
10
0.949873
20
-2.05519
11
0.94668
21
-2.05732
0
LINE
8
BLACK
6
CONTINUOUS
10
0.94668
20
-2.05732
11
0.942913
21
-2.05807
0
LINE
8
BLACK
6
CONTINUOUS
10
0.942913
20
-2.05807
11
0.922244
21
-2.05807
0
LINE
8
BLACK
6
CONTINUOUS
10
0.922244
20
-2.05807
11
0.918478
21
-2.05732
0
LINE
8
BLACK
6
CONTINUOUS
10
0.918478
20
-2.05732
11
0.915284
21
-2.05519
0
LINE
8
BLACK
6
CONTINUOUS
10
0.915284
20
-2.05519
11
0.913151
21
-2.05199
0
LINE
8
BLACK
6
CONTINUOUS
10
0.913151
20
-2.05199
11
0.912402
21
-2.04823
0
LINE
8
BLACK
6
CONTINUOUS
10
0.912402
20
-2.04823
11
0.912402
21
-2.0128
0
LINE
8
BLACK
6
CONTINUOUS
10
0.912402
20
-2.0128
11
0.913151
21
-2.00903
0
LINE
8
BLACK
6
CONTINUOUS
10
0.913151
20
-2.00903
11
0.915284
21
-2.00584
0
LINE
8
BLACK
6
CONTINUOUS
10
0.915284
20
-2.00584
11
0.918478
21
-2.0037
0
LINE
8
BLACK
6
CONTINUOUS
10
0.918478
20
-2.0037
11
0.922244
21
-2.00295
0
LINE
8
BLACK
6
CONTINUOUS
10
0.922244
20
-2.00295
11
0.942913
21
-2.00295
0
LINE
8
BLACK
6
CONTINUOUS
10
0.942913
20
-2.00295
11
0.94668
21
-2.0037
0
LINE
8
BLACK
6
CONTINUOUS
10
1.01853
20
-2.0037
11
1.02172
21
-2.00584
0
LINE
8
BLACK
6
CONTINUOUS
10
1.02172
20
-2.00584
11
1.02386
21
-2.00903
0
LINE
8
BLACK
6
CONTINUOUS
10
1.02386
20
-2.00903
11
1.02461
21
-2.0128
0
LINE
8
BLACK
6
CONTINUOUS
10
1.02461
20
-2.0128
11
1.02461
21
-2.04823
0
LINE
8
BLACK
6
CONTINUOUS
10
1.02461
20
-2.04823
11
1.02386
21
-2.05199
0
LINE
8
BLACK
6
CONTINUOUS
10
1.02386
20
-2.05199
11
1.02172
21
-2.05519
0
LINE
8
BLACK
6
CONTINUOUS
10
1.02172
20
-2.05519
11
1.01853
21
-2.05732
0
LINE
8
BLACK
6
CONTINUOUS
10
1.01853
20
-2.05732
11
1.01476
21
-2.05807
0
LINE
8
BLACK
6
CONTINUOUS
10
1.01476
20
-2.05807
11
0.994094
21
-2.05807
0
LINE
8
BLACK
6
CONTINUOUS
10
0.994094
20
-2.05807
11
0.990328
21
-2.05732
0
LINE
8
BLACK
6
CONTINUOUS
10
0.990328
20
-2.05732
11
0.987135
21
-2.05519
0
LINE
8
BLACK
6
CONTINUOUS
10
0.987135
20
-2.05519
11
0.985001
21
-2.05199
0
LINE
8
BLACK
6
CONTINUOUS
10
0.985001
20
-2.05199
11
0.984252
21
-2.04823
0
LINE
8
BLACK
6
CONTINUOUS
10
0.984252
20
-2.04823
11
0.984252
21
-2.0128
0
LINE
8
BLACK
6
CONTINUOUS
10
0.984252
20
-2.0128
11
0.985001
21
-2.00903
0
LINE
8
BLACK
6
CONTINUOUS
10
0.985001
20
-2.00903
11
0.987135
21
-2.00584
0
LINE
8
BLACK
6
CONTINUOUS
10
0.987135
20
-2.00584
11
0.990328
21
-2.0037
0
LINE
8
BLACK
6
CONTINUOUS
10
0.990328
20
-2.0037
11
0.994094
21
-2.00295
0
LINE
8
BLACK
6
CONTINUOUS
10
0.994094
20
-2.00295
11
1.01476
21
-2.00295
0
LINE
8
BLACK
6
CONTINUOUS
10
1.01476
20
-2.00295
11
1.01853
21
-2.0037
0
LINE
8
BLACK
6
CONTINUOUS
10
3.77931
20
-2.053
11
3.7675
21
-2.07345
0
LINE
8
BLACK
6
CONTINUOUS
10
3.7675
20
-2.07345
11
3.74022
21
-2.05771
0
LINE
8
BLACK
6
CONTINUOUS
10
3.74022
20
-2.05771
11
3.75203
21
-2.03725
0
LINE
8
BLACK
6
CONTINUOUS
10
3.75203
20
-2.03725
11
3.77931
21
-2.053
0
LINE
8
BLACK
6
CONTINUOUS
10
3.95311
20
-1.84815
11
3.93223
21
-1.86903
0
LINE
8
BLACK
6
CONTINUOUS
10
3.93223
20
-1.86903
11
3.90996
21
-1.84676
0
LINE
8
BLACK
6
CONTINUOUS
10
3.90996
20
-1.84676
11
3.93083
21
-1.82588
0
LINE
8
BLACK
6
CONTINUOUS
10
3.93083
20
-1.82588
11
3.95311
21
-1.84815
0
LINE
8
BLACK
6
CONTINUOUS
10
5.09158
20
-1.84829
11
5.0693
21
-1.87056
0
LINE
8
BLACK
6
CONTINUOUS
10
5.0693
20
-1.87056
11
5.04703
21
-1.84829
0
LINE
8
BLACK
6
CONTINUOUS
10
5.04703
20
-1.84829
11
5.0693
21
-1.82602
0
LINE
8
BLACK
6
CONTINUOUS
10
5.0693
20
-1.82602
11
5.09158
21
-1.84829
0
LINE
8
BLACK
6
CONTINUOUS
10
5.11329
20
-1.87001
11
5.09102
21
-1.89228
0
LINE
8
BLACK
6
CONTINUOUS
10
5.09102
20
-1.89228
11
5.07988
21
-1.88114
0
LINE
8
BLACK
6
CONTINUOUS
10
5.07988
20
-1.88114
11
5.10215
21
-1.85887
0
LINE
8
BLACK
6
CONTINUOUS
10
5.10215
20
-1.85887
11
5.11329
21
-1.87001
0
LINE
8
BLACK
6
CONTINUOUS
10
5.14057
20
-1.89729
11
5.1183
21
-1.91956
0
LINE
8
BLACK
6
CONTINUOUS
10
5.1183
20
-1.91956
11
5.1016
21
-1.90286
0
LINE
8
BLACK
6
CONTINUOUS
10
5.1016
20
-1.90286
11
5.12387
21
-1.88059
0
LINE
8
BLACK
6
CONTINUOUS
10
5.12387
20
-1.88059
11
5.14057
21
-1.89729
0
LINE
8
BLACK
6
CONTINUOUS
10
5.17412
20
-1.93083
11
5.15185
21
-1.95311
0
LINE
8
BLACK
6
CONTINUOUS
10
5.15185
20
-1.95311
11
5.13097
21
-1.93223
0
LINE
8
BLACK
6
CONTINUOUS
10
5.13097
20
-1.93223
11
5.15324
21
-1.90996
0
LINE
8
BLACK
6
CONTINUOUS
10
5.15324
20
-1.90996
11
5.17412
21
-1.93083
0
LINE
8
BLACK
6
CONTINUOUS
10
5.23972
20
-1.92079
11
5.24226
21
-1.92314
0
LINE
8
BLACK
6
CONTINUOUS
10
5.24226
20
-1.92314
11
5.25383
21
-1.93906
0
LINE
8
BLACK
6
CONTINUOUS
10
5.25383
20
-1.93906
11
5.25527
21
-1.9422
0
LINE
8
BLACK
6
CONTINUOUS
10
5.25527
20
-1.9422
11
5.25541
21
-1.94565
0
LINE
8
BLACK
6
CONTINUOUS
10
5.25541
20
-1.94565
11
5.25421
21
-1.9489
0
LINE
8
BLACK
6
CONTINUOUS
10
5.25421
20
-1.9489
11
5.25187
21
-1.95143
0
LINE
8
BLACK
6
CONTINUOUS
10
5.25187
20
-1.95143
11
5.23754
21
-1.96185
0
LINE
8
BLACK
6
CONTINUOUS
10
5.23754
20
-1.96185
11
5.2344
21
-1.96329
0
LINE
8
BLACK
6
CONTINUOUS
10
5.2344
20
-1.96329
11
5.23094
21
-1.96343
0
LINE
8
BLACK
6
CONTINUOUS
10
5.23094
20
-1.96343
11
5.2277
21
-1.96223
0
LINE
8
BLACK
6
CONTINUOUS
10
5.2277
20
-1.96223
11
5.22516
21
-1.95989
0
LINE
8
BLACK
6
CONTINUOUS
10
5.22516
20
-1.95989
11
5.21359
21
-1.94396
0
LINE
8
BLACK
6
CONTINUOUS
10
5.21359
20
-1.94396
11
5.21214
21
-1.94082
0
LINE
8
BLACK
6
CONTINUOUS
10
5.21214
20
-1.94082
11
5.21201
21
-1.93737
0
LINE
8
BLACK
6
CONTINUOUS
10
5.21201
20
-1.93737
11
5.2132
21
-1.93413
0
LINE
8
BLACK
6
CONTINUOUS
10
5.2132
20
-1.93413
11
5.21555
21
-1.93159
0
LINE
8
BLACK
6
CONTINUOUS
10
5.21555
20
-1.93159
11
5.22988
21
-1.92118
0
LINE
8
BLACK
6
CONTINUOUS
10
5.22988
20
-1.92118
11
5.23302
21
-1.91973
0
LINE
8
BLACK
6
CONTINUOUS
10
5.23302
20
-1.91973
11
5.23648
21
-1.91959
0
LINE
8
BLACK
6
CONTINUOUS
10
5.23648
20
-1.91959
11
5.23972
21
-1.92079
0
LINE
8
BLACK
6
CONTINUOUS
10
3.72504
20
-1.87572
11
3.7281
21
-1.87733
0
LINE
8
BLACK
6
CONTINUOUS
10
3.7281
20
-1.87733
11
3.74187
21
-1.88848
0
LINE
8
BLACK
6
CONTINUOUS
10
3.74187
20
-1.88848
11
3.74408
21
-1.89113
0
LINE
8
BLACK
6
CONTINUOUS
10
3.74408
20
-1.89113
11
3.74511
21
-1.89443
0
LINE
8
BLACK
6
CONTINUOUS
10
3.74511
20
-1.89443
11
3.74479
21
-1.89788
0
LINE
8
BLACK
6
CONTINUOUS
10
3.74479
20
-1.89788
11
3.74318
21
-1.90094
0
LINE
8
BLACK
6
CONTINUOUS
10
3.74318
20
-1.90094
11
3.73079
21
-1.91623
0
LINE
8
BLACK
6
CONTINUOUS
10
3.73079
20
-1.91623
11
3.72814
21
-1.91844
0
LINE
8
BLACK
6
CONTINUOUS
10
3.72814
20
-1.91844
11
3.72484
21
-1.91947
0
LINE
8
BLACK
6
CONTINUOUS
10
3.72484
20
-1.91947
11
3.72139
21
-1.91915
0
LINE
8
BLACK
6
CONTINUOUS
10
3.72139
20
-1.91915
11
3.71833
21
-1.91754
0
LINE
8
BLACK
6
CONTINUOUS
10
3.71833
20
-1.91754
11
3.70457
21
-1.90639
0
LINE
8
BLACK
6
CONTINUOUS
10
3.70457
20
-1.90639
11
3.70236
21
-1.90374
0
LINE
8
BLACK
6
CONTINUOUS
10
3.70236
20
-1.90374
11
3.70133
21
-1.90044
0
LINE
8
BLACK
6
CONTINUOUS
10
3.70133
20
-1.90044
11
3.70165
21
-1.89699
0
LINE
8
BLACK
6
CONTINUOUS
10
3.70165
20
-1.89699
11
3.70326
21
-1.89393
0
LINE
8
BLACK
6
CONTINUOUS
10
3.70326
20
-1.89393
11
3.71564
21
-1.87864
0
LINE
8
BLACK
6
CONTINUOUS
10
3.71564
20
-1.87864
11
3.7183
21
-1.87643
0
LINE
8
BLACK
6
CONTINUOUS
10
3.7183
20
-1.87643
11
3.7216
21
-1.8754
0
LINE
8
BLACK
6
CONTINUOUS
10
3.7216
20
-1.8754
11
3.72504
21
-1.87572
0
LINE
8
BLACK
6
CONTINUOUS
10
3.77247
20
-1.91412
11
3.77553
21
-1.91573
0
LINE
8
BLACK
6
CONTINUOUS
10
3.77553
20
-1.91573
11
3.7893
21
-1.92688
0
LINE
8
BLACK
6
CONTINUOUS
10
3.7893
20
-1.92688
11
3.79151
21
-1.92954
0
LINE
8
BLACK
6
CONTINUOUS
10
3.79151
20
-1.92954
11
3.79253
21
-1.93284
0
LINE
8
BLACK
6
CONTINUOUS
10
3.79253
20
-1.93284
11
3.79222
21
-1.93628
0
LINE
8
BLACK
6
CONTINUOUS
10
3.79222
20
-1.93628
11
3.79061
21
-1.93934
0
LINE
8
BLACK
6
CONTINUOUS
10
3.79061
20
-1.93934
11
3.77822
21
-1.95464
0
LINE
8
BLACK
6
CONTINUOUS
10
3.77822
20
-1.95464
11
3.77556
21
-1.95685
0
LINE
8
BLACK
6
CONTINUOUS
10
3.77556
20
-1.95685
11
3.77226
21
-1.95787
0
LINE
8
BLACK
6
CONTINUOUS
10
3.77226
20
-1.95787
11
3.76882
21
-1.95756
0
LINE
8
BLACK
6
CONTINUOUS
10
3.76882
20
-1.95756
11
3.76576
21
-1.95595
0
LINE
8
BLACK
6
CONTINUOUS
10
3.76576
20
-1.95595
11
3.75199
21
-1.9448
0
LINE
8
BLACK
6
CONTINUOUS
10
3.75199
20
-1.9448
11
3.74978
21
-1.94214
0
LINE
8
BLACK
6
CONTINUOUS
10
3.74978
20
-1.94214
11
3.74876
21
-1.93884
0
LINE
8
BLACK
6
CONTINUOUS
10
3.74876
20
-1.93884
11
3.74907
21
-1.9354
0
LINE
8
BLACK
6
CONTINUOUS
10
3.74907
20
-1.9354
11
3.75068
21
-1.93234
0
LINE
8
BLACK
6
CONTINUOUS
10
3.75068
20
-1.93234
11
3.76307
21
-1.91704
0
LINE
8
BLACK
6
CONTINUOUS
10
3.76307
20
-1.91704
11
3.76573
21
-1.91483
0
LINE
8
BLACK
6
CONTINUOUS
10
3.76573
20
-1.91483
11
3.76903
21
-1.91381
0
LINE
8
BLACK
6
CONTINUOUS
10
3.76903
20
-1.91381
11
3.77247
21
-1.91412
0
LINE
8
BLACK
6
CONTINUOUS
10
3.87056
20
-1.9307
11
3.84829
21
-1.95297
0
LINE
8
BLACK
6
CONTINUOUS
10
3.84829
20
-1.95297
11
3.82602
21
-1.9307
0
LINE
8
BLACK
6
CONTINUOUS
10
3.82602
20
-1.9307
11
3.84829
21
-1.90842
0
LINE
8
BLACK
6
CONTINUOUS
10
3.84829
20
-1.90842
11
3.87056
21
-1.9307
0
LINE
8
BLACK
6
CONTINUOUS
10
5.28909
20
-1.88492
11
5.29163
21
-1.88727
0
LINE
8
BLACK
6
CONTINUOUS
10
5.29163
20
-1.88727
11
5.3032
21
-1.90319
0
LINE
8
BLACK
6
CONTINUOUS
10
5.3032
20
-1.90319
11
5.30464
21
-1.90633
0
LINE
8
BLACK
6
CONTINUOUS
10
5.30464
20
-1.90633
11
5.30478
21
-1.90978
0
LINE
8
BLACK
6
CONTINUOUS
10
5.30478
20
-1.90978
11
5.30358
21
-1.91303
0
LINE
8
BLACK
6
CONTINUOUS
10
5.30358
20
-1.91303
11
5.30124
21
-1.91557
0
LINE
8
BLACK
6
CONTINUOUS
10
5.30124
20
-1.91557
11
5.2869
21
-1.92598
0
LINE
8
BLACK
6
CONTINUOUS
10
5.2869
20
-1.92598
11
5.28377
21
-1.92743
0
LINE
8
BLACK
6
CONTINUOUS
10
5.28377
20
-1.92743
11
5.28031
21
-1.92756
0
LINE
8
BLACK
6
CONTINUOUS
10
5.28031
20
-1.92756
11
5.27707
21
-1.92636
0
LINE
8
BLACK
6
CONTINUOUS
10
5.27707
20
-1.92636
11
5.27453
21
-1.92402
0
LINE
8
BLACK
6
CONTINUOUS
10
5.27453
20
-1.92402
11
5.26296
21
-1.90809
0
LINE
8
BLACK
6
CONTINUOUS
10
5.26296
20
-1.90809
11
5.26151
21
-1.90495
0
LINE
8
BLACK
6
CONTINUOUS
10
5.26151
20
-1.90495
11
5.26138
21
-1.9015
0
LINE
8
BLACK
6
CONTINUOUS
10
5.26138
20
-1.9015
11
5.26257
21
-1.89826
0
LINE
8
BLACK
6
CONTINUOUS
10
5.26257
20
-1.89826
11
5.26492
21
-1.89572
0
LINE
8
BLACK
6
CONTINUOUS
10
5.26492
20
-1.89572
11
5.27925
21
-1.88531
0
LINE
8
BLACK
6
CONTINUOUS
10
5.27925
20
-1.88531
11
5.28239
21
-1.88386
0
LINE
8
BLACK
6
CONTINUOUS
10
5.28239
20
-1.88386
11
5.28585
21
-1.88372
0
LINE
8
BLACK
6
CONTINUOUS
10
5.28585
20
-1.88372
11
5.28909
21
-1.88492
0
LINE
8
BLACK
6
CONTINUOUS
10
3.89228
20
-1.90898
11
3.88114
21
-1.92012
0
LINE
8
BLACK
6
CONTINUOUS
10
3.88114
20
-1.92012
11
3.85887
21
-1.89785
0
LINE
8
BLACK
6
CONTINUOUS
10
3.85887
20
-1.89785
11
3.87001
21
-1.88671
0
LINE
8
BLACK
6
CONTINUOUS
10
3.87001
20
-1.88671
11
3.89228
21
-1.90898
0
LINE
8
BLACK
6
CONTINUOUS
10
3.91956
20
-1.8817
11
3.90286
21
-1.8984
0
LINE
8
BLACK
6
CONTINUOUS
10
3.90286
20
-1.8984
11
3.88059
21
-1.87613
0
LINE
8
BLACK
6
CONTINUOUS
10
3.88059
20
-1.87613
11
3.89729
21
-1.85943
0
LINE
8
BLACK
6
CONTINUOUS
10
3.89729
20
-1.85943
11
3.91956
21
-1.8817
0
LINE
8
BLACK
6
CONTINUOUS
10
0.962598
20
-1.82539
11
0.883858
21
-1.82539
0
LINE
8
BLACK
6
CONTINUOUS
10
0.883858
20
-1.82539
11
0.883858
21
-1.75059
0
LINE
8
BLACK
6
CONTINUOUS
10
0.883858
20
-1.75059
11
0.962598
21
-1.75059
0
LINE
8
BLACK
6
CONTINUOUS
10
0.962598
20
-1.75059
11
0.962598
21
-1.82539
0
LINE
8
BLACK
6
CONTINUOUS
10
1.55315
20
-1.82539
11
1.47441
21
-1.82539
0
LINE
8
BLACK
6
CONTINUOUS
10
1.47441
20
-1.82539
11
1.47441
21
-1.75059
0
LINE
8
BLACK
6
CONTINUOUS
10
1.47441
20
-1.75059
11
1.55315
21
-1.75059
0
LINE
8
BLACK
6
CONTINUOUS
10
1.55315
20
-1.75059
11
1.55315
21
-1.82539
0
LINE
8
BLACK
6
CONTINUOUS
10
3.91303
20
-1.69642
11
3.91557
21
-1.69876
0
LINE
8
BLACK
6
CONTINUOUS
10
3.91557
20
-1.69876
11
3.92598
21
-1.7131
0
LINE
8
BLACK
6
CONTINUOUS
10
3.92598
20
-1.7131
11
3.92743
21
-1.71623
0
LINE
8
BLACK
6
CONTINUOUS
10
3.92743
20
-1.71623
11
3.92756
21
-1.71969
0
LINE
8
BLACK
6
CONTINUOUS
10
3.92756
20
-1.71969
11
3.92637
21
-1.72293
0
LINE
8
BLACK
6
CONTINUOUS
10
3.92637
20
-1.72293
11
3.92402
21
-1.72547
0
LINE
8
BLACK
6
CONTINUOUS
10
3.92402
20
-1.72547
11
3.90809
21
-1.73704
0
LINE
8
BLACK
6
CONTINUOUS
10
3.90809
20
-1.73704
11
3.90495
21
-1.73849
0
LINE
8
BLACK
6
CONTINUOUS
10
3.90495
20
-1.73849
11
3.9015
21
-1.73862
0
LINE
8
BLACK
6
CONTINUOUS
10
3.9015
20
-1.73862
11
3.89826
21
-1.73743
0
LINE
8
BLACK
6
CONTINUOUS
10
3.89826
20
-1.73743
11
3.89572
21
-1.73508
0
LINE
8
BLACK
6
CONTINUOUS
10
3.89572
20
-1.73508
11
3.88531
21
-1.72075
0
LINE
8
BLACK
6
CONTINUOUS
10
3.88531
20
-1.72075
11
3.88386
21
-1.71761
0
LINE
8
BLACK
6
CONTINUOUS
10
3.88386
20
-1.71761
11
3.88372
21
-1.71415
0
LINE
8
BLACK
6
CONTINUOUS
10
3.88372
20
-1.71415
11
3.88492
21
-1.71091
0
LINE
8
BLACK
6
CONTINUOUS
10
3.88492
20
-1.71091
11
3.88727
21
-1.70837
0
LINE
8
BLACK
6
CONTINUOUS
10
3.88727
20
-1.70837
11
3.90319
21
-1.6968
0
LINE
8
BLACK
6
CONTINUOUS
10
3.90319
20
-1.6968
11
3.90633
21
-1.69536
0
LINE
8
BLACK
6
CONTINUOUS
10
3.90633
20
-1.69536
11
3.90978
21
-1.69522
0
LINE
8
BLACK
6
CONTINUOUS
10
3.90978
20
-1.69522
11
3.91303
21
-1.69642
0
LINE
8
BLACK
6
CONTINUOUS
10
4.14045
20
-1.72882
11
4.11488
21
-1.74358
0
LINE
8
BLACK
6
CONTINUOUS
10
4.11488
20
-1.74358
11
4.09913
21
-1.71631
0
LINE
8
BLACK
6
CONTINUOUS
10
4.09913
20
-1.71631
11
4.1247
21
-1.70154
0
LINE
8
BLACK
6
CONTINUOUS
10
4.1247
20
-1.70154
11
4.14045
21
-1.72882
0
LINE
8
BLACK
6
CONTINUOUS
10
4.90274
20
-1.71739
11
4.887
21
-1.74466
0
LINE
8
BLACK
6
CONTINUOUS
10
4.887
20
-1.74466
11
4.85972
21
-1.72892
0
LINE
8
BLACK
6
CONTINUOUS
10
4.85972
20
-1.72892
11
4.87547
21
-1.70164
0
LINE
8
BLACK
6
CONTINUOUS
10
4.87547
20
-1.70164
11
4.90274
21
-1.71739
0
LINE
8
BLACK
6
CONTINUOUS
10
4.92934
20
-1.73274
11
4.91359
21
-1.76002
0
LINE
8
BLACK
6
CONTINUOUS
10
4.91359
20
-1.76002
11
4.89995
21
-1.75214
0
LINE
8
BLACK
6
CONTINUOUS
10
4.89995
20
-1.75214
11
4.9157
21
-1.72487
0
LINE
8
BLACK
6
CONTINUOUS
10
4.9157
20
-1.72487
11
4.92934
21
-1.73274
0
LINE
8
BLACK
6
CONTINUOUS
10
4.96275
20
-1.75203
11
4.947
21
-1.77931
0
LINE
8
BLACK
6
CONTINUOUS
10
4.947
20
-1.77931
11
4.92655
21
-1.7675
0
LINE
8
BLACK
6
CONTINUOUS
10
4.92655
20
-1.7675
11
4.94229
21
-1.74022
0
LINE
8
BLACK
6
CONTINUOUS
10
4.94229
20
-1.74022
11
4.96275
21
-1.75203
0
LINE
8
BLACK
6
CONTINUOUS
10
5.00384
20
-1.77575
11
4.98809
21
-1.80303
0
LINE
8
BLACK
6
CONTINUOUS
10
4.98809
20
-1.80303
11
4.96252
21
-1.78827
0
LINE
8
BLACK
6
CONTINUOUS
10
4.96252
20
-1.78827
11
4.97827
21
-1.76099
0
LINE
8
BLACK
6
CONTINUOUS
10
4.97827
20
-1.76099
11
5.00384
21
-1.77575
0
LINE
8
BLACK
6
CONTINUOUS
10
3.9489
20
-1.74579
11
3.95143
21
-1.74813
0
LINE
8
BLACK
6
CONTINUOUS
10
3.95143
20
-1.74813
11
3.96185
21
-1.76246
0
LINE
8
BLACK
6
CONTINUOUS
10
3.96185
20
-1.76246
11
3.96329
21
-1.7656
0
LINE
8
BLACK
6
CONTINUOUS
10
3.96329
20
-1.7656
11
3.96343
21
-1.76906
0
LINE
8
BLACK
6
CONTINUOUS
10
3.96343
20
-1.76906
11
3.96223
21
-1.7723
0
LINE
8
BLACK
6
CONTINUOUS
10
3.96223
20
-1.7723
11
3.95989
21
-1.77484
0
LINE
8
BLACK
6
CONTINUOUS
10
3.95989
20
-1.77484
11
3.94396
21
-1.78641
0
LINE
8
BLACK
6
CONTINUOUS
10
3.94396
20
-1.78641
11
3.94082
21
-1.78786
0
LINE
8
BLACK
6
CONTINUOUS
10
3.94082
20
-1.78786
11
3.93737
21
-1.78799
0
LINE
8
BLACK
6
CONTINUOUS
10
3.93737
20
-1.78799
11
3.93413
21
-1.7868
0
LINE
8
BLACK
6
CONTINUOUS
10
3.93413
20
-1.7868
11
3.93159
21
-1.78445
0
LINE
8
BLACK
6
CONTINUOUS
10
3.93159
20
-1.78445
11
3.92118
21
-1.77012
0
LINE
8
BLACK
6
CONTINUOUS
10
3.92118
20
-1.77012
11
3.91973
21
-1.76698
0
LINE
8
BLACK
6
CONTINUOUS
10
3.91973
20
-1.76698
11
3.91959
21
-1.76352
0
LINE
8
BLACK
6
CONTINUOUS
10
3.91959
20
-1.76352
11
3.92079
21
-1.76028
0
LINE
8
BLACK
6
CONTINUOUS
10
3.92079
20
-1.76028
11
3.92314
21
-1.75774
0
LINE
8
BLACK
6
CONTINUOUS
10
3.92314
20
-1.75774
11
3.93906
21
-1.74617
0
LINE
8
BLACK
6
CONTINUOUS
10
3.93906
20
-1.74617
11
3.9422
21
-1.74473
0
LINE
8
BLACK
6
CONTINUOUS
10
3.9422
20
-1.74473
11
3.94565
21
-1.74459
0
LINE
8
BLACK
6
CONTINUOUS
10
3.94565
20
-1.74459
11
3.9489
21
-1.74579
0
LINE
8
BLACK
6
CONTINUOUS
10
4.03936
20
-1.78718
11
4.01208
21
-1.80293
0
LINE
8
BLACK
6
CONTINUOUS
10
4.01208
20
-1.80293
11
3.99633
21
-1.77566
0
LINE
8
BLACK
6
CONTINUOUS
10
3.99633
20
-1.77566
11
4.02361
21
-1.75991
0
LINE
8
BLACK
6
CONTINUOUS
10
4.02361
20
-1.75991
11
4.03936
21
-1.78718
0
LINE
8
BLACK
6
CONTINUOUS
10
5.0646
20
-1.74907
11
5.06766
21
-1.75068
0
LINE
8
BLACK
6
CONTINUOUS
10
5.06766
20
-1.75068
11
5.08296
21
-1.76307
0
LINE
8
BLACK
6
CONTINUOUS
10
5.08296
20
-1.76307
11
5.08517
21
-1.76573
0
LINE
8
BLACK
6
CONTINUOUS
10
5.08517
20
-1.76573
11
5.08619
21
-1.76903
0
LINE
8
BLACK
6
CONTINUOUS
10
5.08619
20
-1.76903
11
5.08588
21
-1.77247
0
LINE
8
BLACK
6
CONTINUOUS
10
5.08588
20
-1.77247
11
5.08427
21
-1.77553
0
LINE
8
BLACK
6
CONTINUOUS
10
5.08427
20
-1.77553
11
5.07312
21
-1.7893
0
LINE
8
BLACK
6
CONTINUOUS
10
5.07312
20
-1.7893
11
5.07046
21
-1.79151
0
LINE
8
BLACK
6
CONTINUOUS
10
5.07046
20
-1.79151
11
5.06716
21
-1.79253
0
LINE
8
BLACK
6
CONTINUOUS
10
5.06716
20
-1.79253
11
5.06372
21
-1.79222
0
LINE
8
BLACK
6
CONTINUOUS
10
5.06372
20
-1.79222
11
5.06066
21
-1.79061
0
LINE
8
BLACK
6
CONTINUOUS
10
5.06066
20
-1.79061
11
5.04536
21
-1.77822
0
LINE
8
BLACK
6
CONTINUOUS
10
5.04536
20
-1.77822
11
5.04315
21
-1.77556
0
LINE
8
BLACK
6
CONTINUOUS
10
5.04315
20
-1.77556
11
5.04213
21
-1.77226
0
LINE
8
BLACK
6
CONTINUOUS
10
5.04213
20
-1.77226
11
5.04244
21
-1.76882
0
LINE
8
BLACK
6
CONTINUOUS
10
5.04244
20
-1.76882
11
5.04405
21
-1.76576
0
LINE
8
BLACK
6
CONTINUOUS
10
5.04405
20
-1.76576
11
5.0552
21
-1.75199
0
LINE
8
BLACK
6
CONTINUOUS
10
5.0552
20
-1.75199
11
5.05786
21
-1.74978
0
LINE
8
BLACK
6
CONTINUOUS
10
5.05786
20
-1.74978
11
5.06116
21
-1.74876
0
LINE
8
BLACK
6
CONTINUOUS
10
5.06116
20
-1.74876
11
5.0646
21
-1.74907
0
LINE
8
BLACK
6
CONTINUOUS
10
4.06595
20
-1.77183
11
4.05231
21
-1.7797
0
LINE
8
BLACK
6
CONTINUOUS
10
4.05231
20
-1.7797
11
4.03657
21
-1.75243
0
LINE
8
BLACK
6
CONTINUOUS
10
4.03657
20
-1.75243
11
4.0502
21
-1.74455
0
LINE
8
BLACK
6
CONTINUOUS
10
4.0502
20
-1.74455
11
4.06595
21
-1.77183
0
LINE
8
BLACK
6
CONTINUOUS
10
4.09937
20
-1.75254
11
4.07891
21
-1.76435
0
LINE
8
BLACK
6
CONTINUOUS
10
4.07891
20
-1.76435
11
4.06316
21
-1.73707
0
LINE
8
BLACK
6
CONTINUOUS
10
4.06316
20
-1.73707
11
4.08362
21
-1.72526
0
LINE
8
BLACK
6
CONTINUOUS
10
4.08362
20
-1.72526
11
4.09937
21
-1.75254
0
LINE
8
BLACK
6
CONTINUOUS
10
5.10301
20
-1.70165
11
5.10607
21
-1.70326
0
LINE
8
BLACK
6
CONTINUOUS
10
5.10607
20
-1.70326
11
5.12136
21
-1.71564
0
LINE
8
BLACK
6
CONTINUOUS
10
5.12136
20
-1.71564
11
5.12357
21
-1.7183
0
LINE
8
BLACK
6
CONTINUOUS
10
5.12357
20
-1.7183
11
5.1246
21
-1.7216
0
LINE
8
BLACK
6
CONTINUOUS
10
5.1246
20
-1.7216
11
5.12428
21
-1.72504
0
LINE
8
BLACK
6
CONTINUOUS
10
5.12428
20
-1.72504
11
5.12267
21
-1.7281
0
LINE
8
BLACK
6
CONTINUOUS
10
5.12267
20
-1.7281
11
5.11152
21
-1.74187
0
LINE
8
BLACK
6
CONTINUOUS
10
5.11152
20
-1.74187
11
5.10887
21
-1.74408
0
LINE
8
BLACK
6
CONTINUOUS
10
5.10887
20
-1.74408
11
5.10557
21
-1.74511
0
LINE
8
BLACK
6
CONTINUOUS
10
5.10557
20
-1.74511
11
5.10212
21
-1.74479
0
LINE
8
BLACK
6
CONTINUOUS
10
5.10212
20
-1.74479
11
5.09906
21
-1.74318
0
LINE
8
BLACK
6
CONTINUOUS
10
5.09906
20
-1.74318
11
5.08377
21
-1.73079
0
LINE
8
BLACK
6
CONTINUOUS
10
5.08377
20
-1.73079
11
5.08156
21
-1.72814
0
LINE
8
BLACK
6
CONTINUOUS
10
5.08156
20
-1.72814
11
5.08053
21
-1.72484
0
LINE
8
BLACK
6
CONTINUOUS
10
5.08053
20
-1.72484
11
5.08085
21
-1.72139
0
LINE
8
BLACK
6
CONTINUOUS
10
5.08085
20
-1.72139
11
5.08246
21
-1.71833
0
LINE
8
BLACK
6
CONTINUOUS
10
5.08246
20
-1.71833
11
5.09361
21
-1.70457
0
LINE
8
BLACK
6
CONTINUOUS
10
5.09361
20
-1.70457
11
5.09626
21
-1.70236
0
LINE
8
BLACK
6
CONTINUOUS
10
5.09626
20
-1.70236
11
5.09956
21
-1.70133
0
LINE
8
BLACK
6
CONTINUOUS
10
5.09956
20
-1.70133
11
5.10301
21
-1.70165
0
LINE
8
BLACK
6
CONTINUOUS
10
0.962598
20
-1.66791
11
0.883858
21
-1.66791
0
LINE
8
BLACK
6
CONTINUOUS
10
0.883858
20
-1.66791
11
0.883858
21
-1.59311
0
LINE
8
BLACK
6
CONTINUOUS
10
0.883858
20
-1.59311
11
0.962598
21
-1.59311
0
LINE
8
BLACK
6
CONTINUOUS
10
0.962598
20
-1.59311
11
0.962598
21
-1.66791
0
LINE
8
BLACK
6
CONTINUOUS
10
1.55315
20
-1.66791
11
1.47441
21
-1.66791
0
LINE
8
BLACK
6
CONTINUOUS
10
1.47441
20
-1.66791
11
1.47441
21
-1.59311
0
LINE
8
BLACK
6
CONTINUOUS
10
1.47441
20
-1.59311
11
1.55315
21
-1.59311
0
LINE
8
BLACK
6
CONTINUOUS
10
1.55315
20
-1.59311
11
1.55315
21
-1.66791
0
LINE
8
BLACK
6
CONTINUOUS
10
4.45748
20
-1.65236
11
4.42598
21
-1.65236
0
LINE
8
BLACK
6
CONTINUOUS
10
4.42598
20
-1.65236
11
4.42598
21
-1.62087
0
LINE
8
BLACK
6
CONTINUOUS
10
4.42598
20
-1.62087
11
4.45748
21
-1.62087
0
LINE
8
BLACK
6
CONTINUOUS
10
4.45748
20
-1.62087
11
4.45748
21
-1.65236
0
LINE
8
BLACK
6
CONTINUOUS
10
4.48819
20
-1.65236
11
4.47244
21
-1.65236
0
LINE
8
BLACK
6
CONTINUOUS
10
4.47244
20
-1.65236
11
4.47244
21
-1.62087
0
LINE
8
BLACK
6
CONTINUOUS
10
4.47244
20
-1.62087
11
4.48819
21
-1.62087
0
LINE
8
BLACK
6
CONTINUOUS
10
4.48819
20
-1.62087
11
4.48819
21
-1.65236
0
LINE
8
BLACK
6
CONTINUOUS
10
4.52677
20
-1.65236
11
4.50315
21
-1.65236
0
LINE
8
BLACK
6
CONTINUOUS
10
4.50315
20
-1.65236
11
4.50315
21
-1.62087
0
LINE
8
BLACK
6
CONTINUOUS
10
4.50315
20
-1.62087
11
4.52677
21
-1.62087
0
LINE
8
BLACK
6
CONTINUOUS
10
4.52677
20
-1.62087
11
4.52677
21
-1.65236
0
LINE
8
BLACK
6
CONTINUOUS
10
4.57421
20
-1.65236
11
4.54469
21
-1.65236
0
LINE
8
BLACK
6
CONTINUOUS
10
4.54469
20
-1.65236
11
4.54469
21
-1.62087
0
LINE
8
BLACK
6
CONTINUOUS
10
4.54469
20
-1.62087
11
4.57421
21
-1.62087
0
LINE
8
BLACK
6
CONTINUOUS
10
4.57421
20
-1.62087
11
4.57421
21
-1.65236
0
LINE
8
BLACK
6
CONTINUOUS
10
4.68647
20
-1.63982
11
4.67831
21
-1.67024
0
LINE
8
BLACK
6
CONTINUOUS
10
4.67831
20
-1.67024
11
4.64789
21
-1.66209
0
LINE
8
BLACK
6
CONTINUOUS
10
4.64789
20
-1.66209
11
4.65604
21
-1.63167
0
LINE
8
BLACK
6
CONTINUOUS
10
4.65604
20
-1.63167
11
4.68647
21
-1.63982
0
LINE
8
BLACK
6
CONTINUOUS
10
4.71613
20
-1.64776
11
4.70798
21
-1.67819
0
LINE
8
BLACK
6
CONTINUOUS
10
4.70798
20
-1.67819
11
4.69276
21
-1.67411
0
LINE
8
BLACK
6
CONTINUOUS
10
4.69276
20
-1.67411
11
4.70092
21
-1.64369
0
LINE
8
BLACK
6
CONTINUOUS
10
4.70092
20
-1.64369
11
4.71613
21
-1.64776
0
LINE
8
BLACK
6
CONTINUOUS
10
4.7534
20
-1.65775
11
4.74524
21
-1.68817
0
LINE
8
BLACK
6
CONTINUOUS
10
4.74524
20
-1.68817
11
4.72243
21
-1.68206
0
LINE
8
BLACK
6
CONTINUOUS
10
4.72243
20
-1.68206
11
4.73058
21
-1.65164
0
LINE
8
BLACK
6
CONTINUOUS
10
4.73058
20
-1.65164
11
4.7534
21
-1.65775
0
LINE
8
BLACK
6
CONTINUOUS
10
4.79922
20
-1.67003
11
4.79107
21
-1.70045
0
LINE
8
BLACK
6
CONTINUOUS
10
4.79107
20
-1.70045
11
4.76255
21
-1.69281
0
LINE
8
BLACK
6
CONTINUOUS
10
4.76255
20
-1.69281
11
4.7707
21
-1.66239
0
LINE
8
BLACK
6
CONTINUOUS
10
4.7707
20
-1.66239
11
4.79922
21
-1.67003
0
LINE
8
BLACK
6
CONTINUOUS
10
4.16006
20
-1.62685
11
4.16288
21
-1.62885
0
LINE
8
BLACK
6
CONTINUOUS
10
4.16288
20
-1.62885
11
4.16472
21
-1.63177
0
LINE
8
BLACK
6
CONTINUOUS
10
4.16472
20
-1.63177
11
4.17107
21
-1.64831
0
LINE
8
BLACK
6
CONTINUOUS
10
4.17107
20
-1.64831
11
4.17166
21
-1.65172
0
LINE
8
BLACK
6
CONTINUOUS
10
4.17166
20
-1.65172
11
4.1709
21
-1.65509
0
LINE
8
BLACK
6
CONTINUOUS
10
4.1709
20
-1.65509
11
4.1689
21
-1.65791
0
LINE
8
BLACK
6
CONTINUOUS
10
4.1689
20
-1.65791
11
4.16598
21
-1.65976
0
LINE
8
BLACK
6
CONTINUOUS
10
4.16598
20
-1.65976
11
4.1476
21
-1.66681
0
LINE
8
BLACK
6
CONTINUOUS
10
4.1476
20
-1.66681
11
4.14419
21
-1.6674
0
LINE
8
BLACK
6
CONTINUOUS
10
4.14419
20
-1.6674
11
4.14082
21
-1.66663
0
LINE
8
BLACK
6
CONTINUOUS
10
4.14082
20
-1.66663
11
4.138
21
-1.66464
0
LINE
8
BLACK
6
CONTINUOUS
10
4.138
20
-1.66464
11
4.13616
21
-1.66172
0
LINE
8
BLACK
6
CONTINUOUS
10
4.13616
20
-1.66172
11
4.12981
21
-1.64518
0
LINE
8
BLACK
6
CONTINUOUS
10
4.12981
20
-1.64518
11
4.12922
21
-1.64177
0
LINE
8
BLACK
6
CONTINUOUS
10
4.12922
20
-1.64177
11
4.12998
21
-1.6384
0
LINE
8
BLACK
6
CONTINUOUS
10
4.12998
20
-1.6384
11
4.13198
21
-1.63558
0
LINE
8
BLACK
6
CONTINUOUS
10
4.13198
20
-1.63558
11
4.1349
21
-1.63373
0
LINE
8
BLACK
6
CONTINUOUS
10
4.1349
20
-1.63373
11
4.15328
21
-1.62668
0
LINE
8
BLACK
6
CONTINUOUS
10
4.15328
20
-1.62668
11
4.15669
21
-1.62609
0
LINE
8
BLACK
6
CONTINUOUS
10
4.15669
20
-1.62609
11
4.16006
21
-1.62685
0
LINE
8
BLACK
6
CONTINUOUS
10
4.23954
20
-1.69225
11
4.20912
21
-1.7004
0
LINE
8
BLACK
6
CONTINUOUS
10
4.20912
20
-1.7004
11
4.20097
21
-1.66998
0
LINE
8
BLACK
6
CONTINUOUS
10
4.20097
20
-1.66998
11
4.23139
21
-1.66183
0
LINE
8
BLACK
6
CONTINUOUS
10
4.23139
20
-1.66183
11
4.23954
21
-1.69225
0
LINE
8
BLACK
6
CONTINUOUS
10
4.26921
20
-1.6843
11
4.254
21
-1.68838
0
LINE
8
BLACK
6
CONTINUOUS
10
4.254
20
-1.68838
11
4.24584
21
-1.65795
0
LINE
8
BLACK
6
CONTINUOUS
10
4.24584
20
-1.65795
11
4.26105
21
-1.65388
0
LINE
8
BLACK
6
CONTINUOUS
10
4.26105
20
-1.65388
11
4.26921
21
-1.6843
0
LINE
8
BLACK
6
CONTINUOUS
10
4.30647
20
-1.67432
11
4.28366
21
-1.68043
0
LINE
8
BLACK
6
CONTINUOUS
10
4.28366
20
-1.68043
11
4.27551
21
-1.65001
0
LINE
8
BLACK
6
CONTINUOUS
10
4.27551
20
-1.65001
11
4.29832
21
-1.64389
0
LINE
8
BLACK
6
CONTINUOUS
10
4.29832
20
-1.64389
11
4.30647
21
-1.67432
0
LINE
8
BLACK
6
CONTINUOUS
10
4.85438
20
-1.62929
11
4.87236
21
-1.6373
0
LINE
8
BLACK
6
CONTINUOUS
10
4.87236
20
-1.6373
11
4.87519
21
-1.63929
0
LINE
8
BLACK
6
CONTINUOUS
10
4.87519
20
-1.63929
11
4.87703
21
-1.64222
0
LINE
8
BLACK
6
CONTINUOUS
10
4.87703
20
-1.64222
11
4.87762
21
-1.64562
0
LINE
8
BLACK
6
CONTINUOUS
10
4.87762
20
-1.64562
11
4.87685
21
-1.64899
0
LINE
8
BLACK
6
CONTINUOUS
10
4.87685
20
-1.64899
11
4.86965
21
-1.66518
0
LINE
8
BLACK
6
CONTINUOUS
10
4.86965
20
-1.66518
11
4.86765
21
-1.668
0
LINE
8
BLACK
6
CONTINUOUS
10
4.86765
20
-1.668
11
4.86473
21
-1.66985
0
LINE
8
BLACK
6
CONTINUOUS
10
4.86473
20
-1.66985
11
4.86132
21
-1.67043
0
LINE
8
BLACK
6
CONTINUOUS
10
4.86132
20
-1.67043
11
4.85795
21
-1.66967
0
LINE
8
BLACK
6
CONTINUOUS
10
4.85795
20
-1.66967
11
4.83997
21
-1.66166
0
LINE
8
BLACK
6
CONTINUOUS
10
4.83997
20
-1.66166
11
4.83715
21
-1.65967
0
LINE
8
BLACK
6
CONTINUOUS
10
4.83715
20
-1.65967
11
4.8353
21
-1.65674
0
LINE
8
BLACK
6
CONTINUOUS
10
4.8353
20
-1.65674
11
4.83472
21
-1.65334
0
LINE
8
BLACK
6
CONTINUOUS
10
4.83472
20
-1.65334
11
4.83548
21
-1.64997
0
LINE
8
BLACK
6
CONTINUOUS
10
4.83548
20
-1.64997
11
4.84269
21
-1.63378
0
LINE
8
BLACK
6
CONTINUOUS
10
4.84269
20
-1.63378
11
4.84468
21
-1.63096
0
LINE
8
BLACK
6
CONTINUOUS
10
4.84468
20
-1.63096
11
4.8476
21
-1.62911
0
LINE
8
BLACK
6
CONTINUOUS
10
4.8476
20
-1.62911
11
4.85101
21
-1.62853
0
LINE
8
BLACK
6
CONTINUOUS
10
4.85101
20
-1.62853
11
4.85438
21
-1.62929
0
LINE
8
BLACK
6
CONTINUOUS
10
4.3523
20
-1.66204
11
4.32378
21
-1.66968
0
LINE
8
BLACK
6
CONTINUOUS
10
4.32378
20
-1.66968
11
4.31563
21
-1.63926
0
LINE
8
BLACK
6
CONTINUOUS
10
4.31563
20
-1.63926
11
4.34415
21
-1.63161
0
LINE
8
BLACK
6
CONTINUOUS
10
4.34415
20
-1.63161
11
4.3523
21
-1.66204
0
LINE
8
BLACK
6
CONTINUOUS
10
4.39457
20
-1.56701
11
4.39763
21
-1.56862
0
LINE
8
BLACK
6
CONTINUOUS
10
4.39763
20
-1.56862
11
4.39984
21
-1.57128
0
LINE
8
BLACK
6
CONTINUOUS
10
4.39984
20
-1.57128
11
4.40086
21
-1.57458
0
LINE
8
BLACK
6
CONTINUOUS
10
4.40086
20
-1.57458
11
4.40271
21
-1.5922
0
LINE
8
BLACK
6
CONTINUOUS
10
4.40271
20
-1.5922
11
4.4024
21
-1.59564
0
LINE
8
BLACK
6
CONTINUOUS
10
4.4024
20
-1.59564
11
4.40079
21
-1.5987
0
LINE
8
BLACK
6
CONTINUOUS
10
4.40079
20
-1.5987
11
4.39813
21
-1.60091
0
LINE
8
BLACK
6
CONTINUOUS
10
4.39813
20
-1.60091
11
4.39483
21
-1.60194
0
LINE
8
BLACK
6
CONTINUOUS
10
4.39483
20
-1.60194
11
4.37525
21
-1.60399
0
LINE
8
BLACK
6
CONTINUOUS
10
4.37525
20
-1.60399
11
4.37181
21
-1.60368
0
LINE
8
BLACK
6
CONTINUOUS
10
4.37181
20
-1.60368
11
4.36875
21
-1.60207
0
LINE
8
BLACK
6
CONTINUOUS
10
4.36875
20
-1.60207
11
4.36654
21
-1.59941
0
LINE
8
BLACK
6
CONTINUOUS
10
4.36654
20
-1.59941
11
4.36552
21
-1.59611
0
LINE
8
BLACK
6
CONTINUOUS
10
4.36552
20
-1.59611
11
4.36367
21
-1.57849
0
LINE
8
BLACK
6
CONTINUOUS
10
4.36367
20
-1.57849
11
4.36398
21
-1.57505
0
LINE
8
BLACK
6
CONTINUOUS
10
4.36398
20
-1.57505
11
4.36559
21
-1.57199
0
LINE
8
BLACK
6
CONTINUOUS
10
4.36559
20
-1.57199
11
4.36825
21
-1.56978
0
LINE
8
BLACK
6
CONTINUOUS
10
4.36825
20
-1.56978
11
4.37155
21
-1.56875
0
LINE
8
BLACK
6
CONTINUOUS
10
4.37155
20
-1.56875
11
4.39113
21
-1.5667
0
LINE
8
BLACK
6
CONTINUOUS
10
4.39113
20
-1.5667
11
4.39457
21
-1.56701
0
LINE
8
BLACK
6
CONTINUOUS
10
4.63639
20
-1.57032
11
4.63964
21
-1.57152
0
LINE
8
BLACK
6
CONTINUOUS
10
4.63964
20
-1.57152
11
4.64217
21
-1.57386
0
LINE
8
BLACK
6
CONTINUOUS
10
4.64217
20
-1.57386
11
4.64362
21
-1.577
0
LINE
8
BLACK
6
CONTINUOUS
10
4.64362
20
-1.577
11
4.64376
21
-1.58045
0
LINE
8
BLACK
6
CONTINUOUS
10
4.64376
20
-1.58045
11
4.64098
21
-1.59795
0
LINE
8
BLACK
6
CONTINUOUS
10
4.64098
20
-1.59795
11
4.63979
21
-1.6012
0
LINE
8
BLACK
6
CONTINUOUS
10
4.63979
20
-1.6012
11
4.63744
21
-1.60373
0
LINE
8
BLACK
6
CONTINUOUS
10
4.63744
20
-1.60373
11
4.6343
21
-1.60518
0
LINE
8
BLACK
6
CONTINUOUS
10
4.6343
20
-1.60518
11
4.63085
21
-1.60532
0
LINE
8
BLACK
6
CONTINUOUS
10
4.63085
20
-1.60532
11
4.61141
21
-1.60224
0
LINE
8
BLACK
6
CONTINUOUS
10
4.61141
20
-1.60224
11
4.60816
21
-1.60104
0
LINE
8
BLACK
6
CONTINUOUS
10
4.60816
20
-1.60104
11
4.60563
21
-1.59869
0
LINE
8
BLACK
6
CONTINUOUS
10
4.60563
20
-1.59869
11
4.60418
21
-1.59556
0
LINE
8
BLACK
6
CONTINUOUS
10
4.60418
20
-1.59556
11
4.60404
21
-1.5921
0
LINE
8
BLACK
6
CONTINUOUS
10
4.60404
20
-1.5921
11
4.60682
21
-1.5746
0
LINE
8
BLACK
6
CONTINUOUS
10
4.60682
20
-1.5746
11
4.60801
21
-1.57136
0
LINE
8
BLACK
6
CONTINUOUS
10
4.60801
20
-1.57136
11
4.61036
21
-1.56882
0
LINE
8
BLACK
6
CONTINUOUS
10
4.61036
20
-1.56882
11
4.6135
21
-1.56738
0
LINE
8
BLACK
6
CONTINUOUS
10
4.6135
20
-1.56738
11
4.61695
21
-1.56724
0
LINE
8
BLACK
6
CONTINUOUS
10
4.61695
20
-1.56724
11
4.63639
21
-1.57032
0
LINE
8
BLACK
6
CONTINUOUS
10
4.8792
20
-1.57354
11
4.89718
21
-1.58155
0
LINE
8
BLACK
6
CONTINUOUS
10
4.89718
20
-1.58155
11
4.90001
21
-1.58355
0
LINE
8
BLACK
6
CONTINUOUS
10
4.90001
20
-1.58355
11
4.90185
21
-1.58647
0
LINE
8
BLACK
6
CONTINUOUS
10
4.90185
20
-1.58647
11
4.90244
21
-1.58987
0
LINE
8
BLACK
6
CONTINUOUS
10
4.90244
20
-1.58987
11
4.90167
21
-1.59325
0
LINE
8
BLACK
6
CONTINUOUS
10
4.90167
20
-1.59325
11
4.89447
21
-1.60943
0
LINE
8
BLACK
6
CONTINUOUS
10
4.89447
20
-1.60943
11
4.89247
21
-1.61225
0
LINE
8
BLACK
6
CONTINUOUS
10
4.89247
20
-1.61225
11
4.88955
21
-1.6141
0
LINE
8
BLACK
6
CONTINUOUS
10
4.88955
20
-1.6141
11
4.88614
21
-1.61468
0
LINE
8
BLACK
6
CONTINUOUS
10
4.88614
20
-1.61468
11
4.88277
21
-1.61392
0
LINE
8
BLACK
6
CONTINUOUS
10
4.88277
20
-1.61392
11
4.86479
21
-1.60591
0
LINE
8
BLACK
6
CONTINUOUS
10
4.86479
20
-1.60591
11
4.86197
21
-1.60392
0
LINE
8
BLACK
6
CONTINUOUS
10
4.86197
20
-1.60392
11
4.86012
21
-1.601
0
LINE
8
BLACK
6
CONTINUOUS
10
4.86012
20
-1.601
11
4.85954
21
-1.59759
0
LINE
8
BLACK
6
CONTINUOUS
10
4.85954
20
-1.59759
11
4.8603
21
-1.59422
0
LINE
8
BLACK
6
CONTINUOUS
10
4.8603
20
-1.59422
11
4.86751
21
-1.57803
0
LINE
8
BLACK
6
CONTINUOUS
10
4.86751
20
-1.57803
11
4.8695
21
-1.57521
0
LINE
8
BLACK
6
CONTINUOUS
10
4.8695
20
-1.57521
11
4.87242
21
-1.57337
0
LINE
8
BLACK
6
CONTINUOUS
10
4.87242
20
-1.57337
11
4.87583
21
-1.57278
0
LINE
8
BLACK
6
CONTINUOUS
10
4.87583
20
-1.57278
11
4.8792
21
-1.57354
0
LINE
8
BLACK
6
CONTINUOUS
10
4.13819
20
-1.56988
11
4.14101
21
-1.57188
0
LINE
8
BLACK
6
CONTINUOUS
10
4.14101
20
-1.57188
11
4.14285
21
-1.5748
0
LINE
8
BLACK
6
CONTINUOUS
10
4.14285
20
-1.5748
11
4.1492
21
-1.59134
0
LINE
8
BLACK
6
CONTINUOUS
10
4.1492
20
-1.59134
11
4.14979
21
-1.59475
0
LINE
8
BLACK
6
CONTINUOUS
10
4.14979
20
-1.59475
11
4.14903
21
-1.59812
0
LINE
8
BLACK
6
CONTINUOUS
10
4.14903
20
-1.59812
11
4.14703
21
-1.60094
0
LINE
8
BLACK
6
CONTINUOUS
10
4.14703
20
-1.60094
11
4.14411
21
-1.60279
0
LINE
8
BLACK
6
CONTINUOUS
10
4.14411
20
-1.60279
11
4.12573
21
-1.60984
0
LINE
8
BLACK
6
CONTINUOUS
10
4.12573
20
-1.60984
11
4.12232
21
-1.61043
0
LINE
8
BLACK
6
CONTINUOUS
10
4.12232
20
-1.61043
11
4.11895
21
-1.60966
0
LINE
8
BLACK
6
CONTINUOUS
10
4.11895
20
-1.60966
11
4.11613
21
-1.60767
0
LINE
8
BLACK
6
CONTINUOUS
10
4.11613
20
-1.60767
11
4.11429
21
-1.60474
0
LINE
8
BLACK
6
CONTINUOUS
10
4.11429
20
-1.60474
11
4.10794
21
-1.5882
0
LINE
8
BLACK
6
CONTINUOUS
10
4.10794
20
-1.5882
11
4.10735
21
-1.5848
0
LINE
8
BLACK
6
CONTINUOUS
10
4.10735
20
-1.5848
11
4.10811
21
-1.58143
0
LINE
8
BLACK
6
CONTINUOUS
10
4.10811
20
-1.58143
11
4.11011
21
-1.5786
0
LINE
8
BLACK
6
CONTINUOUS
10
4.11011
20
-1.5786
11
4.11303
21
-1.57676
0
LINE
8
BLACK
6
CONTINUOUS
10
4.11303
20
-1.57676
11
4.13141
21
-1.56971
0
LINE
8
BLACK
6
CONTINUOUS
10
4.13141
20
-1.56971
11
4.13482
21
-1.56912
0
LINE
8
BLACK
6
CONTINUOUS
10
4.13482
20
-1.56912
11
4.13819
21
-1.56988
0
LINE
8
BLACK
6
CONTINUOUS
10
0.962598
20
-1.51043
11
0.883858
21
-1.51043
0
LINE
8
BLACK
6
CONTINUOUS
10
0.883858
20
-1.51043
11
0.883858
21
-1.43563
0
LINE
8
BLACK
6
CONTINUOUS
10
0.883858
20
-1.43563
11
0.962598
21
-1.43563
0
LINE
8
BLACK
6
CONTINUOUS
10
0.962598
20
-1.43563
11
0.962598
21
-1.51043
0
LINE
8
BLACK
6
CONTINUOUS
10
1.55315
20
-1.51043
11
1.47441
21
-1.51043
0
LINE
8
BLACK
6
CONTINUOUS
10
1.47441
20
-1.51043
11
1.47441
21
-1.43563
0
LINE
8
BLACK
6
CONTINUOUS
10
1.47441
20
-1.43563
11
1.55315
21
-1.43563
0
LINE
8
BLACK
6
CONTINUOUS
10
1.55315
20
-1.43563
11
1.55315
21
-1.51043
0
LINE
8
BLACK
6
CONTINUOUS
10
4.38819
20
-1.50632
11
4.39125
21
-1.50793
0
LINE
8
BLACK
6
CONTINUOUS
10
4.39125
20
-1.50793
11
4.39346
21
-1.51059
0
LINE
8
BLACK
6
CONTINUOUS
10
4.39346
20
-1.51059
11
4.39448
21
-1.51389
0
LINE
8
BLACK
6
CONTINUOUS
10
4.39448
20
-1.51389
11
4.39633
21
-1.53151
0
LINE
8
BLACK
6
CONTINUOUS
10
4.39633
20
-1.53151
11
4.39602
21
-1.53495
0
LINE
8
BLACK
6
CONTINUOUS
10
4.39602
20
-1.53495
11
4.39441
21
-1.53801
0
LINE
8
BLACK
6
CONTINUOUS
10
4.39441
20
-1.53801
11
4.39175
21
-1.54022
0
LINE
8
BLACK
6
CONTINUOUS
10
4.39175
20
-1.54022
11
4.38845
21
-1.54125
0
LINE
8
BLACK
6
CONTINUOUS
10
4.38845
20
-1.54125
11
4.36887
21
-1.5433
0
LINE
8
BLACK
6
CONTINUOUS
10
4.36887
20
-1.5433
11
4.36543
21
-1.54299
0
LINE
8
BLACK
6
CONTINUOUS
10
4.36543
20
-1.54299
11
4.36237
21
-1.54138
0
LINE
8
BLACK
6
CONTINUOUS
10
4.36237
20
-1.54138
11
4.36016
21
-1.53872
0
LINE
8
BLACK
6
CONTINUOUS
10
4.36016
20
-1.53872
11
4.35914
21
-1.53542
0
LINE
8
BLACK
6
CONTINUOUS
10
4.35914
20
-1.53542
11
4.35729
21
-1.5178
0
LINE
8
BLACK
6
CONTINUOUS
10
4.35729
20
-1.5178
11
4.3576
21
-1.51436
0
LINE
8
BLACK
6
CONTINUOUS
10
4.3576
20
-1.51436
11
4.35921
21
-1.5113
0
LINE
8
BLACK
6
CONTINUOUS
10
4.35921
20
-1.5113
11
4.36187
21
-1.50909
0
LINE
8
BLACK
6
CONTINUOUS
10
4.36187
20
-1.50909
11
4.36517
21
-1.50806
0
LINE
8
BLACK
6
CONTINUOUS
10
4.36517
20
-1.50806
11
4.38475
21
-1.50601
0
LINE
8
BLACK
6
CONTINUOUS
10
4.38475
20
-1.50601
11
4.38819
21
-1.50632
0
LINE
8
BLACK
6
CONTINUOUS
10
4.64594
20
-1.51005
11
4.64918
21
-1.51124
0
LINE
8
BLACK
6
CONTINUOUS
10
4.64918
20
-1.51124
11
4.65172
21
-1.51359
0
LINE
8
BLACK
6
CONTINUOUS
10
4.65172
20
-1.51359
11
4.65317
21
-1.51673
0
LINE
8
BLACK
6
CONTINUOUS
10
4.65317
20
-1.51673
11
4.6533
21
-1.52018
0
LINE
8
BLACK
6
CONTINUOUS
10
4.6533
20
-1.52018
11
4.65053
21
-1.53768
0
LINE
8
BLACK
6
CONTINUOUS
10
4.65053
20
-1.53768
11
4.64933
21
-1.54092
0
LINE
8
BLACK
6
CONTINUOUS
10
4.64933
20
-1.54092
11
4.64699
21
-1.54346
0
LINE
8
BLACK
6
CONTINUOUS
10
4.64699
20
-1.54346
11
4.64385
21
-1.54491
0
LINE
8
BLACK
6
CONTINUOUS
10
4.64385
20
-1.54491
11
4.6404
21
-1.54504
0
LINE
8
BLACK
6
CONTINUOUS
10
4.6404
20
-1.54504
11
4.62095
21
-1.54196
0
LINE
8
BLACK
6
CONTINUOUS
10
4.62095
20
-1.54196
11
4.61771
21
-1.54077
0
LINE
8
BLACK
6
CONTINUOUS
10
4.61771
20
-1.54077
11
4.61517
21
-1.53842
0
LINE
8
BLACK
6
CONTINUOUS
10
4.61517
20
-1.53842
11
4.61373
21
-1.53528
0
LINE
8
BLACK
6
CONTINUOUS
10
4.61373
20
-1.53528
11
4.61359
21
-1.53183
0
LINE
8
BLACK
6
CONTINUOUS
10
4.61359
20
-1.53183
11
4.61636
21
-1.51433
0
LINE
8
BLACK
6
CONTINUOUS
10
4.61636
20
-1.51433
11
4.61756
21
-1.51109
0
LINE
8
BLACK
6
CONTINUOUS
10
4.61756
20
-1.51109
11
4.6199
21
-1.50855
0
LINE
8
BLACK
6
CONTINUOUS
10
4.6199
20
-1.50855
11
4.62304
21
-1.5071
0
LINE
8
BLACK
6
CONTINUOUS
10
4.62304
20
-1.5071
11
4.6265
21
-1.50697
0
LINE
8
BLACK
6
CONTINUOUS
10
4.6265
20
-1.50697
11
4.64594
21
-1.51005
  0
ENDSEC
  0
EOF
