M48
; DRILL file {KiCad 7.0.2-0} date 2023 June 19, Monday 12:30:10
; FORMAT={-:-/ absolute / inch / decimal}
; #@! TF.CreationDate,2023-06-19T12:30:10-04:00
; #@! TF.GenerationSoftware,Kicad,Pcbnew,7.0.2-0
; #@! TF.FileFunction,Plated,1,2,PTH
FMAT,2
INCH
; #@! TA.AperFunction,Plated,PTH,ViaDrill
T1C0.0157
; #@! TA.AperFunction,Plated,PTH,ComponentDrill
T2C0.0394
; #@! TA.AperFunction,Plated,PTH,ComponentDrill
T3C0.0433
%
G90
G05
T1
X-3.76Y-1.19
X-3.32Y-0.21
X-3.32Y-0.87
X-3.3Y-0.8
X-3.22Y0.27
X-3.2Y-0.7
X-3.2Y-0.77
X-1.9Y0.2
X-1.9Y-1.41
X-1.8389Y0.457
X-1.75Y0.3
X-1.6Y-1.45
T2
X-3.0057Y0.405
X-3.0057Y0.305
X-3.0057Y0.205
X-3.0057Y0.105
X-3.0057Y0.005
X-3.0057Y-0.095
X-3.0057Y-0.195
X-3.0057Y-0.295
X-3.0057Y-0.395
X-1.95Y0.1
T3
X-2.7547Y0.9
X-2.7547Y0.8
X-2.7547Y0.7
X-2.7547Y0.6
X-2.7547Y0.5
X-2.7547Y0.4
X-2.7547Y0.3
X-2.7547Y0.2
X-2.7547Y0.1
X-2.7547Y0.0
X-2.7547Y-0.1
X-2.7547Y-0.2
X-2.7547Y-0.3
X-2.7547Y-0.4
X-2.1547Y0.9
X-2.1547Y0.8
X-2.1547Y0.7
X-2.1547Y0.6
X-2.1547Y0.5
X-2.1547Y0.4
X-2.1547Y0.3
X-2.1547Y0.2
X-2.1547Y0.1
X-2.1547Y0.0
X-2.1547Y-0.1
X-2.1547Y-0.2
X-2.1547Y-0.3
X-2.1547Y-0.4
T0
M30
