G04 #@! TF.GenerationSoftware,KiCad,Pcbnew,7.0.2-0*
G04 #@! TF.CreationDate,2023-06-19T12:30:15-04:00*
G04 #@! TF.ProjectId,speed_joystick,73706565-645f-46a6-9f79-737469636b2e,rev?*
G04 #@! TF.SameCoordinates,Original*
G04 #@! TF.FileFunction,Soldermask,Top*
G04 #@! TF.FilePolarity,Negative*
%FSLAX46Y46*%
G04 Gerber Fmt 4.6, Leading zero omitted, Abs format (unit mm)*
G04 Created by KiCad (PCBNEW 7.0.2-0) date 2023-06-19 12:30:15*
%MOMM*%
%LPD*%
G01*
G04 APERTURE LIST*
G04 #@! TA.AperFunction,Profile*
%ADD10C,0.010000*%
G04 #@! TD*
G04 APERTURE END LIST*
D10*
X-95270000Y-39090000D02*
X-92070000Y-39090000D01*
X-95270000Y-40540000D02*
X-95270000Y-39090000D01*
X-92070000Y-39090000D02*
X-92070000Y-40540000D01*
X-92070000Y-40540000D02*
X-95270000Y-40540000D01*
X-91770000Y-28040000D02*
X-88570000Y-28040000D01*
X-91770000Y-29490000D02*
X-91770000Y-28040000D01*
X-88570000Y-28040000D02*
X-88570000Y-29490000D01*
X-88570000Y-29490000D02*
X-91770000Y-29490000D01*
X-88270000Y-39090000D02*
X-88270000Y-40540000D01*
X-88270000Y-40540000D02*
X-85070000Y-40540000D01*
X-85070000Y-39090000D02*
X-88270000Y-39090000D01*
X-85070000Y-40540000D02*
X-85070000Y-39090000D01*
G36*
X-93125030Y-36495067D02*
G01*
X-93086447Y-36495067D01*
X-93042922Y-36504318D01*
X-92991983Y-36510058D01*
X-92954941Y-36523019D01*
X-92923003Y-36529808D01*
X-92876972Y-36550301D01*
X-92822893Y-36569225D01*
X-92794746Y-36586910D01*
X-92770342Y-36597776D01*
X-92724839Y-36630836D01*
X-92671208Y-36664535D01*
X-92651945Y-36683797D01*
X-92635156Y-36695996D01*
X-92593647Y-36742095D01*
X-92544535Y-36791208D01*
X-92533239Y-36809185D01*
X-92523343Y-36820176D01*
X-92489484Y-36878819D01*
X-92449225Y-36942893D01*
X-92444198Y-36957257D01*
X-92439792Y-36964890D01*
X-92417222Y-37034350D01*
X-92390058Y-37111983D01*
X-92389028Y-37121124D01*
X-92388154Y-37123814D01*
X-92380232Y-37199187D01*
X-92370000Y-37290000D01*
X-92380234Y-37380832D01*
X-92388154Y-37456185D01*
X-92389027Y-37458874D01*
X-92390058Y-37468017D01*
X-92417227Y-37545662D01*
X-92439792Y-37615109D01*
X-92444197Y-37622740D01*
X-92449225Y-37637107D01*
X-92489491Y-37701191D01*
X-92523343Y-37759823D01*
X-92533236Y-37770811D01*
X-92544535Y-37788792D01*
X-92593656Y-37837913D01*
X-92635156Y-37884003D01*
X-92651941Y-37896198D01*
X-92671208Y-37915465D01*
X-92724849Y-37949169D01*
X-92770342Y-37982223D01*
X-92794741Y-37993086D01*
X-92822893Y-38010775D01*
X-92876982Y-38029701D01*
X-92923003Y-38050191D01*
X-92954936Y-38056978D01*
X-92991983Y-38069942D01*
X-93042924Y-38075681D01*
X-93086447Y-38084933D01*
X-93125030Y-38084933D01*
X-93170000Y-38090000D01*
X-93214970Y-38084933D01*
X-93253553Y-38084933D01*
X-93297074Y-38075681D01*
X-93348017Y-38069942D01*
X-93385065Y-38056978D01*
X-93416996Y-38050191D01*
X-93463012Y-38029703D01*
X-93517107Y-38010775D01*
X-93545261Y-37993084D01*
X-93569657Y-37982223D01*
X-93615143Y-37949174D01*
X-93668792Y-37915465D01*
X-93688060Y-37896196D01*
X-93704843Y-37884003D01*
X-93746333Y-37837923D01*
X-93795465Y-37788792D01*
X-93806765Y-37770807D01*
X-93816656Y-37759823D01*
X-93850495Y-37701210D01*
X-93890775Y-37637107D01*
X-93895803Y-37622735D01*
X-93900207Y-37615109D01*
X-93922758Y-37545702D01*
X-93949942Y-37468017D01*
X-93950972Y-37458869D01*
X-93951845Y-37456185D01*
X-93959750Y-37380964D01*
X-93970000Y-37290000D01*
X-93959752Y-37199055D01*
X-93951845Y-37123814D01*
X-93950972Y-37121128D01*
X-93949942Y-37111983D01*
X-93922763Y-37034310D01*
X-93900207Y-36964890D01*
X-93895802Y-36957261D01*
X-93890775Y-36942893D01*
X-93850502Y-36878800D01*
X-93816656Y-36820176D01*
X-93806763Y-36809189D01*
X-93795465Y-36791208D01*
X-93746342Y-36742085D01*
X-93704843Y-36695996D01*
X-93688057Y-36683800D01*
X-93668792Y-36664535D01*
X-93615147Y-36630827D01*
X-93569653Y-36597774D01*
X-93545253Y-36586910D01*
X-93517107Y-36569225D01*
X-93463032Y-36550303D01*
X-93417001Y-36529809D01*
X-93385058Y-36523019D01*
X-93348017Y-36510058D01*
X-93297077Y-36504318D01*
X-93253553Y-36495067D01*
X-93214970Y-36495067D01*
X-93170000Y-36490000D01*
X-93125030Y-36495067D01*
G37*
G36*
X-81650483Y-37292882D02*
G01*
X-81633938Y-37303938D01*
X-81622882Y-37320483D01*
X-81619000Y-37340000D01*
X-81619000Y-39240000D01*
X-81622882Y-39259517D01*
X-81633938Y-39276062D01*
X-81650483Y-39287118D01*
X-81670000Y-39291000D01*
X-83670000Y-39291000D01*
X-83689517Y-39287118D01*
X-83706062Y-39276062D01*
X-83717118Y-39259517D01*
X-83721000Y-39240000D01*
X-83721000Y-37340000D01*
X-83717118Y-37320483D01*
X-83706062Y-37303938D01*
X-83689517Y-37292882D01*
X-83670000Y-37289000D01*
X-81670000Y-37289000D01*
X-81650483Y-37292882D01*
G37*
G36*
X-47510483Y-38180382D02*
G01*
X-47493938Y-38191438D01*
X-47482882Y-38207983D01*
X-47479000Y-38227500D01*
X-47479000Y-46227500D01*
X-47482882Y-46247017D01*
X-47493938Y-46263562D01*
X-47510483Y-46274618D01*
X-47530000Y-46278500D01*
X-49230000Y-46278500D01*
X-49249517Y-46274618D01*
X-49266062Y-46263562D01*
X-49277118Y-46247017D01*
X-49281000Y-46227500D01*
X-49281000Y-38227500D01*
X-49277118Y-38207983D01*
X-49266062Y-38191438D01*
X-49249517Y-38180382D01*
X-49230000Y-38176500D01*
X-47530000Y-38176500D01*
X-47510483Y-38180382D01*
G37*
G36*
X-44970483Y-38180382D02*
G01*
X-44953938Y-38191438D01*
X-44942882Y-38207983D01*
X-44939000Y-38227500D01*
X-44939000Y-46227500D01*
X-44942882Y-46247017D01*
X-44953938Y-46263562D01*
X-44970483Y-46274618D01*
X-44990000Y-46278500D01*
X-46690000Y-46278500D01*
X-46709517Y-46274618D01*
X-46726062Y-46263562D01*
X-46737118Y-46247017D01*
X-46741000Y-46227500D01*
X-46741000Y-38227500D01*
X-46737118Y-38207983D01*
X-46726062Y-38191438D01*
X-46709517Y-38180382D01*
X-46690000Y-38176500D01*
X-44990000Y-38176500D01*
X-44970483Y-38180382D01*
G37*
G36*
X-42430483Y-38180382D02*
G01*
X-42413938Y-38191438D01*
X-42402882Y-38207983D01*
X-42399000Y-38227500D01*
X-42399000Y-46227500D01*
X-42402882Y-46247017D01*
X-42413938Y-46263562D01*
X-42430483Y-46274618D01*
X-42450000Y-46278500D01*
X-44150000Y-46278500D01*
X-44169517Y-46274618D01*
X-44186062Y-46263562D01*
X-44197118Y-46247017D01*
X-44201000Y-46227500D01*
X-44201000Y-38227500D01*
X-44197118Y-38207983D01*
X-44186062Y-38191438D01*
X-44169517Y-38180382D01*
X-44150000Y-38176500D01*
X-42450000Y-38176500D01*
X-42430483Y-38180382D01*
G37*
G36*
X-39890483Y-38180382D02*
G01*
X-39873938Y-38191438D01*
X-39862882Y-38207983D01*
X-39859000Y-38227500D01*
X-39859000Y-46227500D01*
X-39862882Y-46247017D01*
X-39873938Y-46263562D01*
X-39890483Y-46274618D01*
X-39910000Y-46278500D01*
X-41610000Y-46278500D01*
X-41629517Y-46274618D01*
X-41646062Y-46263562D01*
X-41657118Y-46247017D01*
X-41661000Y-46227500D01*
X-41661000Y-38227500D01*
X-41657118Y-38207983D01*
X-41646062Y-38191438D01*
X-41629517Y-38180382D01*
X-41610000Y-38176500D01*
X-39910000Y-38176500D01*
X-39890483Y-38180382D01*
G37*
G36*
X-96650483Y-37292882D02*
G01*
X-96633938Y-37303938D01*
X-96622882Y-37320483D01*
X-96619000Y-37340000D01*
X-96619000Y-39240000D01*
X-96622882Y-39259517D01*
X-96633938Y-39276062D01*
X-96650483Y-39287118D01*
X-96670000Y-39291000D01*
X-98670000Y-39291000D01*
X-98689517Y-39287118D01*
X-98706062Y-39276062D01*
X-98717118Y-39259517D01*
X-98721000Y-39240000D01*
X-98721000Y-37340000D01*
X-98717118Y-37320483D01*
X-98706062Y-37303938D01*
X-98689517Y-37292882D01*
X-98670000Y-37289000D01*
X-96670000Y-37289000D01*
X-96650483Y-37292882D01*
G37*
G36*
X-40613324Y-36383591D02*
G01*
X-40575816Y-36383591D01*
X-40545329Y-36392542D01*
X-40523549Y-36395410D01*
X-40494292Y-36407528D01*
X-40452648Y-36419756D01*
X-40430666Y-36433882D01*
X-40415038Y-36440356D01*
X-40386398Y-36462331D01*
X-40344658Y-36489157D01*
X-40331202Y-36504686D01*
X-40321858Y-36511856D01*
X-40297633Y-36543426D01*
X-40260595Y-36586171D01*
X-40254362Y-36599818D01*
X-40250356Y-36605040D01*
X-40234537Y-36643228D01*
X-40207269Y-36702939D01*
X-40205920Y-36712315D01*
X-40205410Y-36713549D01*
X-40201790Y-36741042D01*
X-40189000Y-36830000D01*
X-40201791Y-36918965D01*
X-40205410Y-36946450D01*
X-40205920Y-36947682D01*
X-40207269Y-36957061D01*
X-40234536Y-37016768D01*
X-40250356Y-37054961D01*
X-40254363Y-37060183D01*
X-40260595Y-37073829D01*
X-40297634Y-37116574D01*
X-40321857Y-37148142D01*
X-40331198Y-37155310D01*
X-40344658Y-37170843D01*
X-40386407Y-37197673D01*
X-40415038Y-37219643D01*
X-40430662Y-37226114D01*
X-40452648Y-37240244D01*
X-40494301Y-37252474D01*
X-40523549Y-37264589D01*
X-40545323Y-37267455D01*
X-40575816Y-37276409D01*
X-40613331Y-37276409D01*
X-40640000Y-37279920D01*
X-40666669Y-37276409D01*
X-40704184Y-37276409D01*
X-40734677Y-37267455D01*
X-40756450Y-37264589D01*
X-40785695Y-37252475D01*
X-40827352Y-37240244D01*
X-40849339Y-37226113D01*
X-40864961Y-37219643D01*
X-40893586Y-37197677D01*
X-40935342Y-37170843D01*
X-40948803Y-37155308D01*
X-40958142Y-37148142D01*
X-40982356Y-37116584D01*
X-41019405Y-37073829D01*
X-41025638Y-37060180D01*
X-41029643Y-37054961D01*
X-41045452Y-37016791D01*
X-41072731Y-36957061D01*
X-41074079Y-36947678D01*
X-41074589Y-36946450D01*
X-41078196Y-36919048D01*
X-41091000Y-36830000D01*
X-41078197Y-36740960D01*
X-41074589Y-36713549D01*
X-41074079Y-36712319D01*
X-41072731Y-36702939D01*
X-41045451Y-36643205D01*
X-41029643Y-36605040D01*
X-41025639Y-36599822D01*
X-41019405Y-36586171D01*
X-40982359Y-36543417D01*
X-40958142Y-36511857D01*
X-40948800Y-36504689D01*
X-40935342Y-36489157D01*
X-40893586Y-36462322D01*
X-40864959Y-36440356D01*
X-40849338Y-36433885D01*
X-40827352Y-36419756D01*
X-40785701Y-36407526D01*
X-40756450Y-36395410D01*
X-40734671Y-36392542D01*
X-40704184Y-36383591D01*
X-40666676Y-36383591D01*
X-40640000Y-36380079D01*
X-40613324Y-36383591D01*
G37*
G36*
X-48233324Y-35367591D02*
G01*
X-48195816Y-35367591D01*
X-48165329Y-35376542D01*
X-48143549Y-35379410D01*
X-48114292Y-35391528D01*
X-48072648Y-35403756D01*
X-48050666Y-35417882D01*
X-48035038Y-35424356D01*
X-48006398Y-35446331D01*
X-47964658Y-35473157D01*
X-47951202Y-35488686D01*
X-47941858Y-35495856D01*
X-47917633Y-35527426D01*
X-47880595Y-35570171D01*
X-47874362Y-35583818D01*
X-47870356Y-35589040D01*
X-47854537Y-35627228D01*
X-47827269Y-35686939D01*
X-47825920Y-35696315D01*
X-47825410Y-35697549D01*
X-47821790Y-35725042D01*
X-47809000Y-35814000D01*
X-47821791Y-35902965D01*
X-47825410Y-35930450D01*
X-47825920Y-35931682D01*
X-47827269Y-35941061D01*
X-47854536Y-36000768D01*
X-47870356Y-36038961D01*
X-47874363Y-36044183D01*
X-47880595Y-36057829D01*
X-47917634Y-36100574D01*
X-47941857Y-36132142D01*
X-47951198Y-36139310D01*
X-47964658Y-36154843D01*
X-48006407Y-36181673D01*
X-48035038Y-36203643D01*
X-48050662Y-36210114D01*
X-48072648Y-36224244D01*
X-48114301Y-36236474D01*
X-48143549Y-36248589D01*
X-48165323Y-36251455D01*
X-48195816Y-36260409D01*
X-48233331Y-36260409D01*
X-48260000Y-36263920D01*
X-48286669Y-36260409D01*
X-48324184Y-36260409D01*
X-48354677Y-36251455D01*
X-48376450Y-36248589D01*
X-48405695Y-36236475D01*
X-48447352Y-36224244D01*
X-48469339Y-36210113D01*
X-48484961Y-36203643D01*
X-48513586Y-36181677D01*
X-48555342Y-36154843D01*
X-48568803Y-36139308D01*
X-48578142Y-36132142D01*
X-48602356Y-36100584D01*
X-48639405Y-36057829D01*
X-48645638Y-36044180D01*
X-48649643Y-36038961D01*
X-48665452Y-36000791D01*
X-48692731Y-35941061D01*
X-48694079Y-35931678D01*
X-48694589Y-35930450D01*
X-48698196Y-35903048D01*
X-48711000Y-35814000D01*
X-48698197Y-35724960D01*
X-48694589Y-35697549D01*
X-48694079Y-35696319D01*
X-48692731Y-35686939D01*
X-48665451Y-35627205D01*
X-48649643Y-35589040D01*
X-48645639Y-35583822D01*
X-48639405Y-35570171D01*
X-48602359Y-35527417D01*
X-48578142Y-35495857D01*
X-48568800Y-35488689D01*
X-48555342Y-35473157D01*
X-48513586Y-35446322D01*
X-48484959Y-35424356D01*
X-48469338Y-35417885D01*
X-48447352Y-35403756D01*
X-48405701Y-35391526D01*
X-48376450Y-35379410D01*
X-48354671Y-35376542D01*
X-48324184Y-35367591D01*
X-48286676Y-35367591D01*
X-48260000Y-35364079D01*
X-48233324Y-35367591D01*
G37*
G36*
X-96650483Y-33292882D02*
G01*
X-96633938Y-33303938D01*
X-96622882Y-33320483D01*
X-96619000Y-33340000D01*
X-96619000Y-35240000D01*
X-96622882Y-35259517D01*
X-96633938Y-35276062D01*
X-96650483Y-35287118D01*
X-96670000Y-35291000D01*
X-98670000Y-35291000D01*
X-98689517Y-35287118D01*
X-98706062Y-35276062D01*
X-98717118Y-35259517D01*
X-98721000Y-35240000D01*
X-98721000Y-33340000D01*
X-98717118Y-33320483D01*
X-98706062Y-33303938D01*
X-98689517Y-33292882D01*
X-98670000Y-33289000D01*
X-96670000Y-33289000D01*
X-96650483Y-33292882D01*
G37*
G36*
X-81650483Y-33292882D02*
G01*
X-81633938Y-33303938D01*
X-81622882Y-33320483D01*
X-81619000Y-33340000D01*
X-81619000Y-35240000D01*
X-81622882Y-35259517D01*
X-81633938Y-35276062D01*
X-81650483Y-35287118D01*
X-81670000Y-35291000D01*
X-83670000Y-35291000D01*
X-83689517Y-35287118D01*
X-83706062Y-35276062D01*
X-83717118Y-35259517D01*
X-83721000Y-35240000D01*
X-83721000Y-33340000D01*
X-83717118Y-33320483D01*
X-83706062Y-33303938D01*
X-83689517Y-33292882D01*
X-83670000Y-33289000D01*
X-81670000Y-33289000D01*
X-81650483Y-33292882D01*
G37*
G36*
X-96650483Y-29292882D02*
G01*
X-96633938Y-29303938D01*
X-96622882Y-29320483D01*
X-96619000Y-29340000D01*
X-96619000Y-31240000D01*
X-96622882Y-31259517D01*
X-96633938Y-31276062D01*
X-96650483Y-31287118D01*
X-96670000Y-31291000D01*
X-98670000Y-31291000D01*
X-98689517Y-31287118D01*
X-98706062Y-31276062D01*
X-98717118Y-31259517D01*
X-98721000Y-31240000D01*
X-98721000Y-29340000D01*
X-98717118Y-29320483D01*
X-98706062Y-29303938D01*
X-98689517Y-29292882D01*
X-98670000Y-29289000D01*
X-96670000Y-29289000D01*
X-96650483Y-29292882D01*
G37*
G36*
X-95477324Y-29779591D02*
G01*
X-95439816Y-29779591D01*
X-95409329Y-29788542D01*
X-95387549Y-29791410D01*
X-95358292Y-29803528D01*
X-95316648Y-29815756D01*
X-95294666Y-29829882D01*
X-95279038Y-29836356D01*
X-95250398Y-29858331D01*
X-95208658Y-29885157D01*
X-95195202Y-29900686D01*
X-95185858Y-29907856D01*
X-95161633Y-29939426D01*
X-95124595Y-29982171D01*
X-95118362Y-29995818D01*
X-95114356Y-30001040D01*
X-95098537Y-30039228D01*
X-95071269Y-30098939D01*
X-95069920Y-30108315D01*
X-95069410Y-30109549D01*
X-95065790Y-30137042D01*
X-95053000Y-30226000D01*
X-95065791Y-30314965D01*
X-95069410Y-30342450D01*
X-95069920Y-30343682D01*
X-95071269Y-30353061D01*
X-95098536Y-30412768D01*
X-95114356Y-30450961D01*
X-95118363Y-30456183D01*
X-95124595Y-30469829D01*
X-95161634Y-30512574D01*
X-95185857Y-30544142D01*
X-95195198Y-30551310D01*
X-95208658Y-30566843D01*
X-95250407Y-30593673D01*
X-95279038Y-30615643D01*
X-95294662Y-30622114D01*
X-95316648Y-30636244D01*
X-95358301Y-30648474D01*
X-95387549Y-30660589D01*
X-95409323Y-30663455D01*
X-95439816Y-30672409D01*
X-95477331Y-30672409D01*
X-95504000Y-30675920D01*
X-95530669Y-30672409D01*
X-95568184Y-30672409D01*
X-95598677Y-30663455D01*
X-95620450Y-30660589D01*
X-95649695Y-30648475D01*
X-95691352Y-30636244D01*
X-95713339Y-30622113D01*
X-95728961Y-30615643D01*
X-95757586Y-30593677D01*
X-95799342Y-30566843D01*
X-95812803Y-30551308D01*
X-95822142Y-30544142D01*
X-95846356Y-30512584D01*
X-95883405Y-30469829D01*
X-95889638Y-30456180D01*
X-95893643Y-30450961D01*
X-95909452Y-30412791D01*
X-95936731Y-30353061D01*
X-95938079Y-30343678D01*
X-95938589Y-30342450D01*
X-95942196Y-30315048D01*
X-95955000Y-30226000D01*
X-95942197Y-30136960D01*
X-95938589Y-30109549D01*
X-95938079Y-30108319D01*
X-95936731Y-30098939D01*
X-95909451Y-30039205D01*
X-95893643Y-30001040D01*
X-95889639Y-29995822D01*
X-95883405Y-29982171D01*
X-95846359Y-29939417D01*
X-95822142Y-29907857D01*
X-95812800Y-29900689D01*
X-95799342Y-29885157D01*
X-95757586Y-29858322D01*
X-95728959Y-29836356D01*
X-95713338Y-29829885D01*
X-95691352Y-29815756D01*
X-95649701Y-29803526D01*
X-95620450Y-29791410D01*
X-95598671Y-29788542D01*
X-95568184Y-29779591D01*
X-95530676Y-29779591D01*
X-95504000Y-29776079D01*
X-95477324Y-29779591D01*
G37*
G36*
X-87125030Y-30495067D02*
G01*
X-87086447Y-30495067D01*
X-87042922Y-30504318D01*
X-86991983Y-30510058D01*
X-86954941Y-30523019D01*
X-86923003Y-30529808D01*
X-86876972Y-30550301D01*
X-86822893Y-30569225D01*
X-86794746Y-30586910D01*
X-86770342Y-30597776D01*
X-86724839Y-30630836D01*
X-86671208Y-30664535D01*
X-86651945Y-30683797D01*
X-86635156Y-30695996D01*
X-86593647Y-30742095D01*
X-86544535Y-30791208D01*
X-86533239Y-30809185D01*
X-86523343Y-30820176D01*
X-86489484Y-30878819D01*
X-86449225Y-30942893D01*
X-86444198Y-30957257D01*
X-86439792Y-30964890D01*
X-86417222Y-31034350D01*
X-86390058Y-31111983D01*
X-86389028Y-31121124D01*
X-86388154Y-31123814D01*
X-86380232Y-31199181D01*
X-86370000Y-31290000D01*
X-86380233Y-31380826D01*
X-86388154Y-31456185D01*
X-86389027Y-31458874D01*
X-86390058Y-31468017D01*
X-86417227Y-31545662D01*
X-86439792Y-31615109D01*
X-86444197Y-31622740D01*
X-86449225Y-31637107D01*
X-86489491Y-31701191D01*
X-86523343Y-31759823D01*
X-86533236Y-31770811D01*
X-86544535Y-31788792D01*
X-86593656Y-31837913D01*
X-86635156Y-31884003D01*
X-86651941Y-31896198D01*
X-86671208Y-31915465D01*
X-86724849Y-31949169D01*
X-86770342Y-31982223D01*
X-86794741Y-31993086D01*
X-86822893Y-32010775D01*
X-86876982Y-32029701D01*
X-86923003Y-32050191D01*
X-86954936Y-32056978D01*
X-86991983Y-32069942D01*
X-87042924Y-32075681D01*
X-87086447Y-32084933D01*
X-87125030Y-32084933D01*
X-87170000Y-32090000D01*
X-87214970Y-32084933D01*
X-87253553Y-32084933D01*
X-87297074Y-32075681D01*
X-87348017Y-32069942D01*
X-87385065Y-32056978D01*
X-87416996Y-32050191D01*
X-87463012Y-32029703D01*
X-87517107Y-32010775D01*
X-87545261Y-31993084D01*
X-87569657Y-31982223D01*
X-87615143Y-31949174D01*
X-87668792Y-31915465D01*
X-87688060Y-31896196D01*
X-87704843Y-31884003D01*
X-87746333Y-31837923D01*
X-87795465Y-31788792D01*
X-87806765Y-31770807D01*
X-87816656Y-31759823D01*
X-87850495Y-31701210D01*
X-87890775Y-31637107D01*
X-87895803Y-31622735D01*
X-87900207Y-31615109D01*
X-87922758Y-31545702D01*
X-87949942Y-31468017D01*
X-87950972Y-31458869D01*
X-87951845Y-31456185D01*
X-87959750Y-31380964D01*
X-87970000Y-31290000D01*
X-87959752Y-31199055D01*
X-87951845Y-31123814D01*
X-87950972Y-31121128D01*
X-87949942Y-31111983D01*
X-87922763Y-31034310D01*
X-87900207Y-30964890D01*
X-87895802Y-30957261D01*
X-87890775Y-30942893D01*
X-87850502Y-30878800D01*
X-87816656Y-30820176D01*
X-87806763Y-30809189D01*
X-87795465Y-30791208D01*
X-87746342Y-30742085D01*
X-87704843Y-30695996D01*
X-87688057Y-30683800D01*
X-87668792Y-30664535D01*
X-87615147Y-30630827D01*
X-87569653Y-30597774D01*
X-87545253Y-30586910D01*
X-87517107Y-30569225D01*
X-87463032Y-30550303D01*
X-87417001Y-30529809D01*
X-87385058Y-30523019D01*
X-87348017Y-30510058D01*
X-87297077Y-30504318D01*
X-87253553Y-30495067D01*
X-87214970Y-30495067D01*
X-87170000Y-30490000D01*
X-87125030Y-30495067D01*
G37*
G36*
X-81650483Y-29292882D02*
G01*
X-81633938Y-29303938D01*
X-81622882Y-29320483D01*
X-81619000Y-29340000D01*
X-81619000Y-31240000D01*
X-81622882Y-31259517D01*
X-81633938Y-31276062D01*
X-81650483Y-31287118D01*
X-81670000Y-31291000D01*
X-83670000Y-31291000D01*
X-83689517Y-31287118D01*
X-83706062Y-31276062D01*
X-83717118Y-31259517D01*
X-83721000Y-31240000D01*
X-83721000Y-29340000D01*
X-83717118Y-29320483D01*
X-83706062Y-29303938D01*
X-83689517Y-29292882D01*
X-83670000Y-29289000D01*
X-81670000Y-29289000D01*
X-81650483Y-29292882D01*
G37*
G36*
X-96458719Y-23042823D02*
G01*
X-96400459Y-23042823D01*
X-96336792Y-23052418D01*
X-96269705Y-23057699D01*
X-96215632Y-23070680D01*
X-96164046Y-23078456D01*
X-96096636Y-23099249D01*
X-96025573Y-23116310D01*
X-95979622Y-23135343D01*
X-95935579Y-23148929D01*
X-95866431Y-23182228D01*
X-95793615Y-23212390D01*
X-95756238Y-23235294D01*
X-95720174Y-23252662D01*
X-95651573Y-23299433D01*
X-95579544Y-23343573D01*
X-95550700Y-23368207D01*
X-95522637Y-23387341D01*
X-95457116Y-23448135D01*
X-95388629Y-23506629D01*
X-95367830Y-23530981D01*
X-95347373Y-23549963D01*
X-95287557Y-23624969D01*
X-95225573Y-23697544D01*
X-95211941Y-23719787D01*
X-95198305Y-23736888D01*
X-95146876Y-23825964D01*
X-95094390Y-23911615D01*
X-95086680Y-23930228D01*
X-95078766Y-23943936D01*
X-95038400Y-24046785D01*
X-94998310Y-24143573D01*
X-94994994Y-24157382D01*
X-94991419Y-24166493D01*
X-94964636Y-24283833D01*
X-94939699Y-24387705D01*
X-94939052Y-24395923D01*
X-94938216Y-24399587D01*
X-94927314Y-24545061D01*
X-94920000Y-24638000D01*
X-94927315Y-24730946D01*
X-94938216Y-24876412D01*
X-94939052Y-24880074D01*
X-94939699Y-24888295D01*
X-94964641Y-24992186D01*
X-94991419Y-25109506D01*
X-94994994Y-25118615D01*
X-94998310Y-25132427D01*
X-95038408Y-25229232D01*
X-95078766Y-25332063D01*
X-95086678Y-25345768D01*
X-95094390Y-25364385D01*
X-95146886Y-25450052D01*
X-95198305Y-25539111D01*
X-95211939Y-25556207D01*
X-95225573Y-25578456D01*
X-95287569Y-25651045D01*
X-95347373Y-25726036D01*
X-95367826Y-25745013D01*
X-95388629Y-25769371D01*
X-95457129Y-25827875D01*
X-95522637Y-25888658D01*
X-95550694Y-25907787D01*
X-95579544Y-25932427D01*
X-95651587Y-25976575D01*
X-95720174Y-26023337D01*
X-95756231Y-26040701D01*
X-95793615Y-26063610D01*
X-95866446Y-26093777D01*
X-95935579Y-26127070D01*
X-95979612Y-26140652D01*
X-96025573Y-26159690D01*
X-96096651Y-26176754D01*
X-96164046Y-26197543D01*
X-96215623Y-26205317D01*
X-96269705Y-26218301D01*
X-96336796Y-26223581D01*
X-96400459Y-26233177D01*
X-96458719Y-26233177D01*
X-96520000Y-26238000D01*
X-96581281Y-26233177D01*
X-96639541Y-26233177D01*
X-96703202Y-26223581D01*
X-96770295Y-26218301D01*
X-96824377Y-26205316D01*
X-96875953Y-26197543D01*
X-96943344Y-26176755D01*
X-97014427Y-26159690D01*
X-97060390Y-26140651D01*
X-97104420Y-26127070D01*
X-97173543Y-26093781D01*
X-97246385Y-26063610D01*
X-97283775Y-26040696D01*
X-97319824Y-26023337D01*
X-97388395Y-25976585D01*
X-97460456Y-25932427D01*
X-97489309Y-25907783D01*
X-97517362Y-25888658D01*
X-97582857Y-25827886D01*
X-97651371Y-25769371D01*
X-97672177Y-25745009D01*
X-97692626Y-25726036D01*
X-97752415Y-25651062D01*
X-97814427Y-25578456D01*
X-97828064Y-25556202D01*
X-97841694Y-25539111D01*
X-97893095Y-25450080D01*
X-97945610Y-25364385D01*
X-97953323Y-25345762D01*
X-97961233Y-25332063D01*
X-98001572Y-25229278D01*
X-98041690Y-25132427D01*
X-98045007Y-25118608D01*
X-98048580Y-25109506D01*
X-98075338Y-24992270D01*
X-98100301Y-24888295D01*
X-98100948Y-24880068D01*
X-98101783Y-24876412D01*
X-98112663Y-24731211D01*
X-98120000Y-24638000D01*
X-98112664Y-24544796D01*
X-98101783Y-24399587D01*
X-98100948Y-24395930D01*
X-98100301Y-24387705D01*
X-98075343Y-24283748D01*
X-98048580Y-24166493D01*
X-98045006Y-24157388D01*
X-98041690Y-24143573D01*
X-98001580Y-24046739D01*
X-97961233Y-23943936D01*
X-97953322Y-23930234D01*
X-97945610Y-23911615D01*
X-97893105Y-23825936D01*
X-97841694Y-23736888D01*
X-97828061Y-23719793D01*
X-97814427Y-23697544D01*
X-97752427Y-23624951D01*
X-97692626Y-23549963D01*
X-97672173Y-23530985D01*
X-97651371Y-23506629D01*
X-97582871Y-23448124D01*
X-97517362Y-23387341D01*
X-97489304Y-23368211D01*
X-97460456Y-23343573D01*
X-97388410Y-23299423D01*
X-97319824Y-23252662D01*
X-97283768Y-23235298D01*
X-97246385Y-23212390D01*
X-97173558Y-23182224D01*
X-97104420Y-23148929D01*
X-97060380Y-23135344D01*
X-97014427Y-23116310D01*
X-96943358Y-23099247D01*
X-96875953Y-23078456D01*
X-96824369Y-23070681D01*
X-96770295Y-23057699D01*
X-96703206Y-23052418D01*
X-96639541Y-23042823D01*
X-96581281Y-23042823D01*
X-96520000Y-23038000D01*
X-96458719Y-23042823D01*
G37*
G36*
X-87298586Y-21926995D02*
G01*
X-87282774Y-21933976D01*
X-87274968Y-21935213D01*
X-87242453Y-21951780D01*
X-87197394Y-21971676D01*
X-87119176Y-22049894D01*
X-87099280Y-22094953D01*
X-87082713Y-22127468D01*
X-87081476Y-22135274D01*
X-87074495Y-22151086D01*
X-87066500Y-22220000D01*
X-87066500Y-23120000D01*
X-87074495Y-23188914D01*
X-87081476Y-23204726D01*
X-87082713Y-23212531D01*
X-87099276Y-23245039D01*
X-87119176Y-23290106D01*
X-87197394Y-23368324D01*
X-87242467Y-23388226D01*
X-87274968Y-23404786D01*
X-87282770Y-23406021D01*
X-87298586Y-23413005D01*
X-87367500Y-23421000D01*
X-87892500Y-23421000D01*
X-87961414Y-23413005D01*
X-87977229Y-23406021D01*
X-87985031Y-23404786D01*
X-88017524Y-23388229D01*
X-88062606Y-23368324D01*
X-88140824Y-23290106D01*
X-88160729Y-23245024D01*
X-88177286Y-23212531D01*
X-88178521Y-23204729D01*
X-88185505Y-23188914D01*
X-88193500Y-23120000D01*
X-88193500Y-22220000D01*
X-88185505Y-22151086D01*
X-88178521Y-22135270D01*
X-88177286Y-22127468D01*
X-88160726Y-22094967D01*
X-88140824Y-22049894D01*
X-88062606Y-21971676D01*
X-88017539Y-21951776D01*
X-87985031Y-21935213D01*
X-87977226Y-21933976D01*
X-87961414Y-21926995D01*
X-87892500Y-21919000D01*
X-87367500Y-21919000D01*
X-87298586Y-21926995D01*
G37*
G36*
X-85473586Y-21926995D02*
G01*
X-85457774Y-21933976D01*
X-85449968Y-21935213D01*
X-85417453Y-21951780D01*
X-85372394Y-21971676D01*
X-85294176Y-22049894D01*
X-85274280Y-22094953D01*
X-85257713Y-22127468D01*
X-85256476Y-22135274D01*
X-85249495Y-22151086D01*
X-85241500Y-22220000D01*
X-85241500Y-23120000D01*
X-85249495Y-23188914D01*
X-85256476Y-23204726D01*
X-85257713Y-23212531D01*
X-85274276Y-23245039D01*
X-85294176Y-23290106D01*
X-85372394Y-23368324D01*
X-85417467Y-23388226D01*
X-85449968Y-23404786D01*
X-85457770Y-23406021D01*
X-85473586Y-23413005D01*
X-85542500Y-23421000D01*
X-86067500Y-23421000D01*
X-86136414Y-23413005D01*
X-86152229Y-23406021D01*
X-86160031Y-23404786D01*
X-86192524Y-23388229D01*
X-86237606Y-23368324D01*
X-86315824Y-23290106D01*
X-86335729Y-23245024D01*
X-86352286Y-23212531D01*
X-86353521Y-23204729D01*
X-86360505Y-23188914D01*
X-86368500Y-23120000D01*
X-86368500Y-22220000D01*
X-86360505Y-22151086D01*
X-86353521Y-22135270D01*
X-86352286Y-22127468D01*
X-86335726Y-22094967D01*
X-86315824Y-22049894D01*
X-86237606Y-21971676D01*
X-86192539Y-21951776D01*
X-86160031Y-21935213D01*
X-86152226Y-21933976D01*
X-86136414Y-21926995D01*
X-86067500Y-21919000D01*
X-85542500Y-21919000D01*
X-85473586Y-21926995D01*
G37*
G36*
X-45658719Y-23042823D02*
G01*
X-45600459Y-23042823D01*
X-45536792Y-23052418D01*
X-45469705Y-23057699D01*
X-45415632Y-23070680D01*
X-45364046Y-23078456D01*
X-45296636Y-23099249D01*
X-45225573Y-23116310D01*
X-45179622Y-23135343D01*
X-45135579Y-23148929D01*
X-45066431Y-23182228D01*
X-44993615Y-23212390D01*
X-44956238Y-23235294D01*
X-44920174Y-23252662D01*
X-44851573Y-23299433D01*
X-44779544Y-23343573D01*
X-44750700Y-23368207D01*
X-44722637Y-23387341D01*
X-44657116Y-23448135D01*
X-44588629Y-23506629D01*
X-44567830Y-23530981D01*
X-44547373Y-23549963D01*
X-44487557Y-23624969D01*
X-44425573Y-23697544D01*
X-44411941Y-23719787D01*
X-44398305Y-23736888D01*
X-44346876Y-23825964D01*
X-44294390Y-23911615D01*
X-44286680Y-23930228D01*
X-44278766Y-23943936D01*
X-44238400Y-24046785D01*
X-44198310Y-24143573D01*
X-44194994Y-24157382D01*
X-44191419Y-24166493D01*
X-44164636Y-24283833D01*
X-44139699Y-24387705D01*
X-44139052Y-24395923D01*
X-44138216Y-24399587D01*
X-44127313Y-24545073D01*
X-44120000Y-24638000D01*
X-44127316Y-24730958D01*
X-44138216Y-24876412D01*
X-44139052Y-24880074D01*
X-44139699Y-24888295D01*
X-44164641Y-24992186D01*
X-44191419Y-25109506D01*
X-44194994Y-25118615D01*
X-44198310Y-25132427D01*
X-44238408Y-25229232D01*
X-44278766Y-25332063D01*
X-44286678Y-25345768D01*
X-44294390Y-25364385D01*
X-44346886Y-25450052D01*
X-44398305Y-25539111D01*
X-44411939Y-25556207D01*
X-44425573Y-25578456D01*
X-44487569Y-25651045D01*
X-44547373Y-25726036D01*
X-44567826Y-25745013D01*
X-44588629Y-25769371D01*
X-44657129Y-25827875D01*
X-44722637Y-25888658D01*
X-44750694Y-25907787D01*
X-44779544Y-25932427D01*
X-44851587Y-25976575D01*
X-44920174Y-26023337D01*
X-44956231Y-26040701D01*
X-44993615Y-26063610D01*
X-45066446Y-26093777D01*
X-45135579Y-26127070D01*
X-45179612Y-26140652D01*
X-45225573Y-26159690D01*
X-45296651Y-26176754D01*
X-45364046Y-26197543D01*
X-45415623Y-26205317D01*
X-45469705Y-26218301D01*
X-45536796Y-26223581D01*
X-45600459Y-26233177D01*
X-45658719Y-26233177D01*
X-45720000Y-26238000D01*
X-45781281Y-26233177D01*
X-45839541Y-26233177D01*
X-45903202Y-26223581D01*
X-45970295Y-26218301D01*
X-46024377Y-26205316D01*
X-46075953Y-26197543D01*
X-46143344Y-26176755D01*
X-46214427Y-26159690D01*
X-46260390Y-26140651D01*
X-46304420Y-26127070D01*
X-46373543Y-26093781D01*
X-46446385Y-26063610D01*
X-46483775Y-26040696D01*
X-46519824Y-26023337D01*
X-46588395Y-25976585D01*
X-46660456Y-25932427D01*
X-46689309Y-25907783D01*
X-46717362Y-25888658D01*
X-46782857Y-25827886D01*
X-46851371Y-25769371D01*
X-46872177Y-25745009D01*
X-46892626Y-25726036D01*
X-46952415Y-25651062D01*
X-47014427Y-25578456D01*
X-47028064Y-25556202D01*
X-47041694Y-25539111D01*
X-47093095Y-25450080D01*
X-47145610Y-25364385D01*
X-47153323Y-25345762D01*
X-47161233Y-25332063D01*
X-47201572Y-25229278D01*
X-47241690Y-25132427D01*
X-47245007Y-25118608D01*
X-47248580Y-25109506D01*
X-47275338Y-24992270D01*
X-47300301Y-24888295D01*
X-47300948Y-24880068D01*
X-47301783Y-24876412D01*
X-47312663Y-24731223D01*
X-47320000Y-24638000D01*
X-47312665Y-24544808D01*
X-47301783Y-24399587D01*
X-47300948Y-24395930D01*
X-47300301Y-24387705D01*
X-47275343Y-24283748D01*
X-47248580Y-24166493D01*
X-47245006Y-24157388D01*
X-47241690Y-24143573D01*
X-47201580Y-24046739D01*
X-47161233Y-23943936D01*
X-47153322Y-23930234D01*
X-47145610Y-23911615D01*
X-47093105Y-23825936D01*
X-47041694Y-23736888D01*
X-47028061Y-23719793D01*
X-47014427Y-23697544D01*
X-46952427Y-23624951D01*
X-46892626Y-23549963D01*
X-46872173Y-23530985D01*
X-46851371Y-23506629D01*
X-46782871Y-23448124D01*
X-46717362Y-23387341D01*
X-46689304Y-23368211D01*
X-46660456Y-23343573D01*
X-46588410Y-23299423D01*
X-46519824Y-23252662D01*
X-46483768Y-23235298D01*
X-46446385Y-23212390D01*
X-46373558Y-23182224D01*
X-46304420Y-23148929D01*
X-46260380Y-23135344D01*
X-46214427Y-23116310D01*
X-46143358Y-23099247D01*
X-46075953Y-23078456D01*
X-46024369Y-23070681D01*
X-45970295Y-23057699D01*
X-45903206Y-23052418D01*
X-45839541Y-23042823D01*
X-45781281Y-23042823D01*
X-45720000Y-23038000D01*
X-45658719Y-23042823D01*
G37*
G36*
X-84301324Y-21651591D02*
G01*
X-84263816Y-21651591D01*
X-84233329Y-21660542D01*
X-84211549Y-21663410D01*
X-84182292Y-21675528D01*
X-84140648Y-21687756D01*
X-84118666Y-21701882D01*
X-84103038Y-21708356D01*
X-84074398Y-21730331D01*
X-84032658Y-21757157D01*
X-84019202Y-21772686D01*
X-84009858Y-21779856D01*
X-83985633Y-21811426D01*
X-83948595Y-21854171D01*
X-83942362Y-21867818D01*
X-83938356Y-21873040D01*
X-83922537Y-21911228D01*
X-83895269Y-21970939D01*
X-83893920Y-21980315D01*
X-83893410Y-21981549D01*
X-83889790Y-22009042D01*
X-83877000Y-22098000D01*
X-83889791Y-22186965D01*
X-83893410Y-22214450D01*
X-83893920Y-22215682D01*
X-83895269Y-22225061D01*
X-83922536Y-22284768D01*
X-83938356Y-22322961D01*
X-83942363Y-22328183D01*
X-83948595Y-22341829D01*
X-83985634Y-22384574D01*
X-84009857Y-22416142D01*
X-84019198Y-22423310D01*
X-84032658Y-22438843D01*
X-84074407Y-22465673D01*
X-84103038Y-22487643D01*
X-84118662Y-22494114D01*
X-84140648Y-22508244D01*
X-84182301Y-22520474D01*
X-84211549Y-22532589D01*
X-84233323Y-22535455D01*
X-84263816Y-22544409D01*
X-84301331Y-22544409D01*
X-84328000Y-22547920D01*
X-84354669Y-22544409D01*
X-84392184Y-22544409D01*
X-84422677Y-22535455D01*
X-84444450Y-22532589D01*
X-84473695Y-22520475D01*
X-84515352Y-22508244D01*
X-84537339Y-22494113D01*
X-84552961Y-22487643D01*
X-84581586Y-22465677D01*
X-84623342Y-22438843D01*
X-84636803Y-22423308D01*
X-84646142Y-22416142D01*
X-84670356Y-22384584D01*
X-84707405Y-22341829D01*
X-84713638Y-22328180D01*
X-84717643Y-22322961D01*
X-84733452Y-22284791D01*
X-84760731Y-22225061D01*
X-84762079Y-22215678D01*
X-84762589Y-22214450D01*
X-84766196Y-22187048D01*
X-84779000Y-22098000D01*
X-84766197Y-22008960D01*
X-84762589Y-21981549D01*
X-84762079Y-21980319D01*
X-84760731Y-21970939D01*
X-84733451Y-21911205D01*
X-84717643Y-21873040D01*
X-84713639Y-21867822D01*
X-84707405Y-21854171D01*
X-84670359Y-21811417D01*
X-84646142Y-21779857D01*
X-84636800Y-21772689D01*
X-84623342Y-21757157D01*
X-84581586Y-21730322D01*
X-84552959Y-21708356D01*
X-84537338Y-21701885D01*
X-84515352Y-21687756D01*
X-84473701Y-21675526D01*
X-84444450Y-21663410D01*
X-84422671Y-21660542D01*
X-84392184Y-21651591D01*
X-84354676Y-21651591D01*
X-84328000Y-21648079D01*
X-84301324Y-21651591D01*
G37*
G36*
X-87298586Y-19576995D02*
G01*
X-87282774Y-19583976D01*
X-87274968Y-19585213D01*
X-87242453Y-19601780D01*
X-87197394Y-19621676D01*
X-87119176Y-19699894D01*
X-87099280Y-19744953D01*
X-87082713Y-19777468D01*
X-87081476Y-19785274D01*
X-87074495Y-19801086D01*
X-87066500Y-19870000D01*
X-87066500Y-20770000D01*
X-87074495Y-20838914D01*
X-87081476Y-20854726D01*
X-87082713Y-20862531D01*
X-87099276Y-20895039D01*
X-87119176Y-20940106D01*
X-87197394Y-21018324D01*
X-87242467Y-21038226D01*
X-87274968Y-21054786D01*
X-87282770Y-21056021D01*
X-87298586Y-21063005D01*
X-87367500Y-21071000D01*
X-87892500Y-21071000D01*
X-87961414Y-21063005D01*
X-87977229Y-21056021D01*
X-87985031Y-21054786D01*
X-88017524Y-21038229D01*
X-88062606Y-21018324D01*
X-88140824Y-20940106D01*
X-88160729Y-20895024D01*
X-88177286Y-20862531D01*
X-88178521Y-20854729D01*
X-88185505Y-20838914D01*
X-88193500Y-20770000D01*
X-88193500Y-19870000D01*
X-88185505Y-19801086D01*
X-88178521Y-19785270D01*
X-88177286Y-19777468D01*
X-88160726Y-19744967D01*
X-88140824Y-19699894D01*
X-88062606Y-19621676D01*
X-88017539Y-19601776D01*
X-87985031Y-19585213D01*
X-87977226Y-19583976D01*
X-87961414Y-19576995D01*
X-87892500Y-19569000D01*
X-87367500Y-19569000D01*
X-87298586Y-19576995D01*
G37*
G36*
X-85473586Y-19576995D02*
G01*
X-85457774Y-19583976D01*
X-85449968Y-19585213D01*
X-85417453Y-19601780D01*
X-85372394Y-19621676D01*
X-85294176Y-19699894D01*
X-85274280Y-19744953D01*
X-85257713Y-19777468D01*
X-85256476Y-19785274D01*
X-85249495Y-19801086D01*
X-85241500Y-19870000D01*
X-85241500Y-20770000D01*
X-85249495Y-20838914D01*
X-85256476Y-20854726D01*
X-85257713Y-20862531D01*
X-85274276Y-20895039D01*
X-85294176Y-20940106D01*
X-85372394Y-21018324D01*
X-85417467Y-21038226D01*
X-85449968Y-21054786D01*
X-85457770Y-21056021D01*
X-85473586Y-21063005D01*
X-85542500Y-21071000D01*
X-86067500Y-21071000D01*
X-86136414Y-21063005D01*
X-86152229Y-21056021D01*
X-86160031Y-21054786D01*
X-86192524Y-21038229D01*
X-86237606Y-21018324D01*
X-86315824Y-20940106D01*
X-86335729Y-20895024D01*
X-86352286Y-20862531D01*
X-86353521Y-20854729D01*
X-86360505Y-20838914D01*
X-86368500Y-20770000D01*
X-86368500Y-19870000D01*
X-86360505Y-19801086D01*
X-86353521Y-19785270D01*
X-86352286Y-19777468D01*
X-86335726Y-19744967D01*
X-86315824Y-19699894D01*
X-86237606Y-19621676D01*
X-86192539Y-19601776D01*
X-86160031Y-19585213D01*
X-86152226Y-19583976D01*
X-86136414Y-19576995D01*
X-86067500Y-19569000D01*
X-85542500Y-19569000D01*
X-85473586Y-19576995D01*
G37*
G36*
X-83793324Y-19873591D02*
G01*
X-83755816Y-19873591D01*
X-83725329Y-19882542D01*
X-83703549Y-19885410D01*
X-83674292Y-19897528D01*
X-83632648Y-19909756D01*
X-83610666Y-19923882D01*
X-83595038Y-19930356D01*
X-83566398Y-19952331D01*
X-83524658Y-19979157D01*
X-83511202Y-19994686D01*
X-83501858Y-20001856D01*
X-83477633Y-20033426D01*
X-83440595Y-20076171D01*
X-83434362Y-20089818D01*
X-83430356Y-20095040D01*
X-83414537Y-20133228D01*
X-83387269Y-20192939D01*
X-83385920Y-20202315D01*
X-83385410Y-20203549D01*
X-83381790Y-20231042D01*
X-83369000Y-20320000D01*
X-83381791Y-20408965D01*
X-83385410Y-20436450D01*
X-83385920Y-20437682D01*
X-83387269Y-20447061D01*
X-83414536Y-20506768D01*
X-83430356Y-20544961D01*
X-83434363Y-20550183D01*
X-83440595Y-20563829D01*
X-83477634Y-20606574D01*
X-83501857Y-20638142D01*
X-83511198Y-20645310D01*
X-83524658Y-20660843D01*
X-83566407Y-20687673D01*
X-83595038Y-20709643D01*
X-83610662Y-20716114D01*
X-83632648Y-20730244D01*
X-83674301Y-20742474D01*
X-83703549Y-20754589D01*
X-83725323Y-20757455D01*
X-83755816Y-20766409D01*
X-83793331Y-20766409D01*
X-83820000Y-20769920D01*
X-83846669Y-20766409D01*
X-83884184Y-20766409D01*
X-83914677Y-20757455D01*
X-83936450Y-20754589D01*
X-83965695Y-20742475D01*
X-84007352Y-20730244D01*
X-84029339Y-20716113D01*
X-84044961Y-20709643D01*
X-84073586Y-20687677D01*
X-84115342Y-20660843D01*
X-84128803Y-20645308D01*
X-84138142Y-20638142D01*
X-84162356Y-20606584D01*
X-84199405Y-20563829D01*
X-84205638Y-20550180D01*
X-84209643Y-20544961D01*
X-84225452Y-20506791D01*
X-84252731Y-20447061D01*
X-84254079Y-20437678D01*
X-84254589Y-20436450D01*
X-84258196Y-20409048D01*
X-84271000Y-20320000D01*
X-84258197Y-20230960D01*
X-84254589Y-20203549D01*
X-84254079Y-20202319D01*
X-84252731Y-20192939D01*
X-84225451Y-20133205D01*
X-84209643Y-20095040D01*
X-84205639Y-20089822D01*
X-84199405Y-20076171D01*
X-84162359Y-20033417D01*
X-84138142Y-20001857D01*
X-84128800Y-19994689D01*
X-84115342Y-19979157D01*
X-84073586Y-19952322D01*
X-84044959Y-19930356D01*
X-84029338Y-19923885D01*
X-84007352Y-19909756D01*
X-83965701Y-19897526D01*
X-83936450Y-19885410D01*
X-83914671Y-19882542D01*
X-83884184Y-19873591D01*
X-83846676Y-19873591D01*
X-83820000Y-19870079D01*
X-83793324Y-19873591D01*
G37*
G36*
X-81253324Y-19111591D02*
G01*
X-81215816Y-19111591D01*
X-81185329Y-19120542D01*
X-81163549Y-19123410D01*
X-81134292Y-19135528D01*
X-81092648Y-19147756D01*
X-81070666Y-19161882D01*
X-81055038Y-19168356D01*
X-81026398Y-19190331D01*
X-80984658Y-19217157D01*
X-80971202Y-19232686D01*
X-80961858Y-19239856D01*
X-80937633Y-19271426D01*
X-80900595Y-19314171D01*
X-80894362Y-19327818D01*
X-80890356Y-19333040D01*
X-80874537Y-19371228D01*
X-80847269Y-19430939D01*
X-80845920Y-19440315D01*
X-80845410Y-19441549D01*
X-80841790Y-19469042D01*
X-80829000Y-19558000D01*
X-80841791Y-19646965D01*
X-80845410Y-19674450D01*
X-80845920Y-19675682D01*
X-80847269Y-19685061D01*
X-80874536Y-19744768D01*
X-80890356Y-19782961D01*
X-80894363Y-19788183D01*
X-80900595Y-19801829D01*
X-80937634Y-19844574D01*
X-80961857Y-19876142D01*
X-80971198Y-19883310D01*
X-80984658Y-19898843D01*
X-81026407Y-19925673D01*
X-81055038Y-19947643D01*
X-81070662Y-19954114D01*
X-81092648Y-19968244D01*
X-81134301Y-19980474D01*
X-81163549Y-19992589D01*
X-81185323Y-19995455D01*
X-81215816Y-20004409D01*
X-81253331Y-20004409D01*
X-81280000Y-20007920D01*
X-81306669Y-20004409D01*
X-81344184Y-20004409D01*
X-81374677Y-19995455D01*
X-81396450Y-19992589D01*
X-81425695Y-19980475D01*
X-81467352Y-19968244D01*
X-81489339Y-19954113D01*
X-81504961Y-19947643D01*
X-81533586Y-19925677D01*
X-81575342Y-19898843D01*
X-81588803Y-19883308D01*
X-81598142Y-19876142D01*
X-81622356Y-19844584D01*
X-81659405Y-19801829D01*
X-81665638Y-19788180D01*
X-81669643Y-19782961D01*
X-81685452Y-19744791D01*
X-81712731Y-19685061D01*
X-81714079Y-19675678D01*
X-81714589Y-19674450D01*
X-81718196Y-19647048D01*
X-81731000Y-19558000D01*
X-81718197Y-19468960D01*
X-81714589Y-19441549D01*
X-81714079Y-19440319D01*
X-81712731Y-19430939D01*
X-81685451Y-19371205D01*
X-81669643Y-19333040D01*
X-81665639Y-19327822D01*
X-81659405Y-19314171D01*
X-81622359Y-19271417D01*
X-81598142Y-19239857D01*
X-81588800Y-19232689D01*
X-81575342Y-19217157D01*
X-81533586Y-19190322D01*
X-81504959Y-19168356D01*
X-81489338Y-19161885D01*
X-81467352Y-19147756D01*
X-81425701Y-19135526D01*
X-81396450Y-19123410D01*
X-81374671Y-19120542D01*
X-81344184Y-19111591D01*
X-81306676Y-19111591D01*
X-81280000Y-19108079D01*
X-81253324Y-19111591D01*
G37*
G36*
X-86941086Y-17036995D02*
G01*
X-86925274Y-17043976D01*
X-86917468Y-17045213D01*
X-86884953Y-17061780D01*
X-86839894Y-17081676D01*
X-86761676Y-17159894D01*
X-86741780Y-17204953D01*
X-86725213Y-17237468D01*
X-86723976Y-17245274D01*
X-86716995Y-17261086D01*
X-86709000Y-17330000D01*
X-86709000Y-18230000D01*
X-86716995Y-18298914D01*
X-86723976Y-18314726D01*
X-86725213Y-18322531D01*
X-86741776Y-18355039D01*
X-86761676Y-18400106D01*
X-86839894Y-18478324D01*
X-86884967Y-18498226D01*
X-86917468Y-18514786D01*
X-86925270Y-18516021D01*
X-86941086Y-18523005D01*
X-87010000Y-18531000D01*
X-87535000Y-18531000D01*
X-87603914Y-18523005D01*
X-87619729Y-18516021D01*
X-87627531Y-18514786D01*
X-87660024Y-18498229D01*
X-87705106Y-18478324D01*
X-87783324Y-18400106D01*
X-87803229Y-18355024D01*
X-87819786Y-18322531D01*
X-87821021Y-18314729D01*
X-87828005Y-18298914D01*
X-87836000Y-18230000D01*
X-87836000Y-17330000D01*
X-87828005Y-17261086D01*
X-87821021Y-17245270D01*
X-87819786Y-17237468D01*
X-87803226Y-17204967D01*
X-87783324Y-17159894D01*
X-87705106Y-17081676D01*
X-87660039Y-17061776D01*
X-87627531Y-17045213D01*
X-87619726Y-17043976D01*
X-87603914Y-17036995D01*
X-87535000Y-17029000D01*
X-87010000Y-17029000D01*
X-86941086Y-17036995D01*
G37*
G36*
X-85116086Y-17036995D02*
G01*
X-85100274Y-17043976D01*
X-85092468Y-17045213D01*
X-85059953Y-17061780D01*
X-85014894Y-17081676D01*
X-84936676Y-17159894D01*
X-84916780Y-17204953D01*
X-84900213Y-17237468D01*
X-84898976Y-17245274D01*
X-84891995Y-17261086D01*
X-84884000Y-17330000D01*
X-84884000Y-18230000D01*
X-84891995Y-18298914D01*
X-84898976Y-18314726D01*
X-84900213Y-18322531D01*
X-84916776Y-18355039D01*
X-84936676Y-18400106D01*
X-85014894Y-18478324D01*
X-85059967Y-18498226D01*
X-85092468Y-18514786D01*
X-85100270Y-18516021D01*
X-85116086Y-18523005D01*
X-85185000Y-18531000D01*
X-85710000Y-18531000D01*
X-85778914Y-18523005D01*
X-85794729Y-18516021D01*
X-85802531Y-18514786D01*
X-85835024Y-18498229D01*
X-85880106Y-18478324D01*
X-85958324Y-18400106D01*
X-85978229Y-18355024D01*
X-85994786Y-18322531D01*
X-85996021Y-18314729D01*
X-86003005Y-18298914D01*
X-86011000Y-18230000D01*
X-86011000Y-17330000D01*
X-86003005Y-17261086D01*
X-85996021Y-17245270D01*
X-85994786Y-17237468D01*
X-85978226Y-17204967D01*
X-85958324Y-17159894D01*
X-85880106Y-17081676D01*
X-85835039Y-17061776D01*
X-85802531Y-17045213D01*
X-85794726Y-17043976D01*
X-85778914Y-17036995D01*
X-85710000Y-17029000D01*
X-85185000Y-17029000D01*
X-85116086Y-17036995D01*
G37*
G36*
X-81253324Y-17333591D02*
G01*
X-81215816Y-17333591D01*
X-81185329Y-17342542D01*
X-81163549Y-17345410D01*
X-81134292Y-17357528D01*
X-81092648Y-17369756D01*
X-81070666Y-17383882D01*
X-81055038Y-17390356D01*
X-81026398Y-17412331D01*
X-80984658Y-17439157D01*
X-80971202Y-17454686D01*
X-80961858Y-17461856D01*
X-80937633Y-17493426D01*
X-80900595Y-17536171D01*
X-80894362Y-17549818D01*
X-80890356Y-17555040D01*
X-80874537Y-17593228D01*
X-80847269Y-17652939D01*
X-80845920Y-17662315D01*
X-80845410Y-17663549D01*
X-80841790Y-17691042D01*
X-80829000Y-17780000D01*
X-80841791Y-17868965D01*
X-80845410Y-17896450D01*
X-80845920Y-17897682D01*
X-80847269Y-17907061D01*
X-80874536Y-17966768D01*
X-80890356Y-18004961D01*
X-80894363Y-18010183D01*
X-80900595Y-18023829D01*
X-80937634Y-18066574D01*
X-80961857Y-18098142D01*
X-80971198Y-18105310D01*
X-80984658Y-18120843D01*
X-81026407Y-18147673D01*
X-81055038Y-18169643D01*
X-81070662Y-18176114D01*
X-81092648Y-18190244D01*
X-81134301Y-18202474D01*
X-81163549Y-18214589D01*
X-81185323Y-18217455D01*
X-81215816Y-18226409D01*
X-81253331Y-18226409D01*
X-81280000Y-18229920D01*
X-81306669Y-18226409D01*
X-81344184Y-18226409D01*
X-81374677Y-18217455D01*
X-81396450Y-18214589D01*
X-81425695Y-18202475D01*
X-81467352Y-18190244D01*
X-81489339Y-18176113D01*
X-81504961Y-18169643D01*
X-81533586Y-18147677D01*
X-81575342Y-18120843D01*
X-81588803Y-18105308D01*
X-81598142Y-18098142D01*
X-81622356Y-18066584D01*
X-81659405Y-18023829D01*
X-81665638Y-18010180D01*
X-81669643Y-18004961D01*
X-81685452Y-17966791D01*
X-81712731Y-17907061D01*
X-81714079Y-17897678D01*
X-81714589Y-17896450D01*
X-81718196Y-17869048D01*
X-81731000Y-17780000D01*
X-81718197Y-17690960D01*
X-81714589Y-17663549D01*
X-81714079Y-17662319D01*
X-81712731Y-17652939D01*
X-81685451Y-17593205D01*
X-81669643Y-17555040D01*
X-81665639Y-17549822D01*
X-81659405Y-17536171D01*
X-81622359Y-17493417D01*
X-81598142Y-17461857D01*
X-81588800Y-17454689D01*
X-81575342Y-17439157D01*
X-81533586Y-17412322D01*
X-81504959Y-17390356D01*
X-81489338Y-17383885D01*
X-81467352Y-17369756D01*
X-81425701Y-17357526D01*
X-81396450Y-17345410D01*
X-81374671Y-17342542D01*
X-81344184Y-17333591D01*
X-81306676Y-17333591D01*
X-81280000Y-17330079D01*
X-81253324Y-17333591D01*
G37*
G36*
X-73718719Y-13517823D02*
G01*
X-73660459Y-13517823D01*
X-73596792Y-13527418D01*
X-73529705Y-13532699D01*
X-73475632Y-13545680D01*
X-73424046Y-13553456D01*
X-73356636Y-13574249D01*
X-73285573Y-13591310D01*
X-73239622Y-13610343D01*
X-73195579Y-13623929D01*
X-73126431Y-13657228D01*
X-73053615Y-13687390D01*
X-73016238Y-13710294D01*
X-72980174Y-13727662D01*
X-72911573Y-13774433D01*
X-72839544Y-13818573D01*
X-72810700Y-13843207D01*
X-72782637Y-13862341D01*
X-72717116Y-13923135D01*
X-72648629Y-13981629D01*
X-72627830Y-14005981D01*
X-72607373Y-14024963D01*
X-72547557Y-14099969D01*
X-72485573Y-14172544D01*
X-72471941Y-14194787D01*
X-72458305Y-14211888D01*
X-72406876Y-14300964D01*
X-72354390Y-14386615D01*
X-72346680Y-14405228D01*
X-72338766Y-14418936D01*
X-72298400Y-14521785D01*
X-72258310Y-14618573D01*
X-72254994Y-14632382D01*
X-72251419Y-14641493D01*
X-72224636Y-14758833D01*
X-72199699Y-14862705D01*
X-72199052Y-14870923D01*
X-72198216Y-14874587D01*
X-72187313Y-15020073D01*
X-72180000Y-15113000D01*
X-72187316Y-15205958D01*
X-72198216Y-15351412D01*
X-72199052Y-15355074D01*
X-72199699Y-15363295D01*
X-72224641Y-15467186D01*
X-72251419Y-15584506D01*
X-72254994Y-15593615D01*
X-72258310Y-15607427D01*
X-72298408Y-15704232D01*
X-72338766Y-15807063D01*
X-72346678Y-15820768D01*
X-72354390Y-15839385D01*
X-72406886Y-15925052D01*
X-72458305Y-16014111D01*
X-72471939Y-16031207D01*
X-72485573Y-16053456D01*
X-72547569Y-16126045D01*
X-72607373Y-16201036D01*
X-72627826Y-16220013D01*
X-72648629Y-16244371D01*
X-72717129Y-16302875D01*
X-72782637Y-16363658D01*
X-72810694Y-16382787D01*
X-72839544Y-16407427D01*
X-72911587Y-16451575D01*
X-72980174Y-16498337D01*
X-73016231Y-16515701D01*
X-73053615Y-16538610D01*
X-73126446Y-16568777D01*
X-73195579Y-16602070D01*
X-73239612Y-16615652D01*
X-73285573Y-16634690D01*
X-73356651Y-16651754D01*
X-73424046Y-16672543D01*
X-73475623Y-16680317D01*
X-73529705Y-16693301D01*
X-73596796Y-16698581D01*
X-73660459Y-16708177D01*
X-73718719Y-16708177D01*
X-73780000Y-16713000D01*
X-73841281Y-16708177D01*
X-73899541Y-16708177D01*
X-73963202Y-16698581D01*
X-74030295Y-16693301D01*
X-74084377Y-16680316D01*
X-74135953Y-16672543D01*
X-74203344Y-16651755D01*
X-74274427Y-16634690D01*
X-74320390Y-16615651D01*
X-74364420Y-16602070D01*
X-74433543Y-16568781D01*
X-74506385Y-16538610D01*
X-74543775Y-16515696D01*
X-74579824Y-16498337D01*
X-74648395Y-16451585D01*
X-74720456Y-16407427D01*
X-74749309Y-16382783D01*
X-74777362Y-16363658D01*
X-74842857Y-16302886D01*
X-74911371Y-16244371D01*
X-74932177Y-16220009D01*
X-74952626Y-16201036D01*
X-75012415Y-16126062D01*
X-75074427Y-16053456D01*
X-75088064Y-16031202D01*
X-75101694Y-16014111D01*
X-75153095Y-15925080D01*
X-75205610Y-15839385D01*
X-75213323Y-15820762D01*
X-75221233Y-15807063D01*
X-75261572Y-15704278D01*
X-75301690Y-15607427D01*
X-75305007Y-15593608D01*
X-75308580Y-15584506D01*
X-75335338Y-15467270D01*
X-75360301Y-15363295D01*
X-75360948Y-15355068D01*
X-75361783Y-15351412D01*
X-75372663Y-15206223D01*
X-75380000Y-15113000D01*
X-75372665Y-15019808D01*
X-75361783Y-14874587D01*
X-75360948Y-14870930D01*
X-75360301Y-14862705D01*
X-75335343Y-14758748D01*
X-75308580Y-14641493D01*
X-75305006Y-14632388D01*
X-75301690Y-14618573D01*
X-75261580Y-14521739D01*
X-75221233Y-14418936D01*
X-75213322Y-14405234D01*
X-75205610Y-14386615D01*
X-75153105Y-14300936D01*
X-75101694Y-14211888D01*
X-75088061Y-14194793D01*
X-75074427Y-14172544D01*
X-75012427Y-14099951D01*
X-74952626Y-14024963D01*
X-74932173Y-14005985D01*
X-74911371Y-13981629D01*
X-74842871Y-13923124D01*
X-74777362Y-13862341D01*
X-74749304Y-13843211D01*
X-74720456Y-13818573D01*
X-74648410Y-13774423D01*
X-74579824Y-13727662D01*
X-74543768Y-13710298D01*
X-74506385Y-13687390D01*
X-74433558Y-13657224D01*
X-74364420Y-13623929D01*
X-74320380Y-13610344D01*
X-74274427Y-13591310D01*
X-74203358Y-13574247D01*
X-74135953Y-13553456D01*
X-74084369Y-13545681D01*
X-74030295Y-13532699D01*
X-73963206Y-13527418D01*
X-73899541Y-13517823D01*
X-73841281Y-13517823D01*
X-73780000Y-13513000D01*
X-73718719Y-13517823D01*
G37*
G36*
X-86941086Y-14496995D02*
G01*
X-86925274Y-14503976D01*
X-86917468Y-14505213D01*
X-86884953Y-14521780D01*
X-86839894Y-14541676D01*
X-86761676Y-14619894D01*
X-86741780Y-14664953D01*
X-86725213Y-14697468D01*
X-86723976Y-14705274D01*
X-86716995Y-14721086D01*
X-86709000Y-14790000D01*
X-86709000Y-15690000D01*
X-86716995Y-15758914D01*
X-86723976Y-15774726D01*
X-86725213Y-15782531D01*
X-86741776Y-15815039D01*
X-86761676Y-15860106D01*
X-86839894Y-15938324D01*
X-86884967Y-15958226D01*
X-86917468Y-15974786D01*
X-86925270Y-15976021D01*
X-86941086Y-15983005D01*
X-87010000Y-15991000D01*
X-87535000Y-15991000D01*
X-87603914Y-15983005D01*
X-87619729Y-15976021D01*
X-87627531Y-15974786D01*
X-87660024Y-15958229D01*
X-87705106Y-15938324D01*
X-87783324Y-15860106D01*
X-87803229Y-15815024D01*
X-87819786Y-15782531D01*
X-87821021Y-15774729D01*
X-87828005Y-15758914D01*
X-87836000Y-15690000D01*
X-87836000Y-14790000D01*
X-87828005Y-14721086D01*
X-87821021Y-14705270D01*
X-87819786Y-14697468D01*
X-87803226Y-14664967D01*
X-87783324Y-14619894D01*
X-87705106Y-14541676D01*
X-87660039Y-14521776D01*
X-87627531Y-14505213D01*
X-87619726Y-14503976D01*
X-87603914Y-14496995D01*
X-87535000Y-14489000D01*
X-87010000Y-14489000D01*
X-86941086Y-14496995D01*
G37*
G36*
X-85116086Y-14496995D02*
G01*
X-85100274Y-14503976D01*
X-85092468Y-14505213D01*
X-85059953Y-14521780D01*
X-85014894Y-14541676D01*
X-84936676Y-14619894D01*
X-84916780Y-14664953D01*
X-84900213Y-14697468D01*
X-84898976Y-14705274D01*
X-84891995Y-14721086D01*
X-84884000Y-14790000D01*
X-84884000Y-15690000D01*
X-84891995Y-15758914D01*
X-84898976Y-15774726D01*
X-84900213Y-15782531D01*
X-84916776Y-15815039D01*
X-84936676Y-15860106D01*
X-85014894Y-15938324D01*
X-85059967Y-15958226D01*
X-85092468Y-15974786D01*
X-85100270Y-15976021D01*
X-85116086Y-15983005D01*
X-85185000Y-15991000D01*
X-85710000Y-15991000D01*
X-85778914Y-15983005D01*
X-85794729Y-15976021D01*
X-85802531Y-15974786D01*
X-85835024Y-15958229D01*
X-85880106Y-15938324D01*
X-85958324Y-15860106D01*
X-85978229Y-15815024D01*
X-85994786Y-15782531D01*
X-85996021Y-15774729D01*
X-86003005Y-15758914D01*
X-86011000Y-15690000D01*
X-86011000Y-14790000D01*
X-86003005Y-14721086D01*
X-85996021Y-14705270D01*
X-85994786Y-14697468D01*
X-85978226Y-14664967D01*
X-85958324Y-14619894D01*
X-85880106Y-14541676D01*
X-85835039Y-14521776D01*
X-85802531Y-14505213D01*
X-85794726Y-14503976D01*
X-85778914Y-14496995D01*
X-85710000Y-14489000D01*
X-85185000Y-14489000D01*
X-85116086Y-14496995D01*
G37*
G36*
X-86941086Y-11956995D02*
G01*
X-86925274Y-11963976D01*
X-86917468Y-11965213D01*
X-86884953Y-11981780D01*
X-86839894Y-12001676D01*
X-86761676Y-12079894D01*
X-86741780Y-12124953D01*
X-86725213Y-12157468D01*
X-86723976Y-12165274D01*
X-86716995Y-12181086D01*
X-86709000Y-12250000D01*
X-86709000Y-13150000D01*
X-86716995Y-13218914D01*
X-86723976Y-13234726D01*
X-86725213Y-13242531D01*
X-86741776Y-13275039D01*
X-86761676Y-13320106D01*
X-86839894Y-13398324D01*
X-86884967Y-13418226D01*
X-86917468Y-13434786D01*
X-86925270Y-13436021D01*
X-86941086Y-13443005D01*
X-87010000Y-13451000D01*
X-87535000Y-13451000D01*
X-87603914Y-13443005D01*
X-87619729Y-13436021D01*
X-87627531Y-13434786D01*
X-87660024Y-13418229D01*
X-87705106Y-13398324D01*
X-87783324Y-13320106D01*
X-87803229Y-13275024D01*
X-87819786Y-13242531D01*
X-87821021Y-13234729D01*
X-87828005Y-13218914D01*
X-87836000Y-13150000D01*
X-87836000Y-12250000D01*
X-87828005Y-12181086D01*
X-87821021Y-12165270D01*
X-87819786Y-12157468D01*
X-87803226Y-12124967D01*
X-87783324Y-12079894D01*
X-87705106Y-12001676D01*
X-87660039Y-11981776D01*
X-87627531Y-11965213D01*
X-87619726Y-11963976D01*
X-87603914Y-11956995D01*
X-87535000Y-11949000D01*
X-87010000Y-11949000D01*
X-86941086Y-11956995D01*
G37*
G36*
X-85116086Y-11956995D02*
G01*
X-85100274Y-11963976D01*
X-85092468Y-11965213D01*
X-85059953Y-11981780D01*
X-85014894Y-12001676D01*
X-84936676Y-12079894D01*
X-84916780Y-12124953D01*
X-84900213Y-12157468D01*
X-84898976Y-12165274D01*
X-84891995Y-12181086D01*
X-84884000Y-12250000D01*
X-84884000Y-13150000D01*
X-84891995Y-13218914D01*
X-84898976Y-13234726D01*
X-84900213Y-13242531D01*
X-84916776Y-13275039D01*
X-84936676Y-13320106D01*
X-85014894Y-13398324D01*
X-85059967Y-13418226D01*
X-85092468Y-13434786D01*
X-85100270Y-13436021D01*
X-85116086Y-13443005D01*
X-85185000Y-13451000D01*
X-85710000Y-13451000D01*
X-85778914Y-13443005D01*
X-85794729Y-13436021D01*
X-85802531Y-13434786D01*
X-85835024Y-13418229D01*
X-85880106Y-13398324D01*
X-85958324Y-13320106D01*
X-85978229Y-13275024D01*
X-85994786Y-13242531D01*
X-85996021Y-13234729D01*
X-86003005Y-13218914D01*
X-86011000Y-13150000D01*
X-86011000Y-12250000D01*
X-86003005Y-12181086D01*
X-85996021Y-12165270D01*
X-85994786Y-12157468D01*
X-85978226Y-12124967D01*
X-85958324Y-12079894D01*
X-85880106Y-12001676D01*
X-85835039Y-11981776D01*
X-85802531Y-11965213D01*
X-85794726Y-11963976D01*
X-85778914Y-11956995D01*
X-85710000Y-11949000D01*
X-85185000Y-11949000D01*
X-85116086Y-11956995D01*
G37*
G36*
X-75475483Y-9135882D02*
G01*
X-75458938Y-9146938D01*
X-75447882Y-9163483D01*
X-75444000Y-9183000D01*
X-75444000Y-10883000D01*
X-75447882Y-10902517D01*
X-75458938Y-10919062D01*
X-75475483Y-10930118D01*
X-75495000Y-10934000D01*
X-77195000Y-10934000D01*
X-77214517Y-10930118D01*
X-77231062Y-10919062D01*
X-77242118Y-10902517D01*
X-77246000Y-10883000D01*
X-77246000Y-9183000D01*
X-77242118Y-9163483D01*
X-77231062Y-9146938D01*
X-77214517Y-9135882D01*
X-77195000Y-9132000D01*
X-75495000Y-9132000D01*
X-75475483Y-9135882D01*
G37*
G36*
X-69928800Y-9313662D02*
G01*
X-69881046Y-9313662D01*
X-69839806Y-9322427D01*
X-69804098Y-9325945D01*
X-69759237Y-9339553D01*
X-69707027Y-9350651D01*
X-69673617Y-9365525D01*
X-69644564Y-9374339D01*
X-69598391Y-9399018D01*
X-69544500Y-9423012D01*
X-69519448Y-9441213D01*
X-69497546Y-9452920D01*
X-69452862Y-9489591D01*
X-69400570Y-9527584D01*
X-69383591Y-9546440D01*
X-69368679Y-9558679D01*
X-69328601Y-9607513D01*
X-69281527Y-9659795D01*
X-69271638Y-9676923D01*
X-69262920Y-9687546D01*
X-69230680Y-9747863D01*
X-69192573Y-9813867D01*
X-69188187Y-9827363D01*
X-69184339Y-9834564D01*
X-69163123Y-9904502D01*
X-69137596Y-9983067D01*
X-69136697Y-9991618D01*
X-69135945Y-9994098D01*
X-69128612Y-10068540D01*
X-69119000Y-10160000D01*
X-69128613Y-10251467D01*
X-69135945Y-10325901D01*
X-69136697Y-10328380D01*
X-69137596Y-10336933D01*
X-69163128Y-10415512D01*
X-69184339Y-10485435D01*
X-69188186Y-10492634D01*
X-69192573Y-10506133D01*
X-69230687Y-10572148D01*
X-69262920Y-10632453D01*
X-69271636Y-10643073D01*
X-69281527Y-10660205D01*
X-69328610Y-10712496D01*
X-69368679Y-10761320D01*
X-69383588Y-10773555D01*
X-69400570Y-10792416D01*
X-69452873Y-10830416D01*
X-69497546Y-10867079D01*
X-69519443Y-10878783D01*
X-69544500Y-10896988D01*
X-69598402Y-10920986D01*
X-69644564Y-10945660D01*
X-69673610Y-10954471D01*
X-69707027Y-10969349D01*
X-69759248Y-10980448D01*
X-69804098Y-10994054D01*
X-69839797Y-10997570D01*
X-69881046Y-11006338D01*
X-69928811Y-11006338D01*
X-69970000Y-11010395D01*
X-70011188Y-11006338D01*
X-70058954Y-11006338D01*
X-70100203Y-10997570D01*
X-70135901Y-10994054D01*
X-70180748Y-10980449D01*
X-70232973Y-10969349D01*
X-70266391Y-10954470D01*
X-70295435Y-10945660D01*
X-70341591Y-10920989D01*
X-70395500Y-10896988D01*
X-70420559Y-10878780D01*
X-70442453Y-10867079D01*
X-70487118Y-10830423D01*
X-70539430Y-10792416D01*
X-70556414Y-10773552D01*
X-70571320Y-10761320D01*
X-70611378Y-10712509D01*
X-70658473Y-10660205D01*
X-70668366Y-10643069D01*
X-70677079Y-10632453D01*
X-70709299Y-10572172D01*
X-70747427Y-10506133D01*
X-70751814Y-10492629D01*
X-70755660Y-10485435D01*
X-70776856Y-10415558D01*
X-70802404Y-10336933D01*
X-70803303Y-10328375D01*
X-70804054Y-10325901D01*
X-70811370Y-10251619D01*
X-70821000Y-10160000D01*
X-70811371Y-10068389D01*
X-70804054Y-9994098D01*
X-70803303Y-9991623D01*
X-70802404Y-9983067D01*
X-70776861Y-9904455D01*
X-70755660Y-9834564D01*
X-70751813Y-9827368D01*
X-70747427Y-9813867D01*
X-70709306Y-9747840D01*
X-70677079Y-9687546D01*
X-70668364Y-9676927D01*
X-70658473Y-9659795D01*
X-70611387Y-9607501D01*
X-70571320Y-9558679D01*
X-70556411Y-9546443D01*
X-70539430Y-9527584D01*
X-70487128Y-9489584D01*
X-70442453Y-9452920D01*
X-70420554Y-9441215D01*
X-70395500Y-9423012D01*
X-70341602Y-9399015D01*
X-70295435Y-9374339D01*
X-70266384Y-9365526D01*
X-70232973Y-9350651D01*
X-70180759Y-9339552D01*
X-70135901Y-9325945D01*
X-70100194Y-9322427D01*
X-70058954Y-9313662D01*
X-70011198Y-9313662D01*
X-69969999Y-9309604D01*
X-69928800Y-9313662D01*
G37*
G36*
X-54688801Y-9313662D02*
G01*
X-54641046Y-9313662D01*
X-54599806Y-9322427D01*
X-54564098Y-9325945D01*
X-54519237Y-9339553D01*
X-54467027Y-9350651D01*
X-54433617Y-9365525D01*
X-54404564Y-9374339D01*
X-54358391Y-9399018D01*
X-54304500Y-9423012D01*
X-54279448Y-9441213D01*
X-54257546Y-9452920D01*
X-54212862Y-9489591D01*
X-54160570Y-9527584D01*
X-54143591Y-9546440D01*
X-54128679Y-9558679D01*
X-54088601Y-9607513D01*
X-54041527Y-9659795D01*
X-54031638Y-9676923D01*
X-54022920Y-9687546D01*
X-53990680Y-9747863D01*
X-53952573Y-9813867D01*
X-53948187Y-9827363D01*
X-53944339Y-9834564D01*
X-53923123Y-9904502D01*
X-53897596Y-9983067D01*
X-53896697Y-9991618D01*
X-53895945Y-9994098D01*
X-53888612Y-10068540D01*
X-53879000Y-10160000D01*
X-53888613Y-10251467D01*
X-53895945Y-10325901D01*
X-53896697Y-10328380D01*
X-53897596Y-10336933D01*
X-53923128Y-10415512D01*
X-53944339Y-10485435D01*
X-53948186Y-10492634D01*
X-53952573Y-10506133D01*
X-53990687Y-10572148D01*
X-54022920Y-10632453D01*
X-54031636Y-10643073D01*
X-54041527Y-10660205D01*
X-54088610Y-10712496D01*
X-54128679Y-10761320D01*
X-54143588Y-10773555D01*
X-54160570Y-10792416D01*
X-54212873Y-10830416D01*
X-54257546Y-10867079D01*
X-54279443Y-10878783D01*
X-54304500Y-10896988D01*
X-54358402Y-10920986D01*
X-54404564Y-10945660D01*
X-54433610Y-10954471D01*
X-54467027Y-10969349D01*
X-54519248Y-10980448D01*
X-54564098Y-10994054D01*
X-54599797Y-10997570D01*
X-54641046Y-11006338D01*
X-54688811Y-11006338D01*
X-54730000Y-11010395D01*
X-54771188Y-11006338D01*
X-54818954Y-11006338D01*
X-54860203Y-10997570D01*
X-54895901Y-10994054D01*
X-54940748Y-10980449D01*
X-54992973Y-10969349D01*
X-55026391Y-10954470D01*
X-55055435Y-10945660D01*
X-55101591Y-10920989D01*
X-55155500Y-10896988D01*
X-55180559Y-10878780D01*
X-55202453Y-10867079D01*
X-55247118Y-10830423D01*
X-55299430Y-10792416D01*
X-55316414Y-10773552D01*
X-55331320Y-10761320D01*
X-55371378Y-10712509D01*
X-55418473Y-10660205D01*
X-55428366Y-10643069D01*
X-55437079Y-10632453D01*
X-55469299Y-10572172D01*
X-55507427Y-10506133D01*
X-55511814Y-10492629D01*
X-55515660Y-10485435D01*
X-55536856Y-10415558D01*
X-55562404Y-10336933D01*
X-55563303Y-10328375D01*
X-55564054Y-10325901D01*
X-55571370Y-10251619D01*
X-55581000Y-10160000D01*
X-55571371Y-10068389D01*
X-55564054Y-9994098D01*
X-55563303Y-9991623D01*
X-55562404Y-9983067D01*
X-55536861Y-9904455D01*
X-55515660Y-9834564D01*
X-55511813Y-9827368D01*
X-55507427Y-9813867D01*
X-55469306Y-9747840D01*
X-55437079Y-9687546D01*
X-55428364Y-9676927D01*
X-55418473Y-9659795D01*
X-55371387Y-9607501D01*
X-55331320Y-9558679D01*
X-55316411Y-9546443D01*
X-55299430Y-9527584D01*
X-55247128Y-9489584D01*
X-55202453Y-9452920D01*
X-55180554Y-9441215D01*
X-55155500Y-9423012D01*
X-55101602Y-9399015D01*
X-55055435Y-9374339D01*
X-55026384Y-9365526D01*
X-54992973Y-9350651D01*
X-54940759Y-9339552D01*
X-54895901Y-9325945D01*
X-54860194Y-9322427D01*
X-54818954Y-9313662D01*
X-54771199Y-9313662D01*
X-54730000Y-9309604D01*
X-54688801Y-9313662D01*
G37*
G36*
X-76301016Y-6596936D02*
G01*
X-76250820Y-6596936D01*
X-76207476Y-6606148D01*
X-76169340Y-6609905D01*
X-76121430Y-6624438D01*
X-76066576Y-6636098D01*
X-76031471Y-6651727D01*
X-76000433Y-6661143D01*
X-75951109Y-6687506D01*
X-75894500Y-6712711D01*
X-75868180Y-6731833D01*
X-75844767Y-6744348D01*
X-75797002Y-6783546D01*
X-75742113Y-6823427D01*
X-75724291Y-6843219D01*
X-75708324Y-6856324D01*
X-75665416Y-6908607D01*
X-75616076Y-6963405D01*
X-75605710Y-6981359D01*
X-75596348Y-6992767D01*
X-75561712Y-7057565D01*
X-75521896Y-7126530D01*
X-75517315Y-7140626D01*
X-75513143Y-7148433D01*
X-75490132Y-7224288D01*
X-75463689Y-7305672D01*
X-75462758Y-7314527D01*
X-75461905Y-7317340D01*
X-75453598Y-7401672D01*
X-75444000Y-7493000D01*
X-75453601Y-7584349D01*
X-75461905Y-7668659D01*
X-75462758Y-7671471D01*
X-75463689Y-7680328D01*
X-75490136Y-7761725D01*
X-75513143Y-7837566D01*
X-75517315Y-7845371D01*
X-75521896Y-7859470D01*
X-75561719Y-7928447D01*
X-75596348Y-7993232D01*
X-75605708Y-8004637D01*
X-75616076Y-8022595D01*
X-75665425Y-8077402D01*
X-75708324Y-8129675D01*
X-75724287Y-8142776D01*
X-75742113Y-8162573D01*
X-75797013Y-8202460D01*
X-75844767Y-8241651D01*
X-75868175Y-8254163D01*
X-75894500Y-8273289D01*
X-75951120Y-8298498D01*
X-76000433Y-8324856D01*
X-76031464Y-8334269D01*
X-76066576Y-8349902D01*
X-76121441Y-8361563D01*
X-76169340Y-8376094D01*
X-76207467Y-8379849D01*
X-76250820Y-8389064D01*
X-76301027Y-8389064D01*
X-76345000Y-8393395D01*
X-76388973Y-8389064D01*
X-76439180Y-8389064D01*
X-76482532Y-8379849D01*
X-76520659Y-8376094D01*
X-76568555Y-8361564D01*
X-76623424Y-8349902D01*
X-76658537Y-8334268D01*
X-76689566Y-8324856D01*
X-76738873Y-8298500D01*
X-76795500Y-8273289D01*
X-76821827Y-8254161D01*
X-76845232Y-8241651D01*
X-76892977Y-8202467D01*
X-76947887Y-8162573D01*
X-76965714Y-8142773D01*
X-76981675Y-8129675D01*
X-77024563Y-8077415D01*
X-77073924Y-8022595D01*
X-77084294Y-8004633D01*
X-77093651Y-7993232D01*
X-77128266Y-7928470D01*
X-77168104Y-7859470D01*
X-77172686Y-7845366D01*
X-77176856Y-7837566D01*
X-77199848Y-7761771D01*
X-77226311Y-7680328D01*
X-77227242Y-7671466D01*
X-77228094Y-7668659D01*
X-77236382Y-7584501D01*
X-77246000Y-7493000D01*
X-77236385Y-7401520D01*
X-77228094Y-7317340D01*
X-77227242Y-7314532D01*
X-77226311Y-7305672D01*
X-77199852Y-7224242D01*
X-77176856Y-7148433D01*
X-77172685Y-7140630D01*
X-77168104Y-7126530D01*
X-77128273Y-7057542D01*
X-77093651Y-6992767D01*
X-77084292Y-6981363D01*
X-77073924Y-6963405D01*
X-77024572Y-6908594D01*
X-76981675Y-6856324D01*
X-76965711Y-6843223D01*
X-76947887Y-6823427D01*
X-76892988Y-6783540D01*
X-76845232Y-6744348D01*
X-76821822Y-6731835D01*
X-76795500Y-6712711D01*
X-76738884Y-6687504D01*
X-76689566Y-6661143D01*
X-76658530Y-6651728D01*
X-76623424Y-6636098D01*
X-76568566Y-6624437D01*
X-76520659Y-6609905D01*
X-76482524Y-6606149D01*
X-76439180Y-6596936D01*
X-76388983Y-6596936D01*
X-76345000Y-6592604D01*
X-76301016Y-6596936D01*
G37*
G36*
X-69928801Y-6773662D02*
G01*
X-69881046Y-6773662D01*
X-69839806Y-6782427D01*
X-69804098Y-6785945D01*
X-69759237Y-6799553D01*
X-69707027Y-6810651D01*
X-69673617Y-6825525D01*
X-69644564Y-6834339D01*
X-69598391Y-6859018D01*
X-69544500Y-6883012D01*
X-69519448Y-6901213D01*
X-69497546Y-6912920D01*
X-69452862Y-6949591D01*
X-69400570Y-6987584D01*
X-69383591Y-7006440D01*
X-69368679Y-7018679D01*
X-69328601Y-7067513D01*
X-69281527Y-7119795D01*
X-69271638Y-7136923D01*
X-69262920Y-7147546D01*
X-69230680Y-7207863D01*
X-69192573Y-7273867D01*
X-69188187Y-7287363D01*
X-69184339Y-7294564D01*
X-69163123Y-7364502D01*
X-69137596Y-7443067D01*
X-69136697Y-7451618D01*
X-69135945Y-7454098D01*
X-69128612Y-7528540D01*
X-69119000Y-7620000D01*
X-69128613Y-7711467D01*
X-69135945Y-7785901D01*
X-69136697Y-7788380D01*
X-69137596Y-7796933D01*
X-69163128Y-7875512D01*
X-69184339Y-7945435D01*
X-69188186Y-7952634D01*
X-69192573Y-7966133D01*
X-69230687Y-8032148D01*
X-69262920Y-8092453D01*
X-69271636Y-8103073D01*
X-69281527Y-8120205D01*
X-69328610Y-8172496D01*
X-69368679Y-8221320D01*
X-69383588Y-8233555D01*
X-69400570Y-8252416D01*
X-69452873Y-8290416D01*
X-69497546Y-8327079D01*
X-69519443Y-8338783D01*
X-69544500Y-8356988D01*
X-69598402Y-8380986D01*
X-69644564Y-8405660D01*
X-69673610Y-8414471D01*
X-69707027Y-8429349D01*
X-69759248Y-8440448D01*
X-69804098Y-8454054D01*
X-69839797Y-8457570D01*
X-69881046Y-8466338D01*
X-69928811Y-8466338D01*
X-69970000Y-8470395D01*
X-70011188Y-8466338D01*
X-70058954Y-8466338D01*
X-70100203Y-8457570D01*
X-70135901Y-8454054D01*
X-70180748Y-8440449D01*
X-70232973Y-8429349D01*
X-70266391Y-8414470D01*
X-70295435Y-8405660D01*
X-70341591Y-8380989D01*
X-70395500Y-8356988D01*
X-70420559Y-8338780D01*
X-70442453Y-8327079D01*
X-70487118Y-8290423D01*
X-70539430Y-8252416D01*
X-70556414Y-8233552D01*
X-70571320Y-8221320D01*
X-70611378Y-8172509D01*
X-70658473Y-8120205D01*
X-70668366Y-8103069D01*
X-70677079Y-8092453D01*
X-70709299Y-8032172D01*
X-70747427Y-7966133D01*
X-70751814Y-7952629D01*
X-70755660Y-7945435D01*
X-70776856Y-7875558D01*
X-70802404Y-7796933D01*
X-70803303Y-7788375D01*
X-70804054Y-7785901D01*
X-70811370Y-7711619D01*
X-70821000Y-7620000D01*
X-70811371Y-7528389D01*
X-70804054Y-7454098D01*
X-70803303Y-7451623D01*
X-70802404Y-7443067D01*
X-70776861Y-7364455D01*
X-70755660Y-7294564D01*
X-70751813Y-7287368D01*
X-70747427Y-7273867D01*
X-70709306Y-7207840D01*
X-70677079Y-7147546D01*
X-70668364Y-7136927D01*
X-70658473Y-7119795D01*
X-70611387Y-7067501D01*
X-70571320Y-7018679D01*
X-70556411Y-7006443D01*
X-70539430Y-6987584D01*
X-70487128Y-6949584D01*
X-70442453Y-6912920D01*
X-70420554Y-6901215D01*
X-70395500Y-6883012D01*
X-70341602Y-6859015D01*
X-70295435Y-6834339D01*
X-70266384Y-6825526D01*
X-70232973Y-6810651D01*
X-70180759Y-6799552D01*
X-70135901Y-6785945D01*
X-70100194Y-6782427D01*
X-70058954Y-6773662D01*
X-70011199Y-6773662D01*
X-69970000Y-6769604D01*
X-69928801Y-6773662D01*
G37*
G36*
X-54688801Y-6773662D02*
G01*
X-54641046Y-6773662D01*
X-54599806Y-6782427D01*
X-54564098Y-6785945D01*
X-54519237Y-6799553D01*
X-54467027Y-6810651D01*
X-54433617Y-6825525D01*
X-54404564Y-6834339D01*
X-54358391Y-6859018D01*
X-54304500Y-6883012D01*
X-54279448Y-6901213D01*
X-54257546Y-6912920D01*
X-54212862Y-6949591D01*
X-54160570Y-6987584D01*
X-54143591Y-7006440D01*
X-54128679Y-7018679D01*
X-54088601Y-7067513D01*
X-54041527Y-7119795D01*
X-54031638Y-7136923D01*
X-54022920Y-7147546D01*
X-53990680Y-7207863D01*
X-53952573Y-7273867D01*
X-53948187Y-7287363D01*
X-53944339Y-7294564D01*
X-53923123Y-7364502D01*
X-53897596Y-7443067D01*
X-53896697Y-7451618D01*
X-53895945Y-7454098D01*
X-53888612Y-7528540D01*
X-53879000Y-7620000D01*
X-53888613Y-7711467D01*
X-53895945Y-7785901D01*
X-53896697Y-7788380D01*
X-53897596Y-7796933D01*
X-53923128Y-7875512D01*
X-53944339Y-7945435D01*
X-53948186Y-7952634D01*
X-53952573Y-7966133D01*
X-53990687Y-8032148D01*
X-54022920Y-8092453D01*
X-54031636Y-8103073D01*
X-54041527Y-8120205D01*
X-54088610Y-8172496D01*
X-54128679Y-8221320D01*
X-54143588Y-8233555D01*
X-54160570Y-8252416D01*
X-54212873Y-8290416D01*
X-54257546Y-8327079D01*
X-54279443Y-8338783D01*
X-54304500Y-8356988D01*
X-54358402Y-8380986D01*
X-54404564Y-8405660D01*
X-54433610Y-8414471D01*
X-54467027Y-8429349D01*
X-54519248Y-8440448D01*
X-54564098Y-8454054D01*
X-54599797Y-8457570D01*
X-54641046Y-8466338D01*
X-54688811Y-8466338D01*
X-54730000Y-8470395D01*
X-54771188Y-8466338D01*
X-54818954Y-8466338D01*
X-54860203Y-8457570D01*
X-54895901Y-8454054D01*
X-54940748Y-8440449D01*
X-54992973Y-8429349D01*
X-55026391Y-8414470D01*
X-55055435Y-8405660D01*
X-55101591Y-8380989D01*
X-55155500Y-8356988D01*
X-55180559Y-8338780D01*
X-55202453Y-8327079D01*
X-55247118Y-8290423D01*
X-55299430Y-8252416D01*
X-55316414Y-8233552D01*
X-55331320Y-8221320D01*
X-55371378Y-8172509D01*
X-55418473Y-8120205D01*
X-55428366Y-8103069D01*
X-55437079Y-8092453D01*
X-55469299Y-8032172D01*
X-55507427Y-7966133D01*
X-55511814Y-7952629D01*
X-55515660Y-7945435D01*
X-55536856Y-7875558D01*
X-55562404Y-7796933D01*
X-55563303Y-7788375D01*
X-55564054Y-7785901D01*
X-55571370Y-7711619D01*
X-55581000Y-7620000D01*
X-55571371Y-7528389D01*
X-55564054Y-7454098D01*
X-55563303Y-7451623D01*
X-55562404Y-7443067D01*
X-55536861Y-7364455D01*
X-55515660Y-7294564D01*
X-55511813Y-7287368D01*
X-55507427Y-7273867D01*
X-55469306Y-7207840D01*
X-55437079Y-7147546D01*
X-55428364Y-7136927D01*
X-55418473Y-7119795D01*
X-55371387Y-7067501D01*
X-55331320Y-7018679D01*
X-55316411Y-7006443D01*
X-55299430Y-6987584D01*
X-55247128Y-6949584D01*
X-55202453Y-6912920D01*
X-55180554Y-6901215D01*
X-55155500Y-6883012D01*
X-55101602Y-6859015D01*
X-55055435Y-6834339D01*
X-55026384Y-6825526D01*
X-54992973Y-6810651D01*
X-54940759Y-6799552D01*
X-54895901Y-6785945D01*
X-54860194Y-6782427D01*
X-54818954Y-6773662D01*
X-54771199Y-6773662D01*
X-54730000Y-6769604D01*
X-54688801Y-6773662D01*
G37*
G36*
X-76301016Y-4056936D02*
G01*
X-76250820Y-4056936D01*
X-76207476Y-4066148D01*
X-76169340Y-4069905D01*
X-76121430Y-4084438D01*
X-76066576Y-4096098D01*
X-76031471Y-4111727D01*
X-76000433Y-4121143D01*
X-75951109Y-4147506D01*
X-75894500Y-4172711D01*
X-75868180Y-4191833D01*
X-75844767Y-4204348D01*
X-75797002Y-4243546D01*
X-75742113Y-4283427D01*
X-75724291Y-4303219D01*
X-75708324Y-4316324D01*
X-75665416Y-4368607D01*
X-75616076Y-4423405D01*
X-75605710Y-4441359D01*
X-75596348Y-4452767D01*
X-75561712Y-4517565D01*
X-75521896Y-4586530D01*
X-75517315Y-4600626D01*
X-75513143Y-4608433D01*
X-75490132Y-4684288D01*
X-75463689Y-4765672D01*
X-75462758Y-4774527D01*
X-75461905Y-4777340D01*
X-75453599Y-4861664D01*
X-75444000Y-4953000D01*
X-75453600Y-5044342D01*
X-75461905Y-5128659D01*
X-75462758Y-5131471D01*
X-75463689Y-5140328D01*
X-75490136Y-5221725D01*
X-75513143Y-5297566D01*
X-75517315Y-5305371D01*
X-75521896Y-5319470D01*
X-75561719Y-5388447D01*
X-75596348Y-5453232D01*
X-75605708Y-5464637D01*
X-75616076Y-5482595D01*
X-75665425Y-5537402D01*
X-75708324Y-5589675D01*
X-75724287Y-5602776D01*
X-75742113Y-5622573D01*
X-75797013Y-5662460D01*
X-75844767Y-5701651D01*
X-75868175Y-5714163D01*
X-75894500Y-5733289D01*
X-75951120Y-5758498D01*
X-76000433Y-5784856D01*
X-76031464Y-5794269D01*
X-76066576Y-5809902D01*
X-76121441Y-5821563D01*
X-76169340Y-5836094D01*
X-76207467Y-5839849D01*
X-76250820Y-5849064D01*
X-76301026Y-5849064D01*
X-76344999Y-5853395D01*
X-76388972Y-5849064D01*
X-76439180Y-5849064D01*
X-76482533Y-5839849D01*
X-76520659Y-5836094D01*
X-76568555Y-5821564D01*
X-76623424Y-5809902D01*
X-76658537Y-5794268D01*
X-76689566Y-5784856D01*
X-76738873Y-5758500D01*
X-76795500Y-5733289D01*
X-76821827Y-5714161D01*
X-76845232Y-5701651D01*
X-76892977Y-5662467D01*
X-76947887Y-5622573D01*
X-76965714Y-5602773D01*
X-76981675Y-5589675D01*
X-77024563Y-5537415D01*
X-77073924Y-5482595D01*
X-77084294Y-5464633D01*
X-77093651Y-5453232D01*
X-77128266Y-5388470D01*
X-77168104Y-5319470D01*
X-77172686Y-5305366D01*
X-77176856Y-5297566D01*
X-77199848Y-5221771D01*
X-77226311Y-5140328D01*
X-77227242Y-5131466D01*
X-77228094Y-5128659D01*
X-77236383Y-5044494D01*
X-77246000Y-4953000D01*
X-77236384Y-4861513D01*
X-77228094Y-4777340D01*
X-77227242Y-4774532D01*
X-77226311Y-4765672D01*
X-77199852Y-4684242D01*
X-77176856Y-4608433D01*
X-77172685Y-4600630D01*
X-77168104Y-4586530D01*
X-77128273Y-4517542D01*
X-77093651Y-4452767D01*
X-77084292Y-4441363D01*
X-77073924Y-4423405D01*
X-77024572Y-4368594D01*
X-76981675Y-4316324D01*
X-76965711Y-4303223D01*
X-76947887Y-4283427D01*
X-76892988Y-4243540D01*
X-76845232Y-4204348D01*
X-76821822Y-4191835D01*
X-76795500Y-4172711D01*
X-76738884Y-4147504D01*
X-76689566Y-4121143D01*
X-76658530Y-4111728D01*
X-76623424Y-4096098D01*
X-76568566Y-4084437D01*
X-76520659Y-4069905D01*
X-76482524Y-4066149D01*
X-76439180Y-4056936D01*
X-76388983Y-4056936D01*
X-76345000Y-4052604D01*
X-76301016Y-4056936D01*
G37*
G36*
X-69928801Y-4233662D02*
G01*
X-69881046Y-4233662D01*
X-69839806Y-4242427D01*
X-69804098Y-4245945D01*
X-69759237Y-4259553D01*
X-69707027Y-4270651D01*
X-69673617Y-4285525D01*
X-69644564Y-4294339D01*
X-69598391Y-4319018D01*
X-69544500Y-4343012D01*
X-69519448Y-4361213D01*
X-69497546Y-4372920D01*
X-69452862Y-4409591D01*
X-69400570Y-4447584D01*
X-69383591Y-4466440D01*
X-69368679Y-4478679D01*
X-69328601Y-4527513D01*
X-69281527Y-4579795D01*
X-69271638Y-4596923D01*
X-69262920Y-4607546D01*
X-69230680Y-4667863D01*
X-69192573Y-4733867D01*
X-69188187Y-4747363D01*
X-69184339Y-4754564D01*
X-69163123Y-4824502D01*
X-69137596Y-4903067D01*
X-69136697Y-4911618D01*
X-69135945Y-4914098D01*
X-69128612Y-4988540D01*
X-69119000Y-5080000D01*
X-69128613Y-5171467D01*
X-69135945Y-5245901D01*
X-69136697Y-5248380D01*
X-69137596Y-5256933D01*
X-69163128Y-5335512D01*
X-69184339Y-5405435D01*
X-69188186Y-5412634D01*
X-69192573Y-5426133D01*
X-69230687Y-5492148D01*
X-69262920Y-5552453D01*
X-69271636Y-5563073D01*
X-69281527Y-5580205D01*
X-69328610Y-5632496D01*
X-69368679Y-5681320D01*
X-69383588Y-5693555D01*
X-69400570Y-5712416D01*
X-69452873Y-5750416D01*
X-69497546Y-5787079D01*
X-69519443Y-5798783D01*
X-69544500Y-5816988D01*
X-69598402Y-5840986D01*
X-69644564Y-5865660D01*
X-69673610Y-5874471D01*
X-69707027Y-5889349D01*
X-69759248Y-5900448D01*
X-69804098Y-5914054D01*
X-69839797Y-5917570D01*
X-69881046Y-5926338D01*
X-69928811Y-5926338D01*
X-69970000Y-5930395D01*
X-70011188Y-5926338D01*
X-70058954Y-5926338D01*
X-70100203Y-5917570D01*
X-70135901Y-5914054D01*
X-70180748Y-5900449D01*
X-70232973Y-5889349D01*
X-70266391Y-5874470D01*
X-70295435Y-5865660D01*
X-70341591Y-5840989D01*
X-70395500Y-5816988D01*
X-70420559Y-5798780D01*
X-70442453Y-5787079D01*
X-70487118Y-5750423D01*
X-70539430Y-5712416D01*
X-70556414Y-5693552D01*
X-70571320Y-5681320D01*
X-70611378Y-5632509D01*
X-70658473Y-5580205D01*
X-70668366Y-5563069D01*
X-70677079Y-5552453D01*
X-70709299Y-5492172D01*
X-70747427Y-5426133D01*
X-70751814Y-5412629D01*
X-70755660Y-5405435D01*
X-70776856Y-5335558D01*
X-70802404Y-5256933D01*
X-70803303Y-5248375D01*
X-70804054Y-5245901D01*
X-70811370Y-5171619D01*
X-70821000Y-5080000D01*
X-70811371Y-4988389D01*
X-70804054Y-4914098D01*
X-70803303Y-4911623D01*
X-70802404Y-4903067D01*
X-70776861Y-4824455D01*
X-70755660Y-4754564D01*
X-70751813Y-4747368D01*
X-70747427Y-4733867D01*
X-70709306Y-4667840D01*
X-70677079Y-4607546D01*
X-70668364Y-4596927D01*
X-70658473Y-4579795D01*
X-70611387Y-4527501D01*
X-70571320Y-4478679D01*
X-70556411Y-4466443D01*
X-70539430Y-4447584D01*
X-70487128Y-4409584D01*
X-70442453Y-4372920D01*
X-70420554Y-4361215D01*
X-70395500Y-4343012D01*
X-70341602Y-4319015D01*
X-70295435Y-4294339D01*
X-70266384Y-4285526D01*
X-70232973Y-4270651D01*
X-70180759Y-4259552D01*
X-70135901Y-4245945D01*
X-70100194Y-4242427D01*
X-70058954Y-4233662D01*
X-70011199Y-4233662D01*
X-69970000Y-4229604D01*
X-69928801Y-4233662D01*
G37*
G36*
X-54688801Y-4233662D02*
G01*
X-54641046Y-4233662D01*
X-54599806Y-4242427D01*
X-54564098Y-4245945D01*
X-54519237Y-4259553D01*
X-54467027Y-4270651D01*
X-54433617Y-4285525D01*
X-54404564Y-4294339D01*
X-54358391Y-4319018D01*
X-54304500Y-4343012D01*
X-54279448Y-4361213D01*
X-54257546Y-4372920D01*
X-54212862Y-4409591D01*
X-54160570Y-4447584D01*
X-54143591Y-4466440D01*
X-54128679Y-4478679D01*
X-54088601Y-4527513D01*
X-54041527Y-4579795D01*
X-54031638Y-4596923D01*
X-54022920Y-4607546D01*
X-53990680Y-4667863D01*
X-53952573Y-4733867D01*
X-53948187Y-4747363D01*
X-53944339Y-4754564D01*
X-53923123Y-4824502D01*
X-53897596Y-4903067D01*
X-53896697Y-4911618D01*
X-53895945Y-4914098D01*
X-53888612Y-4988540D01*
X-53879000Y-5080000D01*
X-53888613Y-5171467D01*
X-53895945Y-5245901D01*
X-53896697Y-5248380D01*
X-53897596Y-5256933D01*
X-53923128Y-5335512D01*
X-53944339Y-5405435D01*
X-53948186Y-5412634D01*
X-53952573Y-5426133D01*
X-53990687Y-5492148D01*
X-54022920Y-5552453D01*
X-54031636Y-5563073D01*
X-54041527Y-5580205D01*
X-54088610Y-5632496D01*
X-54128679Y-5681320D01*
X-54143588Y-5693555D01*
X-54160570Y-5712416D01*
X-54212873Y-5750416D01*
X-54257546Y-5787079D01*
X-54279443Y-5798783D01*
X-54304500Y-5816988D01*
X-54358402Y-5840986D01*
X-54404564Y-5865660D01*
X-54433610Y-5874471D01*
X-54467027Y-5889349D01*
X-54519248Y-5900448D01*
X-54564098Y-5914054D01*
X-54599797Y-5917570D01*
X-54641046Y-5926338D01*
X-54688811Y-5926338D01*
X-54730000Y-5930395D01*
X-54771188Y-5926338D01*
X-54818954Y-5926338D01*
X-54860203Y-5917570D01*
X-54895901Y-5914054D01*
X-54940748Y-5900449D01*
X-54992973Y-5889349D01*
X-55026391Y-5874470D01*
X-55055435Y-5865660D01*
X-55101591Y-5840989D01*
X-55155500Y-5816988D01*
X-55180559Y-5798780D01*
X-55202453Y-5787079D01*
X-55247118Y-5750423D01*
X-55299430Y-5712416D01*
X-55316414Y-5693552D01*
X-55331320Y-5681320D01*
X-55371378Y-5632509D01*
X-55418473Y-5580205D01*
X-55428366Y-5563069D01*
X-55437079Y-5552453D01*
X-55469299Y-5492172D01*
X-55507427Y-5426133D01*
X-55511814Y-5412629D01*
X-55515660Y-5405435D01*
X-55536856Y-5335558D01*
X-55562404Y-5256933D01*
X-55563303Y-5248375D01*
X-55564054Y-5245901D01*
X-55571370Y-5171619D01*
X-55581000Y-5080000D01*
X-55571371Y-4988389D01*
X-55564054Y-4914098D01*
X-55563303Y-4911623D01*
X-55562404Y-4903067D01*
X-55536861Y-4824455D01*
X-55515660Y-4754564D01*
X-55511813Y-4747368D01*
X-55507427Y-4733867D01*
X-55469306Y-4667840D01*
X-55437079Y-4607546D01*
X-55428364Y-4596927D01*
X-55418473Y-4579795D01*
X-55371387Y-4527501D01*
X-55331320Y-4478679D01*
X-55316411Y-4466443D01*
X-55299430Y-4447584D01*
X-55247128Y-4409584D01*
X-55202453Y-4372920D01*
X-55180554Y-4361215D01*
X-55155500Y-4343012D01*
X-55101602Y-4319015D01*
X-55055435Y-4294339D01*
X-55026384Y-4285526D01*
X-54992973Y-4270651D01*
X-54940759Y-4259552D01*
X-54895901Y-4245945D01*
X-54860194Y-4242427D01*
X-54818954Y-4233662D01*
X-54771199Y-4233662D01*
X-54730000Y-4229604D01*
X-54688801Y-4233662D01*
G37*
G36*
X-50746086Y-4336995D02*
G01*
X-50730274Y-4343976D01*
X-50722468Y-4345213D01*
X-50689953Y-4361780D01*
X-50644894Y-4381676D01*
X-50566676Y-4459894D01*
X-50546780Y-4504953D01*
X-50530213Y-4537468D01*
X-50528976Y-4545274D01*
X-50521995Y-4561086D01*
X-50514000Y-4630000D01*
X-50514000Y-5530000D01*
X-50521995Y-5598914D01*
X-50528976Y-5614726D01*
X-50530213Y-5622531D01*
X-50546776Y-5655039D01*
X-50566676Y-5700106D01*
X-50644894Y-5778324D01*
X-50689967Y-5798226D01*
X-50722468Y-5814786D01*
X-50730270Y-5816021D01*
X-50746086Y-5823005D01*
X-50815000Y-5831000D01*
X-51340000Y-5831000D01*
X-51408914Y-5823005D01*
X-51424729Y-5816021D01*
X-51432531Y-5814786D01*
X-51465024Y-5798229D01*
X-51510106Y-5778324D01*
X-51588324Y-5700106D01*
X-51608229Y-5655024D01*
X-51624786Y-5622531D01*
X-51626021Y-5614729D01*
X-51633005Y-5598914D01*
X-51641000Y-5530000D01*
X-51641000Y-4630000D01*
X-51633005Y-4561086D01*
X-51626021Y-4545270D01*
X-51624786Y-4537468D01*
X-51608226Y-4504967D01*
X-51588324Y-4459894D01*
X-51510106Y-4381676D01*
X-51465039Y-4361776D01*
X-51432531Y-4345213D01*
X-51424726Y-4343976D01*
X-51408914Y-4336995D01*
X-51340000Y-4329000D01*
X-50815000Y-4329000D01*
X-50746086Y-4336995D01*
G37*
G36*
X-48921086Y-4336995D02*
G01*
X-48905274Y-4343976D01*
X-48897468Y-4345213D01*
X-48864953Y-4361780D01*
X-48819894Y-4381676D01*
X-48741676Y-4459894D01*
X-48721780Y-4504953D01*
X-48705213Y-4537468D01*
X-48703976Y-4545274D01*
X-48696995Y-4561086D01*
X-48689000Y-4630000D01*
X-48689000Y-5530000D01*
X-48696995Y-5598914D01*
X-48703976Y-5614726D01*
X-48705213Y-5622531D01*
X-48721776Y-5655039D01*
X-48741676Y-5700106D01*
X-48819894Y-5778324D01*
X-48864967Y-5798226D01*
X-48897468Y-5814786D01*
X-48905270Y-5816021D01*
X-48921086Y-5823005D01*
X-48990000Y-5831000D01*
X-49515000Y-5831000D01*
X-49583914Y-5823005D01*
X-49599729Y-5816021D01*
X-49607531Y-5814786D01*
X-49640024Y-5798229D01*
X-49685106Y-5778324D01*
X-49763324Y-5700106D01*
X-49783229Y-5655024D01*
X-49799786Y-5622531D01*
X-49801021Y-5614729D01*
X-49808005Y-5598914D01*
X-49816000Y-5530000D01*
X-49816000Y-4630000D01*
X-49808005Y-4561086D01*
X-49801021Y-4545270D01*
X-49799786Y-4537468D01*
X-49783226Y-4504967D01*
X-49763324Y-4459894D01*
X-49685106Y-4381676D01*
X-49640039Y-4361776D01*
X-49607531Y-4345213D01*
X-49599726Y-4343976D01*
X-49583914Y-4336995D01*
X-49515000Y-4329000D01*
X-48990000Y-4329000D01*
X-48921086Y-4336995D01*
G37*
G36*
X-84301324Y-4887591D02*
G01*
X-84263816Y-4887591D01*
X-84233329Y-4896542D01*
X-84211549Y-4899410D01*
X-84182292Y-4911528D01*
X-84140648Y-4923756D01*
X-84118666Y-4937882D01*
X-84103038Y-4944356D01*
X-84074398Y-4966331D01*
X-84032658Y-4993157D01*
X-84019202Y-5008686D01*
X-84009858Y-5015856D01*
X-83985633Y-5047426D01*
X-83948595Y-5090171D01*
X-83942362Y-5103818D01*
X-83938356Y-5109040D01*
X-83922537Y-5147228D01*
X-83895269Y-5206939D01*
X-83893920Y-5216315D01*
X-83893410Y-5217549D01*
X-83889790Y-5245042D01*
X-83877000Y-5334000D01*
X-83889791Y-5422965D01*
X-83893410Y-5450450D01*
X-83893920Y-5451682D01*
X-83895269Y-5461061D01*
X-83922536Y-5520768D01*
X-83938356Y-5558961D01*
X-83942363Y-5564183D01*
X-83948595Y-5577829D01*
X-83985634Y-5620574D01*
X-84009857Y-5652142D01*
X-84019198Y-5659310D01*
X-84032658Y-5674843D01*
X-84074407Y-5701673D01*
X-84103038Y-5723643D01*
X-84118662Y-5730114D01*
X-84140648Y-5744244D01*
X-84182301Y-5756474D01*
X-84211549Y-5768589D01*
X-84233323Y-5771455D01*
X-84263816Y-5780409D01*
X-84301331Y-5780409D01*
X-84328000Y-5783920D01*
X-84354669Y-5780409D01*
X-84392184Y-5780409D01*
X-84422677Y-5771455D01*
X-84444450Y-5768589D01*
X-84473695Y-5756475D01*
X-84515352Y-5744244D01*
X-84537339Y-5730113D01*
X-84552961Y-5723643D01*
X-84581586Y-5701677D01*
X-84623342Y-5674843D01*
X-84636803Y-5659308D01*
X-84646142Y-5652142D01*
X-84670356Y-5620584D01*
X-84707405Y-5577829D01*
X-84713638Y-5564180D01*
X-84717643Y-5558961D01*
X-84733452Y-5520791D01*
X-84760731Y-5461061D01*
X-84762079Y-5451678D01*
X-84762589Y-5450450D01*
X-84766196Y-5423048D01*
X-84779000Y-5334000D01*
X-84766197Y-5244960D01*
X-84762589Y-5217549D01*
X-84762079Y-5216319D01*
X-84760731Y-5206939D01*
X-84733451Y-5147205D01*
X-84717643Y-5109040D01*
X-84713639Y-5103822D01*
X-84707405Y-5090171D01*
X-84670359Y-5047417D01*
X-84646142Y-5015857D01*
X-84636800Y-5008689D01*
X-84623342Y-4993157D01*
X-84581586Y-4966322D01*
X-84552959Y-4944356D01*
X-84537338Y-4937885D01*
X-84515352Y-4923756D01*
X-84473701Y-4911526D01*
X-84444450Y-4899410D01*
X-84422671Y-4896542D01*
X-84392184Y-4887591D01*
X-84354676Y-4887591D01*
X-84328000Y-4884079D01*
X-84301324Y-4887591D01*
G37*
G36*
X-76301016Y-1516936D02*
G01*
X-76250820Y-1516936D01*
X-76207476Y-1526148D01*
X-76169340Y-1529905D01*
X-76121430Y-1544438D01*
X-76066576Y-1556098D01*
X-76031471Y-1571727D01*
X-76000433Y-1581143D01*
X-75951109Y-1607506D01*
X-75894500Y-1632711D01*
X-75868180Y-1651833D01*
X-75844767Y-1664348D01*
X-75797002Y-1703546D01*
X-75742113Y-1743427D01*
X-75724291Y-1763219D01*
X-75708324Y-1776324D01*
X-75665416Y-1828607D01*
X-75616076Y-1883405D01*
X-75605710Y-1901359D01*
X-75596348Y-1912767D01*
X-75561712Y-1977565D01*
X-75521896Y-2046530D01*
X-75517315Y-2060626D01*
X-75513143Y-2068433D01*
X-75490132Y-2144288D01*
X-75463689Y-2225672D01*
X-75462758Y-2234527D01*
X-75461905Y-2237340D01*
X-75453598Y-2321672D01*
X-75444000Y-2413000D01*
X-75453601Y-2504349D01*
X-75461905Y-2588659D01*
X-75462758Y-2591471D01*
X-75463689Y-2600328D01*
X-75490136Y-2681725D01*
X-75513143Y-2757566D01*
X-75517315Y-2765371D01*
X-75521896Y-2779470D01*
X-75561719Y-2848447D01*
X-75596348Y-2913232D01*
X-75605708Y-2924637D01*
X-75616076Y-2942595D01*
X-75665425Y-2997402D01*
X-75708324Y-3049675D01*
X-75724287Y-3062776D01*
X-75742113Y-3082573D01*
X-75797013Y-3122460D01*
X-75844767Y-3161651D01*
X-75868175Y-3174163D01*
X-75894500Y-3193289D01*
X-75951120Y-3218498D01*
X-76000433Y-3244856D01*
X-76031464Y-3254269D01*
X-76066576Y-3269902D01*
X-76121441Y-3281563D01*
X-76169340Y-3296094D01*
X-76207467Y-3299849D01*
X-76250820Y-3309064D01*
X-76301026Y-3309064D01*
X-76344999Y-3313395D01*
X-76388972Y-3309064D01*
X-76439180Y-3309064D01*
X-76482533Y-3299849D01*
X-76520659Y-3296094D01*
X-76568555Y-3281564D01*
X-76623424Y-3269902D01*
X-76658537Y-3254268D01*
X-76689566Y-3244856D01*
X-76738873Y-3218500D01*
X-76795500Y-3193289D01*
X-76821827Y-3174161D01*
X-76845232Y-3161651D01*
X-76892977Y-3122467D01*
X-76947887Y-3082573D01*
X-76965714Y-3062773D01*
X-76981675Y-3049675D01*
X-77024563Y-2997415D01*
X-77073924Y-2942595D01*
X-77084294Y-2924633D01*
X-77093651Y-2913232D01*
X-77128266Y-2848470D01*
X-77168104Y-2779470D01*
X-77172686Y-2765366D01*
X-77176856Y-2757566D01*
X-77199848Y-2681771D01*
X-77226311Y-2600328D01*
X-77227242Y-2591466D01*
X-77228094Y-2588659D01*
X-77236382Y-2504501D01*
X-77246000Y-2413000D01*
X-77236385Y-2321520D01*
X-77228094Y-2237340D01*
X-77227242Y-2234532D01*
X-77226311Y-2225672D01*
X-77199852Y-2144242D01*
X-77176856Y-2068433D01*
X-77172685Y-2060630D01*
X-77168104Y-2046530D01*
X-77128273Y-1977542D01*
X-77093651Y-1912767D01*
X-77084292Y-1901363D01*
X-77073924Y-1883405D01*
X-77024572Y-1828594D01*
X-76981675Y-1776324D01*
X-76965711Y-1763223D01*
X-76947887Y-1743427D01*
X-76892988Y-1703540D01*
X-76845232Y-1664348D01*
X-76821822Y-1651835D01*
X-76795500Y-1632711D01*
X-76738884Y-1607504D01*
X-76689566Y-1581143D01*
X-76658530Y-1571728D01*
X-76623424Y-1556098D01*
X-76568566Y-1544437D01*
X-76520659Y-1529905D01*
X-76482524Y-1526149D01*
X-76439180Y-1516936D01*
X-76388983Y-1516936D01*
X-76345000Y-1512604D01*
X-76301016Y-1516936D01*
G37*
G36*
X-69928801Y-1693662D02*
G01*
X-69881046Y-1693662D01*
X-69839806Y-1702427D01*
X-69804098Y-1705945D01*
X-69759237Y-1719553D01*
X-69707027Y-1730651D01*
X-69673617Y-1745525D01*
X-69644564Y-1754339D01*
X-69598391Y-1779018D01*
X-69544500Y-1803012D01*
X-69519448Y-1821213D01*
X-69497546Y-1832920D01*
X-69452862Y-1869591D01*
X-69400570Y-1907584D01*
X-69383591Y-1926440D01*
X-69368679Y-1938679D01*
X-69328601Y-1987513D01*
X-69281527Y-2039795D01*
X-69271638Y-2056923D01*
X-69262920Y-2067546D01*
X-69230680Y-2127863D01*
X-69192573Y-2193867D01*
X-69188187Y-2207363D01*
X-69184339Y-2214564D01*
X-69163123Y-2284502D01*
X-69137596Y-2363067D01*
X-69136697Y-2371618D01*
X-69135945Y-2374098D01*
X-69128612Y-2448540D01*
X-69119000Y-2540000D01*
X-69128613Y-2631467D01*
X-69135945Y-2705901D01*
X-69136697Y-2708380D01*
X-69137596Y-2716933D01*
X-69163128Y-2795512D01*
X-69184339Y-2865435D01*
X-69188186Y-2872634D01*
X-69192573Y-2886133D01*
X-69230687Y-2952148D01*
X-69262920Y-3012453D01*
X-69271636Y-3023073D01*
X-69281527Y-3040205D01*
X-69328610Y-3092496D01*
X-69368679Y-3141320D01*
X-69383588Y-3153555D01*
X-69400570Y-3172416D01*
X-69452873Y-3210416D01*
X-69497546Y-3247079D01*
X-69519443Y-3258783D01*
X-69544500Y-3276988D01*
X-69598402Y-3300986D01*
X-69644564Y-3325660D01*
X-69673610Y-3334471D01*
X-69707027Y-3349349D01*
X-69759248Y-3360448D01*
X-69804098Y-3374054D01*
X-69839797Y-3377570D01*
X-69881046Y-3386338D01*
X-69928811Y-3386338D01*
X-69970000Y-3390395D01*
X-70011188Y-3386338D01*
X-70058954Y-3386338D01*
X-70100203Y-3377570D01*
X-70135901Y-3374054D01*
X-70180748Y-3360449D01*
X-70232973Y-3349349D01*
X-70266391Y-3334470D01*
X-70295435Y-3325660D01*
X-70341591Y-3300989D01*
X-70395500Y-3276988D01*
X-70420559Y-3258780D01*
X-70442453Y-3247079D01*
X-70487118Y-3210423D01*
X-70539430Y-3172416D01*
X-70556414Y-3153552D01*
X-70571320Y-3141320D01*
X-70611378Y-3092509D01*
X-70658473Y-3040205D01*
X-70668366Y-3023069D01*
X-70677079Y-3012453D01*
X-70709299Y-2952172D01*
X-70747427Y-2886133D01*
X-70751814Y-2872629D01*
X-70755660Y-2865435D01*
X-70776856Y-2795558D01*
X-70802404Y-2716933D01*
X-70803303Y-2708375D01*
X-70804054Y-2705901D01*
X-70811370Y-2631619D01*
X-70821000Y-2540000D01*
X-70811371Y-2448389D01*
X-70804054Y-2374098D01*
X-70803303Y-2371623D01*
X-70802404Y-2363067D01*
X-70776861Y-2284455D01*
X-70755660Y-2214564D01*
X-70751813Y-2207368D01*
X-70747427Y-2193867D01*
X-70709306Y-2127840D01*
X-70677079Y-2067546D01*
X-70668364Y-2056927D01*
X-70658473Y-2039795D01*
X-70611387Y-1987501D01*
X-70571320Y-1938679D01*
X-70556411Y-1926443D01*
X-70539430Y-1907584D01*
X-70487128Y-1869584D01*
X-70442453Y-1832920D01*
X-70420554Y-1821215D01*
X-70395500Y-1803012D01*
X-70341602Y-1779015D01*
X-70295435Y-1754339D01*
X-70266384Y-1745526D01*
X-70232973Y-1730651D01*
X-70180759Y-1719552D01*
X-70135901Y-1705945D01*
X-70100194Y-1702427D01*
X-70058954Y-1693662D01*
X-70011199Y-1693662D01*
X-69970000Y-1689604D01*
X-69928801Y-1693662D01*
G37*
G36*
X-54688801Y-1693662D02*
G01*
X-54641046Y-1693662D01*
X-54599806Y-1702427D01*
X-54564098Y-1705945D01*
X-54519237Y-1719553D01*
X-54467027Y-1730651D01*
X-54433617Y-1745525D01*
X-54404564Y-1754339D01*
X-54358391Y-1779018D01*
X-54304500Y-1803012D01*
X-54279448Y-1821213D01*
X-54257546Y-1832920D01*
X-54212862Y-1869591D01*
X-54160570Y-1907584D01*
X-54143591Y-1926440D01*
X-54128679Y-1938679D01*
X-54088601Y-1987513D01*
X-54041527Y-2039795D01*
X-54031638Y-2056923D01*
X-54022920Y-2067546D01*
X-53990680Y-2127863D01*
X-53952573Y-2193867D01*
X-53948187Y-2207363D01*
X-53944339Y-2214564D01*
X-53923123Y-2284502D01*
X-53897596Y-2363067D01*
X-53896697Y-2371618D01*
X-53895945Y-2374098D01*
X-53888612Y-2448540D01*
X-53879000Y-2540000D01*
X-53888613Y-2631467D01*
X-53895945Y-2705901D01*
X-53896697Y-2708380D01*
X-53897596Y-2716933D01*
X-53923128Y-2795512D01*
X-53944339Y-2865435D01*
X-53948186Y-2872634D01*
X-53952573Y-2886133D01*
X-53990687Y-2952148D01*
X-54022920Y-3012453D01*
X-54031636Y-3023073D01*
X-54041527Y-3040205D01*
X-54088610Y-3092496D01*
X-54128679Y-3141320D01*
X-54143588Y-3153555D01*
X-54160570Y-3172416D01*
X-54212873Y-3210416D01*
X-54257546Y-3247079D01*
X-54279443Y-3258783D01*
X-54304500Y-3276988D01*
X-54358402Y-3300986D01*
X-54404564Y-3325660D01*
X-54433610Y-3334471D01*
X-54467027Y-3349349D01*
X-54519248Y-3360448D01*
X-54564098Y-3374054D01*
X-54599797Y-3377570D01*
X-54641046Y-3386338D01*
X-54688811Y-3386338D01*
X-54730000Y-3390395D01*
X-54771188Y-3386338D01*
X-54818954Y-3386338D01*
X-54860203Y-3377570D01*
X-54895901Y-3374054D01*
X-54940748Y-3360449D01*
X-54992973Y-3349349D01*
X-55026391Y-3334470D01*
X-55055435Y-3325660D01*
X-55101591Y-3300989D01*
X-55155500Y-3276988D01*
X-55180559Y-3258780D01*
X-55202453Y-3247079D01*
X-55247118Y-3210423D01*
X-55299430Y-3172416D01*
X-55316414Y-3153552D01*
X-55331320Y-3141320D01*
X-55371378Y-3092509D01*
X-55418473Y-3040205D01*
X-55428366Y-3023069D01*
X-55437079Y-3012453D01*
X-55469299Y-2952172D01*
X-55507427Y-2886133D01*
X-55511814Y-2872629D01*
X-55515660Y-2865435D01*
X-55536856Y-2795558D01*
X-55562404Y-2716933D01*
X-55563303Y-2708375D01*
X-55564054Y-2705901D01*
X-55571370Y-2631619D01*
X-55581000Y-2540000D01*
X-55571371Y-2448389D01*
X-55564054Y-2374098D01*
X-55563303Y-2371623D01*
X-55562404Y-2363067D01*
X-55536861Y-2284455D01*
X-55515660Y-2214564D01*
X-55511813Y-2207368D01*
X-55507427Y-2193867D01*
X-55469306Y-2127840D01*
X-55437079Y-2067546D01*
X-55428364Y-2056927D01*
X-55418473Y-2039795D01*
X-55371387Y-1987501D01*
X-55331320Y-1938679D01*
X-55316411Y-1926443D01*
X-55299430Y-1907584D01*
X-55247128Y-1869584D01*
X-55202453Y-1832920D01*
X-55180554Y-1821215D01*
X-55155500Y-1803012D01*
X-55101602Y-1779015D01*
X-55055435Y-1754339D01*
X-55026384Y-1745526D01*
X-54992973Y-1730651D01*
X-54940759Y-1719552D01*
X-54895901Y-1705945D01*
X-54860194Y-1702427D01*
X-54818954Y-1693662D01*
X-54771199Y-1693662D01*
X-54730000Y-1689604D01*
X-54688801Y-1693662D01*
G37*
G36*
X-50281086Y-1626995D02*
G01*
X-50265274Y-1633976D01*
X-50257468Y-1635213D01*
X-50224953Y-1651780D01*
X-50179894Y-1671676D01*
X-50101676Y-1749894D01*
X-50081780Y-1794953D01*
X-50065213Y-1827468D01*
X-50063976Y-1835274D01*
X-50056995Y-1851086D01*
X-50049000Y-1920000D01*
X-50049000Y-2445000D01*
X-50056995Y-2513914D01*
X-50063976Y-2529726D01*
X-50065213Y-2537531D01*
X-50081776Y-2570039D01*
X-50101676Y-2615106D01*
X-50179894Y-2693324D01*
X-50224967Y-2713226D01*
X-50257468Y-2729786D01*
X-50265270Y-2731021D01*
X-50281086Y-2738005D01*
X-50350000Y-2746000D01*
X-51250000Y-2746000D01*
X-51318914Y-2738005D01*
X-51334729Y-2731021D01*
X-51342531Y-2729786D01*
X-51375024Y-2713229D01*
X-51420106Y-2693324D01*
X-51498324Y-2615106D01*
X-51518229Y-2570024D01*
X-51534786Y-2537531D01*
X-51536021Y-2529729D01*
X-51543005Y-2513914D01*
X-51551000Y-2445000D01*
X-51551000Y-1920000D01*
X-51543005Y-1851086D01*
X-51536021Y-1835270D01*
X-51534786Y-1827468D01*
X-51518226Y-1794967D01*
X-51498324Y-1749894D01*
X-51420106Y-1671676D01*
X-51375039Y-1651776D01*
X-51342531Y-1635213D01*
X-51334726Y-1633976D01*
X-51318914Y-1626995D01*
X-51250000Y-1619000D01*
X-50350000Y-1619000D01*
X-50281086Y-1626995D01*
G37*
G36*
X-45778719Y1595177D02*
G01*
X-45720459Y1595177D01*
X-45656796Y1585581D01*
X-45589705Y1580301D01*
X-45535623Y1567317D01*
X-45484046Y1559543D01*
X-45416651Y1538754D01*
X-45345573Y1521690D01*
X-45299612Y1502652D01*
X-45255579Y1489070D01*
X-45186446Y1455777D01*
X-45113615Y1425610D01*
X-45076231Y1402701D01*
X-45040174Y1385337D01*
X-44971587Y1338575D01*
X-44899544Y1294427D01*
X-44870694Y1269787D01*
X-44842637Y1250658D01*
X-44777129Y1189875D01*
X-44708629Y1131371D01*
X-44687826Y1107013D01*
X-44667373Y1088036D01*
X-44607569Y1013045D01*
X-44545573Y940456D01*
X-44531939Y918207D01*
X-44518305Y901111D01*
X-44466886Y812052D01*
X-44414390Y726385D01*
X-44406678Y707768D01*
X-44398766Y694063D01*
X-44358408Y591232D01*
X-44318310Y494427D01*
X-44314994Y480615D01*
X-44311419Y471506D01*
X-44284641Y354186D01*
X-44259699Y250295D01*
X-44259052Y242074D01*
X-44258216Y238412D01*
X-44247315Y92946D01*
X-44240000Y0D01*
X-44247315Y-92946D01*
X-44258216Y-238412D01*
X-44259052Y-242074D01*
X-44259699Y-250295D01*
X-44284641Y-354186D01*
X-44311419Y-471506D01*
X-44314994Y-480615D01*
X-44318310Y-494427D01*
X-44358408Y-591232D01*
X-44398766Y-694063D01*
X-44406678Y-707768D01*
X-44414390Y-726385D01*
X-44466886Y-812052D01*
X-44518305Y-901111D01*
X-44531939Y-918207D01*
X-44545573Y-940456D01*
X-44607569Y-1013045D01*
X-44667373Y-1088036D01*
X-44687826Y-1107013D01*
X-44708629Y-1131371D01*
X-44777129Y-1189875D01*
X-44842637Y-1250658D01*
X-44870694Y-1269787D01*
X-44899544Y-1294427D01*
X-44971587Y-1338575D01*
X-45040174Y-1385337D01*
X-45076231Y-1402701D01*
X-45113615Y-1425610D01*
X-45186446Y-1455777D01*
X-45255579Y-1489070D01*
X-45299612Y-1502652D01*
X-45345573Y-1521690D01*
X-45416651Y-1538754D01*
X-45484046Y-1559543D01*
X-45535623Y-1567317D01*
X-45589705Y-1580301D01*
X-45656796Y-1585581D01*
X-45720459Y-1595177D01*
X-45778719Y-1595177D01*
X-45840000Y-1600000D01*
X-45901281Y-1595177D01*
X-45959541Y-1595177D01*
X-46023202Y-1585581D01*
X-46090295Y-1580301D01*
X-46144377Y-1567316D01*
X-46195953Y-1559543D01*
X-46263344Y-1538755D01*
X-46334427Y-1521690D01*
X-46380390Y-1502651D01*
X-46424420Y-1489070D01*
X-46493543Y-1455781D01*
X-46566385Y-1425610D01*
X-46603775Y-1402696D01*
X-46639824Y-1385337D01*
X-46708395Y-1338585D01*
X-46780456Y-1294427D01*
X-46809309Y-1269783D01*
X-46837362Y-1250658D01*
X-46902857Y-1189886D01*
X-46971371Y-1131371D01*
X-46992177Y-1107009D01*
X-47012626Y-1088036D01*
X-47072415Y-1013062D01*
X-47134427Y-940456D01*
X-47148064Y-918202D01*
X-47161694Y-901111D01*
X-47213095Y-812080D01*
X-47265610Y-726385D01*
X-47273323Y-707762D01*
X-47281233Y-694063D01*
X-47321572Y-591278D01*
X-47361690Y-494427D01*
X-47365007Y-480608D01*
X-47368580Y-471506D01*
X-47395338Y-354270D01*
X-47420301Y-250295D01*
X-47420948Y-242068D01*
X-47421783Y-238412D01*
X-47432663Y-93211D01*
X-47440000Y0D01*
X-47432663Y93211D01*
X-47421783Y238412D01*
X-47420948Y242068D01*
X-47420301Y250295D01*
X-47395338Y354270D01*
X-47368580Y471506D01*
X-47365007Y480608D01*
X-47361690Y494427D01*
X-47321572Y591278D01*
X-47281233Y694063D01*
X-47273323Y707762D01*
X-47265610Y726385D01*
X-47213095Y812080D01*
X-47161694Y901111D01*
X-47148064Y918202D01*
X-47134427Y940456D01*
X-47072415Y1013062D01*
X-47012626Y1088036D01*
X-46992177Y1107009D01*
X-46971371Y1131371D01*
X-46902857Y1189886D01*
X-46837362Y1250658D01*
X-46809309Y1269783D01*
X-46780456Y1294427D01*
X-46708395Y1338585D01*
X-46639824Y1385337D01*
X-46603775Y1402696D01*
X-46566385Y1425610D01*
X-46493543Y1455781D01*
X-46424420Y1489070D01*
X-46380390Y1502651D01*
X-46334427Y1521690D01*
X-46263344Y1538755D01*
X-46195953Y1559543D01*
X-46144377Y1567316D01*
X-46090295Y1580301D01*
X-46023202Y1585581D01*
X-45959541Y1595177D01*
X-45901281Y1595177D01*
X-45840000Y1600000D01*
X-45778719Y1595177D01*
G37*
G36*
X-76301026Y1023064D02*
G01*
X-76250820Y1023064D01*
X-76207467Y1013849D01*
X-76169340Y1010094D01*
X-76121441Y995563D01*
X-76066576Y983902D01*
X-76031464Y968269D01*
X-76000433Y958856D01*
X-75951120Y932498D01*
X-75894500Y907289D01*
X-75868175Y888163D01*
X-75844767Y875651D01*
X-75797013Y836460D01*
X-75742113Y796573D01*
X-75724287Y776776D01*
X-75708324Y763675D01*
X-75665425Y711402D01*
X-75616076Y656595D01*
X-75605708Y638637D01*
X-75596348Y627232D01*
X-75561719Y562447D01*
X-75521896Y493470D01*
X-75517315Y479371D01*
X-75513143Y471566D01*
X-75490136Y395725D01*
X-75463689Y314328D01*
X-75462758Y305471D01*
X-75461905Y302659D01*
X-75453608Y218415D01*
X-75444000Y127000D01*
X-75453608Y35584D01*
X-75461905Y-48659D01*
X-75462758Y-51471D01*
X-75463689Y-60328D01*
X-75490136Y-141725D01*
X-75513143Y-217566D01*
X-75517315Y-225371D01*
X-75521896Y-239470D01*
X-75561719Y-308447D01*
X-75596348Y-373232D01*
X-75605708Y-384637D01*
X-75616076Y-402595D01*
X-75665425Y-457402D01*
X-75708324Y-509675D01*
X-75724287Y-522776D01*
X-75742113Y-542573D01*
X-75797013Y-582460D01*
X-75844767Y-621651D01*
X-75868175Y-634163D01*
X-75894500Y-653289D01*
X-75951120Y-678498D01*
X-76000433Y-704856D01*
X-76031464Y-714269D01*
X-76066576Y-729902D01*
X-76121441Y-741563D01*
X-76169340Y-756094D01*
X-76207467Y-759849D01*
X-76250820Y-769064D01*
X-76301026Y-769064D01*
X-76344999Y-773395D01*
X-76388972Y-769064D01*
X-76439180Y-769064D01*
X-76482533Y-759849D01*
X-76520659Y-756094D01*
X-76568555Y-741564D01*
X-76623424Y-729902D01*
X-76658537Y-714268D01*
X-76689566Y-704856D01*
X-76738873Y-678500D01*
X-76795500Y-653289D01*
X-76821827Y-634161D01*
X-76845232Y-621651D01*
X-76892977Y-582467D01*
X-76947887Y-542573D01*
X-76965714Y-522773D01*
X-76981675Y-509675D01*
X-77024563Y-457415D01*
X-77073924Y-402595D01*
X-77084294Y-384633D01*
X-77093651Y-373232D01*
X-77128266Y-308470D01*
X-77168104Y-239470D01*
X-77172686Y-225366D01*
X-77176856Y-217566D01*
X-77199848Y-141771D01*
X-77226311Y-60328D01*
X-77227242Y-51466D01*
X-77228094Y-48659D01*
X-77236383Y35505D01*
X-77246000Y127000D01*
X-77236383Y218494D01*
X-77228094Y302659D01*
X-77227242Y305466D01*
X-77226311Y314328D01*
X-77199848Y395771D01*
X-77176856Y471566D01*
X-77172686Y479366D01*
X-77168104Y493470D01*
X-77128266Y562470D01*
X-77093651Y627232D01*
X-77084294Y638633D01*
X-77073924Y656595D01*
X-77024563Y711415D01*
X-76981675Y763675D01*
X-76965714Y776773D01*
X-76947887Y796573D01*
X-76892977Y836467D01*
X-76845232Y875651D01*
X-76821827Y888161D01*
X-76795500Y907289D01*
X-76738873Y932500D01*
X-76689566Y958856D01*
X-76658537Y968268D01*
X-76623424Y983902D01*
X-76568555Y995564D01*
X-76520659Y1010094D01*
X-76482533Y1013849D01*
X-76439180Y1023064D01*
X-76388972Y1023064D01*
X-76344999Y1027395D01*
X-76301026Y1023064D01*
G37*
G36*
X-54688811Y846338D02*
G01*
X-54641046Y846338D01*
X-54599797Y837570D01*
X-54564098Y834054D01*
X-54519248Y820448D01*
X-54467027Y809349D01*
X-54433610Y794471D01*
X-54404564Y785660D01*
X-54358402Y760986D01*
X-54304500Y736988D01*
X-54279443Y718783D01*
X-54257546Y707079D01*
X-54212873Y670416D01*
X-54160570Y632416D01*
X-54143588Y613555D01*
X-54128679Y601320D01*
X-54088610Y552496D01*
X-54041527Y500205D01*
X-54031636Y483073D01*
X-54022920Y472453D01*
X-53990687Y412148D01*
X-53952573Y346133D01*
X-53948186Y332634D01*
X-53944339Y325435D01*
X-53923128Y255512D01*
X-53897596Y176933D01*
X-53896697Y168380D01*
X-53895945Y165901D01*
X-53888613Y91467D01*
X-53879000Y0D01*
X-53888613Y-91467D01*
X-53895945Y-165901D01*
X-53896697Y-168380D01*
X-53897596Y-176933D01*
X-53923128Y-255512D01*
X-53944339Y-325435D01*
X-53948186Y-332634D01*
X-53952573Y-346133D01*
X-53990687Y-412148D01*
X-54022920Y-472453D01*
X-54031636Y-483073D01*
X-54041527Y-500205D01*
X-54088610Y-552496D01*
X-54128679Y-601320D01*
X-54143588Y-613555D01*
X-54160570Y-632416D01*
X-54212873Y-670416D01*
X-54257546Y-707079D01*
X-54279443Y-718783D01*
X-54304500Y-736988D01*
X-54358402Y-760986D01*
X-54404564Y-785660D01*
X-54433610Y-794471D01*
X-54467027Y-809349D01*
X-54519248Y-820448D01*
X-54564098Y-834054D01*
X-54599797Y-837570D01*
X-54641046Y-846338D01*
X-54688811Y-846338D01*
X-54730000Y-850395D01*
X-54771188Y-846338D01*
X-54818954Y-846338D01*
X-54860203Y-837570D01*
X-54895901Y-834054D01*
X-54940748Y-820449D01*
X-54992973Y-809349D01*
X-55026391Y-794470D01*
X-55055435Y-785660D01*
X-55101591Y-760989D01*
X-55155500Y-736988D01*
X-55180559Y-718780D01*
X-55202453Y-707079D01*
X-55247118Y-670423D01*
X-55299430Y-632416D01*
X-55316414Y-613552D01*
X-55331320Y-601320D01*
X-55371378Y-552509D01*
X-55418473Y-500205D01*
X-55428366Y-483069D01*
X-55437079Y-472453D01*
X-55469299Y-412172D01*
X-55507427Y-346133D01*
X-55511814Y-332629D01*
X-55515660Y-325435D01*
X-55536856Y-255558D01*
X-55562404Y-176933D01*
X-55563303Y-168375D01*
X-55564054Y-165901D01*
X-55571370Y-91619D01*
X-55581000Y0D01*
X-55571370Y91619D01*
X-55564054Y165901D01*
X-55563303Y168375D01*
X-55562404Y176933D01*
X-55536856Y255558D01*
X-55515660Y325435D01*
X-55511814Y332629D01*
X-55507427Y346133D01*
X-55469299Y412172D01*
X-55437079Y472453D01*
X-55428366Y483069D01*
X-55418473Y500205D01*
X-55371378Y552509D01*
X-55331320Y601320D01*
X-55316414Y613552D01*
X-55299430Y632416D01*
X-55247118Y670423D01*
X-55202453Y707079D01*
X-55180559Y718780D01*
X-55155500Y736988D01*
X-55101591Y760989D01*
X-55055435Y785660D01*
X-55026391Y794470D01*
X-54992973Y809349D01*
X-54940748Y820449D01*
X-54895901Y834054D01*
X-54860203Y837570D01*
X-54818954Y846338D01*
X-54771188Y846338D01*
X-54730000Y850395D01*
X-54688811Y846338D01*
G37*
G36*
X-50281086Y198005D02*
G01*
X-50265270Y191021D01*
X-50257468Y189786D01*
X-50224967Y173226D01*
X-50179894Y153324D01*
X-50101676Y75106D01*
X-50081778Y30043D01*
X-50065213Y-2468D01*
X-50063976Y-10274D01*
X-50056995Y-26086D01*
X-50049000Y-95000D01*
X-50049000Y-620000D01*
X-50056995Y-688914D01*
X-50063976Y-704726D01*
X-50065213Y-712531D01*
X-50081776Y-745039D01*
X-50101676Y-790106D01*
X-50179894Y-868324D01*
X-50224967Y-888226D01*
X-50257468Y-904786D01*
X-50265270Y-906021D01*
X-50281086Y-913005D01*
X-50350000Y-921000D01*
X-51250000Y-921000D01*
X-51318914Y-913005D01*
X-51334729Y-906021D01*
X-51342531Y-904786D01*
X-51375024Y-888229D01*
X-51420106Y-868324D01*
X-51498324Y-790106D01*
X-51518229Y-745024D01*
X-51534786Y-712531D01*
X-51536021Y-704729D01*
X-51543005Y-688914D01*
X-51551000Y-620000D01*
X-51551000Y-95000D01*
X-51543005Y-26086D01*
X-51536021Y-10270D01*
X-51534786Y-2468D01*
X-51518227Y30029D01*
X-51498324Y75106D01*
X-51420106Y153324D01*
X-51375024Y173229D01*
X-51342531Y189786D01*
X-51334729Y191021D01*
X-51318914Y198005D01*
X-51250000Y206000D01*
X-50350000Y206000D01*
X-50281086Y198005D01*
G37*
G36*
X-69928811Y846338D02*
G01*
X-69881046Y846338D01*
X-69839797Y837570D01*
X-69804098Y834054D01*
X-69759248Y820448D01*
X-69707027Y809349D01*
X-69673610Y794471D01*
X-69644564Y785660D01*
X-69598402Y760986D01*
X-69544500Y736988D01*
X-69519443Y718783D01*
X-69497546Y707079D01*
X-69452873Y670416D01*
X-69400570Y632416D01*
X-69383588Y613555D01*
X-69368679Y601320D01*
X-69328610Y552496D01*
X-69281527Y500205D01*
X-69271636Y483073D01*
X-69262920Y472453D01*
X-69230687Y412148D01*
X-69192573Y346133D01*
X-69188186Y332634D01*
X-69184339Y325435D01*
X-69163128Y255512D01*
X-69137596Y176933D01*
X-69136697Y168380D01*
X-69135945Y165901D01*
X-69128613Y91467D01*
X-69119000Y0D01*
X-69128613Y-91467D01*
X-69135945Y-165901D01*
X-69136697Y-168380D01*
X-69137596Y-176933D01*
X-69163128Y-255512D01*
X-69184339Y-325435D01*
X-69188186Y-332634D01*
X-69192573Y-346133D01*
X-69230687Y-412148D01*
X-69262920Y-472453D01*
X-69271636Y-483073D01*
X-69281527Y-500205D01*
X-69328610Y-552496D01*
X-69368679Y-601320D01*
X-69383588Y-613555D01*
X-69400570Y-632416D01*
X-69452873Y-670416D01*
X-69497546Y-707079D01*
X-69519443Y-718783D01*
X-69544500Y-736988D01*
X-69598402Y-760986D01*
X-69644564Y-785660D01*
X-69673610Y-794471D01*
X-69707027Y-809349D01*
X-69759248Y-820448D01*
X-69804098Y-834054D01*
X-69839797Y-837570D01*
X-69881046Y-846338D01*
X-69928811Y-846338D01*
X-69970000Y-850395D01*
X-70011188Y-846338D01*
X-70058954Y-846338D01*
X-70100203Y-837570D01*
X-70135901Y-834054D01*
X-70180748Y-820449D01*
X-70232973Y-809349D01*
X-70266391Y-794470D01*
X-70295435Y-785660D01*
X-70341591Y-760989D01*
X-70395500Y-736988D01*
X-70420559Y-718780D01*
X-70442453Y-707079D01*
X-70487118Y-670423D01*
X-70539430Y-632416D01*
X-70556414Y-613552D01*
X-70571320Y-601320D01*
X-70611378Y-552509D01*
X-70658473Y-500205D01*
X-70668366Y-483069D01*
X-70677079Y-472453D01*
X-70709299Y-412172D01*
X-70747427Y-346133D01*
X-70751814Y-332629D01*
X-70755660Y-325435D01*
X-70776856Y-255558D01*
X-70802404Y-176933D01*
X-70803303Y-168375D01*
X-70804054Y-165901D01*
X-70811370Y-91619D01*
X-70821000Y0D01*
X-70811370Y91619D01*
X-70804054Y165901D01*
X-70803303Y168375D01*
X-70802404Y176933D01*
X-70776856Y255558D01*
X-70755660Y325435D01*
X-70751814Y332629D01*
X-70747427Y346133D01*
X-70709299Y412172D01*
X-70677079Y472453D01*
X-70668366Y483069D01*
X-70658473Y500205D01*
X-70611378Y552509D01*
X-70571320Y601320D01*
X-70556414Y613552D01*
X-70539430Y632416D01*
X-70487118Y670423D01*
X-70442453Y707079D01*
X-70420559Y718780D01*
X-70395500Y736988D01*
X-70341591Y760989D01*
X-70295435Y785660D01*
X-70266391Y794470D01*
X-70232973Y809349D01*
X-70180748Y820449D01*
X-70135901Y834054D01*
X-70100203Y837570D01*
X-70058954Y846338D01*
X-70011188Y846338D01*
X-69970000Y850395D01*
X-69928811Y846338D01*
G37*
G36*
X-41856086Y1378005D02*
G01*
X-41840270Y1371021D01*
X-41832468Y1369786D01*
X-41799967Y1353226D01*
X-41754894Y1333324D01*
X-41676676Y1255106D01*
X-41656776Y1210039D01*
X-41640213Y1177531D01*
X-41638976Y1169726D01*
X-41631995Y1153914D01*
X-41624000Y1085000D01*
X-41624000Y185000D01*
X-41631995Y116086D01*
X-41638976Y100274D01*
X-41640213Y92468D01*
X-41656780Y59953D01*
X-41676676Y14894D01*
X-41754894Y-63324D01*
X-41799967Y-83226D01*
X-41832468Y-99786D01*
X-41840270Y-101021D01*
X-41856086Y-108005D01*
X-41925000Y-116000D01*
X-42450000Y-116000D01*
X-42518914Y-108005D01*
X-42534729Y-101021D01*
X-42542531Y-99786D01*
X-42575024Y-83229D01*
X-42620106Y-63324D01*
X-42698324Y14894D01*
X-42718226Y59967D01*
X-42734786Y92468D01*
X-42736021Y100270D01*
X-42743005Y116086D01*
X-42751000Y185000D01*
X-42751000Y1085000D01*
X-42743005Y1153914D01*
X-42736021Y1169729D01*
X-42734786Y1177531D01*
X-42718229Y1210024D01*
X-42698324Y1255106D01*
X-42620106Y1333324D01*
X-42575024Y1353229D01*
X-42542531Y1369786D01*
X-42534729Y1371021D01*
X-42518914Y1378005D01*
X-42450000Y1386000D01*
X-41925000Y1386000D01*
X-41856086Y1378005D01*
G37*
G36*
X-40031086Y1378005D02*
G01*
X-40015270Y1371021D01*
X-40007468Y1369786D01*
X-39974967Y1353226D01*
X-39929894Y1333324D01*
X-39851676Y1255106D01*
X-39831776Y1210039D01*
X-39815213Y1177531D01*
X-39813976Y1169726D01*
X-39806995Y1153914D01*
X-39799000Y1085000D01*
X-39799000Y185000D01*
X-39806995Y116086D01*
X-39813976Y100274D01*
X-39815213Y92468D01*
X-39831780Y59953D01*
X-39851676Y14894D01*
X-39929894Y-63324D01*
X-39974967Y-83226D01*
X-40007468Y-99786D01*
X-40015270Y-101021D01*
X-40031086Y-108005D01*
X-40100000Y-116000D01*
X-40625000Y-116000D01*
X-40693914Y-108005D01*
X-40709729Y-101021D01*
X-40717531Y-99786D01*
X-40750024Y-83229D01*
X-40795106Y-63324D01*
X-40873324Y14894D01*
X-40893226Y59967D01*
X-40909786Y92468D01*
X-40911021Y100270D01*
X-40918005Y116086D01*
X-40926000Y185000D01*
X-40926000Y1085000D01*
X-40918005Y1153914D01*
X-40911021Y1169729D01*
X-40909786Y1177531D01*
X-40893229Y1210024D01*
X-40873324Y1255106D01*
X-40795106Y1333324D01*
X-40750024Y1353229D01*
X-40717531Y1369786D01*
X-40709729Y1371021D01*
X-40693914Y1378005D01*
X-40625000Y1386000D01*
X-40100000Y1386000D01*
X-40031086Y1378005D01*
G37*
G36*
X-76301026Y3563064D02*
G01*
X-76250820Y3563064D01*
X-76207467Y3553849D01*
X-76169340Y3550094D01*
X-76121441Y3535563D01*
X-76066576Y3523902D01*
X-76031464Y3508269D01*
X-76000433Y3498856D01*
X-75951120Y3472498D01*
X-75894500Y3447289D01*
X-75868175Y3428163D01*
X-75844767Y3415651D01*
X-75797013Y3376460D01*
X-75742113Y3336573D01*
X-75724287Y3316776D01*
X-75708324Y3303675D01*
X-75665425Y3251402D01*
X-75616076Y3196595D01*
X-75605708Y3178637D01*
X-75596348Y3167232D01*
X-75561719Y3102447D01*
X-75521896Y3033470D01*
X-75517315Y3019371D01*
X-75513143Y3011566D01*
X-75490136Y2935725D01*
X-75463689Y2854328D01*
X-75462758Y2845471D01*
X-75461905Y2842659D01*
X-75453600Y2758342D01*
X-75444000Y2667000D01*
X-75453599Y2575664D01*
X-75461905Y2491340D01*
X-75462758Y2488527D01*
X-75463689Y2479672D01*
X-75490132Y2398288D01*
X-75513143Y2322433D01*
X-75517315Y2314626D01*
X-75521896Y2300530D01*
X-75561712Y2231565D01*
X-75596348Y2166767D01*
X-75605710Y2155359D01*
X-75616076Y2137405D01*
X-75665416Y2082607D01*
X-75708324Y2030324D01*
X-75724291Y2017219D01*
X-75742113Y1997427D01*
X-75797002Y1957546D01*
X-75844767Y1918348D01*
X-75868180Y1905833D01*
X-75894500Y1886711D01*
X-75951109Y1861506D01*
X-76000433Y1835143D01*
X-76031471Y1825727D01*
X-76066576Y1810098D01*
X-76121430Y1798438D01*
X-76169340Y1783905D01*
X-76207476Y1780148D01*
X-76250820Y1770936D01*
X-76301016Y1770936D01*
X-76345000Y1766604D01*
X-76388983Y1770936D01*
X-76439180Y1770936D01*
X-76482524Y1780149D01*
X-76520659Y1783905D01*
X-76568566Y1798437D01*
X-76623424Y1810098D01*
X-76658530Y1825728D01*
X-76689566Y1835143D01*
X-76738884Y1861504D01*
X-76795500Y1886711D01*
X-76821822Y1905835D01*
X-76845232Y1918348D01*
X-76892988Y1957540D01*
X-76947887Y1997427D01*
X-76965711Y2017223D01*
X-76981675Y2030324D01*
X-77024572Y2082594D01*
X-77073924Y2137405D01*
X-77084292Y2155363D01*
X-77093651Y2166767D01*
X-77128273Y2231542D01*
X-77168104Y2300530D01*
X-77172685Y2314630D01*
X-77176856Y2322433D01*
X-77199852Y2398242D01*
X-77226311Y2479672D01*
X-77227242Y2488532D01*
X-77228094Y2491340D01*
X-77236384Y2575513D01*
X-77246000Y2667000D01*
X-77236383Y2758494D01*
X-77228094Y2842659D01*
X-77227242Y2845466D01*
X-77226311Y2854328D01*
X-77199848Y2935771D01*
X-77176856Y3011566D01*
X-77172686Y3019366D01*
X-77168104Y3033470D01*
X-77128266Y3102470D01*
X-77093651Y3167232D01*
X-77084294Y3178633D01*
X-77073924Y3196595D01*
X-77024563Y3251415D01*
X-76981675Y3303675D01*
X-76965714Y3316773D01*
X-76947887Y3336573D01*
X-76892977Y3376467D01*
X-76845232Y3415651D01*
X-76821827Y3428161D01*
X-76795500Y3447289D01*
X-76738873Y3472500D01*
X-76689566Y3498856D01*
X-76658537Y3508268D01*
X-76623424Y3523902D01*
X-76568555Y3535564D01*
X-76520659Y3550094D01*
X-76482533Y3553849D01*
X-76439180Y3563064D01*
X-76388972Y3563064D01*
X-76344999Y3567395D01*
X-76301026Y3563064D01*
G37*
G36*
X-48660483Y3437118D02*
G01*
X-48643938Y3426062D01*
X-48632882Y3409517D01*
X-48629000Y3390000D01*
X-48629000Y1690000D01*
X-48632882Y1670483D01*
X-48643938Y1653938D01*
X-48660483Y1642882D01*
X-48680000Y1639000D01*
X-48692313Y1639000D01*
X-50367689Y1639000D01*
X-50380000Y1639000D01*
X-50399517Y1642882D01*
X-50416062Y1653938D01*
X-50427118Y1670483D01*
X-50431000Y1690000D01*
X-50431000Y3390000D01*
X-50427118Y3409517D01*
X-50416062Y3426062D01*
X-50399517Y3437118D01*
X-50380000Y3441000D01*
X-48680000Y3441000D01*
X-48660483Y3437118D01*
G37*
G36*
X-69928811Y3386338D02*
G01*
X-69881046Y3386338D01*
X-69839797Y3377570D01*
X-69804098Y3374054D01*
X-69759248Y3360448D01*
X-69707027Y3349349D01*
X-69673610Y3334471D01*
X-69644564Y3325660D01*
X-69598402Y3300986D01*
X-69544500Y3276988D01*
X-69519443Y3258783D01*
X-69497546Y3247079D01*
X-69452873Y3210416D01*
X-69400570Y3172416D01*
X-69383588Y3153555D01*
X-69368679Y3141320D01*
X-69328610Y3092496D01*
X-69281527Y3040205D01*
X-69271636Y3023073D01*
X-69262920Y3012453D01*
X-69230687Y2952148D01*
X-69192573Y2886133D01*
X-69188186Y2872634D01*
X-69184339Y2865435D01*
X-69163128Y2795512D01*
X-69137596Y2716933D01*
X-69136697Y2708380D01*
X-69135945Y2705901D01*
X-69128613Y2631467D01*
X-69119000Y2540000D01*
X-69128612Y2448540D01*
X-69135945Y2374098D01*
X-69136697Y2371618D01*
X-69137596Y2363067D01*
X-69163123Y2284502D01*
X-69184339Y2214564D01*
X-69188187Y2207363D01*
X-69192573Y2193867D01*
X-69230680Y2127863D01*
X-69262920Y2067546D01*
X-69271638Y2056923D01*
X-69281527Y2039795D01*
X-69328601Y1987513D01*
X-69368679Y1938679D01*
X-69383591Y1926440D01*
X-69400570Y1907584D01*
X-69452862Y1869591D01*
X-69497546Y1832920D01*
X-69519448Y1821213D01*
X-69544500Y1803012D01*
X-69598391Y1779018D01*
X-69644564Y1754339D01*
X-69673617Y1745525D01*
X-69707027Y1730651D01*
X-69759237Y1719553D01*
X-69804098Y1705945D01*
X-69839806Y1702427D01*
X-69881046Y1693662D01*
X-69928801Y1693662D01*
X-69970000Y1689604D01*
X-70011199Y1693662D01*
X-70058954Y1693662D01*
X-70100194Y1702427D01*
X-70135901Y1705945D01*
X-70180759Y1719552D01*
X-70232973Y1730651D01*
X-70266384Y1745526D01*
X-70295435Y1754339D01*
X-70341602Y1779015D01*
X-70395500Y1803012D01*
X-70420554Y1821215D01*
X-70442453Y1832920D01*
X-70487128Y1869584D01*
X-70539430Y1907584D01*
X-70556411Y1926443D01*
X-70571320Y1938679D01*
X-70611387Y1987501D01*
X-70658473Y2039795D01*
X-70668364Y2056927D01*
X-70677079Y2067546D01*
X-70709306Y2127840D01*
X-70747427Y2193867D01*
X-70751813Y2207368D01*
X-70755660Y2214564D01*
X-70776861Y2284455D01*
X-70802404Y2363067D01*
X-70803303Y2371623D01*
X-70804054Y2374098D01*
X-70811371Y2448389D01*
X-70821000Y2540000D01*
X-70811370Y2631619D01*
X-70804054Y2705901D01*
X-70803303Y2708375D01*
X-70802404Y2716933D01*
X-70776856Y2795558D01*
X-70755660Y2865435D01*
X-70751814Y2872629D01*
X-70747427Y2886133D01*
X-70709299Y2952172D01*
X-70677079Y3012453D01*
X-70668366Y3023069D01*
X-70658473Y3040205D01*
X-70611378Y3092509D01*
X-70571320Y3141320D01*
X-70556414Y3153552D01*
X-70539430Y3172416D01*
X-70487118Y3210423D01*
X-70442453Y3247079D01*
X-70420559Y3258780D01*
X-70395500Y3276988D01*
X-70341591Y3300989D01*
X-70295435Y3325660D01*
X-70266391Y3334470D01*
X-70232973Y3349349D01*
X-70180748Y3360449D01*
X-70135901Y3374054D01*
X-70100203Y3377570D01*
X-70058954Y3386338D01*
X-70011188Y3386338D01*
X-69970000Y3390395D01*
X-69928811Y3386338D01*
G37*
G36*
X-54688811Y3386338D02*
G01*
X-54641046Y3386338D01*
X-54599797Y3377570D01*
X-54564098Y3374054D01*
X-54519248Y3360448D01*
X-54467027Y3349349D01*
X-54433610Y3334471D01*
X-54404564Y3325660D01*
X-54358402Y3300986D01*
X-54304500Y3276988D01*
X-54279443Y3258783D01*
X-54257546Y3247079D01*
X-54212873Y3210416D01*
X-54160570Y3172416D01*
X-54143588Y3153555D01*
X-54128679Y3141320D01*
X-54088610Y3092496D01*
X-54041527Y3040205D01*
X-54031636Y3023073D01*
X-54022920Y3012453D01*
X-53990687Y2952148D01*
X-53952573Y2886133D01*
X-53948186Y2872634D01*
X-53944339Y2865435D01*
X-53923128Y2795512D01*
X-53897596Y2716933D01*
X-53896697Y2708380D01*
X-53895945Y2705901D01*
X-53888613Y2631467D01*
X-53879000Y2540000D01*
X-53888612Y2448540D01*
X-53895945Y2374098D01*
X-53896697Y2371618D01*
X-53897596Y2363067D01*
X-53923123Y2284502D01*
X-53944339Y2214564D01*
X-53948187Y2207363D01*
X-53952573Y2193867D01*
X-53990680Y2127863D01*
X-54022920Y2067546D01*
X-54031638Y2056923D01*
X-54041527Y2039795D01*
X-54088601Y1987513D01*
X-54128679Y1938679D01*
X-54143591Y1926440D01*
X-54160570Y1907584D01*
X-54212862Y1869591D01*
X-54257546Y1832920D01*
X-54279448Y1821213D01*
X-54304500Y1803012D01*
X-54358391Y1779018D01*
X-54404564Y1754339D01*
X-54433617Y1745525D01*
X-54467027Y1730651D01*
X-54519237Y1719553D01*
X-54564098Y1705945D01*
X-54599806Y1702427D01*
X-54641046Y1693662D01*
X-54688801Y1693662D01*
X-54730000Y1689604D01*
X-54771199Y1693662D01*
X-54818954Y1693662D01*
X-54860194Y1702427D01*
X-54895901Y1705945D01*
X-54940759Y1719552D01*
X-54992973Y1730651D01*
X-55026384Y1745526D01*
X-55055435Y1754339D01*
X-55101602Y1779015D01*
X-55155500Y1803012D01*
X-55180554Y1821215D01*
X-55202453Y1832920D01*
X-55247128Y1869584D01*
X-55299430Y1907584D01*
X-55316411Y1926443D01*
X-55331320Y1938679D01*
X-55371387Y1987501D01*
X-55418473Y2039795D01*
X-55428364Y2056927D01*
X-55437079Y2067546D01*
X-55469306Y2127840D01*
X-55507427Y2193867D01*
X-55511813Y2207368D01*
X-55515660Y2214564D01*
X-55536861Y2284455D01*
X-55562404Y2363067D01*
X-55563303Y2371623D01*
X-55564054Y2374098D01*
X-55571371Y2448389D01*
X-55581000Y2540000D01*
X-55571370Y2631619D01*
X-55564054Y2705901D01*
X-55563303Y2708375D01*
X-55562404Y2716933D01*
X-55536856Y2795558D01*
X-55515660Y2865435D01*
X-55511814Y2872629D01*
X-55507427Y2886133D01*
X-55469299Y2952172D01*
X-55437079Y3012453D01*
X-55428366Y3023069D01*
X-55418473Y3040205D01*
X-55371378Y3092509D01*
X-55331320Y3141320D01*
X-55316414Y3153552D01*
X-55299430Y3172416D01*
X-55247118Y3210423D01*
X-55202453Y3247079D01*
X-55180559Y3258780D01*
X-55155500Y3276988D01*
X-55101591Y3300989D01*
X-55055435Y3325660D01*
X-55026391Y3334470D01*
X-54992973Y3349349D01*
X-54940748Y3360449D01*
X-54895901Y3374054D01*
X-54860203Y3377570D01*
X-54818954Y3386338D01*
X-54771188Y3386338D01*
X-54730000Y3390395D01*
X-54688811Y3386338D01*
G37*
G36*
X-76301026Y6103064D02*
G01*
X-76250820Y6103064D01*
X-76207467Y6093849D01*
X-76169340Y6090094D01*
X-76121441Y6075563D01*
X-76066576Y6063902D01*
X-76031464Y6048269D01*
X-76000433Y6038856D01*
X-75951120Y6012498D01*
X-75894500Y5987289D01*
X-75868175Y5968163D01*
X-75844767Y5955651D01*
X-75797013Y5916460D01*
X-75742113Y5876573D01*
X-75724287Y5856776D01*
X-75708324Y5843675D01*
X-75665425Y5791402D01*
X-75616076Y5736595D01*
X-75605708Y5718637D01*
X-75596348Y5707232D01*
X-75561719Y5642447D01*
X-75521896Y5573470D01*
X-75517315Y5559371D01*
X-75513143Y5551566D01*
X-75490136Y5475725D01*
X-75463689Y5394328D01*
X-75462758Y5385471D01*
X-75461905Y5382659D01*
X-75453608Y5298415D01*
X-75444000Y5207000D01*
X-75453607Y5115592D01*
X-75461905Y5031340D01*
X-75462758Y5028527D01*
X-75463689Y5019672D01*
X-75490132Y4938288D01*
X-75513143Y4862433D01*
X-75517315Y4854626D01*
X-75521896Y4840530D01*
X-75561712Y4771565D01*
X-75596348Y4706767D01*
X-75605710Y4695359D01*
X-75616076Y4677405D01*
X-75665416Y4622607D01*
X-75708324Y4570324D01*
X-75724291Y4557219D01*
X-75742113Y4537427D01*
X-75797002Y4497546D01*
X-75844767Y4458348D01*
X-75868180Y4445833D01*
X-75894500Y4426711D01*
X-75951109Y4401506D01*
X-76000433Y4375143D01*
X-76031471Y4365727D01*
X-76066576Y4350098D01*
X-76121430Y4338438D01*
X-76169340Y4323905D01*
X-76207476Y4320148D01*
X-76250820Y4310936D01*
X-76301016Y4310936D01*
X-76345000Y4306604D01*
X-76388983Y4310936D01*
X-76439180Y4310936D01*
X-76482524Y4320149D01*
X-76520659Y4323905D01*
X-76568566Y4338437D01*
X-76623424Y4350098D01*
X-76658530Y4365728D01*
X-76689566Y4375143D01*
X-76738884Y4401504D01*
X-76795500Y4426711D01*
X-76821822Y4445835D01*
X-76845232Y4458348D01*
X-76892988Y4497540D01*
X-76947887Y4537427D01*
X-76965711Y4557223D01*
X-76981675Y4570324D01*
X-77024572Y4622594D01*
X-77073924Y4677405D01*
X-77084292Y4695363D01*
X-77093651Y4706767D01*
X-77128273Y4771542D01*
X-77168104Y4840530D01*
X-77172685Y4854630D01*
X-77176856Y4862433D01*
X-77199852Y4938242D01*
X-77226311Y5019672D01*
X-77227242Y5028532D01*
X-77228094Y5031340D01*
X-77236384Y5115513D01*
X-77246000Y5207000D01*
X-77236383Y5298494D01*
X-77228094Y5382659D01*
X-77227242Y5385466D01*
X-77226311Y5394328D01*
X-77199848Y5475771D01*
X-77176856Y5551566D01*
X-77172686Y5559366D01*
X-77168104Y5573470D01*
X-77128266Y5642470D01*
X-77093651Y5707232D01*
X-77084294Y5718633D01*
X-77073924Y5736595D01*
X-77024563Y5791415D01*
X-76981675Y5843675D01*
X-76965714Y5856773D01*
X-76947887Y5876573D01*
X-76892977Y5916467D01*
X-76845232Y5955651D01*
X-76821827Y5968161D01*
X-76795500Y5987289D01*
X-76738873Y6012500D01*
X-76689566Y6038856D01*
X-76658537Y6048268D01*
X-76623424Y6063902D01*
X-76568555Y6075564D01*
X-76520659Y6090094D01*
X-76482533Y6093849D01*
X-76439180Y6103064D01*
X-76388972Y6103064D01*
X-76344999Y6107395D01*
X-76301026Y6103064D01*
G37*
G36*
X-69928811Y5926338D02*
G01*
X-69881046Y5926338D01*
X-69839797Y5917570D01*
X-69804098Y5914054D01*
X-69759248Y5900448D01*
X-69707027Y5889349D01*
X-69673610Y5874471D01*
X-69644564Y5865660D01*
X-69598402Y5840986D01*
X-69544500Y5816988D01*
X-69519443Y5798783D01*
X-69497546Y5787079D01*
X-69452873Y5750416D01*
X-69400570Y5712416D01*
X-69383588Y5693555D01*
X-69368679Y5681320D01*
X-69328610Y5632496D01*
X-69281527Y5580205D01*
X-69271636Y5563073D01*
X-69262920Y5552453D01*
X-69230687Y5492148D01*
X-69192573Y5426133D01*
X-69188186Y5412634D01*
X-69184339Y5405435D01*
X-69163128Y5335512D01*
X-69137596Y5256933D01*
X-69136697Y5248380D01*
X-69135945Y5245901D01*
X-69128613Y5171467D01*
X-69119000Y5080000D01*
X-69128612Y4988540D01*
X-69135945Y4914098D01*
X-69136697Y4911618D01*
X-69137596Y4903067D01*
X-69163123Y4824502D01*
X-69184339Y4754564D01*
X-69188187Y4747363D01*
X-69192573Y4733867D01*
X-69230680Y4667863D01*
X-69262920Y4607546D01*
X-69271638Y4596923D01*
X-69281527Y4579795D01*
X-69328601Y4527513D01*
X-69368679Y4478679D01*
X-69383591Y4466440D01*
X-69400570Y4447584D01*
X-69452862Y4409591D01*
X-69497546Y4372920D01*
X-69519448Y4361213D01*
X-69544500Y4343012D01*
X-69598391Y4319018D01*
X-69644564Y4294339D01*
X-69673617Y4285525D01*
X-69707027Y4270651D01*
X-69759237Y4259553D01*
X-69804098Y4245945D01*
X-69839806Y4242427D01*
X-69881046Y4233662D01*
X-69928801Y4233662D01*
X-69970000Y4229604D01*
X-70011199Y4233662D01*
X-70058954Y4233662D01*
X-70100194Y4242427D01*
X-70135901Y4245945D01*
X-70180759Y4259552D01*
X-70232973Y4270651D01*
X-70266384Y4285526D01*
X-70295435Y4294339D01*
X-70341602Y4319015D01*
X-70395500Y4343012D01*
X-70420554Y4361215D01*
X-70442453Y4372920D01*
X-70487128Y4409584D01*
X-70539430Y4447584D01*
X-70556411Y4466443D01*
X-70571320Y4478679D01*
X-70611387Y4527501D01*
X-70658473Y4579795D01*
X-70668364Y4596927D01*
X-70677079Y4607546D01*
X-70709306Y4667840D01*
X-70747427Y4733867D01*
X-70751813Y4747368D01*
X-70755660Y4754564D01*
X-70776861Y4824455D01*
X-70802404Y4903067D01*
X-70803303Y4911623D01*
X-70804054Y4914098D01*
X-70811371Y4988389D01*
X-70821000Y5080000D01*
X-70811370Y5171619D01*
X-70804054Y5245901D01*
X-70803303Y5248375D01*
X-70802404Y5256933D01*
X-70776856Y5335558D01*
X-70755660Y5405435D01*
X-70751814Y5412629D01*
X-70747427Y5426133D01*
X-70709299Y5492172D01*
X-70677079Y5552453D01*
X-70668366Y5563069D01*
X-70658473Y5580205D01*
X-70611378Y5632509D01*
X-70571320Y5681320D01*
X-70556414Y5693552D01*
X-70539430Y5712416D01*
X-70487118Y5750423D01*
X-70442453Y5787079D01*
X-70420559Y5798780D01*
X-70395500Y5816988D01*
X-70341591Y5840989D01*
X-70295435Y5865660D01*
X-70266391Y5874470D01*
X-70232973Y5889349D01*
X-70180748Y5900449D01*
X-70135901Y5914054D01*
X-70100203Y5917570D01*
X-70058954Y5926338D01*
X-70011188Y5926338D01*
X-69970000Y5930395D01*
X-69928811Y5926338D01*
G37*
G36*
X-54688811Y5926338D02*
G01*
X-54641046Y5926338D01*
X-54599797Y5917570D01*
X-54564098Y5914054D01*
X-54519248Y5900448D01*
X-54467027Y5889349D01*
X-54433610Y5874471D01*
X-54404564Y5865660D01*
X-54358402Y5840986D01*
X-54304500Y5816988D01*
X-54279443Y5798783D01*
X-54257546Y5787079D01*
X-54212873Y5750416D01*
X-54160570Y5712416D01*
X-54143588Y5693555D01*
X-54128679Y5681320D01*
X-54088610Y5632496D01*
X-54041527Y5580205D01*
X-54031636Y5563073D01*
X-54022920Y5552453D01*
X-53990687Y5492148D01*
X-53952573Y5426133D01*
X-53948186Y5412634D01*
X-53944339Y5405435D01*
X-53923128Y5335512D01*
X-53897596Y5256933D01*
X-53896697Y5248380D01*
X-53895945Y5245901D01*
X-53888613Y5171467D01*
X-53879000Y5080000D01*
X-53888612Y4988540D01*
X-53895945Y4914098D01*
X-53896697Y4911618D01*
X-53897596Y4903067D01*
X-53923123Y4824502D01*
X-53944339Y4754564D01*
X-53948187Y4747363D01*
X-53952573Y4733867D01*
X-53990680Y4667863D01*
X-54022920Y4607546D01*
X-54031638Y4596923D01*
X-54041527Y4579795D01*
X-54088601Y4527513D01*
X-54128679Y4478679D01*
X-54143591Y4466440D01*
X-54160570Y4447584D01*
X-54212862Y4409591D01*
X-54257546Y4372920D01*
X-54279448Y4361213D01*
X-54304500Y4343012D01*
X-54358391Y4319018D01*
X-54404564Y4294339D01*
X-54433617Y4285525D01*
X-54467027Y4270651D01*
X-54519237Y4259553D01*
X-54564098Y4245945D01*
X-54599806Y4242427D01*
X-54641046Y4233662D01*
X-54688801Y4233662D01*
X-54730000Y4229604D01*
X-54771199Y4233662D01*
X-54818954Y4233662D01*
X-54860194Y4242427D01*
X-54895901Y4245945D01*
X-54940759Y4259552D01*
X-54992973Y4270651D01*
X-55026384Y4285526D01*
X-55055435Y4294339D01*
X-55101602Y4319015D01*
X-55155500Y4343012D01*
X-55180554Y4361215D01*
X-55202453Y4372920D01*
X-55247128Y4409584D01*
X-55299430Y4447584D01*
X-55316411Y4466443D01*
X-55331320Y4478679D01*
X-55371387Y4527501D01*
X-55418473Y4579795D01*
X-55428364Y4596927D01*
X-55437079Y4607546D01*
X-55469306Y4667840D01*
X-55507427Y4733867D01*
X-55511813Y4747368D01*
X-55515660Y4754564D01*
X-55536861Y4824455D01*
X-55562404Y4903067D01*
X-55563303Y4911623D01*
X-55564054Y4914098D01*
X-55571371Y4988389D01*
X-55581000Y5080000D01*
X-55571370Y5171619D01*
X-55564054Y5245901D01*
X-55563303Y5248375D01*
X-55562404Y5256933D01*
X-55536856Y5335558D01*
X-55515660Y5405435D01*
X-55511814Y5412629D01*
X-55507427Y5426133D01*
X-55469299Y5492172D01*
X-55437079Y5552453D01*
X-55428366Y5563069D01*
X-55418473Y5580205D01*
X-55371378Y5632509D01*
X-55331320Y5681320D01*
X-55316414Y5693552D01*
X-55299430Y5712416D01*
X-55247118Y5750423D01*
X-55202453Y5787079D01*
X-55180559Y5798780D01*
X-55155500Y5816988D01*
X-55101591Y5840989D01*
X-55055435Y5865660D01*
X-55026391Y5874470D01*
X-54992973Y5889349D01*
X-54940748Y5900449D01*
X-54895901Y5914054D01*
X-54860203Y5917570D01*
X-54818954Y5926338D01*
X-54771188Y5926338D01*
X-54730000Y5930395D01*
X-54688811Y5926338D01*
G37*
G36*
X-48233331Y5526409D02*
G01*
X-48195816Y5526409D01*
X-48165323Y5517455D01*
X-48143549Y5514589D01*
X-48114301Y5502474D01*
X-48072648Y5490244D01*
X-48050662Y5476114D01*
X-48035038Y5469643D01*
X-48006406Y5447673D01*
X-47964658Y5420843D01*
X-47951199Y5405311D01*
X-47941858Y5398143D01*
X-47917640Y5366581D01*
X-47880595Y5323829D01*
X-47874361Y5310178D01*
X-47870356Y5304959D01*
X-47854542Y5266780D01*
X-47827269Y5207061D01*
X-47825920Y5197682D01*
X-47825410Y5196450D01*
X-47821791Y5168965D01*
X-47809000Y5080000D01*
X-47821790Y4991042D01*
X-47825410Y4963549D01*
X-47825920Y4962315D01*
X-47827269Y4952939D01*
X-47854531Y4893241D01*
X-47870356Y4855038D01*
X-47874364Y4849814D01*
X-47880595Y4836171D01*
X-47917627Y4793432D01*
X-47941857Y4761857D01*
X-47951201Y4754686D01*
X-47964658Y4739157D01*
X-48006399Y4712331D01*
X-48035038Y4690356D01*
X-48050666Y4683882D01*
X-48072648Y4669756D01*
X-48114292Y4657528D01*
X-48143549Y4645410D01*
X-48165329Y4642542D01*
X-48195816Y4633591D01*
X-48233324Y4633591D01*
X-48260000Y4630079D01*
X-48286676Y4633591D01*
X-48324184Y4633591D01*
X-48354671Y4642542D01*
X-48376450Y4645410D01*
X-48405703Y4657527D01*
X-48447352Y4669756D01*
X-48469334Y4683883D01*
X-48484961Y4690356D01*
X-48513594Y4712327D01*
X-48555342Y4739157D01*
X-48568800Y4754688D01*
X-48578142Y4761857D01*
X-48602363Y4793422D01*
X-48639405Y4836171D01*
X-48645637Y4849817D01*
X-48649643Y4855038D01*
X-48665457Y4893218D01*
X-48692731Y4952939D01*
X-48694079Y4962319D01*
X-48694589Y4963549D01*
X-48698197Y4990960D01*
X-48711000Y5080000D01*
X-48698196Y5169048D01*
X-48694589Y5196450D01*
X-48694079Y5197678D01*
X-48692731Y5207061D01*
X-48665447Y5266804D01*
X-48649643Y5304959D01*
X-48645640Y5310175D01*
X-48639405Y5323829D01*
X-48602352Y5366590D01*
X-48578142Y5398142D01*
X-48568803Y5405307D01*
X-48555342Y5420843D01*
X-48513578Y5447683D01*
X-48484959Y5469643D01*
X-48469342Y5476111D01*
X-48447352Y5490244D01*
X-48405693Y5502475D01*
X-48376450Y5514589D01*
X-48354677Y5517455D01*
X-48324184Y5526409D01*
X-48286669Y5526409D01*
X-48260000Y5529920D01*
X-48233331Y5526409D01*
G37*
G36*
X-45166325Y4970606D02*
G01*
X-45133391Y4966271D01*
X-45125106Y4962407D01*
X-45105460Y4958500D01*
X-45079437Y4941112D01*
X-45068198Y4935871D01*
X-45061359Y4929032D01*
X-45040251Y4914928D01*
X-45026146Y4893819D01*
X-45019307Y4886980D01*
X-45014065Y4875738D01*
X-44996679Y4849719D01*
X-44992771Y4830074D01*
X-44988907Y4821787D01*
X-44984569Y4788840D01*
X-44981379Y4772800D01*
X-44981379Y4472800D01*
X-44984569Y4456761D01*
X-44988907Y4423812D01*
X-44992771Y4415523D01*
X-44996679Y4395881D01*
X-45014063Y4369863D01*
X-45019307Y4358619D01*
X-45026148Y4351777D01*
X-45040251Y4330672D01*
X-45061356Y4316569D01*
X-45068198Y4309728D01*
X-45079442Y4304484D01*
X-45105460Y4287100D01*
X-45125102Y4283192D01*
X-45133391Y4279328D01*
X-45166340Y4274990D01*
X-45182379Y4271800D01*
X-45190573Y4271800D01*
X-46824184Y4271800D01*
X-46832379Y4271800D01*
X-46848419Y4274990D01*
X-46881366Y4279328D01*
X-46889653Y4283192D01*
X-46909298Y4287100D01*
X-46935317Y4304486D01*
X-46946559Y4309728D01*
X-46953398Y4316567D01*
X-46974507Y4330672D01*
X-46988611Y4351780D01*
X-46995450Y4358619D01*
X-47000691Y4369858D01*
X-47018079Y4395881D01*
X-47021986Y4415527D01*
X-47025850Y4423812D01*
X-47030185Y4456746D01*
X-47033379Y4472800D01*
X-47033379Y4772800D01*
X-47030185Y4788854D01*
X-47025850Y4821787D01*
X-47021987Y4830070D01*
X-47018079Y4849719D01*
X-47000689Y4875743D01*
X-46995450Y4886980D01*
X-46988613Y4893816D01*
X-46974507Y4914928D01*
X-46953395Y4929034D01*
X-46946559Y4935871D01*
X-46935322Y4941110D01*
X-46909298Y4958500D01*
X-46889649Y4962408D01*
X-46881366Y4966271D01*
X-46848433Y4970606D01*
X-46832379Y4973800D01*
X-45182379Y4973800D01*
X-45166325Y4970606D01*
G37*
G36*
X-40216325Y4970606D02*
G01*
X-40183391Y4966271D01*
X-40175106Y4962407D01*
X-40155460Y4958500D01*
X-40129437Y4941112D01*
X-40118198Y4935871D01*
X-40111359Y4929032D01*
X-40090251Y4914928D01*
X-40076146Y4893819D01*
X-40069307Y4886980D01*
X-40064065Y4875738D01*
X-40046679Y4849719D01*
X-40042771Y4830074D01*
X-40038907Y4821787D01*
X-40034569Y4788840D01*
X-40031379Y4772800D01*
X-40031379Y4472800D01*
X-40034569Y4456761D01*
X-40038907Y4423812D01*
X-40042771Y4415523D01*
X-40046679Y4395881D01*
X-40064063Y4369863D01*
X-40069307Y4358619D01*
X-40076148Y4351777D01*
X-40090251Y4330672D01*
X-40111356Y4316569D01*
X-40118198Y4309728D01*
X-40129442Y4304484D01*
X-40155460Y4287100D01*
X-40175102Y4283192D01*
X-40183391Y4279328D01*
X-40216340Y4274990D01*
X-40232379Y4271800D01*
X-40240573Y4271800D01*
X-41874184Y4271800D01*
X-41882379Y4271800D01*
X-41898419Y4274990D01*
X-41931366Y4279328D01*
X-41939653Y4283192D01*
X-41959298Y4287100D01*
X-41985317Y4304486D01*
X-41996559Y4309728D01*
X-42003398Y4316567D01*
X-42024507Y4330672D01*
X-42038611Y4351780D01*
X-42045450Y4358619D01*
X-42050691Y4369858D01*
X-42068079Y4395881D01*
X-42071986Y4415527D01*
X-42075850Y4423812D01*
X-42080185Y4456746D01*
X-42083379Y4472800D01*
X-42083379Y4772800D01*
X-42080185Y4788854D01*
X-42075850Y4821787D01*
X-42071987Y4830070D01*
X-42068079Y4849719D01*
X-42050689Y4875743D01*
X-42045450Y4886980D01*
X-42038613Y4893816D01*
X-42024507Y4914928D01*
X-42003395Y4929034D01*
X-41996559Y4935871D01*
X-41985322Y4941110D01*
X-41959298Y4958500D01*
X-41939649Y4962408D01*
X-41931366Y4966271D01*
X-41898433Y4970606D01*
X-41882379Y4973800D01*
X-40232379Y4973800D01*
X-40216325Y4970606D01*
G37*
G36*
X-45166325Y6240606D02*
G01*
X-45133391Y6236271D01*
X-45125106Y6232407D01*
X-45105460Y6228500D01*
X-45079437Y6211112D01*
X-45068198Y6205871D01*
X-45061359Y6199032D01*
X-45040251Y6184928D01*
X-45026146Y6163819D01*
X-45019307Y6156980D01*
X-45014065Y6145738D01*
X-44996679Y6119719D01*
X-44992771Y6100074D01*
X-44988907Y6091787D01*
X-44984569Y6058840D01*
X-44981379Y6042800D01*
X-44981379Y5742800D01*
X-44984569Y5726761D01*
X-44988907Y5693812D01*
X-44992771Y5685523D01*
X-44996679Y5665881D01*
X-45014063Y5639863D01*
X-45019307Y5628619D01*
X-45026148Y5621777D01*
X-45040251Y5600672D01*
X-45061356Y5586569D01*
X-45068198Y5579728D01*
X-45079442Y5574484D01*
X-45105460Y5557100D01*
X-45125102Y5553192D01*
X-45133391Y5549328D01*
X-45166340Y5544990D01*
X-45182379Y5541800D01*
X-45190573Y5541800D01*
X-46824184Y5541800D01*
X-46832379Y5541800D01*
X-46848419Y5544990D01*
X-46881366Y5549328D01*
X-46889653Y5553192D01*
X-46909298Y5557100D01*
X-46935317Y5574486D01*
X-46946559Y5579728D01*
X-46953398Y5586567D01*
X-46974507Y5600672D01*
X-46988611Y5621780D01*
X-46995450Y5628619D01*
X-47000691Y5639858D01*
X-47018079Y5665881D01*
X-47021986Y5685527D01*
X-47025850Y5693812D01*
X-47030185Y5726746D01*
X-47033379Y5742800D01*
X-47033379Y6042800D01*
X-47030185Y6058854D01*
X-47025850Y6091787D01*
X-47021987Y6100070D01*
X-47018079Y6119719D01*
X-47000689Y6145743D01*
X-46995450Y6156980D01*
X-46988613Y6163816D01*
X-46974507Y6184928D01*
X-46953395Y6199034D01*
X-46946559Y6205871D01*
X-46935322Y6211110D01*
X-46909298Y6228500D01*
X-46889649Y6232408D01*
X-46881366Y6236271D01*
X-46848433Y6240606D01*
X-46832379Y6243800D01*
X-45182379Y6243800D01*
X-45166325Y6240606D01*
G37*
G36*
X-40216325Y6240606D02*
G01*
X-40183391Y6236271D01*
X-40175106Y6232407D01*
X-40155460Y6228500D01*
X-40129437Y6211112D01*
X-40118198Y6205871D01*
X-40111359Y6199032D01*
X-40090251Y6184928D01*
X-40076146Y6163819D01*
X-40069307Y6156980D01*
X-40064065Y6145738D01*
X-40046679Y6119719D01*
X-40042771Y6100074D01*
X-40038907Y6091787D01*
X-40034569Y6058840D01*
X-40031379Y6042800D01*
X-40031379Y5742800D01*
X-40034569Y5726761D01*
X-40038907Y5693812D01*
X-40042771Y5685523D01*
X-40046679Y5665881D01*
X-40064063Y5639863D01*
X-40069307Y5628619D01*
X-40076148Y5621777D01*
X-40090251Y5600672D01*
X-40111356Y5586569D01*
X-40118198Y5579728D01*
X-40129442Y5574484D01*
X-40155460Y5557100D01*
X-40175102Y5553192D01*
X-40183391Y5549328D01*
X-40216340Y5544990D01*
X-40232379Y5541800D01*
X-40240573Y5541800D01*
X-41874184Y5541800D01*
X-41882379Y5541800D01*
X-41898419Y5544990D01*
X-41931366Y5549328D01*
X-41939653Y5553192D01*
X-41959298Y5557100D01*
X-41985317Y5574486D01*
X-41996559Y5579728D01*
X-42003398Y5586567D01*
X-42024507Y5600672D01*
X-42038611Y5621780D01*
X-42045450Y5628619D01*
X-42050691Y5639858D01*
X-42068079Y5665881D01*
X-42071986Y5685527D01*
X-42075850Y5693812D01*
X-42080185Y5726746D01*
X-42083379Y5742800D01*
X-42083379Y6042800D01*
X-42080185Y6058854D01*
X-42075850Y6091787D01*
X-42071987Y6100070D01*
X-42068079Y6119719D01*
X-42050689Y6145743D01*
X-42045450Y6156980D01*
X-42038613Y6163816D01*
X-42024507Y6184928D01*
X-42003395Y6199034D01*
X-41996559Y6205871D01*
X-41985322Y6211110D01*
X-41959298Y6228500D01*
X-41939649Y6232408D01*
X-41931366Y6236271D01*
X-41898433Y6240606D01*
X-41882379Y6243800D01*
X-40232379Y6243800D01*
X-40216325Y6240606D01*
G37*
G36*
X-81761331Y7304409D02*
G01*
X-81723816Y7304409D01*
X-81693323Y7295455D01*
X-81671549Y7292589D01*
X-81642301Y7280474D01*
X-81600648Y7268244D01*
X-81578662Y7254114D01*
X-81563038Y7247643D01*
X-81534406Y7225673D01*
X-81492658Y7198843D01*
X-81479199Y7183311D01*
X-81469858Y7176143D01*
X-81445640Y7144581D01*
X-81408595Y7101829D01*
X-81402361Y7088178D01*
X-81398356Y7082959D01*
X-81382542Y7044780D01*
X-81355269Y6985061D01*
X-81353920Y6975682D01*
X-81353410Y6974450D01*
X-81349791Y6946965D01*
X-81337000Y6858000D01*
X-81349790Y6769042D01*
X-81353410Y6741549D01*
X-81353920Y6740315D01*
X-81355269Y6730939D01*
X-81382531Y6671241D01*
X-81398356Y6633038D01*
X-81402364Y6627814D01*
X-81408595Y6614171D01*
X-81445627Y6571432D01*
X-81469857Y6539857D01*
X-81479201Y6532686D01*
X-81492658Y6517157D01*
X-81534399Y6490331D01*
X-81563038Y6468356D01*
X-81578666Y6461882D01*
X-81600648Y6447756D01*
X-81642292Y6435528D01*
X-81671549Y6423410D01*
X-81693329Y6420542D01*
X-81723816Y6411591D01*
X-81761324Y6411591D01*
X-81788000Y6408079D01*
X-81814676Y6411591D01*
X-81852184Y6411591D01*
X-81882671Y6420542D01*
X-81904450Y6423410D01*
X-81933703Y6435527D01*
X-81975352Y6447756D01*
X-81997334Y6461883D01*
X-82012961Y6468356D01*
X-82041594Y6490327D01*
X-82083342Y6517157D01*
X-82096800Y6532688D01*
X-82106142Y6539857D01*
X-82130363Y6571422D01*
X-82167405Y6614171D01*
X-82173637Y6627817D01*
X-82177643Y6633038D01*
X-82193457Y6671218D01*
X-82220731Y6730939D01*
X-82222079Y6740319D01*
X-82222589Y6741549D01*
X-82226197Y6768960D01*
X-82239000Y6858000D01*
X-82226196Y6947048D01*
X-82222589Y6974450D01*
X-82222079Y6975678D01*
X-82220731Y6985061D01*
X-82193447Y7044804D01*
X-82177643Y7082959D01*
X-82173640Y7088175D01*
X-82167405Y7101829D01*
X-82130352Y7144590D01*
X-82106142Y7176142D01*
X-82096803Y7183307D01*
X-82083342Y7198843D01*
X-82041578Y7225683D01*
X-82012959Y7247643D01*
X-81997342Y7254111D01*
X-81975352Y7268244D01*
X-81933693Y7280475D01*
X-81904450Y7292589D01*
X-81882677Y7295455D01*
X-81852184Y7304409D01*
X-81814669Y7304409D01*
X-81788000Y7307920D01*
X-81761331Y7304409D01*
G37*
G36*
X-76301026Y8643064D02*
G01*
X-76250820Y8643064D01*
X-76207467Y8633849D01*
X-76169340Y8630094D01*
X-76121441Y8615563D01*
X-76066576Y8603902D01*
X-76031464Y8588269D01*
X-76000433Y8578856D01*
X-75951120Y8552498D01*
X-75894500Y8527289D01*
X-75868175Y8508163D01*
X-75844767Y8495651D01*
X-75797013Y8456460D01*
X-75742113Y8416573D01*
X-75724287Y8396776D01*
X-75708324Y8383675D01*
X-75665425Y8331402D01*
X-75616076Y8276595D01*
X-75605708Y8258637D01*
X-75596348Y8247232D01*
X-75561719Y8182447D01*
X-75521896Y8113470D01*
X-75517315Y8099371D01*
X-75513143Y8091566D01*
X-75490136Y8015725D01*
X-75463689Y7934328D01*
X-75462758Y7925471D01*
X-75461905Y7922659D01*
X-75453600Y7838342D01*
X-75444000Y7747000D01*
X-75453599Y7655664D01*
X-75461905Y7571340D01*
X-75462758Y7568527D01*
X-75463689Y7559672D01*
X-75490132Y7478288D01*
X-75513143Y7402433D01*
X-75517315Y7394626D01*
X-75521896Y7380530D01*
X-75561712Y7311565D01*
X-75596348Y7246767D01*
X-75605710Y7235359D01*
X-75616076Y7217405D01*
X-75665416Y7162607D01*
X-75708324Y7110324D01*
X-75724291Y7097219D01*
X-75742113Y7077427D01*
X-75797002Y7037546D01*
X-75844767Y6998348D01*
X-75868180Y6985833D01*
X-75894500Y6966711D01*
X-75951109Y6941506D01*
X-76000433Y6915143D01*
X-76031471Y6905727D01*
X-76066576Y6890098D01*
X-76121430Y6878438D01*
X-76169340Y6863905D01*
X-76207476Y6860148D01*
X-76250820Y6850936D01*
X-76301016Y6850936D01*
X-76345000Y6846604D01*
X-76388983Y6850936D01*
X-76439180Y6850936D01*
X-76482524Y6860149D01*
X-76520659Y6863905D01*
X-76568566Y6878437D01*
X-76623424Y6890098D01*
X-76658530Y6905728D01*
X-76689566Y6915143D01*
X-76738884Y6941504D01*
X-76795500Y6966711D01*
X-76821822Y6985835D01*
X-76845232Y6998348D01*
X-76892988Y7037540D01*
X-76947887Y7077427D01*
X-76965711Y7097223D01*
X-76981675Y7110324D01*
X-77024572Y7162594D01*
X-77073924Y7217405D01*
X-77084292Y7235363D01*
X-77093651Y7246767D01*
X-77128273Y7311542D01*
X-77168104Y7380530D01*
X-77172685Y7394630D01*
X-77176856Y7402433D01*
X-77199852Y7478242D01*
X-77226311Y7559672D01*
X-77227242Y7568532D01*
X-77228094Y7571340D01*
X-77236384Y7655513D01*
X-77246000Y7747000D01*
X-77236383Y7838494D01*
X-77228094Y7922659D01*
X-77227242Y7925466D01*
X-77226311Y7934328D01*
X-77199848Y8015771D01*
X-77176856Y8091566D01*
X-77172686Y8099366D01*
X-77168104Y8113470D01*
X-77128266Y8182470D01*
X-77093651Y8247232D01*
X-77084294Y8258633D01*
X-77073924Y8276595D01*
X-77024563Y8331415D01*
X-76981675Y8383675D01*
X-76965714Y8396773D01*
X-76947887Y8416573D01*
X-76892977Y8456467D01*
X-76845232Y8495651D01*
X-76821827Y8508161D01*
X-76795500Y8527289D01*
X-76738873Y8552500D01*
X-76689566Y8578856D01*
X-76658537Y8588268D01*
X-76623424Y8603902D01*
X-76568555Y8615564D01*
X-76520659Y8630094D01*
X-76482533Y8633849D01*
X-76439180Y8643064D01*
X-76388972Y8643064D01*
X-76344999Y8647395D01*
X-76301026Y8643064D01*
G37*
G36*
X-69928811Y8466338D02*
G01*
X-69881046Y8466338D01*
X-69839797Y8457570D01*
X-69804098Y8454054D01*
X-69759248Y8440448D01*
X-69707027Y8429349D01*
X-69673610Y8414471D01*
X-69644564Y8405660D01*
X-69598402Y8380986D01*
X-69544500Y8356988D01*
X-69519443Y8338783D01*
X-69497546Y8327079D01*
X-69452873Y8290416D01*
X-69400570Y8252416D01*
X-69383588Y8233555D01*
X-69368679Y8221320D01*
X-69328610Y8172496D01*
X-69281527Y8120205D01*
X-69271636Y8103073D01*
X-69262920Y8092453D01*
X-69230687Y8032148D01*
X-69192573Y7966133D01*
X-69188186Y7952634D01*
X-69184339Y7945435D01*
X-69163128Y7875512D01*
X-69137596Y7796933D01*
X-69136697Y7788380D01*
X-69135945Y7785901D01*
X-69128613Y7711467D01*
X-69119000Y7620000D01*
X-69128612Y7528540D01*
X-69135945Y7454098D01*
X-69136697Y7451618D01*
X-69137596Y7443067D01*
X-69163123Y7364502D01*
X-69184339Y7294564D01*
X-69188187Y7287363D01*
X-69192573Y7273867D01*
X-69230680Y7207863D01*
X-69262920Y7147546D01*
X-69271638Y7136923D01*
X-69281527Y7119795D01*
X-69328601Y7067513D01*
X-69368679Y7018679D01*
X-69383591Y7006440D01*
X-69400570Y6987584D01*
X-69452862Y6949591D01*
X-69497546Y6912920D01*
X-69519448Y6901213D01*
X-69544500Y6883012D01*
X-69598391Y6859018D01*
X-69644564Y6834339D01*
X-69673617Y6825525D01*
X-69707027Y6810651D01*
X-69759237Y6799553D01*
X-69804098Y6785945D01*
X-69839806Y6782427D01*
X-69881046Y6773662D01*
X-69928801Y6773662D01*
X-69970000Y6769604D01*
X-70011199Y6773662D01*
X-70058954Y6773662D01*
X-70100194Y6782427D01*
X-70135901Y6785945D01*
X-70180759Y6799552D01*
X-70232973Y6810651D01*
X-70266384Y6825526D01*
X-70295435Y6834339D01*
X-70341602Y6859015D01*
X-70395500Y6883012D01*
X-70420554Y6901215D01*
X-70442453Y6912920D01*
X-70487128Y6949584D01*
X-70539430Y6987584D01*
X-70556411Y7006443D01*
X-70571320Y7018679D01*
X-70611387Y7067501D01*
X-70658473Y7119795D01*
X-70668364Y7136927D01*
X-70677079Y7147546D01*
X-70709306Y7207840D01*
X-70747427Y7273867D01*
X-70751813Y7287368D01*
X-70755660Y7294564D01*
X-70776861Y7364455D01*
X-70802404Y7443067D01*
X-70803303Y7451623D01*
X-70804054Y7454098D01*
X-70811371Y7528389D01*
X-70821000Y7620000D01*
X-70811370Y7711619D01*
X-70804054Y7785901D01*
X-70803303Y7788375D01*
X-70802404Y7796933D01*
X-70776856Y7875558D01*
X-70755660Y7945435D01*
X-70751814Y7952629D01*
X-70747427Y7966133D01*
X-70709299Y8032172D01*
X-70677079Y8092453D01*
X-70668366Y8103069D01*
X-70658473Y8120205D01*
X-70611378Y8172509D01*
X-70571320Y8221320D01*
X-70556414Y8233552D01*
X-70539430Y8252416D01*
X-70487118Y8290423D01*
X-70442453Y8327079D01*
X-70420559Y8338780D01*
X-70395500Y8356988D01*
X-70341591Y8380989D01*
X-70295435Y8405660D01*
X-70266391Y8414470D01*
X-70232973Y8429349D01*
X-70180748Y8440449D01*
X-70135901Y8454054D01*
X-70100203Y8457570D01*
X-70058954Y8466338D01*
X-70011188Y8466338D01*
X-69970000Y8470395D01*
X-69928811Y8466338D01*
G37*
G36*
X-54688811Y8466338D02*
G01*
X-54641046Y8466338D01*
X-54599797Y8457570D01*
X-54564098Y8454054D01*
X-54519248Y8440448D01*
X-54467027Y8429349D01*
X-54433610Y8414471D01*
X-54404564Y8405660D01*
X-54358402Y8380986D01*
X-54304500Y8356988D01*
X-54279443Y8338783D01*
X-54257546Y8327079D01*
X-54212873Y8290416D01*
X-54160570Y8252416D01*
X-54143588Y8233555D01*
X-54128679Y8221320D01*
X-54088610Y8172496D01*
X-54041527Y8120205D01*
X-54031636Y8103073D01*
X-54022920Y8092453D01*
X-53990687Y8032148D01*
X-53952573Y7966133D01*
X-53948186Y7952634D01*
X-53944339Y7945435D01*
X-53923128Y7875512D01*
X-53897596Y7796933D01*
X-53896697Y7788380D01*
X-53895945Y7785901D01*
X-53888613Y7711467D01*
X-53879000Y7620000D01*
X-53888612Y7528540D01*
X-53895945Y7454098D01*
X-53896697Y7451618D01*
X-53897596Y7443067D01*
X-53923123Y7364502D01*
X-53944339Y7294564D01*
X-53948187Y7287363D01*
X-53952573Y7273867D01*
X-53990680Y7207863D01*
X-54022920Y7147546D01*
X-54031638Y7136923D01*
X-54041527Y7119795D01*
X-54088601Y7067513D01*
X-54128679Y7018679D01*
X-54143591Y7006440D01*
X-54160570Y6987584D01*
X-54212862Y6949591D01*
X-54257546Y6912920D01*
X-54279448Y6901213D01*
X-54304500Y6883012D01*
X-54358391Y6859018D01*
X-54404564Y6834339D01*
X-54433617Y6825525D01*
X-54467027Y6810651D01*
X-54519237Y6799553D01*
X-54564098Y6785945D01*
X-54599806Y6782427D01*
X-54641046Y6773662D01*
X-54688801Y6773662D01*
X-54730000Y6769604D01*
X-54771199Y6773662D01*
X-54818954Y6773662D01*
X-54860194Y6782427D01*
X-54895901Y6785945D01*
X-54940759Y6799552D01*
X-54992973Y6810651D01*
X-55026384Y6825526D01*
X-55055435Y6834339D01*
X-55101602Y6859015D01*
X-55155500Y6883012D01*
X-55180554Y6901215D01*
X-55202453Y6912920D01*
X-55247128Y6949584D01*
X-55299430Y6987584D01*
X-55316411Y7006443D01*
X-55331320Y7018679D01*
X-55371387Y7067501D01*
X-55418473Y7119795D01*
X-55428364Y7136927D01*
X-55437079Y7147546D01*
X-55469306Y7207840D01*
X-55507427Y7273867D01*
X-55511813Y7287368D01*
X-55515660Y7294564D01*
X-55536861Y7364455D01*
X-55562404Y7443067D01*
X-55563303Y7451623D01*
X-55564054Y7454098D01*
X-55571371Y7528389D01*
X-55581000Y7620000D01*
X-55571370Y7711619D01*
X-55564054Y7785901D01*
X-55563303Y7788375D01*
X-55562404Y7796933D01*
X-55536856Y7875558D01*
X-55515660Y7945435D01*
X-55511814Y7952629D01*
X-55507427Y7966133D01*
X-55469299Y8032172D01*
X-55437079Y8092453D01*
X-55428366Y8103069D01*
X-55418473Y8120205D01*
X-55371378Y8172509D01*
X-55331320Y8221320D01*
X-55316414Y8233552D01*
X-55299430Y8252416D01*
X-55247118Y8290423D01*
X-55202453Y8327079D01*
X-55180559Y8338780D01*
X-55155500Y8356988D01*
X-55101591Y8380989D01*
X-55055435Y8405660D01*
X-55026391Y8414470D01*
X-54992973Y8429349D01*
X-54940748Y8440449D01*
X-54895901Y8454054D01*
X-54860203Y8457570D01*
X-54818954Y8466338D01*
X-54771188Y8466338D01*
X-54730000Y8470395D01*
X-54688811Y8466338D01*
G37*
G36*
X-44423331Y8066409D02*
G01*
X-44385816Y8066409D01*
X-44355323Y8057455D01*
X-44333549Y8054589D01*
X-44304301Y8042474D01*
X-44262648Y8030244D01*
X-44240662Y8016114D01*
X-44225038Y8009643D01*
X-44196406Y7987673D01*
X-44154658Y7960843D01*
X-44141199Y7945311D01*
X-44131858Y7938143D01*
X-44107640Y7906581D01*
X-44070595Y7863829D01*
X-44064361Y7850178D01*
X-44060356Y7844959D01*
X-44044542Y7806780D01*
X-44017269Y7747061D01*
X-44015920Y7737682D01*
X-44015410Y7736450D01*
X-44011791Y7708965D01*
X-43999000Y7620000D01*
X-44011790Y7531042D01*
X-44015410Y7503549D01*
X-44015920Y7502315D01*
X-44017269Y7492939D01*
X-44044531Y7433241D01*
X-44060356Y7395038D01*
X-44064364Y7389814D01*
X-44070595Y7376171D01*
X-44107627Y7333432D01*
X-44131857Y7301857D01*
X-44141201Y7294686D01*
X-44154658Y7279157D01*
X-44196399Y7252331D01*
X-44225038Y7230356D01*
X-44240666Y7223882D01*
X-44262648Y7209756D01*
X-44304292Y7197528D01*
X-44333549Y7185410D01*
X-44355329Y7182542D01*
X-44385816Y7173591D01*
X-44423323Y7173591D01*
X-44449999Y7170079D01*
X-44476675Y7173591D01*
X-44514184Y7173591D01*
X-44544671Y7182542D01*
X-44566450Y7185410D01*
X-44595703Y7197526D01*
X-44637352Y7209756D01*
X-44659335Y7223883D01*
X-44674963Y7230357D01*
X-44703599Y7252330D01*
X-44745342Y7279157D01*
X-44758798Y7294686D01*
X-44841952Y7358493D01*
X-44981379Y7289735D01*
X-44981379Y7012800D01*
X-44984569Y6996760D01*
X-44988907Y6963812D01*
X-44992771Y6955523D01*
X-44996679Y6935881D01*
X-45014063Y6909863D01*
X-45019307Y6898619D01*
X-45026148Y6891777D01*
X-45040251Y6870672D01*
X-45061356Y6856569D01*
X-45068198Y6849728D01*
X-45079442Y6844484D01*
X-45105460Y6827100D01*
X-45125102Y6823192D01*
X-45133391Y6819328D01*
X-45166340Y6814990D01*
X-45182379Y6811800D01*
X-45190573Y6811800D01*
X-46824184Y6811800D01*
X-46832379Y6811800D01*
X-46848419Y6814990D01*
X-46881366Y6819328D01*
X-46889653Y6823192D01*
X-46909298Y6827100D01*
X-46935317Y6844486D01*
X-46946559Y6849728D01*
X-46953398Y6856567D01*
X-46974507Y6870672D01*
X-46988611Y6891780D01*
X-46995450Y6898619D01*
X-47000691Y6909858D01*
X-47018079Y6935881D01*
X-47021986Y6955527D01*
X-47025850Y6963812D01*
X-47030185Y6996746D01*
X-47033379Y7012800D01*
X-47033379Y7312800D01*
X-47030185Y7328854D01*
X-47025850Y7361787D01*
X-47021987Y7370070D01*
X-47018079Y7389719D01*
X-47000689Y7415743D01*
X-46995450Y7426980D01*
X-46988613Y7433816D01*
X-46974507Y7454928D01*
X-46953395Y7469034D01*
X-46946559Y7475871D01*
X-46935322Y7481110D01*
X-46909298Y7498500D01*
X-46889649Y7502408D01*
X-46881366Y7506271D01*
X-46848433Y7510606D01*
X-46832379Y7513800D01*
X-45182379Y7513800D01*
X-45166325Y7510606D01*
X-45133392Y7506271D01*
X-45125108Y7502408D01*
X-45105460Y7498500D01*
X-45079434Y7481110D01*
X-45008130Y7447860D01*
X-44888827Y7535336D01*
X-44901000Y7620000D01*
X-44888196Y7709048D01*
X-44884589Y7736450D01*
X-44884079Y7737678D01*
X-44882731Y7747061D01*
X-44855447Y7806804D01*
X-44839643Y7844959D01*
X-44835640Y7850175D01*
X-44829405Y7863829D01*
X-44792352Y7906590D01*
X-44768142Y7938142D01*
X-44758803Y7945307D01*
X-44745342Y7960843D01*
X-44703578Y7987683D01*
X-44674959Y8009643D01*
X-44659342Y8016111D01*
X-44637352Y8030244D01*
X-44595693Y8042475D01*
X-44566450Y8054589D01*
X-44544677Y8057455D01*
X-44514184Y8066409D01*
X-44476669Y8066409D01*
X-44450000Y8069920D01*
X-44423331Y8066409D01*
G37*
G36*
X-40216325Y7510606D02*
G01*
X-40183391Y7506271D01*
X-40175106Y7502407D01*
X-40155460Y7498500D01*
X-40129437Y7481112D01*
X-40118198Y7475871D01*
X-40111359Y7469032D01*
X-40090251Y7454928D01*
X-40076146Y7433819D01*
X-40069307Y7426980D01*
X-40064065Y7415738D01*
X-40046679Y7389719D01*
X-40042771Y7370074D01*
X-40038907Y7361787D01*
X-40034569Y7328840D01*
X-40031379Y7312800D01*
X-40031379Y7012800D01*
X-40034569Y6996761D01*
X-40038907Y6963812D01*
X-40042771Y6955523D01*
X-40046679Y6935881D01*
X-40064063Y6909863D01*
X-40069307Y6898619D01*
X-40076148Y6891777D01*
X-40090251Y6870672D01*
X-40111356Y6856569D01*
X-40118198Y6849728D01*
X-40129442Y6844484D01*
X-40155460Y6827100D01*
X-40175102Y6823192D01*
X-40183391Y6819328D01*
X-40216340Y6814990D01*
X-40232379Y6811800D01*
X-40240573Y6811800D01*
X-41874184Y6811800D01*
X-41882379Y6811800D01*
X-41898419Y6814990D01*
X-41931366Y6819328D01*
X-41939653Y6823192D01*
X-41959298Y6827100D01*
X-41985317Y6844486D01*
X-41996559Y6849728D01*
X-42003398Y6856567D01*
X-42024507Y6870672D01*
X-42038611Y6891780D01*
X-42045450Y6898619D01*
X-42050691Y6909858D01*
X-42068079Y6935881D01*
X-42071986Y6955527D01*
X-42075850Y6963812D01*
X-42080185Y6996746D01*
X-42083379Y7012800D01*
X-42083379Y7312800D01*
X-42080185Y7328854D01*
X-42075850Y7361787D01*
X-42071987Y7370070D01*
X-42068079Y7389719D01*
X-42050689Y7415743D01*
X-42045450Y7426980D01*
X-42038613Y7433816D01*
X-42024507Y7454928D01*
X-42003395Y7469034D01*
X-41996559Y7475871D01*
X-41985322Y7481110D01*
X-41959298Y7498500D01*
X-41939649Y7502408D01*
X-41931366Y7506271D01*
X-41898433Y7510606D01*
X-41882379Y7513800D01*
X-40232379Y7513800D01*
X-40216325Y7510606D01*
G37*
G36*
X-45166325Y8780606D02*
G01*
X-45133391Y8776271D01*
X-45125106Y8772407D01*
X-45105460Y8768500D01*
X-45079437Y8751112D01*
X-45068198Y8745871D01*
X-45061359Y8739032D01*
X-45040251Y8724928D01*
X-45026146Y8703819D01*
X-45019307Y8696980D01*
X-45014065Y8685738D01*
X-44996679Y8659719D01*
X-44992771Y8640074D01*
X-44988907Y8631787D01*
X-44984569Y8598840D01*
X-44981379Y8582800D01*
X-44981379Y8282800D01*
X-44984569Y8266761D01*
X-44988907Y8233812D01*
X-44992771Y8225523D01*
X-44996679Y8205881D01*
X-45014063Y8179863D01*
X-45019307Y8168619D01*
X-45026148Y8161777D01*
X-45040251Y8140672D01*
X-45061356Y8126569D01*
X-45068198Y8119728D01*
X-45079442Y8114484D01*
X-45105460Y8097100D01*
X-45125102Y8093192D01*
X-45133391Y8089328D01*
X-45166340Y8084990D01*
X-45182379Y8081800D01*
X-45190573Y8081800D01*
X-46824184Y8081800D01*
X-46832379Y8081800D01*
X-46848419Y8084990D01*
X-46881366Y8089328D01*
X-46889653Y8093192D01*
X-46909298Y8097100D01*
X-46935317Y8114486D01*
X-46946559Y8119728D01*
X-46953398Y8126567D01*
X-46974507Y8140672D01*
X-46988611Y8161780D01*
X-46995450Y8168619D01*
X-47000691Y8179858D01*
X-47018079Y8205881D01*
X-47021986Y8225527D01*
X-47025850Y8233812D01*
X-47030185Y8266746D01*
X-47033379Y8282800D01*
X-47033379Y8582800D01*
X-47030185Y8598854D01*
X-47025850Y8631787D01*
X-47021987Y8640070D01*
X-47018079Y8659719D01*
X-47000689Y8685743D01*
X-46995450Y8696980D01*
X-46988613Y8703816D01*
X-46974507Y8724928D01*
X-46953395Y8739034D01*
X-46946559Y8745871D01*
X-46935322Y8751110D01*
X-46909298Y8768500D01*
X-46889649Y8772408D01*
X-46881366Y8776271D01*
X-46848433Y8780606D01*
X-46832379Y8783800D01*
X-45182379Y8783800D01*
X-45166325Y8780606D01*
G37*
G36*
X-40216325Y8780606D02*
G01*
X-40183391Y8776271D01*
X-40175106Y8772407D01*
X-40155460Y8768500D01*
X-40129437Y8751112D01*
X-40118198Y8745871D01*
X-40111359Y8739032D01*
X-40090251Y8724928D01*
X-40076146Y8703819D01*
X-40069307Y8696980D01*
X-40064065Y8685738D01*
X-40046679Y8659719D01*
X-40042771Y8640074D01*
X-40038907Y8631787D01*
X-40034569Y8598840D01*
X-40031379Y8582800D01*
X-40031379Y8282800D01*
X-40034569Y8266761D01*
X-40038907Y8233812D01*
X-40042771Y8225523D01*
X-40046679Y8205881D01*
X-40064063Y8179863D01*
X-40069307Y8168619D01*
X-40076148Y8161777D01*
X-40090251Y8140672D01*
X-40111356Y8126569D01*
X-40118198Y8119728D01*
X-40129442Y8114484D01*
X-40155460Y8097100D01*
X-40175102Y8093192D01*
X-40183391Y8089328D01*
X-40216340Y8084990D01*
X-40232379Y8081800D01*
X-40240573Y8081800D01*
X-41874184Y8081800D01*
X-41882379Y8081800D01*
X-41898419Y8084990D01*
X-41931366Y8089328D01*
X-41939653Y8093192D01*
X-41959298Y8097100D01*
X-41985317Y8114486D01*
X-41996559Y8119728D01*
X-42003398Y8126567D01*
X-42024507Y8140672D01*
X-42038611Y8161780D01*
X-42045450Y8168619D01*
X-42050691Y8179858D01*
X-42068079Y8205881D01*
X-42071986Y8225527D01*
X-42075850Y8233812D01*
X-42080185Y8266746D01*
X-42083379Y8282800D01*
X-42083379Y8582800D01*
X-42080185Y8598854D01*
X-42075850Y8631787D01*
X-42071987Y8640070D01*
X-42068079Y8659719D01*
X-42050689Y8685743D01*
X-42045450Y8696980D01*
X-42038613Y8703816D01*
X-42024507Y8724928D01*
X-42003395Y8739034D01*
X-41996559Y8745871D01*
X-41985322Y8751110D01*
X-41959298Y8768500D01*
X-41939649Y8772408D01*
X-41931366Y8776271D01*
X-41898433Y8780606D01*
X-41882379Y8783800D01*
X-40232379Y8783800D01*
X-40216325Y8780606D01*
G37*
G36*
X-76301026Y11183064D02*
G01*
X-76250820Y11183064D01*
X-76207467Y11173849D01*
X-76169340Y11170094D01*
X-76121441Y11155563D01*
X-76066576Y11143902D01*
X-76031464Y11128269D01*
X-76000433Y11118856D01*
X-75951120Y11092498D01*
X-75894500Y11067289D01*
X-75868175Y11048163D01*
X-75844767Y11035651D01*
X-75797013Y10996460D01*
X-75742113Y10956573D01*
X-75724287Y10936776D01*
X-75708324Y10923675D01*
X-75665425Y10871402D01*
X-75616076Y10816595D01*
X-75605708Y10798637D01*
X-75596348Y10787232D01*
X-75561719Y10722447D01*
X-75521896Y10653470D01*
X-75517315Y10639371D01*
X-75513143Y10631566D01*
X-75490136Y10555725D01*
X-75463689Y10474328D01*
X-75462758Y10465471D01*
X-75461905Y10462659D01*
X-75453608Y10378415D01*
X-75444000Y10287000D01*
X-75453607Y10195592D01*
X-75461905Y10111340D01*
X-75462758Y10108527D01*
X-75463689Y10099672D01*
X-75490132Y10018288D01*
X-75513143Y9942433D01*
X-75517315Y9934626D01*
X-75521896Y9920530D01*
X-75561712Y9851565D01*
X-75596348Y9786767D01*
X-75605710Y9775359D01*
X-75616076Y9757405D01*
X-75665416Y9702607D01*
X-75708324Y9650324D01*
X-75724291Y9637219D01*
X-75742113Y9617427D01*
X-75797002Y9577546D01*
X-75844767Y9538348D01*
X-75868180Y9525833D01*
X-75894500Y9506711D01*
X-75951109Y9481506D01*
X-76000433Y9455143D01*
X-76031471Y9445727D01*
X-76066576Y9430098D01*
X-76121430Y9418438D01*
X-76169340Y9403905D01*
X-76207476Y9400148D01*
X-76250820Y9390936D01*
X-76301016Y9390936D01*
X-76345000Y9386604D01*
X-76388983Y9390936D01*
X-76439180Y9390936D01*
X-76482524Y9400149D01*
X-76520659Y9403905D01*
X-76568566Y9418437D01*
X-76623424Y9430098D01*
X-76658530Y9445728D01*
X-76689566Y9455143D01*
X-76738884Y9481504D01*
X-76795500Y9506711D01*
X-76821822Y9525835D01*
X-76845232Y9538348D01*
X-76892988Y9577540D01*
X-76947887Y9617427D01*
X-76965711Y9637223D01*
X-76981675Y9650324D01*
X-77024572Y9702594D01*
X-77073924Y9757405D01*
X-77084292Y9775363D01*
X-77093651Y9786767D01*
X-77128273Y9851542D01*
X-77168104Y9920530D01*
X-77172685Y9934630D01*
X-77176856Y9942433D01*
X-77199852Y10018242D01*
X-77226311Y10099672D01*
X-77227242Y10108532D01*
X-77228094Y10111340D01*
X-77236384Y10195513D01*
X-77246000Y10287000D01*
X-77236383Y10378494D01*
X-77228094Y10462659D01*
X-77227242Y10465466D01*
X-77226311Y10474328D01*
X-77199848Y10555771D01*
X-77176856Y10631566D01*
X-77172686Y10639366D01*
X-77168104Y10653470D01*
X-77128266Y10722470D01*
X-77093651Y10787232D01*
X-77084294Y10798633D01*
X-77073924Y10816595D01*
X-77024563Y10871415D01*
X-76981675Y10923675D01*
X-76965714Y10936773D01*
X-76947887Y10956573D01*
X-76892977Y10996467D01*
X-76845232Y11035651D01*
X-76821827Y11048161D01*
X-76795500Y11067289D01*
X-76738873Y11092500D01*
X-76689566Y11118856D01*
X-76658537Y11128268D01*
X-76623424Y11143902D01*
X-76568555Y11155564D01*
X-76520659Y11170094D01*
X-76482533Y11173849D01*
X-76439180Y11183064D01*
X-76388972Y11183064D01*
X-76344999Y11187395D01*
X-76301026Y11183064D01*
G37*
G36*
X-69928811Y11006338D02*
G01*
X-69881046Y11006338D01*
X-69839797Y10997570D01*
X-69804098Y10994054D01*
X-69759248Y10980448D01*
X-69707027Y10969349D01*
X-69673610Y10954471D01*
X-69644564Y10945660D01*
X-69598402Y10920986D01*
X-69544500Y10896988D01*
X-69519443Y10878783D01*
X-69497546Y10867079D01*
X-69452873Y10830416D01*
X-69400570Y10792416D01*
X-69383588Y10773555D01*
X-69368679Y10761320D01*
X-69328610Y10712496D01*
X-69281527Y10660205D01*
X-69271636Y10643073D01*
X-69262920Y10632453D01*
X-69230687Y10572148D01*
X-69192573Y10506133D01*
X-69188186Y10492634D01*
X-69184339Y10485435D01*
X-69163128Y10415512D01*
X-69137596Y10336933D01*
X-69136697Y10328380D01*
X-69135945Y10325901D01*
X-69128613Y10251467D01*
X-69119000Y10160000D01*
X-69128612Y10068540D01*
X-69135945Y9994098D01*
X-69136697Y9991618D01*
X-69137596Y9983067D01*
X-69163123Y9904502D01*
X-69184339Y9834564D01*
X-69188187Y9827363D01*
X-69192573Y9813867D01*
X-69230680Y9747863D01*
X-69262920Y9687546D01*
X-69271638Y9676923D01*
X-69281527Y9659795D01*
X-69328601Y9607513D01*
X-69368679Y9558679D01*
X-69383591Y9546440D01*
X-69400570Y9527584D01*
X-69452862Y9489591D01*
X-69497546Y9452920D01*
X-69519448Y9441213D01*
X-69544500Y9423012D01*
X-69598391Y9399018D01*
X-69644564Y9374339D01*
X-69673617Y9365525D01*
X-69707027Y9350651D01*
X-69759237Y9339553D01*
X-69804098Y9325945D01*
X-69839806Y9322427D01*
X-69881046Y9313662D01*
X-69928800Y9313662D01*
X-69969999Y9309604D01*
X-70011198Y9313662D01*
X-70058954Y9313662D01*
X-70100194Y9322427D01*
X-70135901Y9325945D01*
X-70180759Y9339552D01*
X-70232973Y9350651D01*
X-70266384Y9365526D01*
X-70295435Y9374339D01*
X-70341602Y9399015D01*
X-70395500Y9423012D01*
X-70420554Y9441215D01*
X-70442453Y9452920D01*
X-70487128Y9489584D01*
X-70539430Y9527584D01*
X-70556411Y9546443D01*
X-70571320Y9558679D01*
X-70611387Y9607501D01*
X-70658473Y9659795D01*
X-70668364Y9676927D01*
X-70677079Y9687546D01*
X-70709306Y9747840D01*
X-70747427Y9813867D01*
X-70751813Y9827368D01*
X-70755660Y9834564D01*
X-70776861Y9904455D01*
X-70802404Y9983067D01*
X-70803303Y9991623D01*
X-70804054Y9994098D01*
X-70811371Y10068389D01*
X-70821000Y10160000D01*
X-70811370Y10251619D01*
X-70804054Y10325901D01*
X-70803303Y10328375D01*
X-70802404Y10336933D01*
X-70776856Y10415558D01*
X-70755660Y10485435D01*
X-70751814Y10492629D01*
X-70747427Y10506133D01*
X-70709299Y10572172D01*
X-70677079Y10632453D01*
X-70668366Y10643069D01*
X-70658473Y10660205D01*
X-70611378Y10712509D01*
X-70571320Y10761320D01*
X-70556414Y10773552D01*
X-70539430Y10792416D01*
X-70487118Y10830423D01*
X-70442453Y10867079D01*
X-70420559Y10878780D01*
X-70395500Y10896988D01*
X-70341591Y10920989D01*
X-70295435Y10945660D01*
X-70266391Y10954470D01*
X-70232973Y10969349D01*
X-70180748Y10980449D01*
X-70135901Y10994054D01*
X-70100203Y10997570D01*
X-70058954Y11006338D01*
X-70011188Y11006338D01*
X-69970000Y11010395D01*
X-69928811Y11006338D01*
G37*
G36*
X-54688811Y11006338D02*
G01*
X-54641046Y11006338D01*
X-54599797Y10997570D01*
X-54564098Y10994054D01*
X-54519248Y10980448D01*
X-54467027Y10969349D01*
X-54433610Y10954471D01*
X-54404564Y10945660D01*
X-54358402Y10920986D01*
X-54304500Y10896988D01*
X-54279443Y10878783D01*
X-54257546Y10867079D01*
X-54212873Y10830416D01*
X-54160570Y10792416D01*
X-54143588Y10773555D01*
X-54128679Y10761320D01*
X-54088610Y10712496D01*
X-54041527Y10660205D01*
X-54031636Y10643073D01*
X-54022920Y10632453D01*
X-53990687Y10572148D01*
X-53952573Y10506133D01*
X-53948186Y10492634D01*
X-53944339Y10485435D01*
X-53923128Y10415512D01*
X-53897596Y10336933D01*
X-53896697Y10328380D01*
X-53895945Y10325901D01*
X-53888613Y10251467D01*
X-53879000Y10160000D01*
X-53888612Y10068540D01*
X-53895945Y9994098D01*
X-53896697Y9991618D01*
X-53897596Y9983067D01*
X-53923123Y9904502D01*
X-53944339Y9834564D01*
X-53948187Y9827363D01*
X-53952573Y9813867D01*
X-53990680Y9747863D01*
X-54022920Y9687546D01*
X-54031638Y9676923D01*
X-54041527Y9659795D01*
X-54088601Y9607513D01*
X-54128679Y9558679D01*
X-54143591Y9546440D01*
X-54160570Y9527584D01*
X-54212862Y9489591D01*
X-54257546Y9452920D01*
X-54279448Y9441213D01*
X-54304500Y9423012D01*
X-54358391Y9399018D01*
X-54404564Y9374339D01*
X-54433617Y9365525D01*
X-54467027Y9350651D01*
X-54519237Y9339553D01*
X-54564098Y9325945D01*
X-54599806Y9322427D01*
X-54641046Y9313662D01*
X-54688801Y9313662D01*
X-54730000Y9309604D01*
X-54771199Y9313662D01*
X-54818954Y9313662D01*
X-54860194Y9322427D01*
X-54895901Y9325945D01*
X-54940759Y9339552D01*
X-54992973Y9350651D01*
X-55026384Y9365526D01*
X-55055435Y9374339D01*
X-55101602Y9399015D01*
X-55155500Y9423012D01*
X-55180554Y9441215D01*
X-55202453Y9452920D01*
X-55247128Y9489584D01*
X-55299430Y9527584D01*
X-55316411Y9546443D01*
X-55331320Y9558679D01*
X-55371387Y9607501D01*
X-55418473Y9659795D01*
X-55428364Y9676927D01*
X-55437079Y9687546D01*
X-55469306Y9747840D01*
X-55507427Y9813867D01*
X-55511813Y9827368D01*
X-55515660Y9834564D01*
X-55536861Y9904455D01*
X-55562404Y9983067D01*
X-55563303Y9991623D01*
X-55564054Y9994098D01*
X-55571371Y10068389D01*
X-55581000Y10160000D01*
X-55571370Y10251619D01*
X-55564054Y10325901D01*
X-55563303Y10328375D01*
X-55562404Y10336933D01*
X-55536856Y10415558D01*
X-55515660Y10485435D01*
X-55511814Y10492629D01*
X-55507427Y10506133D01*
X-55469299Y10572172D01*
X-55437079Y10632453D01*
X-55428366Y10643069D01*
X-55418473Y10660205D01*
X-55371378Y10712509D01*
X-55331320Y10761320D01*
X-55316414Y10773552D01*
X-55299430Y10792416D01*
X-55247118Y10830423D01*
X-55202453Y10867079D01*
X-55180559Y10878780D01*
X-55155500Y10896988D01*
X-55101591Y10920989D01*
X-55055435Y10945660D01*
X-55026391Y10954470D01*
X-54992973Y10969349D01*
X-54940748Y10980449D01*
X-54895901Y10994054D01*
X-54860203Y10997570D01*
X-54818954Y11006338D01*
X-54771188Y11006338D01*
X-54730000Y11010395D01*
X-54688811Y11006338D01*
G37*
G36*
X-54688811Y13546338D02*
G01*
X-54641046Y13546338D01*
X-54599797Y13537570D01*
X-54564098Y13534054D01*
X-54519248Y13520448D01*
X-54467027Y13509349D01*
X-54433610Y13494471D01*
X-54404564Y13485660D01*
X-54358402Y13460986D01*
X-54304500Y13436988D01*
X-54279443Y13418783D01*
X-54257546Y13407079D01*
X-54212873Y13370416D01*
X-54160570Y13332416D01*
X-54143588Y13313555D01*
X-54128679Y13301320D01*
X-54088610Y13252496D01*
X-54041527Y13200205D01*
X-54031636Y13183073D01*
X-54022920Y13172453D01*
X-53990687Y13112148D01*
X-53952573Y13046133D01*
X-53948186Y13032634D01*
X-53944339Y13025435D01*
X-53923128Y12955512D01*
X-53897596Y12876933D01*
X-53896697Y12868380D01*
X-53895945Y12865901D01*
X-53888613Y12791467D01*
X-53879000Y12700000D01*
X-53888612Y12608540D01*
X-53895945Y12534098D01*
X-53896697Y12531618D01*
X-53897596Y12523067D01*
X-53923123Y12444502D01*
X-53944339Y12374564D01*
X-53948187Y12367363D01*
X-53952573Y12353867D01*
X-53990680Y12287863D01*
X-54022920Y12227546D01*
X-54031638Y12216923D01*
X-54041527Y12199795D01*
X-54088601Y12147513D01*
X-54128679Y12098679D01*
X-54143591Y12086440D01*
X-54160570Y12067584D01*
X-54212862Y12029591D01*
X-54257546Y11992920D01*
X-54279448Y11981213D01*
X-54304500Y11963012D01*
X-54358391Y11939018D01*
X-54404564Y11914339D01*
X-54433617Y11905525D01*
X-54467027Y11890651D01*
X-54519237Y11879553D01*
X-54564098Y11865945D01*
X-54599806Y11862427D01*
X-54641046Y11853662D01*
X-54688800Y11853662D01*
X-54729999Y11849604D01*
X-54771198Y11853662D01*
X-54818954Y11853662D01*
X-54860194Y11862427D01*
X-54895901Y11865945D01*
X-54940759Y11879552D01*
X-54992973Y11890651D01*
X-55026384Y11905526D01*
X-55055435Y11914339D01*
X-55101602Y11939015D01*
X-55155500Y11963012D01*
X-55180554Y11981215D01*
X-55202453Y11992920D01*
X-55247128Y12029584D01*
X-55299430Y12067584D01*
X-55316411Y12086443D01*
X-55331320Y12098679D01*
X-55371387Y12147501D01*
X-55418473Y12199795D01*
X-55428364Y12216927D01*
X-55437079Y12227546D01*
X-55469306Y12287840D01*
X-55507427Y12353867D01*
X-55511813Y12367368D01*
X-55515660Y12374564D01*
X-55536861Y12444455D01*
X-55562404Y12523067D01*
X-55563303Y12531623D01*
X-55564054Y12534098D01*
X-55571371Y12608389D01*
X-55581000Y12700000D01*
X-55571370Y12791619D01*
X-55564054Y12865901D01*
X-55563303Y12868375D01*
X-55562404Y12876933D01*
X-55536856Y12955558D01*
X-55515660Y13025435D01*
X-55511814Y13032629D01*
X-55507427Y13046133D01*
X-55469299Y13112172D01*
X-55437079Y13172453D01*
X-55428366Y13183069D01*
X-55418473Y13200205D01*
X-55371378Y13252509D01*
X-55331320Y13301320D01*
X-55316414Y13313552D01*
X-55299430Y13332416D01*
X-55247118Y13370423D01*
X-55202453Y13407079D01*
X-55180559Y13418780D01*
X-55155500Y13436988D01*
X-55101591Y13460989D01*
X-55055435Y13485660D01*
X-55026391Y13494470D01*
X-54992973Y13509349D01*
X-54940748Y13520449D01*
X-54895901Y13534054D01*
X-54860203Y13537570D01*
X-54818954Y13546338D01*
X-54771188Y13546338D01*
X-54730000Y13550395D01*
X-54688811Y13546338D01*
G37*
G36*
X-44432465Y12376205D02*
G01*
X-44416649Y12369221D01*
X-44408847Y12367986D01*
X-44376346Y12351426D01*
X-44331273Y12331524D01*
X-44253055Y12253306D01*
X-44233155Y12208239D01*
X-44216592Y12175731D01*
X-44215355Y12167926D01*
X-44208374Y12152114D01*
X-44200379Y12083200D01*
X-44200379Y11183200D01*
X-44208374Y11114286D01*
X-44215355Y11098474D01*
X-44216592Y11090668D01*
X-44233159Y11058153D01*
X-44253055Y11013094D01*
X-44331273Y10934876D01*
X-44376332Y10914980D01*
X-44408847Y10898413D01*
X-44416653Y10897176D01*
X-44432465Y10890195D01*
X-44501379Y10882200D01*
X-44511215Y10882200D01*
X-45016541Y10882200D01*
X-45026379Y10882200D01*
X-45095293Y10890195D01*
X-45111105Y10897176D01*
X-45118910Y10898413D01*
X-45151418Y10914976D01*
X-45196485Y10934876D01*
X-45274703Y11013094D01*
X-45294605Y11058167D01*
X-45311165Y11090668D01*
X-45312400Y11098470D01*
X-45319384Y11114286D01*
X-45327379Y11183200D01*
X-45327379Y12083200D01*
X-45319384Y12152114D01*
X-45312400Y12167929D01*
X-45311165Y12175731D01*
X-45294608Y12208224D01*
X-45274703Y12253306D01*
X-45196485Y12331524D01*
X-45151403Y12351429D01*
X-45118910Y12367986D01*
X-45111108Y12369221D01*
X-45095293Y12376205D01*
X-45026379Y12384200D01*
X-44501379Y12384200D01*
X-44432465Y12376205D01*
G37*
G36*
X-42607465Y12376205D02*
G01*
X-42591649Y12369221D01*
X-42583847Y12367986D01*
X-42551346Y12351426D01*
X-42506273Y12331524D01*
X-42428055Y12253306D01*
X-42408155Y12208239D01*
X-42391592Y12175731D01*
X-42390355Y12167926D01*
X-42383374Y12152114D01*
X-42375379Y12083200D01*
X-42375379Y11183200D01*
X-42383374Y11114286D01*
X-42390355Y11098474D01*
X-42391592Y11090668D01*
X-42408159Y11058153D01*
X-42428055Y11013094D01*
X-42506273Y10934876D01*
X-42551332Y10914980D01*
X-42583847Y10898413D01*
X-42591653Y10897176D01*
X-42607465Y10890195D01*
X-42676379Y10882200D01*
X-42686215Y10882200D01*
X-43191541Y10882200D01*
X-43201379Y10882200D01*
X-43270293Y10890195D01*
X-43286105Y10897176D01*
X-43293910Y10898413D01*
X-43326418Y10914976D01*
X-43371485Y10934876D01*
X-43449703Y11013094D01*
X-43469605Y11058167D01*
X-43486165Y11090668D01*
X-43487400Y11098470D01*
X-43494384Y11114286D01*
X-43502379Y11183200D01*
X-43502379Y12083200D01*
X-43494384Y12152114D01*
X-43487400Y12167929D01*
X-43486165Y12175731D01*
X-43469608Y12208224D01*
X-43449703Y12253306D01*
X-43371485Y12331524D01*
X-43326403Y12351429D01*
X-43293910Y12367986D01*
X-43286108Y12369221D01*
X-43270293Y12376205D01*
X-43201379Y12384200D01*
X-42676379Y12384200D01*
X-42607465Y12376205D01*
G37*
G36*
X-46680710Y12054209D02*
G01*
X-46643195Y12054209D01*
X-46612702Y12045255D01*
X-46590928Y12042389D01*
X-46561680Y12030274D01*
X-46520027Y12018044D01*
X-46498041Y12003914D01*
X-46482417Y11997443D01*
X-46453785Y11975473D01*
X-46412037Y11948643D01*
X-46398578Y11933111D01*
X-46389237Y11925943D01*
X-46365019Y11894381D01*
X-46327974Y11851629D01*
X-46321740Y11837978D01*
X-46317735Y11832759D01*
X-46301921Y11794580D01*
X-46274648Y11734861D01*
X-46273299Y11725482D01*
X-46272789Y11724250D01*
X-46269170Y11696765D01*
X-46256379Y11607800D01*
X-46269169Y11518842D01*
X-46272789Y11491349D01*
X-46273299Y11490115D01*
X-46274648Y11480739D01*
X-46301910Y11421041D01*
X-46317735Y11382838D01*
X-46321743Y11377614D01*
X-46327974Y11363971D01*
X-46365006Y11321232D01*
X-46389236Y11289657D01*
X-46398580Y11282486D01*
X-46412037Y11266957D01*
X-46453778Y11240131D01*
X-46482417Y11218156D01*
X-46498045Y11211682D01*
X-46520027Y11197556D01*
X-46561671Y11185328D01*
X-46590928Y11173210D01*
X-46612708Y11170342D01*
X-46643195Y11161391D01*
X-46680703Y11161391D01*
X-46707379Y11157879D01*
X-46734055Y11161391D01*
X-46771563Y11161391D01*
X-46802050Y11170342D01*
X-46823829Y11173210D01*
X-46853082Y11185327D01*
X-46894731Y11197556D01*
X-46916713Y11211683D01*
X-46932340Y11218156D01*
X-46960973Y11240127D01*
X-47002721Y11266957D01*
X-47016179Y11282488D01*
X-47025521Y11289657D01*
X-47049742Y11321222D01*
X-47086784Y11363971D01*
X-47093016Y11377617D01*
X-47097022Y11382838D01*
X-47112836Y11421018D01*
X-47140110Y11480739D01*
X-47141458Y11490119D01*
X-47141968Y11491349D01*
X-47145576Y11518760D01*
X-47158379Y11607800D01*
X-47145575Y11696848D01*
X-47141968Y11724250D01*
X-47141458Y11725478D01*
X-47140110Y11734861D01*
X-47112826Y11794604D01*
X-47097022Y11832759D01*
X-47093019Y11837975D01*
X-47086784Y11851629D01*
X-47049731Y11894390D01*
X-47025521Y11925942D01*
X-47016182Y11933107D01*
X-47002721Y11948643D01*
X-46960957Y11975483D01*
X-46932338Y11997443D01*
X-46916721Y12003911D01*
X-46894731Y12018044D01*
X-46853072Y12030275D01*
X-46823829Y12042389D01*
X-46802056Y12045255D01*
X-46771563Y12054209D01*
X-46734048Y12054209D01*
X-46707379Y12057720D01*
X-46680710Y12054209D01*
G37*
G36*
X-69928811Y13546338D02*
G01*
X-69881046Y13546338D01*
X-69839797Y13537570D01*
X-69804098Y13534054D01*
X-69759248Y13520448D01*
X-69707027Y13509349D01*
X-69673610Y13494471D01*
X-69644564Y13485660D01*
X-69598402Y13460986D01*
X-69544500Y13436988D01*
X-69519443Y13418783D01*
X-69497546Y13407079D01*
X-69452873Y13370416D01*
X-69400570Y13332416D01*
X-69383588Y13313555D01*
X-69368679Y13301320D01*
X-69328610Y13252496D01*
X-69281527Y13200205D01*
X-69271636Y13183073D01*
X-69262920Y13172453D01*
X-69230687Y13112148D01*
X-69192573Y13046133D01*
X-69188186Y13032634D01*
X-69184339Y13025435D01*
X-69163128Y12955512D01*
X-69137596Y12876933D01*
X-69136697Y12868380D01*
X-69135945Y12865901D01*
X-69128613Y12791467D01*
X-69119000Y12700000D01*
X-69128612Y12608540D01*
X-69135945Y12534098D01*
X-69136697Y12531618D01*
X-69137596Y12523067D01*
X-69163123Y12444502D01*
X-69184339Y12374564D01*
X-69188187Y12367363D01*
X-69192573Y12353867D01*
X-69230680Y12287863D01*
X-69262920Y12227546D01*
X-69271638Y12216923D01*
X-69281527Y12199795D01*
X-69328601Y12147513D01*
X-69368679Y12098679D01*
X-69383591Y12086440D01*
X-69400570Y12067584D01*
X-69452862Y12029591D01*
X-69497546Y11992920D01*
X-69519448Y11981213D01*
X-69544500Y11963012D01*
X-69598391Y11939018D01*
X-69644564Y11914339D01*
X-69673617Y11905525D01*
X-69707027Y11890651D01*
X-69759237Y11879553D01*
X-69804098Y11865945D01*
X-69839806Y11862427D01*
X-69881046Y11853662D01*
X-69928800Y11853662D01*
X-69969999Y11849604D01*
X-70011198Y11853662D01*
X-70058954Y11853662D01*
X-70100194Y11862427D01*
X-70135901Y11865945D01*
X-70180759Y11879552D01*
X-70232973Y11890651D01*
X-70266384Y11905526D01*
X-70295435Y11914339D01*
X-70341602Y11939015D01*
X-70395500Y11963012D01*
X-70420554Y11981215D01*
X-70442453Y11992920D01*
X-70487128Y12029584D01*
X-70539430Y12067584D01*
X-70556411Y12086443D01*
X-70571320Y12098679D01*
X-70611387Y12147501D01*
X-70658473Y12199795D01*
X-70668364Y12216927D01*
X-70677079Y12227546D01*
X-70709306Y12287840D01*
X-70747427Y12353867D01*
X-70751813Y12367368D01*
X-70755660Y12374564D01*
X-70776861Y12444455D01*
X-70802404Y12523067D01*
X-70803303Y12531623D01*
X-70804054Y12534098D01*
X-70811371Y12608389D01*
X-70821000Y12700000D01*
X-70811370Y12791619D01*
X-70804054Y12865901D01*
X-70803303Y12868375D01*
X-70802404Y12876933D01*
X-70776856Y12955558D01*
X-70755660Y13025435D01*
X-70751814Y13032629D01*
X-70747427Y13046133D01*
X-70709299Y13112172D01*
X-70677079Y13172453D01*
X-70668366Y13183069D01*
X-70658473Y13200205D01*
X-70611378Y13252509D01*
X-70571320Y13301320D01*
X-70556414Y13313552D01*
X-70539430Y13332416D01*
X-70487118Y13370423D01*
X-70442453Y13407079D01*
X-70420559Y13418780D01*
X-70395500Y13436988D01*
X-70341591Y13460989D01*
X-70295435Y13485660D01*
X-70266391Y13494470D01*
X-70232973Y13509349D01*
X-70180748Y13520449D01*
X-70135901Y13534054D01*
X-70100203Y13537570D01*
X-70058954Y13546338D01*
X-70011188Y13546338D01*
X-69970000Y13550395D01*
X-69928811Y13546338D01*
G37*
G36*
X-73718719Y16962177D02*
G01*
X-73660459Y16962177D01*
X-73596796Y16952581D01*
X-73529705Y16947301D01*
X-73475623Y16934317D01*
X-73424046Y16926543D01*
X-73356651Y16905754D01*
X-73285573Y16888690D01*
X-73239612Y16869652D01*
X-73195579Y16856070D01*
X-73126446Y16822777D01*
X-73053615Y16792610D01*
X-73016231Y16769701D01*
X-72980174Y16752337D01*
X-72911587Y16705575D01*
X-72839544Y16661427D01*
X-72810694Y16636787D01*
X-72782637Y16617658D01*
X-72717129Y16556875D01*
X-72648629Y16498371D01*
X-72627826Y16474013D01*
X-72607373Y16455036D01*
X-72547569Y16380045D01*
X-72485573Y16307456D01*
X-72471939Y16285207D01*
X-72458305Y16268111D01*
X-72406886Y16179052D01*
X-72354390Y16093385D01*
X-72346678Y16074768D01*
X-72338766Y16061063D01*
X-72298408Y15958232D01*
X-72258310Y15861427D01*
X-72254994Y15847615D01*
X-72251419Y15838506D01*
X-72224641Y15721186D01*
X-72199699Y15617295D01*
X-72199052Y15609074D01*
X-72198216Y15605412D01*
X-72187315Y15459946D01*
X-72180000Y15367000D01*
X-72187314Y15274061D01*
X-72198216Y15128587D01*
X-72199052Y15124923D01*
X-72199699Y15116705D01*
X-72224636Y15012833D01*
X-72251419Y14895493D01*
X-72254994Y14886382D01*
X-72258310Y14872573D01*
X-72298400Y14775785D01*
X-72338766Y14672936D01*
X-72346680Y14659228D01*
X-72354390Y14640615D01*
X-72406876Y14554964D01*
X-72458305Y14465888D01*
X-72471941Y14448787D01*
X-72485573Y14426544D01*
X-72547557Y14353969D01*
X-72607373Y14278963D01*
X-72627830Y14259981D01*
X-72648629Y14235629D01*
X-72717116Y14177135D01*
X-72782637Y14116341D01*
X-72810700Y14097207D01*
X-72839544Y14072573D01*
X-72911573Y14028433D01*
X-72980174Y13981662D01*
X-73016238Y13964294D01*
X-73053615Y13941390D01*
X-73126431Y13911228D01*
X-73195579Y13877929D01*
X-73239622Y13864343D01*
X-73285573Y13845310D01*
X-73356636Y13828249D01*
X-73424046Y13807456D01*
X-73475632Y13799680D01*
X-73529705Y13786699D01*
X-73596792Y13781418D01*
X-73660459Y13771823D01*
X-73718719Y13771823D01*
X-73780000Y13767000D01*
X-73841281Y13771823D01*
X-73899541Y13771823D01*
X-73963206Y13781418D01*
X-74030295Y13786699D01*
X-74084369Y13799681D01*
X-74135953Y13807456D01*
X-74203358Y13828247D01*
X-74274427Y13845310D01*
X-74320380Y13864344D01*
X-74364420Y13877929D01*
X-74433558Y13911224D01*
X-74506385Y13941390D01*
X-74543768Y13964298D01*
X-74579824Y13981662D01*
X-74648410Y14028423D01*
X-74720456Y14072573D01*
X-74749304Y14097211D01*
X-74777362Y14116341D01*
X-74842871Y14177124D01*
X-74911371Y14235629D01*
X-74932173Y14259985D01*
X-74952626Y14278963D01*
X-75012427Y14353951D01*
X-75074427Y14426544D01*
X-75088061Y14448793D01*
X-75101694Y14465888D01*
X-75153105Y14554936D01*
X-75205610Y14640615D01*
X-75213322Y14659234D01*
X-75221233Y14672936D01*
X-75261580Y14775739D01*
X-75301690Y14872573D01*
X-75305006Y14886388D01*
X-75308580Y14895493D01*
X-75335343Y15012748D01*
X-75360301Y15116705D01*
X-75360948Y15124930D01*
X-75361783Y15128587D01*
X-75372677Y15273958D01*
X-75380000Y15367000D01*
X-75372676Y15460049D01*
X-75361783Y15605412D01*
X-75360948Y15609068D01*
X-75360301Y15617295D01*
X-75335338Y15721270D01*
X-75308580Y15838506D01*
X-75305007Y15847608D01*
X-75301690Y15861427D01*
X-75261572Y15958278D01*
X-75221233Y16061063D01*
X-75213323Y16074762D01*
X-75205610Y16093385D01*
X-75153095Y16179080D01*
X-75101694Y16268111D01*
X-75088064Y16285202D01*
X-75074427Y16307456D01*
X-75012415Y16380062D01*
X-74952626Y16455036D01*
X-74932177Y16474009D01*
X-74911371Y16498371D01*
X-74842857Y16556886D01*
X-74777362Y16617658D01*
X-74749309Y16636783D01*
X-74720456Y16661427D01*
X-74648395Y16705585D01*
X-74579824Y16752337D01*
X-74543775Y16769696D01*
X-74506385Y16792610D01*
X-74433543Y16822781D01*
X-74364420Y16856070D01*
X-74320390Y16869651D01*
X-74274427Y16888690D01*
X-74203344Y16905755D01*
X-74135953Y16926543D01*
X-74084377Y16934316D01*
X-74030295Y16947301D01*
X-73963202Y16952581D01*
X-73899541Y16962177D01*
X-73841281Y16962177D01*
X-73780000Y16967000D01*
X-73718719Y16962177D01*
G37*
G36*
X-69928811Y16086338D02*
G01*
X-69881046Y16086338D01*
X-69839797Y16077570D01*
X-69804098Y16074054D01*
X-69759248Y16060448D01*
X-69707027Y16049349D01*
X-69673610Y16034471D01*
X-69644564Y16025660D01*
X-69598402Y16000986D01*
X-69544500Y15976988D01*
X-69519443Y15958783D01*
X-69497546Y15947079D01*
X-69452873Y15910416D01*
X-69400570Y15872416D01*
X-69383588Y15853555D01*
X-69368679Y15841320D01*
X-69328610Y15792496D01*
X-69281527Y15740205D01*
X-69271636Y15723073D01*
X-69262920Y15712453D01*
X-69230687Y15652148D01*
X-69192573Y15586133D01*
X-69188186Y15572634D01*
X-69184339Y15565435D01*
X-69163128Y15495512D01*
X-69137596Y15416933D01*
X-69136697Y15408380D01*
X-69135945Y15405901D01*
X-69128613Y15331467D01*
X-69119000Y15240000D01*
X-69128612Y15148540D01*
X-69135945Y15074098D01*
X-69136697Y15071618D01*
X-69137596Y15063067D01*
X-69163123Y14984502D01*
X-69184339Y14914564D01*
X-69188187Y14907363D01*
X-69192573Y14893867D01*
X-69230680Y14827863D01*
X-69262920Y14767546D01*
X-69271638Y14756923D01*
X-69281527Y14739795D01*
X-69328601Y14687513D01*
X-69368679Y14638679D01*
X-69383591Y14626440D01*
X-69400570Y14607584D01*
X-69452862Y14569591D01*
X-69497546Y14532920D01*
X-69519448Y14521213D01*
X-69544500Y14503012D01*
X-69598391Y14479018D01*
X-69644564Y14454339D01*
X-69673617Y14445525D01*
X-69707027Y14430651D01*
X-69759237Y14419553D01*
X-69804098Y14405945D01*
X-69839806Y14402427D01*
X-69881046Y14393662D01*
X-69928800Y14393662D01*
X-69969999Y14389604D01*
X-70011198Y14393662D01*
X-70058954Y14393662D01*
X-70100194Y14402427D01*
X-70135901Y14405945D01*
X-70180759Y14419552D01*
X-70232973Y14430651D01*
X-70266384Y14445526D01*
X-70295435Y14454339D01*
X-70341602Y14479015D01*
X-70395500Y14503012D01*
X-70420554Y14521215D01*
X-70442453Y14532920D01*
X-70487128Y14569584D01*
X-70539430Y14607584D01*
X-70556411Y14626443D01*
X-70571320Y14638679D01*
X-70611387Y14687501D01*
X-70658473Y14739795D01*
X-70668364Y14756927D01*
X-70677079Y14767546D01*
X-70709306Y14827840D01*
X-70747427Y14893867D01*
X-70751813Y14907368D01*
X-70755660Y14914564D01*
X-70776861Y14984455D01*
X-70802404Y15063067D01*
X-70803303Y15071623D01*
X-70804054Y15074098D01*
X-70811371Y15148389D01*
X-70821000Y15240000D01*
X-70811370Y15331619D01*
X-70804054Y15405901D01*
X-70803303Y15408375D01*
X-70802404Y15416933D01*
X-70776856Y15495558D01*
X-70755660Y15565435D01*
X-70751814Y15572629D01*
X-70747427Y15586133D01*
X-70709299Y15652172D01*
X-70677079Y15712453D01*
X-70668366Y15723069D01*
X-70658473Y15740205D01*
X-70611378Y15792509D01*
X-70571320Y15841320D01*
X-70556414Y15853552D01*
X-70539430Y15872416D01*
X-70487118Y15910423D01*
X-70442453Y15947079D01*
X-70420559Y15958780D01*
X-70395500Y15976988D01*
X-70341591Y16000989D01*
X-70295435Y16025660D01*
X-70266391Y16034470D01*
X-70232973Y16049349D01*
X-70180748Y16060449D01*
X-70135901Y16074054D01*
X-70100203Y16077570D01*
X-70058954Y16086338D01*
X-70011188Y16086338D01*
X-69970000Y16090395D01*
X-69928811Y16086338D01*
G37*
G36*
X-54688811Y16086338D02*
G01*
X-54641046Y16086338D01*
X-54599797Y16077570D01*
X-54564098Y16074054D01*
X-54519248Y16060448D01*
X-54467027Y16049349D01*
X-54433610Y16034471D01*
X-54404564Y16025660D01*
X-54358402Y16000986D01*
X-54304500Y15976988D01*
X-54279443Y15958783D01*
X-54257546Y15947079D01*
X-54212873Y15910416D01*
X-54160570Y15872416D01*
X-54143588Y15853555D01*
X-54128679Y15841320D01*
X-54088610Y15792496D01*
X-54041527Y15740205D01*
X-54031636Y15723073D01*
X-54022920Y15712453D01*
X-53990687Y15652148D01*
X-53952573Y15586133D01*
X-53948186Y15572634D01*
X-53944339Y15565435D01*
X-53923128Y15495512D01*
X-53897596Y15416933D01*
X-53896697Y15408380D01*
X-53895945Y15405901D01*
X-53888613Y15331467D01*
X-53879000Y15240000D01*
X-53888612Y15148540D01*
X-53895945Y15074098D01*
X-53896697Y15071618D01*
X-53897596Y15063067D01*
X-53923123Y14984502D01*
X-53944339Y14914564D01*
X-53948187Y14907363D01*
X-53952573Y14893867D01*
X-53990680Y14827863D01*
X-54022920Y14767546D01*
X-54031638Y14756923D01*
X-54041527Y14739795D01*
X-54088601Y14687513D01*
X-54128679Y14638679D01*
X-54143591Y14626440D01*
X-54160570Y14607584D01*
X-54212862Y14569591D01*
X-54257546Y14532920D01*
X-54279448Y14521213D01*
X-54304500Y14503012D01*
X-54358391Y14479018D01*
X-54404564Y14454339D01*
X-54433617Y14445525D01*
X-54467027Y14430651D01*
X-54519237Y14419553D01*
X-54564098Y14405945D01*
X-54599806Y14402427D01*
X-54641046Y14393662D01*
X-54688800Y14393662D01*
X-54729999Y14389604D01*
X-54771198Y14393662D01*
X-54818954Y14393662D01*
X-54860194Y14402427D01*
X-54895901Y14405945D01*
X-54940759Y14419552D01*
X-54992973Y14430651D01*
X-55026384Y14445526D01*
X-55055435Y14454339D01*
X-55101602Y14479015D01*
X-55155500Y14503012D01*
X-55180554Y14521215D01*
X-55202453Y14532920D01*
X-55247128Y14569584D01*
X-55299430Y14607584D01*
X-55316411Y14626443D01*
X-55331320Y14638679D01*
X-55371387Y14687501D01*
X-55418473Y14739795D01*
X-55428364Y14756927D01*
X-55437079Y14767546D01*
X-55469306Y14827840D01*
X-55507427Y14893867D01*
X-55511813Y14907368D01*
X-55515660Y14914564D01*
X-55536861Y14984455D01*
X-55562404Y15063067D01*
X-55563303Y15071623D01*
X-55564054Y15074098D01*
X-55571371Y15148389D01*
X-55581000Y15240000D01*
X-55571370Y15331619D01*
X-55564054Y15405901D01*
X-55563303Y15408375D01*
X-55562404Y15416933D01*
X-55536856Y15495558D01*
X-55515660Y15565435D01*
X-55511814Y15572629D01*
X-55507427Y15586133D01*
X-55469299Y15652172D01*
X-55437079Y15712453D01*
X-55428366Y15723069D01*
X-55418473Y15740205D01*
X-55371378Y15792509D01*
X-55331320Y15841320D01*
X-55316414Y15853552D01*
X-55299430Y15872416D01*
X-55247118Y15910423D01*
X-55202453Y15947079D01*
X-55180559Y15958780D01*
X-55155500Y15976988D01*
X-55101591Y16000989D01*
X-55055435Y16025660D01*
X-55026391Y16034470D01*
X-54992973Y16049349D01*
X-54940748Y16060449D01*
X-54895901Y16074054D01*
X-54860203Y16077570D01*
X-54818954Y16086338D01*
X-54771188Y16086338D01*
X-54730000Y16090395D01*
X-54688811Y16086338D01*
G37*
G36*
X-69928811Y18626338D02*
G01*
X-69881046Y18626338D01*
X-69839797Y18617570D01*
X-69804098Y18614054D01*
X-69759248Y18600448D01*
X-69707027Y18589349D01*
X-69673610Y18574471D01*
X-69644564Y18565660D01*
X-69598402Y18540986D01*
X-69544500Y18516988D01*
X-69519443Y18498783D01*
X-69497546Y18487079D01*
X-69452873Y18450416D01*
X-69400570Y18412416D01*
X-69383588Y18393555D01*
X-69368679Y18381320D01*
X-69328610Y18332496D01*
X-69281527Y18280205D01*
X-69271636Y18263073D01*
X-69262920Y18252453D01*
X-69230687Y18192148D01*
X-69192573Y18126133D01*
X-69188186Y18112634D01*
X-69184339Y18105435D01*
X-69163128Y18035512D01*
X-69137596Y17956933D01*
X-69136697Y17948380D01*
X-69135945Y17945901D01*
X-69128613Y17871467D01*
X-69119000Y17780000D01*
X-69128612Y17688540D01*
X-69135945Y17614098D01*
X-69136697Y17611618D01*
X-69137596Y17603067D01*
X-69163123Y17524502D01*
X-69184339Y17454564D01*
X-69188187Y17447363D01*
X-69192573Y17433867D01*
X-69230680Y17367863D01*
X-69262920Y17307546D01*
X-69271638Y17296923D01*
X-69281527Y17279795D01*
X-69328601Y17227513D01*
X-69368679Y17178679D01*
X-69383591Y17166440D01*
X-69400570Y17147584D01*
X-69452862Y17109591D01*
X-69497546Y17072920D01*
X-69519448Y17061213D01*
X-69544500Y17043012D01*
X-69598391Y17019018D01*
X-69644564Y16994339D01*
X-69673617Y16985525D01*
X-69707027Y16970651D01*
X-69759237Y16959553D01*
X-69804098Y16945945D01*
X-69839806Y16942427D01*
X-69881046Y16933662D01*
X-69928800Y16933662D01*
X-69969999Y16929604D01*
X-70011198Y16933662D01*
X-70058954Y16933662D01*
X-70100194Y16942427D01*
X-70135901Y16945945D01*
X-70180759Y16959552D01*
X-70232973Y16970651D01*
X-70266384Y16985526D01*
X-70295435Y16994339D01*
X-70341602Y17019015D01*
X-70395500Y17043012D01*
X-70420554Y17061215D01*
X-70442453Y17072920D01*
X-70487128Y17109584D01*
X-70539430Y17147584D01*
X-70556411Y17166443D01*
X-70571320Y17178679D01*
X-70611387Y17227501D01*
X-70658473Y17279795D01*
X-70668364Y17296927D01*
X-70677079Y17307546D01*
X-70709306Y17367840D01*
X-70747427Y17433867D01*
X-70751813Y17447368D01*
X-70755660Y17454564D01*
X-70776861Y17524455D01*
X-70802404Y17603067D01*
X-70803303Y17611623D01*
X-70804054Y17614098D01*
X-70811371Y17688389D01*
X-70821000Y17780000D01*
X-70811370Y17871619D01*
X-70804054Y17945901D01*
X-70803303Y17948375D01*
X-70802404Y17956933D01*
X-70776856Y18035558D01*
X-70755660Y18105435D01*
X-70751814Y18112629D01*
X-70747427Y18126133D01*
X-70709299Y18192172D01*
X-70677079Y18252453D01*
X-70668366Y18263069D01*
X-70658473Y18280205D01*
X-70611378Y18332509D01*
X-70571320Y18381320D01*
X-70556414Y18393552D01*
X-70539430Y18412416D01*
X-70487118Y18450423D01*
X-70442453Y18487079D01*
X-70420559Y18498780D01*
X-70395500Y18516988D01*
X-70341591Y18540989D01*
X-70295435Y18565660D01*
X-70266391Y18574470D01*
X-70232973Y18589349D01*
X-70180748Y18600449D01*
X-70135901Y18614054D01*
X-70100203Y18617570D01*
X-70058954Y18626338D01*
X-70011188Y18626338D01*
X-69970000Y18630395D01*
X-69928811Y18626338D01*
G37*
G36*
X-54688811Y18626338D02*
G01*
X-54641046Y18626338D01*
X-54599797Y18617570D01*
X-54564098Y18614054D01*
X-54519248Y18600448D01*
X-54467027Y18589349D01*
X-54433610Y18574471D01*
X-54404564Y18565660D01*
X-54358402Y18540986D01*
X-54304500Y18516988D01*
X-54279443Y18498783D01*
X-54257546Y18487079D01*
X-54212873Y18450416D01*
X-54160570Y18412416D01*
X-54143588Y18393555D01*
X-54128679Y18381320D01*
X-54088610Y18332496D01*
X-54041527Y18280205D01*
X-54031636Y18263073D01*
X-54022920Y18252453D01*
X-53990687Y18192148D01*
X-53952573Y18126133D01*
X-53948186Y18112634D01*
X-53944339Y18105435D01*
X-53923128Y18035512D01*
X-53897596Y17956933D01*
X-53896697Y17948380D01*
X-53895945Y17945901D01*
X-53888613Y17871467D01*
X-53879000Y17780000D01*
X-53888612Y17688540D01*
X-53895945Y17614098D01*
X-53896697Y17611618D01*
X-53897596Y17603067D01*
X-53923123Y17524502D01*
X-53944339Y17454564D01*
X-53948187Y17447363D01*
X-53952573Y17433867D01*
X-53990680Y17367863D01*
X-54022920Y17307546D01*
X-54031638Y17296923D01*
X-54041527Y17279795D01*
X-54088601Y17227513D01*
X-54128679Y17178679D01*
X-54143591Y17166440D01*
X-54160570Y17147584D01*
X-54212862Y17109591D01*
X-54257546Y17072920D01*
X-54279448Y17061213D01*
X-54304500Y17043012D01*
X-54358391Y17019018D01*
X-54404564Y16994339D01*
X-54433617Y16985525D01*
X-54467027Y16970651D01*
X-54519237Y16959553D01*
X-54564098Y16945945D01*
X-54599806Y16942427D01*
X-54641046Y16933662D01*
X-54688800Y16933662D01*
X-54729999Y16929604D01*
X-54771198Y16933662D01*
X-54818954Y16933662D01*
X-54860194Y16942427D01*
X-54895901Y16945945D01*
X-54940759Y16959552D01*
X-54992973Y16970651D01*
X-55026384Y16985526D01*
X-55055435Y16994339D01*
X-55101602Y17019015D01*
X-55155500Y17043012D01*
X-55180554Y17061215D01*
X-55202453Y17072920D01*
X-55247128Y17109584D01*
X-55299430Y17147584D01*
X-55316411Y17166443D01*
X-55331320Y17178679D01*
X-55371387Y17227501D01*
X-55418473Y17279795D01*
X-55428364Y17296927D01*
X-55437079Y17307546D01*
X-55469306Y17367840D01*
X-55507427Y17433867D01*
X-55511813Y17447368D01*
X-55515660Y17454564D01*
X-55536861Y17524455D01*
X-55562404Y17603067D01*
X-55563303Y17611623D01*
X-55564054Y17614098D01*
X-55571371Y17688389D01*
X-55581000Y17780000D01*
X-55571370Y17871619D01*
X-55564054Y17945901D01*
X-55563303Y17948375D01*
X-55562404Y17956933D01*
X-55536856Y18035558D01*
X-55515660Y18105435D01*
X-55511814Y18112629D01*
X-55507427Y18126133D01*
X-55469299Y18192172D01*
X-55437079Y18252453D01*
X-55428366Y18263069D01*
X-55418473Y18280205D01*
X-55371378Y18332509D01*
X-55331320Y18381320D01*
X-55316414Y18393552D01*
X-55299430Y18412416D01*
X-55247118Y18450423D01*
X-55202453Y18487079D01*
X-55180559Y18498780D01*
X-55155500Y18516988D01*
X-55101591Y18540989D01*
X-55055435Y18565660D01*
X-55026391Y18574470D01*
X-54992973Y18589349D01*
X-54940748Y18600449D01*
X-54895901Y18614054D01*
X-54860203Y18617570D01*
X-54818954Y18626338D01*
X-54771188Y18626338D01*
X-54730000Y18630395D01*
X-54688811Y18626338D01*
G37*
G36*
X-69928811Y21166338D02*
G01*
X-69881046Y21166338D01*
X-69839797Y21157570D01*
X-69804098Y21154054D01*
X-69759248Y21140448D01*
X-69707027Y21129349D01*
X-69673610Y21114471D01*
X-69644564Y21105660D01*
X-69598402Y21080986D01*
X-69544500Y21056988D01*
X-69519443Y21038783D01*
X-69497546Y21027079D01*
X-69452873Y20990416D01*
X-69400570Y20952416D01*
X-69383588Y20933555D01*
X-69368679Y20921320D01*
X-69328610Y20872496D01*
X-69281527Y20820205D01*
X-69271636Y20803073D01*
X-69262920Y20792453D01*
X-69230687Y20732148D01*
X-69192573Y20666133D01*
X-69188186Y20652634D01*
X-69184339Y20645435D01*
X-69163128Y20575512D01*
X-69137596Y20496933D01*
X-69136697Y20488380D01*
X-69135945Y20485901D01*
X-69128613Y20411467D01*
X-69119000Y20320000D01*
X-69128612Y20228540D01*
X-69135945Y20154098D01*
X-69136697Y20151618D01*
X-69137596Y20143067D01*
X-69163123Y20064502D01*
X-69184339Y19994564D01*
X-69188187Y19987363D01*
X-69192573Y19973867D01*
X-69230680Y19907863D01*
X-69262920Y19847546D01*
X-69271638Y19836923D01*
X-69281527Y19819795D01*
X-69328601Y19767513D01*
X-69368679Y19718679D01*
X-69383591Y19706440D01*
X-69400570Y19687584D01*
X-69452862Y19649591D01*
X-69497546Y19612920D01*
X-69519448Y19601213D01*
X-69544500Y19583012D01*
X-69598391Y19559018D01*
X-69644564Y19534339D01*
X-69673617Y19525525D01*
X-69707027Y19510651D01*
X-69759237Y19499553D01*
X-69804098Y19485945D01*
X-69839806Y19482427D01*
X-69881046Y19473662D01*
X-69928800Y19473662D01*
X-69969999Y19469604D01*
X-70011198Y19473662D01*
X-70058954Y19473662D01*
X-70100194Y19482427D01*
X-70135901Y19485945D01*
X-70180759Y19499552D01*
X-70232973Y19510651D01*
X-70266384Y19525526D01*
X-70295435Y19534339D01*
X-70341602Y19559015D01*
X-70395500Y19583012D01*
X-70420554Y19601215D01*
X-70442453Y19612920D01*
X-70487128Y19649584D01*
X-70539430Y19687584D01*
X-70556411Y19706443D01*
X-70571320Y19718679D01*
X-70611387Y19767501D01*
X-70658473Y19819795D01*
X-70668364Y19836927D01*
X-70677079Y19847546D01*
X-70709306Y19907840D01*
X-70747427Y19973867D01*
X-70751813Y19987368D01*
X-70755660Y19994564D01*
X-70776861Y20064455D01*
X-70802404Y20143067D01*
X-70803303Y20151623D01*
X-70804054Y20154098D01*
X-70811371Y20228389D01*
X-70821000Y20320000D01*
X-70811370Y20411619D01*
X-70804054Y20485901D01*
X-70803303Y20488375D01*
X-70802404Y20496933D01*
X-70776856Y20575558D01*
X-70755660Y20645435D01*
X-70751814Y20652629D01*
X-70747427Y20666133D01*
X-70709299Y20732172D01*
X-70677079Y20792453D01*
X-70668366Y20803069D01*
X-70658473Y20820205D01*
X-70611378Y20872509D01*
X-70571320Y20921320D01*
X-70556414Y20933552D01*
X-70539430Y20952416D01*
X-70487118Y20990423D01*
X-70442453Y21027079D01*
X-70420559Y21038780D01*
X-70395500Y21056988D01*
X-70341591Y21080989D01*
X-70295435Y21105660D01*
X-70266391Y21114470D01*
X-70232973Y21129349D01*
X-70180748Y21140449D01*
X-70135901Y21154054D01*
X-70100203Y21157570D01*
X-70058954Y21166338D01*
X-70011188Y21166338D01*
X-69970000Y21170395D01*
X-69928811Y21166338D01*
G37*
G36*
X-54688811Y21166338D02*
G01*
X-54641046Y21166338D01*
X-54599797Y21157570D01*
X-54564098Y21154054D01*
X-54519248Y21140448D01*
X-54467027Y21129349D01*
X-54433610Y21114471D01*
X-54404564Y21105660D01*
X-54358402Y21080986D01*
X-54304500Y21056988D01*
X-54279443Y21038783D01*
X-54257546Y21027079D01*
X-54212873Y20990416D01*
X-54160570Y20952416D01*
X-54143588Y20933555D01*
X-54128679Y20921320D01*
X-54088610Y20872496D01*
X-54041527Y20820205D01*
X-54031636Y20803073D01*
X-54022920Y20792453D01*
X-53990687Y20732148D01*
X-53952573Y20666133D01*
X-53948186Y20652634D01*
X-53944339Y20645435D01*
X-53923128Y20575512D01*
X-53897596Y20496933D01*
X-53896697Y20488380D01*
X-53895945Y20485901D01*
X-53888613Y20411467D01*
X-53879000Y20320000D01*
X-53888612Y20228540D01*
X-53895945Y20154098D01*
X-53896697Y20151618D01*
X-53897596Y20143067D01*
X-53923123Y20064502D01*
X-53944339Y19994564D01*
X-53948187Y19987363D01*
X-53952573Y19973867D01*
X-53990680Y19907863D01*
X-54022920Y19847546D01*
X-54031638Y19836923D01*
X-54041527Y19819795D01*
X-54088601Y19767513D01*
X-54128679Y19718679D01*
X-54143591Y19706440D01*
X-54160570Y19687584D01*
X-54212862Y19649591D01*
X-54257546Y19612920D01*
X-54279448Y19601213D01*
X-54304500Y19583012D01*
X-54358391Y19559018D01*
X-54404564Y19534339D01*
X-54433617Y19525525D01*
X-54467027Y19510651D01*
X-54519237Y19499553D01*
X-54564098Y19485945D01*
X-54599806Y19482427D01*
X-54641046Y19473662D01*
X-54688800Y19473662D01*
X-54729999Y19469604D01*
X-54771198Y19473662D01*
X-54818954Y19473662D01*
X-54860194Y19482427D01*
X-54895901Y19485945D01*
X-54940759Y19499552D01*
X-54992973Y19510651D01*
X-55026384Y19525526D01*
X-55055435Y19534339D01*
X-55101602Y19559015D01*
X-55155500Y19583012D01*
X-55180554Y19601215D01*
X-55202453Y19612920D01*
X-55247128Y19649584D01*
X-55299430Y19687584D01*
X-55316411Y19706443D01*
X-55331320Y19718679D01*
X-55371387Y19767501D01*
X-55418473Y19819795D01*
X-55428364Y19836927D01*
X-55437079Y19847546D01*
X-55469306Y19907840D01*
X-55507427Y19973867D01*
X-55511813Y19987368D01*
X-55515660Y19994564D01*
X-55536861Y20064455D01*
X-55562404Y20143067D01*
X-55563303Y20151623D01*
X-55564054Y20154098D01*
X-55571371Y20228389D01*
X-55581000Y20320000D01*
X-55571370Y20411619D01*
X-55564054Y20485901D01*
X-55563303Y20488375D01*
X-55562404Y20496933D01*
X-55536856Y20575558D01*
X-55515660Y20645435D01*
X-55511814Y20652629D01*
X-55507427Y20666133D01*
X-55469299Y20732172D01*
X-55437079Y20792453D01*
X-55428366Y20803069D01*
X-55418473Y20820205D01*
X-55371378Y20872509D01*
X-55331320Y20921320D01*
X-55316414Y20933552D01*
X-55299430Y20952416D01*
X-55247118Y20990423D01*
X-55202453Y21027079D01*
X-55180559Y21038780D01*
X-55155500Y21056988D01*
X-55101591Y21080989D01*
X-55055435Y21105660D01*
X-55026391Y21114470D01*
X-54992973Y21129349D01*
X-54940748Y21140449D01*
X-54895901Y21154054D01*
X-54860203Y21157570D01*
X-54818954Y21166338D01*
X-54771188Y21166338D01*
X-54730000Y21170395D01*
X-54688811Y21166338D01*
G37*
G36*
X-53910483Y23707118D02*
G01*
X-53893938Y23696062D01*
X-53882882Y23679517D01*
X-53879000Y23660000D01*
X-53879000Y22060000D01*
X-53882882Y22040483D01*
X-53893938Y22023938D01*
X-53910483Y22012882D01*
X-53930000Y22009000D01*
X-53942313Y22009000D01*
X-55517689Y22009000D01*
X-55530000Y22009000D01*
X-55549517Y22012882D01*
X-55566062Y22023938D01*
X-55577118Y22040483D01*
X-55581000Y22060000D01*
X-55581000Y23660000D01*
X-55577118Y23679517D01*
X-55566062Y23696062D01*
X-55549517Y23707118D01*
X-55530000Y23711000D01*
X-53930000Y23711000D01*
X-53910483Y23707118D01*
G37*
G36*
X-69928811Y23706338D02*
G01*
X-69881046Y23706338D01*
X-69839797Y23697570D01*
X-69804098Y23694054D01*
X-69759248Y23680448D01*
X-69707027Y23669349D01*
X-69673610Y23654471D01*
X-69644564Y23645660D01*
X-69598402Y23620986D01*
X-69544500Y23596988D01*
X-69519443Y23578783D01*
X-69497546Y23567079D01*
X-69452873Y23530416D01*
X-69400570Y23492416D01*
X-69383588Y23473555D01*
X-69368679Y23461320D01*
X-69328610Y23412496D01*
X-69281527Y23360205D01*
X-69271636Y23343073D01*
X-69262920Y23332453D01*
X-69230687Y23272148D01*
X-69192573Y23206133D01*
X-69188186Y23192634D01*
X-69184339Y23185435D01*
X-69163128Y23115512D01*
X-69137596Y23036933D01*
X-69136697Y23028380D01*
X-69135945Y23025901D01*
X-69128613Y22951467D01*
X-69119000Y22860000D01*
X-69128612Y22768540D01*
X-69135945Y22694098D01*
X-69136697Y22691618D01*
X-69137596Y22683067D01*
X-69163123Y22604502D01*
X-69184339Y22534564D01*
X-69188187Y22527363D01*
X-69192573Y22513867D01*
X-69230680Y22447863D01*
X-69262920Y22387546D01*
X-69271638Y22376923D01*
X-69281527Y22359795D01*
X-69328601Y22307513D01*
X-69368679Y22258679D01*
X-69383591Y22246440D01*
X-69400570Y22227584D01*
X-69452862Y22189591D01*
X-69497546Y22152920D01*
X-69519448Y22141213D01*
X-69544500Y22123012D01*
X-69598391Y22099018D01*
X-69644564Y22074339D01*
X-69673617Y22065525D01*
X-69707027Y22050651D01*
X-69759237Y22039553D01*
X-69804098Y22025945D01*
X-69839806Y22022427D01*
X-69881046Y22013662D01*
X-69928800Y22013662D01*
X-69969999Y22009604D01*
X-70011198Y22013662D01*
X-70058954Y22013662D01*
X-70100194Y22022427D01*
X-70135901Y22025945D01*
X-70180759Y22039552D01*
X-70232973Y22050651D01*
X-70266384Y22065526D01*
X-70295435Y22074339D01*
X-70341602Y22099015D01*
X-70395500Y22123012D01*
X-70420554Y22141215D01*
X-70442453Y22152920D01*
X-70487128Y22189584D01*
X-70539430Y22227584D01*
X-70556411Y22246443D01*
X-70571320Y22258679D01*
X-70611387Y22307501D01*
X-70658473Y22359795D01*
X-70668364Y22376927D01*
X-70677079Y22387546D01*
X-70709306Y22447840D01*
X-70747427Y22513867D01*
X-70751813Y22527368D01*
X-70755660Y22534564D01*
X-70776861Y22604455D01*
X-70802404Y22683067D01*
X-70803303Y22691623D01*
X-70804054Y22694098D01*
X-70811371Y22768389D01*
X-70821000Y22860000D01*
X-70811370Y22951619D01*
X-70804054Y23025901D01*
X-70803303Y23028375D01*
X-70802404Y23036933D01*
X-70776856Y23115558D01*
X-70755660Y23185435D01*
X-70751814Y23192629D01*
X-70747427Y23206133D01*
X-70709299Y23272172D01*
X-70677079Y23332453D01*
X-70668366Y23343069D01*
X-70658473Y23360205D01*
X-70611378Y23412509D01*
X-70571320Y23461320D01*
X-70556414Y23473552D01*
X-70539430Y23492416D01*
X-70487118Y23530423D01*
X-70442453Y23567079D01*
X-70420559Y23578780D01*
X-70395500Y23596988D01*
X-70341591Y23620989D01*
X-70295435Y23645660D01*
X-70266391Y23654470D01*
X-70232973Y23669349D01*
X-70180748Y23680449D01*
X-70135901Y23694054D01*
X-70100203Y23697570D01*
X-70058954Y23706338D01*
X-70011188Y23706338D01*
X-69970000Y23710395D01*
X-69928811Y23706338D01*
G37*
M02*
