  0
SECTION
  2
HEADER
  9
$ANGBASE
  50
0.0
  9
$ANGDIR
  70
1
  9
$MEASUREMENT
  70
0
  0
ENDSEC
  0
SECTION
  2
TABLES
  0
TABLE
  2
LTYPE
  70
4
  0
LTYPE
  5
40F
  2
CONTINUOUS
  70
0
  3
Solid line
  72
65
  73
0
  40
0.0
  0
LTYPE
  5
410
  2
DASHDOT
 70
0
  3
Dash Dot ____ _ ____ _
 72
65
 73
4
 40
2.0
 49
1.25
 49
-0.25
 49
0.25
 49
-0.25
  0
LTYPE
  5
411
  2
DASHED
 70
0
  3
Dashed __ __ __ __ __
 72
65
 73
2
 40
0.75
 49
0.5
 49
-0.25
  0
LTYPE
  5
43B
  2
DOTTED
 70
0
  3
Dotted .  .  .  .
 72
65
 73
2
 40
0.2
 49
0.0
 49
-0.2
  0
ENDTAB
  0
TABLE
  2
STYLE
  70
4
  0
STYLE
  2
KICAD
  70
0
  40
0
  41
1
  42
1
  50
0
  71
0
  3
isocp.shx
  0
STYLE
  2
KICADB
  70
0
  40
0
  41
1
  42
1
  50
0
  71
0
  3
isocp.shx
  0
STYLE
  2
KICADI
  70
0
  40
0
  41
1
  42
1
  50
15
  71
0
  3
isocp.shx
  0
STYLE
  2
KICADBI
  70
0
  40
0
  41
1
  42
1
  50
15
  71
0
  3
isocp.shx
  0
ENDTAB
  0
TABLE
  2
LAYER
  70
1
  0
LAYER
  2
BLACK
  70
0
  62
7
  6
CONTINUOUS
  0
ENDTAB
  0
ENDSEC
  0
SECTION
  2
ENTITIES
0
LINE
8
BLACK
6
CONTINUOUS
10
7.9501
20
-2.55803
11
7.95039
21
-2.55806
0
LINE
8
BLACK
6
CONTINUOUS
10
7.95039
20
-2.55806
11
7.95076
21
-2.55817
0
LINE
8
BLACK
6
CONTINUOUS
10
7.95076
20
-2.55817
11
7.9511
21
-2.55836
0
LINE
8
BLACK
6
CONTINUOUS
10
7.9511
20
-2.55836
11
7.9514
21
-2.5586
0
LINE
8
BLACK
6
CONTINUOUS
10
7.9514
20
-2.5586
11
7.95164
21
-2.5589
0
LINE
8
BLACK
6
CONTINUOUS
10
7.95164
20
-2.5589
11
7.95183
21
-2.55924
0
LINE
8
BLACK
6
CONTINUOUS
10
7.95183
20
-2.55924
11
7.95194
21
-2.55961
0
LINE
8
BLACK
6
CONTINUOUS
10
7.95194
20
-2.55961
11
7.95198
21
-2.56
0
LINE
8
BLACK
6
CONTINUOUS
10
7.95198
20
-2.56
11
7.95197
21
-2.5601
0
LINE
8
BLACK
6
CONTINUOUS
10
7.95197
20
-2.5601
11
7.95197
21
-5.8499
0
LINE
8
BLACK
6
CONTINUOUS
10
7.95197
20
-5.8499
11
7.95198
21
-5.85
0
LINE
8
BLACK
6
CONTINUOUS
10
7.95198
20
-5.85
11
7.95197
21
-5.8501
0
LINE
8
BLACK
6
CONTINUOUS
10
7.95197
20
-5.8501
11
7.95197
21
-5.8501
0
LINE
8
BLACK
6
CONTINUOUS
10
7.95197
20
-5.8501
11
7.95194
21
-5.85039
0
LINE
8
BLACK
6
CONTINUOUS
10
7.95194
20
-5.85039
11
7.95183
21
-5.85076
0
LINE
8
BLACK
6
CONTINUOUS
10
7.95183
20
-5.85076
11
7.95164
21
-5.8511
0
LINE
8
BLACK
6
CONTINUOUS
10
7.95164
20
-5.8511
11
7.9514
21
-5.8514
0
LINE
8
BLACK
6
CONTINUOUS
10
7.9514
20
-5.8514
11
7.9511
21
-5.85164
0
LINE
8
BLACK
6
CONTINUOUS
10
7.9511
20
-5.85164
11
7.95076
21
-5.85183
0
LINE
8
BLACK
6
CONTINUOUS
10
7.95076
20
-5.85183
11
7.95039
21
-5.85194
0
LINE
8
BLACK
6
CONTINUOUS
10
7.95039
20
-5.85194
11
7.95
21
-5.85198
0
LINE
8
BLACK
6
CONTINUOUS
10
7.95
20
-5.85198
11
7.9499
21
-5.85197
0
LINE
8
BLACK
6
CONTINUOUS
10
7.9499
20
-5.85197
11
3.6301
21
-5.85197
0
LINE
8
BLACK
6
CONTINUOUS
10
3.6301
20
-5.85197
11
3.63
21
-5.85198
0
LINE
8
BLACK
6
CONTINUOUS
10
3.63
20
-5.85198
11
3.62961
21
-5.85194
0
LINE
8
BLACK
6
CONTINUOUS
10
3.62961
20
-5.85194
11
3.62924
21
-5.85183
0
LINE
8
BLACK
6
CONTINUOUS
10
3.62924
20
-5.85183
11
3.6289
21
-5.85164
0
LINE
8
BLACK
6
CONTINUOUS
10
3.6289
20
-5.85164
11
3.6286
21
-5.8514
0
LINE
8
BLACK
6
CONTINUOUS
10
3.6286
20
-5.8514
11
3.62836
21
-5.8511
0
LINE
8
BLACK
6
CONTINUOUS
10
3.62836
20
-5.8511
11
3.62817
21
-5.85076
0
LINE
8
BLACK
6
CONTINUOUS
10
3.62817
20
-5.85076
11
3.62806
21
-5.85039
0
LINE
8
BLACK
6
CONTINUOUS
10
3.62806
20
-5.85039
11
3.62802
21
-5.85
0
LINE
8
BLACK
6
CONTINUOUS
10
3.62802
20
-5.85
11
3.62803
21
-5.8499
0
LINE
8
BLACK
6
CONTINUOUS
10
3.62803
20
-5.8499
11
3.62803
21
-2.5601
0
LINE
8
BLACK
6
CONTINUOUS
10
3.62803
20
-2.5601
11
3.62802
21
-2.56
0
LINE
8
BLACK
6
CONTINUOUS
10
3.62802
20
-2.56
11
3.62806
21
-2.55961
0
LINE
8
BLACK
6
CONTINUOUS
10
3.62806
20
-2.55961
11
3.62817
21
-2.55924
0
LINE
8
BLACK
6
CONTINUOUS
10
3.62817
20
-2.55924
11
3.62836
21
-2.5589
0
LINE
8
BLACK
6
CONTINUOUS
10
3.62836
20
-2.5589
11
3.6286
21
-2.5586
0
LINE
8
BLACK
6
CONTINUOUS
10
3.6286
20
-2.5586
11
3.6289
21
-2.55836
0
LINE
8
BLACK
6
CONTINUOUS
10
3.6289
20
-2.55836
11
3.62924
21
-2.55817
0
LINE
8
BLACK
6
CONTINUOUS
10
3.62924
20
-2.55817
11
3.62961
21
-2.55806
0
LINE
8
BLACK
6
CONTINUOUS
10
3.62961
20
-2.55806
11
3.6299
21
-2.55803
0
LINE
8
BLACK
6
CONTINUOUS
10
3.6299
20
-2.55803
11
3.63
21
-2.55802
0
LINE
8
BLACK
6
CONTINUOUS
10
3.63
20
-2.55802
11
3.6301
21
-2.55803
0
LINE
8
BLACK
6
CONTINUOUS
10
3.6301
20
-2.55803
11
7.9499
21
-2.55803
0
LINE
8
BLACK
6
CONTINUOUS
10
7.9499
20
-2.55803
11
7.95
21
-2.55802
0
LINE
8
BLACK
6
CONTINUOUS
10
7.95
20
-2.55802
11
7.9501
21
-2.55803
0
LINE
8
BLACK
6
CONTINUOUS
10
3.63197
20
-2.56197
11
3.63197
21
-5.84803
0
LINE
8
BLACK
6
CONTINUOUS
10
3.63197
20
-5.84803
11
7.94803
21
-5.84803
0
LINE
8
BLACK
6
CONTINUOUS
10
7.94803
20
-5.84803
11
7.94803
21
-2.56197
0
LINE
8
BLACK
6
CONTINUOUS
10
7.94803
20
-2.56197
11
3.63197
21
-2.56197
  0
ENDSEC
  0
EOF
